<?xml version="1.0" encoding="UTF-8" standalone="no"?>

<svg
   version="1.1"
   id="Layer_3"
   x="0px"
   y="0px"
   width="283.46px"
   height="283.46px"
   viewBox="0 0 283.46 283.46"
   enable-background="new 0 0 283.46 283.46"
   xml:space="preserve"
   sodipodi:docname="360.svg"
   inkscape:version="1.2.2 (b0a8486541, 2022-12-01)"
   xmlns:inkscape="http://www.inkscape.org/namespaces/inkscape"
   xmlns:sodipodi="http://sodipodi.sourceforge.net/DTD/sodipodi-0.dtd"
   xmlns="http://www.w3.org/2000/svg"
   xmlns:svg="http://www.w3.org/2000/svg"><defs
   id="defs15" /><sodipodi:namedview
   id="namedview13"
   pagecolor="#ffffff"
   bordercolor="#000000"
   borderopacity="0.25"
   inkscape:showpageshadow="2"
   inkscape:pageopacity="0.0"
   inkscape:pagecheckerboard="0"
   inkscape:deskcolor="#d1d1d1"
   showgrid="false"
   inkscape:zoom="2.0954269"
   inkscape:cx="-21.236722"
   inkscape:cy="152.71351"
   inkscape:window-width="1920"
   inkscape:window-height="1015"
   inkscape:window-x="0"
   inkscape:window-y="0"
   inkscape:window-maximized="1"
   inkscape:current-layer="Layer_3" />
<path
   id="rect2"
   d="M 141.73047 7.0839844 C 67.368543 7.0839844 7.0839844 67.368543 7.0839844 141.73047 C 7.0839844 216.09339 67.367543 276.37695 141.73047 276.37695 C 216.09339 276.37695 276.37695 216.09439 276.37695 141.73047 C 276.37595 67.368543 216.09339 7.0839844 141.73047 7.0839844 z M 210.07031 62.761719 L 229.82422 62.761719 C 232.49422 62.761719 234.6582 64.924753 234.6582 67.59375 L 234.6582 87.357422 C 234.6582 90.026419 232.49422 92.189453 229.82422 92.189453 L 210.07031 92.189453 C 207.40232 92.189453 205.23828 90.026419 205.23828 87.357422 L 205.23828 67.59375 C 205.23828 64.924753 207.40232 62.761719 210.07031 62.761719 z M 214.90234 72.427734 L 214.90234 82.523438 L 224.99219 82.523438 L 224.99219 72.427734 L 214.90234 72.427734 z M 72.564453 92.4375 L 97.269531 92.4375 C 99.938529 92.4375 102.10352 94.600534 102.10352 97.269531 L 102.10352 156.55078 C 102.10352 159.21978 99.938529 161.38281 97.269531 161.38281 L 72.564453 161.38281 C 69.896456 161.38281 67.732422 159.21978 67.732422 156.55078 C 67.732422 153.88078 69.896456 151.7168 72.564453 151.7168 L 92.4375 151.7168 L 92.4375 131.74219 L 72.564453 131.74219 C 69.896456 131.74219 67.732422 129.58015 67.732422 126.91016 C 67.732422 124.24216 69.896456 122.07812 72.564453 122.07812 L 92.4375 122.07812 L 92.4375 102.10352 L 72.564453 102.10352 C 69.896456 102.10352 67.732422 99.938529 67.732422 97.269531 C 67.732422 94.600534 69.896456 92.4375 72.564453 92.4375 z M 117.02539 92.4375 L 141.73047 92.4375 C 144.39947 92.4375 146.5625 94.600534 146.5625 97.269531 C 146.5625 99.938529 144.39947 102.10352 141.73047 102.10352 L 121.85938 102.10352 L 121.85938 122.07812 L 146.66797 122.07812 C 149.33597 122.07812 151.5 124.24116 151.5 126.91016 L 151.5 156.55078 L 151.49805 156.55078 C 151.49805 159.21978 149.33401 161.38281 146.66602 161.38281 L 117.02539 161.38281 C 114.35639 161.38281 112.19336 159.21978 112.19336 156.55078 L 112.19336 97.269531 C 112.19336 94.600534 114.35639 92.4375 117.02539 92.4375 z M 166.43555 92.4375 L 196.07617 92.4375 C 198.74417 92.4375 200.9082 94.600534 200.9082 97.269531 L 200.9082 156.55078 C 200.9082 159.21978 198.74417 161.38281 196.07617 161.38281 L 166.43555 161.38281 C 163.76555 161.38281 161.60156 159.21978 161.60156 156.55078 L 161.60156 97.269531 C 161.60156 94.600534 163.76555 92.4375 166.43555 92.4375 z M 171.26758 102.10352 L 171.26758 151.71875 L 191.24219 151.71875 L 191.24219 102.10352 L 171.26758 102.10352 z M 59.021484 129.02734 C 60.897701 129.19009 62.584672 130.44731 63.201172 132.35156 C 64.025171 134.89056 62.634701 137.61645 60.095703 138.43945 C 40.883722 144.67045 29.412109 153.01487 29.412109 160.75586 C 29.412109 167.42185 37.96964 174.62082 52.890625 180.50781 C 68.07861 186.50181 88.736945 190.68288 111.54492 192.42188 L 100.73633 179.64453 C 99.01233 177.60653 99.26769 174.55603 101.30469 172.83203 C 103.34169 171.10703 106.39124 171.36339 108.11523 173.40039 L 124.59961 192.88672 C 125.33761 193.75772 125.74219 194.86481 125.74219 196.00781 L 125.74219 196.37891 C 125.74219 197.57591 125.30005 198.72824 124.49805 199.61523 L 106.91406 219.10156 C 105.96006 220.15856 104.64422 220.69727 103.32422 220.69727 C 102.17022 220.69727 101.01384 220.28712 100.08984 219.45312 C 98.108846 217.66413 97.950283 214.6089 99.738281 212.62891 L 109.37695 201.94531 C 86.180976 200.06531 65.080734 195.70704 49.34375 189.49805 C 29.982769 181.85605 19.748047 171.91985 19.748047 160.75586 C 19.748047 154.01687 23.455539 147.72845 30.769531 142.06445 C 37.073525 137.18346 45.937246 132.87209 57.115234 129.24609 C 57.749734 129.04034 58.396079 128.97309 59.021484 129.02734 z M 211.46875 129.0293 C 212.09437 128.97509 212.7422 129.04205 213.37695 129.24805 C 224.55394 132.87404 233.41571 137.18736 239.7207 142.06836 C 247.0347 147.73235 250.74219 154.01982 250.74219 160.75781 C 250.74319 171.9198 240.50942 181.85901 221.14844 189.5 C 210.66245 193.638 197.79375 196.95077 183.50977 199.25977 C 180.92177 199.79077 178.13106 200.1947 175.16406 200.4707 C 174.74006 200.5257 174.32053 200.58272 173.89453 200.63672 L 173.89453 200.57227 C 169.63554 200.91227 165.02096 201.00412 160.04297 200.82812 C 157.37497 200.73313 155.28677 198.49412 155.38477 195.82812 C 155.47877 193.16013 157.71677 191.07492 160.38477 191.16992 C 165.40376 191.34892 170.00163 191.23147 174.14062 190.85547 C 190.86761 188.67947 205.86767 185.14171 217.59766 180.51172 C 232.51864 174.62472 241.07617 167.42381 241.07617 160.75781 C 241.07617 153.01782 229.60556 144.67535 210.39258 138.44336 C 207.85358 137.62136 206.46011 134.89447 207.28711 132.35547 C 207.90286 130.45122 209.59188 129.19191 211.46875 129.0293 z M 121.85742 131.74219 L 121.85742 151.71875 L 141.83203 151.71875 L 141.83203 131.74219 L 121.85742 131.74219 z " />
</svg>
