<?xml version="1.0" encoding="utf-8"?>
<!-- Generator: Adobe Illustrator 15.1.0, SVG Export Plug-In . SVG Version: 6.00 Build 0)  -->
<!DOCTYPE svg PUBLIC "-//W3C//DTD SVG 1.1//EN" "http://www.w3.org/Graphics/SVG/1.1/DTD/svg11.dtd">
<svg version="1.1" id="Layer_1" xmlns="http://www.w3.org/2000/svg" xmlns:xlink="http://www.w3.org/1999/xlink" x="0px" y="0px"
	 width="283.46px" height="283.46px" viewBox="0 0 283.46 283.46" enable-background="new 0 0 283.46 283.46" xml:space="preserve">
<g id="Layer_4">
</g>
<g id="Layer_3">
</g>
<g id="Layer_2">
</g>
<g>
	<path fill="none" d="M165.13,237.389c0,0.004-66.938-0.111-93.167-0.066l-10.352,0.063c-2.28,0.099-2.373,2.396-2.366,2.502
		c0.069,1.309,1.185,2.316,2.495,2.242l0.107-0.01l10.125-0.055c26.225-0.05,93.153,0.064,93.153,0.064
		c1.311,0.002,2.369-1.061,2.377-2.369C167.505,238.453,166.439,237.391,165.13,237.389z"/>
	<path fill="none" d="M235.201,91.021c-0.068-0.029-0.138-0.054-0.205-0.081c-0.17-0.065-0.343-0.123-0.517-0.172
		c-0.071-0.021-0.144-0.043-0.215-0.061c-0.22-0.055-0.44-0.1-0.667-0.131c-0.02-0.003-0.038-0.008-0.057-0.01
		c-0.244-0.031-0.488-0.045-0.734-0.047c-0.068-0.001-0.139,0.003-0.207,0.004c-0.191,0.004-0.383,0.017-0.572,0.038
		c-0.072,0.008-0.145,0.016-0.216,0.026c-0.251,0.037-0.502,0.084-0.749,0.151c-1.624,0.445-3.006,1.515-3.837,2.977
		c-6.361,11.153-20.579,36.087-25.563,44.829c-0.979,1.715-0.379,3.893,1.33,4.872c0.426,0.237,0.86,0.489,1.281,0.729
		c0.191,0.109,0.389,0.191,0.589,0.261c0.048,0.019,0.097,0.033,0.146,0.05c0.199,0.061,0.4,0.107,0.602,0.133
		c0.021,0.002,0.041,0.002,0.063,0.002c0.186,0.021,0.369,0.022,0.555,0.013c0.052-0.003,0.104-0.005,0.156-0.011
		c0.199-0.02,0.398-0.051,0.593-0.103c0.021-0.006,0.04-0.015,0.062-0.021c0.176-0.051,0.348-0.118,0.514-0.195
		c0.048-0.021,0.095-0.044,0.141-0.066c0.182-0.094,0.355-0.199,0.52-0.322c0.009-0.006,0.017-0.016,0.026-0.023
		c0.154-0.119,0.296-0.255,0.431-0.4c0.035-0.041,0.071-0.08,0.106-0.123c0.136-0.162,0.265-0.332,0.373-0.522
		c4.978-8.727,19.019-33.358,23.392-40.937c0.131-0.226,0.289-0.43,0.467-0.611c0.006-0.005,0.01-0.011,0.015-0.016
		c0.177-0.176,0.375-0.326,0.588-0.452c0.009-0.006,0.019-0.013,0.028-0.019c0.211-0.122,0.438-0.214,0.673-0.281
		c0.017-0.004,0.028-0.01,0.043-0.014c0.233-0.062,0.478-0.093,0.724-0.096c0.014,0,0.025-0.005,0.039-0.005c0.02,0,0.04,0,0.061,0
		c1.005,0.571,2.185,1.245,2.185,1.245l-56.886,99.762l26.255,14.972l60.938-106.883c0,0-21.418-12.214-31.797-18.132
		C235.653,91.224,235.429,91.118,235.201,91.021z"/>
	<path fill="none" d="M176.406,219.333c-0.486-1.215-1.867-1.804-3.085-1.321c-2.198,0.879-4.506,1.86-6.881,2.444
		c-1.423,0.35-2.871,0.556-4.331,0.463c-0.806-0.051-1.58-0.357-2.348-0.678c-1.1-0.457-2.189-0.963-3.285-1.273
		c-1.284-0.357-2.583-0.473-3.922-0.16c-1.297,0.299-2.695,0.994-4.127,1.835c-1.534,0.899-3.112,1.979-4.684,2.604
		c-0.613,0.242-1.209,0.434-1.795,0.41c-0.008-0.193-0.008-0.404,0-0.55c0.013-0.718-0.029-1.403-0.191-1.94
		c-0.367-1.252-1.137-2.121-2.649-2.373c-1.5-0.252-3.185,0.011-4.93,0.474c-1.739,0.462-3.559,1.155-5.267,1.19
		c-0.286,0.006-0.571-0.014-0.848-0.071l0.064-0.107c0.251-0.423,2.068-3.063,2.633-4.821c0.444-1.39,0.212-2.549-0.25-3.244
		c-0.442-0.666-1.628-1.639-3.341-0.742c-0.768,0.408-2.465,1.992-2.674,2.247c-0.883,1.108-2.185,3.556-2.355,5.592
		c-0.037,0.423-0.028,0.838,0.025,1.229c-0.401,0.483-0.825,0.949-1.269,1.392c-1.197,1.196-2.554,2.231-4.05,3.04
		c-0.396,0.214-0.906,0.413-1.435,0.521c-0.363,0.065-0.755,0.186-1.055,0.041c0.006-0.119,0.021-0.31,0.051-0.434
		c0.15-0.671,0.488-1.381,0.854-2.059c0.714-1.308,1.575-2.459,1.943-2.979l1.268-1.615c0.412-0.467,1.308-1.15,1.936-1.854
		c0.531-0.592,0.918-1.225,1.109-1.797c0.172-0.51,0.18-0.936,0.114-1.282c2.04-1.418,4.044-2.888,5.961-4.461
		c1.179-0.963,3.491-2.675,4.475-4.556c0.708-1.353,0.884-2.797,0.303-4.242c-0.728-1.825-2.135-3.15-3.942-4.053
		c-3.074-1.543-7.466-1.764-10.079-2.033l-3.99-0.267l-4.197-0.131c-2.054-0.032-4.093-0.011-6.131,0.076
		c-2.043,0.087-4.082,0.233-6.133,0.452c-0.925,0.099-1.843,0.199-2.755,0.305l-0.243-0.893c-0.57-2.086-1.213-5.34-2.481-7.818
		c-0.74-1.449-1.695-2.646-2.858-3.434c-1.433-0.965-2.933-0.805-4.329,0.445c-0.954,0.855-1.876,2.656-2.534,4.155l-0.772,1.013
		c-0.857,1.203-1.661,2.45-2.423,3.721c-1.117,1.865-2.149,3.781-3.155,5.703c-0.51,0.979-1.02,1.957-1.524,2.938
		c-0.826,0.497-1.634,1.03-2.43,1.613c-1.778-0.307-3.573-0.646-5.364-0.909c-1.157-0.168-2.315-0.312-3.467-0.397
		c-0.258-0.022-2.586-0.199-3.524,0.064c-0.735,0.209-1.211,0.607-1.493,0.977c-0.54,0.698-0.683,1.475-0.462,2.31
		c0.119,0.45,0.398,0.981,0.893,1.471c0.675,0.665,2.024,1.378,2.072,1.407l4.438,2.337c-0.565,0.917-1.056,1.883-1.443,2.874
		c-0.712,1.832-1.079,3.763-0.949,5.707c0.103,1.514,0.456,2.883,1.019,4.113c-0.483,0.998-0.96,2.004-1.418,3.02
		c-0.435,0.965-0.854,1.938-1.239,2.921c-0.046,0.077-0.291,0.476-0.395,0.687c-0.21,0.412-0.336,0.836-0.371,1.23
		c-0.059,0.643,0.07,1.251,0.442,1.83c0.724,1.124,1.726,1.428,2.901,1.113c0.665-0.178,1.71-1.063,2.198-1.643l2.612-3.703
		c0.292,0.205,0.59,0.404,0.895,0.597c4.615,2.896,10.976,4.272,15.32,5.42c1.055,0.276,1.958,0.485,2.833,0.671
		c1.312,0.273,2.557,0.488,4.166,0.783c1.406,0.258,5.745,1.014,8.66,0.482c2.373-0.437,3.946-1.691,4.358-3.559
		c0.524-1.636,0.592-3.459,0.339-5.305c-0.086-0.629-0.212-1.269-0.366-1.896l4.389-2.909l1.57-0.74c-0.53,1-0.997,2.07-1.22,3.054
		c-0.46,2.026-0.037,3.81,1.354,4.999c1.006,0.861,2.278,1.256,3.625,1.256c1.547,0.002,3.193-0.544,4.35-1.165
		c1.897-1.024,3.615-2.334,5.135-3.849c0.305-0.305,0.603-0.62,0.892-0.937c1.211,0.64,2.511,0.875,3.864,0.849
		c1.768-0.029,3.65-0.576,5.476-1.099c0.944-0.268,1.866-0.555,2.725-0.649c-0.009,0.473,0.006,0.947,0.073,1.385
		c0.231,1.494,0.959,2.671,2.599,3.217c1.8,0.6,3.697,0.37,5.608-0.391c1.515-0.602,3.052-1.545,4.538-2.447
		c1.26-0.76,2.465-1.52,3.596-1.779c0.543-0.124,1.059-0.037,1.569,0.108c2.187,0.612,4.324,1.979,6.625,2.118
		c1.938,0.121,3.868-0.123,5.761-0.59c2.59-0.654,5.111-1.707,7.508-2.668C176.298,221.932,176.89,220.548,176.406,219.333z
		 M84.17,196.552L84.17,196.552l2.192-5.944l0.391-1.06v-0.002l1.172-1.523l0.169-0.191c0.174,0.326,0.33,0.676,0.478,1.041
		c0.853,2.063,1.308,4.469,1.752,6.088l0.061,0.227l0.017,0.063c-2.131,0.342-4.212,0.761-6.232,1.305V196.552z M82.078,202.194
		c3.026-1.132,6.226-1.833,9.558-2.344l2.142,8.586c-3.589-2.324-7.738-3.739-12.272-4.758L82.078,202.194z M79.71,208.125
		c4.285,0.901,8.208,2.151,11.567,4.342c1.533,1,2.94,2.203,4.206,3.668l0.46,2.291c-1.279-0.907-2.604-1.728-3.969-2.485
		c-1.223-0.681-2.484-1.3-3.758-1.896c-0.762-0.356-1.532-0.701-2.306-1.039c-2.324-1.01-4.692-1.949-7.048-2.918L79.71,208.125z
		 M98.463,230.845c-2.182,0.035-4.625-0.43-5.548-0.598c-1.569-0.291-2.78-0.496-4.056-0.762c-0.801-0.169-1.628-0.363-2.593-0.615
		c-3.964-1.048-9.799-2.209-14.009-4.854c-0.248-0.155-0.492-0.314-0.727-0.484c0,0,0-0.002-0.001-0.002c0,0,0-0.001,0.001-0.001
		l-0.001-0.001c0.445-0.674,0.885-1.357,1.323-2.043c1.476-2.328,2.789-4.693,3.989-7.101c4.36,1.794,8.773,3.444,12.828,5.698
		c0.209,0.117,0.413,0.24,0.621,0.362c1.006,0.581,1.987,1.204,2.936,1.882c0.648,0.463,1.287,0.941,1.905,1.461v0.002
		c0,0,0,0,0.001,0c-0.858,0.522-1.797,1.155-2.18,1.627c-0.779,0.963-0.795,1.908-0.53,2.643c0.037,0.104,0.081,0.202,0.128,0.297
		c0.272,0.544,0.651,0.88,1.068,1.107c0.247,0.132,0.521,0.229,0.816,0.272c0.295,0.043,0.615,0.037,0.953-0.034
		c0.262-0.058,0.848-0.343,1.07-0.459c0.77-0.267,1.276-0.453,1.691-0.63l0.396,1.009l0.474,1.199l0.001,0.006
		C98.839,230.835,98.652,230.843,98.463,230.845z M109.304,216.067c-0.743,0.509-1.482,1.017-2.224,1.515
		c-1.307,0.616-2.612,1.224-3.911,1.852l-0.18-0.379c-0.918-1.895-1.956-3.564-3.102-5.031c-0.571-2.719-1.186-5.424-1.835-8.128
		c-0.536-2.224-1.095-4.449-1.672-6.66h0.001c0-0.004,0-0.006,0-0.006s0-0.002,0-0.004c0.669-0.078,1.345-0.147,2.019-0.222
		c1.946-0.207,3.888-0.348,5.83-0.428c1.946-0.082,3.895-0.103,5.858-0.07l4.044,0.129l3.736,0.242
		c1.921,0.199,4.98,0.285,7.466,1.152c1.15,0.402,2.21,0.924,2.633,1.977c0.018,0.049,0.021,0.092,0.01,0.136
		c-0.009,0.042-0.029,0.081-0.056,0.121c-0.052,0.077-0.126,0.153-0.181,0.237c-0.232,0.359-0.546,0.693-0.874,1.004
		c-0.806,0.773-1.714,1.416-2.277,1.879c-1.895,1.551-3.878,2.996-5.896,4.396C115.593,211.916,112.405,213.953,109.304,216.067z"/>
	<path fill="none" d="M175.142,237.526c-0.089,0.797,0.305,1.574,1.004,1.974c0.698,0.396,1.566,0.342,2.207-0.146
		c8.167-6.179,26.855-20.321,26.855-20.321l-26.254-14.971C178.955,204.062,176.302,227.351,175.142,237.526z"/>
	<path d="M90.385,195.187l-0.061-0.227c-0.444-1.619-0.899-4.025-1.752-6.088c-0.148-0.365-0.304-0.715-0.478-1.041l-0.169,0.191
		l-1.172,1.523v0.002l-0.391,1.06l-2.191,5.944H84.17v0.002c2.02-0.544,4.101-0.963,6.232-1.305L90.385,195.187z"/>
	<path d="M98.544,229.623l-0.396-1.009c-0.415,0.177-0.921,0.363-1.691,0.63c-0.222,0.116-0.808,0.401-1.07,0.459
		c-0.338,0.071-0.658,0.077-0.953,0.034c-0.295-0.044-0.569-0.141-0.816-0.272c-0.417-0.228-0.796-0.563-1.068-1.107
		c-0.047-0.095-0.091-0.193-0.128-0.297c-0.265-0.734-0.249-1.68,0.53-2.643c0.383-0.472,1.322-1.104,2.18-1.627
		c-0.001,0-0.001,0-0.001,0v-0.002c-0.618-0.52-1.257-0.998-1.905-1.461c-0.949-0.678-1.93-1.301-2.936-1.882
		c-0.208-0.122-0.412-0.245-0.621-0.362c-4.055-2.254-8.468-3.904-12.828-5.698c-1.2,2.407-2.513,4.772-3.989,7.101
		c-0.438,0.686-0.878,1.369-1.323,2.043l0.001,0.001c-0.001,0-0.001,0.001-0.001,0.001c0.001,0,0.001,0.002,0.001,0.002
		c0.235,0.17,0.479,0.329,0.727,0.484c4.21,2.645,10.045,3.806,14.009,4.854c0.965,0.252,1.792,0.446,2.593,0.615
		c1.276,0.266,2.487,0.471,4.056,0.762c0.923,0.168,3.366,0.633,5.548,0.598c0.189-0.002,0.376-0.01,0.556-0.018l-0.001-0.006
		L98.544,229.623z"/>
	<path d="M91.636,199.85c-3.332,0.511-6.532,1.212-9.558,2.344l-0.572,1.484c4.534,1.019,8.683,2.434,12.272,4.758L91.636,199.85z"
		/>
	<path d="M124.589,205.382c0.563-0.463,1.471-1.105,2.277-1.879c0.328-0.311,0.642-0.645,0.874-1.004
		c0.055-0.084,0.129-0.16,0.181-0.237c0.027-0.04,0.047-0.079,0.056-0.121c0.011-0.044,0.008-0.087-0.01-0.136
		c-0.423-1.053-1.483-1.574-2.633-1.977c-2.486-0.867-5.545-0.953-7.466-1.152l-3.736-0.242l-4.044-0.129
		c-1.963-0.032-3.912-0.012-5.858,0.07c-1.942,0.08-3.884,0.221-5.83,0.428c-0.674,0.074-1.35,0.144-2.019,0.222
		c0,0.002,0,0.004,0,0.004s0,0.002,0,0.006H96.38c0.577,2.211,1.136,4.437,1.672,6.66c0.649,2.704,1.264,5.409,1.835,8.128
		c1.146,1.467,2.184,3.137,3.102,5.031l0.18,0.379c1.299-0.628,2.604-1.235,3.911-1.852c0.742-0.498,1.481-1.006,2.224-1.515
		c3.101-2.114,6.289-4.151,9.389-6.288C120.711,208.378,122.694,206.933,124.589,205.382z"/>
	<path d="M88.216,214.044c1.274,0.596,2.535,1.215,3.758,1.896c1.365,0.758,2.69,1.578,3.969,2.485l-0.46-2.291
		c-1.266-1.465-2.673-2.668-4.206-3.668c-3.359-2.19-7.282-3.44-11.567-4.342l-0.848,1.963c2.356,0.969,4.724,1.908,7.048,2.918
		C86.684,213.343,87.454,213.688,88.216,214.044z"/>
	<path d="M277.55,86.678c-0.635-2.332-2.176-4.313-4.276-5.511c-3.297-1.88-7.118-4.06-10.416-5.941
		c-2.099-1.196-4.592-1.513-6.922-0.872c-2.332,0.638-4.315,2.176-5.515,4.277c-2.931,5.139-6.205,10.889-6.205,10.889l26.25,14.968
		c0,0,3.285-5.746,6.213-10.888C277.875,91.501,278.19,89.011,277.55,86.678z"/>
	<path d="M242.869,93.104V82.895l0.002-0.003l0.008-0.013V16.809c0-5.372-4.354-9.726-9.726-9.726h-197.4
		c-5.372,0-9.726,4.354-9.726,9.726v249.84c0,5.371,4.354,9.726,9.726,9.726h197.393c5.371,0,9.725-4.354,9.725-9.726V162.083
		h-0.002v-5.188l26.487-46.454l0.96-1.684l-1.684-0.96L242.869,93.104z M196.714,74.932c0,3.223-3.357,5.836-7.494,5.836H62.945
		c-4.141,0-7.498-2.616-7.498-5.836c0-3.221,3.359-5.842,7.498-5.84H189.22C193.359,69.092,196.714,71.709,196.714,74.932z
		 M196.714,117.775c0,3.222-3.357,5.837-7.494,5.837H62.945c-4.141,0-7.5-2.615-7.5-5.837c0-3.224,3.359-5.84,7.5-5.84H189.22
		C193.359,111.935,196.718,114.553,196.714,117.775z M59.581,31.853h85.411c3.218,0,5.846,2.621,5.846,5.841
		c0,3.22-2.628,5.84-5.846,5.84H59.583c-3.224,0-5.843-2.62-5.842-5.84C53.741,34.473,56.359,31.853,59.581,31.853z M55.445,160.415
		c0-3.225,3.359-5.84,7.5-5.84H189.22c4.139,0,7.498,2.617,7.494,5.84c0,3.221-3.357,5.834-7.494,5.834H62.945
		C58.804,166.249,55.445,163.633,55.445,160.415z M165.126,242.13c0,0-66.928-0.114-93.153-0.064l-10.125,0.055l-0.107,0.01
		c-1.31,0.074-2.426-0.934-2.495-2.242c-0.007-0.106,0.086-2.403,2.366-2.502l10.352-0.063c26.229-0.045,93.167,0.07,93.167,0.066
		c1.309,0.002,2.375,1.063,2.373,2.372C167.496,241.07,166.437,242.132,165.126,242.13z M167.578,225.083
		c-1.893,0.467-3.822,0.711-5.761,0.59c-2.301-0.139-4.438-1.506-6.625-2.118c-0.511-0.146-1.026-0.232-1.569-0.108
		c-1.131,0.26-2.336,1.02-3.596,1.779c-1.486,0.902-3.023,1.846-4.538,2.447c-1.911,0.761-3.808,0.99-5.608,0.391
		c-1.64-0.546-2.368-1.723-2.599-3.217c-0.067-0.438-0.082-0.912-0.073-1.385c-0.859,0.095-1.781,0.382-2.725,0.649
		c-1.826,0.522-3.708,1.069-5.476,1.099c-1.353,0.026-2.653-0.209-3.864-0.849c-0.289,0.316-0.587,0.632-0.892,0.937
		c-1.52,1.515-3.238,2.824-5.135,3.849c-1.157,0.621-2.803,1.167-4.35,1.165c-1.347,0-2.619-0.395-3.625-1.256
		c-1.391-1.189-1.814-2.973-1.354-4.999c0.223-0.983,0.69-2.054,1.22-3.054l-1.57,0.74l-4.389,2.909
		c0.154,0.627,0.28,1.267,0.366,1.896c0.253,1.846,0.185,3.669-0.339,5.305c-0.412,1.867-1.985,3.122-4.358,3.559
		c-2.915,0.531-7.254-0.225-8.66-0.482c-1.609-0.295-2.854-0.51-4.166-0.783c-0.875-0.186-1.778-0.395-2.833-0.671
		c-4.344-1.147-10.705-2.524-15.32-5.42c-0.305-0.192-0.603-0.392-0.895-0.597l-2.612,3.703c-0.488,0.58-1.533,1.465-2.198,1.643
		c-1.175,0.314-2.177,0.011-2.901-1.113c-0.372-0.579-0.501-1.188-0.442-1.83c0.035-0.395,0.161-0.818,0.371-1.23
		c0.104-0.211,0.349-0.609,0.395-0.687c0.385-0.983,0.804-1.956,1.239-2.921c0.458-1.016,0.935-2.021,1.418-3.02
		c-0.563-1.23-0.916-2.6-1.019-4.113c-0.13-1.944,0.237-3.875,0.949-5.707c0.387-0.991,0.878-1.957,1.443-2.874l-4.438-2.337
		c-0.048-0.029-1.397-0.742-2.072-1.407c-0.495-0.489-0.774-1.021-0.893-1.471c-0.221-0.835-0.078-1.611,0.462-2.31
		c0.282-0.369,0.758-0.768,1.493-0.977c0.938-0.264,3.266-0.087,3.524-0.064c1.152,0.086,2.31,0.229,3.467,0.397
		c1.791,0.263,3.586,0.603,5.364,0.909c0.796-0.583,1.604-1.116,2.43-1.613c0.504-0.98,1.014-1.958,1.524-2.938
		c1.006-1.922,2.038-3.838,3.155-5.703c0.762-1.271,1.566-2.518,2.423-3.721l0.772-1.013c0.658-1.499,1.58-3.3,2.534-4.155
		c1.396-1.25,2.896-1.41,4.329-0.445c1.163,0.787,2.118,1.984,2.858,3.434c1.268,2.479,1.911,5.732,2.481,7.818l0.243,0.893
		c0.912-0.105,1.83-0.206,2.755-0.305c2.051-0.219,4.09-0.365,6.133-0.452c2.038-0.087,4.077-0.108,6.131-0.076l4.197,0.131
		l3.99,0.267c2.613,0.27,7.005,0.49,10.079,2.033c1.807,0.902,3.214,2.228,3.942,4.053c0.581,1.445,0.405,2.89-0.303,4.242
		c-0.984,1.881-3.296,3.593-4.475,4.556c-1.917,1.573-3.921,3.043-5.961,4.461c0.066,0.347,0.058,0.772-0.114,1.282
		c-0.191,0.572-0.578,1.205-1.109,1.797c-0.628,0.703-1.524,1.387-1.936,1.854l-1.268,1.615c-0.368,0.52-1.229,1.671-1.943,2.979
		c-0.366,0.678-0.704,1.388-0.854,2.059c-0.03,0.124-0.045,0.314-0.051,0.434c0.3,0.145,0.692,0.024,1.055-0.041
		c0.529-0.108,1.039-0.308,1.435-0.521c1.496-0.809,2.853-1.844,4.05-3.04c0.444-0.442,0.868-0.908,1.269-1.392
		c-0.053-0.392-0.062-0.807-0.025-1.229c0.17-2.036,1.472-4.483,2.355-5.592c0.209-0.255,1.906-1.839,2.674-2.247
		c1.713-0.896,2.899,0.076,3.341,0.742c0.462,0.695,0.694,1.854,0.25,3.244c-0.565,1.759-2.382,4.398-2.633,4.821l-0.064,0.107
		c0.277,0.058,0.562,0.077,0.848,0.071c1.708-0.035,3.528-0.729,5.267-1.19c1.745-0.463,3.43-0.726,4.93-0.474
		c1.512,0.252,2.282,1.121,2.649,2.373c0.162,0.537,0.204,1.223,0.191,1.94c-0.008,0.146-0.008,0.356,0,0.55
		c0.586,0.023,1.182-0.168,1.795-0.41c1.571-0.625,3.149-1.705,4.684-2.604c1.432-0.841,2.83-1.536,4.127-1.835
		c1.339-0.313,2.638-0.197,3.922,0.16c1.096,0.311,2.186,0.816,3.285,1.273c0.768,0.32,1.542,0.627,2.348,0.678
		c1.46,0.093,2.908-0.113,4.331-0.463c2.375-0.584,4.683-1.565,6.881-2.444c1.218-0.482,2.599,0.106,3.085,1.321
		c0.484,1.215-0.107,2.599-1.32,3.082C172.689,223.376,170.167,224.429,167.578,225.083z M178.353,239.354
		c-0.641,0.487-1.509,0.542-2.207,0.146c-0.699-0.399-1.093-1.177-1.004-1.974c1.16-10.175,3.813-33.464,3.813-33.464l26.254,14.971
		C205.208,219.033,186.52,233.175,178.353,239.354z M206.729,216.363l-26.255-14.972l56.886-99.762c0,0-1.18-0.674-2.185-1.245
		c-0.021,0-0.041,0-0.061,0c-0.014,0-0.025,0.005-0.039,0.005c-0.246,0.003-0.49,0.034-0.724,0.096
		c-0.015,0.004-0.026,0.01-0.043,0.014c-0.235,0.067-0.462,0.159-0.673,0.281c-0.01,0.006-0.02,0.013-0.028,0.019
		c-0.213,0.126-0.411,0.276-0.588,0.452c-0.005,0.005-0.009,0.011-0.015,0.016c-0.178,0.181-0.336,0.385-0.467,0.611
		c-4.373,7.579-18.414,32.21-23.392,40.937c-0.108,0.19-0.237,0.36-0.373,0.522c-0.035,0.043-0.071,0.082-0.106,0.123
		c-0.135,0.146-0.276,0.281-0.431,0.4c-0.01,0.008-0.018,0.018-0.026,0.023c-0.164,0.123-0.338,0.229-0.52,0.322
		c-0.046,0.022-0.093,0.045-0.141,0.066c-0.166,0.077-0.338,0.145-0.514,0.195c-0.021,0.006-0.041,0.015-0.062,0.021
		c-0.194,0.052-0.394,0.083-0.593,0.103c-0.053,0.006-0.104,0.008-0.156,0.011c-0.186,0.01-0.369,0.009-0.555-0.013
		c-0.021,0-0.041,0-0.063-0.002c-0.201-0.025-0.402-0.072-0.602-0.133c-0.049-0.017-0.098-0.031-0.146-0.05
		c-0.2-0.069-0.397-0.151-0.589-0.261c-0.421-0.239-0.855-0.491-1.281-0.729c-1.709-0.979-2.31-3.157-1.33-4.872
		c4.984-8.742,19.202-33.676,25.563-44.829c0.831-1.462,2.213-2.532,3.837-2.977c0.247-0.067,0.498-0.114,0.749-0.151
		c0.071-0.01,0.144-0.018,0.216-0.026c0.189-0.021,0.381-0.034,0.572-0.038c0.068-0.001,0.139-0.005,0.207-0.004
		c0.246,0.002,0.49,0.016,0.734,0.047c0.019,0.002,0.037,0.007,0.057,0.01c0.227,0.031,0.447,0.076,0.667,0.131
		c0.071,0.018,0.144,0.04,0.215,0.061c0.174,0.049,0.347,0.107,0.517,0.172c0.067,0.027,0.137,0.052,0.205,0.081
		c0.229,0.097,0.452,0.203,0.67,0.327c10.379,5.918,31.797,18.132,31.797,18.132L206.729,216.363z"/>
</g>
</svg>
