<?xml version="1.0" encoding="UTF-8" standalone="no"?>
<!-- Generator: Adobe Illustrator 15.1.0, SVG Export Plug-In . SVG Version: 6.00 Build 0)  -->

<svg
   version="1.1"
   id="Layer_1"
   x="0px"
   y="0px"
   width="283.464px"
   height="283.464px"
   viewBox="0 0 283.464 283.464"
   enable-background="new 0 0 283.464 283.464"
   xml:space="preserve"
   sodipodi:docname="AI.svg"
   inkscape:version="1.2.2 (b0a8486541, 2022-12-01)"
   xmlns:inkscape="http://www.inkscape.org/namespaces/inkscape"
   xmlns:sodipodi="http://sodipodi.sourceforge.net/DTD/sodipodi-0.dtd"
   xmlns="http://www.w3.org/2000/svg"
   xmlns:svg="http://www.w3.org/2000/svg"><path
   id="Combined-Shape"
   style="fill:#000000;fill-rule:evenodd;stroke:none;stroke-width:0.701281"
   d="M 66.927734 7.0859375 L 66.927734 37.007812 L 96.849609 37.007812 L 96.849609 7.0859375 L 66.927734 7.0859375 z M 126.77148 7.0859375 L 126.77148 37.007812 L 156.69336 37.007812 L 156.69336 7.0859375 L 126.77148 7.0859375 z M 186.61328 7.0859375 L 186.61328 37.007812 L 216.53516 37.007812 L 216.53516 7.0859375 L 186.61328 7.0859375 z M 51.96875 51.96875 L 51.96875 231.49609 L 231.49609 231.49609 L 231.49609 51.96875 L 51.96875 51.96875 z M 7.0859375 66.927734 L 7.0859375 96.849609 L 37.007812 96.849609 L 37.007812 66.927734 L 7.0859375 66.927734 z M 246.45703 66.927734 L 246.45703 96.849609 L 276.37891 96.849609 L 276.37891 66.927734 L 246.45703 66.927734 z M 125.00391 99.076172 L 134.84766 99.076172 L 167.48438 184.38867 L 155.94141 184.38867 L 147.79688 162.12305 L 112.05469 162.12305 L 104.02734 184.38867 L 92.425781 184.38867 L 125.00391 99.076172 z M 179.78906 99.076172 L 191.03906 99.076172 L 191.03906 184.38867 L 179.78906 184.38867 L 179.78906 99.076172 z M 129.92578 112.96289 L 115.45312 152.86523 L 144.45703 152.86523 L 129.92578 112.96289 z M 7.0859375 126.77148 L 7.0859375 156.69336 L 37.007812 156.69336 L 37.007812 126.77148 L 7.0859375 126.77148 z M 246.45703 126.77148 L 246.45703 156.69336 L 276.37891 156.69336 L 276.37891 126.77148 L 246.45703 126.77148 z M 7.0859375 186.61328 L 7.0859375 216.53516 L 37.007812 216.53516 L 37.007812 186.61328 L 7.0859375 186.61328 z M 246.45703 186.61328 L 246.45703 216.53516 L 276.37891 216.53516 L 276.37891 186.61328 L 246.45703 186.61328 z M 66.927734 246.45703 L 66.927734 276.37891 L 96.849609 276.37891 L 96.849609 246.45703 L 66.927734 246.45703 z M 126.77148 246.45703 L 126.77148 276.37891 L 156.69336 276.37891 L 156.69336 246.45703 L 126.77148 246.45703 z M 186.61328 246.45703 L 186.61328 276.37891 L 216.53516 276.37891 L 216.53516 246.45703 L 186.61328 246.45703 z " /><defs
   id="defs447" /><sodipodi:namedview
   id="namedview445"
   pagecolor="#ffffff"
   bordercolor="#000000"
   borderopacity="0.25"
   inkscape:showpageshadow="2"
   inkscape:pageopacity="0.0"
   inkscape:pagecheckerboard="0"
   inkscape:deskcolor="#d1d1d1"
   showgrid="false"
   inkscape:zoom="2.0953974"
   inkscape:cx="47.00779"
   inkscape:cy="170.85065"
   inkscape:window-width="1920"
   inkscape:window-height="1015"
   inkscape:window-x="0"
   inkscape:window-y="0"
   inkscape:window-maximized="1"
   inkscape:current-layer="Layer_1" />

</svg>
