<?xml version="1.0" encoding="utf-8"?>
<!-- Generator: Adobe Illustrator 15.1.0, SVG Export Plug-In . SVG Version: 6.00 Build 0)  -->
<!DOCTYPE svg PUBLIC "-//W3C//DTD SVG 1.1//EN" "http://www.w3.org/Graphics/SVG/1.1/DTD/svg11.dtd">
<svg version="1.1" id="Layer_2" xmlns="http://www.w3.org/2000/svg" xmlns:xlink="http://www.w3.org/1999/xlink" x="0px" y="0px"
	 width="283.46px" height="283.46px" viewBox="0 0 283.46 283.46" enable-background="new 0 0 283.46 283.46" xml:space="preserve">
<g>
	<path fill="none" d="M156.332,182.98h-12.329v-15.846l-2.529-0.334l-1.289-0.228l-1.243-0.275l-1.195-0.327l-1.136-0.378
		l-1.067-0.418l-0.988-0.459l-0.905-0.507l-0.81-0.531l-0.705-0.564l-0.602-0.58l-0.491-0.604l-0.377-0.613l-0.268-0.632
		l-0.162-0.644l-0.053-0.651l0.098-0.875l0.271-0.791l0.453-0.762l0.633-0.73l0.799-0.702l0.414-0.279
		c1.409,0.838,2.958,1.407,4.504,1.945l1.433,0.42l1.406,0.338l1.368,0.266l1.3,0.188l1.215,0.112l1.115,0.039l2.179-0.104
		l2.042-0.287l1.866-0.436l1.661-0.562l1.416-0.672l1.169-0.779l0.904-0.98l0.46-1.386l-0.521-1.283l-0.96-0.836l-1.169-0.617
		l-1.406-0.517l-1.636-0.424l-1.839-0.331l-2.021-0.215l-2.148-0.075l-1.086,0.038l-1.195,0.094l-1.289,0.162l-1.357,0.233
		l-1.406,0.299l-1.425,0.375c-1.549,0.492-3.11,1.009-4.534,1.796l-0.445-0.324l-0.804-0.738l-0.633-0.771l-0.46-0.805l-0.274-0.829
		l-0.098-0.888l0.098-0.993l0.278-0.896l0.453-0.83l0.622-0.776l0.781-0.724l0.753,0.431l1.354,0.622l1.399,0.526l1.429,0.438
		l1.429,0.361l1.414,0.287l1.372,0.211l1.304,0.15l1.221,0.087l3.317,0.021l2.085-0.211l1.878-0.376l1.645-0.51l1.386-0.61
		l1.132-0.718l0.888-0.899l0.464-1.271l-0.46-1.361l-0.929-0.953l-1.176-0.739l-1.421-0.611l-1.65-0.508l-1.855-0.389l-2.034-0.249
		l-2.161-0.091l-2.349,0.113l-1.307,0.144l-1.372,0.211l-1.41,0.279l-1.431,0.357l-1.425,0.434l-1.399,0.528l-1.349,0.621
		l-0.735,0.415l-0.785-0.716l-0.618-0.772l-0.453-0.823l-0.282-0.894l-0.098-0.984l0.098-0.946l0.278-0.877l0.456-0.83l0.625-0.792
		l0.792-0.75l0.351-0.26c1.022,0.55,2.083,1.023,3.174,1.417l1.425,0.463l1.433,0.384l1.41,0.301l1.364,0.238l1.3,0.166l1.215,0.098
		l1.107,0.03l2.161-0.087l2.027-0.249l1.847-0.376l1.639-0.483l1.403-0.569l1.153-0.667l0.942-0.867l0.505-1.281l-0.464-1.375
		l-0.924-0.969l-1.169-0.754l-1.421-0.637l-1.65-0.528l-1.863-0.411l-2.035-0.265l-2.171-0.094l-1.136,0.038l-1.229,0.109
		l-1.315,0.177l-1.372,0.252l-1.414,0.331l-1.433,0.411l-1.425,0.49c-1.065,0.442-2.133,0.875-3.117,1.475l-0.316-0.223
		l-0.795-0.728l-0.629-0.754l-0.453-0.799l-0.278-0.84l-0.098-0.927l0.042-0.521l0.131-0.536l0.227-0.539l0.32-0.542l0.422-0.551
		l0.528-0.542l0.628-0.528l0.724-0.516l0.822-0.486l0.911-0.459l0.995-0.422l1.079-0.376l1.149-0.334l1.221-0.287l1.285-0.23
		l2.563-0.335v-16.472l12.25-25.431h-27.384l12.416,25.14v14.383c-1.473,0.196-2.906,0.57-4.334,0.984l-1.226,0.43l-1.157,0.49
		l-1.074,0.543l-0.995,0.592l-0.913,0.645l-0.822,0.693l-0.72,0.746l-0.618,0.803l-0.505,0.852l-0.376,0.904l-0.234,0.946
		l-0.083,0.995l0.158,1.471l0.453,1.372l0.705,1.237l0.904,1.094l0.773,0.701l-0.814,0.765l-0.89,1.127l-0.694,1.259l-0.44,1.395
		l-0.154,1.5l0.15,1.538l0.444,1.414l0.698,1.266l0.898,1.116l0.531,0.491l-0.539,0.497l-0.897,1.119l-0.69,1.274l-0.444,1.419
		l-0.151,1.545l0.159,1.466l0.453,1.356l0.705,1.232l0.896,1.097l0.83,0.765l-0.792,0.688l-0.912,1.061l-0.712,1.202l-0.464,1.341
		l-0.162,1.437l0.09,1.137l0.271,1.07l0.43,1.008l0.577,0.935l0.701,0.858l0.811,0.792l0.912,0.724l0.995,0.659l1.074,0.595
		l1.149,0.54l1.218,0.479l1.271,0.419c1.42,0.416,2.867,0.734,4.332,0.95v13.464h-12.273c-2.585,0-2.582,2.713,0,2.713h27.316
		C159.028,185.695,159.028,182.982,156.332,182.98z M135.775,153.694l1.12-0.422l1.289-0.412l1.301-0.338l1.289-0.275l1.245-0.211
		l2.235-0.238l0.928-0.024l1.967,0.07l1.824,0.188l1.645,0.298l1.404,0.366l1.109,0.402l0.747,0.399l-0.133,0.143l-0.734,0.491
		l-1.094,0.517l-1.379,0.471l-1.622,0.377l-1.798,0.252l-1.94,0.095l-0.928-0.033l-1.071-0.099l-1.167-0.17l-1.244-0.24l-1.282-0.31
		l-1.301-0.378l-1.281-0.451l-1.127-0.464V153.694z M135.194,141.847c1.723-0.788,3.589-1.222,5.443-1.591l1.259-0.192l1.191-0.131
		l2.089-0.099l1.96,0.076l1.81,0.226l1.619,0.338l1.392,0.426l1.094,0.475l0.724,0.453l0.131,0.136l-0.791,0.536l-1.063,0.468
		l-1.357,0.422l-1.608,0.325l-1.821,0.18l-3.046-0.016l-2.295-0.215l-1.255-0.196c-1.874-0.373-3.74-0.817-5.474-1.616V141.847z
		 M138.107,128.968l1.301-0.37l1.282-0.301l1.251-0.23l1.184-0.159l1.094-0.098l0.958-0.031l1.948,0.083l1.806,0.234l1.624,0.357
		l1.387,0.444l1.094,0.491l0.728,0.468l0.12,0.131l-0.792,0.475l-1.106,0.449l-1.396,0.414l-1.629,0.328l-1.81,0.227l-1.956,0.075
		l-0.942-0.027l-2.262-0.237l-1.248-0.215l-1.289-0.278l-1.304-0.347l-1.282-0.414l-1.291-0.51h-0.004
		C136.384,129.544,137.255,129.261,138.107,128.968z M143.232,77.682h7.93l-7.93,16.46V77.682z M132.462,77.682h8.054v16.294
		L132.462,77.682z"/>
	<path fill="none" d="M149.326,197.094h-12.469c-2.699,0-2.699,2.713,0,2.713h12.469
		C152.02,199.807,152.024,197.094,149.326,197.094z"/>
	<path fill="none" d="M154.151,187.595H131.7c-2.699,0-2.699,2.714,0,2.714h22.451C156.85,190.309,156.85,187.595,154.151,187.595z"
		/>
	<path fill="none" d="M144.762,11.735c-0.745-2.028-1.801-3.224-2.833-3.224c-1.046,0-2.177,1.207-3.023,3.227L88.474,133.59
		c-1.972,4.438-1.969,12.133-0.001,16.82l50.434,121.313c0.846,2.019,1.977,3.224,3.023,3.224c1.03,0,2.083-1.192,2.817-3.195
		l50.443-121.34c0.006-0.013,0.011-0.024,0.017-0.037c1.701-4.71,1.695-12.383-0.019-16.8L144.762,11.735z M189.462,149.602
		l-47.513,114.254L94.482,149.6c-1.79-4.343-1.79-11.127,0-15.197l47.465-114.794l-0.002-0.004h0.004l-0.002,0.004l47.515,114.795
		C191.252,138.474,191.252,145.257,189.462,149.602z"/>
	<path fill="none" d="M146.409,201.978h-0.004h-6.833c-2.699,0-2.699,2.715,0,2.715h6.837
		C149.104,204.693,149.104,201.978,146.409,201.978z"/>
	<path fill="none" d="M151.746,192.481h-17.332c-2.699,0-2.699,2.713,0,2.713h17.332
		C154.445,195.194,154.445,192.481,151.746,192.481z"/>
	<path d="M196.513,133.043L146.089,11.216c-1.319-3.594-3.173-4.131-4.161-4.131c-1.69,0-3.231,1.457-4.34,4.104L87.162,133.027
		c-2.136,4.807-2.139,12.853-0.007,17.932l50.435,121.315c1.11,2.646,2.651,4.102,4.339,4.102c0.988,0,2.839-0.537,4.146-4.104
		l50.405-121.248c0.016-0.03,0.03-0.062,0.043-0.093C198.381,145.867,198.379,137.849,196.513,133.043z M195.208,150.375
		c-0.006,0.013-0.011,0.024-0.017,0.037l-50.443,121.34c-0.734,2.003-1.787,3.195-2.817,3.195c-1.046,0-2.177-1.205-3.023-3.224
		L88.473,150.411c-1.968-4.688-1.971-12.383,0.001-16.82l50.432-121.852c0.846-2.02,1.977-3.227,3.023-3.227
		c1.032,0,2.088,1.196,2.833,3.224l50.427,121.84C196.903,137.992,196.909,145.666,195.208,150.375z"/>
	<polygon points="138.183,154.613 139.484,154.991 140.766,155.3 142.01,155.541 143.177,155.71 144.249,155.809 145.176,155.842 
		147.117,155.748 148.915,155.496 150.537,155.119 151.916,154.648 153.009,154.131 153.744,153.64 153.876,153.498 
		153.129,153.098 152.02,152.696 150.616,152.33 148.971,152.032 147.147,151.843 145.18,151.773 144.252,151.797 142.018,152.036 
		140.773,152.247 139.484,152.522 138.183,152.86 136.895,153.272 135.775,153.694 135.775,153.698 136.902,154.162 	"/>
	<polygon points="141.945,19.604 141.947,19.608 141.949,19.604 	"/>
	<path d="M141.947,19.608L94.482,134.403c-1.79,4.07-1.79,10.854,0,15.197l47.467,114.256l47.513-114.254
		c1.79-4.345,1.79-11.128,0-15.198L141.947,19.608z M101.911,128.393h-0.004H101.911z M141.563,206.978h3.429h0.002
		c1.354,0,1.354,2.715,0,2.715h-3.431C140.208,209.693,140.208,206.978,141.563,206.978z M146.409,204.693h-6.837
		c-2.699,0-2.699-2.715,0-2.715h6.833h0.004C149.104,201.978,149.104,204.693,146.409,204.693z M149.326,199.807h-12.469
		c-2.699,0-2.699-2.713,0-2.713h12.469C152.024,197.094,152.02,199.807,149.326,199.807z M151.746,195.194h-17.332
		c-2.699,0-2.699-2.713,0-2.713h17.332C154.445,192.481,154.445,195.194,151.746,195.194z M154.151,190.309H131.7
		c-2.699,0-2.699-2.714,0-2.714h22.451C156.85,187.595,156.85,190.309,154.151,190.309z M156.33,185.695h-27.316
		c-2.582,0-2.585-2.713,0-2.713h12.273v-13.464c-1.464-0.216-2.911-0.534-4.332-0.95l-1.271-0.419l-1.218-0.479l-1.149-0.54
		l-1.074-0.595l-0.995-0.659l-0.912-0.724l-0.811-0.792l-0.701-0.858l-0.577-0.935l-0.43-1.008l-0.271-1.07l-0.09-1.137l0.162-1.437
		l0.464-1.341l0.712-1.202l0.912-1.061l0.792-0.688l-0.83-0.765l-0.896-1.097l-0.705-1.232l-0.453-1.356l-0.159-1.466l0.151-1.545
		l0.444-1.419l0.69-1.274l0.897-1.119l0.539-0.497l-0.531-0.491l-0.898-1.116l-0.698-1.266l-0.444-1.414l-0.15-1.538l0.154-1.5
		l0.44-1.395l0.694-1.259l0.89-1.127l0.814-0.765l-0.773-0.701l-0.904-1.094l-0.705-1.237l-0.453-1.372l-0.158-1.471l0.083-0.995
		l0.234-0.946l0.376-0.904l0.505-0.852l0.618-0.803l0.72-0.746l0.822-0.693l0.913-0.645l0.995-0.592l1.074-0.543l1.157-0.49
		l1.226-0.43c1.428-0.414,2.861-0.788,4.334-0.984v-14.383l-12.416-25.14h27.384l-12.25,25.431v16.472l-2.563,0.335l-1.285,0.23
		l-1.221,0.287l-1.149,0.334l-1.079,0.376l-0.995,0.422l-0.911,0.459l-0.822,0.486l-0.724,0.516l-0.628,0.528l-0.528,0.542
		l-0.422,0.551l-0.32,0.542l-0.227,0.539l-0.131,0.536l-0.042,0.521l0.098,0.927l0.278,0.84l0.453,0.799l0.629,0.754l0.795,0.728
		l0.316,0.223c0.984-0.6,2.051-1.033,3.117-1.475l1.425-0.49l1.433-0.411l1.414-0.331l1.372-0.252l1.315-0.177l1.229-0.109
		l1.136-0.038l2.171,0.094l2.035,0.265l1.863,0.411l1.65,0.528l1.421,0.637l1.169,0.754l0.924,0.969l0.464,1.375l-0.505,1.281
		l-0.942,0.867l-1.153,0.667l-1.403,0.569l-1.639,0.483l-1.847,0.376l-2.027,0.249l-2.161,0.087l-1.107-0.03l-1.215-0.098
		l-1.3-0.166l-1.364-0.238l-1.41-0.301l-1.433-0.384l-1.425-0.463c-1.091-0.394-2.152-0.867-3.174-1.417l-0.351,0.26l-0.792,0.75
		l-0.625,0.792l-0.456,0.83l-0.278,0.877l-0.098,0.946l0.098,0.984l0.282,0.894l0.453,0.823l0.618,0.772l0.785,0.716l0.735-0.415
		l1.349-0.621l1.399-0.528l1.425-0.434l1.431-0.357l1.41-0.279l1.372-0.211l1.307-0.144l2.349-0.113l2.161,0.091l2.034,0.249
		l1.855,0.389l1.65,0.508l1.421,0.611l1.176,0.739l0.929,0.953l0.46,1.361l-0.464,1.271l-0.888,0.899l-1.132,0.718l-1.386,0.61
		l-1.645,0.51l-1.878,0.376l-2.085,0.211l-3.317-0.021l-1.221-0.087l-1.304-0.15l-1.372-0.211l-1.414-0.287l-1.429-0.361
		l-1.429-0.438l-1.399-0.526l-1.354-0.622l-0.753-0.431l-0.781,0.724l-0.622,0.776l-0.453,0.83l-0.278,0.896l-0.098,0.993
		l0.098,0.888l0.274,0.829l0.46,0.805l0.633,0.771l0.804,0.738l0.445,0.324c1.424-0.787,2.985-1.304,4.534-1.796l1.425-0.375
		l1.406-0.299l1.357-0.233l1.289-0.162l1.195-0.094l1.086-0.038l2.148,0.075l2.021,0.215l1.839,0.331l1.636,0.424l1.406,0.517
		l1.169,0.617l0.96,0.836l0.521,1.283l-0.46,1.386l-0.904,0.98l-1.169,0.779l-1.416,0.672l-1.661,0.562l-1.866,0.436l-2.042,0.287
		l-2.179,0.104l-1.115-0.039l-1.215-0.112l-1.3-0.188l-1.368-0.266l-1.406-0.338l-1.433-0.42c-1.545-0.538-3.095-1.107-4.504-1.945
		l-0.414,0.279l-0.799,0.702l-0.633,0.73l-0.453,0.762l-0.271,0.791l-0.098,0.875l0.053,0.651l0.162,0.644l0.268,0.632l0.377,0.613
		l0.491,0.604l0.602,0.58l0.705,0.564l0.81,0.531l0.905,0.507l0.988,0.459l1.067,0.418l1.136,0.378l1.195,0.327l1.243,0.275
		l1.289,0.228l2.529,0.334v15.846h12.329C159.028,182.982,159.028,185.695,156.33,185.695z"/>
	<path d="M136.868,130.438l1.282,0.414l1.304,0.347l1.289,0.278l1.248,0.215l2.262,0.237l0.942,0.027l1.956-0.075l1.81-0.227
		l1.629-0.328l1.396-0.414l1.106-0.449l0.792-0.475l-0.12-0.131l-0.728-0.468l-1.094-0.491l-1.387-0.444l-1.624-0.357l-1.806-0.234
		l-1.948-0.083l-0.958,0.031l-1.094,0.098l-1.184,0.159l-1.251,0.23l-1.282,0.301l-1.301,0.37c-0.852,0.293-1.723,0.577-2.533,0.96
		h0.004L136.868,130.438z"/>
	<path d="M141.923,143.663l2.295,0.215l3.046,0.016l1.821-0.18l1.608-0.325l1.357-0.422l1.063-0.468l0.791-0.536l-0.131-0.136
		l-0.724-0.453l-1.094-0.475l-1.392-0.426l-1.619-0.338l-1.81-0.226l-1.96-0.076l-2.089,0.099l-1.191,0.131l-1.259,0.192
		c-1.854,0.369-3.72,0.804-5.443,1.591v0.003c1.734,0.799,3.6,1.243,5.474,1.616L141.923,143.663z"/>
	<polygon points="140.516,77.682 132.462,77.682 140.516,93.976 	"/>
	<polygon points="143.232,77.682 143.232,94.143 151.162,77.682 	"/>
	
		<line fill="none" stroke="#000000" stroke-width="0" stroke-linecap="round" stroke-linejoin="round" x1="101.907" y1="128.393" x2="101.911" y2="128.393"/>
</g>
</svg>
