<?xml version="1.0" encoding="UTF-8" standalone="no"?>
<!-- Generator: Adobe Illustrator 15.1.0, SVG Export Plug-In . SVG Version: 6.00 Build 0)  -->

<svg
   version="1.1"
   id="Layer_1"
   x="0px"
   y="0px"
   width="283.465px"
   height="283.465px"
   viewBox="0 0 283.465 283.465"
   enable-background="new 0 0 283.465 283.465"
   xml:space="preserve"
   sodipodi:docname="animal-squirrel.svg"
   inkscape:version="1.2.2 (b0a8486541, 2022-12-01)"
   xmlns:inkscape="http://www.inkscape.org/namespaces/inkscape"
   xmlns:sodipodi="http://sodipodi.sourceforge.net/DTD/sodipodi-0.dtd"
   xmlns="http://www.w3.org/2000/svg"
   xmlns:svg="http://www.w3.org/2000/svg"><defs
   id="defs10" /><sodipodi:namedview
   id="namedview8"
   pagecolor="#ffffff"
   bordercolor="#000000"
   borderopacity="0.25"
   inkscape:showpageshadow="2"
   inkscape:pageopacity="0.0"
   inkscape:pagecheckerboard="0"
   inkscape:deskcolor="#d1d1d1"
   showgrid="false"
   inkscape:zoom="0.52384748"
   inkscape:cx="210.93926"
   inkscape:cy="82.084961"
   inkscape:window-width="1920"
   inkscape:window-height="1015"
   inkscape:window-x="0"
   inkscape:window-y="0"
   inkscape:window-maximized="1"
   inkscape:current-layer="Layer_1" />


<g
   id="g414"><path
     d="M 103.2,236.6 H 89.4 c -1.3,0 -2.7,-0.1 -3.9,-0.1 -0.1,0 -0.1,0 -0.1,0 -1.1,0.1 -2.2,0.1 -3.3,0.1 C 51.9,236.6 22.1,212.4 9,187.4 6.8,183.1 4.9,178.5 3.4,173.8 1.2,166.6 0,158.9 0,150.9 0,140 2.2,129.6 6.2,120.2 10.3,108.2 18.2,96 32.6,85.1 57.4,66.3 46.4,37.8 46.4,37.8 c 3.2,-0.6 6.3,-0.9 9.4,-0.9 23.4,0 43.6,23.8 46.2,45 0.3,1.9 0.4,3.8 0.4,5.8 0,8.4 -3.3,15.3 -8,21.8 -9.7,8.6 -17.4,19.4 -22,31.6 -1.9,4.9 -3.2,10 -4.1,15.3 -0.7,4.3 -1.1,8.8 -1.1,13.4 -0.1,27.8 14.3,52.6 36,66.8 z M 253,142.2 c 0,0.1 0,0.2 0,0.3 0,0.2 0,0.3 0,0.4 0,5.9 -4.8,10.7 -10.7,10.7 h -18.7 c -2.8,2.2 -5.6,4.7 -8.6,7 -0.9,0.7 -1.8,1.3 -2.7,1.9 -1,0.8 -2,1.4 -3.1,2 -0.8,0.3 -1.6,0.8 -2.3,1.1 -2.7,1.2 -5.5,2 -8.5,2 -0.2,0 -0.3,0 -0.6,0 -0.9,0 -1.9,-0.1 -2.8,-0.2 -8.5,-0.9 -12.6,-6 -16.4,-13.2 -0.1,-0.1 -0.2,-0.2 -0.3,-0.3 -2.7,-3.2 -5.1,-4.9 -7.1,-5.7 -6.6,-4.2 -14.4,-6.8 -22.7,-6.9 l 0.6,4.1 c 20.9,0.7 37.7,17.8 37.7,38.9 0,11.9 -5.5,22.6 -13.9,29.7 6.6,1 12.2,4.9 15.7,10.2 1.1,1.7 2,3.7 2.7,5.7 0.7,2.1 1.1,4.5 1.1,6.8 h -4.8 -5.2 -12.2 -23.7 -30.2 c -16.4,-7.8 -30.1,-21.3 -37.2,-38 -3,-6.9 -4.9,-14.5 -5.6,-22.3 -0.7,-4.2 -1,-8.6 -1,-12.9 0,-18.6 20.9,-57.1 52.1,-65.9 0,0 23.8,-9.1 26.6,-10.2 24.2,-10 16.9,-23.3 23,-32.8 7.3,-11.5 17.3,-12.4 17.3,-12.4 l 13.5,-16.4 4.7,-5.5 c 3.6,0 6.5,12.7 7,23.4 27.4,12.8 31.4,40.9 31.4,52 0,12 -6.3,17.9 -15.6,20.3 -4.2,1 -10,1.3 -15.3,1.3 -6.2,0 -11.5,-0.4 -11.5,-0.4 0,0.9 7.3,15.1 7.3,15.1 h 20.2 c 1.2,-0.1 2.6,-0.2 3.8,-0.2 1.2,0 2.4,0.1 3.7,0.2 h 1.6 c 3,0 5.7,1.3 7.7,3.3 1.3,1.2 2.1,2.4 2.3,3.8 0.5,1.1 0.7,2.1 0.7,3.1 z M 207.1,72 c 0,4.1 3.3,7.5 7.5,7.5 4.2,0 7.5,-3.3 7.5,-7.5 0,-4.1 -3.3,-7.5 -7.5,-7.5 -4.2,0 -7.6,3.4 -7.5,7.5 z"
     id="path293"
     style="fill:#000000;stroke-width:2.93593"
     transform="matrix(-1.0643992,0,0,1.0643992,276.379,4.957201)" /><path
     id="path408"
     style="fill-rule:evenodd;stroke-width:7.65;stroke-linejoin:round"
     d="m 48.747323,81.733826 a 2.941844,3.1911995 0 0 1 -2.941844,3.191199 2.941844,3.1911995 0 0 1 -2.941844,-3.191199 2.941844,3.1911995 0 0 1 2.941844,-3.1912 2.941844,3.1911995 0 0 1 2.941844,3.1912 z" /></g></svg>
