<?xml version="1.0" encoding="UTF-8" standalone="no"?>
<!-- Generator: Adobe Illustrator 15.1.0, SVG Export Plug-In . SVG Version: 6.00 Build 0)  -->

<svg
   version="1.1"
   id="Layer_1"
   x="0px"
   y="0px"
   width="283.464px"
   height="283.464px"
   viewBox="0 0 283.464 283.464"
   enable-background="new 0 0 283.464 283.464"
   xml:space="preserve"
   sodipodi:docname="api.svg"
   inkscape:version="1.2.2 (b0a8486541, 2022-12-01)"
   xmlns:inkscape="http://www.inkscape.org/namespaces/inkscape"
   xmlns:sodipodi="http://sodipodi.sourceforge.net/DTD/sodipodi-0.dtd"
   xmlns="http://www.w3.org/2000/svg"
   xmlns:svg="http://www.w3.org/2000/svg"><path
   id="Combined-Shape"
   style="fill:#000000;fill-rule:evenodd;stroke:none;stroke-width:0.701281"
   d="M 66.927734 7.0859375 L 66.927734 37.007812 L 96.849609 37.007812 L 96.849609 7.0859375 L 66.927734 7.0859375 z M 126.77148 7.0859375 L 126.77148 37.007812 L 156.69336 37.007812 L 156.69336 7.0859375 L 126.77148 7.0859375 z M 186.61328 7.0859375 L 186.61328 37.007812 L 216.53516 37.007812 L 216.53516 7.0859375 L 186.61328 7.0859375 z M 51.96875 51.96875 L 51.96875 231.49609 L 231.49609 231.49609 L 231.49609 51.96875 L 51.96875 51.96875 z M 7.0859375 66.927734 L 7.0859375 96.849609 L 37.007812 96.849609 L 37.007812 66.927734 L 7.0859375 66.927734 z M 246.45703 66.927734 L 246.45703 96.849609 L 276.37891 96.849609 L 276.37891 66.927734 L 246.45703 66.927734 z M 99.28125 108.55469 L 106.9375 108.55469 L 132.32031 174.9082 L 123.34375 174.9082 L 117.00781 157.5918 L 89.208984 157.5918 L 82.964844 174.9082 L 73.941406 174.9082 L 99.28125 108.55469 z M 141.25391 108.55469 L 165.72656 108.55469 C 172.98784 108.55469 178.66799 110.40865 182.76953 114.11523 C 186.90147 117.82182 188.96875 122.72723 188.96875 128.83398 C 188.96875 135.27495 186.94704 140.24241 182.90625 143.73633 C 178.89583 147.19985 173.13908 148.93164 165.63477 148.93164 L 150.00391 148.93164 L 150.00391 174.9082 L 141.25391 174.9082 L 141.25391 108.55469 z M 200.77148 108.55469 L 209.52148 108.55469 L 209.52148 174.9082 L 200.77148 174.9082 L 200.77148 108.55469 z M 150.00391 115.75586 L 150.00391 141.77734 L 165.72656 141.77734 C 170.40538 141.77734 173.98915 140.68359 176.48047 138.49609 C 178.97179 136.27822 180.21875 133.0881 180.21875 128.92578 C 180.21875 124.97614 178.97179 121.81705 176.48047 119.44727 C 173.98915 117.07748 170.57117 115.84701 166.22656 115.75586 L 150.00391 115.75586 z M 103.10938 119.35547 L 91.851562 150.39062 L 114.41016 150.39062 L 103.10938 119.35547 z M 7.0859375 126.77148 L 7.0859375 156.69336 L 37.007812 156.69336 L 37.007812 126.77148 L 7.0859375 126.77148 z M 246.45703 126.77148 L 246.45703 156.69336 L 276.37891 156.69336 L 276.37891 126.77148 L 246.45703 126.77148 z M 7.0859375 186.61328 L 7.0859375 216.53516 L 37.007812 216.53516 L 37.007812 186.61328 L 7.0859375 186.61328 z M 246.45703 186.61328 L 246.45703 216.53516 L 276.37891 216.53516 L 276.37891 186.61328 L 246.45703 186.61328 z M 66.927734 246.45703 L 66.927734 276.37891 L 96.849609 276.37891 L 96.849609 246.45703 L 66.927734 246.45703 z M 126.77148 246.45703 L 126.77148 276.37891 L 156.69336 276.37891 L 156.69336 246.45703 L 126.77148 246.45703 z M 186.61328 246.45703 L 186.61328 276.37891 L 216.53516 276.37891 L 216.53516 246.45703 L 186.61328 246.45703 z " /><defs
   id="defs447" /><sodipodi:namedview
   id="namedview445"
   pagecolor="#ffffff"
   bordercolor="#000000"
   borderopacity="0.25"
   inkscape:showpageshadow="2"
   inkscape:pageopacity="0.0"
   inkscape:pagecheckerboard="0"
   inkscape:deskcolor="#d1d1d1"
   showgrid="false"
   inkscape:zoom="2.0953974"
   inkscape:cx="149.13639"
   inkscape:cy="170.85065"
   inkscape:window-width="1920"
   inkscape:window-height="1015"
   inkscape:window-x="0"
   inkscape:window-y="0"
   inkscape:window-maximized="1"
   inkscape:current-layer="Layer_1" />

</svg>
