<?xml version="1.0" encoding="UTF-8" standalone="no"?>
<!-- Generator: Adobe Illustrator 15.1.0, SVG Export Plug-In . SVG Version: 6.00 Build 0)  -->

<svg
   version="1.1"
   id="Layer_2_1_"
   x="0px"
   y="0px"
   width="283.465px"
   height="283.465px"
   viewBox="0 0 283.465 283.465"
   enable-background="new 0 0 283.465 283.465"
   xml:space="preserve"
   sodipodi:docname="app-store-alt-4.svg"
   inkscape:version="1.2.2 (b0a8486541, 2022-12-01)"
   xmlns:inkscape="http://www.inkscape.org/namespaces/inkscape"
   xmlns:sodipodi="http://sodipodi.sourceforge.net/DTD/sodipodi-0.dtd"
   xmlns="http://www.w3.org/2000/svg"
   xmlns:svg="http://www.w3.org/2000/svg"><defs
   id="defs3067" /><sodipodi:namedview
   id="namedview3065"
   pagecolor="#ffffff"
   bordercolor="#000000"
   borderopacity="0.25"
   inkscape:showpageshadow="2"
   inkscape:pageopacity="0.0"
   inkscape:pagecheckerboard="0"
   inkscape:deskcolor="#d1d1d1"
   showgrid="false"
   inkscape:zoom="2.0953899"
   inkscape:cx="78.744295"
   inkscape:cy="155.1024"
   inkscape:window-width="1920"
   inkscape:window-height="1015"
   inkscape:window-x="0"
   inkscape:window-y="0"
   inkscape:window-maximized="1"
   inkscape:current-layer="g3062" />
<g
   id="g3062">
	
<g
   id="g3381"
   transform="matrix(1.7895579,0,0,1.7895579,-111.80795,-112.00529)"><path
     style="fill:#000000;stroke-width:3.17211;stroke-linecap:round;stroke-linejoin:round;paint-order:markers stroke fill"
     d="m 65.622857,104.19303 c -0.08935,-0.23353 -0.123028,-9.004472 -0.07483,-19.490989 l 0.08762,-19.066396 h 19.403854 19.403849 v 19.403854 19.403851 l -19.329013,0.0871 c -15.283622,0.0689 -19.36302,-0.002 -19.491478,-0.33745 z"
     id="path3324" /><path
     style="fill:#000000;stroke-width:3.17211;stroke-linecap:round;stroke-linejoin:round;paint-order:markers stroke fill"
     d="m 122.31586,104.19303 c -0.0894,-0.23353 -0.12303,-9.004472 -0.0748,-19.490989 l 0.0876,-19.066396 h 19.40386 19.40385 v 19.403854 19.403851 l -19.32902,0.0871 c -15.28362,0.0689 -19.36302,-0.002 -19.49147,-0.33745 z"
     id="path3326" /><path
     style="fill:#000000;stroke-width:3.17211;stroke-linecap:round;stroke-linejoin:round;paint-order:markers stroke fill"
     d="m 179.00886,104.19303 c -0.0894,-0.23353 -0.12303,-9.004472 -0.0748,-19.490989 l 0.0876,-19.066396 h 19.40386 19.40385 v 19.403854 19.403851 l -19.32902,0.0871 c -15.28362,0.0689 -19.36302,-0.002 -19.49147,-0.33745 z"
     id="path3328" /><path
     style="fill:#000000;stroke-width:3.17211;stroke-linecap:round;stroke-linejoin:round;paint-order:markers stroke fill"
     d="m 179.00886,160.88603 c -0.0894,-0.23353 -0.12303,-9.00447 -0.0748,-19.49099 l 0.0876,-19.0664 h 19.40386 19.40385 v 19.40386 19.40385 l -19.32902,0.0871 c -15.28362,0.0689 -19.36302,-0.002 -19.49147,-0.33745 z"
     id="path3330" /><path
     style="fill:#000000;stroke-width:3.17211;stroke-linecap:round;stroke-linejoin:round;paint-order:markers stroke fill"
     d="m 122.31586,160.88603 c -0.0894,-0.23353 -0.12303,-9.00447 -0.0748,-19.49099 l 0.0876,-19.0664 h 19.40386 19.40385 v 19.40386 19.40385 l -19.32902,0.0871 c -15.28362,0.0689 -19.36302,-0.002 -19.49147,-0.33745 z"
     id="path3332" /><path
     style="fill:#000000;stroke-width:3.17211;stroke-linecap:round;stroke-linejoin:round;paint-order:markers stroke fill"
     d="m 65.622857,160.88603 c -0.08935,-0.23353 -0.123028,-9.00447 -0.07483,-19.49099 l 0.08762,-19.0664 h 19.403854 19.403849 v 19.40386 19.40385 l -19.329013,0.0871 c -15.283622,0.0689 -19.36302,-0.002 -19.491478,-0.33745 z"
     id="path3334" /><path
     style="fill:#000000;stroke-width:3.17211;stroke-linecap:round;stroke-linejoin:round;paint-order:markers stroke fill"
     d="m 65.622857,217.57902 c -0.08935,-0.23352 -0.123028,-9.00446 -0.07483,-19.49098 l 0.08762,-19.0664 h 19.403854 19.403849 v 19.40386 19.40385 l -19.329013,0.0871 c -15.283622,0.0689 -19.36302,-0.002 -19.491478,-0.33746 z"
     id="path3336" /><path
     style="fill:#000000;stroke-width:3.17211;stroke-linecap:round;stroke-linejoin:round;paint-order:markers stroke fill"
     d="m 122.31586,217.57902 c -0.0894,-0.23352 -0.12303,-9.00446 -0.0748,-19.49098 l 0.0876,-19.0664 h 19.40386 19.40385 v 19.40386 19.40385 l -19.32902,0.0871 c -15.28362,0.0689 -19.36302,-0.002 -19.49147,-0.33746 z"
     id="path3338" /><path
     style="fill:#000000;stroke-width:3.17211;stroke-linecap:round;stroke-linejoin:round;paint-order:markers stroke fill"
     d="m 179.00886,217.57902 c -0.0894,-0.23352 -0.12303,-9.00446 -0.0748,-19.49098 l 0.0876,-19.0664 h 19.40386 19.40385 v 19.40386 19.40385 l -19.32902,0.0871 c -15.28362,0.0689 -19.36302,-0.002 -19.49147,-0.33746 z"
     id="path3340" /></g></g>
</svg>
