<?xml version="1.0" encoding="UTF-8" standalone="no"?>
<svg
   version="1.1"
   id="Layer_3"
   x="0px"
   y="0px"
   width="283.46px"
   height="283.46px"
   viewBox="0 0 283.46 283.46"
   enable-background="new 0 0 283.46 283.46"
   xml:space="preserve"
   sodipodi:docname="app-generic-alt-4.svg"
   inkscape:version="1.2.2 (b0a8486541, 2022-12-01)"
   xmlns:inkscape="http://www.inkscape.org/namespaces/inkscape"
   xmlns:sodipodi="http://sodipodi.sourceforge.net/DTD/sodipodi-0.dtd"
   xmlns="http://www.w3.org/2000/svg"
   xmlns:svg="http://www.w3.org/2000/svg"><defs
   id="defs15" /><sodipodi:namedview
   id="namedview13"
   pagecolor="#ffffff"
   bordercolor="#000000"
   borderopacity="0.25"
   inkscape:showpageshadow="2"
   inkscape:pageopacity="0.0"
   inkscape:pagecheckerboard="0"
   inkscape:deskcolor="#d1d1d1"
   showgrid="false"
   inkscape:zoom="1.4816906"
   inkscape:cx="-35.432498"
   inkscape:cy="116.75852"
   inkscape:window-width="1920"
   inkscape:window-height="1015"
   inkscape:window-x="0"
   inkscape:window-y="0"
   inkscape:window-maximized="1"
   inkscape:current-layer="Layer_3" />

<path
   id="rect289"
   style="fill-rule:evenodd;stroke-width:34.9591;stroke-linecap:round;stroke-linejoin:round;paint-order:markers fill stroke"
   d="M 63.691406 7.0839844 C 32.432592 7.0839844 7.0839844 32.432492 7.0839844 63.691406 L 7.0839844 219.76953 C 7.0839844 251.02855 32.432492 276.37695 63.691406 276.37695 L 219.77148 276.37695 C 251.03038 276.37695 276.37695 251.02855 276.37695 219.76953 L 276.37695 63.691406 C 276.37695 32.432492 251.03028 7.0839844 219.77148 7.0839844 L 63.691406 7.0839844 z M 63.691406 18.667969 L 219.77148 18.667969 C 244.81605 18.667969 264.79297 38.646921 264.79297 63.691406 L 264.79297 70.951172 L 18.669922 70.951172 L 18.669922 63.691406 C 18.669922 38.646921 38.646821 18.667969 63.691406 18.667969 z " /><path
   style="color:#000000;fill:#000000;fill-rule:evenodd;stroke-width:34.959;-inkscape-stroke:none"
   d="m 227.15773,38.282731 c -3.9257,0.013 -7.09699,3.20518 -7.08399,7.13086 0.013,3.92569 3.20322,7.09894 7.12891,7.08594 3.92568,-0.013 7.09893,-3.20507 7.08593,-7.13086 -0.011,-3.9257 -3.20507,-7.09884 -7.13085,-7.08594 z"
   id="path296" /><path
   style="color:#000000;fill:#000000;fill-rule:evenodd;stroke-width:34.959;-inkscape-stroke:none"
   d="m 201.75147,38.282731 c -3.92568,0.013 -7.10089,3.20714 -7.08789,7.13281 0.012,3.9257 3.20509,7.09764 7.13086,7.08594 3.9257,-0.013 7.10089,-3.20702 7.08789,-7.13281 -0.013,-3.9257 -3.20516,-7.09884 -7.13086,-7.08594 z"
   id="path294" /><path
   style="color:#000000;fill:#000000;fill-rule:evenodd;stroke-width:34.959;-inkscape-stroke:none"
   d="m 176.33937,38.282731 c -3.92699,0.012 -7.10088,3.20584 -7.0879,7.13281 0.012,3.927 3.20777,7.10088 7.13477,7.0879 3.92709,-0.013 7.09687,-3.20778 7.08399,-7.13477 -0.014,-3.9257 -3.20508,-7.09754 -7.13086,-7.08594 z"
   id="path292" /></svg>
