<?xml version="1.0" encoding="UTF-8" standalone="no"?>
<svg
   viewBox="0 0 283.45999 283.45999"
   stroke="currentColor"
   version="1.1"
   id="svg2532"
   sodipodi:docname="arrow-carrot-1-left.svg"
   inkscape:version="1.2.2 (b0a8486541, 2022-12-01)"
   width="283.45999"
   height="283.45999"
   xmlns:inkscape="http://www.inkscape.org/namespaces/inkscape"
   xmlns:sodipodi="http://sodipodi.sourceforge.net/DTD/sodipodi-0.dtd"
   xmlns="http://www.w3.org/2000/svg"
   xmlns:svg="http://www.w3.org/2000/svg">
  <defs
     id="defs7" />
  <sodipodi:namedview
     id="namedview5"
     pagecolor="#ffffff"
     bordercolor="#000000"
     borderopacity="0.25"
     inkscape:showpageshadow="2"
     inkscape:pageopacity="0.0"
     inkscape:pagecheckerboard="0"
     inkscape:deskcolor="#d1d1d1"
     showgrid="false"
     inkscape:zoom="1.09375"
     inkscape:cx="-205.25714"
     inkscape:cy="334.62857"
     inkscape:window-width="1920"
     inkscape:window-height="1015"
     inkscape:window-x="0"
     inkscape:window-y="0"
     inkscape:window-maximized="1"
     inkscape:current-layer="svg2532" />
  <path
     style="color:#000000;fill:#000000;stroke:none;stroke-width:15.841;stroke-linecap:round;stroke-linejoin:round;-inkscape-stroke:none"
     d="m 197.17327,15.002975 a 15.841027,15.841027 0 0 1 11.20009,4.640925 15.841027,15.841027 0 0 1 0,22.400202 l -24.44219,24.442211 -18.81122,18.811219 -56.43368,56.433668 99.68709,99.68709 a 15.841027,15.841027 0 0 1 0,22.4002 15.841027,15.841027 0 0 1 -22.40019,0 L 75.085977,152.9313 a 15.842611,15.842611 0 0 1 0,-22.4002 L 142.71974,62.89733 161.53096,44.086111 185.97317,19.6439 a 15.841027,15.841027 0 0 1 11.2001,-4.640925 z"
     id="path2530" />
</svg>
