<?xml version="1.0" encoding="UTF-8" standalone="no"?>
<svg
   viewBox="0 0 283.45999 283.45999"
   stroke="currentColor"
   version="1.1"
   id="svg2532"
   sodipodi:docname="arrow-carrot-1-right.svg"
   inkscape:version="1.2.2 (b0a8486541, 2022-12-01)"
   width="283.45999"
   height="283.45999"
   xmlns:inkscape="http://www.inkscape.org/namespaces/inkscape"
   xmlns:sodipodi="http://sodipodi.sourceforge.net/DTD/sodipodi-0.dtd"
   xmlns="http://www.w3.org/2000/svg"
   xmlns:svg="http://www.w3.org/2000/svg">
  <defs
     id="defs7" />
  <sodipodi:namedview
     id="namedview5"
     pagecolor="#ffffff"
     bordercolor="#000000"
     borderopacity="0.25"
     inkscape:showpageshadow="2"
     inkscape:pageopacity="0.0"
     inkscape:pagecheckerboard="0"
     inkscape:deskcolor="#d1d1d1"
     showgrid="false"
     inkscape:zoom="1.5467961"
     inkscape:cx="-92.125911"
     inkscape:cy="248.25509"
     inkscape:window-width="1920"
     inkscape:window-height="1015"
     inkscape:window-x="0"
     inkscape:window-y="0"
     inkscape:window-maximized="1"
     inkscape:current-layer="svg2532" />
  <path
     style="color:#000000;fill:#000000;stroke:none;stroke-width:15.841;stroke-linecap:round;stroke-linejoin:round;-inkscape-stroke:none"
     d="m 86.286731,15.002974 a 15.841027,15.841027 0 0 0 -11.200097,4.640925 15.841027,15.841027 0 0 0 0,22.400202 l 24.442198,24.442211 18.811218,18.811219 56.43367,56.433669 -99.687086,99.68709 a 15.841027,15.841027 0 0 0 0,22.4002 15.841027,15.841027 0 0 0 22.400194,0 L 208.37401,152.9313 a 15.842611,15.842611 0 0 0 0,-22.4002 L 140.74026,62.897329 121.92904,44.08611 97.486828,19.643899 A 15.841027,15.841027 0 0 0 86.286731,15.002974 Z"
     id="path2530" />
</svg>
