<?xml version="1.0" encoding="UTF-8" standalone="no"?>
<svg
   version="1.1"
   id="Layer_3"
   x="0px"
   y="0px"
   width="283.46px"
   height="283.46px"
   viewBox="0 0 283.46 283.46"
   enable-background="new 0 0 283.46 283.46"
   xml:space="preserve"
   sodipodi:docname="arrow-carrot-up-down.svg"
   inkscape:version="1.4.2 (ebf0e940d0, 2025-05-08)"
   xmlns:inkscape="http://www.inkscape.org/namespaces/inkscape"
   xmlns:sodipodi="http://sodipodi.sourceforge.net/DTD/sodipodi-0.dtd"
   xmlns="http://www.w3.org/2000/svg"
   xmlns:svg="http://www.w3.org/2000/svg"><defs
   id="defs15" /><sodipodi:namedview
   id="namedview13"
   pagecolor="#ffffff"
   bordercolor="#000000"
   borderopacity="0.25"
   inkscape:showpageshadow="2"
   inkscape:pageopacity="0.0"
   inkscape:pagecheckerboard="0"
   inkscape:deskcolor="#d1d1d1"
   showgrid="false"
   inkscape:zoom="2.0954269"
   inkscape:cx="69.914154"
   inkscape:cy="152.71351"
   inkscape:window-width="1920"
   inkscape:window-height="995"
   inkscape:window-x="0"
   inkscape:window-y="0"
   inkscape:window-maximized="1"
   inkscape:current-layer="Layer_3" />

<g
   id="g1"
   transform="matrix(0,14.403532,14.403532,0,-31.112228,-21.294742)"
   style="stroke:#000000"><path
     id="path890"
     style="color:#000000;fill:#000000;stroke:none;stroke-width:0.890827;stroke-linecap:round;stroke-linejoin:round;-inkscape-stroke:none"
     d="M 1.970228,12.000124 A 0.89091392,0.89091392 0 0 1 2.2310654,11.370255 L 8.466884,5.1344363 a 0.8908248,0.8908248 0 0 1 0.6297449,-0.2609619 0.8908248,0.8908248 0 0 1 0.6298693,0.2609619 0.8908248,0.8908248 0 0 1 0,1.2597387 l -5.6059492,5.605949 5.6059492,5.605825 a 0.8908248,0.8908248 0 0 1 0,1.259739 0.8908248,0.8908248 0 0 1 -1.2596142,0 L 2.2310654,12.629869 A 0.89091392,0.89091392 0 0 1 1.970228,12.000124 Z M 12.649495,5.7643056 a 0.8908248,0.8908248 0 0 1 0.260838,-0.6298693 0.8908248,0.8908248 0 0 1 0.629869,-0.2609619 0.8908248,0.8908248 0 0 1 0.629745,0.2609619 l 1.374532,1.374532 1.057917,1.0579166 3.80337,3.8033701 a 0.89091392,0.89091392 0 0 1 0,1.259614 l -6.235819,6.235819 a 0.8908248,0.8908248 0 0 1 -1.259614,0 0.8908248,0.8908248 0 0 1 0,-1.259739 L 18.516282,12.000124 15.342657,8.8264991 14.284865,7.768707 12.910333,6.394175 A 0.8908248,0.8908248 0 0 1 12.649495,5.7643056 Z" /></g></svg>
