<?xml version="1.0" encoding="UTF-8" standalone="no"?>
<svg
   version="1.1"
   id="Layer_3"
   x="0px"
   y="0px"
   width="283.46px"
   height="283.46px"
   viewBox="0 0 283.46 283.46"
   enable-background="new 0 0 283.46 283.46"
   xml:space="preserve"
   sodipodi:docname="browser-generic.svg"
   inkscape:version="1.2.2 (b0a8486541, 2022-12-01)"
   xmlns:inkscape="http://www.inkscape.org/namespaces/inkscape"
   xmlns:sodipodi="http://sodipodi.sourceforge.net/DTD/sodipodi-0.dtd"
   xmlns="http://www.w3.org/2000/svg"
   xmlns:svg="http://www.w3.org/2000/svg"><defs
   id="defs15" /><sodipodi:namedview
   id="namedview13"
   pagecolor="#ffffff"
   bordercolor="#000000"
   borderopacity="0.25"
   inkscape:showpageshadow="2"
   inkscape:pageopacity="0.0"
   inkscape:pagecheckerboard="0"
   inkscape:deskcolor="#d1d1d1"
   showgrid="false"
   inkscape:zoom="1.0477135"
   inkscape:cx="143.64614"
   inkscape:cy="181.34729"
   inkscape:window-width="1920"
   inkscape:window-height="1015"
   inkscape:window-x="0"
   inkscape:window-y="0"
   inkscape:window-maximized="1"
   inkscape:current-layer="Layer_3" />

<path
   id="path9484"
   style="display:inline;fill-rule:evenodd;stroke:#000000;stroke-width:2.00546;stroke-linecap:round;stroke-linejoin:round"
   d="M 141.73047 8.0859375 A 133.64331 133.64428 0 0 0 8.0859375 141.73047 A 133.64331 133.64428 0 0 0 141.73047 275.37305 A 133.64331 133.64428 0 0 0 275.37305 141.73047 A 133.64331 133.64428 0 0 0 141.73047 8.0859375 z M 141.72852 67.472656 C 160.70347 67.472656 189.03184 91.653029 195.09375 136.30273 C 201.1656 180.94249 181.69302 215.98633 141.72852 215.98633 C 101.76181 215.98633 82.292826 180.94249 88.365234 136.30273 C 94.422802 91.653029 122.74857 67.472656 141.72852 67.472656 z M 107.1875 168.2168 A 1.9407537 1.7057187 88.526032 0 0 105.64453 169.82812 C 105.52915 170.63836 105.4393 171.45218 105.37695 172.27148 A 1.9407537 1.7057187 88.526032 0 0 105.375 172.31641 C 104.51485 187.81932 113.23434 201.4702 125.20117 202.41992 A 1.9407537 1.7057187 88.526032 0 1 125.20312 202.41992 C 130.52764 202.83312 135.78643 200.5869 139.9375 196.22656 A 1.9407537 1.7057187 88.526032 0 0 137.98047 193.07617 C 134.92399 194.89303 131.6312 195.69841 128.35156 195.45898 C 118.24827 194.63117 109.97547 184.03962 109.0293 170.01367 A 1.9407537 1.7057187 88.526032 0 0 108.18359 168.48047 A 1.9407537 1.7057187 88.526032 0 0 107.56445 168.23047 A 1.9407537 1.7057187 88.526032 0 0 107.1875 168.2168 z " /></svg>
