<?xml version="1.0" encoding="UTF-8" standalone="no"?>
<svg
   version="1.1"
   id="Layer_3"
   x="0px"
   y="0px"
   width="283.46px"
   height="283.46px"
   viewBox="0 0 283.46 283.46"
   enable-background="new 0 0 283.46 283.46"
   xml:space="preserve"
   sodipodi:docname="browser-generic.svg"
   inkscape:version="1.2.2 (b0a8486541, 2022-12-01)"
   xmlns:inkscape="http://www.inkscape.org/namespaces/inkscape"
   xmlns:sodipodi="http://sodipodi.sourceforge.net/DTD/sodipodi-0.dtd"
   xmlns="http://www.w3.org/2000/svg"
   xmlns:svg="http://www.w3.org/2000/svg"><defs
   id="defs15" /><sodipodi:namedview
   id="namedview13"
   pagecolor="#ffffff"
   bordercolor="#000000"
   borderopacity="0.25"
   inkscape:showpageshadow="2"
   inkscape:pageopacity="0.0"
   inkscape:pagecheckerboard="0"
   inkscape:deskcolor="#d1d1d1"
   showgrid="false"
   inkscape:zoom="0.37042266"
   inkscape:cx="-1002.9084"
   inkscape:cy="817.98451"
   inkscape:window-width="1920"
   inkscape:window-height="1015"
   inkscape:window-x="0"
   inkscape:window-y="0"
   inkscape:window-maximized="1"
   inkscape:current-layer="Layer_3" />

<path
   id="path1234"
   style="fill:#000000;stroke-width:9.63309"
   d="m 142.5398,7.0845007 c -6.5723,0 -13.0144,0.0944 -19.4566,1.20062 -5.9867,1.04116 -11.453,3.2215503 -16.7889,5.3071303 -1.8188,0.7158 -3.6409,1.43162 -5.4661,2.11164 -2.638697,0.94355 -5.433897,1.62672 -8.362097,2.34252 -4.8089,1.17131 -9.7606,2.37526 -14.2149,4.94563 -5.3554,3.0877 -10.9418,7.07635 -17.2961,12.29844 1.373,1.68863 2.8207,3.29904 4.3532,4.8315 0.1789,-0.16594 0.3708,-0.31884 0.5693,-0.47827 7.4541,5.36524 13.6003,12.26284 21.1487,17.63459 3.3155,2.3719 6.4128,5.01092 9.5331,7.64636 0.2342,0.29608 0.4782,0.5919 0.7124,0.89123 4.258997,3.64407 8.440197,7.37292 12.673197,11.03976 0.5661,-0.25703 1.1128,-0.5271 1.6822,-0.76787 1.168,-0.3579 2.3785,-0.65034 3.6084,-0.97896 1.7928,-0.42298 3.6469,-0.87516 5.4331,-1.52914 1.1453,-0.42297 2.2813,-0.84605 3.3875,-1.30155 0.5856,-0.2245 1.168,-0.45585 1.7211,-0.64781 15.9135,-3.45211 33.8379,-2.7006 48.9055,2.34253 0.1919,0.0651 0.3543,0.13019 0.5528,0.19526 5.2806,1.81553 10.1418,4.2235 14.4496,7.11598 7.7664,-8.74902 13.4539,-19.66187 20.6738,-28.8241 5.5019,-6.98555 10.9874,-13.98739 16.3884,-21.04778 -0.4653,-0.56613 -1.0348,-1.01837 -1.7343,-1.19732 -3.2211,-2.40769 -6.7346,-4.8125 -10.3755,-6.93061 -4.5876,-2.63219 -9.667,-4.06661 -14.6092,-5.43313 -2.668,-0.78087 -5.235,-1.49703 -7.7078,-2.37551 -7.7143,-2.82741 -14.7424,-5.23491 -22.4502,-6.6014303 -6.9953,-1.23638 -14.4134,-1.78971 -23.3283,-1.78971 z M 240.823,43.401911 c -11.2087,17.0555 -25.7039,31.82044 -36.9777,48.88896 0.3546,0.35464 0.7321,0.71597 1.0607,1.06736 3.8068,4.81536 6.3411,11.322409 8.5601,16.137779 0.015,0.0325 0.029,0.0651 0.044,0.0976 2.6824,-0.36371 5.3874,-0.56263 8.0289,-1.17027 3.0509,-0.57223 5.9343,-1.71367 8.816,-2.82806 3.0177,-1.33461 6.0599,-2.60697 9.1188,-3.84462 2.8875,-1.21881 5.8046,-2.341669 8.7889,-3.300379 2.7271,-0.87963 5.4772,-1.66796 8.2889,-2.22379 3.5351,-0.65219 7.0313,-1.4942 10.5338,-2.29833 1.5967,-0.42679 3.2075,-0.79607 4.817,-1.17027 -0.2107,-0.59915 -0.4197,-1.19897 -0.6228,-1.80423 -2.0855,-5.85651 -4.2004,-11.90812 -7.3825,-17.43602 -3.6798,-6.34457 -7.8412,-13.5351 -13.086,-19.74953 -2.8079,-3.37726 -6.1002,-6.77097 -9.9883,-10.36623 z m -191.207197,3.47124 c -0.7385,0.91753 -1.4672,1.84192 -2.1928,2.75945 -1.334,1.72439 -2.7004,3.41956 -4.0669,5.07888 -1.1681,1.39907 -2.3788,2.76571 -3.5794,4.12895 -3.9011,4.48998 -7.939,9.11367 -11.0332,14.44635 -2.7655,4.75024 -4.3596,9.98817 -5.9213,15.06381 -0.7125,2.37512 -1.4286,4.75052 -2.2746,7.06057 -0.8134,2.21247 -1.7209,4.39554 -2.6677,6.604719 -2.079,4.9455 -4.2269,10.08662 -5.2062,15.65027 -1.1681,6.73497 -1.1381,13.73358 -1.1056,20.46529 v 3.12359 c 0,6.89764 1.2005,13.50268 2.3458,19.85046 l 0.6148,3.44551 c 0.7715,4.39881 1.5766,8.25654 2.4547,11.80961 l 54.0813,-24.22811 c -0.9188,-9.71018 -0.2561,-19.62341 2.0978,-29.13019 0.5531,-1.23634 1.0737,-2.50858 1.5324,-3.74171 0.5206,-1.4641 0.9728,-2.96082 1.4315,-4.45746 0.9077,-2.96081 1.7929,-5.79175 3.2212,-8.26448 1.6594,-2.89571 3.9727,-5.53138 6.1819,-8.065919 0.7418,-0.8492 1.4936,-1.6951 2.2126,-2.53779 0.8459,-1.04117 1.6918,-2.11476 2.5345,-3.15592 1.835,-2.36536 3.6342,-4.5419 5.6937,-6.40946 -8.2739,-7.0343 -16.3884,-14.17961 -25.147,-20.72586 -7.7274,-5.77188 -14.9768,-11.64516 -21.2075,-18.77056 z m 99.470697,52.30742 c -9.4848,0.0808 -19.0258,2.309469 -26.729,6.086219 -13.213,6.47798 -18.5065,16.98713 -20.361,31.39422 -0.2408,1.91314 -0.3518,3.72894 -0.3615,5.48591 -1.2136,10.33679 0.6409,21.30483 4.5551,29.43892 3.1072,6.46171 7.9875,10.6521 13.6554,13.0663 8.6156,11.89528 40.2964,7.33413 50.0638,4.15533 24.8155,-8.06576 25.6619,-45.81814 18.6406,-66.19239 -5.8258,-16.89789 -22.5558,-23.578459 -39.4634,-23.434509 z m -75.391697,67.395649 -52.3918,23.47079 c 2.4886,6.70838 4.9525,12.86675 8.3258,18.68876 3.4456,5.98666 7.7079,11.84313 13.7563,19.0661 l 1.6591,1.98168 c 4.3989,5.27083 8.9475,10.7045 14.3811,15.29207 5.4009,4.52252 11.5868,8.75266 19.4605,13.30775 4.6611,2.71212 9.6815,4.50087 14.6034,6.17591 l 43.906397,-43.6016 c -9.6254,-1.92031 -18.8442,-5.08664 -26.6505,-8.80872 -19.450697,-9.29067 -31.732797,-26.31934 -37.050297,-45.57274 z m 131.217797,31.0149 c -1.8616,1.87459 -3.9723,3.60145 -6.0295,5.2913 -0.7808,0.61494 -1.5619,1.26916 -2.3135,1.88735 -2.8599,2.4402 -6.6992,5.49511 -10.9289,7.9353 l -2.014,1.20392 c -3.2211,1.88711 -6.5789,3.84224 -10.0212,5.10791 -4.1386,1.49667 -8.6872,2.70071 -13.1804,3.51412 -0.7877,0.13668 -1.6381,0.22424 -2.5543,0.28498 l -47.972,47.63953 c 4.2312,1.4986 8.5981,2.87357 13.2008,3.67507 7.4541,1.30144 15.3278,1.98499 23.4293,1.98499 2.1474,0 4.295,0.0681 6.4391,0.12994 2.219,0.0683 4.3991,0.12996 6.5757,0.12996 4.1939,0 7.5807,-0.26027 10.6684,-0.81338 7.9355,-1.36653 15.6827,-3.44883 22.9707,-6.08425 6.312,-2.31005 12.1005,-5.72643 17.6999,-9.01256 l 3.3156,-1.95527 c 7.454,-4.29154 14.1204,-9.66362 19.1017,-13.82824 1.2331,-1.03792 2.5054,-2.08198 3.7417,-3.09061 4.7796,-3.90108 9.6898,-7.93615 13.7893,-12.78725 3.3545,-3.99869 5.5016,-8.68676 7.5481,-13.24178 0.5986,-1.28665 1.1774,-2.5256 1.766,-3.74039 -1.0497,-0.13984 -2.0937,-0.31642 -3.1282,-0.54622 -1.2324,0.10757 -2.6231,0.0114 -4.16,-0.34501 -0.9733,-0.22577 -1.9397,-0.46152 -2.8815,-0.80085 -1.5496,-0.57961 -3.0107,-1.27912 -4.3829,-2.20796 -0.049,-0.033 -0.092,-0.0666 -0.1405,-0.0996 -3.2746,-0.48268 -6.5231,-1.14747 -9.7435,-1.92956 -3.1263,-0.78821 -4.387,-1.06556 -7.5203,-2.02654 -4.6251,-1.41848 -9.1103,-3.26033 -13.7762,-4.55048 -1.994,-0.56869 -4.044,-1.28531 -6.1132,-1.56081 -1.2029,-0.16014 -1.9544,-0.0997 -3.1982,-0.15173 -0.063,-0.003 -0.1253,-0.008 -0.188,-0.0118 z" /></svg>
