<?xml version="1.0" encoding="UTF-8" standalone="no"?>
<svg
   version="1.1"
   id="Layer_3"
   x="0px"
   y="0px"
   width="283.46px"
   height="283.46px"
   viewBox="0 0 283.46 283.46"
   enable-background="new 0 0 283.46 283.46"
   xml:space="preserve"
   sodipodi:docname="browser-generic-alt-1.svg"
   inkscape:version="1.2.2 (b0a8486541, 2022-12-01)"
   xmlns:inkscape="http://www.inkscape.org/namespaces/inkscape"
   xmlns:sodipodi="http://sodipodi.sourceforge.net/DTD/sodipodi-0.dtd"
   xmlns="http://www.w3.org/2000/svg"
   xmlns:svg="http://www.w3.org/2000/svg"><defs
   id="defs15" /><sodipodi:namedview
   id="namedview13"
   pagecolor="#ffffff"
   bordercolor="#000000"
   borderopacity="0.25"
   inkscape:showpageshadow="2"
   inkscape:pageopacity="0.0"
   inkscape:pagecheckerboard="0"
   inkscape:deskcolor="#d1d1d1"
   showgrid="false"
   inkscape:zoom="1.4816906"
   inkscape:cx="-9.1112137"
   inkscape:cy="195.04746"
   inkscape:window-width="1920"
   inkscape:window-height="1015"
   inkscape:window-x="0"
   inkscape:window-y="0"
   inkscape:window-maximized="1"
   inkscape:current-layer="Layer_3" />

<path
   id="path2231"
   style="fill-rule:evenodd;stroke-width:27.6;stroke-linecap:round;stroke-linejoin:round;paint-order:markers fill stroke"
   d="M 141.73047 7.0839844 A 134.64551 134.64549 0 0 0 7.0839844 141.73047 A 134.64551 134.64549 0 0 0 141.73047 276.375 A 134.64551 134.64549 0 0 0 276.375 141.73047 A 134.64551 134.64549 0 0 0 141.73047 7.0839844 z M 142.36328 36.455078 L 145.49219 36.455078 C 152.46248 36.455078 158.26299 36.886824 163.73242 37.853516 C 169.75892 38.921958 175.25357 40.804959 181.28516 43.015625 C 183.21856 43.702485 185.22647 44.262508 187.3125 44.873047 C 191.17667 45.941489 195.14745 47.063064 198.73438 49.121094 C 201.58108 50.777187 204.32722 52.656563 206.8457 54.539062 C 207.39261 54.678983 207.83933 55.033923 208.20312 55.476562 C 203.98025 60.996872 199.69045 66.469847 195.38867 71.931641 C 189.74364 79.095319 185.29693 87.628155 179.22461 94.46875 C 175.85647 92.20721 172.05648 90.325764 167.92773 88.90625 C 167.77254 88.855375 167.64418 88.802863 167.49414 88.751953 C 155.71323 84.808873 141.70011 84.222768 129.25781 86.921875 C 128.82536 87.071959 128.36998 87.252204 127.91211 87.427734 C 127.04721 87.783869 126.15915 88.114606 125.26367 88.445312 C 123.86709 88.956642 122.41736 89.309918 121.01562 89.640625 C 120.054 89.897569 119.10659 90.126418 118.19336 90.40625 C 117.74817 90.594496 117.32153 90.804891 116.87891 91.005859 C 113.56925 88.138862 110.29874 85.224191 106.96875 82.375 C 106.78563 82.140962 106.59522 81.909232 106.41211 81.677734 C 103.97243 79.617163 101.55128 77.55374 98.958984 75.699219 C 93.057112 71.499214 88.251967 66.107033 82.423828 61.912109 C 82.268624 62.036765 82.118397 62.155408 81.978516 62.285156 C 80.780298 61.086966 79.647733 59.828098 78.574219 58.507812 C 83.54246 54.424812 87.910422 51.306753 92.097656 48.892578 C 95.58034 46.882882 99.452961 45.941199 103.21289 45.025391 C 105.50237 44.465727 107.68687 43.931095 109.75 43.193359 C 111.17707 42.661675 112.60137 42.102632 114.02344 41.542969 C 118.19541 39.912313 122.46957 38.206626 127.15039 37.392578 C 132.18736 36.527676 137.2246 36.455078 142.36328 36.455078 z M 219.20703 64.849609 C 222.24702 67.66063 224.82216 70.314498 227.01758 72.955078 C 231.11833 77.813956 234.37093 83.435846 237.24805 88.396484 C 239.73604 92.718586 241.3909 97.450271 243.02148 102.0293 C 243.18028 102.50254 243.34308 102.97099 243.50781 103.43945 C 242.24939 103.73202 240.99061 104.02177 239.74219 104.35547 C 237.00369 104.9842 234.26986 105.64241 231.50586 106.15234 C 229.30748 106.58693 227.15764 107.20287 225.02539 107.89062 C 222.69205 108.64021 220.41 109.51775 218.15234 110.4707 C 215.76068 111.43838 213.3829 112.43308 211.02344 113.47656 C 208.77033 114.34787 206.51627 115.24008 204.13086 115.6875 C 202.06554 116.16259 199.9508 116.31914 197.85352 116.60352 C 197.84172 116.57812 197.83006 116.55274 197.81836 116.52734 C 196.08339 112.76235 194.10143 107.67514 191.125 103.91016 C 190.86808 103.63542 190.57412 103.3515 190.29688 103.07422 C 199.11153 89.728839 210.44329 78.184801 219.20703 64.849609 z M 69.708984 67.564453 C 74.580586 73.135591 80.249194 77.727376 86.291016 82.240234 C 93.13911 87.358559 99.482069 92.945405 105.95117 98.445312 C 104.34091 99.905511 102.93473 101.60762 101.5 103.45703 C 100.84112 104.27108 100.17896 105.10977 99.517578 105.92383 C 98.955413 106.58271 98.369063 107.24424 97.789062 107.9082 C 96.061758 109.88989 94.252515 111.95078 92.955078 114.21484 C 91.838331 116.14819 91.145246 118.36081 90.435547 120.67578 C 90.0769 121.84596 89.723454 123.01737 89.316406 124.16211 C 88.95776 125.12626 88.551587 126.12124 88.119141 127.08789 C 86.278694 134.52096 85.760139 142.27117 86.478516 149.86328 L 44.193359 168.80664 C 43.506806 166.02859 42.878604 163.01157 42.275391 159.57227 L 41.794922 156.87891 C 40.899442 151.91576 39.960938 146.75243 39.960938 141.35938 L 39.960938 138.91602 C 39.935529 133.65268 39.910914 128.18189 40.824219 122.91602 C 41.589904 118.56596 43.269016 114.54447 44.894531 110.67773 C 45.634799 108.95045 46.344502 107.24354 46.980469 105.51367 C 47.641939 103.70751 48.202681 101.85118 48.759766 99.994141 C 49.980813 96.025635 51.226408 91.930872 53.388672 88.216797 C 55.807928 84.047329 58.965465 80.432459 62.015625 76.921875 C 62.954339 75.856003 63.901148 74.787248 64.814453 73.693359 C 65.882885 72.39598 66.951127 71.070911 67.994141 69.722656 C 68.561465 69.005267 69.131574 68.281842 69.708984 67.564453 z M 147.48242 108.46094 C 160.70198 108.34839 173.78287 113.5732 178.33789 126.78516 C 183.82764 142.71518 183.16423 172.23268 163.76172 178.53906 C 156.12487 181.02447 131.35542 184.58964 124.61914 175.28906 C 120.18758 173.40147 116.37083 170.12643 113.94141 165.07422 C 110.881 158.71442 109.43198 150.13866 110.38086 142.05664 C 110.38844 140.68292 110.47578 139.26341 110.66406 137.76758 C 112.11404 126.5031 116.25313 118.28565 126.58398 113.2207 C 132.60689 110.26778 140.06653 108.52414 147.48242 108.46094 z M 88.535156 161.15625 C 92.692753 176.20991 102.29598 189.52496 117.50391 196.78906 C 123.60742 199.69925 130.81598 202.17436 138.3418 203.67578 L 104.01172 237.76758 C 100.16343 236.45792 96.238129 235.05802 92.59375 232.9375 C 86.437541 229.376 81.601713 226.06923 77.378906 222.5332 C 73.130538 218.94632 69.574129 214.69728 66.134766 210.57617 L 64.837891 209.02734 C 60.108827 203.37992 56.776038 198.79993 54.082031 194.11914 C 51.444548 189.56708 49.518028 184.7529 47.572266 179.50781 L 88.535156 161.15625 z M 191.13086 185.40625 C 191.17984 185.40925 191.22804 185.41402 191.27734 185.41602 C 192.24984 185.45665 192.83682 185.40995 193.77734 185.53516 C 195.39519 185.75057 196.99955 186.30927 198.55859 186.75391 C 202.20672 187.76265 205.71385 189.20343 209.33008 190.3125 C 211.77992 191.06386 212.76462 191.2802 215.20898 191.89648 C 217.72693 192.50798 220.26782 193.02885 222.82812 193.40625 C 222.86608 193.43195 222.8992 193.45858 222.9375 193.48438 C 224.01038 194.2106 225.15169 194.7558 226.36328 195.20898 C 227.09964 195.4743 227.8562 195.65941 228.61719 195.83594 C 229.81885 196.11468 230.90556 196.18957 231.86914 196.10547 C 232.67798 196.28516 233.49371 196.42387 234.31445 196.5332 C 233.85424 197.48301 233.40357 198.45104 232.93555 199.45703 C 231.33545 203.01848 229.65599 206.68409 227.0332 209.81055 C 223.82793 213.60348 219.98898 216.75846 216.25195 219.80859 C 215.28531 220.59721 214.2903 221.41308 213.32617 222.22461 C 209.43145 225.4808 204.21869 229.68168 198.39062 233.03711 L 195.79883 234.56641 C 191.42082 237.13573 186.89415 239.80712 181.95898 241.61328 C 176.26071 243.67384 170.20453 245.30069 164 246.36914 C 161.58581 246.8016 158.93729 247.00586 155.6582 247.00586 C 153.95638 247.00586 152.25256 246.9577 150.51758 246.9043 C 148.84117 246.85591 147.16141 246.80273 145.48242 246.80273 C 139.14811 246.80273 132.9922 246.26756 127.16406 245.25 C 123.56535 244.62334 120.15004 243.54867 116.8418 242.37695 L 154.34961 205.12891 C 155.06596 205.08142 155.73178 205.01312 156.34766 204.90625 C 159.86075 204.27027 163.41649 203.32841 166.65234 202.1582 C 169.34377 201.16861 171.96979 199.63955 174.48828 198.16406 L 176.0625 197.22266 C 179.36958 195.31474 182.37134 192.92745 184.60742 191.01953 C 185.19507 190.53619 185.80553 190.02377 186.41602 189.54297 C 188.02447 188.22172 189.67532 186.87194 191.13086 185.40625 z " /></svg>
