<?xml version="1.0" encoding="UTF-8" standalone="no"?>
<!-- Generator: Adobe Illustrator 15.1.0, SVG Export Plug-In . SVG Version: 6.00 Build 0)  -->

<svg
   version="1.0"
   id="Layer_1"
   x="0px"
   y="0px"
   width="283.465px"
   height="283.465px"
   viewBox="0 0 283.465 283.465"
   enable-background="new 0 0 283.465 283.465"
   xml:space="preserve"
   sodipodi:docname="calendar.svg"
   inkscape:version="1.4.2 (ebf0e940d0, 2025-05-08)"
   xmlns:inkscape="http://www.inkscape.org/namespaces/inkscape"
   xmlns:sodipodi="http://sodipodi.sourceforge.net/DTD/sodipodi-0.dtd"
   xmlns="http://www.w3.org/2000/svg"
   xmlns:svg="http://www.w3.org/2000/svg"><defs
   id="defs19" /><sodipodi:namedview
   id="namedview19"
   pagecolor="#ffffff"
   bordercolor="#000000"
   borderopacity="0.25"
   inkscape:showpageshadow="2"
   inkscape:pageopacity="0.0"
   inkscape:pagecheckerboard="0"
   inkscape:deskcolor="#d1d1d1"
   inkscape:zoom="0.6914434"
   inkscape:cx="228.5075"
   inkscape:cy="224.16875"
   inkscape:window-width="1078"
   inkscape:window-height="991"
   inkscape:window-x="26"
   inkscape:window-y="23"
   inkscape:window-maximized="0"
   inkscape:current-layer="Layer_6"
   showguides="true" />




<g
   id="Layer_6">
	
<path
   id="path1"
   d="M 60.326172 2.8339844 C 56.731172 2.8339844 53.810547 5.7516562 53.810547 9.3476562 L 53.810547 36.857422 C 49.651547 39.154422 46.833984 43.588922 46.833984 48.669922 C 46.833984 56.115922 52.881172 62.164062 60.326172 62.164062 C 67.774172 62.164062 73.822266 56.115969 73.822266 48.667969 C 73.822266 43.586969 71.006656 39.151469 66.847656 36.855469 L 66.847656 9.3476562 C 66.847656 5.7526562 63.924172 2.8339844 60.326172 2.8339844 z M 141.50391 2.8339844 C 137.90591 2.8339844 134.99219 5.7516562 134.99219 9.3476562 L 134.99219 36.857422 C 130.83219 39.154422 128.01563 43.588922 128.01562 48.669922 C 128.01663 56.115922 134.06291 62.164062 141.50391 62.164062 C 148.95291 62.164062 154.99805 56.115969 154.99805 48.667969 C 154.99805 43.586969 152.1883 39.151469 148.0293 36.855469 L 148.0293 9.3476562 C 148.0293 5.7526562 145.09991 2.8339844 141.50391 2.8339844 z M 223.13867 2.8339844 C 219.54367 2.8339844 216.625 5.7516562 216.625 9.3476562 L 216.625 36.857422 C 212.466 39.154422 209.64453 43.588922 209.64453 48.669922 C 209.64453 56.115922 215.69067 62.164062 223.13867 62.164062 C 230.58667 62.164062 236.63281 56.115969 236.63281 48.667969 C 236.63281 43.586969 233.80911 39.151469 229.66211 36.855469 L 229.66211 9.3476562 C 229.66211 5.7526562 226.73367 2.8339844 223.13867 2.8339844 z M 32.601562 24.613281 C 20.900562 24.613281 11.410156 34.103688 11.410156 45.804688 L 11.410156 258.62891 C 11.410156 264.46391 13.729469 270.06345 17.855469 274.18945 C 21.980469 278.30645 27.57125 280.62891 33.40625 280.62891 L 250.0625 280.62891 C 255.8975 280.62891 261.48828 278.30645 265.61328 274.18945 C 269.73828 270.06345 272.05469 264.46391 272.05469 258.62891 L 272.05469 45.804688 C 272.05469 34.101688 262.56919 24.613281 250.86719 24.613281 L 234.27539 24.613281 C 234.27539 29.839281 234.27562 34.390766 234.26562 34.384766 C 238.52062 37.699766 241.24414 42.864969 241.24414 48.667969 C 241.24414 58.660969 233.13072 66.777344 223.13672 66.777344 C 213.14272 66.777344 205.02734 58.659969 205.02734 48.667969 C 205.02734 42.864969 207.76481 37.699766 212.00781 34.384766 L 212.00781 24.613281 L 152.64453 24.613281 C 152.64453 29.839281 152.64381 34.390766 152.63281 34.384766 C 156.88481 37.699766 159.61133 42.864969 159.61133 48.667969 C 159.61133 58.660969 151.49991 66.777344 141.50391 66.777344 C 131.51091 66.777344 123.39453 58.659969 123.39453 48.667969 C 123.39453 42.864969 126.12986 37.699766 130.38086 34.384766 L 130.37305 24.613281 L 71.460938 24.613281 C 71.460938 29.839281 71.460078 34.390766 71.455078 34.384766 C 75.704078 37.699766 78.435547 42.864969 78.435547 48.667969 C 78.435547 58.660969 70.320172 66.777344 60.326172 66.777344 C 50.333172 66.777344 42.21875 58.659969 42.21875 48.667969 C 42.21875 42.864969 44.948219 37.699766 49.199219 34.384766 L 49.199219 24.613281 L 32.601562 24.613281 z M 33.578125 79.298828 L 249.88281 79.298828 C 254.93281 79.298828 259.01562 83.386641 259.01562 88.431641 L 259.01562 258.46094 C 259.01562 263.50894 254.93281 267.59375 249.88281 267.59375 L 33.583984 267.59375 C 28.539984 267.59375 24.449219 263.50894 24.449219 258.46094 L 24.449219 88.431641 C 24.449219 83.387641 28.539125 79.298828 33.578125 79.298828 z M 125.67188 94.9375 L 125.67188 127.06445 L 157.80078 127.06445 L 157.80078 94.9375 L 125.67188 94.9375 z M 169.01367 94.9375 L 169.01367 127.06445 L 201.14844 127.06445 L 201.14844 94.9375 L 169.01367 94.9375 z M 212.46484 94.9375 L 212.46484 127.06445 L 244.58789 127.06445 L 244.58789 94.9375 L 212.46484 94.9375 z M 39.371094 94.939453 L 39.371094 127.06641 L 71.498047 127.06641 L 71.498047 94.939453 L 39.371094 94.939453 z M 82.154297 94.939453 L 82.154297 127.06641 L 114.28125 127.06641 L 114.28125 94.939453 L 82.154297 94.939453 z M 39.371094 137.80859 L 39.371094 169.94141 L 71.498047 169.94141 L 71.498047 137.80859 L 39.371094 137.80859 z M 82.154297 137.80859 L 82.154297 169.94141 L 114.28125 169.94141 L 114.28125 137.80859 L 82.154297 137.80859 z M 125.67188 137.80859 L 125.67188 169.94141 L 157.80078 169.94141 L 157.80078 137.80859 L 125.67188 137.80859 z M 169.01367 137.80859 L 169.01367 169.94141 L 201.14844 169.94141 L 201.14844 137.80859 L 169.01367 137.80859 z M 212.46484 137.80859 L 212.46484 169.94141 L 244.58789 169.94141 L 244.58789 137.80859 L 212.46484 137.80859 z M 39.371094 180.79297 L 39.371094 212.91406 L 71.498047 212.91406 L 71.498047 180.79297 L 39.371094 180.79297 z M 82.154297 180.79297 L 82.154297 212.91602 L 114.28125 212.91602 L 114.28125 180.79297 L 82.154297 180.79297 z M 125.67188 180.79297 L 125.67188 212.91406 L 157.80078 212.91406 L 157.80078 180.79297 L 125.67188 180.79297 z M 169.01367 180.79297 L 169.01367 212.91406 L 201.14844 212.91406 L 201.14844 180.79297 L 169.01367 180.79297 z M 212.46484 180.79297 L 212.46484 212.91406 L 244.58789 212.91406 L 244.58789 180.79297 L 212.46484 180.79297 z M 39.371094 223.66211 L 39.371094 255.79688 L 71.498047 255.79688 L 71.498047 223.66211 L 39.371094 223.66211 z M 82.154297 223.66211 L 82.154297 255.79688 L 114.28125 255.79688 L 114.28125 223.66211 L 82.154297 223.66211 z M 125.67188 223.66211 L 125.67188 255.79688 L 157.80078 255.79688 L 157.80078 223.66211 L 125.67188 223.66211 z M 169.01367 223.66211 L 169.01367 255.79688 L 201.14844 255.79688 L 201.14844 223.66211 L 169.01367 223.66211 z M 212.46484 223.66211 L 212.46484 255.79688 L 244.58789 255.79688 L 244.58789 223.66211 L 212.46484 223.66211 z " /></g>
</svg>
