<?xml version="1.0" encoding="UTF-8" standalone="no"?>
<!-- Generator: Adobe Illustrator 15.1.0, SVG Export Plug-In . SVG Version: 6.00 Build 0)  -->

<svg
   version="1.0"
   id="Layer_1"
   x="0px"
   y="0px"
   width="283.465px"
   height="283.465px"
   viewBox="0 0 283.465 283.465"
   enable-background="new 0 0 283.465 283.465"
   xml:space="preserve"
   sodipodi:docname="calendar-week.svg"
   inkscape:version="1.4.2 (ebf0e940d0, 2025-05-08)"
   xmlns:inkscape="http://www.inkscape.org/namespaces/inkscape"
   xmlns:sodipodi="http://sodipodi.sourceforge.net/DTD/sodipodi-0.dtd"
   xmlns="http://www.w3.org/2000/svg"
   xmlns:svg="http://www.w3.org/2000/svg"><defs
   id="defs19" /><sodipodi:namedview
   id="namedview19"
   pagecolor="#ffffff"
   bordercolor="#000000"
   borderopacity="0.25"
   inkscape:showpageshadow="2"
   inkscape:pageopacity="0.0"
   inkscape:pagecheckerboard="0"
   inkscape:deskcolor="#d1d1d1"
   inkscape:zoom="0.97784863"
   inkscape:cx="77.721641"
   inkscape:cy="-63.404496"
   inkscape:window-width="1920"
   inkscape:window-height="995"
   inkscape:window-x="0"
   inkscape:window-y="0"
   inkscape:window-maximized="1"
   inkscape:current-layer="Layer_1"
   showguides="true" />




<path
   id="path73"
   style="display:inline"
   d="M 125.67285 94.939453 L 125.67285 127.06641 L 157.80176 127.06641 L 157.80176 94.939453 L 125.67285 94.939453 z M 169.01465 94.939453 L 169.01465 127.06641 L 201.14941 127.06641 L 201.14941 94.939453 L 169.01465 94.939453 z M 212.46582 94.939453 L 212.46582 127.06641 L 244.58887 127.06641 L 244.58887 94.939453 L 212.46582 94.939453 z M 39.37207 94.941406 L 39.37207 127.06836 L 71.499023 127.06836 L 71.499023 94.941406 L 39.37207 94.941406 z M 82.155273 94.941406 L 82.155273 127.06836 L 114.28223 127.06836 L 114.28223 94.941406 L 82.155273 94.941406 z M 125.67285 136.93945 L 125.67285 258.03125 L 157.80176 258.03125 L 157.80176 136.93945 L 125.67285 136.93945 z M 169.01465 136.93945 L 169.01465 258.03125 L 201.14941 258.03125 L 201.14941 136.93945 L 169.01465 136.93945 z M 212.46582 136.93945 L 212.46582 258.03125 L 244.58887 258.03125 L 244.58887 136.93945 L 212.46582 136.93945 z M 39.37207 136.94531 L 39.37207 258.03906 L 71.499023 258.03906 L 71.499023 136.94531 L 39.37207 136.94531 z M 82.155273 136.94531 L 82.155273 258.03906 L 114.28223 258.03906 L 114.28223 136.94531 L 82.155273 136.94531 z "
   transform="translate(-0.24707033,-2)" />
<path
   id="path67"
   style="display:inline"
   d="M 32.601562 24.615234 C 20.900562 24.615234 11.410156 34.105641 11.410156 45.806641 L 11.410156 258.63086 C 11.410156 264.46586 13.729469 270.06541 17.855469 274.19141 C 21.980469 278.30841 27.57125 280.63086 33.40625 280.63086 L 250.0625 280.63086 C 255.8975 280.63086 261.48828 278.30841 265.61328 274.19141 C 269.73828 270.06541 272.05469 264.46586 272.05469 258.63086 L 272.05469 45.806641 C 272.05469 34.103641 262.56919 24.615234 250.86719 24.615234 L 234.27539 24.615234 C 234.27539 29.841234 234.27585 34.392719 234.26562 34.386719 C 238.52062 37.701719 241.24414 42.866922 241.24414 48.669922 C 241.24414 58.662922 233.13072 66.779297 223.13672 66.779297 C 213.14272 66.779297 205.02734 58.661922 205.02734 48.669922 C 205.02734 42.866922 207.76481 37.701719 212.00781 34.386719 L 212.00781 24.615234 L 152.64453 24.615234 C 152.64453 29.841234 152.64379 34.392719 152.63281 34.386719 C 156.88481 37.701719 159.61133 42.866922 159.61133 48.669922 C 159.61133 58.662922 151.49991 66.779297 141.50391 66.779297 C 131.51091 66.779297 123.39453 58.661922 123.39453 48.669922 C 123.39453 42.866922 126.12986 37.701719 130.38086 34.386719 L 130.37305 24.615234 L 71.460938 24.615234 C 71.460938 29.841234 71.460118 34.392719 71.455078 34.386719 C 75.704078 37.701719 78.435547 42.866922 78.435547 48.669922 C 78.435547 58.662922 70.320172 66.779297 60.326172 66.779297 C 50.333172 66.779297 42.21875 58.661922 42.21875 48.669922 C 42.21875 42.866922 44.948219 37.701719 49.199219 34.386719 L 49.199219 24.615234 L 32.601562 24.615234 z M 33.578125 79.300781 L 249.88281 79.300781 C 254.93281 79.300781 259.01562 83.388594 259.01562 88.433594 L 259.01562 258.46289 C 259.01562 263.51089 254.93281 267.5957 249.88281 267.5957 L 33.583984 267.5957 C 28.539984 267.5957 24.449219 263.51089 24.449219 258.46289 L 24.449219 88.433594 C 24.449219 83.389594 28.539125 79.300781 33.578125 79.300781 z " /><path
   d="m 223.13875,2.8350353 c -3.595,0 -6.51367,2.9176717 -6.51367,6.5136717 v 27.509766 c -4.159,2.297 -6.98047,6.7315 -6.98047,11.8125 0,7.446 6.04614,13.49414 13.49414,13.49414 7.448,0 13.49414,-6.048093 13.49414,-13.496093 0,-5.081 -2.8237,-9.5165 -6.9707,-11.8125 V 9.348707 c 0,-3.595 -2.92844,-6.5136717 -6.52344,-6.5136717 z"
   id="path66"
   style="display:inline" /><path
   d="m 141.50399,2.8350353 c -3.598,0 -6.51172,2.9176717 -6.51172,6.5136717 v 27.509766 c -4.16,2.297 -6.97656,6.7315 -6.97657,11.8125 10e-4,7.446 6.04729,13.49414 13.48829,13.49414 7.449,0 13.49414,-6.048093 13.49414,-13.496093 0,-5.081 -2.80975,-9.5165 -6.96875,-11.8125 V 9.348707 c 0,-3.595 -2.92939,-6.5136717 -6.52539,-6.5136717 z"
   id="path65"
   style="display:inline" /><path
   d="m 60.326245,2.8350353 c -3.595,0 -6.515625,2.9176717 -6.515625,6.5136717 v 27.509766 c -4.159,2.297 -6.976563,6.7315 -6.976563,11.8125 0,7.446 6.047188,13.49414 13.492188,13.49414 7.448,0 13.496094,-6.048093 13.496094,-13.496093 0,-5.081 -2.81561,-9.5165 -6.97461,-11.8125 V 9.348707 c 0,-3.595 -2.923484,-6.5136717 -6.521484,-6.5136717 z"
   id="path1"
   style="display:inline" /></svg>
