<?xml version="1.0" encoding="UTF-8" standalone="no"?>
<!-- Generator: Adobe Illustrator 15.1.0, SVG Export Plug-In . SVG Version: 6.00 Build 0)  -->

<svg
   version="1.1"
   id="Layer_1"
   x="0px"
   y="0px"
   width="283.465px"
   height="283.465px"
   viewBox="0 0 283.465 283.465"
   enable-background="new 0 0 283.465 283.465"
   xml:space="preserve"
   sodipodi:docname="candle.svg"
   inkscape:version="1.2.2 (b0a8486541, 2022-12-01)"
   xmlns:inkscape="http://www.inkscape.org/namespaces/inkscape"
   xmlns:sodipodi="http://sodipodi.sourceforge.net/DTD/sodipodi-0.dtd"
   xmlns="http://www.w3.org/2000/svg"
   xmlns:svg="http://www.w3.org/2000/svg"><defs
   id="defs15" /><sodipodi:namedview
   id="namedview13"
   pagecolor="#ffffff"
   bordercolor="#000000"
   borderopacity="0.25"
   inkscape:showpageshadow="2"
   inkscape:pageopacity="0.0"
   inkscape:pagecheckerboard="0"
   inkscape:deskcolor="#d1d1d1"
   showgrid="false"
   inkscape:zoom="2"
   inkscape:cx="45.25"
   inkscape:cy="96.5"
   inkscape:window-width="1920"
   inkscape:window-height="1015"
   inkscape:window-x="0"
   inkscape:window-y="0"
   inkscape:window-maximized="1"
   inkscape:current-layer="Layer_1" />
<title
   id="title2">877</title>

<path
   id="path380"
   style="fill:#000000;stroke-width:6.25"
   d="m 151.12403,7.0858782 v 5.2e-4 l -5.1e-4,5.2e-4 c -0.71874,-0.0259 -2.34797,0.95461 -5.58894,3.8420398 -5.19964,3.60737 -17.10549,13.80634 -23.5686,35.14839 -6.68988,22.05977 1.06913,34.35524 8.43934,38.96361 2.16696,1.35531 4.50173,2.24167 6.88531,2.66311 0.26427,0.0469 0.3615,-0.0777 0.36597,-0.11743 -0.2528,-0.77752 -0.36577,-1.83443 -0.23741,-3.24321 1.31518,-7.68409 3.65513,-11.02658 1.52467,-19.17683 1.27967,0.32397 4.6955,5.9752 4.30674,10.5917 -0.29157,3.45023 -1.34446,8.77951 -1.27967,10.22116 0.13872,0.51531 -0.51625,1.53544 -0.15186,1.75701 1.90087,0.87165 8.65855,-2.5788 9.91997,-3.48973 10.77185,-7.95133 12.52128,-23.24981 3.53124,-38.96361 -9.39499,-16.43149 -6.1174,-28.0105 -5.1617,-33.10993 0.14147,-0.76138 2.48715,-5.0342898 1.01543,-5.0872998 z M 137.96085,93.233758 c -4.40688,-0.70962 -8.90258,-1.56977 -13.27961,-2.72082 -3.53452,-0.92792 -6.31797,-1.3333 -8.52641,-1.32573 -2.12706,0.007 -3.71652,0.40102 -4.94049,1.07617 -0.0248,0.009 -0.0495,0.0181 -0.0739,0.0278 -0.0226,0.0118 -0.0343,0.0325 -0.0567,0.0445 -2.76987,1.48502 -3.60607,4.60648 -3.92304,7.68814 -0.31954,3.106582 -0.0732,6.526682 0.21513,9.459332 0.56677,5.76482 1.00908,11.46761 -1.37331,15.80301 -0.002,0.004 -0.004,0.008 -0.006,0.0126 -0.61327,1.13112 -1.70757,2.45846 -2.31283,4.40392 -1.07565,3.44948 0.3375,7.08971 3.14147,9.17131 -1.38016,3.1903 -2.62604,6.63901 -2.40444,10.46261 6e-5,0.001 -5e-5,0.002 0,0.004 1.3e-4,0.002 -1.2e-4,0.004 0,0.006 0.2309,4.1907 2.48067,8.54621 6.51427,10.30164 v 100.8393 c 0,9.88648 13.6715,17.89158 30.53388,17.89158 16.86239,0 30.53389,-8.0051 30.53389,-17.89158 V 143.76172 c 0.45475,0.21424 0.93905,0.33902 1.4128,0.34168 1.35861,0.008 2.48225,-0.61144 3.43608,-1.45836 1.90765,-1.69381 3.29029,-4.57596 3.29029,-8.2161 v -5.2e-4 -5.2e-4 -5.2e-4 -5.2e-4 -5.1e-4 -5.2e-4 -5.2e-4 -5.2e-4 -5.2e-4 -5.2e-4 -5.1e-4 -5.2e-4 -5.2e-4 -5.2e-4 -5.2e-4 -5.2e-4 -5.1e-4 -5.2e-4 -5.2e-4 -5.2e-4 -10e-4 -5.1e-4 -5.2e-4 -5.2e-4 -5.2e-4 -5.2e-4 -0.001 -5.2e-4 -5.2e-4 -5.2e-4 -5.2e-4 -5.2e-4 -5.1e-4 -5.2e-4 -5.2e-4 -5.2e-4 -5.2e-4 -5.2e-4 -5.1e-4 -5.2e-4 -5.2e-4 -5.2e-4 -5.2e-4 -5.2e-4 c -0.0421,-4.18631 -2.44334,-10.00161 -3.84407,-13.11053 -10e-4,-0.001 -0.002,-0.002 -0.003,-0.003 -0.96721,-2.14167 -0.96806,-3.61843 -0.80688,-5.53376 0.16119,-1.91532 0.57125,-4.24315 0.18021,-7.22598 v -5.2e-4 -5.2e-4 -5.1e-4 -5.2e-4 -5.2e-4 -5.2e-4 c -0.10374,-0.78429 -0.13208,-2.41993 -0.9304,-4.20752 -0.79831,-1.78759 -2.411,-3.63137 -5.18549,-5.087292 -0.0136,-0.003 -0.0273,-0.007 -0.041,-0.01 -0.45444,-0.24362 -0.9056,-0.45367 -1.34496,-0.64895 -0.004,-0.002 -0.008,-0.004 -0.0122,-0.006 -1.62005,-0.70662 -3.46219,-1.34722 -5.24523,-1.54694 l 0.13617,0.0157 c -0.0484,-0.0109 -0.12853,-0.0176 -0.17717,-0.0283 -0.016,-0.002 -0.0316,-0.011 -0.0476,-0.0127 -0.0201,-0.002 -0.0401,-0.003 -0.0602,-0.004 -5.32054,-1.16972 -12.23018,-1.93184 -19.64961,-2.98505 -0.49722,-2.00842 -0.76628,-5.14517 -1.31241,-5.88279 -0.8936,1.6214 -3.06082,1.99408 -3.91642,-0.0724 -0.72012,0.81088 -0.13663,4.19981 0.0788,5.18083 z m -27.50733,0.55682 c 0.17395,0.85821 0.70148,1.64416 1.39863,2.34117 0.91992,0.91974 2.18865,1.7634 3.73017,2.59123 3.08305,1.655642 7.27711,3.223342 11.88605,4.644372 9.21787,2.84207 20.0491,5.07214 26.57896,5.86886 6.11534,0.75216 10.63719,0.79159 13.72405,0.0663 1.54343,-0.36265 2.76085,-0.91707 3.59097,-1.80004 0.80882,-0.86033 1.14137,-2.05439 0.96785,-3.25587 1.10505,1.69761 1.11759,3.35732 1.27613,4.55629 0.69653,5.31303 -1.47404,8.32598 0.79372,13.34744 1.32826,2.94808 3.62843,9.05489 3.66083,12.27835 0,6.18773 -4.87572,9.39503 -6.10678,6.54413 -1.23107,-2.85089 -0.63174,-8.92531 -1.31207,-12.7805 -0.66413,-3.7256 -2.36496,-4.37355 -2.72132,-4.68132 -2.73751,-2.26776 -5.08628,-0.25915 -5.23207,4.9243 -0.22678,8.4717 4.71372,18.72531 3.54744,23.40661 -1.13388,4.51932 -5.23207,2.9643 -5.23207,2.9643 -0.38876,2.64032 3.90378,16.06878 -1.55504,19.6486 -1.23106,0.80991 -4.40596,1.36064 -6.05818,-2.70513 -1.45784,-3.57981 0.27537,-13.67146 0.59934,-24.23273 0.27537,-9.00624 -1.50645,-22.12694 -1.50645,-22.12694 -0.22678,-1.26347 -4.92431,-0.95574 -8.61752,-8.45554 -0.82611,-1.66842 -3.64464,-0.55074 -5.32926,0.22678 -1.66842,0.77752 -3.22348,1.87901 -5.02149,2.31636 -3.22345,0.77752 -6.8843,-0.98811 -8.26115,-4.00099 -0.87471,-1.92759 -0.89092,-4.16299 -1.91141,-6.00959 -1.11768,-2.00858 -3.43406,-3.28826 -5.73421,-3.14248 -0.38876,0.0162 -0.82612,0.0972 -1.0691,0.40496 -0.21057,0.27537 -0.24297,0.64793 -0.25917,0.9881 -0.61554,14.36786 2.55934,27.76404 2.34876,42.1481 -0.0324,1.9114 -0.56695,4.82712 -2.9319,6.07439 -0.87471,0.45355 -1.94381,0.42115 -2.8995,0.16198 -3.7418,-1.00429 -6.09058,-5.00531 -6.30116,-8.8767 -0.22678,-3.87139 1.24728,-7.61324 2.86711,-11.14446 -2.93189,-1.16628 -4.63273,-4.74613 -3.69323,-7.75901 0.45356,-1.45785 1.42546,-2.68894 2.15438,-4.03339 2.7861,-5.07006 2.18678,-11.24168 1.61984,-17.00827 -0.45738,-4.65222 -0.75526,-10.451622 1.00885,-13.489682 z"
   sodipodi:nodetypes="ccccccccccccccccccccscccssccccscccsssccsscccccccccccccccccccccccccccccccccccccccccccsccscccccccsccccccccccccccssscssccccsccccccccccccccccccccccccsc" /></svg>
