<?xml version="1.0" encoding="UTF-8" standalone="no"?>
<svg
   version="1.1"
   id="Layer_3"
   x="0px"
   y="0px"
   width="283.46px"
   height="283.46px"
   viewBox="0 0 283.46 283.46"
   enable-background="new 0 0 283.46 283.46"
   xml:space="preserve"
   sodipodi:docname="case.svg"
   inkscape:version="1.2.2 (b0a8486541, 2022-12-01)"
   xmlns:inkscape="http://www.inkscape.org/namespaces/inkscape"
   xmlns:sodipodi="http://sodipodi.sourceforge.net/DTD/sodipodi-0.dtd"
   xmlns="http://www.w3.org/2000/svg"
   xmlns:svg="http://www.w3.org/2000/svg"><defs
   id="defs15" /><sodipodi:namedview
   id="namedview13"
   pagecolor="#ffffff"
   bordercolor="#000000"
   borderopacity="0.25"
   inkscape:showpageshadow="2"
   inkscape:pageopacity="0.0"
   inkscape:pagecheckerboard="0"
   inkscape:deskcolor="#d1d1d1"
   showgrid="false"
   inkscape:zoom="0.52385673"
   inkscape:cx="12.407973"
   inkscape:cy="339.78756"
   inkscape:window-width="1920"
   inkscape:window-height="1015"
   inkscape:window-x="0"
   inkscape:window-y="0"
   inkscape:window-maximized="1"
   inkscape:current-layer="Layer_3" />

<g
   style="fill:#000000"
   id="g245"
   transform="matrix(8,0,0,8,-973.41181,-218.02605)" /><path
   id="path233"
   style="fill:#000000;stroke-width:4.50322"
   d="M 106.15442,7.0834952 A 27.019343,27.019343 0 0 0 79.135076,34.102838 v 13.509671 a 4.2330303,4.2330303 0 0 0 4.50322,4.503224 H 101.6512 a 4.2330303,4.2330303 0 0 0 4.50322,-4.503224 V 34.102838 h 71.15116 v 13.509671 a 4.2330303,4.2330303 0 0 0 4.50322,4.503224 h 18.0129 a 4.2330303,4.2330303 0 0 0 4.50322,-4.503224 V 34.102838 A 27.019343,27.019343 0 0 0 177.30558,7.0834952 Z M 34.102836,79.135075 A 27.019343,27.019343 0 0 0 7.0834957,106.15442 V 249.35716 A 27.019343,27.019343 0 0 0 34.102836,276.3765 H 249.35716 A 27.019343,27.019343 0 0 0 276.3765,249.35716 V 106.15442 A 27.694826,27.694826 0 0 0 249.35716,79.135075 Z" /></svg>
