<?xml version="1.0" encoding="UTF-8" standalone="no"?>
<!-- Generator: Adobe Illustrator 15.1.0, SVG Export Plug-In . SVG Version: 6.00 Build 0)  -->

<svg
   version="1.1"
   id="Layer_1"
   x="0px"
   y="0px"
   width="283.465px"
   height="283.465px"
   viewBox="0 0 283.465 283.465"
   enable-background="new 0 0 283.465 283.465"
   xml:space="preserve"
   sodipodi:docname="cdn.svg"
   inkscape:version="1.2.2 (b0a8486541, 2022-12-01)"
   xmlns:inkscape="http://www.inkscape.org/namespaces/inkscape"
   xmlns:sodipodi="http://sodipodi.sourceforge.net/DTD/sodipodi-0.dtd"
   xmlns="http://www.w3.org/2000/svg"
   xmlns:svg="http://www.w3.org/2000/svg"><defs
   id="defs314"><marker
     id="DistanceX"
     orient="auto"
     refX="0.0"
     refY="0.0"
     style="overflow:visible"><path
       d="M 3,-3 L -3,3 M 0,-5 L  0,5"
       style="stroke:#000000; stroke-width:0.5"
       id="path2973" /></marker><pattern
     id="Hatch"
     patternUnits="userSpaceOnUse"
     width="8"
     height="8"
     x="0"
     y="0"><path
       d="M8 4 l-4,4"
       stroke="#000000"
       stroke-width="0.25"
       linecap="square"
       id="path2976" /><path
       d="M6 2 l-4,4"
       stroke="#000000"
       stroke-width="0.25"
       linecap="square"
       id="path2978" /><path
       d="M4 0 l-4,4"
       stroke="#000000"
       stroke-width="0.25"
       linecap="square"
       id="path2980" /></pattern><symbol
     id="*MODEL_SPACE" /><symbol
     id="*PAPER_SPACE" /><symbol
     id="*D0"><path
       style="fill:none;stroke:#000000;stroke-linecap:round"
       d="M 133.733 560.801 L 115.633 560.801"
       id="path2985" /><path
       style="fill:none;stroke:#000000;stroke-linecap:round"
       d="M 133.733 610.369 L 115.633 610.369"
       id="path2987" /><path
       style="fill:none;stroke:#000000;stroke-linecap:round"
       d="M 116.314 561.481 L 116.314 584.905"
       id="path2989" /><path
       style="fill:none;stroke:#000000;stroke-linecap:round"
       d="M 116.314 609.688 L 116.314 586.265"
       id="path2991" /><path
       style="fill:none;stroke:#000000;stroke-linecap:round"
       d="M 116.2 561.481 L 116.427 561.481 L 116.314 560.801 z"
       id="path2993" /><path
       style="fill:none;stroke:#000000;stroke-linecap:round"
       d="M 116.2 609.688 L 116.427 609.688 L 116.314 610.369 z"
       id="path2995" /><text
       x="116.313628"
       y="585.584925"
       style="font-size: 0.680px; fill: #000000; font-family: Arial; text-anchor: middle"
       id="text2999"><tspan
         sodipodi:role="line"
         dx="0.000000"
         dy="0.340157"
         dominant-baseline="central"
         id="tspan2997">13.1148</tspan></text><path
       d="M 134.219508,560.801113 A 0.250000,0.250000 0.000000 0, 0 133.719508,560.801113 A 0.250000,0.250000 0.000000 0, 0 134.219508,560.801113 z"
       style="fill:none;stroke:#000000;stroke-linecap: round"
       id="path3001" /><path
       d="M 134.219508,610.368737 A 0.250000,0.250000 0.000000 0, 0 133.719508,610.368737 A 0.250000,0.250000 0.000000 0, 0 134.219508,610.368737 z"
       style="fill:none;stroke:#000000;stroke-linecap: round"
       id="path3003" /><path
       d="M 116.563628,610.368737 A 0.250000,0.250000 0.000000 0, 0 116.063628,610.368737 A 0.250000,0.250000 0.000000 0, 0 116.563628,610.368737 z"
       style="fill:none;stroke:#000000;stroke-linecap: round"
       id="path3005" /></symbol></defs><sodipodi:namedview
   id="namedview312"
   pagecolor="#ffffff"
   bordercolor="#000000"
   borderopacity="0.25"
   inkscape:showpageshadow="2"
   inkscape:pageopacity="0.0"
   inkscape:pagecheckerboard="0"
   inkscape:deskcolor="#d1d1d1"
   showgrid="false"
   inkscape:zoom="1.4816644"
   inkscape:cx="-13.835792"
   inkscape:cy="117.4355"
   inkscape:window-width="1920"
   inkscape:window-height="1015"
   inkscape:window-x="0"
   inkscape:window-y="0"
   inkscape:window-maximized="1"
   inkscape:current-layer="Layer_1" />

<path
   id="path7253"
   style="color:#000000;display:inline;fill:#000000;stroke-width:23.452;stroke-linecap:round;stroke-linejoin:round;-inkscape-stroke:none"
   d="m 141.7325,7.0860001 c -27.09077,-2e-7 -52.341407,8.0509269 -73.487845,21.8817799 2.729966,1.189432 5.286185,2.703067 7.623686,4.490362 C 95.07529,21.73082 117.62914,14.967119 141.7325,14.967119 c 36.07932,0 68.68607,15.153107 91.79316,39.427657 4.94085,0.386134 9.60836,1.754379 13.80942,3.912978 C 222.6498,27.129799 184.48181,7.0860001 141.7325,7.0860001 Z m 22.58053,13.8204589 c 15.42663,8.342812 28.69253,24.991961 37.96949,46.841719 6.23856,-7.625348 15.48484,-12.69226 25.90876,-13.3865 A 122.92404,122.92404 0 0 0 164.31303,20.906459 Z m -45.23644,0.04597 A 122.92404,122.92404 0 0 0 78.966731,36.113377 c 4.60405,4.405087 8.062638,9.993304 9.885413,16.273425 C 97.203507,38.127539 107.53491,27.21576 119.07659,20.952429 Z m 18.81465,1.897646 c -19.14163,1.935694 -36.1549,18.246195 -47.67838,42.93794 -0.156138,2.739004 -0.508704,5.420922 -1.024212,8.039256 14.918202,-4.01643 31.378182,-6.37893 48.702592,-6.68406 z m 7.68253,0 v 44.293136 c 18.37892,0.323727 35.78681,2.961097 51.41115,7.434289 -11.39264,-29.565528 -30.0817,-49.57035 -51.41115,-51.727425 z m -91.914515,5.729717 c -18.779515,0 -34.003184,15.223728 -34.003184,34.003182 0,34.326432 34.003184,61.166016 34.003184,61.166016 0,0 34.00318,-26.839584 34.00318,-61.166016 0,-18.779454 -15.223679,-34.003182 -34.00318,-34.003182 z m 0.0037,11.124771 c 12.602492,0 22.87106,10.279597 22.87106,22.882092 0,12.602467 -10.268568,22.871055 -22.87106,22.871055 -12.602482,0 -22.880251,-10.268588 -22.880251,-22.871055 0,-12.602495 10.277769,-22.882092 22.880251,-22.882092 z M 230.6516,56.917617 c -18.77944,0 -34.00318,15.223758 -34.00318,34.003185 0,34.326298 34.00318,61.164178 34.00318,61.164178 0,0 34.00502,-26.83788 34.00502,-61.164178 0,-18.779427 -15.22554,-34.003185 -34.00502,-34.003185 z m 0,13.767134 A 20.234768,20.234768 0 0 1 250.88765,90.920802 20.234768,20.234768 0 0 1 230.6516,111.15501 20.234768,20.234768 0 0 1 210.41739,90.920802 20.234768,20.234768 0 0 1 230.6516,70.684751 Z m -92.76036,4.142825 c -18.33678,0.328407 -35.63737,2.998958 -50.990068,7.494973 -1.934297,5.672719 -4.547032,10.950628 -7.445322,15.73833 -2.757296,12.399641 -4.377188,25.812211 -4.628274,39.830361 h 63.063664 z m 7.68253,0 v 63.063664 h 63.06182 c -0.0359,-2.01205 -0.10685,-4.00865 -0.19859,-5.9945 -7.61658,-10.87937 -14.43279,-25.05889 -14.43279,-40.972261 0,-3.10739 0.39218,-6.124892 1.12351,-9.008309 -14.99353,-4.246968 -31.78462,-6.770339 -49.55395,-7.088594 z M 20.625121,82.931192 C 11.95542,100.70905 7.0859999,120.66419 7.086,141.7325 c 0,74.22538 60.421123,134.64651 134.6465,134.6465 74.22538,0 134.6465,-60.42112 134.6465,-134.6465 10e-6,-17.16347 -3.23738,-33.58622 -9.12231,-48.697076 -0.21576,5.717954 -1.29051,11.199296 -2.94392,16.367216 2.72573,10.32563 4.18512,21.15985 4.18512,32.32986 0,69.89679 -56.8686,126.76539 -126.76539,126.76539 -69.89673,0 -126.765381,-56.8686 -126.765381,-126.76539 0,-17.38466 3.518563,-33.96296 9.879899,-49.061157 -1.589644,-3.090229 -3.028142,-6.341069 -4.221897,-9.740151 z m 6.638087,14.116504 A 122.92404,122.92404 0 0 0 20.95059,119.0821 c 2.802402,-5.1658 6.536729,-10.08931 11.084317,-14.70125 -1.641559,-2.29664 -3.248972,-4.74453 -4.771699,-7.333154 z m 9.331935,13.279854 C 28.713,118.63348 23.852742,127.9761 22.850075,137.89124 h 44.293136 c 0.155367,-8.82105 0.845134,-17.41715 2.013494,-25.70098 -7.382916,8.59897 -13.862753,13.63474 -13.862753,13.63474 l -1.63102,1.28901 -1.640214,-1.28901 c 0,0 -7.420237,-5.76662 -15.427575,-15.49745 z m 225.299597,5.52929 c -0.17262,0.40322 -0.34543,0.80592 -0.52406,1.20442 0.41558,0.69622 0.80849,1.39818 1.18971,2.10359 a 122.92404,122.92404 0 0 0 -0.66565,-3.30801 z m -4.75331,9.38894 c -2.75198,4.6985 -5.79808,8.94412 -8.78949,12.64546 h 12.26299 c -0.43877,-4.33855 -1.62802,-8.56474 -3.4735,-12.64546 z M 22.850075,145.57377 c 2.157074,21.32942 22.158309,40.01673 51.725587,51.40931 -4.472743,-15.62377 -7.108771,-33.03128 -7.432451,-51.40931 z m 51.977501,0 c 0.353676,19.74667 3.422175,38.2929 8.56332,54.49666 2.007863,0.63705 4.051126,1.24269 6.128737,1.8149 -0.871179,-4.00446 -1.369912,-8.16397 -1.369912,-12.45054 0,-20.20668 16.436959,-36.64371 36.643709,-36.64371 4.6142,0 9.02763,0.86577 13.09781,2.42906 v -9.64637 z m 70.746194,0 v 13.70277 c 9.57371,6.61705 15.86337,17.66399 15.86337,30.15825 0,6.5208 -1.14872,12.7483 -3.023,18.57928 14.9491,-1.18318 29.01532,-3.93149 41.65629,-7.9418 5.1415,-16.20423 8.21145,-34.75101 8.56516,-54.4985 z m 70.74619,0 c -0.32368,18.3789 -2.9611,35.78682 -7.4343,51.41115 29.56936,-11.39237 49.572,-30.08088 51.72927,-51.41115 h -19.05186 c -5.28306,5.48526 -9.27493,8.58906 -9.27493,8.58906 a 2.6410823,2.6410823 0 0 1 -3.2694,0 c 0,0 -3.99335,-3.10333 -9.27677,-8.58906 z m -91.52653,9.85599 c -18.77957,0 -34.003185,15.22367 -34.003185,34.00319 0,34.32657 34.003185,61.16601 34.003185,61.16601 0,0 34.00318,-26.8395 34.00318,-61.16601 0,-18.77958 -15.22361,-34.00319 -34.00318,-34.00319 z m 137.76696,8.8704 c -9.53346,17.64297 -29.92367,32.46417 -56.53774,41.72249 -9.25833,26.61406 -24.07952,47.00428 -41.72249,56.53774 a 122.92404,122.92404 0 0 0 98.26023,-98.26023 z m -241.607961,0.0883 A 122.92404,122.92404 0 0 0 119.0821,262.51445 C 101.47442,252.96186 86.684419,232.59434 77.440523,206.02081 50.872006,196.77791 30.506015,181.9917 20.952429,164.38842 Z m 103.841001,2.16428 c 12.60252,0 22.87106,10.27956 22.87106,22.88209 0,12.60252 -10.26854,22.87105 -22.87106,22.87105 -12.60252,0 -22.87106,-10.26853 -22.87106,-22.87105 0,-12.60253 10.26854,-22.88209 22.87106,-22.88209 z m -38.315184,42.33292 c 11.392728,29.56675 30.081714,49.57203 51.412994,51.72927 v -18.86246 c -6.32802,6.93251 -11.45759,10.92066 -11.45759,10.92066 l -1.64022,1.289 -1.64021,-1.289 c 0,0 -22.10463,-17.16083 -31.180624,-42.3109 -1.854134,-0.46765 -3.686697,-0.95902 -5.49435,-1.47657 z m 110.506674,0 c -12.83079,3.67342 -26.86441,6.10809 -41.65078,7.04079 -2.775,6.11026 -6.2164,11.66286 -9.76037,16.48305 v 28.20543 c 21.32992,-2.15724 40.01857,-22.16252 51.41115,-51.72927 z" /></svg>
