<?xml version="1.0" encoding="UTF-8" standalone="no"?>
<!-- Generator: Adobe Illustrator 15.1.0, SVG Export Plug-In . SVG Version: 6.00 Build 0)  -->

<svg
   version="1.1"
   id="Layer_3"
   x="0px"
   y="0px"
   width="283.46px"
   height="283.46px"
   viewBox="0 0 283.46 283.46"
   enable-background="new 0 0 283.46 283.46"
   xml:space="preserve"
   sodipodi:docname="chart-pie-alt.svg"
   inkscape:version="1.2.2 (b0a8486541, 2022-12-01)"
   xmlns:inkscape="http://www.inkscape.org/namespaces/inkscape"
   xmlns:sodipodi="http://sodipodi.sourceforge.net/DTD/sodipodi-0.dtd"
   xmlns="http://www.w3.org/2000/svg"
   xmlns:svg="http://www.w3.org/2000/svg"><defs
   id="defs1171" /><sodipodi:namedview
   id="namedview1169"
   pagecolor="#ffffff"
   bordercolor="#000000"
   borderopacity="0.25"
   inkscape:showpageshadow="2"
   inkscape:pageopacity="0.0"
   inkscape:pagecheckerboard="0"
   inkscape:deskcolor="#d1d1d1"
   showgrid="false"
   inkscape:zoom="1.4816906"
   inkscape:cx="132.28133"
   inkscape:cy="15.522809"
   inkscape:window-width="1920"
   inkscape:window-height="1015"
   inkscape:window-x="0"
   inkscape:window-y="0"
   inkscape:window-maximized="1"
   inkscape:current-layer="Layer_3" />

<path
   id="path5705"
   style="color:#000000;fill:#000000;stroke:none;stroke-width:6.99997;stroke-linecap:round;stroke-linejoin:round;-inkscape-stroke:none"
   d="m 133.31495,27.416964 c -67.820889,0 -122.729992,54.907153 -122.729992,122.728036 0,67.82089 54.909103,122.72999 122.729992,122.72999 32.69172,0 62.17553,-12.96841 84.16959,-33.79283 -2.26733,-2.42857 -18.33868,-19.63989 -37.15415,-39.75962 -10.04907,-10.74565 -20.22454,-21.61863 -28.14637,-30.06238 -7.92185,-8.44375 -13.79787,-14.66777 -14.54682,-15.41595 -4.00244,-4.00244 -3.61523,-9.53317 -3.61523,-9.53317 a 3.5003364,3.5003364 0 0 1 0,-0.0332 V 28.123993 c 0,-0.440773 -0.26626,-0.707029 -0.70702,-0.707029 z m 16.83001,-16.831966 c -0.44079,0 -0.70508,0.266256 -0.70508,0.707029 V 133.31499 c 0,0.44079 0.26433,0.70702 0.70508,0.70702 h 122.02296 c 0.44079,0 0.70703,-0.26626 0.70703,-0.70702 0,-67.820889 -54.9091,-122.729992 -122.72999,-122.729992 z m 8.96676,138.854922 c -0.044,0.006 -0.23154,0.021 -0.67383,0.0723 -0.0588,0.01 -0.0877,0.0135 -0.12694,0.0194 -0.0383,0.0265 -0.0412,0.029 -0.11134,0.0801 -0.007,0.006 0.007,0.002 0,0.008 -0.1322,0.10014 -0.14499,0.10498 -0.19725,0.14062 -0.0172,0.0679 -0.006,0.0328 -0.0408,0.16406 a 3.5003364,3.5003364 0 0 1 -0.008,0.0156 c -0.0231,0.0843 -0.0215,0.0873 -0.0353,0.14647 0.009,0.0563 0.005,0.0273 0.0177,0.0996 a 3.5003364,3.5003364 0 0 0 0,0.002 3.5003364,3.5003364 0 0 0 0,0.002 3.5003364,3.5003364 0 0 0 0,0.002 3.5003364,3.5003364 0 0 0 0,0.002 3.5003364,3.5003364 0 0 0 0,0.002 3.5003364,3.5003364 0 0 0 0,0.002 3.5003364,3.5003364 0 0 0 0,0.002 3.5003364,3.5003364 0 0 0 0,0.002 3.5003364,3.5003364 0 0 0 0,0.002 3.5003364,3.5003364 0 0 0 0,0.002 3.5003364,3.5003364 0 0 0 0,0.002 3.5003364,3.5003364 0 0 0 0,0.002 3.5003364,3.5003364 0 0 0 0,0.002 3.5003364,3.5003364 0 0 0 0,0.002 3.5003364,3.5003364 0 0 0 0,0.002 3.5003364,3.5003364 0 0 0 0,0.002 3.5003364,3.5003364 0 0 0 0,0.002 3.5003364,3.5003364 0 0 0 0,0.002 3.5003364,3.5003364 0 0 0 0,0.002 3.5003364,3.5003364 0 0 0 0,0.002 3.5003364,3.5003364 0 0 0 0,0.002 c 0.0206,0.12644 0.0248,0.13132 0.0391,0.20315 0.0278,0.037 0.0261,0.037 0.0762,0.10157 a 3.5003364,3.5003364 0 0 1 0.0408,0.0586 c 0.12421,0.16562 0.20496,0.26681 0.27733,0.3574 l 80.83585,83.22042 c 20.74607,-21.97988 33.66979,-51.40071 33.66979,-84.02311 0,-0.44079 -0.26626,-0.70508 -0.70703,-0.70508 z m -1.94726,0.54883 a 3.5003364,3.5003364 0 0 1 0.45899,0.33788 c 0.004,-0.005 0.006,-0.0105 0.01,-0.0156 -0.21484,-0.14424 -0.47003,-0.3229 -0.46874,-0.32227 z m 0.45899,0.33788 a 3.5003364,3.5003364 0 0 1 0.20508,0.14844 3.5003364,3.5003364 0 0 1 0.16405,0.12304 c -0.001,-0.004 -0.006,-0.0164 -0.008,-0.0215 -0.0156,-0.0185 -0.0286,-0.0353 -0.0566,-0.0606 -0.0193,-0.0172 -0.0672,-0.0421 -0.0996,-0.0664 -0.0629,-0.0472 -0.10065,-0.0724 -0.18749,-0.13086 -0.003,0.004 -0.0147,0.004 -0.0177,0.008 z m 0.38281,0.27345 c 3e-4,0.001 0.002,0.008 0.002,0.01 a 3.5003364,3.5003364 0 0 1 0.0274,0.0215 c -0.0109,-0.0109 -0.021,-0.0215 -0.0294,-0.0311 z m 0.10351,0.10549 a 3.5003364,3.5003364 0 0 1 0.37696,0.45898 c 0,0 -0.10632,-0.16506 -0.2461,-0.32811 -0.029,-0.0337 -0.0921,-0.0892 -0.13086,-0.13086 z" /></svg>
