<?xml version="1.0" encoding="UTF-8" standalone="no"?>
<!-- Generator: Adobe Illustrator 15.1.0, SVG Export Plug-In . SVG Version: 6.00 Build 0)  -->

<svg
   width="283.45999"
   height="283.45999"
   viewBox="0 0 283.45999 283.45999"
   fill="none"
   version="1.1"
   id="svg1607"
   sodipodi:docname="360 (copy 1).svg"
   inkscape:version="1.2.2 (b0a8486541, 2022-12-01)"
   xmlns:inkscape="http://www.inkscape.org/namespaces/inkscape"
   xmlns:sodipodi="http://sodipodi.sourceforge.net/DTD/sodipodi-0.dtd"
   xmlns="http://www.w3.org/2000/svg"
   xmlns:svg="http://www.w3.org/2000/svg">
  <defs
     id="defs4377" />
  <sodipodi:namedview
     id="namedview1609"
     pagecolor="#ffffff"
     bordercolor="#000000"
     borderopacity="0.25"
     inkscape:showpageshadow="2"
     inkscape:pageopacity="0.0"
     inkscape:pagecheckerboard="0"
     inkscape:deskcolor="#d1d1d1"
     showgrid="false"
     inkscape:zoom="0.92807765"
     inkscape:cx="-37.173614"
     inkscape:cy="179.94184"
     inkscape:window-width="1920"
     inkscape:window-height="1015"
     inkscape:window-x="0"
     inkscape:window-y="0"
     inkscape:window-maximized="1"
     inkscape:current-layer="svg1607" />
  <g
     id="g4374"
     transform="translate(6.5214949,6.5527457)">
    <path
       d="m 167.21702,21.861366 c -4.00969,-0.888755 -8.02081,-1.333133 -12.47681,-1.77751 V 10.75193 c 0,-5.3325285 -4.456,-9.77630259 -9.80321,-10.22068 0,0 0,0 -0.44631,0 C 74.977752,0.97562741 15.26731,50.30152 2.7905016,118.73564 1.4537006,127.17881 0.5625,136.06636 0.5625,144.50882 c 0,5.33253 4.4560031,10.22139 10.248807,10.22139 h 9.357607 c 4.456003,55.99156 45.896832,102.65047 102.042476,112.87186 7.5752,1.33243 15.15112,2.22118 22.72561,2.22118 24.95362,0 49.90724,-7.5537 70.84974,-22.21887 27.62722,-19.10752 45.89754,-47.54767 52.13595,-80.4316 C 279.95461,99.183035 234.50338,34.303933 167.21702,21.861366 Z M 22.842516,122.29066 C 33.091323,66.743484 78.988155,25.416385 134.68819,20.972611 V 134.73323 H 29.972121 21.060114 c 0.445601,-3.9994 0.891201,-8.44317 1.782402,-12.44257 z m 225.027444,41.3271 c -4.90089,27.5514 -20.49619,51.54778 -43.6674,67.54537 -23.17122,15.99758 -50.79844,22.21887 -78.42637,16.88634 C 78.988155,239.60559 44.676931,201.38913 40.220928,154.73021 H 144.49069 c 5.3472,0 10.24952,-4.44377 10.24952,-10.22139 V 40.525217 c 3.11991,0.444377 5.79209,0.444377 8.46712,1.333132 57.03684,10.220681 94.91215,64.879101 84.66263,121.759411 z"
       id="path1598"
       style="fill:#000000;fill-opacity:1;stroke-width:14.2396" />
  </g>
</svg>
