<?xml version="1.0" encoding="UTF-8" standalone="no"?>
<svg
   width="283.45999"
   height="283.45999"
   viewBox="0 0 283.45999 283.45999"
   fill="none"
   version="1.1"
   id="svg12"
   sodipodi:docname="chat-bubble-alt-3.svg"
   inkscape:version="1.2.2 (b0a8486541, 2022-12-01)"
   xmlns:inkscape="http://www.inkscape.org/namespaces/inkscape"
   xmlns:sodipodi="http://sodipodi.sourceforge.net/DTD/sodipodi-0.dtd"
   xmlns="http://www.w3.org/2000/svg"
   xmlns:svg="http://www.w3.org/2000/svg">
  <defs
     id="defs16" />
  <sodipodi:namedview
     id="namedview14"
     pagecolor="#ffffff"
     bordercolor="#000000"
     borderopacity="0.25"
     inkscape:showpageshadow="2"
     inkscape:pageopacity="0.0"
     inkscape:pagecheckerboard="0"
     inkscape:deskcolor="#d1d1d1"
     showgrid="false"
     inkscape:zoom="0.92807765"
     inkscape:cx="37.173614"
     inkscape:cy="179.94184"
     inkscape:window-width="1920"
     inkscape:window-height="1015"
     inkscape:window-x="0"
     inkscape:window-y="0"
     inkscape:window-maximized="1"
     inkscape:current-layer="g885" />
  <g
     id="g885"
     transform="matrix(14.365981,0,0,14.365981,-1.8789591,-1.9648867)">
    <path
       id="path6413"
       style="fill:#000000;stroke-width:8.03254;stroke-linecap:round;stroke-linejoin:round"
       d="M 143.25391 7.0839845 C 138.29452 7.0769695 133.30697 7.3509425 128.3125 7.9121095 C 65.910717 14.197198 16.526931 64.029581 9.7929688 125.98242 C 7.0993662 154.71475 12.936852 182.54857 27.302735 206.79102 L 9.3457032 253.48047 C 6.6521006 259.76552 8.4468254 267.39742 13.833984 271.88672 C 16.976522 274.58034 21.016237 276.37696 25.056641 276.37696 C 27.750242 276.37696 29.995853 275.92761 32.689453 274.58008 L 73.542969 253.92969 C 98.234331 268.74519 126.06765 275.02956 155.24805 272.33594 C 218.09879 266.49911 268.38091 216.66759 274.66602 153.36719 C 278.7071 113.41223 264.7884 74.355095 236.05664 46.072266 C 211.30983 20.931974 177.96936 7.1330891 143.25391 7.0839845 z M 74.736329 103.44922 L 208.72266 103.44922 C 214.00552 103.44922 218.29297 107.73667 218.29297 113.01953 C 218.29297 118.31198 214.00552 122.58984 208.72266 122.58984 L 74.736329 122.58984 C 69.453459 122.58984 65.166016 118.31198 65.166016 113.01953 C 65.166016 107.73667 69.453459 103.44922 74.736329 103.44922 z M 93.876954 160.8711 L 189.58203 160.8711 C 194.86491 160.8711 199.15235 165.14896 199.15235 170.44141 C 199.15235 175.73385 194.86491 180.01172 189.58203 180.01172 L 93.876954 180.01172 C 88.594079 180.01172 84.306641 175.73385 84.306641 170.44141 C 84.306641 165.14896 88.594079 160.8711 93.876954 160.8711 z "
       transform="matrix(0.06960889,0,0,0.06960889,0.13079226,0.13677358)" />
  </g>
</svg>
