<?xml version="1.0" encoding="UTF-8" standalone="no"?>
<svg
   width="283.45999"
   height="283.45999"
   viewBox="0 0 283.45999 283.45999"
   fill="none"
   version="1.1"
   id="svg12"
   sodipodi:docname="chat-bubble-alt-2.svg"
   inkscape:version="1.2.2 (b0a8486541, 2022-12-01)"
   xmlns:inkscape="http://www.inkscape.org/namespaces/inkscape"
   xmlns:sodipodi="http://sodipodi.sourceforge.net/DTD/sodipodi-0.dtd"
   xmlns="http://www.w3.org/2000/svg"
   xmlns:svg="http://www.w3.org/2000/svg">
  <defs
     id="defs16" />
  <sodipodi:namedview
     id="namedview14"
     pagecolor="#ffffff"
     bordercolor="#000000"
     borderopacity="0.25"
     inkscape:showpageshadow="2"
     inkscape:pageopacity="0.0"
     inkscape:pagecheckerboard="0"
     inkscape:deskcolor="#d1d1d1"
     showgrid="false"
     inkscape:zoom="1.8561553"
     inkscape:cx="39.059232"
     inkscape:cy="120.67956"
     inkscape:window-width="1920"
     inkscape:window-height="1015"
     inkscape:window-x="0"
     inkscape:window-y="0"
     inkscape:window-maximized="1"
     inkscape:current-layer="g885" />
  <g
     id="g885"
     transform="matrix(14.365981,0,0,14.365981,-1.8789591,-1.9648867)">
    <path
       d="M 16.5625,3.34376 C 14.5938,1.34376 11.8438,0.375009 9.06252,0.687509 4.71877,1.12501 1.28127,4.59376 0.812523,8.90626 0.625023,10.9063 1.03127,12.8438 2.03127,14.5313 l -1.249997,3.25 c -0.1875,0.4375 -0.0625,0.9687 0.312497,1.2812 0.21875,0.1875 0.5,0.3125 0.78125,0.3125 0.1875,0 0.34375,-0.0312 0.53125,-0.125 l 2.84375,-1.4375 c 1.71875,1.0313 3.65625,1.4688 5.68748,1.2813 4.375,-0.4063 7.875,-3.875 8.3125,-8.2813 0.2813,-2.78124 -0.6875,-5.49999 -2.6875,-7.46874 z m 1.2813,7.34374 c -0.375,3.7188 -3.3438,6.6563 -7.0625,7 -1.84378,0.1875 -3.59378,-0.2812 -5.12503,-1.2812 -0.125,-0.0938 -0.25,-0.125 -0.375,-0.125 -0.09375,0 -0.21875,0.0312 -0.3125,0.0625 l -2.65625,1.3125 1.15625,-3 c 0.09375,-0.2188 0.0625,-0.4375 -0.0625,-0.625 -0.96875,-1.5 -1.375,-3.25 -1.1875,-5.06254 0.375,-3.59375 3.3125,-6.5 6.96875,-6.875 2.37498,-0.25 4.71878,0.5625 6.37498,2.25 1.6875,1.65625 2.5313,3.96875 2.2813,6.34374 z"
       id="path2"
       style="fill:#000000;fill-opacity:1;stroke:none" />
    <g
       id="g6855"
       transform="matrix(0.3828174,0,0,0.3828174,5.9409857,6.6194224)">
      <path
         d="M 19.294868,12.317606 H 1.8926449 c -0.96060271,0 -1.7402223,0.777879 -1.7402223,1.740222 0,0.962343 0.77961959,1.740222 1.7402223,1.740222 H 19.294868 c 0.960603,0 1.740222,-0.777879 1.740222,-1.740222 0,-0.962343 -0.779619,-1.740222 -1.740222,-1.740222 z"
         id="path6824"
         style="fill:#000000;stroke-width:1.74022" />
      <path
         d="M 22.775312,1.8762718 H -1.5877997 c -0.9606027,0 -1.7402223,0.7796196 -1.7402223,1.7402223 0,0.9623429 0.7796196,1.7402223 1.7402223,1.7402223 H 22.775312 c 0.960603,0 1.740223,-0.7778794 1.740223,-1.7402223 0,-0.9606027 -0.77962,-1.7402223 -1.740223,-1.7402223 z"
         id="path6822"
         style="fill:#000000;stroke-width:1.74022" />
    </g>
  </g>
</svg>
