<?xml version="1.0" encoding="UTF-8" standalone="no"?>
<svg
   width="283.45999"
   height="283.45999"
   viewBox="0 0 283.45999 283.45999"
   fill="none"
   version="1.1"
   id="svg12"
   sodipodi:docname="chat-bubble.svg"
   inkscape:version="1.2.2 (b0a8486541, 2022-12-01)"
   xmlns:inkscape="http://www.inkscape.org/namespaces/inkscape"
   xmlns:sodipodi="http://sodipodi.sourceforge.net/DTD/sodipodi-0.dtd"
   xmlns="http://www.w3.org/2000/svg"
   xmlns:svg="http://www.w3.org/2000/svg">
  <defs
     id="defs16" />
  <sodipodi:namedview
     id="namedview14"
     pagecolor="#ffffff"
     bordercolor="#000000"
     borderopacity="0.25"
     inkscape:showpageshadow="2"
     inkscape:pageopacity="0.0"
     inkscape:pagecheckerboard="0"
     inkscape:deskcolor="#d1d1d1"
     showgrid="false"
     inkscape:zoom="1.8561553"
     inkscape:cx="154.89006"
     inkscape:cy="120.67956"
     inkscape:window-width="1920"
     inkscape:window-height="1015"
     inkscape:window-x="0"
     inkscape:window-y="0"
     inkscape:window-maximized="1"
     inkscape:current-layer="svg12" />
  <g
     id="g885"
     transform="matrix(14.365981,0,0,14.365981,-1.8789591,-1.9648867)">
    <path
       d="M 16.5625,3.34376 C 14.5938,1.34376 11.8438,0.375009 9.06252,0.687509 4.71877,1.12501 1.28127,4.59376 0.812523,8.90626 0.625023,10.9063 1.03127,12.8438 2.03127,14.5313 l -1.249997,3.25 c -0.1875,0.4375 -0.0625,0.9687 0.312497,1.2812 0.21875,0.1875 0.5,0.3125 0.78125,0.3125 0.1875,0 0.34375,-0.0312 0.53125,-0.125 l 2.84375,-1.4375 c 1.71875,1.0313 3.65625,1.4688 5.68748,1.2813 4.375,-0.4063 7.875,-3.875 8.3125,-8.2813 0.2813,-2.78124 -0.6875,-5.49999 -2.6875,-7.46874 z m 1.2813,7.34374 c -0.375,3.7188 -3.3438,6.6563 -7.0625,7 -1.84378,0.1875 -3.59378,-0.2812 -5.12503,-1.2812 -0.125,-0.0938 -0.25,-0.125 -0.375,-0.125 -0.09375,0 -0.21875,0.0312 -0.3125,0.0625 l -2.65625,1.3125 1.15625,-3 c 0.09375,-0.2188 0.0625,-0.4375 -0.0625,-0.625 -0.96875,-1.5 -1.375,-3.25 -1.1875,-5.06254 0.375,-3.59375 3.3125,-6.5 6.96875,-6.875 2.37498,-0.25 4.71878,0.5625 6.37498,2.25 1.6875,1.65625 2.5313,3.96875 2.2813,6.34374 z"
       id="path2"
       style="fill:#000000;fill-opacity:1;stroke:none" />
    <g
       id="path4"
       style="fill:#000000;fill-opacity:1;stroke:none">
      <path
         style="color:#000000;fill:#000000;fill-opacity:1;stroke:none;-inkscape-stroke:none"
         d="M 5.90625,9.3125 C 5.5,9.3125 5.1875,9.625 5.1875,10.0312 5.1875,10.4062 5.5,10.75 5.90625,10.75 6.3125,10.75 6.625,10.4375 6.625,10.0312 6.59375,9.625 6.28125,9.3125 5.90625,9.3125 Z"
         id="path859" />
      <path
         style="color:#000000;fill:#000000;fill-opacity:1;stroke:none;-inkscape-stroke:none"
         d="m 5.90625,8.8125 c -0.6626596,0 -1.21875,0.5561088 -1.21875,1.21875 0,0.652777 0.5304084,1.21875 1.21875,1.21875 0.6626596,0 1.21875,-0.556072 1.21875,-1.21875 V 10.01172 L 7.12305,9.992189 C 7.0737465,9.3513611 6.5590271,8.8125 5.90625,8.8125 Z m 0,1 c 0.088908,0 0.1747221,0.092889 0.2011719,0.236328 C 6.0971656,10.174796 6.0440489,10.25 5.90625,10.25 5.7820924,10.25 5.6875,10.128472 5.6875,10.03125 5.6875,9.881492 5.75641,9.8125 5.90625,9.8125 Z"
         id="path861" />
    </g>
    <g
       id="path6"
       style="fill:#000000;fill-opacity:1;stroke:none">
      <path
         style="color:#000000;fill:#000000;fill-opacity:1;stroke:none;-inkscape-stroke:none"
         d="m 10,9.3125 c -0.40625,0 -0.71875,0.3125 -0.71875,0.7187 0,0.375 0.3125,0.7188 0.71875,0.7188 0.375,0 0.7187,-0.3125 0.7187,-0.7188 C 10.7187,9.625 10.375,9.3125 10,9.3125 Z"
         id="path865" />
      <path
         style="color:#000000;fill:#000000;fill-opacity:1;stroke:none;-inkscape-stroke:none"
         d="m 10,8.8125 c -0.6626596,0 -1.21875,0.5561088 -1.21875,1.21875 0,0.652777 0.5304084,1.21875 1.21875,1.21875 0.652777,0 1.21875,-0.530475 1.21875,-1.21875 C 11.21875,9.3430057 10.652777,8.8125 10,8.8125 Z m 0,1 c 0.09722,0 0.21875,0.094595 0.21875,0.21875 C 10.21875,10.155574 10.097222,10.25 10,10.25 9.8758424,10.25 9.78125,10.128472 9.78125,10.03125 9.78125,9.881492 9.8501604,9.8125 10,9.8125 Z"
         id="path867" />
    </g>
    <g
       id="path8"
       style="fill:#000000;fill-opacity:1;stroke:none">
      <path
         style="color:#000000;fill:#000000;fill-opacity:1;stroke:none;-inkscape-stroke:none"
         d="m 14.0937,9.3125 c -0.4062,0 -0.7187,0.3125 -0.7187,0.7187 0,0.375 0.3125,0.7188 0.7187,0.7188 0.4063,0 0.7188,-0.3125 0.7188,-0.7188 0,-0.4062 -0.3125,-0.7187 -0.7188,-0.7187 z"
         id="path871" />
      <path
         style="color:#000000;fill:#000000;fill-opacity:1;stroke:none;-inkscape-stroke:none"
         d="m 14.09375,8.8125 c -0.662641,0 -1.21875,0.5561088 -1.21875,1.21875 0,0.652777 0.530424,1.21875 1.21875,1.21875 0.662678,0 1.21875,-0.556072 1.21875,-1.21875 0,-0.6626412 -0.556072,-1.21875 -1.21875,-1.21875 z m 0,1 c 0.149921,0 0.21875,0.068992 0.21875,0.21875 0,0.149921 -0.06883,0.21875 -0.21875,0.21875 -0.124073,0 -0.21875,-0.121528 -0.21875,-0.21875 0,-0.149758 0.06899,-0.21875 0.21875,-0.21875 z"
         id="path873" />
    </g>
  </g>
</svg>
