<?xml version="1.0" encoding="UTF-8" standalone="no"?>
<svg
   width="283.45999"
   height="283.45999"
   viewBox="0 0 283.45999 283.45999"
   fill="none"
   version="1.1"
   id="svg12"
   sodipodi:docname="chat-bubble-alt.svg"
   inkscape:version="1.2.2 (b0a8486541, 2022-12-01)"
   xmlns:inkscape="http://www.inkscape.org/namespaces/inkscape"
   xmlns:sodipodi="http://sodipodi.sourceforge.net/DTD/sodipodi-0.dtd"
   xmlns="http://www.w3.org/2000/svg"
   xmlns:svg="http://www.w3.org/2000/svg">
  <defs
     id="defs16" />
  <sodipodi:namedview
     id="namedview14"
     pagecolor="#ffffff"
     bordercolor="#000000"
     borderopacity="0.25"
     inkscape:showpageshadow="2"
     inkscape:pageopacity="0.0"
     inkscape:pagecheckerboard="0"
     inkscape:deskcolor="#d1d1d1"
     showgrid="false"
     inkscape:zoom="1.8561553"
     inkscape:cx="39.59798"
     inkscape:cy="120.67956"
     inkscape:window-width="1920"
     inkscape:window-height="1015"
     inkscape:window-x="0"
     inkscape:window-y="0"
     inkscape:window-maximized="1"
     inkscape:current-layer="g885" />
  <g
     id="g885"
     transform="matrix(14.365981,0,0,14.365981,-1.8789591,-1.9648867)">
    <path
       id="path6413"
       style="fill:#000000;stroke-width:8.03254;stroke-linecap:round;stroke-linejoin:round"
       d="M 143.25391 7.0839845 C 138.29452 7.0769695 133.30697 7.3509407 128.3125 7.9121095 C 65.910525 14.197216 16.526952 64.029386 9.7929688 125.98242 C 7.0993581 154.71484 12.93681 182.54851 27.302735 206.79102 L 9.3457032 253.48047 C 6.6520925 259.76555 8.4468077 267.39739 13.833984 271.88672 C 16.976531 274.58034 21.016225 276.37696 25.056641 276.37696 C 27.750251 276.37696 29.995844 275.92761 32.689453 274.58008 L 73.542969 253.92969 C 98.234403 268.74525 126.06756 275.02956 155.24805 272.33594 C 218.09897 266.49908 268.38091 216.66777 274.66602 153.36719 C 278.70713 113.41211 264.78849 74.355179 236.05664 46.072266 C 211.30974 20.931899 177.96948 7.1330894 143.25391 7.0839845 z M 82.970704 124.63477 C 92.348448 124.63477 99.742886 132.37595 100.45117 141.58203 L 100.47852 141.86328 L 100.47852 142.14453 C 100.47852 151.66451 92.49042 159.65235 82.970704 159.65235 C 73.08204 159.65235 65.460938 151.52227 65.460938 142.14453 C 65.460938 132.62508 73.450985 124.63477 82.970704 124.63477 z M 141.78125 124.63477 C 151.159 124.63477 159.28906 132.25725 159.28906 142.14453 C 159.28906 152.03224 151.159 159.65235 141.78125 159.65235 C 131.89258 159.65235 124.27149 151.52228 124.27149 142.14453 C 124.27149 132.62507 132.26152 124.63477 141.78125 124.63477 z M 200.5918 124.63477 C 210.11179 124.63477 218.09961 132.62506 218.09961 142.14453 C 218.09961 151.66453 210.11179 159.65235 200.5918 159.65235 C 190.70333 159.65235 183.08399 151.52229 183.08399 142.14453 C 183.08399 132.62506 191.07232 124.63477 200.5918 124.63477 z "
       transform="matrix(0.06960889,0,0,0.06960889,0.13079226,0.13677358)" />
  </g>
</svg>
