<?xml version="1.0" encoding="UTF-8" standalone="no"?>
<!-- Generator: Adobe Illustrator 15.1.0, SVG Export Plug-In . SVG Version: 6.00 Build 0)  -->

<svg
   version="1.1"
   id="Layer_3"
   x="0px"
   y="0px"
   width="283.46px"
   height="283.46px"
   viewBox="0 0 283.46 283.46"
   style="enable-background:new 0 0 283.46 283.46;"
   xml:space="preserve"
   sodipodi:docname="clock-alt.svg"
   inkscape:version="1.2.2 (b0a8486541, 2022-12-01)"
   xmlns:inkscape="http://www.inkscape.org/namespaces/inkscape"
   xmlns:sodipodi="http://sodipodi.sourceforge.net/DTD/sodipodi-0.dtd"
   xmlns="http://www.w3.org/2000/svg"
   xmlns:svg="http://www.w3.org/2000/svg"
   xmlns:sketch="http://www.bohemiancoding.com/sketch/ns"><defs
   id="defs9537" /><sodipodi:namedview
   id="namedview9535"
   pagecolor="#ffffff"
   bordercolor="#000000"
   borderopacity="0.25"
   inkscape:showpageshadow="2"
   inkscape:pageopacity="0.0"
   inkscape:pagecheckerboard="0"
   inkscape:deskcolor="#d1d1d1"
   showgrid="false"
   inkscape:zoom="0.37042265"
   inkscape:cx="-843.63093"
   inkscape:cy="56.691998"
   inkscape:window-width="1920"
   inkscape:window-height="1015"
   inkscape:window-x="0"
   inkscape:window-y="0"
   inkscape:window-maximized="1"
   inkscape:current-layer="Layer_3" />

<path
   d="m 225.8837,133.31462 h 16.8308 v 16.83075 h -16.8308 z m -21.375,-44.938108 -11.6469,-11.67212 11.6469,-11.66371 11.6469,11.66371 z m -2.2132,122.292238 -11.8994,-11.89934 11.8994,-11.89934 11.8993,11.89934 z m -52.1501,-68.73679 c 0,4.64529 -3.7617,8.40696 -8.4154,8.40696 H 65.991596 c -4.6537,0 -8.4153,-3.76167 -8.4153,-8.40696 0,-4.64528 3.7616,-8.42379 8.4153,-8.42379 H 133.3146 V 49.160872 c 0,-4.65371 3.7701,-8.41538 8.4154,-8.41538 4.6537,0 8.4154,3.76167 8.4154,8.41538 z m -16.8308,83.95179 h 16.8308 v 16.83075 h -16.8308 z m -57.923004,-14.98779 -11.6469,-11.67212 11.6469,-11.67213 11.6469,11.67213 z m 1.3549,-145.670138 11.8993,11.89934 -11.8993,11.89934 -11.8994,-11.89934 z M 141.73,7.0839922 C 67.363296,7.0839922 7.0839957,67.371742 7.0839957,141.73 c 0,74.36667 60.2793003,134.646 134.6460043,134.646 74.3667,0 134.646,-60.27933 134.646,-134.646 C 276.376,67.371742 216.0967,7.0839922 141.73,7.0839922 Z"
   id="clock"
   sketch:type="MSShapeGroup"
   style="fill:#000000;fill-rule:evenodd;stroke:none;stroke-width:8.41537" /></svg>
