<?xml version="1.0" encoding="UTF-8" standalone="no"?>
<svg
   viewBox="0 0 283.45999 283.45999"
   stroke="currentColor"
   version="1.1"
   id="svg4"
   sodipodi:docname="close.svg"
   width="283.45999"
   height="283.45999"
   inkscape:version="1.2.2 (b0a8486541, 2022-12-01)"
   xmlns:inkscape="http://www.inkscape.org/namespaces/inkscape"
   xmlns:sodipodi="http://sodipodi.sourceforge.net/DTD/sodipodi-0.dtd"
   xmlns="http://www.w3.org/2000/svg"
   xmlns:svg="http://www.w3.org/2000/svg">
  <defs
     id="defs5401" />
  <sodipodi:namedview
     id="namedview5399"
     pagecolor="#ffffff"
     bordercolor="#000000"
     borderopacity="0.25"
     inkscape:showpageshadow="2"
     inkscape:pageopacity="0.0"
     inkscape:pagecheckerboard="0"
     inkscape:deskcolor="#d1d1d1"
     showgrid="false"
     inkscape:zoom="2.9633812"
     inkscape:cx="98.029914"
     inkscape:cy="141.73"
     inkscape:window-width="1920"
     inkscape:window-height="1015"
     inkscape:window-x="0"
     inkscape:window-y="0"
     inkscape:window-maximized="1"
     inkscape:current-layer="svg4" />
  <g
     id="path2"
     style="stroke:none;fill:#000000">
    <g
       id="path5522"
       style="stroke:none" />
    <g
       id="path5524"
       style="stroke:none">
      <path
         id="path5905"
         style="color:#000000;stroke:none;stroke-linecap:round;stroke-linejoin:round;-inkscape-stroke:none"
         d="M 26.361328 6.5839844 C 24.644421 6.5801244 22.913384 6.8016235 21.210938 7.2578125 C 17.865415 8.1547385 14.814278 9.9159103 12.365234 12.365234 C 4.6633638 20.06792 4.6633638 32.570753 12.365234 40.273438 L 113.82031 141.73047 L 12.365234 243.18555 C 4.6620267 250.88846 4.6620267 263.39279 12.365234 271.0957 C 20.06792 278.79758 32.570753 278.79758 40.273438 271.0957 L 141.73047 169.64062 L 243.18555 271.0957 C 250.88846 278.79892 263.39279 278.79892 271.0957 271.0957 C 278.79892 263.39279 278.79892 250.88846 271.0957 243.18555 L 169.64062 141.73047 L 271.0957 40.273438 C 278.79758 32.570753 278.79758 20.06792 271.0957 12.365234 C 263.39279 4.6620267 250.88846 4.6620267 243.18555 12.365234 L 141.73047 113.82031 L 40.273438 12.365234 C 36.534637 8.6263526 31.512051 6.5955791 26.361328 6.5839844 z " />
    </g>
  </g>
</svg>
