<?xml version="1.0" encoding="UTF-8" standalone="no"?>
<!-- Generator: Adobe Illustrator 15.1.0, SVG Export Plug-In . SVG Version: 6.00 Build 0)  -->

<svg
   version="1.1"
   id="Layer_1"
   x="0px"
   y="0px"
   width="283.465px"
   height="283.465px"
   viewBox="0 0 283.465 283.465"
   enable-background="new 0 0 283.465 283.465"
   xml:space="preserve"
   sodipodi:docname="cluster.svg"
   inkscape:version="1.2.2 (b0a8486541, 2022-12-01)"
   xmlns:inkscape="http://www.inkscape.org/namespaces/inkscape"
   xmlns:sodipodi="http://sodipodi.sourceforge.net/DTD/sodipodi-0.dtd"
   xmlns="http://www.w3.org/2000/svg"
   xmlns:svg="http://www.w3.org/2000/svg"><defs
   id="defs314" /><sodipodi:namedview
   id="namedview312"
   pagecolor="#ffffff"
   bordercolor="#000000"
   borderopacity="0.25"
   inkscape:showpageshadow="2"
   inkscape:pageopacity="0.0"
   inkscape:pagecheckerboard="0"
   inkscape:deskcolor="#d1d1d1"
   showgrid="false"
   inkscape:zoom="1.4816644"
   inkscape:cx="74.578292"
   inkscape:cy="159.28033"
   inkscape:window-width="1920"
   inkscape:window-height="1015"
   inkscape:window-x="0"
   inkscape:window-y="0"
   inkscape:window-maximized="1"
   inkscape:current-layer="Layer_1" />

<path
   id="path1631"
   style="stroke-width:16.8277;fill:#000000"
   d="M 175.12695 7.0859375 C 156.53241 7.0859375 141.4707 22.147646 141.4707 40.742188 C 141.4707 53.228305 148.27061 64.131966 158.36719 69.9375 L 153.82227 84.324219 C 150.0024 83.41552 145.62775 82.912109 141.13477 82.912109 C 127.16782 82.912109 114.37873 87.891468 104.43359 96.1875 L 54.052734 45.638672 C 56.425432 41.869286 57.837891 37.274255 57.837891 32.34375 C 57.837891 18.410464 46.530942 7.1035156 32.597656 7.1035156 C 18.66437 7.1035156 7.3554688 18.410464 7.3554688 32.34375 C 7.3554688 46.192906 18.512629 57.451318 32.328125 57.585938 C 37.05669 57.569138 41.481809 56.256103 45.234375 53.984375 L 95.599609 104.53516 C 87.623307 114.42982 82.810547 127.15161 82.810547 141.01758 L 82.810547 141.77539 L 82.810547 144.43359 L 71.705078 146.28516 C 66.438023 134.16926 54.556479 125.85547 40.757812 125.85547 C 22.163271 125.85547 7.1035156 140.91718 7.1035156 159.51172 C 7.1035156 178.10626 22.163271 193.16602 40.757812 193.16602 C 59.352364 193.16602 74.414062 178.10626 74.414062 159.51172 C 74.414062 159.17517 74.413284 158.85413 74.396484 158.51758 L 84.998047 156.88672 C 89.070333 171.07241 97.922281 182.7665 109.66797 190.40625 L 100.31055 210.39844 C 97.601291 209.57389 94.471141 209.08444 91.240234 209.05078 L 90.955078 209.05078 C 72.360537 209.05078 57.298828 224.11248 57.298828 242.70703 C 57.298828 261.30157 72.360537 276.36133 90.955078 276.36133 C 109.54962 276.36133 124.61133 261.30157 124.61133 242.70703 C 124.61133 231.93734 119.54526 222.32884 111.66992 216.16992 L 121.19531 196.76758 C 127.32057 199.22442 134.43718 200.6543 141.875 200.6543 C 156.12801 200.6543 169.15357 195.42164 179.16602 186.78906 L 215.7832 222.53125 C 211.57629 228.08436 209.05078 235.11852 209.05078 242.72461 C 209.05078 261.31916 224.11249 276.37891 242.70703 276.37891 C 261.30157 276.37891 276.36133 261.31916 276.36133 242.72461 C 276.36133 224.13007 261.30157 209.06836 242.70703 209.06836 L 242.67383 209.01758 C 236.41394 209.20268 230.6246 211.0541 225.71094 214.15039 L 188.48828 177.88672 C 195.79147 168.682 200.40292 157.03765 200.94141 144.34961 L 227.35938 141.70703 C 231.14559 151.0632 240.14875 157.54297 250.66602 157.54297 C 264.51516 157.54297 275.74023 146.31791 275.74023 132.46875 C 275.74023 118.6196 264.51516 107.39648 250.66602 107.39648 C 238.06212 107.39648 227.64701 116.68413 225.86328 128.7832 L 199.08984 130.9375 C 195.32046 111.8213 182.71646 96.273167 165.80469 88.515625 L 170.98828 74.396484 L 175.36328 74.396484 C 193.85685 74.261865 208.7832 59.252599 208.7832 40.742188 C 208.7832 22.147646 193.72149 7.0859375 175.12695 7.0859375 z M 141.70703 99.638672 C 164.94601 99.638672 183.77734 118.46805 183.77734 141.70703 C 183.77734 164.946 164.94601 183.77734 141.70703 183.77734 C 118.46806 183.77734 99.638672 164.946 99.638672 141.70703 C 99.638672 118.46805 118.46806 99.638672 141.70703 99.638672 z " /></svg>
