<?xml version="1.0" encoding="utf-8"?>
<!-- Generator: Adobe Illustrator 15.1.0, SVG Export Plug-In . SVG Version: 6.00 Build 0)  -->
<!DOCTYPE svg PUBLIC "-//W3C//DTD SVG 1.1//EN" "http://www.w3.org/Graphics/SVG/1.1/DTD/svg11.dtd">
<svg version="1.1" id="Layer_1" xmlns="http://www.w3.org/2000/svg" xmlns:xlink="http://www.w3.org/1999/xlink" x="0px" y="0px"
	 width="283.465px" height="283.465px" viewBox="0 0 283.465 283.465" enable-background="new 0 0 283.465 283.465"
	 xml:space="preserve">
<g>
	<path d="M87.006,84.442c0.398,0,0.797,0.021,1.195,0.024c0.754,0.006,1.508,0.021,2.26,0.045c0.422,0.015,0.844,0.029,1.266,0.049
		c15.488,0.679,30.115,4.734,43.154,11.455c0.268,0.136,0.531,0.281,0.799,0.421c0.604,0.317,1.205,0.641,1.803,0.97
		c1.465,0.801,2.912,1.626,4.338,2.496c1.416-0.865,2.857-1.688,4.314-2.484c0.619-0.341,1.24-0.675,1.867-1.004
		c0.25-0.13,0.496-0.267,0.746-0.395c13.037-6.721,27.656-10.776,43.143-11.458c0.438-0.021,0.875-0.036,1.314-0.05
		c0.719-0.022,1.439-0.037,2.164-0.045c0.422-0.004,0.842-0.024,1.264-0.024c8.428,0,16.715,1.005,24.785,2.985
		c-3.514-40.842-37.859-73.01-79.598-73.01s-76.082,32.168-79.598,73.01C70.293,85.447,78.578,84.442,87.006,84.442z"/>
	<path d="M242.299,123.664c-7.783,26.604-25.98,49.313-50.568,62.68c0.002,0.09,0.002,0.182,0.004,0.271
		c0.02,0.781,0.029,1.563,0.031,2.344c0,0.057,0.002,0.115,0.002,0.172c0,0.168-0.006,0.334-0.006,0.5
		c-0.006,0.799-0.014,1.598-0.035,2.396c-0.023,0.869-0.059,1.738-0.104,2.604c-0.016,0.271-0.035,0.543-0.053,0.814
		c-0.053,0.881-0.115,1.758-0.189,2.633c-0.012,0.131-0.023,0.262-0.035,0.395c-1.332,14.98-5.83,29.063-12.822,41.57
		c-0.076,0.139-0.154,0.277-0.232,0.416c-0.381,0.674-0.77,1.342-1.164,2.006c-4.043,6.842-8.871,13.236-14.42,19.039
		c10.285,4.828,21.75,7.543,33.842,7.543c44.066,0,79.916-35.85,79.916-79.916C276.465,162.074,262.934,138.129,242.299,123.664z"/>
	<path d="M87.088,269.047c12.094,0,23.559-2.715,33.844-7.543c-19.162-20.045-29.74-47.172-29.02-75.16
		c-24.59-13.365-42.789-36.076-50.572-62.682c-20.637,14.465-34.166,38.41-34.166,65.469
		C7.172,233.197,43.022,269.047,87.088,269.047z"/>
	<path d="M219.629,112.599c-7.436-2.255-15.137-3.396-22.996-3.396c-11.689,0-23.328,2.623-33.896,7.531
		c5.754,6.016,10.773,12.721,15.01,20.055c4.236,7.34,7.535,15.045,9.867,23.043C203.648,148.59,215.135,131.74,219.629,112.599z"/>
	<path d="M96.027,159.83c2.334-7.996,5.631-15.701,9.867-23.041c4.236-7.336,9.254-14.041,15.01-20.055
		c-10.57-4.91-22.207-7.531-33.898-7.531c-7.859,0-15.561,1.141-22.994,3.396C68.504,131.74,79.99,148.59,96.027,159.83z"/>
	<path d="M141.818,199.012c-8.475,0-16.797-0.998-24.889-2.975c1.717,19.506,10.563,37.875,24.889,51.336
		c14.326-13.463,23.174-31.83,24.891-51.336C158.617,198.016,150.295,199.012,141.818,199.012z"/>
	<path d="M172.047,174.98c-1.684-10.162-5.168-19.865-10.387-28.904c-5.219-9.037-11.879-16.908-19.842-23.449
		c-7.961,6.541-14.623,14.412-19.84,23.449s-8.703,18.742-10.387,28.906c9.646,3.623,19.793,5.459,30.229,5.459
		C152.254,180.441,162.4,178.605,172.047,174.98z"/>
</g>
</svg>
