<?xml version="1.0" encoding="UTF-8" standalone="no"?>
<svg
   version="1.1"
   id="Layer_3"
   x="0px"
   y="0px"
   width="283.46px"
   height="283.46px"
   viewBox="0 0 283.46 283.46"
   enable-background="new 0 0 283.46 283.46"
   xml:space="preserve"
   sodipodi:docname="column.svg"
   inkscape:version="1.2.2 (b0a8486541, 2022-12-01)"
   xmlns:inkscape="http://www.inkscape.org/namespaces/inkscape"
   xmlns:sodipodi="http://sodipodi.sourceforge.net/DTD/sodipodi-0.dtd"
   xmlns="http://www.w3.org/2000/svg"
   xmlns:svg="http://www.w3.org/2000/svg"><defs
   id="defs15" /><sodipodi:namedview
   id="namedview13"
   pagecolor="#ffffff"
   bordercolor="#000000"
   borderopacity="0.25"
   inkscape:showpageshadow="2"
   inkscape:pageopacity="0.0"
   inkscape:pagecheckerboard="0"
   inkscape:deskcolor="#d1d1d1"
   showgrid="false"
   inkscape:zoom="0.37042264"
   inkscape:cx="-867.92751"
   inkscape:cy="467.03409"
   inkscape:window-width="1920"
   inkscape:window-height="1015"
   inkscape:window-x="0"
   inkscape:window-y="0"
   inkscape:window-maximized="1"
   inkscape:current-layer="Layer_3" />

<path
   id="path233"
   d="m 191.10069,16.059694 c 0,-4.955 -4.02123,-8.9762004 -8.97621,-8.9762004 h -2.24454 c -4.95499,0 -8.97622,4.0212004 -8.97622,8.9762004 0,3.052 1.52581,5.7447 3.85071,7.3694 1.62473,2.3249 4.31807,3.8514 7.37005,3.8514 4.95498,0 8.97621,-4.0219 8.97621,-8.9769 z m 0,29.1732 c 0,-4.955 -4.02123,-8.9762 -8.97621,-8.9762 -4.95499,0 -8.97687,4.0212 -8.97687,8.9762 v 4.4884 c 0,4.955 4.02188,8.9762 8.97687,8.9762 4.95498,0 8.97621,-4.0212 8.97621,-8.9762 z m 0,31.4177 c 0,-4.955 -4.02123,-8.9762 -8.97621,-8.9762 -4.95499,0 -8.97687,4.0212 -8.97687,8.9762 v 4.4885 c 0,4.9549 4.02188,8.9762 8.97687,8.9762 4.95498,0 8.97621,-4.0213 8.97621,-8.9762 z m 0,31.417806 c 0,-4.955 -4.02123,-8.976906 -8.97621,-8.976906 -4.95499,0 -8.97687,4.021906 -8.97687,8.976906 v 4.4877 c 0,4.955 4.02188,8.9769 8.97687,8.9769 4.95498,0 8.97621,-4.0219 8.97621,-8.9769 z m 0,31.417 c 0,-4.955 -4.02123,-8.9762 -8.97621,-8.9762 -4.95499,0 -8.97687,4.0212 -8.97687,8.9762 v 4.4885 c 0,4.955 4.02188,8.9762 8.97687,8.9762 4.95498,0 8.97621,-4.0212 8.97621,-8.9762 z m 0,31.4178 c 0,-4.955 -4.02123,-8.9762 -8.97621,-8.9762 -4.95499,0 -8.97687,4.0212 -8.97687,8.9762 v 4.4884 c 0,4.955 4.02188,8.9762 8.97687,8.9762 4.95498,0 8.97621,-4.0212 8.97621,-8.9762 z m 0,31.4177 c 0,-4.955 -4.02123,-8.9769 -8.97621,-8.9769 -4.95499,0 -8.97687,4.0219 -8.97687,8.9769 v 4.4878 c 0,4.955 4.02188,8.9769 8.97687,8.9769 4.95498,0 8.97621,-4.0219 8.97621,-8.9769 z m 0,31.4171 c 0,-4.955 -4.02123,-8.9762 -8.97621,-8.9762 -4.95499,0 -8.97687,4.0212 -8.97687,8.9762 v 4.4884 c 0,4.955 4.02188,8.9762 8.97687,8.9762 4.95498,0 8.97621,-4.0212 8.97621,-8.9762 z m 0,31.4177 c 0,-4.955 -4.02123,-8.9762 -8.97621,-8.9762 -3.05198,0 -5.74532,1.5258 -7.37005,3.8507 -2.3249,1.6247 -3.85071,4.3174 -3.85071,7.3694 0,4.955 4.02123,8.9769 8.97622,8.9769 h 2.24454 c 4.95498,0 8.97621,-4.0219 8.97621,-8.9769 z M 165.9669,16.059694 c 0,-4.955 -4.02189,-8.9762004 -8.97687,-8.9762004 h -3.81455 c -4.95498,0 -8.97687,4.0212004 -8.97687,8.9762004 0,4.955 4.0174,8.9762 8.97687,8.9762 h 3.81455 c 4.95498,0 8.97687,-4.0212 8.97687,-8.9762 z m 0,251.339906 c 0,-4.955 -4.02189,-8.9762 -8.97687,-8.9762 h -3.80995 c -4.95498,0 -8.97686,4.0212 -8.97686,8.9762 0,4.955 4.01728,8.9769 8.97226,8.9769 h 3.81455 c 4.95498,0 8.97687,-4.0219 8.97687,-8.9769 z m -26.7005,0 c 0,-4.955 -4.02123,-8.9762 -8.97622,-8.9762 h -3.8152 c -4.95499,0 -8.97622,4.0212 -8.97622,8.9762 0,4.955 4.01675,8.9769 8.97622,8.9769 h 3.8152 c 4.95499,0 8.97622,-4.0219 8.97622,-8.9769 z m -0.005,-251.339906 c 0,-4.955 -4.02123,-8.9762004 -8.97622,-8.9762004 h -3.8152 c -4.95499,0 -8.97621,4.0212004 -8.97621,8.9762004 0,4.955 4.01674,8.9762 8.97621,8.9762 h 3.8152 c 4.95499,0 8.97622,-4.0212 8.97622,-8.9762 z m -26.70511,0 c 0,-4.955 -4.02123,-8.9762004 -8.97621,-8.9762004 h -2.24389 c -4.954996,0 -8.976886,4.0212004 -8.976886,8.9762004 v 2.2439 c 0,4.955 4.02189,8.9769 8.976886,8.9769 3.05198,0 5.74466,-1.5265 7.36939,-3.8514 2.3249,-1.6247 3.85071,-4.3174 3.85071,-7.3694 z m 0,251.339906 c 0,-3.052 -1.52581,-5.7447 -3.85071,-7.3694 -1.62473,-2.3249 -4.31741,-3.8507 -7.36939,-3.8507 -4.954996,0 -8.976886,4.0212 -8.976886,8.9762 v 2.2439 c 0,4.955 4.02189,8.9769 8.976886,8.9769 h 2.24389 c 4.95498,0 8.97621,-4.0219 8.97621,-8.9769 z M 110.3128,45.232894 c 0,-4.955 -4.02123,-8.9762 -8.97621,-8.9762 -4.954996,0 -8.976886,4.0212 -8.976886,8.9762 v 4.4884 c 0,4.955 4.02189,8.9762 8.976886,8.9762 4.95498,0 8.97621,-4.0212 8.97621,-8.9762 z m 0,31.4177 c 0,-4.955 -4.02123,-8.9762 -8.97621,-8.9762 -4.954996,0 -8.976886,4.0212 -8.976886,8.9762 v 4.4885 c 0,4.9549 4.02189,8.9762 8.976886,8.9762 4.95498,0 8.97621,-4.0213 8.97621,-8.9762 z m 0,31.417806 c 0,-4.955 -4.02123,-8.976906 -8.97621,-8.976906 -4.954996,0 -8.976886,4.021906 -8.976886,8.976906 v 4.4877 c 0,4.955 4.02189,8.9769 8.976886,8.9769 4.95498,0 8.97621,-4.0219 8.97621,-8.9769 z m 0,31.417 c 0,-4.955 -4.02123,-8.9762 -8.97621,-8.9762 -4.954996,0 -8.976886,4.0212 -8.976886,8.9762 v 4.4885 c 0,4.955 4.02189,8.9762 8.976886,8.9762 4.95498,0 8.97621,-4.0212 8.97621,-8.9762 z m 0,31.4178 c 0,-4.955 -4.02123,-8.9762 -8.97621,-8.9762 -4.954996,0 -8.976886,4.0212 -8.976886,8.9762 v 4.4884 c 0,4.955 4.02189,8.9762 8.976886,8.9762 4.95498,0 8.97621,-4.0212 8.97621,-8.9762 z m 0,31.4177 c 0,-4.955 -4.02123,-8.9769 -8.97621,-8.9769 -4.954996,0 -8.976886,4.0219 -8.976886,8.9769 v 4.4878 c 0,4.955 4.02189,8.9769 8.976886,8.9769 4.95498,0 8.97621,-4.0219 8.97621,-8.9769 z m 0,31.4171 c 0,-4.955 -4.02123,-8.9762 -8.97621,-8.9762 -4.954996,0 -8.976886,4.0212 -8.976886,8.9762 v 4.4884 c 0,4.955 4.02189,8.9762 8.976886,8.9762 4.95498,0 8.97621,-4.0212 8.97621,-8.9762 z"
   style="fill:#000000;stroke-width:4.48822" /></svg>
