<?xml version="1.0" encoding="UTF-8" standalone="no"?>
<!-- Generator: Adobe Illustrator 15.1.0, SVG Export Plug-In . SVG Version: 6.00 Build 0)  -->

<svg
   version="1.1"
   id="Layer_1"
   x="0px"
   y="0px"
   width="283.46px"
   height="283.46px"
   viewBox="0 0 283.46 283.46"
   enable-background="new 0 0 283.46 283.46"
   xml:space="preserve"
   sodipodi:docname="company-lorawan.svg"
   inkscape:version="1.2.2 (b0a8486541, 2022-12-01)"
   xmlns:inkscape="http://www.inkscape.org/namespaces/inkscape"
   xmlns:sodipodi="http://sodipodi.sourceforge.net/DTD/sodipodi-0.dtd"
   xmlns="http://www.w3.org/2000/svg"
   xmlns:svg="http://www.w3.org/2000/svg"><path
   id="polyline4"
   style="fill:#000000"
   class="st0"
   d="M 83.498626 0.90139444 C 66.998642 0.90139444 51.498744 5.8001293 38.598757 14.200121 L 43.998952 21.898645 C 55.398941 14.598652 68.89864 10.301734 83.498626 10.301734 C 98.498611 10.301734 112.40011 14.800432 124.10009 22.600425 L 129.50029 14.898392 C 116.4003 5.9984006 100.49861 0.90139444 83.498626 0.90139444 z M 83.498626 18.800287 C 70.798639 18.800287 58.900874 22.600662 48.900884 29.000656 L 53.199285 35.099122 C 61.999276 29.499128 72.398637 26.298804 83.498626 26.298804 C 95.098614 26.298804 105.80152 29.79915 114.80151 35.699144 L 119.09991 29.600678 C 108.89992 22.800684 96.598613 18.800287 83.498626 18.800287 z M 259.79974 35.299129 L 259.79974 110.40009 L 278.00039 110.40009 L 303.49956 73.900525 L 303.49956 110.40009 L 321.79847 110.40009 L 372.89856 35.299129 L 350.99953 35.299129 L 321.79847 77.598904 L 321.79847 35.299129 L 307.20145 35.299129 L 278.00039 77.598904 L 278.00039 35.299129 L 259.79974 35.299129 z M 419.99851 35.299129 L 419.99851 110.40009 L 437.99916 110.40009 L 437.99916 70.998666 L 464.29836 110.40009 L 483.80082 110.40009 L 483.80082 35.299129 L 465.60016 35.299129 L 465.60016 76.598868 L 438.70094 35.299129 L 419.99851 35.299129 z M 388.20087 35.400887 L 335.79898 110.49834 L 356.70149 110.49834 L 364.2 99.5997 L 388.89914 99.5997 L 388.89914 110.40009 L 406.69978 110.40009 L 406.69978 35.400887 L 388.20087 35.400887 z M 0.0008702069 35.699144 L 0.0008702069 110.89835 L 48.199104 110.89835 L 48.199104 95.101291 L 18.80155 95.101291 L 18.80155 35.699144 L 0.0008702069 35.699144 z M 124.99837 35.699144 L 124.99837 110.89835 L 143.79905 110.89835 L 143.79905 83.799128 L 155.79949 83.799128 L 170.60002 110.89835 L 191.60078 110.89835 L 174.40016 80.700771 C 179.10015 79.300772 182.89881 76.700492 185.69881 73.100496 C 188.49881 69.5005 189.89896 65.298277 189.89896 60.398282 C 189.89896 43.898299 180.79971 35.699144 162.59973 35.699144 L 124.99837 35.699144 z M 83.498626 36.400924 C 74.498635 36.400924 66.101238 39.001181 58.901245 43.401177 L 62.101361 48.001343 C 68.401355 44.101347 75.698634 42.001126 83.498626 42.001126 C 91.698618 42.001126 99.401193 44.401369 105.80119 48.601365 L 109.0013 44.001198 C 101.60131 39.201203 92.898616 36.400924 83.498626 36.400924 z M 143.79905 49.69965 L 160.99967 49.69965 C 167.79967 49.69965 171.09828 52.998267 171.09828 59.798261 C 171.09828 66.498254 167.69967 69.90038 160.99967 69.90038 L 143.79905 69.90038 L 143.79905 49.69965 z M 84.000398 53.201531 C 75.100407 53.201531 67.901363 55.798309 62.301368 60.998304 C 56.801374 66.198299 54.101072 73.499102 54.101072 82.799092 C 54.101072 92.099083 56.801374 99.399886 62.301368 104.59988 C 67.801363 109.79988 75.000407 112.40016 84.000398 112.40016 C 93.000389 112.40016 100.19943 109.79988 105.69943 104.59988 C 111.19942 99.399886 113.89972 92.099083 113.89972 82.799092 C 113.89972 73.499102 111.19942 66.198299 105.69943 60.998304 C 100.19943 55.798309 93.000389 53.201531 84.000398 53.201531 z M 223.19841 53.29978 C 208.09843 53.29978 200.30108 59.100428 200.00108 70.900416 L 216.00166 70.900416 C 216.40166 68.200419 217.29825 66.200206 218.59825 65.100207 C 219.89825 64.000208 221.89847 63.398391 224.59846 63.398391 C 229.79846 63.398391 232.39875 65.398612 232.39875 69.398608 L 232.39875 74.100532 L 226.39853 74.900561 C 216.69854 76.20056 209.69952 78.300788 205.29952 81.100785 C 200.19953 84.400782 197.601 89.30132 197.601 95.701313 C 197.601 100.90131 199.4012 105.09826 203.00119 108.09825 C 206.40119 110.99825 210.80168 112.40016 216.40168 112.40016 C 219.60167 112.40016 222.79852 111.70009 225.99851 110.40009 C 229.49851 109.00009 232.00053 107.20165 233.30053 105.10165 L 233.50054 105.10165 C 233.60054 107.20165 233.90058 109.09836 234.50058 110.89835 L 249.70113 110.89835 C 248.70113 108.39836 248.19932 104.49968 248.19932 99.199685 L 248.19932 69.500366 C 248.19932 63.500372 246.00083 59.199901 241.50083 56.699903 C 237.50083 54.399905 231.39841 53.29978 223.19841 53.29978 z M 388.89914 63.398391 L 388.89914 84.100894 L 374.80039 84.100894 L 388.89914 63.398391 z M 84.000398 65.798478 C 88.500394 65.798478 91.900769 67.400405 94.200767 70.500402 C 96.300765 73.400399 97.400883 77.300826 97.400883 82.100821 C 97.400883 93.90081 93.000389 99.799707 84.000398 99.799707 C 79.500403 99.799707 76.100027 98.201281 73.80003 94.901284 C 71.700032 91.901287 70.599914 87.899087 70.599914 82.799092 C 70.599914 77.699097 71.700032 73.700406 73.80003 70.700409 C 76.100027 67.400413 79.500403 65.798478 84.000398 65.798478 z M 232.39875 83.599121 L 232.39875 87.501017 C 232.39875 91.601013 231.30039 94.801366 229.30039 97.101364 C 227.20039 99.301362 224.50009 100.39973 221.10009 100.39973 C 216.0001 100.39973 213.40157 98.301251 213.40157 94.101255 C 213.40157 90.701259 216.0001 88.299235 221.3001 86.799237 L 232.39875 83.599121 z M 62.301368 117.20034 L 59.101253 121.8005 C 66.501245 126.6005 75.198679 129.40078 84.698669 129.40078 C 93.69866 129.40078 102.09957 126.80052 109.29956 122.40052 L 106.09944 117.80036 C 99.699449 121.70035 92.400412 123.80057 84.60042 123.80057 C 76.400428 123.80057 68.701362 121.40033 62.301368 117.20034 z M 53.301043 130.09905 L 48.999133 136.20102 C 59.199123 143.00102 71.400433 147.00141 84.60042 147.00141 C 97.300407 147.00141 109.20168 143.20104 119.20167 136.80104 L 114.89976 130.69907 C 106.09977 136.29906 95.700409 139.49939 84.60042 139.49939 C 73.000432 139.49939 62.301034 135.99904 53.301043 130.09905 z M 43.998952 143.20128 L 38.598757 150.8998 C 51.698744 159.69979 67.600437 164.90031 84.60042 164.90031 C 101.1004 164.90031 116.6003 160.00157 129.50029 151.60158 L 124.10009 143.89955 C 112.70011 151.19954 99.100406 155.49997 84.60042 155.49997 C 69.600435 155.49997 55.69894 151.00127 43.998952 143.20128 z "
   transform="matrix(0.5566205,0,0,0.5566205,7.0835,95.586156)" /><defs
   id="defs13029" /><sodipodi:namedview
   id="namedview13027"
   pagecolor="#ffffff"
   bordercolor="#000000"
   borderopacity="0.25"
   inkscape:showpageshadow="2"
   inkscape:pageopacity="0.0"
   inkscape:pagecheckerboard="0"
   inkscape:deskcolor="#d1d1d1"
   showgrid="false"
   inkscape:zoom="0.74084529"
   inkscape:cx="-451.51127"
   inkscape:cy="79.63876"
   inkscape:window-width="1920"
   inkscape:window-height="1015"
   inkscape:window-x="0"
   inkscape:window-y="0"
   inkscape:window-maximized="1"
   inkscape:current-layer="Layer_1" />

<style
   type="text/css"
   id="style2">
	.st0{fill:#FFFFFF;}
	.st1{fill-rule:evenodd;clip-rule:evenodd;fill:#FFFFFF;}
</style></svg>
