<?xml version="1.0" encoding="UTF-8" standalone="no"?>
<!-- Generator: Adobe Illustrator 15.1.0, SVG Export Plug-In . SVG Version: 6.00 Build 0)  -->

<svg
   version="1.1"
   id="Layer_2"
   x="0px"
   y="0px"
   width="283.465px"
   height="283.465px"
   viewBox="0 0 283.465 283.465"
   enable-background="new 0 0 283.465 283.465"
   xml:space="preserve"
   sodipodi:docname="company-paypal.svg"
   inkscape:version="1.4.2 (ebf0e940d0, 2025-05-08)"
   xmlns:inkscape="http://www.inkscape.org/namespaces/inkscape"
   xmlns:sodipodi="http://sodipodi.sourceforge.net/DTD/sodipodi-0.dtd"
   xmlns="http://www.w3.org/2000/svg"
   xmlns:svg="http://www.w3.org/2000/svg"><defs
   id="defs3" /><sodipodi:namedview
   id="namedview3"
   pagecolor="#ffffff"
   bordercolor="#000000"
   borderopacity="0.25"
   inkscape:showpageshadow="2"
   inkscape:pageopacity="0.0"
   inkscape:pagecheckerboard="0"
   inkscape:deskcolor="#d1d1d1"
   inkscape:zoom="2.7657736"
   inkscape:cx="141.7325"
   inkscape:cy="141.7325"
   inkscape:window-width="1920"
   inkscape:window-height="995"
   inkscape:window-x="0"
   inkscape:window-y="0"
   inkscape:window-maximized="1"
   inkscape:current-layer="Layer_2" />
<g
   id="g3"
   transform="translate(-10.846875,-7.5928124)">
	<path
   id="path1"
   d="m 84.136473,14.675889 c -4.92,0.002 -9.053218,3.533484 -9.824218,8.396484 L 38.888427,247.73057 c -0.438,2.766 1.45089,5.36664 4.21289,5.80664 0.261,0.039 0.525969,0.0645 0.792969,0.0645 h 50.617187 l 10.238287,-64.88477 2.46289,-15.59765 0.20117,-1.29688 14.17773,-89.888669 c 0.98,-6.303 6.32208,-10.876953 12.70508,-10.876953 h 0.0176 66.6875 c 5.125,0 9.96687,0.244735 14.54687,0.677735 2.691,0.251 5.3235,0.550265 7.8125,0.947265 1.221,0.197 2.43921,0.426875 3.65821,0.671875 0.699,0.139 1.40184,0.274735 2.08984,0.427735 1.861,0.411 3.69136,0.882343 5.44336,1.402343 v 0.002 l 0.002,0.002 h 0.002 l 0.002,-0.0098 c 0.361,0.108 0.70945,0.223031 1.06445,0.332031 1.315,0.397 2.62507,0.831453 3.91407,1.314453 0.131,0.048 0.25576,0.104391 0.38476,0.150391 0.633,0.242 1.26172,0.489953 1.88672,0.751953 0.447,0.188 0.88908,0.387984 1.33008,0.583984 0.25,0.111 0.502,0.216079 0.75,0.330079 2.504,-19.139 -0.89446,-32.068844 -11.43946,-44.089844 -11.584,-13.188 -32.85551,-19.875 -63.22851,-19.875 z m 50.164067,60.841797 c -4.172,0 -7.66169,2.988375 -8.30469,7.109375 l -12.96094,82.166009 c 2.32,-1.596 5.13139,-2.51557 8.15039,-2.51757 h 24.9668 c 54.982,0 86.53117,-24.76966 96.45117,-75.722658 0.22,-1.123 0.41466,-2.222641 0.59766,-3.306641 -2.414,-1.179 -4.91413,-2.19339 -7.45313,-3.02539 -0.81,-0.265 -1.62989,-0.517578 -2.46289,-0.767578 v 0.0078 c -1.65,-0.49 -3.38162,-0.936266 -5.14062,-1.322266 -1.784,-0.396 -3.63038,-0.744109 -5.48438,-1.037109 -6.465,-1.051 -13.7482,-1.583984 -21.6582,-1.583984 h -66.68945 z m 113.0332,9.976562 c -0.114,0.638 -0.23052,1.273203 -0.35352,1.908203 -0.286,1.467 -0.59792,2.905032 -0.91992,4.332032 -11.241,49.766997 -44.8272,74.999997 -99.9082,74.999997 h -24.96484 c -4.912,0.004 -9.0234,3.52772 -9.7754,8.38672 L 94.991942,279.15831 c -0.357,2.268 1.192938,4.40072 3.460938,4.76172 0.223,0.035 0.438296,0.0547 0.654296,0.0547 h 44.275394 c 4.162,0 7.65845,-2.99232 8.31445,-7.11132 l 0.44336,-2.32422 8.33203,-52.8125 0.53906,-2.97461 c 0.988,-6.25 6.3398,-10.81836 12.7168,-10.81836 h 6.62891 c 47.941,0 75.44856,-21.59458 84.10156,-66.01758 4.177,-21.497 1.36539,-38.01565 -8.34961,-49.097653 -2.565,-2.857 -5.51039,-5.315219 -8.77539,-7.324219 z" />
	
	
</g>
</svg>
