<?xml version="1.0" encoding="utf-8"?>
<!-- Generator: Adobe Illustrator 15.1.0, SVG Export Plug-In . SVG Version: 6.00 Build 0)  -->
<!DOCTYPE svg PUBLIC "-//W3C//DTD SVG 1.1//EN" "http://www.w3.org/Graphics/SVG/1.1/DTD/svg11.dtd">
<svg version="1.1" id="Layer_1" xmlns="http://www.w3.org/2000/svg" xmlns:xlink="http://www.w3.org/1999/xlink" x="0px" y="0px"
	 width="283.46px" height="283.46px" viewBox="0 0 283.46 283.46" enable-background="new 0 0 283.46 283.46" xml:space="preserve">
<path d="M168.648,150.639c-10.368,1.66-19.321-0.415-19.983-4.623c-0.674-4.208,7.181-8.954,17.56-10.603
	c10.368-1.649,19.311,0.426,19.973,4.623C186.871,144.232,179.016,148.99,168.648,150.639 M158.797,193.95
	c-3.793,1.93-10.739-4.073-15.508-13.42c-4.78-9.357-5.577-18.514-1.773-20.443c3.792-1.93,10.727,4.072,15.506,13.42
	C161.792,182.853,162.601,192.019,158.797,193.95 M117.954,176.536c-7.428,7.428-15.876,11.007-18.884,8
	c-3.03-3.008,0.561-11.467,7.966-18.895c7.405-7.44,15.866-11.02,18.884-8.012C128.939,160.636,125.36,169.108,117.954,176.536
	 M89.555,124.81c1.919-3.804,11.075-3.007,20.421,1.75c9.358,4.757,15.394,11.692,13.464,15.484
	c-1.941,3.792-11.086,3.018-20.443-1.739C93.64,135.547,87.625,128.602,89.555,124.81 M143.414,97.32
	c4.208,0.65,6.283,9.604,4.645,19.972c-1.626,10.379-6.35,18.233-10.569,17.583c-4.196-0.673-6.283-9.616-4.657-19.973
	c1.627-10.378,6.362-18.244,10.582-17.593 M276.207,125.696c-0.876-5.509-3.871-7.091-11.097-9.391l-42.212-13.465
	c0,0-25.615-9.683-44.589,4.006c-2.559,1.84-5.206,3.938-7.854,6.171c2.222-2.648,4.32-5.296,6.171-7.854
	c13.633-19.007,3.916-44.601,3.916-44.601l-13.543-42.2c-2.322-7.215-3.894-10.21-9.426-11.063
	c-5.521-0.875-7.933,1.481-12.353,7.63l-25.863,36.006c0,0-17.1,21.353-9.964,43.647c0.965,2.985,2.144,6.16,3.457,9.38
	c-1.758-2.834-3.617-5.604-5.577-8.303c-13.868-18.839-41.19-17.526-41.19-17.526s-38.576-0.134-44.32-0.134
	c-7.585-0.034-10.907,0.561-13.442,5.531s-1.043,8.011,3.445,14.115c3.4,4.656,26.255,35.714,26.255,35.714
	s15.013,22.868,38.407,22.957c3.142,0.011,6.508-0.134,9.975-0.38c-3.229,0.796-6.43,1.708-9.593,2.736
	c-22.217,7.36-29.386,33.773-29.386,33.773l-13.857,42.11c-2.357,7.181-2.828,10.535,1.122,14.475
	c3.949,3.961,7.293,3.479,14.485,1.1c5.487-1.795,42.077-13.936,42.077-13.936s26.39-7.227,33.706-29.443
	c0.988-2.983,1.896-6.238,2.727-9.581c-0.245,3.312-0.357,6.631-0.336,9.952c0.112,23.395,23.012,38.385,23.012,38.385
	l35.749,26.177c6.126,4.467,9.156,5.958,14.138,3.423c4.971-2.535,5.554-5.868,5.509-13.453l-0.246-44.32
	c0,0,1.278-27.322-17.583-41.156c-2.694-1.954-5.46-3.808-8.292-5.555c3.221,1.291,6.373,2.469,9.381,3.411
	c22.283,7.103,43.625-10.031,43.625-10.031l35.949-25.919C274.726,133.651,277.071,131.216,276.207,125.696"/>
</svg>
