<?xml version="1.0" encoding="UTF-8" standalone="no"?>
<!-- Generator: Adobe Illustrator 15.1.0, SVG Export Plug-In . SVG Version: 6.00 Build 0)  -->

<svg
   version="1.1"
   id="Layer_1"
   x="0px"
   y="0px"
   width="283.46px"
   height="283.46px"
   viewBox="0 0 283.46 283.46"
   enable-background="new 0 0 283.46 283.46"
   xml:space="preserve"
   sodipodi:docname="company-lora.svg"
   inkscape:version="1.2.2 (b0a8486541, 2022-12-01)"
   xmlns:inkscape="http://www.inkscape.org/namespaces/inkscape"
   xmlns:sodipodi="http://sodipodi.sourceforge.net/DTD/sodipodi-0.dtd"
   xmlns="http://www.w3.org/2000/svg"
   xmlns:svg="http://www.w3.org/2000/svg"><defs
   id="defs13029" /><sodipodi:namedview
   id="namedview13027"
   pagecolor="#ffffff"
   bordercolor="#000000"
   borderopacity="0.25"
   inkscape:showpageshadow="2"
   inkscape:pageopacity="0.0"
   inkscape:pagecheckerboard="0"
   inkscape:deskcolor="#d1d1d1"
   showgrid="false"
   inkscape:zoom="0.74084529"
   inkscape:cx="-184.24899"
   inkscape:cy="79.63876"
   inkscape:window-width="1920"
   inkscape:window-height="1015"
   inkscape:window-x="0"
   inkscape:window-y="0"
   inkscape:window-maximized="1"
   inkscape:current-layer="Layer_1" />

<style
   type="text/css"
   id="style2">
	.st0{fill:#FFFFFF;}
	.st1{fill-rule:evenodd;clip-rule:evenodd;fill:#FFFFFF;}
</style><path
   id="polyline4"
   style="fill:#000000"
   class="st0"
   d="M 83.499395 0.89921583 C 66.999412 0.89921583 51.500548 5.7993629 38.600561 14.199354 L 43.999215 21.899816 C 55.399204 14.599823 68.89941 10.300226 83.499395 10.300226 C 98.49938 10.300226 112.40069 14.800689 124.10068 22.600681 L 129.49933 14.90022 C 116.39934 6.0002285 100.49938 0.89921583 83.499395 0.89921583 z M 83.499395 18.799348 C 70.799408 18.799348 58.899828 22.600836 48.899838 29.00083 L 53.199202 35.100349 C 61.999193 29.500354 72.399406 26.300597 83.499395 26.300597 C 95.099384 26.300597 105.79928 29.799802 114.79927 35.699797 L 119.10045 29.600278 C 108.90046 22.800284 96.599382 18.799348 83.499395 18.799348 z M 0.00045840565 35.699797 L 0.00045840565 110.90063 L 48.200784 110.90063 L 48.200784 95.099476 L 18.800668 95.099476 L 18.800668 35.699797 L 0.00045840565 35.699797 z M 125.00075 35.699797 L 125.00075 110.90063 L 143.79915 110.90063 L 143.79915 83.800516 L 155.80079 83.800516 L 170.60045 110.90063 L 191.59924 110.90063 L 174.39998 80.700048 C 179.09997 79.300049 182.90075 76.699189 185.70075 73.099192 C 188.50074 69.499196 189.9005 65.300308 189.9005 60.400313 C 189.9005 43.900329 180.79934 35.699797 162.59936 35.699797 L 125.00075 35.699797 z M 83.499395 36.400662 C 74.499404 36.400662 66.100289 39.000262 58.900296 43.400258 L 62.100371 48.000252 C 68.400364 44.100255 75.699403 42.000339 83.499395 42.000339 C 91.699387 42.000339 99.400315 44.399704 105.80031 48.5997 L 109.00038 43.999706 C 101.60039 39.199711 92.899386 36.400662 83.499395 36.400662 z M 143.79915 49.7008 L 161.00023 49.7008 C 167.80022 49.7008 171.1003 53.000872 171.1003 59.800865 C 171.1003 66.500858 167.70022 69.899118 161.00023 69.899118 L 143.79915 69.899118 L 143.79915 49.7008 z M 83.999237 53.199693 C 75.099246 53.199693 67.899577 55.799766 62.299583 60.999761 C 56.799588 66.199756 54.099279 73.500842 54.099279 82.800832 C 54.099279 92.100823 56.799588 99.400098 62.299583 104.60009 C 67.799577 109.80009 74.999246 112.40016 83.999237 112.40016 C 92.999228 112.40016 100.20071 109.80009 105.7007 104.60009 C 111.2007 99.400098 113.89919 92.100823 113.89919 82.800832 C 113.89919 73.500842 111.2007 66.199756 105.7007 60.999761 C 100.20071 55.799766 92.999228 53.199693 83.999237 53.199693 z M 223.19975 53.299299 C 208.09976 53.299299 200.30057 59.100625 200.00057 70.900613 L 215.99913 70.900613 C 216.39913 68.200616 217.29976 66.199911 218.59976 65.099912 C 219.89975 63.999913 221.89967 63.399364 224.59967 63.399364 C 229.79966 63.399364 232.39974 65.39928 232.39974 69.399276 L 232.39974 74.100687 L 226.39982 74.899347 C 216.69983 76.199346 209.69961 78.300286 205.29962 81.100283 C 200.19962 84.40028 197.59916 89.300742 197.59916 95.700735 C 197.59916 100.90073 199.39962 105.1008 202.99962 108.1008 C 206.39962 111.00079 210.79937 112.40016 216.39936 112.40016 C 219.59936 112.40016 222.79959 111.70079 225.99959 110.40079 C 229.49958 109.00079 231.99981 107.19993 233.29981 105.09993 L 233.50084 105.09993 C 233.60084 107.19993 233.90052 109.10064 234.50052 110.90063 L 249.70042 110.90063 C 248.70042 108.40064 248.20089 104.49962 248.20089 99.199628 L 248.20089 69.500694 C 248.20089 63.5007 246.00011 59.200394 241.50012 56.700397 C 237.50012 54.400399 231.39974 53.299299 223.19975 53.299299 z M 83.999237 65.800778 C 88.499233 65.800778 91.900721 67.40038 94.200719 70.500377 C 96.300717 73.400374 97.400793 77.299972 97.400793 82.099967 C 97.400793 93.899955 92.999228 99.800887 83.999237 99.800887 C 79.499242 99.800887 76.099564 98.200261 73.799567 94.900264 C 71.699569 91.900267 70.599492 87.900827 70.599492 82.800832 C 70.599492 77.700837 71.699569 73.699586 73.799567 70.699589 C 76.099564 67.399593 79.499242 65.800778 83.999237 65.800778 z M 232.39974 83.599493 L 232.39974 87.500432 C 232.39974 91.600428 231.29927 94.800657 229.29927 97.100654 C 227.19927 99.300652 224.50077 100.40033 221.10078 100.40033 C 216.00078 100.40033 213.40031 98.299788 213.40031 94.099793 C 213.40031 90.699796 215.99999 88.299565 221.29999 86.799567 L 232.39974 83.599493 z M 62.299583 117.19937 L 59.099509 121.79936 C 66.499501 126.59935 75.200112 129.40022 84.700102 129.40022 C 93.700093 129.40022 102.09921 126.80061 109.2992 122.40062 L 106.09913 117.80063 C 99.699134 121.70062 92.400488 123.80054 84.600496 123.80054 C 76.400504 123.80054 68.699576 121.39936 62.299583 117.19937 z M 53.300619 130.09927 L 48.999444 136.2006 C 59.199434 143.00059 71.400509 146.99972 84.600496 146.99972 C 97.300483 146.99972 109.20006 143.20004 119.20005 136.80005 L 114.90069 130.70053 C 106.1007 136.30052 95.700485 139.50028 84.600496 139.50028 C 73.000508 139.50028 62.30061 135.99926 53.300619 130.09927 z M 43.999215 143.2002 L 38.600561 150.90066 C 51.700548 159.70065 67.600513 164.89985 84.600496 164.89985 C 101.10048 164.89985 116.59934 159.9997 129.49933 151.59971 L 124.10068 143.89925 C 112.70069 151.19924 99.100482 155.50065 84.600496 155.50065 C 69.600511 155.50065 55.699203 151.00019 43.999215 143.2002 z "
   transform="matrix(1.0784662,0,0,1.0784662,7.08349,52.325148)" /></svg>
