<?xml version="1.0" encoding="utf-8"?>
<!-- Generator: Adobe Illustrator 15.1.0, SVG Export Plug-In . SVG Version: 6.00 Build 0)  -->
<!DOCTYPE svg PUBLIC "-//W3C//DTD SVG 1.1//EN" "http://www.w3.org/Graphics/SVG/1.1/DTD/svg11.dtd">
<svg version="1.1" id="Layer_2" xmlns="http://www.w3.org/2000/svg" xmlns:xlink="http://www.w3.org/1999/xlink" x="0px" y="0px"
	 width="283.465px" height="283.465px" viewBox="0 0 283.465 283.465" enable-background="new 0 0 283.465 283.465"
	 xml:space="preserve">
<g>
	<path d="M231.158,70.255c-11.594-20.704-28.945-38.154-50.525-48.323c-1.111-0.446-2.199-0.972-3.285-1.493
		c0.178,0.075,0.354,0.146,0.531,0.222c-0.23-0.103-0.467-0.2-0.699-0.301c0.047,0.022,0.094,0.044,0.139,0.067
		c-11.211-4.766-23.318-7.375-35.513-7.317c-12.065,0.059-24.022,2.782-35.078,7.57c-22.133,9.587-40.389,27.145-52.834,47.619
		c-2.75,4.521-5.233,9.209-7.417,14.029c-2.705,5.409-4.67,11.353-6.395,17.136c-1.76,5.901-3.111,11.914-4.091,17.993
		c-1.964,12.191-2.407,24.629-1.443,36.936c1.83,23.363,8.824,46.532,21.402,66.387c12.661,19.988,31.444,36.646,53.796,44.895
		c11.563,4.268,23.838,6.137,36.146,5.369c12.053-0.751,23.822-4.104,34.678-9.339c21.709-10.47,39.582-28.425,51.275-49.378
		c9.902-17.747,15.354-37.771,16.914-57.98c0-0.004,0-0.008,0-0.012c0.428-5.505,0.547-11.035,0.389-16.554
		C248.496,114.325,242.652,90.783,231.158,70.255z M247.137,138.411h-46.432l0.15-0.437c1.271,0.045,2.543-0.148,3.742-0.571h42.496
		L247.137,138.411z M199.115,135.24c-0.244,0.095-0.059,0.021-0.008,0.002c-0.303,0.116-0.666,0.201-0.805,0.15
		c-0.017-0.004-0.027-0.009-0.037-0.016c-0.011-0.008-0.013-0.019-0.017-0.029c-0.008-0.016-0.013-0.033-0.002-0.058
		c0.004-0.012,0.021-0.03,0.026-0.044c0.074-0.125,0.193-0.222,0.308-0.312c0-0.002-0.002-0.003-0.002-0.006
		c-0.179-0.916-1.293-0.827-1.986-0.69c-0.567,0.085-1.118,0.358-1.698,0.358c-0.101,0.01-0.283-0.02-0.326-0.143
		c-0.002-0.011-0.002-0.026-0.004-0.039c-0.021-0.2,0.158-0.432,0.266-0.574c-0.66,0.743-8.994,1.475-9.037-0.202h-0.002
		c-0.971,0.448-2.188,1.34-1.762,2.571c0.363,1.048,1.707,1.607,2.736,1.298c0.004-0.001,0.006-0.001,0.008-0.001
		c-0.479,1.401,2.434,0.8,2.897,0.695c0.002,0,0.004-0.001,0.006-0.001c-0.274,0.404-0.971,1.455-0.174,1.711
		c0.731,0.235,1.604-0.322,2.248-0.611c0.004-0.002,0.008-0.003,0.013-0.005c-0.431,0.501-0.673,1.086-0.722,1.755
		c0,0.006-0.002,0.011-0.002,0.017c-0.082-0.232,1.998,1.978,2.088,1.999c0.002,0,0.004,0.004,0.006,0.004
		c-0.187,0.729-0.237,2.039,0.896,1.58c0.982,1.813,2.113,0.967,3.838-0.026c0.002,0,0.002,0,0.002,0
		c0.016,0.2,0.063,0.397,0.133,0.589c0.188,0.725,0.207,1.479,0.061,2.21c-0.479,0.91-18.838,0.785-17.606,4.076
		c0,0.002,0,0.006,0.002,0.008c-0.062-0.151,14.787,0.021,17.129,2.063c0,0.002,0.002,0.002,0.002,0.002
		c1.627,6.211-2.397,3.938-5.875,5.609l-0.172-0.05c-0.504,0.374-2.508,2.535-2.388,2.623c0,0.001-0.004,0.006-0.002,0.006
		c0.711,0.091,1.412,0.039,2.104-0.151c0.014-0.002,0.01,0.017,0.012,0.023c0.021,0.163-0.766,1.166-0.322,1.209
		c0.564-0.146,1.13-0.287,1.691-0.436c0,0,1.656-0.6,2.941-0.182c2.107,4.805,3.838,11.612-2.01,14.504c0-0.002,0-0.006-0.002-0.009
		c-0.285-0.815-0.34-1.649-0.162-2.497c-0.002,0-0.002,0-0.004,0.002c-0.691,0.271-1.412,0.454-2.148,0.555
		c-0.557-0.176,0.25-1.392,0.355-1.705c0.08-0.313-0.031-0.489-0.668-0.329c-0.316,0.096-1.24,0.391-1.937,0.575c0,0,0,0-0.002,0
		c-0.224,0.06-0.461,0.131-0.69,0.149c-0.004,0-0.006,0-0.013,0c-0.065,0.007-0.11,0.002-0.118-0.019
		c-0.003-0.01,0-0.021,0.021-0.037c0.438-0.623,0.699-1.317,0.783-2.073h-0.002c-0.047-0.011-0.127,0.019-0.211,0.052
		c-0.322,0.146-0.603,0.377-0.914,0.543c-0.904,0.361-1.738,1.031-2.724,1.19c-0.016,0.002-0.03,0.005-0.045,0.006
		c-0.202,0.022-0.278-0.021-0.271-0.211c0-0.006-0.004-0.008-0.002-0.015c0-0.004,0.002-0.01,0.004-0.016
		c0.031-0.347,0.271-0.813,0.386-1.24c0.078-0.357,0.065-0.689-0.209-0.875c0,0,0,0-0.002,0c0.036,0.022,0.047,0.057,0.036,0.086
		c-0.135,0.498-5.178,1.869-5.397,1.697c-0.014-0.013-0.014-0.023,0.015-0.052c0.447-0.377,0.938-1.151,1.061-1.729
		c0.157-0.76-1.176-0.235-1.457-0.123c-1.477,0.602-2.764,1.82-4.445,1.76c0-0.002,0.002-0.008,0.004-0.01
		c0.31-0.396,2.209-3.803,2.082-3.789c-0.002,0-0.004,0-0.006,0c-2.277,0.256-3.574,3.625-6.158,3.506
		c0.002-0.002,0.006-0.008,0.006-0.008c0.563-0.543,5.511-5.664,5.377-5.741c-0.002-0.003-0.006,0-0.008,0
		c-0.656-0.343-7.209,4.728-9.242,4.938c0.002-0.002,0.009-0.009,0.011-0.011c0.506-0.354,3.683-4.712,3.396-5.019
		c-0.447-0.52-2.654,1.479-2.99,1.756c-1.49,1.224-2.986,2.548-4.955,2.892c0.003-0.002,0.01-0.008,0.012-0.01
		c1.195-0.81,1.998-2.063,2.941-3.128c0.521-0.586,1.035-1.178,1.553-1.766c0.191-0.219,0.594-0.974,0.889-1.021
		c-3.012,0.765-5.537,4.229-8.892,5.144c0.005-0.002,0.013-0.008,0.017-0.014c1.086-0.67,1.891-1.915,2.605-2.947
		c0.13-0.188,1.27-2.104,0.988-2.053c-0.235,0.034-9.009,5.691-8.949,4.842c0,0.002,0.004-0.002,0.004,0
		c0,0.008,0.443-0.361,0.549-0.451c0.949-0.931,1.852-1.92,2.732-2.912c0.635-0.713,1.596-1.565,1.912-2.498
		c-0.195-0.027-1.48,0.627-1.759,0.813c-1.295,1.052-2.563,2.321-4.354,1.603c0.002,0,0.004-0.002,0.004-0.004
		c0.713-0.623,1.779-1.377,2.193-2.274c0.006-0.019,0.017-0.036,0.021-0.054c0.021-0.047,0.024-0.086,0.026-0.121
		c0.012-0.053-0.004-0.098-0.045-0.139c-0.342-0.343-1.703,0.351-2.014,0.478c-1,0.411-1.957,0.913-2.912,1.419l-0.99-0.494
		c0.002-0.002,0.004-0.003,0.004-0.004c1.32-1.188,4.174-3.229,4.945-5.039c-0.002,0.002-0.012,0.008-0.014,0.01
		c-0.189,0.234-5.936,2.934-7.061,3.748l-0.408-0.305c0-0.001,0.002-0.002,0.002-0.003c0.734-0.938,6.082-4.188,5.771-5.28
		c0-0.002-0.002-0.002-0.004-0.004c-0.232-0.699-5.945,2.605-6.664,3.105l-1.189-0.885c0-0.002,0.002-0.002,0.002-0.002
		c1.486-2.498,7.539-7.303,7.539-7.303c-0.012,0.007-0.021,0.014-0.033,0.021c-5.047,2.674-9.784,6.426-9.784,6.426l-0.895-0.494
		c0-0.001,0.001-0.002,0.002-0.003c4.656-5.95,10.921-9.624,10.921-9.624c-0.016,0.004-0.024,0.01-0.039,0.014
		c-7.436,2.576-12.178,8.119-12.178,8.119l-0.688-0.494c0,0,0.001-0.002,0.002-0.002c3.962-5.752,15.284-12.104,15.284-12.104
		c-0.008,0.002-0.014,0.004-0.021,0.004c-8.535,1.3-17.254,11.701-17.254,11.701l-1.084-0.59c0-0.002,0.001-0.004,0.002-0.004
		c4.268-6.563,19.938-14.789,19.938-14.789c-0.01,0.002-0.018,0.004-0.022,0.006c-12.782,2.692-20.021,12-20.021,12l-0.3-0.559
		l-0.187-0.348c5.943-7.637,20.827-14.577,20.827-14.577c-0.01,0.001-0.02,0.003-0.025,0.005
		c-14.162,2.285-22.694,13.583-22.694,13.583l-0.686-0.399c0.001-0.002,0.001-0.002,0.002-0.004
		c6.859-11.196,24.396-16.459,24.396-16.459c-4.569,0.378-8.938,2.094-12.893,4.348c-4.277,2.447-8.368,5.487-11.792,9.04h-0.303
		c0.001-0.002,0.003-0.004,0.004-0.006c4.965-7.929,21.118-15.467,21.118-15.467c-0.014,0.002-0.021,0.005-0.033,0.007
		c-8.707,1.795-16.022,6.639-16.022,6.639c4.308-4.308,9.918-7.521,15.665-9.522c-0.01,0-0.018,0.001-0.022,0.001
		c-4.961,0.218-15.556,5.55-15.556,5.55c2.401-2.401,5.147-4.669,8.239-6.14c-0.016,0.004-0.024,0.007-0.039,0.01
		c-1.067,0.3-2.703,0.963-3.885,0.73c-0.105-0.015-0.216-0.03-0.3-0.104c-0.079-0.065-0.088-0.167-0.06-0.259
		c0-0.002,0.001-0.004,0.002-0.006c0.231-0.71,1.354-1.345,1.911-1.739c1.045-0.741,2.154-1.382,3.269-2.014
		c-0.011,0.002-0.017,0.003-0.022,0.005c-1.543,0.355-3.33,0.955-4.933,0.794c-0.156-0.008-0.304-0.031-0.448-0.093
		c-0.013-0.006-0.029-0.011-0.041-0.019c-0.632-0.342,1.318-1.589,1.445-1.67c1.168-0.751,2.453-1.291,3.704-1.884
		c-1.224,0.326-2.438,0.693-3.687,0.917c-0.568,0.102-1.276,0.299-1.855,0.141c-0.855-0.229,0.737-1.429,0.984-1.592
		c0.99-0.658,2.031-1.268,3.07-1.845c-0.01,0.003-0.021,0.005-0.026,0.008c-1.021,0.289-2.183,0.625-3.252,0.568
		c-1.634-0.088,2.125-2.539,2.49-2.767c-0.399,0.067-2.054,0.458-2.236-0.128c-0.149-0.479,0.801-1.114,1.077-1.338
		c0.737-0.601,1.541-1.114,2.353-1.61c-0.007,0.001-0.013,0.001-0.019,0.002c-0.379,0.048-1.951,0.396-1.951-0.3
		c0.002-0.005-0.004-0.008-0.002-0.014c0-0.008,0.004-0.015,0.006-0.023c0.014-0.108,0.063-0.216,0.143-0.321
		c0.004-0.004,0.008-0.009,0.01-0.014c0.029-0.037,0.059-0.074,0.092-0.109c0.9-1.027,2.424-1.753,3.607-2.391l-0.02,0.001
		l-3.152,0.188c0.004-0.002,0.008-0.004,0.01-0.006c1.785-1.279,5.742-3.86,5.742-3.86c-1.803,0-3.656,0.552-5.363,1.095
		c0.014-0.006,0.029-0.014,0.041-0.021c1.744-0.91,3.662-1.418,5.522-2.021c2.021-0.653,4.034-1.328,6.04-2.019
		c1.938-0.667,3.881-1.345,5.777-2.12c1.396-0.57,3.629-1.318,4.521-2.63c0.008-0.011,0.016-0.022,0.021-0.034
		c0.02-0.03,0.024-0.058,0.037-0.087c0.014-0.042,0.026-0.085,0.021-0.122c-0.001,0-0.001-0.001-0.001-0.001
		c-0.114-0.636-3.247-0.302-3.729-0.271c3.955-0.659,7.793-0.669,11.787-0.493c0.238,1.389,2.021,2.666,3.078,3.459
		c0,0.001,0.008,0.006,0.008,0.006c-5.357-0.392-8.693,2.074-8.824,2.172c-0.002,0.002-0.014,0.009-0.014,0.009
		c4.336-1.05,6.039-0.343,6.145-0.297c0.002,0.001,0.013,0.004,0.013,0.004c-9.158,2.128-14.166,6.257-14.361,6.42
		c-0.004,0.003-0.021,0.016-0.021,0.016c1.675-0.874,3.607-0.987,3.656-0.99c0.002,0,0.01,0,0.01,0
		c-0.75,1.054-1.864,1.999-1.955,2.072c-0.004,0.003-0.018,0.014-0.018,0.014c2.445-1.091,4.521-1.096,4.539-1.096h0.002
		c-0.053,0.652,0.404,0.882,1,0.791c1.48-0.72-1.035-1.32-0.52-2.243c0.484-0.906,1.879-0.662,2.699-0.67
		c1.484,1.044,9.551,2.729,10.074,2.231c0.002-0.001,0.008-0.002,0.01-0.003c-0.635,0.598-0.271,2.095-0.01,2.804
		c0.004,0.007,0.006,0.017,0.01,0.024c1.688-0.679,4.963-1.268,5.691-3.222c0.075-0.256-0.005-0.455-0.345-0.478
		c-0.019,0-0.033-0.001-0.051,0c-0.813-0.021-1.527,0.57-2.339,0.614c0.004-0.003,0.009-0.005,0.011-0.009
		c1.032-1.206,2.515-1.853,4.075-2.012c0.037-0.017,0.07-0.034,0.091-0.053c0.006-0.005,0.019-0.011,0.021-0.017
		c0.01-0.018,0.01-0.044,0.014-0.067c0.011-0.033,0.009-0.071,0.009-0.108c-0.039-0.379-0.281-0.701-0.427-1.041c0,0,0,0,0,0.001
		c0.313,0.625,3.082-2.638,3.123-2.887c0.392-0.141,1.086,0.201,1.324,0.602c0.267,0.399,1.512,0,1.732-0.247
		c0.674-0.657,2.219,3.13,2.379,3.516c0.914,2.19,1.396,4.563,2.428,6.695c0,0.001,0.002,0.004,0.002,0.006h0.021
		c1.228,3.06,13.106,19.641,4.114,20.074c0-0.001,0-0.004,0-0.006c0.017-0.181,0.007-0.333-0.024-0.462
		c0-0.006-0.002-0.013-0.002-0.019c-0.271-1.095-1.853-0.42-2.496-0.179c-0.119,0.051-0.237,0.102-0.356,0.152
		c0.164-0.072,0.328-0.142,0.492-0.212C199.244,135.188,199.18,135.214,199.115,135.24z M185.85,185.68
		C185.855,185.613,185.861,185.557,185.85,185.68L185.85,185.68z M199.121,230.189c0.354-0.19,0.563-0.318,0.66-0.308
		C199.607,230.012,199.385,230.111,199.121,230.189c-0.873,0.479-2.623,1.35-5.666,1.47c-1.107-0.063-2.252-0.039-3.352-0.214
		c-0.338-0.051-1.502-0.441-1.795-0.236c3.293-2.096-0.021,0.016,0,0C191.604,229.113,195.598,231.242,199.121,230.189z
		 M194.416,223.064c0.508,0.031,1.014,0.09,1.52,0.144c0.881,0.095,1.771,0.181,2.656,0.101c0.436-0.177,0.746-0.293,0.936-0.271
		c-1.094,0.778-3.752,1.215-5.104,1.282c-0.022,0.006-0.092,0.011-0.235,0.014c-0.748-0.038-2.438,0.238-2.951-0.468
		c-0.008-0.011-0.021-0.017-0.029-0.024c-0.004-0.003-0.002-0.007-0.004-0.011c-0.002-0.005-0.012-0.011-0.014-0.015
		c-0.152-0.332,1.639-0.666,2.264-0.754c0.096-0.013,0.137-0.02,0.152-0.022c0.022-0.001,0.047-0.001,0.069-0.001
		C193.752,223.045,194.348,223.059,194.416,223.064z M194.113,216.307c0.16-0.1,0.33-0.178,0.504-0.244
		c0.313-0.138,0.682-0.203,1.021-0.207c0.977-0.021,1.93,0.303,2.895,0.406c0.291-0.063,0.541-0.094,0.734-0.063
		c-1.396,0.093-2.756,0.357-4.097,0.801C193.902,216.727,193.887,216.419,194.113,216.307z M187.137,194.107
		c-0.221-0.344-0.42-0.678-0.592-1h23.215h0.002l-1.324,1H187.137z M187.031,217.495
		C187.66,217.419,186.135,217.752,187.031,217.495L187.031,217.495z M185.842,191.329c-0.063-0.331-0.094-0.666-0.096-1.001h26.424
		c-0.295,0.304-0.555,0.639-0.771,1.001H185.842z M186.67,217.602c-0.965,0.457,0.123,2.092-4.01,1.236
		C182.275,218.871,185.387,217.967,186.67,217.602z M181.178,221.93c-0.051-0.225,3.902-1.211,4.287-1.283
		c-0.029-0.01,0.025-0.021,0.281-0.047c0.172,0.014,0.188,0.022,0.146,0.031c0.375,0.135-0.246,0.646-1.147,0.958
		c-1.156,0.333-2.576,0.63-3.728,0.378c0.07-0.023,0.146-0.035,0.224-0.033C181.217,221.939,181.197,221.939,181.178,221.93z
		 M176.283,217.928c-0.4,0.112-0.273,0.086-0.104,0.032c-0.13,0.042-0.222,0.067-0.205,0.062c-2.687,0.861-5.588,0.916-8.197,2.033
		c1.467-0.773,2.998-1.418,4.58-1.923c1.313-0.321,3.274-0.185,4.686-0.483c-0.002,0.002-0.006,0.002-0.008,0.004
		C176,217.873,175.803,218.063,176.283,217.928z M177.006,217.663c-0.307,0.132-0.547,0.215-0.709,0.26
		C176.533,217.84,176.771,217.759,177.006,217.663z M173.152,223.879c-0.004,0.001-0.006,0.001-0.008,0.002
		c-0.008,0.002-0.014,0.004-0.019,0.006c-2.897,0.858-6.08,0.6-8.844,1.942c0.848-0.534,1.76-0.958,2.709-1.276
		c-0.037,0.016-0.076,0.027-0.115,0.037c0.39-0.131,0.776-0.26,1.168-0.388c-0.34,0.11-0.678,0.226-1.017,0.338
		c2.744-0.908,5.681-0.933,8.476-1.624c-0.765,0.357-1.541,0.707-2.346,0.961C173.154,223.878,173.152,223.878,173.152,223.879
		L173.152,223.879z M167.54,232.104c-0.005,0.002-0.011,0.004-0.017,0.004c0.002,0,0.002,0,0.004,0
		c-0.006,0.002-0.01,0.002-0.014,0.004c-0.017,0.005-0.031,0.009-0.048,0.013c-3.725,0.913-7.649,1.062-11.239,2.492
		c4.063-2.849,9.129-2.089,13.653-3.53C169.128,231.496,168.225,231.932,167.54,232.104z M167.768,232.047
		c-0.009,0.002-0.021,0.006-0.033,0.01c0.006-0.002,0.013-0.004,0.019-0.006S167.762,232.049,167.768,232.047z M167.709,232.063
		c-0.018,0.004-0.027,0.008-0.049,0.013c-0.002,0-0.003,0.001-0.004,0.001c0.013-0.004,0.025-0.008,0.041-0.012
		C167.702,232.063,167.705,232.063,167.709,232.063z M165.623,238.325c-0.523,0.346-1.076,0.646-1.666,0.866
		c0.021-0.004,0.049-0.02,0.068-0.02c-0.002-0.001-0.035,0.012-0.096,0.03c0.01-0.007,0.02-0.011,0.026-0.015
		c-0.009,0.002-0.017,0.006-0.022,0.006c0.026-0.012,0.014-0.008-0.015,0.006c-0.135,0.021-0.274,0.076-0.407,0.134
		c0.045-0.015,0.088-0.024,0.133-0.038c-0.289,0.104-0.334,0.117-0.133,0.038c-4.599,1.438-9.505,1.554-14.06,3.147
		c0.002-0.002,0.004-0.002,0.006-0.004C154.205,238.835,160.48,240.755,165.623,238.325c0.141-0.093,0.287-0.171,0.42-0.272
		c-0.053,0.057-0.125,0.107-0.201,0.155c-0.078,0.06-0.119,0.09-0.002,0.001C165.773,238.25,165.701,238.289,165.623,238.325z
		 M163.854,239.232c-0.067,0.021-0.139,0.041-0.205,0.062c0.082-0.026,0.164-0.056,0.246-0.083
		C163.855,239.229,163.816,239.244,163.854,239.232z M157.834,250.303c-0.018,0.032-0.01,0.02-0.002,0.002
		c-0.143,0.282-0.334,0.545-0.549,0.774c-2.295,2.295-6.305,2.72-9.34,3.173c-1.969,0.294-3.947,0.512-5.923,0.76
		c-1.708,0.213-3.62,0.327-5.222,1.01c-0.211-0.422,2.668-1.737,3.004-1.901c2.046-0.999,4.373-1.157,6.609-1.279
		c2.471-0.134,4.93-0.354,7.371-0.769c1.387-0.233,3.795-0.621,4.235-2.252c-0.047,0.166-0.108,0.326-0.186,0.479
		C157.854,250.262,157.881,250.206,157.834,250.303z M121,216.764c-0.014,0-0.027-0.002-0.039-0.004
		c0.005,0.002,0.01,0.002,0.015,0.002c-0.044-0.005-0.036-0.004-0.015-0.002c-5.748-0.598-11.426-1.76-16.317-4.975
		c-0.001-0.001-0.002-0.002-0.002-0.002c-0.5-0.328-1.119-0.774-1.279-1.307c-0.042-0.105-0.052-0.31-0.035-0.4
		c0.115-0.827,1.316-1.809,2.619-2.569c0.095,0.669,0.34,1.327,0.693,1.902c2.922,4.175,9.293,5.021,13.964,5.586
		c6.167,0.745,12.408,1.155,18.612,1.438c11.999,0.549,24.14,0.1,35.892-2.568c0.006-0.002,0.014-0.004,0.021-0.006
		c-14.664,4.742-0.008,0.002,0,0c-8.844,2.865-18.166,3.965-27.431,4.129c-8.887,0.16-17.842-0.348-26.683-1.223
		C121.045,216.768,121.049,216.77,121,216.764z M117.923,221.104c0.051-0.072,0.068-0.101,0.073-0.11
		c0.28-0.438,0.648-1.154,1.139-1.283c-0.186,0.049-0.403,0.683-0.482,0.834c-0.29,0.562-0.66,1.072-1.016,1.593
		c-0.894,1.303-1.813,2.59-2.753,3.857c-1.784,2.41-3.485,4.994-5.818,6.923c-0.001,0.002-0.003,0.004-0.005,0.006
		c1.224-1.681,2.458-3.354,3.698-5.021c1.688-2.271,3.54-4.455,5.152-6.776C117.111,222.092,117.46,221.667,117.923,221.104z
		 M76.646,193.107h14.321h0.001c0.018,0.033,0.04,0.064,0.058,0.101c0.183,0.295,0.337,0.606,0.523,0.899H76.333
		c0.018-0.058,0.022-0.07,0.013-0.041C76.463,193.754,76.549,193.425,76.646,193.107z M148.081,28.406
		c0.313-0.067,0.985-0.211,2.212-0.474c0.063-0.006,0.086-0.005,0.092,0c1.664-0.042,1.553,2.003,0.23,2.512
		c0.273-0.113,0.561-0.197,0.834-0.312c-0.283,0.118-0.574,0.217-0.861,0.324c-0.096,0.101-0.43,0.166-0.797,0.214
		c-0.656,0.155-1.313,0.316-1.965,0.478c-0.502,0.124-1.004,0.246-1.504,0.374c0.017-0.004,0.021-0.005,0,0
		c-0.037,0.009-0.053,0.014-0.081,0.021c0.032-0.009,0.063-0.017,0.079-0.021c-0.795,0.204-1.584,0.417-2.375,0.63
		c2.475-0.522,5.117-0.762,7.615-0.268l-0.582,14.988c-2.295,0-4.584,0.065-6.877,0.184c-0.388,0.048-0.773,0.028-1.162,0.052
		c0.389-0.024,0.774-0.032,1.162-0.052c0.063-0.008,0.123-0.02,0.182-0.031c0.191-0.038,0.348-0.092,0.396-0.179
		c0-0.002-1.611,0.223-1.742,0.261c1.979-0.837,3.977-1.625,5.994-2.359c-6.815,1.704-13.776,2.856-20.664,4.229
		c5.935-2.695,11.872-5.506,18.207-7.141c-11.379,2.889-22.353,7.144-33.177,11.645c9.158-6.389,19.211-11.632,29.985-14.683
		c-13.833,4.035-27.421,9.803-38.64,19.014c7.707-7.662,16.75-14.058,26.813-18.227c-14.481,5.924-28.029,14.789-38.042,26.932
		c0.982-1.965,2.499-3.604,3.865-5.302c1.305-1.623,2.728-3.141,4.135-4.674c2.943-3.207,6.427-6.039,9.939-8.596
		c3.77-2.744,7.801-5.136,11.879-7.388c4.256-2.35,8.647-4.479,13.216-6.149c-11.129,3.72-21.558,9.22-30.555,16.791
		C97.57,58.203,90.581,66.738,85.24,76.208c-0.692,1.228-1.358,2.471-1.995,3.729c2.514-6.163,5.804-12.03,9.74-17.396
		c2.033-2.771,4.246-5.408,6.63-7.884c2.252-2.339,4.646-4.752,7.249-6.705c11.578-9.597,26.833-16.035,41.369-19.578
		C148.184,28.385,148.132,28.396,148.081,28.406z M160.063,27.75l-2.379-0.655C157.957,26.619,161.236,20.942,160.063,27.75z
		 M161.543,25.472c0.938-1.157,0.799,1.068,0.746,1.604l-0.352,1.198l-1.732-0.466C160.563,27.067,160.951,26.109,161.543,25.472z
		 M191.848,69.832c3.447,2.995,6.539,6.493,9.076,10.29c2.654,3.963,5.064,8.582,5.107,13.467c0.006-1.16,0.01-2.319,0.021-3.479
		c-0.021,1.84,0.108,3.722-0.15,5.548c-0.437-0.274-0.887-0.525-1.342-0.764c-4.017-2.12-8.58-3.235-13.047-3.892
		c-5.966-0.876-11.998-0.832-17.957,0.062c-6.029,0.905-11.843,2.646-17.767,4.036c-2.972,0.698-5.983,1.177-8.972,1.807
		c-2.604,0.55-5.34,1.234-7.497,2.882c-1.314-5.96-3.311-11.762-6-17.246c0,0,0,0,0.001,0
		C139.164,80.086,168.557,68.316,191.848,69.832z M162.455,54.091c0.229-0.029,1.617-0.572,3.74-1.134
		c0.629,0.25,1.256,0.511,1.875,0.781C164.836,54.005,162.529,54.081,162.455,54.091z M180.646,63.02c-0.028,0-0.047,0-0.08,0.001
		c-1.715,0.018-3.53-0.163-5.237-0.009c0.601-0.069,1.213-0.317,1.797-0.459c1.476-0.359,2.967-0.649,4.47-0.855l1.713,1.256
		C182.365,62.986,181.477,63.007,180.646,63.02z M184.484,67.343c1.279-0.194,2.568-0.341,3.861-0.427l1.676,1.353
		c-0.002,0-0.002,0-0.004,0c-2.56-0.131-5.097-0.581-7.662-0.581C183.049,67.688,183.801,67.446,184.484,67.343z M168.969,58.442
		c0.002,0,0.004-0.001,0.004-0.001c0.002,0,0.004,0,0.004,0c0.267-0.045,2.358-0.857,5.334-1.521c0.57,0.343,1.17,0.694,1.74,1.058
		C172.068,58.329,169.043,58.432,168.969,58.442z M204.754,98.103c0,0-0.043-0.028-0.096-0.063
		C204.693,98.063,204.711,98.076,204.754,98.103l-0.191,0.162c-1.408,0.981-3.608,0.391-4.17,0.2
		c0.146-0.771,0.39-1.519,0.726-2.228C202.375,96.759,203.615,97.353,204.754,98.103z M204.521,97.952
		C204.35,97.839,204.205,97.74,204.521,97.952L204.521,97.952z M188.574,105.549c-0.383,0.694-1.791,0.801-1.791,0.801
		C187.305,105.845,188.982,104.857,188.574,105.549z M150.713,103.995c1.979-0.737,3.98-1.414,5.988-2.074
		c0.021-0.006,0.027-0.009,0.027-0.009c-1.604,1.661-3.873,2.507-6.019,3.223c-1.944,0.649-3.924,1.213-5.935,1.63
		c-0.039,0.008-0.075,0.016-0.114,0.023C146.242,105.388,148.779,104.715,150.713,103.995z M145.561,103.779
		c0.828-0.677,5.523-2.104,5.523-2.104C149.73,103.006,145.561,103.779,145.561,103.779z M126.135,145.539
		c0.055,0.012-0.039-0.01-0.064-0.014c-0.134-0.029-0.269-0.061-0.405-0.088c0.4,0.084-0.608-0.18-0.714-0.213
		c-0.529-0.177-1.032-0.42-1.514-0.699c-0.802-0.463-1.535-1.041-2.208-1.674c-1.369-1.291-2.505-2.812-3.535-4.376
		c-2.086-3.171-4.044-6.582-4.883-10.321c0.885-0.509-0.819-5.125-0.867-6.047c1.524-1.351,0.353-2.885,0.353-2.885
		c1.276-1.047,1.162-1.723,0.781-2.094l3.277-3.038l0.885,2.276c-0.003,0.003-0.008,0.007-0.011,0.011
		c-0.581,0.683-2.041,1.146-1.857,2.307c0.305,1.14,2.012-0.473,2.455-0.822c0.029,0.063,0.06,0.125,0.084,0.189
		c-1.288,1.115-1.756,3.078-2.276,4.63c-0.241,0.842-1.05,2.593-0.458,3.422c0.129,0.194,0.367,0.212,0.573,0.154
		c-0.025,0.505-0.051,1.011-0.077,1.516c0-0.035,1.958-1.553,2.241-1.535c0,0,0,0,0.001,0c0.4,0.03-0.663,1.44-0.751,1.555
		c-0.455,0.59-1.145,1.184-1.444,1.871c-0.013,0.035-0.027,0.07-0.035,0.104c-0.012,0.047-0.014,0.096-0.007,0.146
		c0.05,0.243,0.34,0.346,0.56,0.333c0.733-0.137,1.266-0.71,1.936-0.972c0.713-0.318,1.461-0.042,1.983,0.493
		c0.012,0.012,0.023,0.024,0.035,0.036c0.512,0.545,0.809,1.213,0.914,1.949c0.016,0.077,0.022,0.156,0.02,0.235
		c0,0.937,0.072,5.021-1.618,4.593c-0.006-0.002-0.012,0-0.019-0.001c1.134,0.322,2.109,0.099,2.911-0.508
		c1.094-0.95,1.591-2.43,2.329-3.637c0.402-0.656,1.934-2.702,2.436-0.926c0.276,0.82,0.243,2.136-0.005,2.905
		c0,0.001,0,0.002-0.001,0.003c-0.055,0.172-0.142,0.401-0.284,0.524c0,0-0.001,0.001-0.001,0.002
		c0.716,0.082,1.433,0.092,2.149,0.02c0.532,0.772,1.703,5.34,1.813,7.059c-0.066,0.104-0.111,0.219-0.133,0.343l-0.02,0.125
		l-0.705,1.972c-0.156,0.218-0.392,0.431-0.626,0.558c-0.979,0.489-2.128,0.678-3.213,0.52
		C126.25,145.563,126.221,145.557,126.135,145.539z M92.623,176.775c0.002,0.004,0.001,0.002,0.003,0.006
		c-0.003-0.006-0.006-0.014-0.009-0.02c2.193-0.045,2.819-0.515,0.895-2.977c2.21-0.322,2.104-1.53,0.591-3.43
		c0.242,0.104,0.603,0.225,0.949,0.246c0.007,0.002,0.013,0,0.02,0.002c0.184,0.01,0.373-0.008,0.54-0.09
		c0.106-0.047,0.201-0.123,0.269-0.218c0.034-0.044,0.053-0.095,0.078-0.144c0.412-0.887-0.279-1.99-0.665-2.769l0.002,0.003
		c0.65,0.274,2.586,1.006,2.135-0.396c-0.542-1.327-1.886-2.479-2.877-3.469c0.352,0.252,3.964,2.793,3.79,1.541
		c-0.194-1.396-1.874-2.729-2.752-3.74c0,0,0.003,0.003,0.004,0.003c0.69,0.42,2.346,1.583,3.182,1.231
		c0.926-0.389-3.377-4.701-3.775-5.102c1.116,0.773,2.894,2.477,4.37,2.344c0.99-0.088-1.729-3.376-1.99-3.688
		c0.612,0.316,1.188,0.697,1.832,0.951c0.357,0.142,1.605,0.457,1.249-0.348c-0.267-0.604-0.83-1.115-1.282-1.58
		c-0.823-0.846-1.706-1.65-2.696-2.297c0.001,0,0.004,0.002,0.006,0.002c1.207,0.643,2.731,1.572,4.141,1.633
		c0.205-0.015,0.396-0.057,0.564-0.144c0.004-0.004,0.01-0.007,0.015-0.011c0.035-0.021,0.046-0.057,0.042-0.101
		c0-0.004,0.002-0.008,0.002-0.012c-0.109-0.615-1.128-1.238-1.59-1.618c-1.308-1.072-2.672-2.079-4.073-3.027h0.003
		c0.955,0.353,1.942,0.621,2.924,0.887c0.955,0.26,1.956,0.697,2.967,0.52c0.017-0.005,0.036-0.006,0.052-0.011
		c0.072-0.017,0.171-0.06,0.194-0.138c0.018-0.043,0.016-0.088-0.005-0.135c-0.201-0.481-0.842-0.847-1.234-1.127
		c-1.08-0.777-2.246-1.425-3.402-2.078c0.879,0.101,1.744,0.297,2.623,0.395c0.502,0.057,2.127,0.303,2.442-0.271
		c0.474-0.865-3.326-2.399-3.87-2.654c0.827,0.238,4.236,1.525,4.643,0.234c0.346-1.127-3.115-2.406-3.858-2.756
		c0.001,0,0.003,0,0.003,0c0.644,0.127,2.905,0.934,3.254,0.006c-0.409-1.123-1.214-1.919-2.414-2.397h0.002
		c0.792,0.077,1.994,0.389,2.706-0.136c0.026-0.021,0.058-0.038,0.079-0.063c0.031-0.034,0.054-0.072,0.069-0.115
		c0.17-0.639-2.341-1.815-2.56-1.924c0.506-0.626,1.606-0.453,2.09-1.059c0.012-0.019,0.026-0.035,0.037-0.055
		c0.08-0.13,0.055-0.291-0.01-0.419c-0.237-0.43-1.014-0.855-1.231-0.989c0.301-0.109,2.619,0.238,2.421-0.381
		c-0.219-0.683-1.272-1.16-1.819-1.549c0.718,0.102,1.975,0.509,2.635,0.029c0-1.241-0.917-1.967-2.036-2.27
		c0,0,2.972-0.741,1.485-2.084c0.257-0.199,3.399-4.812,2.724-5.724l2.419-2.276c0,0,0,0.001,0,0.002
		c-0.489,12.493-0.566,25.223-4.091,37.327c-1.581,5.426-4.132,10.223-6.837,15.146c-2.627,4.78-5.977,10.899-4.402,16.54
		c0.19,0.68,0.473,1.332,0.832,1.939c-0.239-0.379-0.479-0.752,0.074,0.143c0.253,0.389,0.208,0.313,0.085,0.109
		c0.781,1.157,1.842,2.074,3.03,2.795c-0.033-0.019-0.068-0.031-0.1-0.053c0.172,0.105,0.347,0.209,0.521,0.313
		c-0.142-0.077-0.274-0.17-0.412-0.256c3.829,2.246,8.649,2.738,13.003,2.738h0.192v0.002l-0.087,0.59h-0.988
		c-1.691,0-3.385-0.041-5.068-0.213c-0.002,0-0.005,0-0.008-0.002c-4.37-0.438-9.146-2.018-11.254-6.207
		c-1.057-2.104-1.241-4.568-0.927-6.873C92.834,182.376,93.869,179.384,92.623,176.775z M99.295,90.122
		c-0.041,0.018,0.011-0.025,0.233-0.179c0.797-0.479,0.854-0.499,0.664-0.373c1.972-1.152,3.996-2.216,6.078-3.153
		c-2.45,1.132-3.92,3.548-6.12,5.028c0.012-0.007,0.023-0.015,0.035-0.023c-0.01,0.007-0.028,0.019-0.036,0.025
		c-0.006,0.004-0.012,0.008-0.018,0.012c-0.179,0.119-0.357,0.236-0.537,0.354c0.163-0.107,0.326-0.215,0.489-0.323
		c-1.119,0.69-2.41,1.094-3.726,1.137C97.257,91.699,98.242,90.87,99.295,90.122z M96.359,88.913c0.104-0.076,1.2-1.239,2.779-2.22
		c1.915-1.068,3.886-2.036,5.904-2.893c-1.866,0.807-3.036,2.5-4.661,3.638c-0.761,0.586-1.658,1.107-2.615,1.278
		C96.964,88.906,96.371,88.902,96.359,88.913z M108.104,94.529C108.081,94.544,108.085,94.54,108.104,94.529
		c-1.426,0.88-2.615,2.17-3.791,3.345c-0.442,0.413-0.909,0.8-1.406,1.145c0.187-0.122,0.393-0.231,0.57-0.365
		c-0.209,0.159-0.437,0.294-0.661,0.432c0.03-0.022,0.061-0.044,0.091-0.067c-0.103,0.066-0.204,0.133-0.306,0.201
		c0.014-0.008,0.028-0.016,0.042-0.023c-0.052,0.034-0.106,0.063-0.156,0.1c0.038-0.025,0.076-0.051,0.113-0.077
		c-1.083,0.654-2.355,1.05-3.622,1.092c0.899-0.93,1.887-1.76,2.947-2.509c-0.044,0.02,0.006-0.022,0.232-0.177
		c0.806-0.484,0.855-0.5,0.659-0.37c1.97-1.151,3.993-2.213,6.072-3.154c-0.269,0.123-0.529,0.27-0.782,0.426
		C108.155,94.497,108.288,94.416,108.104,94.529z M96.493,117.377l1.856-1.883l0.002-0.002c0.423,1.198,3.434,3.188,2.126,4.601
		l-0.001,0.001c-0.715,0.768-2.076,0.668-2.767,1.516c-0.023,0.032-0.047,0.064-0.068,0.1c-0.109,0.167-0.175,0.398-0.14,0.597
		c0.004,0.029,0.009,0.058,0.016,0.086c0.401,1.423,2.247,1.254,3.229,0.719c1.038-0.551,1.91-1.511,2.462-2.539
		c1.663-3.083-0.567-5.537-3.419-6.566c4.16-4.173,8.527-8.344,11.931-13.179c1.179,3.697,2.445,7.369,3.792,11.008
		c-1.104,0.544-2.086,1.314-2.978,2.158c-0.469,0.492-0.877,1.029-1.184,1.61l-6.221,6.899c-1.74,1.73-3.966,4.172-6.628,4.181
		c-1.037,0.093-2.042-0.221-2.929-1.144C93.27,123.351,94.602,119.359,96.493,117.377z M116.877,141.997
		c0.2-0.145,0.403-0.285,0.602-0.433c0.271,0.264,0.545,0.523,0.826,0.78c0,0,0.001,0,0.001,0.002
		c-1.419,0.778-6.294,4.245-8.075,5.53v-0.002h0.002l0.02-1.12c2.093-1.663,4.337-3.134,6.516-4.681
		C116.54,142.236,116.147,142.518,116.877,141.997z M112.536,143.072c0.066-0.045,0.14-0.096,0.208-0.143
		c-0.057,0.039-0.122,0.084-0.213,0.146c-0.071,0.048-0.11,0.075-0.136,0.093c0.029-0.02,0.079-0.055,0.134-0.091
		c-0.747,0.508-1.496,1.015-2.227,1.544c0.058-0.042,0.542-0.368,0.479-0.443c-0.11-0.131-0.484,0.348-0.489,0.451l-0.001,0.001
		c0.018-0.372,0.018-0.743,0.018-1.112c1.715-1.423,3.673-2.571,5.552-3.763l0.001-0.001c0.181,0.239,0.38,0.468,0.571,0.695
		C115.132,141.322,113.83,142.191,112.536,143.072z M110.205,151.333l0.011-1.323c2.773-2.357,6.002-4.334,9.128-6.205
		c-0.079,0.043-0.135,0.104-0.169,0.184c0-0.002,0.932-0.188,0.602-0.441c0.364,0.273,0.739,0.536,1.112,0.801
		c-2.589,1.049-8.446,5.354-10.683,6.989L110.205,151.333L110.205,151.333z M118.662,123.877c0.031-0.058,0.063-0.117,0.094-0.175
		c-0.035,0.065-0.069,0.13-0.104,0.195c0,0,0,0.001-0.001,0.001c-0.047,0.087-0.095,0.174-0.142,0.261
		c0.321-0.599-0.353,0.411-0.559,0.581c-0.422,0.348-0.919,0.588-1.413,0.816c0.375-0.753,0.819-1.684,1.407-2.336
		c0.028-0.04,0.074-0.087,0.115-0.136c0.134-0.146,0.32-0.349,0.529-0.298c0.398,0.002,0.282,0.585,0.202,0.805
		c-0.046,0.097-0.086,0.202-0.136,0.297C118.654,123.888,118.659,123.881,118.662,123.877z M118.563,120.882
		c-0.195,0.125-0.877,0.59-1.042,0.186c-0.004-0.013-0.009-0.026-0.011-0.041c-0.13-0.548,0.438-1.284,0.845-1.584l0.038-0.038
		l0.001-0.001c0.148,0.423,0.317,0.84,0.505,1.249C118.852,120.688,118.723,120.781,118.563,120.882z M129.566,119.371
		c-0.008,0.002-0.027,0.009-0.076,0.025c-1.426,0.496-0.719,0.252-0.237,0.085c-2.097,0.747-4.684,1.871-6.847,0.891
		c-2.241-1.016-3.171-4.478-3.967-6.568c-2.247-5.902-4.26-11.9-6.066-17.951c-1.836-6.15-3.422-12.367-4.68-18.661
		c-0.855-4.277-1.713-8.608-2.029-12.966c-0.071-0.98-0.528-4.711,1.035-4.909c0.092-0.017,0.188-0.021,0.295,0.001
		c16.33,7.907,26.777,23.212,30.272,40.87c0.957,3.266,6.121,15.849,0.037,16.911C134.683,117.699,132.112,118.514,129.566,119.371z
		 M139.725,57.122c0.447-0.057,0.895-0.114,1.342-0.175c-5.808,0.742-11.56,2.136-16.997,4.323c0.209-0.067,2.598-1.457,5.718-2.324
		c0.002,0,0.002,0,0.004,0c0.002-0.002,0.004-0.002,0.004-0.002c3.64-1.005,7.394-1.493,11.131-1.978
		C140.525,57.015,140.125,57.072,139.725,57.122z M157.623,27.038l-2.021-0.563C156.453,25.075,158.854,21.484,157.623,27.038z
		 M155.797,28.274c0.234,0,0.898,0.029,0.887,0.399c0.002-0.047,0.004,0.064,0.006,0.181c-0.002-0.067-0.006-0.133-0.006-0.181
		c0,1.009-0.287,2.076-0.451,3.066c-0.334,2.013-0.684,4.023-1.035,6.033c-0.487,2.787-0.983,5.572-1.485,8.356L155.797,28.274z
		 M156.688,28.866c0.002,0.078,0,0.156-0.004,0.188C156.691,29.001,156.691,28.933,156.688,28.866z M157.662,66.424
		c-7.877,1.089-15.375,3.797-23.046,5.788c-0.351,0.048-0.703,0.146-1.056,0.258c-0.8,0.2-1.6,0.402-2.405,0.581
		c0.657-0.146,1.314-0.292,1.971-0.439c-0.657,0.219-1.314,0.439-1.971,0.439c0.002,0,0.007-0.003,0.009-0.004
		c1.399-0.524,2.667-1.422,4.031-2.041c1.532-0.694,3.105-1.301,4.715-1.79c-0.411,0.123-0.819,0.251-1.232,0.366
		c0.155-0.044,0.309-0.09,0.463-0.138c-0.044,0.013-0.089,0.026-0.134,0.04c0.326-0.099,0.653-0.195,0.979-0.292
		c-0.039,0.012-0.064,0.02-0.076,0.024c-0.026,0.009,0.047-0.013,0.229-0.067c0.006-0.002,0.01-0.004,0.017-0.005
		c-0.02,0.006-0.042,0.011-0.063,0.017c0.459-0.136,0.916-0.286,1.379-0.408c-0.441,0.117-0.874,0.26-1.311,0.391
		C145.85,67.474,151.799,67.075,157.662,66.424z M150.992,59.913c-5.566,1.044-10.96,2.725-16.4,4.276
		c0.421-0.12,0.841-0.249,1.261-0.373c-2.97,0.862-6.034,1.366-8.973,2.342c0.408-0.136,0.816-0.268,1.224-0.403
		c-0.395,0.12-0.789,0.246-1.177,0.387c8.597-2.941,17.379-5.555,26.432-6.603C152.568,59.647,151.779,59.773,150.992,59.913z
		 M84.2,141.192h-0.887c0.074-0.328,0.141-0.659,0.202-0.99h0.008L84.2,141.192z M85.332,142.98l0.554,1h-3.104l0.189-1H85.332z
		 M86.731,145.773c0.146,0.33,0.286,0.664,0.419,1h-4.875l0.172-1H86.731z M87.79,148.553l0.314,1H81.78l0.17-1H87.79z
		 M88.579,151.344l0.229,0.99h-7.503l0.17-0.99H88.579z M89.149,154.125l0.172,0.998h-8.457l0.152-0.998H89.149z M89.549,156.913
		l0.125,1h-9.217l0.143-1H89.549z M89.827,159.693l0.066,0.992h-9.798l0.014-0.11l0.111-0.882H89.827z M89.987,162.482l0.027,1
		H79.809l0.094-1h0.002H89.987z M90.046,165.264v1H79.648l0.037-1H90.046z M79.723,169.043l-0.037-0.999h10.341l-0.02,0.999H79.723z
		 M89.96,170.828l-0.039,0.997H79.723l0.02-0.997H89.96z M89.837,173.616l-0.05,0.987H79.589l0.057-0.987H89.837z M89.693,176.396
		c-0.001,0.014-0.001,0.025-0.002,0.039c-0.017,0.318-0.031,0.641-0.047,0.961H79.379l0.086-1H89.693z M89.549,179.188l-0.047,0.987
		H79.093c0.038-0.333,0.084-0.665,0.104-0.987H79.2H89.549z M89.425,181.967l-0.038,1H78.732l0.146-1H89.425z M89.349,184.738h0.002
		c-0.004,0.336-0.008,0.673-0.01,1.01H78.295l0.001-0.002l0.171-1.008H89.349z M89.424,187.537L89.424,187.537
		c0.03,0.337,0.067,0.675,0.116,1.008c0,0.002,0,0.002,0,0.002H77.77c0,0,0,0,0-0.002c0.076-0.341,0.143-0.665,0.199-1.008H89.424z
		 M89.903,190.328c0.096,0.343,0.199,0.665,0.303,0.99H77.132l0.249-0.99H89.903z M92.95,195.896
		c0.331,0.354,0.686,0.684,1.057,0.99H75.266l0.431-0.99H92.95z M96.738,198.682v-0.002c0.068,0.034,0.137,0.067,0.205,0.103
		c-0.368-0.188,0.723,0.331,0.847,0.385c0.445,0.188,0.898,0.362,1.358,0.517H73.676c0.229-0.354,0.439-0.679,0.628-1h22.434
		V198.682z M110.041,201.469c-0.094,0.33-0.199,0.663-0.314,0.986H71.783c0.022-0.027,0.043-0.061,0.064-0.092
		c0.005-0.006,0.006-0.008,0.01-0.014c0.209-0.291,0.418-0.586,0.62-0.883h37.564V201.469z M110.762,205.488
		c2.157-1.736,4.224-3.582,6.315-5.397c1.02-0.886,2.033-1.78,2.982-2.743c0.46-0.468,0.906-0.949,1.327-1.453
		c0.118-0.143,0.729-1.021,0.103-0.814c-1.461,0.584-2.778,1.74-4.029,2.676c-1.81,1.352-3.572,2.766-5.373,4.126
		c0.172-0.629,0.325-1.272,0.458-1.923c1.359-1.087,2.836-2.035,4.226-3.083c0.902-0.681,1.797-1.372,2.646-2.114
		c0.521-0.457,1.273-1.021,1.526-1.695c0.212-0.565-0.435-0.121-0.623-0.01c-0.881,0.518-1.736,1.082-2.592,1.641
		c-1.576,1.027-3.117,2.121-4.718,3.109l-0.084,0.037v-0.002c0.086-0.646,0.155-1.305,0.2-1.96c1.441-1.168,3.003-2.176,4.454-3.331
		c0.733-0.584,1.454-1.188,2.109-1.855c0.34-0.348,1.055-0.918,0.894-1.484c0.03,0.109-2.44,1.559-2.661,1.701
		c-1.59,1.044-3.043,2.298-4.693,3.25c0.02-0.495,0.029-1,0.029-1.495c1.4-1.296,3-2.364,4.445-3.608
		c0.543-0.47,2.797-2.084,2.445-3.021c-0.267-0.39-6.621,4.802-6.899,4.991l-0.002-0.059l-0.055-1.505
		c2.112-1.856,4.446-3.521,6.196-5.749c0.51-0.648-0.381-0.354-0.67-0.209c-0.639,0.322-1.208,0.762-1.781,1.186
		c-1.321,0.975-2.547,2.068-3.849,3.068l-0.125-1.541c1.596-1.798,3.568-3.455,4.906-5.462c0.009-0.015,0.02-0.028,0.026-0.042
		c0.011-0.021,0.013-0.035,0.019-0.054c0.008-0.034,0.005-0.062-0.01-0.08c-0.004-0.006-0.009-0.013-0.016-0.017
		c-0.124-0.086-0.402,0.024-0.506,0.058c-0.845,0.286-1.532,0.869-2.263,1.356c-0.805,0.6-1.573,1.25-2.412,1.804l-0.173-1.323
		c0.307-0.322,4.473-4.977,4.348-5.02c0,0,0,0-0.001,0c-1.035-0.354-3.824,3.332-4.498,3.85v-0.004l-0.249-1.787
		c1.081-0.73,1.764-1.691,2.052-2.885c-0.941,0.048-1.705,0.488-2.291,1.322l-0.267-1.789c0.907-0.887,1.876-1.705,2.789-2.586
		c0.619-0.599,2.004-1.597,2.16-2.506c0.049-0.313-0.988,0.237-1.065,0.279c-0.566,0.307-1.12,0.645-1.652,1.005
		c-0.852,0.646-1.626,1.388-2.507,1.993l-0.189-1.234c1.111-1.343,2.282-2.635,3.504-3.875c0.107-0.067,0.182-0.158,0.225-0.271
		l-4.016,2.148c0-0.002,0-0.002,0-0.002c-0.048-0.41-0.101-0.817-0.144-1.229c0.433-0.45,4.204-4.254,3.594-4.654
		c-1.566,0.279-2.824,1.119-3.778,2.521l-0.006-0.09l-0.088-1.352c0.15-0.145,4.846-5.082,4.964-5.011
		c-0.182-0.095-0.37-0.116-0.566-0.065c-1.631,0.225-3.172,2.038-4.495,2.887l-0.001-0.039l-0.036-1.11
		c2.082-1.726,4.243-3.354,6.473-4.888c0.23-0.127,0.319-0.187,0.297-0.188c-0.152-0.034-5.704,2.563-6.819,3.161v-0.027
		l-0.027-1.58c0.859-0.527,8.896-6.104,8.999-5.875c-1.12-2.465-7.88,3.572-9.01,4.439v-0.012l-0.008-1.506
		c2.073-1.357,4.071-2.842,6.074-4.301c0.478-0.349,3.711-3,4.277-2.406c0,0,0.001,0,0.002,0c-1.026-1.021-3.897,0.795-4.817,1.291
		c-1.893,1.021-3.64,2.287-5.536,3.302v-1.181c1.58-1.272,9.226-7.158,12.653-7.687h0.001l0.058,0.044l0.02,0.016
		c2.055,1.099,3.733,1.666,5.122,1.741c1.188,0.912,2.218,2.063,2.979,3.353c-0.364,0.642-0.921,0.867-1.65,0.729c0,0,0,0-0.001,0
		c0.758,0.423,2.361,4.923,3.109,4.462c0.092-0.709,0.474-1.084,1.143-1.135c1.001,0.127,0.91,1.236,0.104,1.568
		c-3.214,1.474-0.631,4.037,1.309,5.25c0.01,0.009,0.021,0.017,0.031,0.021c0.585,0.373,1.025,0.594,1.039,0.586h0.002
		c-0.225,1.361-1.145,4.586,1.084,4.801c0.397-0.283,0.794-0.563,1.191-0.85c0.578-0.688,1.226-1.313,1.933-1.865
		c0.464,0.063,0.928,0.127,1.39,0.189c0.38,0.697-0.083,1.176-0.789,1.564c-0.972,0.588-2.417,1.016-2.792,1.478
		c-0.007,0.013-0.019,0.024-0.025,0.038c-0.008,0.011-0.012,0.021-0.018,0.031c-0.073,0.19,0.124,0.371,0.373,0.51
		c0.543,0.195,1.451,0.25,1.787,0.246c0.407-0.06,2.209-0.176,2.353-0.56c-0.332,0.544-0.766,1.019-1.274,1.394
		c-1.825,1.44-0.095,2.617,1.507,2.938c1.205,0.24,3.287,0.754,4.301-0.215c-0.922,0.789-1.85,1.588-2.883,2.227
		c-1.17,0.724-2.378,1.396-3.43,2.289c0,0,0,0.002-0.001,0.002c0.145-0.166,0.78-0.117,0.986-0.14
		c0.555-0.06,1.105-0.185,1.66-0.255c0.646-0.081,1.865-0.359,2.43,0.104c0.803,0.656-1.018,1.719-1.451,2
		c-0.281,0.183-3.062,1.74-2.874,1.918c0.232,0.068,0.877-0.021,0.974-0.053c0.002,0,0.002,0,0.002,0
		c1.954-0.623,3.655-2.77,5.784-2.746c0.406-0.025,0.804,0.104,1.056,0.44c1.086,1.282-1.237,2.2-2.112,2.487
		c-0.479,0.158-4.433,1.211-3.699,2.195c0.485,0.461,1.896-0.158,2.414-0.339c1.139-0.397,2.244-0.886,3.342-1.386
		c0.361-0.184,2.16-1.424,2.504-1.166l0.002-0.001c0.164,1.206-7.939,5.356-7.93,5.401h-0.002c0.104,0.092,0.227,0.14,0.362,0.143
		c0.99,0.136,2.259-0.621,3.158-0.959c1.521-0.569,2.989-1.314,4.457-2.008c0.728-0.344,1.803-1.143,2.618-1.195
		c0.486-0.044-0.389,0.827-0.454,0.893c-1.048,1.002-2.229,1.881-3.396,2.737c-0.854,0.629-1.754,1.196-2.646,1.772
		c-0.512,0.328-1.885,1.591-2.527,1.42c0-0.002-0.004,0-0.006,0c1.156,0.4,2.895-1.012,3.832-1.535
		c1.512-0.85,2.953-1.895,4.547-2.583c0.002,0,0.002,0,0.002-0.001c0.393-0.169,1.166-0.547,1.586-0.249
		c0.029,0.019,0.053,0.037,0.074,0.06c0.002,0.002,0.004,0.004,0.006,0.008c0.162,0.153,0.07,0.348-0.017,0.508
		c-0.388,0.582-1.06,0.986-1.647,1.332c-1.078,0.636-2.188,1.227-3.293,1.818c-1.652,0.887-3.84,1.664-5.066,3.131
		c-0.229,0.295-0.467,0.683-0.315,1.069v0.002c0.209,0.554,10.226-6.161,11.828-5.366c0.002,0,0.004,0,0.006,0.002
		c-0.554-0.281-1.692,0.969-2.092,1.258c-1.337,0.979-2.644,2-3.953,3.012c-1.211,0.938-2.429,1.865-3.655,2.783
		c-0.923,0.691-1.88,1.619-2.947,2.066c-0.008,0.004-0.017,0.004-0.023,0.008c-0.166,0.094-0.34,0.11-0.518,0.051
		c0.799,0.522,2.147-0.387,2.836-0.752c1.231-0.653,2.449-1.325,3.646-2.037c1.115-0.662,2.223-1.348,3.355-1.977
		c0.984-0.546,2.146-1.462,3.279-1.646c0.01-0.002,0.02,0,0.028-0.002c0.166-0.036,0.326-0.02,0.479,0.054
		c0.093,0.047,0.148,0.104,0.181,0.172v0.002c0.062,0.136,0.008,0.304-0.104,0.479c0,0.002-0.002,0.002-0.002,0.005
		c-0.268,0.42-0.682,0.774-1.086,1.057c-1.504,1.13-3.307,1.877-4.959,2.752c-0.961,0.507-1.918,1.021-2.838,1.599
		c-0.594,0.373-1.533,0.906-1.578,1.709c-0.002,0.021,0.01,0.035,0.023,0.045c0.547,0.32,10.236-4.775,10.861-4.338l0,0
		c0.209,0.147-11.791,6.654-11.959,7.977c0,0.006-0.006,0.014-0.006,0.02c0.034-0.123,0.108-0.215,0.227-0.274
		c0.002-0.001,0.002-0.003,0.004-0.004c0.549-0.376,1.27-0.527,1.895-0.745c1.105-0.387,2.211-0.771,3.322-1.143
		c1.023-0.342,2.047-0.687,3.064-1.041c0.697-0.242,2.024-0.428,2.457-1.086c-1.373,2.193-4.33,2.813-6.578,3.68
		c0,0,0,0-0.002,0.001c-1.637,0.626-3.525,1.269-4.771,2.563c-0.256,0.307-0.521,0.646-0.676,1.016
		c-0.039,0.061-0.033,0.113,0.017,0.158c0.606,0.188,6.883-2.08,6.928-2.006h0.002c0.295,0.932-6.707,5.01-6.326,5.229
		c0.002,0,0,0.002,0,0.002c1.699,0.9,6.869-3.338,8.104-4.143c0.434-0.121,0.863-0.24,1.299-0.359h0.002
		c0.918,0.722-7.271,5.044-7.076,5.826c0.009,0.019-0.01,0.043,0.007,0.06c0.133,0.138,4.303-0.842,4.45-0.515
		c0.013,0.021,0.003,0.049-0.024,0.084c-0.873,0.64-1.59,1.402-2.149,2.313c0.451,0.313,0.951,0.354,1.496,0.111
		c0.004,0,0.008-0.002,0.01-0.002c0.039,0.006-6.646,3.918-6.579,3.771c0.001-0.002,0.003-0.002,0.003-0.004
		c0.51-0.425,0.863-0.949,1.07-1.578c0-0.002-0.002,0-0.002-0.002c-0.111-0.215-4.813,2.36-4.629,1.26
		c0.435-0.342,0.682-0.774,0.74-1.299h-0.002c-0.345-0.129-5.699,2.596-5.479,1.371c0.437-0.451,0.868-0.904,1.249-1.402
		c-0.001,0-0.003,0-0.004,0c-1.746,0.205-3.335,0.896-4.766,2.063l-1.656-0.097c-0.002-0.004-0.002-0.004-0.001-0.007
		c0.102-0.313,0.256-0.604,0.457-0.861c0.323-0.449,0.239-0.652-0.269-0.398c-0.61,0.305-1.184,0.729-1.715,1.15l-1.063-0.097
		c0,0,0,0,0.001-0.003c0.194-0.439,0.389-0.883,0.583-1.323c0,0,0,0-0.001,0c-0.88-0.104-1.568,0.293-2.067,1.19
		c-2.37-0.229-4.455-0.504-6.284-0.777c0-0.001,0-0.001,0.001-0.003c0.917-1.181-0.272-0.552-0.869-0.132
		c-0.953-0.172-1.838-0.334-2.656-0.516c0,0,0.001,0,0.002-0.003c1.11-0.946,2.175-1.967,3.2-3.007
		c0.229-0.232,1.583-1.848,1.942-1.668c-0.928-0.462-2.414,0.969-3.061,1.475c-1.219,0.95-2.418,1.976-3.712,2.821
		c-0.522-0.134-1.027-0.246-1.485-0.397c0,0,0.001-0.002,0.002-0.002c0.743-0.588,7.907-6.229,7.411-6.576c0,0-0.001,0-0.002,0
		c-0.904-0.622-7.557,5.521-8.458,6.271h-0.001c-0.424-0.146-0.854-0.283-1.267-0.464l0.001-0.002
		c1.185-1.054,10.489-7.675,10.02-9.011c0.021,0.072-1.379,0.917-1.505,1.003c-0.956,0.649-1.86,1.374-2.783,2.067
		c-2.351,1.767-4.738,3.508-6.976,5.418c0,0-0.001,0-0.001-0.002c-0.325-0.152-0.644-0.33-0.953-0.513l0.001-0.002
		c0.827-0.798,9.616-8.765,9.4-8.974c0-0.002-0.002,0-0.002-0.002c-0.834-0.793-9.03,6.479-10.037,7.156
		c-0.005,0-0.003-0.004-0.001-0.006C109.979,207.014,110.401,206.271,110.762,205.488z M158.949,221.857
		c2.932-3.582-6.26,9.922-9.514,12.619C149.436,234.477,156.023,225.428,158.949,221.857z M145.02,233.008
		c-0.002,0.001,1.24-1.779,2.849-3.973c0.004-0.008,0.01-0.014,0.014-0.021c0.005-0.005,0.009-0.009,0.011-0.014
		c0.801-1.091,1.688-2.277,2.559-3.402c0.006-0.01,0.014-0.02,0.021-0.027c0.002-0.004,0.01-0.014,0.014-0.016
		c0.511-0.66,1.019-1.33,1.562-1.961c0.091-0.105,0.736-0.826,0.692-0.598c-0.036,0.43-0.459,0.895-0.7,1.229
		c-0.397,0.549-0.765,1.119-1.147,1.678c-0.09,0.129-0.182,0.26-0.271,0.39C148.949,228.639,147.262,231.171,145.02,233.008z
		 M129.811,242.193c0,0.004,11.504-15.414,14.427-18.987C147.182,219.637,133.067,239.52,129.811,242.193z M247.043,135.622h-40.104
		c0.194-0.312,0.35-0.648,0.447-1h39.594L247.043,135.622z M246.898,132.839H207.55c-0.03-0.267-0.094-0.554-0.157-0.855
		c-0.011-0.052-0.021-0.1-0.031-0.153h0.002h39.479L246.898,132.839z M246.689,130.051h-39.881l-0.408-0.991h40.211L246.689,130.051
		z M246.451,127.27h-40.824c-0.174-0.323-0.334-0.653-0.482-0.989h41.193C246.375,126.604,246.434,126.937,246.451,127.27z
		 M246.156,124.482h-41.936c-0.172-0.325-0.334-0.658-0.523-1h42.347L246.156,124.482z M245.805,121.7h-43.053
		c-0.006-0.008-0.008-0.011-0.012-0.019c-0.127-0.253-0.367-0.667-0.529-0.981h43.459L245.805,121.7z M245.395,118.909h-44.137
		l-0.506-0.988h44.49L245.395,118.909z M244.945,116.129h-44.992c-0.174-0.392-0.297-0.705-0.412-1h0.002h45.213
		C244.832,115.463,244.891,115.796,244.945,116.129z M244.23,112.369c0.063,0.323,0.121,0.646,0.203,0.97l0,0h-45.365
		c0.014-0.334,0.02-0.667,0.02-1h45.139C244.229,112.349,244.229,112.359,244.23,112.369z M243.842,110.557
		C243.842,110.558,243.787,110.224,243.842,110.557v0.011h-44.689c0.021-0.267,0.068-0.563,0.24-0.695
		c0.84,0.137,1.701,0.083,2.521-0.143c0.17-0.054,0.141-0.01,0.287-0.161h41.441C243.709,109.892,243.787,110.224,243.842,110.557z
		 M243.832,110.5C243.818,110.431,243.807,110.347,243.832,110.5L243.832,110.5z M243.23,107.769h-41.088l-0.275-0.991h41.127
		C243.061,107.101,243.158,107.434,243.23,107.769z M242.545,104.986h-41.229c-0.166-0.324-0.311-0.658-0.434-1h41.406
		C242.395,104.32,242.473,104.653,242.545,104.986z M241.824,102.197h-41.451c-0.072-0.327-0.117-0.658-0.133-0.99h41.309
		L241.824,102.197z M240.732,98.483C240.779,98.62,240.754,98.55,240.732,98.483L240.732,98.483z M241.023,99.418h-34.605
		c0.295-0.302,0.555-0.637,0.764-1h33.529C240.822,98.749,240.928,99.082,241.023,99.418z M240.166,96.627h-32.328
		c0.078-0.325,0.137-0.655,0.17-0.99h31.826L240.166,96.627z M239.234,93.847h-31.188c-0.021-0.286-0.06-0.61-0.112-1h30.965
		L239.234,93.847z M238.229,90.993C238.205,90.925,238.18,90.851,238.229,90.993L238.229,90.993z M237.898,90.122
		C237.961,90.276,237.926,90.191,237.898,90.122L237.898,90.122z M238.252,91.056H207.58h-0.002
		c-0.064-0.314-0.162-0.646-0.258-0.988h30.557C238.01,90.394,238.133,90.723,238.252,91.056z M236.793,87.276
		c0.15,0.335,0.258,0.667,0.395,1h-30.408c-0.002-0.008-0.006-0.018-0.01-0.026c0.002,0,0.002,0.001,0.002,0.001
		c0-0.271-0.246-0.723-0.344-0.975H236.793C236.945,87.611,236.793,87.276,236.793,87.276z M236.02,85.363
		c0.012,0.024,0.021,0.049,0.03,0.074c0.001,0.002,0.003,0.005,0.003,0.007c-0.02-0.042-0.035-0.075-0.045-0.088
		c0.014,0.024,0.035,0.071,0.051,0.102c0.002,0.003,0.002,0.004,0.004,0.008c0.002,0.007,0.006,0.014,0.008,0.021h-30.338
		l-0.428-0.99h30.355C235.721,84.646,236.023,85.325,236.02,85.363z M234.879,82.705h-30.404c-0.149-0.323-0.332-0.655-0.506-1
		h30.465L234.879,82.705z M233.615,79.925h-30.652c-0.184-0.335-0.408-0.667-0.607-1h30.775L233.615,79.925z M232.229,77.057
		c-0.021-0.047-0.041-0.091-0.026-0.06C232.191,76.976,232.195,76.983,232.229,77.057z M231.777,76.133
		c0.17,0.331,0.332,0.664,0.486,1H201.2l-0.726-1H231.777z M230.844,74.354h-31.748c-0.26-0.334-0.543-0.667-0.818-1h32.023
		L230.844,74.354z M229.275,71.449c0.012,0.021,0.029,0.055,0.063,0.116H196.68l-0.977-1h33.055c0.211,0.335,0.395,0.667,0.58,1
		C229.338,71.565,229.297,71.492,229.275,71.449z M227.74,68.783h-33.92l-1.15-1h34.479L227.74,68.783z M226.043,65.994h-35.52
		l-1.229-1h36.117L226.043,65.994z M224.18,63.087c0.014,0.021,0.037,0.057,0.084,0.128h-37.213l-1.285-1h0.002h37.813
		c0.23,0.326,0.461,0.661,0.684,1C224.264,63.215,224.207,63.129,224.18,63.087z M221.645,59.432c0.25,0.319,0.484,0.649,0.703,0.99
		h-38.992l-1.393-0.99h39.68H221.645z M220.279,57.559c0.018,0.021,0.033,0.046,0.063,0.083h-0.002h-40.975l-1.541-0.998
		l-0.002-0.002H219.6c0.252,0.331,0.5,0.664,0.74,1C220.34,57.641,220.309,57.598,220.279,57.559z M218.215,54.852h-43.391
		c-0.594-0.342-1.211-0.677-1.803-1h0.002h44.373L218.215,54.852z M215.951,52.063h-46.574c-0.801-0.343-1.582-0.678-2.359-0.991
		h48.08C215.375,51.407,215.66,51.738,215.951,52.063z M213.541,49.291h-51.85c-0.935-0.267-1.875-0.503-2.846-0.712v-0.002
		l0.094-0.294h53.68C212.934,48.614,213.24,48.951,213.541,49.291z M209.99,45.501c0.334,0.323,0.656,0.658,0.973,1h-51.518l0.297-1
		H209.99z M208.211,43.712h-47.938l0.261-1h46.657L208.211,43.712z M205.273,40.921h-44.23l0.275-0.99h42.832L205.273,40.921z
		 M202.094,38.148h-40.238l0.271-1h38.756C201.297,37.473,201.699,37.806,202.094,38.148z M198.648,35.361h-36.006l0.274-1h0.002
		h34.406C197.771,34.683,198.203,35.016,198.648,35.361z M165.947,24c0-0.029,0.021-0.058,0.039-0.086l0.188-0.695h12.351v-0.001
		l2.143,0.999l0.004,0.002c-4.934,0-9.865,0-14.801,0L165.947,24z M165.348,26.009h18.873l1.818,1H165.07h-0.002L165.348,26.009z
		 M164.521,28.79h24.566c0.543,0.325,1.084,0.66,1.619,1h-26.482L164.521,28.79z M163.729,31.579h29.703
		c0.48,0.329,0.967,0.661,1.443,1h-31.422L163.729,31.579z M155.925,21.688c0.052,0.01,0.106,0.021,0.151,0.028
		c-0.082-0.015-0.168-0.031-0.254-0.047C155.857,21.676,155.891,21.682,155.925,21.688z M154.986,21.514
		c3.697,0.686,6.113,1.38,8.201,2.38l-0.334,1.143c-2.242-1.229-5.351-2.742-7.943-2.742L154.986,21.514z M154.76,22.409
		c0.16,0.022,0.322,0.038,0.484,0.058c0.389,0.169,0.205,0.108,0.072,0.052c0.543,0.333,0.82,1.599,0.146,3.918l-1.021-0.275
		L154.76,22.409z M154.018,28.475c0.063-0.397,0.463-0.491,0.801-0.392v0.002L152.63,46.91
		C152.641,46.747,153.9,29.062,154.018,28.475z M150.746,21.723c0.018,0.002,0.018,0.006,0.008,0.011
		c-0.037-0.002-0.068-0.01-0.107-0.01C150.693,21.722,150.729,21.721,150.746,21.723z M73.307,92.619
		c0.738-3.356,1.713-6.666,2.923-9.881c-0.567,1.518-1.136,3.036-1.702,4.555c0.881-2.361,1.76-4.722,2.646-7.081
		c-0.311,0.833-0.622,1.665-0.933,2.498c8.107-21.818,25.621-39.941,45.896-50.955c7.827-4.252,16.247-7.483,24.966-9.34
		c-0.172,0.021-0.281,0.025-0.356,0.018c0.25,0,0.967-0.162,1.047-0.174c-0.224,0.045-0.442,0.104-0.666,0.153
		c0.494-0.064,1.297-0.221,2.013-0.37c-0.451,0.075-0.931,0.151-1.347,0.216c0.937-0.19,1.873-0.37,2.813-0.528
		c-0.492,0.083-0.979,0.21-1.469,0.312c0.814-0.136,1.537-0.265,1.615-0.305c0.832,0.042,1.193,0.927,1.271,1.636
		c0.004,0.034,0.008,0.066,0.012,0.1c0.043,0.531,0.025,1.052-0.146,1.562c-0.447,1.505-2.387,1.637-3.666,1.848
		c-11.586,2.638-22.877,6.834-32.996,13.126c-9.57,5.951-17.926,13.743-24.436,22.95c-6.532,9.239-11.148,19.833-13.276,30.956
		c-3.116,10.978-3.516,23.004,0.01,33.949c-0.423,0.806-1.152,1-1.947,0.658c-0.021-0.004-0.054-0.017-0.119-0.049
		c-0.047-0.133-0.124-0.249-0.199-0.342C71.28,116.735,70.697,104.385,73.307,92.619z M70.504,204.242h38.528h0.001
		c-0.15,0.341-0.314,0.674-0.495,0.998h-0.219c-0.568-1.143-1.904-0.307-2.601-0.004c-0.011,0.005-0.016,0.008-0.028,0.014v-0.01
		H69.783C70.021,204.908,70.277,204.575,70.504,204.242z M64.326,212.609h35.489l-1.533,0.988h-34.69H63.59L64.326,212.609z
		 M62.316,215.393h33.092l-1.688,1h-32.1L62.316,215.393z M59.813,219.122C59.917,218.947,59.856,219.05,59.813,219.122
		L59.813,219.122z M59.783,219.171c0.204-0.337,0.413-0.669,0.628-1H90.54h0.002c-0.63,0.347-1.265,0.675-1.904,1h-0.002H59.783z
		 M88.521,230.902c0,0,3.523-5.067,6.455-8.637C97.911,218.693,91.778,228.21,88.521,230.902z M100.222,231.01
		c-0.797,1.424-1.873,2.746-2.848,4.051c-0.888,1.188-1.831,2.353-2.91,3.373c0.143-0.09,0.049,0.022-0.744,0.676
		c-0.07-0.28,0.571-0.809,0.722-1.021c0.544-0.767,1.094-1.526,1.648-2.284c1.272-1.74,2.532-3.492,3.924-5.139
		c0.167-0.223,0.573-1.01,0.91-0.975C100.89,229.688,100.319,230.857,100.222,231.01z M65.649,210.82h-0.002l0.734-1h34.881
		c-0.043,0.322-0.028,0.682,0.047,1H65.649z M102.042,208.029H67.715l0.742-1.002h34.528c-0.343,0.31-0.657,0.643-0.941,1.002
		H102.042z M102.368,227.523c0-0.321,0.475-0.608,0.637-0.854c1.002-1.324,2.019-2.646,3.083-3.924
		c0.322-0.417,0.671-0.857,1.046-1.229c0.093-0.093,0.417-0.5,0.489-0.418c-0.011,0.037-0.024,0.088-0.042,0.166
		c-0.11,0.229-0.287,0.418-0.428,0.629C105.9,223.896,104.231,226.077,102.368,227.523z M105.958,243.092
		c0,0,11.495-15.419,14.427-18.988C123.317,220.531,109.214,240.415,105.958,243.092z M120.089,240.882
		c0,0,7.941-10.722,13.015-16.911C136.039,220.4,123.345,238.197,120.089,240.882z M151.484,258.423
		c-0.316,0.604-0.793,1.052-1.422,1.322c0.143-0.065,0.283-0.13,0.424-0.192c0.002-0.002,0.008-0.004,0.008-0.004
		c0.002,0,0.004-0.001,0.006-0.002c0.004-0.002-0.008,0.003-0.014,0.006c-0.012,0.006-0.033,0.016-0.078,0.036
		c-0.01,0.005-0.02,0.009-0.027,0.013c0.275-0.125-0.484,0.313-0.316,0.146c-0.018,0.009-0.03,0.019-0.049,0.021
		c-0.008,0.002-0.012,0.004-0.018,0.006c-0.135,0.063-0.271,0.125-0.406,0.186c0.137-0.063,0.27-0.121,0.402-0.186
		c-6.996,3.149-14.958,2.48-22.118,5.07c-0.001,0-0.002,0.002-0.003,0.002c1.674-1.566,0.001,0,0,0
		c1.674-1.566,23.423-7.498,23.828-7.021C151.65,258.041,151.574,258.236,151.484,258.423
		C151.477,258.441,151.574,258.236,151.484,258.423z M168.705,258.076c-0.031,0.04-0.063,0.078-0.098,0.117
		c-0.258,0.277-0.611,0.527-0.939,0.718c-1.232,0.84-2.775,1.323-4.188,1.752c0.377-0.112,0.754-0.222,1.129-0.337
		c-0.836,0.259-1.68,0.488-2.514,0.752c0.758-0.232-0.443,0.129-0.479,0.141c-0.367,0.107-0.732,0.217-1.101,0.321
		c-0.733,0.212-1.471,0.414-2.213,0.593c-0.58,0.141-2.324,0.754-2.883,0.305c-0.104-0.013-0.137-0.09-0.041-0.271
		c2.57-0.957,10.697-5.479,13.33-4.16C168.727,258.02,168.723,258.044,168.705,258.076z M168.75,252.766
		c-1.514,0.601-3.209,0.965-4.795,1.32c-0.23,0.053-2.467,0.52-2.359,0.079c1.73-0.206,8.648-4.626,10.475-3.295
		c0.041,0.026,0.054,0.063,0.05,0.103C172.129,251.277,171.146,252.012,168.75,252.766z M175.232,244.209
		c-0.021,0.037-0.578,0.643-0.396,0.497c-0.08,0.063-0.16,0.132-0.239,0.198c0.055-0.045,0.106-0.09,0.161-0.135
		c-0.342,0.277-0.827,0.435-1.26,0.502c-0.004,0-0.011,0-0.015,0.002c-0.301,0.041-0.606,0.053-0.909,0.029
		c0.353-0.088,0.694-0.177,0.622-0.162c-1.596,0.205-3.391,1.291-5.018,1.129c-0.146,0.01-0.271-0.037-0.375-0.143
		c-0.076,0.029-0.125,0.018-0.147-0.041c-0.044-0.104,0.075-0.188,0.143-0.236c0.013-0.013,0.027-0.029,0.039-0.037
		c0.027-0.02,0.06-0.031,0.086-0.047c0.386-0.248,0.851-0.345,1.291-0.43c0.027-0.006-0.389,0.053-0.43,0.07
		c0.211-0.104,0.512-0.135,0.741-0.17c1.492-0.518,4.836-2.245,5.953-1.52C175.416,243.902,175.328,244.063,175.232,244.209z
		 M178.457,237.559c-0.355,0.197-0.936,0.133-1.305,0.061c-0.002,0-0.004-0.002-0.006-0.002c0.121-0.016,0.24-0.034,0.36-0.061
		c-0.103,0.027-0.334,0.039-0.43,0.049c-0.099,0.021-0.156,0.026-0.201,0.037c-1.039,0.191-2.274,0.478-2.862,0.467
		c-0.054,0.013-0.689,0.058-0.646-0.031c0.049-0.021,0.098-0.043,0.146-0.063c1.328-0.035,3.855-2.425,5.342-1.429
		C178.898,237.068,178.766,237.393,178.457,237.559z M178.434,228.141c-0.061,0.027-0.106,0.023-0.146-0.011
		c-0.09-0.394,4.32-1.466,4.848-1.321c0.102,0.041,0.201,0.084,0.301,0.127c-0.096-0.033-0.19-0.076-0.283-0.117
		c0.818,0.354-0.567,0.742-0.83,0.802c0.033-0.004-0.022,0.011-0.262,0.054C180.865,227.828,179.648,228.249,178.434,228.141z
		 M185.645,257.813c0.117-0.064,0.144-0.115,0.103-0.149c-0.181-0.165-1.718-0.047-1.772,0.054c-0.047,0.057,0.352,0.104,1.659,0.1
		c0.003,0,0.005,0,0.007,0s0.002,0,0.002,0c-4.209,0.021-4.951-0.285-4.951-0.285s0,0,0.002-0.002c2.604-1.219-0.002,0.002,0,0
		c2.604-1.219,4.973-1.176,7.813-1.361c0,0,0,0,0.002,0C187.557,256.747,186.613,257.281,185.645,257.813z M195.783,249.076
		c-2.033,1.305-4.641,1.548-6.996,1.631c-0.027,0.001-0.055,0.002-0.082,0.002c-1.924,0.063-3.875,0.098-5.795-0.078
		c-0.01-0.001-0.018-0.002-0.025-0.002c-0.438-0.035-0.885-0.068-1.311-0.188c0.047-0.024,0.059-0.031,0.076-0.043
		c0.117-0.062-0.117,0.063-0.076,0.043c4.564-2.474,10.111-1.146,15.025-2.039C196.66,248.521,196.219,248.818,195.783,249.076z
		 M184.354,242.439c0.367,0.052,0.888,0.125,1.15,0.162C185.322,242.576,184.959,242.525,184.354,242.439z M198.973,241.035
		c-0.791,0.432-1.543,0.859-2.404,1.148c-0.944,0.4-0.575,0.244-0.008,0.002c-3.944,1.32-8.735,0.738-12.604,0.197h-0.002
		c0-0.367,1.287-0.695,1.555-0.787c1.074-0.373,2.152-0.564,3.291-0.55c1.984-0.058,3.971,0.142,5.955,0.104
		c1.699-0.03,3.965,0.031,5.416-1.004C199.797,240.479,199.396,240.771,198.973,241.035z M200.734,199.68H195
		c-1.047-0.188-2.008-0.554-2.865-0.998h9.99C201.668,199.029,201.18,199.361,200.734,199.68z M204.619,196.891h-15.045
		c-0.35-0.32-0.688-0.652-1.021-0.99h17.444L204.619,196.891z M217.256,225.148c-1.201,0.705-2.938,1.035-4.264,1.061
		c-0.979,0.204-4.455,0.951-4.783,0.738c-0.021,0-0.035-0.006-0.037-0.032c1.133-1.287,1.063-1.093,0.75-0.688
		c2.373-1.815,5.928-1.304,8.73-1.334C217.547,224.973,217.414,225.061,217.256,225.148z M222.764,216.348
		c-0.086,0.248-0.102,0.293-0.092,0.262C222.689,216.559,222.771,216.32,222.764,216.348c-0.102,0.289-0.295,0.557-0.516,0.764
		c-0.273,0.273-0.621,0.479-0.971,0.644c-1.875,1-4.207,0.966-6.254,1.306c0.207-0.029,0.416-0.056,0.625-0.074
		c-2.015,0.265-3.984,0.772-6.021,0.854c-0.355,0.047-0.73,0.086-1.088,0.029c-0.242-0.039-0.592-0.412-0.424-0.122
		c-0.051-0.087-0.115-0.175-0.129-0.276c3.1-3.492,10.871-1.137,14.811-3.238C222.787,216.266,222.775,216.305,222.764,216.348z
		 M229.869,204.145c-0.002,0-0.004,0.002-0.006,0.004c-1.564,1.268-3.287,2.32-5.152,3.084c-0.01,0.006-0.02,0.012-0.029,0.016
		c-5.303,2.161-11.152,1.48-16.32-0.729l-0.44-0.437l-0.004-0.004c0,0,5.776,2.071,12.174,0.592c0.002,0,0.005,0,0.007,0
		c0,0-2.214-0.444-4.013-1.188c-0.002,0-0.006-0.002-0.008-0.002c0,0,0.737-0.002,3.271-1.17c0.01-0.004,0.018-0.01,0.022-0.015
		c0,0-2.246,0.888-5.054-0.748c-0.002-0.001-0.002-0.002-0.004-0.004c0,0,3.863,0.444,6.523-1.032
		c0.002-0.003,0.006-0.004,0.012-0.006c-2.223,0.225-4.824,0.116-6.85-0.896c0,0,1.797,0.149,4.313-0.588
		c0.002,0,0.002-0.002,0.004-0.002c0,0-1.616-0.444-2.229-0.74c-0.002,0-0.002-0.002-0.002-0.002s1.033-0.6,1.797-0.896
		c0.002,0,0.002-0.001,0.004-0.001c-1.154-0.186-2.211-0.762-2.986-1.637c0-0.001-0.002-0.002-0.004-0.006
		c0,0,4.615,0.298,6.847-1.637c0.541,0.762,0.19,1.547-0.591,1.935h0.004c0.021,0.002,1.791,0.144,2.822-0.149
		c0.229,0.791-0.022,1.637-0.74,2.084h0.002c0.013,0.002,2.076,0.15,3.414-0.59v0.002c-0.004,0.016-0.301,0.896-1.481,1.48
		c0,0,0.004,0.003,0.007,0.003c0.03,0.004,2.094,0.298,4.014-0.595c0.348,0.834,0.19,1.86-0.726,2.23h0.009
		c0.041-0.002,2.075-0.082,3.877-0.654C231.77,202.719,230.676,203.49,229.869,204.145z M239.076,191.277
		c-0.006,0.016-0.008,0.019-0.016,0.041l0,0h-16.123c-0.183-0.354-0.406-0.691-0.666-0.99h0.002h17.119
		c-0.097,0.333-0.22,0.666-0.332,0.99C239.061,191.318,239.068,191.299,239.076,191.277z M239.994,188.545h-20.549
		c-1.48-0.434-2.953-0.434-4.428,0h-29.332c0-0.336-0.019-0.672,0-1.008h54.621L239.994,188.545z M240.869,185.757h-55.027
		c0.033-0.344,0.102-0.681,0.199-1.011h55.125C241.07,185.089,240.984,185.424,240.869,185.757z M241.689,182.967h-54.851h-0.002
		c0.033-0.053,0.065-0.104,0.101-0.156c0,0.018-0.017,0.037-0.029,0.06c0.215-0.323,0.455-0.627,0.73-0.901h54.309L241.689,182.967z
		 M242.434,180.176v0.014h-51.858c0.901-0.254,1.776-0.59,2.627-1h49.469C242.602,179.521,242.527,179.844,242.434,180.176z
		 M243.117,177.396h-46.613c0.412-0.293,0.793-0.627,1.137-1h45.715C243.291,176.729,243.213,177.063,243.117,177.396z
		 M243.756,174.604h-44.918c0.15-0.313,0.258-0.646,0.393-0.984h44.726h0.002C243.908,173.95,243.832,174.273,243.756,174.604z
		 M244.328,171.825v0.011h-44.688c0.063-0.335,0.111-0.669,0.148-1.008h44.729C244.459,171.159,244.402,171.493,244.328,171.825z
		 M244.85,169.043h-45.098c-0.037-0.333-0.076-0.666-0.133-0.999h45.402C244.965,168.377,244.93,168.702,244.85,169.043z
		 M245.338,166.264h-46.109l-0.272-1h46.519L245.338,166.264z M245.727,163.484h-47.385c-0.135-0.354-0.258-0.694-0.391-1h47.928
		L245.727,163.484z M246.102,160.688h-48.897c0.534-0.231,1.021-0.568,1.428-0.992h47.582h0.002L246.102,160.688z M246.396,157.913
		h-46.699c0.103-0.328,0.183-0.66,0.236-1h46.574L246.396,157.913z M246.652,155.123h-46.682c-0.021-0.331-0.074-0.666-0.113-0.998
		h46.871C246.707,154.457,246.689,154.803,246.652,155.123z M246.936,151.352c-0.037,0.33-0.037,0.66-0.059,0.98
		c0.002-0.002,0.004-0.033,0.006-0.068c0.002-0.019,0.004-0.039,0.006-0.054c-0.004,0.019-0.006,0.056-0.01,0.124h-0.002h-47.438
		c-0.112-0.354-0.223-0.695-0.354-0.99h0.002h47.853C246.938,151.346,246.938,151.35,246.936,151.352z M247.002,149.553h-47.574
		c0.195-0.313,0.354-0.646,0.469-1h47.164L247.002,149.553z M247.117,146.773h-46.889c0.021-0.324,0-0.657-0.037-1h46.961
		C247.137,146.105,247.117,146.439,247.117,146.773z M247.174,143.984v-0.01h-0.001c0.002-0.016,0.007-0.084,0.009-0.121
		C247.18,143.875,247.178,143.912,247.174,143.984z M247.172,143.975h-47.295c-0.037-0.334-0.059-0.656-0.059-1h47.373
		C247.191,143.314,247.191,143.635,247.172,143.975z M199.973,141.192C200.037,140.858,199.973,141.192,199.973,141.192
		c0.064-0.334,0.123-0.667,0.195-0.99h47.004c0,0.317,0.002,0.624,0.02,0.942c-0.012-0.209-0.002-0.002,0.002,0.048H199.973z"/>
	<path d="M254.885,133.321c-0.512-9.282-1.828-18.52-3.959-27.569c-5.385-22.877-16.086-44.592-31.854-62.104
		c-10.234-11.367-22.67-20.8-36.559-27.25c-1.379-0.579-2.773-1.134-4.109-1.788c0.768,0.366,1.572,0.636,2.348,0.983
		c-0.809-0.356-1.621-0.698-2.438-1.032c-0.226-0.108-0.443-0.227-0.656-0.356c0.209,0.128,0.426,0.246,0.646,0.353
		c-11.466-4.693-23.81-7.268-36.21-7.219c-12.36,0.049-24.636,2.651-36.05,7.364c-20.617,8.513-38.216,23.539-51.237,41.52
		c-13.955,19.27-22.309,41.909-25.305,65.455c-3.138,24.666-0.62,50.188,7.693,73.644c7.616,21.49,20.307,41.342,37.702,56.217
		c16.645,14.232,37.537,23.628,59.522,24.927c23.491,1.388,46.92-6.256,66.026-19.761c18.361-12.979,32.59-31.088,41.676-51.594
		C252.051,182.701,256.229,157.755,254.885,133.321z M235.215,213.729c-11.242,21.222-28.287,39.166-49.67,50.25
		c-21.232,11.008-46.958,14.045-69.957,7.174c-23.554-7.034-43.853-22.465-58.125-42.368
		c-14.052-19.599-22.797-42.822-25.736-66.738c-2.884-23.466-0.559-47.21,6.919-69.638c7.313-21.93,20.364-42.777,38.327-57.519
		c9.232-7.576,19.522-13.709,30.742-17.847c11.35-4.174,23.348-6.249,35.436-6.213c24.647,0.072,48.479,10.202,66.568,26.763
		c1.907,1.747,3.764,3.564,5.543,5.443c16.747,17.835,27.795,40.012,33.45,63.717c2.896,12.128,4.162,24.725,4.015,37.188
		C252.434,168.216,246.592,192.256,235.215,213.729z"/>
</g>
</svg>
