<?xml version="1.0" encoding="UTF-8" standalone="no"?>
<svg
   version="1.1"
   id="Layer_3"
   x="0px"
   y="0px"
   width="283.46px"
   height="283.46px"
   viewBox="0 0 283.46 283.46"
   enable-background="new 0 0 283.46 283.46"
   xml:space="preserve"
   sodipodi:docname="cookie-no.svg"
   inkscape:version="1.2.2 (b0a8486541, 2022-12-01)"
   xmlns:inkscape="http://www.inkscape.org/namespaces/inkscape"
   xmlns:sodipodi="http://sodipodi.sourceforge.net/DTD/sodipodi-0.dtd"
   xmlns="http://www.w3.org/2000/svg"
   xmlns:svg="http://www.w3.org/2000/svg"><defs
   id="defs15" /><sodipodi:namedview
   id="namedview13"
   pagecolor="#ffffff"
   bordercolor="#000000"
   borderopacity="0.25"
   inkscape:showpageshadow="2"
   inkscape:pageopacity="0.0"
   inkscape:pagecheckerboard="0"
   inkscape:deskcolor="#d1d1d1"
   showgrid="false"
   inkscape:zoom="1.0477135"
   inkscape:cx="329.76574"
   inkscape:cy="128.85203"
   inkscape:window-width="1920"
   inkscape:window-height="1015"
   inkscape:window-x="0"
   inkscape:window-y="0"
   inkscape:window-maximized="1"
   inkscape:current-layer="Layer_3" />
<path
   id="path2492"
   style="display:inline;fill:#000000;fill-rule:evenodd;stroke-width:6.7724;stroke-linecap:round;stroke-linejoin:round;stroke-opacity:0.990916;paint-order:markers stroke fill"
   d="M 141.72852 7.0820312 L 141.73047 7.0839844 C 112.81405 7.0839844 86.020828 16.276911 64.054688 31.851562 L 98.789062 66.039062 C 101.39735 65.202242 104.1721 64.742188 107.05469 64.742188 C 115.51076 64.742188 123.07298 68.633385 128.05078 74.716797 C 131.87779 79.39367 134.17773 85.36464 134.17773 91.865234 C 134.17773 94.597196 133.76067 97.231976 133.00586 99.720703 L 140.47461 107.07227 L 170.08398 77.927734 C 168.57218 76.393136 167.22991 74.672635 166.12891 72.765625 C 161.11108 64.074515 161.61151 53.152691 167.4043 44.941406 C 168.50926 43.375355 168.86185 41.398368 168.36523 39.546875 C 167.86926 37.69538 166.57765 36.159482 164.83789 35.355469 C 156.08864 31.311501 150.34891 22.837364 149.86133 13.236328 C 149.68826 9.8336287 146.90264 7.1493886 143.49609 7.1054688 L 142.96875 7.0957031 C 142.55673 7.0887031 142.14248 7.0820312 141.72852 7.0820312 z M 32.015625 17.578125 A 15.825558 15.825558 0 0 0 20.863281 22.300781 L 19.484375 23.701172 A 15.825558 15.825558 0 0 0 19.662109 46.078125 L 116.51758 141.41406 L 19.664062 236.75 A 15.825558 15.825558 0 0 0 19.484375 259.12891 L 20.863281 260.52734 A 15.825558 15.825558 0 0 0 43.242188 260.70312 L 140.47461 164.99609 L 237.70898 260.70312 A 15.825558 15.825558 0 0 0 260.08789 260.52734 L 261.46484 259.12891 A 15.825558 15.825558 0 0 0 261.28711 236.75 L 164.43164 141.41406 L 261.28711 46.078125 A 15.825558 15.825558 0 0 0 261.46484 23.701172 L 260.08789 22.300781 A 15.825558 15.825558 0 0 0 237.70898 22.123047 L 140.47461 117.83203 L 43.240234 22.123047 A 15.825558 15.825558 0 0 0 32.015625 17.578125 z M 29.865234 66.880859 C 15.486664 88.300144 7.0839844 114.0507 7.0839844 141.73047 C 7.0839844 169.24607 15.394534 194.85018 29.617188 216.19336 L 53.261719 192.91797 C 53.256903 192.70837 53.234375 192.50371 53.234375 192.29297 C 53.234375 177.33698 65.401422 165.16797 80.357422 165.16797 C 80.707951 165.16797 81.04719 165.21331 81.394531 165.22656 L 105.58594 141.41406 L 48.478516 85.203125 C 45.880536 88.021559 42.192695 89.818019 38.066406 89.818359 C 36.03531 89.818359 34.06019 89.373568 32.246094 88.556641 C 34.340376 84.26223 36.683926 80.111691 39.25 76.117188 L 29.865234 66.880859 z M 111.33398 78.388672 L 120.46484 87.376953 C 119.02754 83.099404 115.64042 79.761627 111.33398 78.388672 z M 204.70703 112.5293 L 175.36328 141.41406 L 182.42969 148.36914 C 190.28673 150.05199 197.17844 154.36122 202.10156 160.36523 C 205.44468 164.44216 207.85443 169.29928 209.08008 174.60352 L 237.0293 202.11328 C 236.6159 200.78329 236.37109 199.38825 236.37109 197.94727 C 236.37109 190.11307 242.74458 183.74023 250.57812 183.74023 C 252.33728 183.74023 254.03638 184.06289 255.63086 184.67188 C 252.44904 193.0838 248.33589 201.03598 243.46094 208.44531 L 252.83984 217.67578 C 267.67439 196.04071 276.37695 169.88625 276.37695 141.73047 C 276.37695 141.32039 276.37008 140.9127 276.36328 140.50391 L 276.35352 139.9668 C 276.31222 136.55764 273.62727 133.76749 270.22266 133.5957 C 260.61646 133.11071 252.1364 127.37223 248.0918 118.61914 C 247.2878 116.87935 245.75123 115.58646 243.90039 115.08984 C 242.04888 114.59322 240.07255 114.94387 238.50586 116.04883 C 234.17515 119.10345 228.8664 120.78647 223.55859 120.78711 C 219.0613 120.78711 214.60875 119.59034 210.68359 117.32422 C 208.42571 116.02062 206.43047 114.38905 204.70703 112.5293 z M 140.47461 175.75586 L 63.683594 251.34375 C 85.718471 267.07866 112.65106 276.37695 141.73047 276.37695 C 170.16997 276.37695 196.55971 267.48977 218.32031 252.38086 L 181.99805 216.62891 C 179.77597 217.0747 177.4802 217.31641 175.12891 217.31641 C 164.44549 217.31641 154.87315 212.48263 148.4707 204.89258 C 143.3502 198.82143 140.25586 190.98854 140.25586 182.44336 C 140.25586 180.28532 140.48038 178.18153 140.85742 176.13086 L 140.47461 175.75586 z M 154.31055 189.375 C 156.53269 196.02907 161.84674 201.28022 168.55078 203.39062 L 154.31055 189.375 z M 137.33008 251.93164 C 142.86459 251.79236 148.21705 254.91346 150.64453 260.26367 C 151.37138 261.86566 151.77858 263.54636 151.88281 265.25 C 142.39768 265.86094 132.94368 265.34979 123.70703 263.7793 C 124.48547 259.21793 127.47048 255.17599 131.83594 253.19531 C 133.6195 252.38608 135.48524 251.97807 137.33008 251.93164 z " />
</svg>
