<?xml version="1.0" encoding="UTF-8" standalone="no"?>
<svg
   version="1.1"
   id="Layer_3"
   x="0px"
   y="0px"
   width="283.46px"
   height="283.46px"
   viewBox="0 0 283.46 283.46"
   enable-background="new 0 0 283.46 283.46"
   xml:space="preserve"
   sodipodi:docname="cookie.svg"
   inkscape:version="1.2.2 (b0a8486541, 2022-12-01)"
   xmlns:inkscape="http://www.inkscape.org/namespaces/inkscape"
   xmlns:sodipodi="http://sodipodi.sourceforge.net/DTD/sodipodi-0.dtd"
   xmlns="http://www.w3.org/2000/svg"
   xmlns:svg="http://www.w3.org/2000/svg"><defs
   id="defs15" /><sodipodi:namedview
   id="namedview13"
   pagecolor="#ffffff"
   bordercolor="#000000"
   borderopacity="0.25"
   inkscape:showpageshadow="2"
   inkscape:pageopacity="0.0"
   inkscape:pagecheckerboard="0"
   inkscape:deskcolor="#d1d1d1"
   showgrid="false"
   inkscape:zoom="2.095427"
   inkscape:cx="5.0109119"
   inkscape:cy="46.291281"
   inkscape:window-width="1920"
   inkscape:window-height="1015"
   inkscape:window-x="0"
   inkscape:window-y="0"
   inkscape:window-maximized="1"
   inkscape:current-layer="Layer_3" />
<path
   id="rect1159"
   style="fill:#000000;fill-rule:evenodd;stroke-width:6.7724;stroke-linecap:round;stroke-linejoin:round;stroke-opacity:0.990916;paint-order:markers stroke fill"
   d="m 141.72967,7.0830607 c -74.243974,0 -134.6461743,60.4035283 -134.6461743,134.6474893 0,74.24397 60.4022003,134.64683 134.6461743,134.64683 74.24397,0 134.64683,-60.40286 134.64683,-134.64683 0,-0.41008 -0.007,-0.81802 -0.0138,-1.22681 l -0.009,-0.53714 c -0.0413,-3.40916 -2.72614,-6.1983 -6.13077,-6.37009 -9.60622,-0.48499 -18.0873,-6.22503 -22.13192,-14.97814 -0.804,-1.73979 -2.33978,-3.0326 -4.19062,-3.52922 -1.85151,-0.49662 -3.82773,-0.14442 -5.39442,0.96054 -4.33071,3.05462 -9.64009,4.73698 -14.9479,4.73762 -4.49731,0 -8.94847,-1.19735 -12.87363,-3.46347 -8.69112,-5.01782 -13.71842,-14.72621 -12.80657,-24.733467 0.17372,-1.908965 -0.50969,-3.796926 -1.8652,-5.15182 -1.35619,-1.356159 -3.24993,-2.036994 -5.15117,-1.865858 -0.77173,0.07039 -1.55707,0.105852 -2.33396,0.105852 -9.2168,0 -17.80012,-4.947823 -22.39884,-12.913079 -5.01783,-8.691128 -4.51667,-19.612862 1.27612,-27.824163 1.10496,-1.566055 1.45782,-3.542265 0.9612,-5.393762 -0.49597,-1.851499 -1.7888,-3.387262 -3.52856,-4.191277 C 156.08819,31.31229 150.34952,22.836581 149.86194,13.235527 149.68887,9.8328207 146.90235,7.1493307 143.4958,7.1054107 l -0.52728,-0.009 c -0.41202,-0.007 -0.82534,-0.0138 -1.2393,-0.0138 z M 107.05416,64.741885 c 8.45609,0 16.01867,3.890829 20.99649,9.974253 3.82701,4.676883 6.12683,10.648453 6.12683,17.149061 0,14.956061 -12.16726,27.123971 -27.12332,27.123971 -8.280434,0 -15.701164,-3.73441 -20.680914,-9.60279 -4.01364,-4.73047 -6.44306,-10.845556 -6.44306,-17.521181 0,-14.956042 12.16792,-27.123314 27.123974,-27.123314 z m -59.664764,0.150557 c 3.0514,2.649069 4.88428,6.518203 4.88428,10.717835 0,7.834197 -6.37338,14.20762 -14.20758,14.208267 -2.0311,0 -4.0051,-0.445385 -5.8192,-1.262314 4.1377,-8.484521 9.2309,-16.419211 15.1425,-23.663788 z m 59.664764,12.76515 c -7.833534,0 -14.207604,6.373437 -14.207604,14.207607 0,7.834194 6.37342,14.207611 14.207604,14.207611 7.8342,0 14.20761,-6.373417 14.20761,-14.207611 0,-7.83417 -6.37341,-14.207607 -14.20761,-14.207607 z m 68.07489,69.912478 c 10.8591,0 20.57291,4.99028 26.97342,12.79605 4.9339,6.01689 7.89998,13.7065 7.89998,22.07669 0,19.22928 -15.64476,34.87339 -34.8734,34.87339 -10.68344,0 -20.25539,-4.83386 -26.65784,-12.42393 -5.12052,-6.07115 -8.21556,-13.90426 -8.21556,-22.44946 0,-19.2293 15.64476,-34.87274 34.8734,-34.87274 z m 0,12.9157 c -12.10742,0 -21.95703,9.84961 -21.95703,21.95704 0,12.10678 9.84961,21.95769 21.95703,21.95769 12.10743,0 21.95703,-9.85091 21.95703,-21.95769 0,-12.10743 -9.8496,-21.95704 -21.95703,-21.95704 z m -94.770864,4.6824 c 8.45543,0 16.01868,3.89083 20.996494,9.97426 3.827,4.67685 6.12683,10.64912 6.12683,17.14971 0,14.95604 -12.167304,27.12332 -27.123324,27.12332 -8.28106,0 -15.70182,-3.73378 -20.68091,-9.60213 -4.01363,-4.73046 -6.44306,-10.84558 -6.44306,-17.52119 0,-14.95601 12.16794,-27.12397 27.12397,-27.12397 z m 0,12.91637 c -7.83417,0 -14.2076,6.37342 -14.2076,14.2076 0,7.83417 6.37343,14.20761 14.2076,14.20761 7.83418,0 14.20761,-6.37344 14.20761,-14.20761 0,-7.83418 -6.37343,-14.2076 -14.20761,-14.2076 z m 170.219774,5.65543 c 1.75916,0 3.45872,0.32328 5.0532,0.93227 -3.36268,8.89008 -7.73497,17.2885 -12.98146,25.05101 -3.83217,-2.59353 -6.27935,-6.9819 -6.27935,-11.77568 0,-7.8342 6.37405,-14.2076 14.20761,-14.2076 z m -113.24864,68.19125 c 5.53453,-0.13928 10.8873,2.98236 13.31478,8.33259 0.72685,1.60199 1.13508,3.28316 1.23931,4.9868 -9.48515,0.61094 -18.93989,0.0991 -28.17656,-1.47139 0.77844,-4.56137 3.76331,-8.60303 8.12877,-10.58371 1.78356,-0.80923 3.64886,-1.21786 5.4937,-1.26429 z" />
</svg>
