<?xml version="1.0" encoding="UTF-8" standalone="no"?>
<!-- Generator: Adobe Illustrator 15.1.0, SVG Export Plug-In . SVG Version: 6.00 Build 0)  -->

<svg
   version="1.1"
   id="Layer_1"
   x="0px"
   y="0px"
   width="283.465px"
   height="283.465px"
   viewBox="1108.268 1108.268 283.465 283.465"
   enable-background="new 1108.268 1108.268 283.465 283.465"
   xml:space="preserve"
   sodipodi:docname="database-backup.svg"
   inkscape:version="1.2.2 (b0a8486541, 2022-12-01)"
   xmlns:inkscape="http://www.inkscape.org/namespaces/inkscape"
   xmlns:sodipodi="http://sodipodi.sourceforge.net/DTD/sodipodi-0.dtd"
   xmlns="http://www.w3.org/2000/svg"
   xmlns:svg="http://www.w3.org/2000/svg"><path
   id="path7774"
   d="M 1250.0648 1115.3553 C 1186.5119 1115.3553 1132.6529 1130.4327 1132.6529 1154.1306 L 1132.6529 1338.446 L 1132.6529 1348.022 C 1132.6529 1369.5649 1188.6669 1384.6437 1250.0648 1384.6437 C 1311.4628 1384.6437 1367.4768 1370.6419 1367.4768 1348.022 L 1367.4768 1154.1306 C 1368.5548 1131.5117 1313.6178 1115.3553 1250.0648 1115.3553 z M 1250.0648 1121.8197 C 1315.7718 1121.8197 1359.9338 1137.9747 1359.9338 1153.0557 C 1359.9348 1169.2127 1315.7718 1184.2917 1250.0648 1184.2917 C 1184.3579 1184.2917 1140.1922 1169.2143 1140.1922 1154.1343 C 1140.1922 1139.0533 1184.3579 1121.8197 1250.0648 1121.8197 z M 1250.0648 1126.3974 C 1220.2669 1126.3974 1192.5055 1130.048 1171.8926 1136.679 C 1162.9366 1139.56 1155.6419 1142.9351 1150.8029 1146.4341 C 1146.9699 1149.2051 1144.7736 1152.0123 1144.7736 1154.1343 C 1144.7736 1156.1913 1146.9368 1158.8497 1150.7078 1161.4287 C 1155.4968 1164.7047 1162.7822 1167.8314 1171.7792 1170.4744 C 1192.0652 1176.4324 1219.8679 1179.714 1250.0648 1179.714 C 1280.4438 1179.714 1308.2362 1176.3854 1328.3212 1170.3464 C 1337.3202 1167.6404 1344.5927 1164.4185 1349.3487 1161.0265 C 1353.2217 1158.2625 1355.356 1155.4307 1355.356 1153.0557 C 1355.356 1150.9657 1353.1763 1148.2342 1349.3743 1145.5602 C 1344.5603 1142.1722 1337.2679 1138.9208 1328.2919 1136.1598 C 1307.8349 1129.8648 1280.0548 1126.3974 1250.0648 1126.3974 z M 1140.1922 1164.9022 C 1153.1182 1178.9052 1197.2829 1191.8347 1250.0648 1191.8347 C 1302.8468 1191.8347 1347.0078 1181.0618 1359.9338 1165.9808 L 1359.9338 1220.9171 C 1355.6258 1235.9971 1312.5408 1249.9995 1250.0648 1249.9995 C 1187.5889 1249.9995 1143.4242 1234.9201 1140.1922 1220.9171 L 1140.1922 1164.9022 z M 1144.7736 1174.4379 L 1144.7736 1220.2845 C 1145.2166 1221.5265 1146.7876 1224.0956 1152.3166 1227.4546 C 1157.5946 1230.6596 1165.1511 1233.7196 1174.1741 1236.3066 C 1194.6711 1242.1836 1221.6229 1245.4218 1250.0648 1245.4218 C 1278.8048 1245.4218 1305.6216 1242.3251 1325.5716 1236.7051 C 1344.9366 1231.2501 1353.583 1224.6975 1355.356 1220.1785 L 1355.356 1175.8017 C 1345.5441 1182.1957 1331.9459 1186.4173 1321.0049 1189.0193 C 1300.6569 1193.8553 1276.1278 1196.4124 1250.0648 1196.4124 C 1237.1348 1196.4124 1224.2934 1195.6488 1211.8964 1194.1418 C 1200.2134 1192.7208 1189.158 1190.673 1179.037 1188.054 C 1164.674 1184.338 1152.9156 1179.6399 1144.7736 1174.4379 z M 1331.93 1199.3996 C 1337.261 1199.3996 1341.5973 1203.7359 1341.5973 1209.0669 C 1341.5973 1214.3969 1337.261 1218.7343 1331.93 1218.7343 C 1326.6 1218.7343 1322.2626 1214.3969 1322.2626 1209.0669 C 1322.2626 1203.7359 1326.6 1199.3996 1331.93 1199.3996 z M 1397.934 1220.95 A 7.9601769 9.6713594 90 0 0 1388.1972 1228.855 A 7.9601769 9.6713594 90 0 0 1397.7987 1236.8696 L 1492.6036 1237.4108 C 1503.4149 1237.4725 1507.4886 1237.9091 1508.5744 1238.3724 C 1510.379 1239.142 1511.8389 1240.3696 1512.7572 1241.8788 C 1513.3086 1242.7849 1513.7793 1246.122 1513.7042 1255.0379 L 1513.3459 1297.9157 L 1481.7187 1271.5243 A 7.9601769 9.6713594 90 0 0 1468.044 1271.4439 A 7.9601769 9.6713594 90 0 0 1467.949 1282.7017 L 1515.9675 1322.7787 A 7.9601769 9.6713594 90 0 0 1522.7865 1325.148 A 7.9601769 9.6713594 90 0 0 1529.6421 1322.8555 L 1578.3334 1283.3306 A 7.9601769 9.6713594 90 0 0 1581.2146 1277.7181 A 7.9601769 9.6713594 90 0 0 1578.4285 1272.0764 A 7.9601769 9.6713594 90 0 0 1564.7538 1271.996 L 1532.6879 1298.029 L 1533.0462 1255.1513 C 1533.1213 1246.2353 1533.6739 1240.6775 1530.0663 1234.749 C 1527.3264 1230.2463 1522.908 1226.5535 1517.4593 1224.2297 C 1510.3074 1221.1784 1503.5502 1221.5528 1492.7388 1221.4911 L 1397.934 1220.95 z M 1140.1922 1229.5351 C 1153.1182 1245.692 1196.2059 1255.3853 1250.0648 1255.3853 C 1302.8458 1255.3853 1347.0078 1244.616 1359.9338 1229.5351 L 1359.9338 1282.3141 C 1355.6258 1297.3951 1312.5408 1311.3965 1250.0648 1311.3965 C 1187.5889 1311.3965 1143.4242 1296.3171 1140.1922 1282.3141 L 1140.1922 1229.5351 z M 1355.356 1239.3523 C 1345.5441 1245.7463 1331.9459 1249.9716 1321.0049 1252.5736 C 1300.6569 1257.4106 1276.1278 1259.9667 1250.0648 1259.9667 C 1223.0709 1259.9667 1198.4068 1257.5494 1178.7409 1252.9794 C 1168.7789 1250.6644 1160.2106 1247.8236 1153.2746 1244.5296 C 1150.1036 1243.0236 1147.2656 1241.4149 1144.7736 1239.7179 L 1144.7736 1281.6816 C 1145.2166 1282.9236 1146.7876 1285.4926 1152.3166 1288.8516 C 1157.5946 1292.0556 1165.1511 1295.1203 1174.1741 1297.7073 C 1194.6711 1303.5842 1221.6229 1306.8188 1250.0648 1306.8188 C 1278.8048 1306.8188 1305.6216 1303.7258 1325.5716 1298.1058 C 1344.9366 1292.6508 1353.583 1286.0945 1355.356 1281.5755 L 1355.356 1239.3523 z M 1331.93 1264.0288 C 1337.261 1264.0288 1341.5973 1268.3688 1341.5973 1273.6998 C 1341.5973 1279.0298 1337.261 1283.3635 1331.93 1283.3635 C 1326.6 1283.3635 1322.2626 1279.0298 1322.2626 1273.6998 C 1322.2626 1268.3688 1326.6 1264.0288 1331.93 1264.0288 z M 1140.1922 1289.8535 C 1153.1182 1306.0104 1196.2059 1316.7823 1250.0648 1316.7823 C 1302.8458 1316.7823 1347.0114 1306.0131 1359.9374 1290.9321 L 1359.9374 1348.022 C 1356.7064 1363.1019 1312.5398 1377.1044 1250.0648 1377.1044 C 1187.5899 1377.1044 1143.4242 1362.0249 1140.1922 1348.022 L 1140.1922 1289.8535 z M 1144.7736 1300.0985 L 1144.7736 1347.3894 C 1145.2166 1348.6314 1146.7876 1351.2005 1152.3166 1354.5595 C 1157.5946 1357.7645 1165.1511 1360.8244 1174.1741 1363.4114 C 1194.6711 1369.2884 1221.6229 1372.5267 1250.0648 1372.5267 C 1278.9248 1372.5267 1305.8878 1369.431 1325.9848 1363.81 C 1335.0418 1361.277 1342.5795 1358.2411 1347.7875 1355.0311 C 1351.9804 1352.4471 1354.645 1349.7716 1355.356 1347.4516 L 1355.356 1300.7493 C 1345.5441 1307.1433 1331.9459 1311.3686 1321.0049 1313.9706 C 1300.6569 1318.8086 1276.1268 1321.3673 1250.0648 1321.3673 C 1223.3758 1321.3673 1198.6913 1318.76 1178.6824 1313.828 C 1168.7624 1311.383 1160.2 1308.4113 1153.227 1304.9943 C 1150.077 1303.4513 1147.2536 1301.8145 1144.7736 1300.0985 z M 1331.93 1328.6617 C 1337.261 1328.6617 1341.5973 1332.998 1341.5973 1338.329 C 1341.5973 1343.659 1337.261 1347.9964 1331.93 1347.9964 C 1326.6 1347.9964 1322.2626 1343.659 1322.2626 1338.329 C 1322.2626 1332.998 1326.6 1328.6617 1331.93 1328.6617 z M 1385.4951 1384.6437 C 1375.6141 1384.6437 1367.5755 1392.6848 1367.5755 1402.567 L 1367.5755 1416.1832 C 1367.523 1416.6526 1367.4914 1417.1275 1367.4914 1417.6092 L 1367.4914 1580.9409 L 1400.029 1440.6404 C 1401.8206 1432.9085 1409.8331 1426.8523 1418.2668 1426.8523 L 1614.5859 1426.8523 L 1614.5859 1417.6128 C 1614.5859 1410.584 1608.8666 1404.8632 1601.84 1404.8632 L 1467.4078 1404.8632 C 1466.9507 1404.2194 1466.3858 1403.6596 1465.7186 1403.2215 L 1439.0128 1385.6456 C 1438.017 1384.9906 1436.8678 1384.6437 1435.6965 1384.6437 L 1385.4951 1384.6437 z M 1211.9915 1423.2253 A 7.9601769 9.6713594 90 0 0 1205.1322 1425.5178 L 1156.4409 1465.039 A 7.9601769 9.6713594 90 0 0 1153.5598 1470.6515 A 7.9601769 9.6713594 90 0 0 1156.3459 1476.2968 A 7.9601769 9.6713594 90 0 0 1170.0205 1476.3736 L 1202.0902 1450.3442 L 1201.7282 1493.222 C 1201.6531 1502.1379 1201.1041 1507.6957 1204.7118 1513.6243 C 1207.4516 1518.1269 1211.8664 1521.8198 1217.3151 1524.1435 C 1224.467 1527.1948 1231.2279 1526.8167 1242.0392 1526.8785 L 1336.8441 1527.4196 A 7.9601769 9.6713594 90 0 0 1346.5809 1519.5183 A 7.9601769 9.6713594 90 0 0 1336.9757 1511.5 L 1242.1745 1510.9588 C 1231.3631 1510.8971 1227.2858 1510.4605 1226.2 1509.9972 C 1224.3954 1509.2276 1222.9355 1508 1222.0171 1506.4908 C 1221.4658 1505.5847 1220.995 1502.2476 1221.0702 1493.3317 L 1221.4321 1450.4539 L 1253.0594 1476.849 A 7.9601769 9.6713594 90 0 0 1266.734 1476.9257 A 7.9601769 9.6713594 90 0 0 1266.8291 1465.6716 L 1218.8069 1425.5946 A 7.9601769 9.6713594 90 0 0 1211.9915 1423.2253 z M 1418.2668 1435.0096 C 1413.6297 1435.0096 1408.9142 1438.4317 1407.9742 1442.4831 L 1374.4384 1587.0799 C 1374.0774 1588.6401 1374.3205 1590.0495 1375.1185 1591.0543 C 1375.9679 1592.1239 1377.4007 1592.7106 1379.1587 1592.7106 L 1581.2402 1592.7106 C 1585.5834 1592.7106 1590.5135 1589.0897 1591.7887 1584.9555 L 1636.5092 1440.3552 C 1636.8267 1439.3269 1637.0247 1437.8558 1636.1619 1436.6879 C 1635.374 1435.6205 1633.8184 1435.0096 1631.895 1435.0096 L 1418.2668 1435.0096 z "
   transform="matrix(0.53417691,0,0,0.53417691,510.31692,526.70728)" /><defs
   id="defs7789" /><sodipodi:namedview
   id="namedview7787"
   pagecolor="#ffffff"
   bordercolor="#000000"
   borderopacity="0.25"
   inkscape:showpageshadow="2"
   inkscape:pageopacity="0.0"
   inkscape:pagecheckerboard="0"
   inkscape:deskcolor="#d1d1d1"
   showgrid="false"
   inkscape:zoom="1.047695"
   inkscape:cx="-199.0083"
   inkscape:cy="301.6145"
   inkscape:window-width="1920"
   inkscape:window-height="1015"
   inkscape:window-x="0"
   inkscape:window-y="0"
   inkscape:window-maximized="1"
   inkscape:current-layer="Layer_1" />

</svg>
