<?xml version="1.0" encoding="UTF-8" standalone="no"?>
<svg
   version="1.1"
   id="Layer_1"
   x="0px"
   y="0px"
   width="283.465px"
   height="283.465px"
   viewBox="1108.268 1108.268 283.465 283.465"
   enable-background="new 1108.268 1108.268 283.465 283.465"
   xml:space="preserve"
   sodipodi:docname="database-tables.svg"
   inkscape:version="1.2.2 (b0a8486541, 2022-12-01)"
   xmlns:inkscape="http://www.inkscape.org/namespaces/inkscape"
   xmlns:sodipodi="http://sodipodi.sourceforge.net/DTD/sodipodi-0.dtd"
   xmlns="http://www.w3.org/2000/svg"
   xmlns:svg="http://www.w3.org/2000/svg"><defs
   id="defs194" /><sodipodi:namedview
   id="namedview192"
   pagecolor="#ffffff"
   bordercolor="#000000"
   borderopacity="0.25"
   inkscape:showpageshadow="2"
   inkscape:pageopacity="0.0"
   inkscape:pagecheckerboard="0"
   inkscape:deskcolor="#d1d1d1"
   showgrid="false"
   inkscape:zoom="1.4816644"
   inkscape:cx="190.66396"
   inkscape:cy="216.64825"
   inkscape:window-width="1920"
   inkscape:window-height="1015"
   inkscape:window-x="0"
   inkscape:window-y="0"
   inkscape:window-maximized="1"
   inkscape:current-layer="Layer_1" />
<path
   id="path180"
   style="display:inline;stroke-width:0.951273"
   d="m 1246.6444,1115.3554 c -60.4556,0 -111.6889,14.3447 -111.6889,36.888 v 175.3341 9.1077 c 0,20.1086 51.3189,34.2633 108.424,34.7885 v -7.1715 c -57.6749,-0.5205 -98.2336,-14.5451 -101.2507,-27.617 v -55.3311 c 9.2235,11.5289 34.5909,20.1756 68.3167,23.7771 v -5.2125 c -39.6793,-4.3279 -65.9163,-15.3301 -68.3186,-25.738 v -50.2096 c 9.2237,11.5292 34.5918,19.5998 68.3186,22.9133 v -5.3719 c -39.6793,-4.3277 -65.9163,-15.3305 -68.3186,-25.7378 v -53.2848 c 12.2962,13.3207 54.3081,25.6182 104.5175,25.6182 50.2101,0 92.2214,-10.2471 104.5176,-24.5932 v 52.2598 c -1.888,6.6087 -11.6824,12.9815 -27.4254,17.9533 h 7.4258 a 2.7963933,2.7963933 0 0 1 2.4373,1.4521 c 7.9531,-3.3042 14.0221,-7.0785 17.5623,-11.209 v 50.2096 c -0.7383,2.5844 -2.7148,5.13 -5.7611,7.5721 h 12.9344 v -129.5094 c 1.0255,-21.5169 -51.2347,-36.888 -111.6909,-36.888 z m 0,6.1482 c 62.5053,0 104.5176,15.371 104.5176,29.7166 9e-4,15.3697 -42.0123,29.7146 -104.5176,29.7146 -62.5046,0 -104.5175,-14.3443 -104.5175,-28.6895 0,-14.3462 42.0129,-30.7417 104.5175,-30.7417 z m 0,4.3565 c -28.3453,0 -54.7564,3.4737 -74.3643,9.7815 -8.5196,2.7406 -15.4552,5.95 -20.0585,9.2785 -3.6462,2.6354 -5.7382,5.3066 -5.7382,7.3252 0,1.9567 2.058,4.4845 5.6452,6.9379 4.5557,3.1163 11.4865,6.0923 20.0451,8.6065 19.2976,5.6677 45.7458,8.7887 74.4707,8.7887 28.8987,0 55.3385,-3.1635 74.4441,-8.9083 8.5605,-2.5741 15.4774,-5.6418 20.0016,-8.8685 3.6843,-2.6293 5.7154,-5.3222 5.7154,-7.5814 0,-1.9882 -2.074,-4.5879 -5.6908,-7.1316 -4.5794,-3.2229 -11.5141,-6.3141 -20.0527,-8.9406 -19.4602,-5.9882 -45.8889,-9.2879 -74.4176,-9.2879 z m -100.1592,45.6994 v 43.6115 c 0.4214,1.1815 1.9157,3.6268 7.1752,6.8221 5.0209,3.0489 12.2104,5.9615 20.7931,8.4224 10.4615,2.9996 22.7248,5.2483 35.992,6.714 v -0.6055 a 2.7963933,2.7963933 0 0 1 2.7961,-2.796 h 92.8074 c 4.3648,-0.8847 8.5607,-1.8465 12.4238,-2.9347 18.4214,-5.1892 26.6461,-11.4222 28.3327,-15.721 v -42.2163 c -9.3333,6.0824 -22.2679,10.1005 -32.6758,12.5757 -19.3558,4.6004 -42.6923,7.0329 -67.4853,7.0329 -12.2993,0 -24.5167,-0.7266 -36.3089,-2.1602 -11.1137,-1.3517 -21.6306,-3.3 -31.2579,-5.7914 -13.663,-3.5349 -24.8472,-8.005 -32.5924,-12.9535 z m 178.0353,23.7467 c 5.0713,0 9.1969,4.1256 9.1969,9.1968 0,5.0703 -4.1256,9.195 -9.1969,9.195 -5.0702,0 -9.1949,-4.1247 -9.1949,-9.195 0,-5.0712 4.1247,-9.1968 9.1949,-9.1968 z m 22.285,38.0041 c -3.8167,2.4872 -8.2452,4.612 -12.847,6.4444 v 41.9981 h 3.4471 c 5.4146,-3.01 8.4807,-5.9313 9.3999,-8.2744 z m -200.3203,0.3493 v 39.9175 c 0.4214,1.1815 1.9157,3.627 7.1752,6.8222 5.0209,3.0479 12.2104,5.9614 20.7931,8.4224 10.4615,2.9995 22.7248,5.2482 35.992,6.714 v -44.2797 c -11.5407,-1.1181 -22.2025,-2.7862 -31.647,-4.9809 -9.4766,-2.2022 -17.6289,-4.9073 -24.2269,-8.0408 -3.0159,-1.4326 -5.7158,-2.9604 -8.0864,-4.5747 z m 66.7564,1.9153 a 0.94962677,0.94962677 0 0 0 -0.9491,0.9491 v 99.1456 a 0.94962677,0.94962677 0 0 0 0.9491,0.9491 h 30.1379 v -52.0699 a 2.7963933,2.7963933 0 0 1 2.7961,-2.796 h 85.9359 v -45.2288 a 0.94962677,0.94962677 0 0 0 -0.9491,-0.9491 z m 96.2907,7.0272 h 7.1866 7.6194 c 1.4692,0 2.7543,1.2852 2.7543,2.7543 v 9.1836 c 0,1.4689 -1.2851,2.7542 -2.7543,2.7542 h -11.3323 -5.1024 -74.5997 v 0.019 h -14.3164 c -1.4691,0 -2.7543,-1.287 -2.7543,-2.7562 v -9.1817 c 0,-1.469 1.2852,-2.7543 2.7543,-2.7543 h 10.7021 c -0.01,-0.01 -0.01,-0.01 -0.01,-0.017 z m -60.4942,22.0363 v 0 h 16.5278 c 1.4691,0 2.7561,1.2852 2.7561,2.7543 v 5.5087 c 0,1.4004 -1.1694,2.6344 -2.5511,2.7467 -0.125,0.018 -0.2512,0.028 -0.3797,0.028 h -16.5278 c -1.469,0 -2.7543,-1.2851 -2.7543,-2.7543 v -5.5104 c 0,-1.4004 1.1678,-2.6324 2.5493,-2.7448 0.1251,-0.019 0.2511,-0.03 0.3797,-0.03 z m 29.3824,0 h 16.5278 c 1.4692,0 2.7562,1.2872 2.7562,2.7562 v 5.5087 c 0,1.4692 -1.287,2.7543 -2.7562,2.7543 h -16.5278 c -1.469,0 -2.7543,-1.2851 -2.7543,-2.7543 v -5.5087 c 0,-1.469 1.2853,-2.7562 2.7543,-2.7562 z m 29.3844,0 h 16.5278 c 1.4691,0 2.7543,1.2872 2.7543,2.7562 v 5.5087 c 0,1.4692 -1.2852,2.7543 -2.7543,2.7543 h -16.5278 c -1.4691,0 -2.7562,-1.2851 -2.7562,-2.7543 v -5.5087 c 0,-1.469 1.2871,-2.7562 2.7562,-2.7562 z m -88.3239,0.021 h 16.5278 c 1.4691,0 2.7543,1.2852 2.7543,2.7544 v 5.5104 c 0,1.4692 -1.2852,2.7543 -2.7543,2.7543 h -16.5278 c -1.469,0 -2.7562,-1.2851 -2.7562,-2.7543 v -5.5104 c 0,-1.4692 1.2872,-2.7544 2.7562,-2.7544 z m 0,18.3652 h 16.5278 c 1.4691,0 2.7543,1.2852 2.7543,2.7543 v 5.5087 c 0,1.4686 -1.2852,2.7543 -2.7543,2.7543 h -16.5278 c -1.469,0 -2.7562,-1.2857 -2.7562,-2.7543 v -5.5087 c 0,-1.4691 1.2872,-2.7543 2.7562,-2.7543 z m 26.6946,0.5752 a 0.9496269,0.9496269 0 0 0 -0.9491,0.9491 v 99.1456 a 0.9496269,0.9496269 0 0 0 0.9491,0.951 h 117.9208 a 0.9496269,0.9496269 0 0 0 0.9491,-0.951 v -99.1456 a 0.9496269,0.9496269 0 0 0 -0.9491,-0.9491 z m 16.9776,5.5485 v 0 h 79.8484 7.1866 7.6194 c 1.4692,0 2.7543,1.2852 2.7543,2.7543 v 9.1817 c 0,1.469 -1.2851,2.7543 -2.7543,2.7543 h -11.3323 -5.1024 -74.5979 c -1e-4,0.01 0,0.011 0,0.021 h -14.3163 c -1.4692,0 -2.7543,-1.2852 -2.7543,-2.7543 v -9.1835 c 0,-1.4692 1.2851,-2.7543 2.7543,-2.7543 h 10.7002 c -0.01,-0.01 -0.01,-0.01 -0.01,-0.019 z m -116.668,1.9513 v 44.9839 c 0.4214,1.1815 1.9157,3.6274 7.1752,6.8221 5.0209,3.0489 12.2104,5.9596 20.7931,8.4205 18.7075,5.3639 43.0851,8.385 68.926,8.6237 v -21.484 h -30.1379 a 2.7963933,2.7963933 0 0 1 -2.7961,-2.7961 v -26.1555 c -11.4725,-1.2066 -22.1492,-3.002 -31.702,-5.3568 -9.4365,-2.3257 -17.5843,-5.1528 -24.2174,-8.4033 -2.9965,-1.4678 -5.6818,-3.0221 -8.0409,-4.6545 z m 72.9958,10.2884 h 16.5278 c 1.4691,0 2.7543,1.2852 2.7543,2.7542 v 5.5105 c 0,1.4692 -1.2852,2.7544 -2.7543,2.7544 h -16.5278 c -1.469,0 -2.7562,-1.2852 -2.7562,-2.7544 v -5.5105 c 0,-1.469 1.2872,-2.7542 2.7562,-2.7542 z m 63.0359,9.7967 h 16.5277 c 1.4692,0 2.7543,1.2851 2.7543,2.7542 v 5.5105 c 0,1.4004 -1.1695,2.6325 -2.5512,2.7448 -0.1249,0.019 -0.2511,0.029 -0.3796,0.029 h -16.5278 c -1.469,0 -2.7543,-1.2853 -2.7543,-2.7543 v -5.5087 c 0,-1.4003 1.1678,-2.6325 2.5493,-2.7448 0.1251,-0.019 0.2531,-0.03 0.3816,-0.03 z m 29.3824,0 h 16.5277 c 1.4693,0 2.7544,1.2851 2.7544,2.7542 v 5.5086 c 0,1.4693 -1.2851,2.7562 -2.7544,2.7562 h -16.5277 c -1.4691,0 -2.7562,-1.2869 -2.7562,-2.7562 v -5.5086 c 0,-1.4691 1.2871,-2.7542 2.7562,-2.7542 z m 29.3825,0 h 16.5277 c 1.4692,0 2.7543,1.2851 2.7543,2.7542 v 5.5086 c 0,1.4693 -1.2851,2.7562 -2.7543,2.7562 h -16.5277 c -1.4692,0 -2.7543,-1.2869 -2.7543,-2.7562 v -5.5086 c 0,-1.4691 1.2851,-2.7542 2.7543,-2.7542 z m -88.3239,0.021 h 16.5277 c 1.4693,0 2.7543,1.2852 2.7543,2.7543 v 5.5087 c 0,1.4691 -1.285,2.7562 -2.7543,2.7562 h -16.5277 c -1.4691,0 -2.7543,-1.2871 -2.7543,-2.7562 v -5.5087 c 0,-1.4691 1.2852,-2.7543 2.7543,-2.7543 z m -33.4769,8.5477 h 16.5278 c 1.4691,0 2.7543,1.2851 2.7543,2.7543 v 5.5086 c 0,1.4691 -1.2852,2.7543 -2.7543,2.7543 h -16.5278 c -1.469,0 -2.7562,-1.2852 -2.7562,-2.7543 v -5.5086 c 0,-1.4692 1.2872,-2.7543 2.7562,-2.7543 z m 63.0359,9.7967 h 16.5277 c 1.4692,0 2.7543,1.285 2.7543,2.7543 v 5.5086 c 0,1.401 -1.1703,2.6355 -2.5531,2.7467 -0.1241,0.018 -0.2499,0.028 -0.3777,0.028 h -16.5278 c -1.469,0 -2.7543,-1.2851 -2.7543,-2.7543 v -5.5086 c 0,-1.401 1.1688,-2.6353 2.5513,-2.7467 0.1244,-0.018 0.2518,-0.028 0.3796,-0.028 z m 29.3824,0 h 16.5277 c 1.4693,0 2.7544,1.285 2.7544,2.7543 v 5.5086 c 0,1.469 -1.2851,2.7543 -2.7544,2.7543 h -16.5277 c -1.4691,0 -2.7562,-1.2853 -2.7562,-2.7543 v -5.5086 c 0,-1.4693 1.2871,-2.7543 2.7562,-2.7543 z m 29.3825,0 h 16.5277 c 1.4692,0 2.7543,1.285 2.7543,2.7543 v 5.5086 c 0,1.469 -1.2851,2.7543 -2.7543,2.7543 h -16.5277 c -1.4692,0 -2.7543,-1.2853 -2.7543,-2.7543 v -5.5086 c 0,-1.4693 1.2851,-2.7543 2.7543,-2.7543 z m -88.3239,0.021 h 16.5277 c 1.4693,0 2.7543,1.2852 2.7543,2.7543 v 5.5105 c 0,1.4692 -1.285,2.7543 -2.7543,2.7543 h -16.5277 c -1.4691,0 -2.7543,-1.2851 -2.7543,-2.7543 v -5.5105 c 0,-1.4691 1.2852,-2.7543 2.7543,-2.7543 z m 29.559,18.3443 h 16.5277 c 1.4692,0 2.7543,1.2852 2.7543,2.7543 v 5.5106 c 0,1.3996 -1.1683,2.6295 -2.5493,2.7429 -0.1256,0.018 -0.2523,0.028 -0.3815,0.028 h -16.5278 c -1.469,0 -2.7543,-1.2852 -2.7543,-2.7543 v -5.5086 c 0,-1.4011 1.1688,-2.6352 2.5513,-2.7467 0.1244,-0.019 0.2518,-0.027 0.3796,-0.027 z m 29.3824,0 h 16.5277 c 1.4693,0 2.7544,1.2853 2.7544,2.7543 v 5.5106 c 0,1.4691 -1.2851,2.7543 -2.7544,2.7543 h -16.5277 c -1.4691,0 -2.7562,-1.2852 -2.7562,-2.7543 v -5.5106 c 0,-1.469 1.2871,-2.7543 2.7562,-2.7543 z m 29.3825,0 h 16.5277 c 1.4692,0 2.7543,1.2853 2.7543,2.7543 v 5.5106 c 0,1.4691 -1.2851,2.7543 -2.7543,2.7543 h -16.5277 c -1.4692,0 -2.7543,-1.2852 -2.7543,-2.7543 v -5.5106 c 0,-1.469 1.2851,-2.7543 2.7543,-2.7543 z m -88.3239,0.019 h 16.5277 c 1.4693,0 2.7543,1.2851 2.7543,2.7543 v 5.5086 c 0,1.469 -1.285,2.7561 -2.7543,2.7561 h -16.5277 c -1.4691,0 -2.7543,-1.2871 -2.7543,-2.7561 v -5.5086 c 0,-1.4692 1.2852,-2.7543 2.7543,-2.7543 z m 29.559,18.3443 h 16.5277 c 1.4692,0 2.7543,1.2852 2.7543,2.7543 v 5.5085 c 0,1.4006 -1.1695,2.6346 -2.5512,2.7468 -0.1249,0.018 -0.2511,0.028 -0.3796,0.028 h -16.5278 c -1.469,0 -2.7543,-1.2853 -2.7543,-2.7543 v -5.5087 c 0,-1.4002 1.1678,-2.6342 2.5493,-2.7467 0.1251,-0.018 0.2531,-0.028 0.3816,-0.028 z m 29.3824,0 h 16.5277 c 1.4693,0 2.7544,1.2852 2.7544,2.7543 v 5.5085 c 0,1.4693 -1.2851,2.7544 -2.7544,2.7544 h -16.5277 c -1.4691,0 -2.7562,-1.2851 -2.7562,-2.7544 v -5.5085 c 0,-1.4691 1.2871,-2.7543 2.7562,-2.7543 z m 29.3825,0 h 16.5277 c 1.4692,0 2.7543,1.2852 2.7543,2.7543 v 5.5085 c 0,1.4693 -1.2851,2.7544 -2.7543,2.7544 h -16.5277 c -1.4692,0 -2.7543,-1.2851 -2.7543,-2.7544 v -5.5085 c 0,-1.4691 1.2851,-2.7543 2.7543,-2.7543 z m -88.3239,0.019 h 16.5277 c 1.4693,0 2.7543,1.2871 2.7543,2.7562 v 5.5087 c 0,1.469 -1.285,2.7562 -2.7543,2.7562 h -16.5277 c -1.4691,0 -2.7543,-1.2872 -2.7543,-2.7562 v -5.5087 c 0,-1.4691 1.2852,-2.7562 2.7543,-2.7562 z" />
</svg>
