<?xml version="1.0" encoding="UTF-8" standalone="no"?>
<!-- Generator: Adobe Illustrator 15.1.0, SVG Export Plug-In . SVG Version: 6.00 Build 0)  -->

<svg
   version="1.1"
   id="Layer_1"
   x="0px"
   y="0px"
   width="283.465px"
   height="283.465px"
   viewBox="1108.268 1108.268 283.465 283.465"
   enable-background="new 1108.268 1108.268 283.465 283.465"
   xml:space="preserve"
   sodipodi:docname="database-alt-2.svg"
   inkscape:version="1.2.2 (b0a8486541, 2022-12-01)"
   xmlns:inkscape="http://www.inkscape.org/namespaces/inkscape"
   xmlns:sodipodi="http://sodipodi.sourceforge.net/DTD/sodipodi-0.dtd"
   xmlns="http://www.w3.org/2000/svg"
   xmlns:svg="http://www.w3.org/2000/svg"><defs
   id="defs194" /><sodipodi:namedview
   id="namedview192"
   pagecolor="#ffffff"
   bordercolor="#000000"
   borderopacity="0.25"
   inkscape:showpageshadow="2"
   inkscape:pageopacity="0.0"
   inkscape:pagecheckerboard="0"
   inkscape:deskcolor="#d1d1d1"
   showgrid="false"
   inkscape:zoom="1.047695"
   inkscape:cx="-115.96887"
   inkscape:cy="155.57964"
   inkscape:window-width="1920"
   inkscape:window-height="1015"
   inkscape:window-x="0"
   inkscape:window-y="0"
   inkscape:window-maximized="1"
   inkscape:current-layer="Layer_1" />

<path
   id="path179"
   d="m 1245.9073,1115.354 c -60.7332,0 -112.203,14.4104 -112.203,37.057 v 176.1391 9.1494 c 0,20.5873 53.5292,34.9983 112.203,34.9983 h 0.065 v -7.2046 h -0.065 c -59.703,0 -101.908,-14.4119 -104.9966,-27.7937 v -55.5854 c 12.3524,15.4402 53.5273,25.7331 104.9966,25.7331 h 0.065 v -5.1459 h -0.065 c -59.704,0 -101.908,-14.4121 -104.9966,-27.7936 v -50.4396 c 12.3524,15.4401 53.5273,24.7046 104.9966,24.7046 h 0.065 v -5.1459 h -0.065 c -59.704,0 -101.908,-14.4119 -104.9966,-27.7936 v -53.5268 c 12.3524,13.3818 54.5565,25.7332 104.9966,25.7332 50.4401,0 92.6443,-10.2928 104.9966,-24.7047 v 52.4983 c -1.6451,5.7588 -9.2909,11.3368 -21.5895,15.9788 h 3.5202 c 1.6952,0 3.3099,0.6087 4.6214,1.6538 5.9303,-2.8545 10.5415,-6.0067 13.4479,-9.3977 v 22.7243 l 7.2046,7.2046 v -101.986 c 1.0301,-21.6155 -51.4679,-37.057 -112.2012,-37.057 z m 0,6.1781 c 62.7917,0 104.9966,15.4385 104.9966,29.8505 10e-4,15.4401 -42.2049,29.8524 -104.9966,29.8524 -62.7916,0 -104.9966,-14.4112 -104.9966,-28.8222 0,-14.4119 42.205,-30.8807 104.9966,-30.8807 z m 0,4.3769 c -28.4758,0 -55.0071,3.4882 -74.7056,9.8251 -8.5585,2.7531 -15.5279,5.9755 -20.1523,9.3193 -3.6629,2.6479 -5.7618,5.3316 -5.7618,7.3594 0,1.9658 2.0648,4.5049 5.6685,6.9695 4.5765,3.1306 11.5414,6.1198 20.1392,8.6455 19.386,5.6937 45.9549,8.8303 74.812,8.8303 29.0311,0 55.5903,-3.1787 74.784,-8.9497 8.5997,-2.586 15.5495,-5.6672 20.0945,-8.9088 3.701,-2.6413 5.7412,-5.3474 5.7412,-7.617 0,-1.9973 -2.0836,-4.6082 -5.7169,-7.1636 -4.6005,-3.2377 -11.5671,-6.3429 -20.1449,-8.9814 -19.5494,-6.0157 -46.0986,-9.3286 -74.7579,-9.3286 z m -100.6197,45.9077 v 43.8117 c 0.4234,1.1869 1.9246,3.6438 7.2083,6.8537 5.0438,3.0629 12.2651,5.9869 20.8878,8.4589 19.5874,5.6163 45.3437,8.7089 72.5236,8.7089 h 0.065 c 0,-4.0785 3.3588,-7.4379 7.4398,-7.4379 h 61.1606 c 1.1609,-0.2979 2.3734,-0.5756 3.4903,-0.8902 18.5058,-5.213 26.7694,-11.4756 28.4637,-15.7941 v -42.41 c -9.3766,6.1101 -22.3719,10.1476 -32.8275,12.6342 -19.4453,4.6212 -42.8856,7.0645 -67.7922,7.0645 -12.3561,0 -24.6296,-0.7306 -36.4764,-2.1707 -11.1647,-1.358 -21.7298,-3.3149 -31.4016,-5.8177 -13.7258,-3.5512 -24.9609,-8.0401 -32.7417,-13.0113 z m 178.8511,23.8554 c 5.0945,0 9.239,4.1446 9.239,9.2391 0,5.0935 -4.1445,9.2371 -9.239,9.2371 -5.0935,0 -9.2372,-4.1436 -9.2372,-9.2371 0,-5.0945 4.1437,-9.2391 9.2372,-9.2391 z m 22.3883,38.1788 c -1.7821,1.1612 -3.7231,2.225 -5.7244,3.2401 l 5.7244,5.7245 z m -201.2394,0.3509 v 40.0992 c 0.4234,1.1869 1.9246,3.6456 7.2083,6.8556 5.0438,3.0618 12.2651,5.9866 20.8878,8.4589 19.5874,5.6162 45.3437,8.7089 72.5236,8.7089 h 0.065 v -44.7748 h -0.065 c -25.7962,0 -49.3645,-2.3073 -68.158,-6.6745 -9.52,-2.2123 -17.7087,-4.9304 -24.337,-8.0781 -3.0303,-1.4392 -5.7432,-2.9735 -8.1247,-4.5952 z m 108.1248,0.433 c -2.7707,0 -5.0152,2.2464 -5.0152,5.0151 v 139.9818 c 0,2.7682 2.2445,5.0153 5.0152,5.0153 h 107.871 c 2.7694,0 5.0133,-2.2458 5.0133,-5.0153 v -111.5404 c 0,-1.3298 -0.5268,-2.6043 -1.4633,-3.5444 l -28.4451,-28.4432 c -0.9426,-0.9396 -2.2183,-1.4689 -3.5481,-1.4689 z m 80.5663,8.1732 25.2366,24.0888 h -25.1936 z m -63.2006,18.5136 h 47.5783 c 1.7923,0 3.257,1.4616 3.257,3.2551 0,1.7941 -1.4647,3.2533 -3.257,3.2533 h -47.5783 c -1.796,0 -3.2539,-1.4592 -3.2533,-3.2533 0,-1.7941 1.4585,-3.2551 3.2533,-3.2551 z m 1.8721,20.7459 h 70.3436 c 2.3052,0 4.1734,1.4579 4.1734,3.2532 0,1.7954 -1.8682,3.2496 -4.1734,3.2496 h -70.3436 c -2.3065,0 -4.1772,-1.456 -4.1772,-3.2496 0,-1.7942 1.8713,-3.2545 4.1772,-3.2532 z m -127.3607,9.8362 v 45.1892 0 c 0.4234,1.1869 1.9246,3.6457 7.2083,6.8556 5.0438,3.0628 12.2651,5.9866 20.8878,8.4588 19.5874,5.6163 45.3437,8.709 72.5236,8.709 h 0.065 v -48.8903 h -0.065 c -25.5047,0 -49.0927,-2.4897 -68.214,-7.2028 -9.4799,-2.3366 -17.6659,-5.1766 -24.3295,-8.442 -3.0102,-1.4744 -5.7044,-3.0376 -8.0743,-4.6775 z m 127.3607,14.0304 h 70.3436 c 2.3052,0 4.1759,1.459 4.1734,3.2532 0,1.7935 -1.8682,3.2514 -4.1734,3.2514 h -70.3436 c -2.3065,0 -4.1772,-1.456 -4.1772,-3.2514 0,-1.7954 1.8707,-3.2532 4.1772,-3.2532 z m 0,23.7526 h 70.3436 c 2.3052,0 4.1759,1.458 4.1734,3.2533 0,1.793 -1.8682,3.2477 -4.1734,3.2477 h -70.3436 c -2.3065,0 -4.1772,-1.456 -4.1772,-3.2477 0,-1.7966 1.8707,-3.2533 4.1772,-3.2533 z m 0,23.8909 h 70.3436 c 2.3039,0 4.1759,1.4542 4.1734,3.2495 0,1.7942 -1.8682,3.2552 -4.1734,3.2552 h -70.3436 c -2.3065,0 -4.1772,-1.4586 -4.1772,-3.2552 0,-1.7965 1.8707,-3.2495 4.1772,-3.2495 z"
   style="display:inline;stroke-width:0.955634" /></svg>
