<?xml version="1.0" encoding="UTF-8" standalone="no"?>
<!-- Generator: Adobe Illustrator 15.1.0, SVG Export Plug-In . SVG Version: 6.00 Build 0)  -->

<svg
   version="1.0"
   id="Layer_1"
   x="0px"
   y="0px"
   width="283.46px"
   height="283.46px"
   viewBox="0 0 283.46 283.46"
   enable-background="new 0 0 283.46 283.46"
   xml:space="preserve"
   sodipodi:docname="shape-circle-filled.svg"
   inkscape:version="1.2.2 (b0a8486541, 2022-12-01)"
   xmlns:inkscape="http://www.inkscape.org/namespaces/inkscape"
   xmlns:sodipodi="http://sodipodi.sourceforge.net/DTD/sodipodi-0.dtd"
   xmlns="http://www.w3.org/2000/svg"
   xmlns:svg="http://www.w3.org/2000/svg"><defs
   id="defs7" /><sodipodi:namedview
   id="namedview5"
   pagecolor="#ffffff"
   bordercolor="#000000"
   borderopacity="0.25"
   inkscape:showpageshadow="2"
   inkscape:pageopacity="0.0"
   inkscape:pagecheckerboard="0"
   inkscape:deskcolor="#d1d1d1"
   showgrid="false"
   inkscape:zoom="2.9633812"
   inkscape:cx="69.346462"
   inkscape:cy="141.73"
   inkscape:window-width="1920"
   inkscape:window-height="1015"
   inkscape:window-x="0"
   inkscape:window-y="0"
   inkscape:window-maximized="1"
   inkscape:current-layer="Layer_1" />
<path
   id="databasepages"
   d="m 33.613356,7.0869885 c -4.499985,0 -8.144531,3.6494965 -8.144531,8.1464845 V 128.39168 h -8.601562 a 1.950195,1.950195 0 0 0 -1.951172,1.94922 v 111.51562 a 1.950195,1.950195 0 0 0 1.951172,1.95117 h 8.724609 c 0.592974,3.91351 3.940008,6.92383 8.021484,6.92383 h 6.945313 v -6.92383 h 5.427734 v 11.60352 c 0,4.49697 3.646499,8.14453 8.146484,8.14453 h 6.941407 v -19.74805 h 5.429687 v 24.42579 c 0,4.49597 3.644544,8.14453 8.144532,8.14453 H 249.85164 c 4.498,0 8.14258,-3.64656 8.14258,-8.14453 v -24.42579 h 8.60352 a 1.950195,1.950195 0 0 0 1.95117,-1.95117 V 130.3409 a 1.950195,1.950195 0 0 0 -1.95117,-1.94922 h -8.60352 V 87.073317 c 0,-2.159994 -0.85791,-4.230816 -2.37891,-5.757813 L 209.41805,35.118239 c -1.531,-1.525997 -3.6037,-2.384766 -5.76367,-2.384766 H 74.648513 c -4.499988,0 -8.144532,3.649499 -8.144532,8.146484 V 128.39168 H 61.076247 V 40.879957 c 0,-7.485976 6.088287,-13.576171 13.572266,-13.576171 H 193.91024 l -5.00782,-5.007813 c -1.53397,-1.525994 -3.60462,-2.386719 -5.76562,-2.386719 H 54.132887 c -4.499985,0 -8.146484,3.65145 -8.146484,8.148438 V 128.39168 H 40.558669 V 28.057692 c 0.002,-7.485979 6.089242,-13.576172 13.574218,-13.576172 H 173.39461 l -5.00976,-5.0097659 c -1.532,-1.5259952 -3.60463,-2.3847656 -5.76563,-2.3847656 z M 205.50399,46.008864 246.49031,85.13191 H 205.57235 Z M 102.8536,76.077223 h 77.27734 c 2.911,0 5.28906,2.372165 5.28906,5.285156 0,2.913991 -2.37806,5.285157 -5.28906,5.285157 h -77.27539 c -2.916999,0 -5.28616,-2.371166 -5.285163,-5.285157 0,-2.913991 2.368205,-5.285156 5.283213,-5.285156 z m 3.04296,33.693357 h 114.24805 c 3.744,0 6.7793,2.36916 6.7793,5.28516 0.002,2.916 -3.0353,5.2793 -6.7793,5.2793 H 105.89656 c -3.74597,0 -6.785157,-2.3663 -6.785157,-5.2793 0,-2.914 3.040187,-5.28716 6.785157,-5.28516 z M 18.816481,132.29207 H 264.64852 V 239.9073 H 18.816481 Z m 76.273438,27.17187 c -5.859534,0 -10.268346,1.36505 -13.226563,4.09571 -2.901327,2.73066 -4.351562,6.1152 -4.351562,10.15429 0,2.73066 0.569252,4.97864 1.707031,6.74219 1.194669,1.76356 2.730094,3.27188 4.607422,4.52344 1.934218,1.19466 3.982763,2.36028 6.144531,3.49805 1.934218,0.9671 3.66908,1.96232 5.205078,2.98632 1.535999,0.96711 2.759703,2.07657 3.669922,3.32813 0.967109,1.25155 1.449222,2.75989 1.449222,4.52344 0,1.87732 -0.567302,3.3837 -1.705081,4.52148 -1.137779,1.13777 -2.731309,1.70703 -4.779297,1.70703 -1.422219,0 -2.731123,-0.25558 -3.925781,-0.76758 -1.137779,-0.512 -2.018752,-1.05221 -2.644532,-1.62109 -0.398219,-0.39822 -0.711903,-0.76805 -0.939453,-1.10937 -0.17067,-0.34133 -0.312001,-0.76926 -0.425781,-1.28126 l -1.195312,-8.02148 h -6.65625 c -0.34134,1.82044 -0.596909,3.98321 -0.767579,6.48633 -0.170649,2.5031 -0.199757,4.89242 -0.08594,7.16797 2.047998,0.96711 4.466359,1.821 7.253906,2.56054 2.844437,0.73956 5.888193,1.10938 9.13086,1.10938 4.494205,0 8.07818,-0.73964 10.75196,-2.21875 2.73066,-1.536 4.69401,-3.4432 5.88867,-5.71875 1.19467,-2.27555 1.79102,-4.57772 1.79102,-6.91016 0,-2.55998 -0.59635,-4.77892 -1.79102,-6.65625 -1.19466,-1.87732 -2.7882,-3.527 -4.77929,-4.94922 -1.93422,-1.4791 -4.097,-2.81705 -6.48634,-4.01171 -3.185777,-1.64978 -5.716432,-3.12907 -7.59375,-4.4375 -1.820449,-1.30844 -2.730469,-3.15755 -2.730469,-5.54688 0,-1.70666 0.511167,-3.0717 1.535156,-4.0957 1.080889,-1.08089 2.531114,-1.6211 4.351563,-1.6211 0.910219,0 1.793155,0.14329 2.646484,0.42774 0.910219,0.22755 1.64986,0.53927 2.21875,0.9375 0.682666,0.4551 1.137686,1.30899 1.365246,2.56054 l 1.27929,6.9961 h 6.48633 c 0.34133,-1.99112 0.56787,-4.09579 0.68164,-6.31445 0.17067,-2.27555 0.17067,-4.43638 0,-6.48438 -1.87732,-0.79644 -4.0672,-1.42183 -6.57031,-1.87695 -2.5031,-0.45511 -5.006667,-0.6836 -7.509774,-0.6836 z m 45.654301,0 c -7.39554,0 -13.02806,2.33318 -16.89648,6.99805 -3.86845,4.66488 -5.80274,11.06413 -5.80274,19.19922 0,7.16798 1.56448,12.97088 4.69336,17.4082 3.18578,4.38044 8.19288,6.7136 15.01953,6.99805 1.93422,0.91022 3.58389,2.04677 4.94922,3.41211 1.42222,1.36533 2.78728,2.73037 4.0957,4.0957 1.30845,1.36533 2.78774,2.50385 4.4375,3.41406 1.64978,0.91022 3.69636,1.36524 6.14258,1.36524 2.16178,0 4.15417,-0.48406 5.97461,-1.45117 1.82045,-0.96711 3.15644,-1.96234 4.00977,-2.98633 l -1.02344,-3.66797 c -0.512,0.0569 -1.08125,0.11305 -1.70703,0.16992 -0.56889,0.11377 -1.22334,0.16992 -1.96289,0.16992 -2.90133,0 -5.97218,-0.91003 -9.21485,-2.73046 -1.13776,-0.62578 -2.24723,-1.19504 -3.32812,-1.70704 -1.024,-0.45511 -2.13346,-0.85203 -3.32813,-1.19336 4.77867,-1.47909 8.47688,-4.38153 11.09375,-8.70507 2.6169,-4.38044 3.92383,-9.84061 3.92383,-16.38282 0,-4.94932 -0.73964,-9.24583 -2.21875,-12.88671 -1.47911,-3.64088 -3.78322,-6.45616 -6.91211,-8.44727 -3.07198,-2.048 -7.05287,-3.07227 -11.94531,-3.07227 z m 26.02539,0.85352 v 4.69336 l 4.86524,0.93945 c 0.9671,0.17067 1.45117,0.73796 1.45117,1.70508 v 34.47461 c 0,0.96711 -0.48407,1.53636 -1.45117,1.70703 l -4.86524,0.93945 v 4.4375 h 38.57227 c 0.62577,-3.01509 0.99559,-5.97367 1.10937,-8.875 0.11378,-2.90132 0.16992,-5.66046 0.16992,-8.27734 l -5.88867,-0.76758 -3.07226,9.98438 c -0.28445,1.024 -0.8808,1.70554 -1.79102,2.04687 -0.56889,0.22755 -1.33757,0.42699 -2.30469,0.59766 -0.91022,0.11378 -2.01968,0.16992 -3.32812,0.16992 h -5.375 v -36.35156 c 0,-0.9671 0.48406,-1.53636 1.45117,-1.70703 l 6.39844,-1.02344 v -4.69336 z m -26.70898,4.01172 c 3.0151,0 5.23403,1.53542 6.65625,4.60742 1.47911,3.07199 2.21875,8.1914 2.21875,15.35938 0,7.45242 -0.79578,12.82934 -2.38867,16.1289 -1.53599,3.24266 -3.81302,4.86328 -6.82813,4.86328 -2.95822,0 -5.17519,-1.56448 -6.6543,-4.69336 -1.42222,-3.12887 -2.13476,-8.30637 -2.13476,-15.53125 0,-7.39554 0.7687,-12.68532 2.30469,-15.87109 1.53599,-3.24267 3.81106,-4.86328 6.82617,-4.86328 z" />
</svg>
