<?xml version="1.0" encoding="UTF-8" standalone="no"?>
<!-- Generator: Adobe Illustrator 15.1.0, SVG Export Plug-In . SVG Version: 6.00 Build 0)  -->

<svg
   version="1.1"
   id="Layer_1"
   x="0px"
   y="0px"
   width="283.465px"
   height="283.465px"
   viewBox="1108.268 1108.268 283.465 283.465"
   enable-background="new 1108.268 1108.268 283.465 283.465"
   xml:space="preserve"
   sodipodi:docname="database-alt-3.svg"
   inkscape:version="1.2.2 (b0a8486541, 2022-12-01)"
   xmlns:inkscape="http://www.inkscape.org/namespaces/inkscape"
   xmlns:sodipodi="http://sodipodi.sourceforge.net/DTD/sodipodi-0.dtd"
   xmlns="http://www.w3.org/2000/svg"
   xmlns:svg="http://www.w3.org/2000/svg"><defs
   id="defs194" /><sodipodi:namedview
   id="namedview192"
   pagecolor="#ffffff"
   bordercolor="#000000"
   borderopacity="0.25"
   inkscape:showpageshadow="2"
   inkscape:pageopacity="0.0"
   inkscape:pagecheckerboard="0"
   inkscape:deskcolor="#d1d1d1"
   showgrid="false"
   inkscape:zoom="2.0953899"
   inkscape:cx="235.51702"
   inkscape:cy="133.38806"
   inkscape:window-width="1920"
   inkscape:window-height="1052"
   inkscape:window-x="1920"
   inkscape:window-y="0"
   inkscape:window-maximized="1"
   inkscape:current-layer="Layer_1" />

<path
   id="path179"
   d="m 1247.0508,1115.354 c -60.6119,0 -111.9788,14.3815 -111.9788,36.9828 v 175.7871 9.1311 c 0,17.8406 40.2921,31.0199 89.2365,34.1851 -3.2645,-0.9041 -5.7055,-3.8885 -5.7055,-7.4212 v -0.2048 c -44.1573,-3.6638 -73.7753,-15.4519 -76.339,-26.5591 v -55.4743 c 9.9485,12.4352 38.6432,21.5166 76.339,24.5621 v -5.1951 c -44.1576,-3.6637 -73.7753,-15.4519 -76.339,-26.5591 v -50.3387 c 9.9485,12.4351 38.6432,20.8469 76.339,23.6345 v -5.2939 c -44.1576,-3.6638 -73.7753,-15.4519 -76.339,-26.559 v -53.4197 c 12.3279,13.3548 54.4475,25.6816 104.7868,25.6816 50.3394,0 92.4591,-10.2722 104.7867,-24.6553 v 52.3934 c -1.5859,5.5517 -8.7334,10.9408 -20.2778,15.4775 2.0359,0.01 3.9892,0.8216 5.4299,2.2577 l 0.3876,0.3874 c 6.4507,-2.9813 11.3824,-6.3153 14.4585,-9.9042 v 24.3628 l 7.1902,7.1901 v -103.466 c 1.0281,-21.5722 -51.365,-36.9828 -111.9769,-36.9828 z m 0,6.1656 c 62.6662,0 104.7867,15.408 104.7867,29.7909 10e-4,15.4092 -42.1205,29.7927 -104.7867,29.7927 -62.6662,0 -104.7868,-14.3823 -104.7868,-28.7645 0,-14.383 42.1206,-30.8191 104.7868,-30.8191 z m 0,4.3682 c -28.419,0 -54.8972,3.4813 -74.5563,9.8054 -8.5415,2.7477 -15.497,5.9637 -20.1121,9.3007 -3.6556,2.6428 -5.7502,5.3211 -5.7502,7.3448 0,1.9619 2.0607,4.4958 5.6572,6.9555 4.5674,3.1244 11.5183,6.1075 20.099,8.6282 19.3472,5.6823 45.863,8.8126 74.6624,8.8126 28.973,0 55.4791,-3.1723 74.6345,-8.9318 8.5826,-2.5808 15.5185,-5.6558 20.0542,-8.8909 3.6939,-2.6361 5.7299,-5.3368 5.7299,-7.6018 0,-1.9934 -2.0795,-4.599 -5.7057,-7.1492 -4.5911,-3.2311 -11.544,-6.3303 -20.1045,-8.9635 -19.5103,-6.0038 -46.0063,-9.31 -74.6084,-9.31 z m -100.4186,45.8161 v 43.7241 c 0.4225,1.1845 1.9208,3.6363 7.1939,6.8399 5.0338,3.0567 12.2405,5.9747 20.8459,8.442 12.5264,3.5917 27.5951,6.1348 43.931,7.5087 v -14.8461 c 0,-4.2359 3.4898,-7.7303 7.7285,-7.7303 l 79.8073,-0.01 v 0 c 2.0498,0 4.0173,0.8153 5.4672,2.2595 a 2.6912736,2.6912736 0 0 1 0,0.01 l 3.0996,3.0978 a 2.6912736,2.6912736 0 0 1 0.6538,2.5687 h 3.4685 c 2.0513,0 4.0147,0.8183 5.4634,2.2595 a 2.6912736,2.6912736 0 0 1 0.01,0.01 l 2.7046,2.7047 c 12.8909,-4.594 19.0431,-9.5896 20.466,-13.2162 v -42.3252 c -9.3579,6.098 -22.3273,10.1273 -32.7619,12.6089 -19.4064,4.6122 -42.7999,7.0505 -67.6567,7.0505 -12.3315,0 -24.5804,-0.7291 -36.4036,-2.1663 -11.1423,-1.3553 -21.6862,-3.3084 -31.3388,-5.8063 -13.6982,-3.5439 -24.911,-8.024 -32.6762,-12.9851 z m 178.4935,23.8076 c 5.0843,0 9.2207,4.1363 9.2207,9.2206 0,5.0833 -4.1364,9.2186 -9.2207,9.2186 -5.0833,0 -9.2186,-4.1353 -9.2186,-9.2186 0,-5.0843 4.1353,-9.2206 9.2186,-9.2206 z m -98.7923,22.8186 c -2.7838,0 -5.0387,2.2568 -5.0387,5.0387 v 140.6464 c 0,2.782 2.2549,5.0387 5.0387,5.0387 h 4.2955 v -137.7516 c 0,-4.6309 3.7668,-8.3973 8.3972,-8.3973 h 73.7776 l -3.0976,-3.0996 c -0.9479,-0.944 -2.2304,-1.4753 -3.5673,-1.4753 z m 12.6927,7.9316 c -2.7838,0 -5.0387,2.2586 -5.0387,5.0406 v 140.6463 c 0,2.782 2.2549,5.0388 5.0387,5.0388 h 4.2936 v -137.7518 c 0,-4.6309 3.7675,-8.3991 8.3972,-8.3991 h 73.7777 l -3.0977,-3.0976 c -0.949,-0.9441 -2.2303,-1.4772 -3.5671,-1.4772 z m 108.4433,7.3522 c -2.1104,1.3753 -4.4216,2.6311 -6.8288,3.8018 l 6.8288,6.8288 z m -200.8372,0.3502 v 40.0192 c 0.4225,1.1844 1.9208,3.6383 7.1939,6.8418 5.0338,3.0558 12.2405,5.9747 20.8459,8.442 12.5264,3.5916 27.5951,6.1348 43.931,7.5087 v -44.5083 c -14.6045,-1.0659 -28.0009,-2.9659 -39.574,-5.6554 -9.5009,-2.2079 -17.6732,-4.9203 -24.2882,-8.0619 -3.0243,-1.4363 -5.7319,-2.9676 -8.1086,-4.5861 z m 105.1239,0.2887 c -2.7777,0 -5.0276,2.2535 -5.0276,5.0295 v 140.3372 c 0,2.7751 2.2499,5.0275 5.0276,5.0275 h 108.1452 c 2.7765,0 5.0276,-2.2512 5.0276,-5.0275 v -111.8242 c 0,-1.3333 -0.529,-2.6116 -1.4678,-3.5542 l -28.5168,-28.5148 c -0.9451,-0.942 -2.2246,-1.4735 -3.5578,-1.4735 z m 80.7722,8.1942 25.2999,24.1505 h -25.257 z m -63.3631,18.5622 h 47.7012 c 1.797,0 3.2635,1.4636 3.2635,3.2618 0,1.7986 -1.4665,3.2617 -3.2635,3.2617 h -47.6993 c -1.8006,0 -3.2641,-1.4631 -3.2635,-3.2617 0,-1.7988 1.4624,-3.2618 3.2616,-3.2618 z m 1.8795,20.7976 h 70.5198 c 2.3111,0 4.1856,1.4617 4.1856,3.2616 0,1.8001 -1.8726,3.258 -4.1838,3.258 h -70.5216 c -2.3122,0 -4.1892,-1.4597 -4.1892,-3.258 0,-1.7987 1.8776,-3.2629 4.1892,-3.2616 z m -124.4106,9.744 v 45.0989 0 c 0.4225,1.1846 1.9208,3.6382 7.1939,6.8418 5.0338,3.0567 12.2405,5.9747 20.8459,8.442 12.5264,3.5916 27.5951,6.1347 43.931,7.5087 v -48.7126 c -14.4952,-1.1532 -27.9085,-3.1964 -39.6299,-6.0856 -9.4608,-2.3318 -17.6305,-5.1662 -24.2808,-8.4251 -3.0042,-1.4717 -5.693,-3.0315 -8.0582,-4.6681 z m 124.4106,14.1829 h 70.5198 c 2.3111,0 4.1882,1.463 4.1856,3.2617 0,1.798 -1.8726,3.2598 -4.1838,3.2598 h -70.5216 c -2.3122,0 -4.1892,-1.46 -4.1892,-3.2598 0,-1.7999 1.877,-3.2617 4.1892,-3.2617 z m 0,23.8133 h 70.5198 c 2.3111,0 4.1882,1.4617 4.1856,3.2616 0,1.7976 -1.8726,3.2562 -4.1838,3.2562 h -70.5216 c -2.3122,0 -4.1892,-1.4599 -4.1892,-3.2562 0,-1.8011 1.877,-3.2616 4.1892,-3.2616 z m 0,23.9512 h 70.5198 c 2.3098,0 4.1882,1.4599 4.1856,3.2598 0,1.7986 -1.8745,3.2635 -4.1856,3.2635 h -70.5198 c -2.3122,0 -4.1892,-1.4624 -4.1892,-3.2635 0,-1.8012 1.877,-3.2598 4.1892,-3.2598 z m -39.749,18.0705 a 2.6912736,2.6912736 0 0 1 -0.6668,0.1788 h -0.3726 c 0.3463,0.016 0.6926,0.033 1.0394,0.049 z"
   style="display:inline;stroke-width:0.953724" /></svg>
