<?xml version="1.0" encoding="UTF-8" standalone="no"?>
<svg
   version="1.1"
   id="Layer_1"
   x="0px"
   y="0px"
   width="283.465px"
   height="283.465px"
   viewBox="1108.268 1108.268 283.465 283.465"
   enable-background="new 1108.268 1108.268 283.465 283.465"
   xml:space="preserve"
   sodipodi:docname="database-table.svg"
   inkscape:version="1.2.2 (b0a8486541, 2022-12-01)"
   xmlns:inkscape="http://www.inkscape.org/namespaces/inkscape"
   xmlns:sodipodi="http://sodipodi.sourceforge.net/DTD/sodipodi-0.dtd"
   xmlns="http://www.w3.org/2000/svg"
   xmlns:svg="http://www.w3.org/2000/svg"><defs
   id="defs194" /><sodipodi:namedview
   id="namedview192"
   pagecolor="#ffffff"
   bordercolor="#000000"
   borderopacity="0.25"
   inkscape:showpageshadow="2"
   inkscape:pageopacity="0.0"
   inkscape:pagecheckerboard="0"
   inkscape:deskcolor="#d1d1d1"
   showgrid="false"
   inkscape:zoom="2.9633288"
   inkscape:cx="116.2544"
   inkscape:cy="159.61779"
   inkscape:window-width="1920"
   inkscape:window-height="1015"
   inkscape:window-x="0"
   inkscape:window-y="0"
   inkscape:window-maximized="1"
   inkscape:current-layer="Layer_1" />
<path
   id="path179"
   style="display:inline;stroke-width:1.03129"
   d="M 1246.0743 1115.5832 C 1180.533 1115.5832 1124.9881 1131.1339 1124.9881 1155.5735 L 1124.9881 1345.6555 L 1124.9881 1355.529 C 1124.9881 1377.4946 1181.4677 1392.9161 1243.9389 1393.263 L 1243.9389 1385.4889 C 1180.6608 1385.144 1136.06 1369.8091 1132.7643 1355.5312 L 1132.7643 1295.5436 C 1145.9214 1311.9894 1189.406 1323.001 1243.9389 1323.2853 L 1243.9389 1317.7272 C 1180.6587 1317.3827 1136.06 1302.0435 1132.7643 1287.7653 L 1132.7643 1233.3359 C 1146.0948 1249.9983 1190.5303 1259.996 1246.0743 1259.996 C 1300.507 1259.996 1346.0539 1248.8886 1359.3843 1233.3359 L 1359.3843 1287.7653 C 1358.4738 1290.9528 1355.7256 1294.0778 1351.6123 1297.0556 L 1358.9814 1297.0556 C 1359.1145 1296.9218 1359.2675 1296.7911 1359.3843 1296.6548 L 1359.3843 1297.0556 L 1367.1584 1297.0556 L 1367.1584 1155.5713 C 1368.2701 1132.2448 1311.6161 1115.5832 1246.0743 1115.5832 z M 1246.0743 1122.2482 C 1313.8375 1122.2482 1359.3843 1138.9093 1359.3843 1154.4623 C 1359.3843 1171.1249 1313.8375 1186.6784 1246.0743 1186.6784 C 1178.3115 1186.6784 1132.7643 1171.1254 1132.7643 1155.5735 C 1132.7643 1140.0205 1178.3115 1122.2482 1246.0743 1122.2482 z M 1246.0743 1126.9708 C 1215.3442 1126.9708 1186.7134 1130.7353 1165.4555 1137.5738 C 1156.2192 1140.545 1148.6991 1144.0233 1143.7087 1147.6318 C 1139.7557 1150.4895 1137.489 1153.3851 1137.489 1155.5735 C 1137.489 1157.6948 1139.7159 1160.4377 1143.6048 1163.0974 C 1148.5436 1166.4759 1156.0603 1169.7002 1165.3389 1172.4259 C 1186.2593 1178.5704 1214.9327 1181.9537 1246.0743 1181.9537 C 1277.404 1181.9537 1306.0646 1178.5245 1326.778 1172.2965 C 1336.0586 1169.5058 1343.5605 1166.1799 1348.4654 1162.6817 C 1352.4596 1159.8312 1354.6596 1156.9116 1354.6596 1154.4623 C 1354.6596 1152.3069 1352.4117 1149.4883 1348.4908 1146.7306 C 1343.5261 1143.2366 1336.0073 1139.8868 1326.7504 1137.0394 C 1305.6532 1130.5474 1277.0028 1126.9708 1246.0743 1126.9708 z M 1132.7643 1166.6833 C 1146.0948 1181.1245 1191.641 1194.4525 1246.0743 1194.4525 C 1300.508 1194.4525 1346.0539 1183.3451 1359.3843 1167.7924 L 1359.3843 1224.4463 C 1354.9416 1239.9982 1310.5054 1254.4422 1246.0743 1254.4422 C 1181.6437 1254.4422 1136.0975 1238.8875 1132.7643 1224.4463 L 1132.7643 1166.6833 z M 1137.489 1176.5144 L 1137.489 1223.7932 C 1137.9458 1225.0741 1139.5654 1227.7257 1145.2674 1231.1898 C 1150.7106 1234.4951 1158.5062 1237.6531 1167.8115 1240.3211 C 1188.9499 1246.382 1216.7448 1249.7196 1246.0764 1249.7196 C 1275.7158 1249.7196 1303.3707 1246.5262 1323.9449 1240.7304 C 1343.9156 1235.1047 1352.8311 1228.3475 1354.6596 1223.6871 L 1354.6596 1177.9203 C 1344.5405 1184.5144 1330.5184 1188.8703 1319.235 1191.5537 C 1298.2502 1196.5411 1272.9529 1199.1772 1246.0743 1199.1772 C 1232.7397 1199.1772 1219.4945 1198.3881 1206.7096 1196.834 C 1194.6611 1195.3685 1183.2622 1193.2558 1172.8246 1190.5549 C 1158.0121 1186.7226 1145.8858 1181.8792 1137.489 1176.5144 z M 1330.5018 1202.2585 C 1335.9996 1202.2585 1340.4707 1206.7317 1340.4707 1212.2295 C 1340.4707 1217.7263 1335.9996 1222.1963 1330.5018 1222.1963 C 1325.005 1222.1963 1320.5307 1217.7263 1320.5307 1212.2295 C 1320.5307 1206.7317 1325.005 1202.2585 1330.5018 1202.2585 z M 1354.6596 1243.4596 C 1344.5405 1250.0537 1330.5184 1254.4117 1319.235 1257.0951 C 1298.2502 1262.0832 1272.9529 1264.7186 1246.0743 1264.7186 C 1218.2359 1264.7186 1192.8006 1262.2298 1172.5192 1257.5171 C 1162.2455 1255.1297 1153.4087 1252.1942 1146.2556 1248.7971 C 1142.9854 1247.244 1140.0589 1245.5893 1137.489 1243.8392 L 1137.489 1287.1121 C 1137.9458 1288.3929 1139.5654 1291.0467 1145.2674 1294.5109 C 1150.7106 1297.8151 1158.5062 1300.9722 1167.8115 1303.6401 C 1188.4321 1309.5526 1215.4017 1312.8459 1243.9389 1313.0047 L 1243.9389 1299.0363 C 1243.9394 1297.954 1244.8371 1297.0563 1245.9195 1297.0556 L 1342.4301 1297.0556 C 1349.6151 1293.4158 1353.5535 1289.8256 1354.6596 1287.0061 L 1354.6596 1243.4596 z M 1330.5018 1268.911 C 1335.9996 1268.911 1340.4707 1273.3821 1340.4707 1278.88 C 1340.4707 1284.3768 1335.9996 1288.851 1330.5018 1288.851 C 1325.005 1288.851 1320.5307 1284.3768 1320.5307 1278.88 C 1320.5307 1273.3821 1325.005 1268.911 1330.5018 1268.911 z M 1245.9195 1298.9557 C 1245.8641 1298.9557 1245.8389 1298.9809 1245.8389 1299.0363 L 1245.8389 1406.6843 C 1245.8389 1406.7396 1245.8641 1406.7648 1245.9195 1406.7648 L 1373.9507 1406.7648 C 1374.0061 1406.7648 1374.0314 1406.7396 1374.0313 1406.6843 L 1374.0313 1299.0363 C 1374.0313 1298.9809 1374.0061 1298.9557 1373.9507 1298.9557 L 1245.9195 1298.9557 z M 1264.3475 1304.0303 L 1264.3518 1304.0303 L 1351.0482 1304.0303 L 1358.8499 1304.0303 L 1367.1224 1304.0303 C 1368.7176 1304.0303 1370.1124 1305.4253 1370.1124 1307.0203 L 1370.1124 1316.9893 C 1370.1124 1318.5842 1368.7176 1319.9793 1367.1224 1319.9793 L 1354.8187 1319.9793 L 1349.2797 1319.9793 L 1268.2855 1319.9793 C 1268.2854 1319.9902 1268.2855 1319.9918 1268.2855 1320.0026 L 1252.7415 1320.0026 C 1251.1463 1320.0026 1249.7493 1318.6077 1249.7493 1317.0126 L 1249.7493 1307.0415 C 1249.7493 1305.4464 1251.1463 1304.0515 1252.7415 1304.0515 L 1264.3581 1304.0515 C 1264.3473 1304.0406 1264.3475 1304.0401 1264.3475 1304.0303 z M 1137.4911 1306.1085 L 1137.4911 1354.878 C 1137.948 1356.1589 1139.5675 1358.8106 1145.2695 1362.2747 C 1150.7126 1365.58 1158.5084 1368.7338 1167.8136 1371.4017 C 1188.4338 1377.3141 1215.4024 1380.6094 1243.9389 1380.7684 L 1243.9389 1328.0121 C 1217.243 1327.8754 1192.5563 1325.2208 1172.462 1320.2677 C 1162.2316 1317.7462 1153.4002 1314.6795 1146.2089 1311.1555 C 1142.9604 1309.5642 1140.0508 1307.8782 1137.4933 1306.1085 L 1137.4911 1306.1085 z M 1285.3754 1327.9549 L 1303.322 1327.9549 C 1304.9172 1327.9549 1306.3121 1329.352 1306.3121 1330.9471 L 1306.3121 1336.9293 C 1306.3121 1338.4497 1305.0427 1339.7868 1303.5426 1339.9087 C 1303.407 1339.9293 1303.2686 1339.9405 1303.1291 1339.9405 L 1285.1845 1339.9405 C 1283.5896 1339.9405 1282.1945 1338.5454 1282.1945 1336.9505 L 1282.1945 1330.9683 C 1282.1945 1329.4479 1283.4619 1328.1107 1284.9619 1327.9888 C 1285.0977 1327.9682 1285.2359 1327.957 1285.3754 1327.957 L 1285.3754 1327.9549 z M 1317.2777 1327.9549 L 1335.2222 1327.9549 C 1336.8175 1327.9549 1338.2144 1329.352 1338.2144 1330.9471 L 1338.2144 1336.9271 C 1338.2144 1338.5224 1336.8175 1339.9193 1335.2222 1339.9193 L 1317.2777 1339.9193 C 1315.6826 1339.9193 1314.2855 1338.5224 1314.2855 1336.9271 L 1314.2855 1330.9471 C 1314.2855 1329.352 1315.6826 1327.9549 1317.2777 1327.9549 z M 1349.18 1327.9549 L 1367.1245 1327.9549 C 1368.7197 1327.9549 1370.1146 1329.352 1370.1146 1330.9471 L 1370.1146 1336.9271 C 1370.1146 1338.5224 1368.7197 1339.9193 1367.1245 1339.9193 L 1349.18 1339.9193 C 1347.5848 1339.9193 1346.19 1338.5224 1346.19 1336.9271 L 1346.19 1330.9471 C 1346.19 1329.352 1347.5848 1327.9549 1349.18 1327.9549 z M 1253.2822 1327.9782 L 1271.2268 1327.9782 C 1272.822 1327.9782 1274.2189 1329.3732 1274.2189 1330.9683 L 1274.2189 1336.9505 C 1274.2189 1338.5455 1272.822 1339.9426 1271.2268 1339.9426 L 1253.2822 1339.9426 C 1251.6872 1339.9426 1250.2922 1338.5455 1250.2922 1336.9505 L 1250.2922 1330.9683 C 1250.2922 1329.3732 1251.6872 1327.9782 1253.2822 1327.9782 z M 1285.3754 1347.8949 L 1303.322 1347.8949 C 1304.9172 1347.8949 1306.3121 1349.2918 1306.3121 1350.887 L 1306.3121 1356.8671 C 1306.3121 1358.3883 1305.0418 1359.728 1303.5405 1359.8487 C 1303.4057 1359.8682 1303.2678 1359.8805 1303.1291 1359.8805 L 1285.1845 1359.8805 C 1283.5896 1359.8805 1282.1945 1358.4835 1282.1945 1356.8883 L 1282.1945 1350.9083 C 1282.1945 1349.3871 1283.463 1348.0476 1284.964 1347.9267 C 1285.0991 1347.9071 1285.2366 1347.8949 1285.3754 1347.8949 z M 1317.2777 1347.8949 L 1335.2222 1347.8949 C 1336.8175 1347.8949 1338.2144 1349.2918 1338.2144 1350.887 L 1338.2144 1356.8671 C 1338.2144 1358.4621 1336.8175 1359.8572 1335.2222 1359.8572 L 1317.2777 1359.8572 C 1315.6826 1359.8572 1314.2855 1358.4621 1314.2855 1356.8671 L 1314.2855 1350.887 C 1314.2855 1349.2918 1315.6826 1347.8949 1317.2777 1347.8949 z M 1349.18 1347.8949 L 1367.1245 1347.8949 C 1368.7197 1347.8949 1370.1146 1349.2918 1370.1146 1350.887 L 1370.1146 1356.8671 C 1370.1146 1358.4621 1368.7197 1359.8572 1367.1245 1359.8572 L 1349.18 1359.8572 C 1347.5848 1359.8572 1346.19 1358.4621 1346.19 1356.8671 L 1346.19 1350.887 C 1346.19 1349.2918 1347.5848 1347.8949 1349.18 1347.8949 z M 1253.2822 1347.9182 L 1271.2268 1347.9182 C 1272.822 1347.9182 1274.2189 1349.3132 1274.2189 1350.9083 L 1274.2189 1356.8926 C 1274.2189 1358.4878 1272.822 1359.8826 1271.2268 1359.8826 L 1253.2822 1359.8826 C 1251.6872 1359.8826 1250.2922 1358.4878 1250.2922 1356.8926 L 1250.2922 1350.9083 C 1250.2922 1349.3132 1251.6872 1347.9182 1253.2822 1347.9182 z M 1285.3754 1367.8349 L 1303.322 1367.8349 C 1304.9172 1367.8349 1306.3121 1369.232 1306.3121 1370.827 L 1306.3121 1376.8093 C 1306.3121 1378.3289 1305.0441 1379.6635 1303.5447 1379.7866 C 1303.4083 1379.8061 1303.2693 1379.8184 1303.1291 1379.8184 L 1285.1845 1379.8184 C 1283.5896 1379.8184 1282.1945 1378.4234 1282.1945 1376.8283 L 1282.1945 1370.8461 C 1282.1945 1369.3249 1283.463 1367.9856 1284.964 1367.8646 C 1285.0991 1367.8439 1285.2366 1367.8349 1285.3754 1367.8349 z M 1317.2777 1367.8349 L 1335.2222 1367.8349 C 1336.8175 1367.8349 1338.2144 1369.2321 1338.2144 1370.827 L 1338.2144 1376.8093 C 1338.2144 1378.4043 1336.8175 1379.7993 1335.2222 1379.7993 L 1317.2777 1379.7993 C 1315.6826 1379.7993 1314.2855 1378.4043 1314.2855 1376.8093 L 1314.2855 1370.827 C 1314.2855 1369.2321 1315.6826 1367.8349 1317.2777 1367.8349 z M 1349.18 1367.8349 L 1367.1245 1367.8349 C 1368.7197 1367.8349 1370.1146 1369.2321 1370.1146 1370.827 L 1370.1146 1376.8093 C 1370.1146 1378.4043 1368.7197 1379.7993 1367.1245 1379.7993 L 1349.18 1379.7993 C 1347.5848 1379.7993 1346.19 1378.4043 1346.19 1376.8093 L 1346.19 1370.827 C 1346.19 1369.2321 1347.5848 1367.8349 1349.18 1367.8349 z M 1253.2822 1367.8561 L 1271.2268 1367.8561 C 1272.822 1367.8561 1274.2189 1369.251 1274.2189 1370.8461 L 1274.2189 1376.8283 C 1274.2189 1378.4233 1272.822 1379.8205 1271.2268 1379.8205 L 1253.2822 1379.8205 C 1251.6872 1379.8205 1250.2922 1378.4233 1250.2922 1376.8283 L 1250.2922 1370.8461 C 1250.2922 1369.251 1251.6872 1367.8561 1253.2822 1367.8561 z M 1285.3754 1387.7728 L 1303.322 1387.7728 C 1304.9172 1387.7728 1306.3121 1389.1699 1306.3121 1390.7649 L 1306.3121 1396.745 C 1306.3121 1398.2657 1305.0427 1399.6048 1303.5426 1399.7266 C 1303.407 1399.7461 1303.2686 1399.7584 1303.1291 1399.7584 L 1285.1845 1399.7584 C 1283.5896 1399.7584 1282.1945 1398.3633 1282.1945 1396.7683 L 1282.1945 1390.7861 C 1282.1945 1389.2659 1283.4619 1387.9267 1284.9619 1387.8046 C 1285.0977 1387.785 1285.2359 1387.7728 1285.3754 1387.7728 z M 1317.2777 1387.7728 L 1335.2222 1387.7728 C 1336.8175 1387.7728 1338.2144 1389.1699 1338.2144 1390.7649 L 1338.2144 1396.745 C 1338.2144 1398.3403 1336.8175 1399.7351 1335.2222 1399.7351 L 1317.2777 1399.7351 C 1315.6826 1399.7351 1314.2855 1398.3403 1314.2855 1396.745 L 1314.2855 1390.7649 C 1314.2855 1389.1699 1315.6826 1387.7728 1317.2777 1387.7728 z M 1349.18 1387.7728 L 1367.1245 1387.7728 C 1368.7197 1387.7728 1370.1146 1389.1699 1370.1146 1390.7649 L 1370.1146 1396.745 C 1370.1146 1398.3403 1368.7197 1399.7351 1367.1245 1399.7351 L 1349.18 1399.7351 C 1347.5848 1399.7351 1346.19 1398.3403 1346.19 1396.745 L 1346.19 1390.7649 C 1346.19 1389.1699 1347.5848 1387.7728 1349.18 1387.7728 z M 1253.2822 1387.794 L 1271.2268 1387.794 C 1272.822 1387.794 1274.2189 1389.1911 1274.2189 1390.7861 L 1274.2189 1396.7683 C 1274.2189 1398.3633 1272.822 1399.7605 1271.2268 1399.7605 L 1253.2822 1399.7605 C 1251.6872 1399.7605 1250.2922 1398.3633 1250.2922 1396.7683 L 1250.2922 1390.7861 C 1250.2922 1389.1911 1251.6872 1387.794 1253.2822 1387.794 z "
   transform="matrix(0.9210249,0,0,0.9210249,98.6533,88.1045)" />
</svg>
