<?xml version="1.0" encoding="UTF-8" standalone="no"?>
<!-- Generator: Adobe Illustrator 15.1.0, SVG Export Plug-In . SVG Version: 6.00 Build 0)  -->

<svg
   version="1.0"
   id="Layer_1"
   x="0px"
   y="0px"
   width="283.46px"
   height="283.46px"
   viewBox="0 0 283.46 283.46"
   enable-background="new 0 0 283.46 283.46"
   xml:space="preserve"
   sodipodi:docname="shape-circle-filled.svg"
   inkscape:version="1.2.2 (b0a8486541, 2022-12-01)"
   xmlns:inkscape="http://www.inkscape.org/namespaces/inkscape"
   xmlns:sodipodi="http://sodipodi.sourceforge.net/DTD/sodipodi-0.dtd"
   xmlns="http://www.w3.org/2000/svg"
   xmlns:svg="http://www.w3.org/2000/svg"><defs
   id="defs7" /><sodipodi:namedview
   id="namedview5"
   pagecolor="#ffffff"
   bordercolor="#000000"
   borderopacity="0.25"
   inkscape:showpageshadow="2"
   inkscape:pageopacity="0.0"
   inkscape:pagecheckerboard="0"
   inkscape:deskcolor="#d1d1d1"
   showgrid="false"
   inkscape:zoom="2.9633812"
   inkscape:cx="69.346462"
   inkscape:cy="141.73"
   inkscape:window-width="1920"
   inkscape:window-height="1015"
   inkscape:window-x="0"
   inkscape:window-y="0"
   inkscape:window-maximized="1"
   inkscape:current-layer="Layer_1" />
<path
   id="databasepage"
   d="m 44.910026,7.0839957 c -4.97366,0 -9.00387,4.0354833 -9.00387,9.0058263 v 98.300428 h -19.04095 a 1.950188,1.950188 0 0 0 -1.95116,1.94921 v 111.51522 a 1.950188,1.950188 0 0 0 1.95116,1.95117 h 19.04095 v 37.56822 c 0,4.96925 4.03021,9.00193 9.00387,9.00193 H 238.55387 c 4.97146,0 8.99997,-4.03047 8.99997,-9.00193 v -37.56822 h 19.04095 a 1.950188,1.950188 0 0 0 1.95116,-1.95117 V 116.33946 a 1.950188,1.950188 0 0 0 -1.95116,-1.94921 H 247.55384 V 67.144325 c 0,-2.387355 -0.94781,-4.675528 -2.6289,-6.363258 L 193.86458,9.7226577 c -1.69215,-1.686622 -3.98371,-2.638662 -6.37107,-2.638662 z M 189.53843,21.757771 234.83905,64.997849 H 189.61264 Z M 76.083746,54.992026 H 161.4936 c 3.21742,0 5.84569,2.622164 5.84569,5.841776 0,3.220723 -2.62827,5.839822 -5.84569,5.839822 H 76.085706 c -3.22405,0 -5.84288,-2.619099 -5.84178,-5.839822 0,-3.220722 2.61799,-5.841776 5.83982,-5.841776 z m 3.36132,37.2401 H 205.72001 c 4.13808,0 7.49215,2.61689 7.49215,5.839823 0.002,3.222931 -3.35407,5.835911 -7.49215,5.835911 H 79.445066 c -4.1403,0 -7.49803,-2.6163 -7.49803,-5.835911 0,-3.220723 3.35883,-5.842033 7.49803,-5.839823 z M 18.814426,118.29062 H 264.64558 V 225.90547 H 18.814426 Z m 76.27316,27.17178 c -5.85951,0 -10.26831,1.36505 -13.22651,4.0957 -2.90132,2.73065 -4.35156,6.11517 -4.35156,10.15425 0,2.73065 0.56926,4.97862 1.70704,6.74217 1.19465,1.76356 2.73008,3.27187 4.6074,4.52342 1.93421,1.19465 3.98275,2.36028 6.14451,3.49804 1.93421,0.9671 3.66907,1.96231 5.20506,2.98631 1.53599,0.9671 2.75969,2.07656 3.66991,3.32812 0.9671,1.25155 1.449214,2.75988 1.449214,4.52342 0,1.87731 -0.567304,3.38368 -1.705074,4.52146 -1.13778,1.13777 -2.7313,1.70702 -4.77928,1.70702 -1.42222,0 -2.73111,-0.25557 -3.92577,-0.76757 -1.13778,-0.512 -2.01874,-1.05221 -2.64452,-1.62109 -0.39822,-0.39822 -0.7119,-0.76804 -0.93945,-1.10936 -0.17067,-0.34133 -0.312,-0.76926 -0.42578,-1.28126 l -1.19531,-8.02145 h -6.65623 c -0.34134,1.82043 -0.59691,3.9832 -0.76758,6.48631 -0.17063,2.50309 -0.19974,4.8924 -0.0859,7.16794 2.04799,0.96711 4.46634,1.82099 7.25388,2.56053 2.84443,0.73956 5.88817,1.10938 9.13083,1.10938 4.49419,0 8.078154,-0.73964 10.751924,-2.21874 2.73065,-1.536 4.69399,-3.44319 5.88865,-5.71873 1.19466,-2.27555 1.79101,-4.57771 1.79101,-6.91014 0,-2.55997 -0.59635,-4.7789 -1.79101,-6.65622 -1.19466,-1.87732 -2.78819,-3.52699 -4.77928,-4.94921 -1.93421,-1.47909 -4.09698,-2.81704 -6.486314,-4.01169 -3.18577,-1.64978 -5.71641,-3.12906 -7.59373,-4.43749 -1.82044,-1.30843 -2.73046,-3.15753 -2.73046,-5.54686 0,-1.70665 0.51117,-3.07169 1.53516,-4.09568 1.08088,-1.08089 2.5311,-1.6211 4.35154,-1.6211 0.91022,0 1.79316,0.14329 2.64647,0.42774 0.91022,0.22755 1.64986,0.53927 2.21875,0.9375 0.682664,0.4551 1.137684,1.30898 1.365244,2.56053 l 1.27929,6.99608 h 6.4863 c 0.34133,-1.99112 0.56787,-4.09578 0.68164,-6.31443 0.17067,-2.27554 0.17067,-4.43637 0,-6.48436 -1.87731,-0.79644 -4.06719,-1.42182 -6.57029,-1.87694 -2.50309,-0.45511 -5.006654,-0.6836 -7.509744,-0.6836 z m 45.654144,0 c -7.39552,0 -13.02802,2.33317 -16.89642,6.99803 -3.86844,4.66486 -5.80272,11.06409 -5.80272,19.19916 0,7.16794 1.56447,12.97083 4.69334,17.40812 3.18577,4.38043 8.19285,6.71359 15.01948,6.99804 1.93421,0.91021 3.58387,2.04676 4.9492,3.4121 1.42221,1.36532 2.78727,2.73035 4.09568,4.09567 1.30845,1.36534 2.78773,2.50385 4.43749,3.41406 1.64977,0.91021 3.69634,1.36523 6.14256,1.36523 2.16177,0 4.15415,-0.48406 5.97458,-1.45117 1.82045,-0.96711 3.15643,-1.96233 4.00976,-2.98631 l -1.02344,-3.66796 c -0.51199,0.0569 -1.08124,0.11305 -1.70702,0.16992 -0.56889,0.11376 -1.22334,0.16991 -1.96288,0.16991 -2.90132,0 -5.97216,-0.91003 -9.21482,-2.73045 -1.13776,-0.62577 -2.24722,-1.19502 -3.32811,-1.70702 -1.02399,-0.45511 -2.13345,-0.85204 -3.32812,-1.19337 4.77866,-1.47908 8.47685,-4.38151 11.09371,-8.70504 2.61689,-4.38041 3.92382,-9.84056 3.92382,-16.38275 0,-4.9493 -0.73964,-9.24579 -2.21874,-12.88667 -1.47911,-3.64087 -3.78321,-6.45614 -6.91209,-8.44724 -3.07197,-2.04799 -7.05284,-3.07226 -11.94526,-3.07226 z m 26.02529,0.85352 v 4.69334 l 4.86522,0.93945 c 0.9671,0.17067 1.45117,0.73795 1.45117,1.70507 v 34.47449 c 0,0.96711 -0.48407,1.53636 -1.45117,1.70702 l -4.86522,0.93946 v 4.43748 h 38.57213 c 0.62577,-3.01509 0.99559,-5.97366 1.10937,-8.87497 0.11378,-2.90131 0.16992,-5.66044 0.16992,-8.27731 l -5.88865,-0.76757 -3.07225,9.98434 c -0.28445,1.02399 -0.8808,1.70552 -1.79101,2.04686 -0.56889,0.22755 -1.33757,0.42699 -2.30468,0.59765 -0.91022,0.11379 -2.01968,0.16992 -3.32811,0.16992 h -5.37498 v -36.35143 c 0,-0.9671 0.48405,-1.53635 1.45116,-1.70702 l 6.39842,-1.02344 v -4.69334 z m -26.70888,4.0117 c 3.01509,0 5.23401,1.53542 6.65622,4.60741 1.47911,3.07198 2.21875,8.19137 2.21875,15.35932 0,7.45239 -0.79578,12.82929 -2.38867,16.12884 -1.53598,3.24265 -3.813,4.86327 -6.8281,4.86327 -2.95821,0 -5.17517,-1.56448 -6.65428,-4.69335 -1.42221,-3.12886 -2.13475,-8.30634 -2.13475,-15.53119 0,-7.39552 0.7687,-12.68528 2.30468,-15.87103 1.53599,-3.24266 3.81105,-4.86327 6.82615,-4.86327 z M 73.365006,229.80585 H 211.79421 c -1.35125,1.48988 -3.55409,2.4746 -6.0742,2.4746 H 79.445066 c -2.52174,0 -4.72697,-0.98442 -6.08006,-2.4746 z" />
</svg>
