<?xml version="1.0" encoding="UTF-8" standalone="no"?>
<!-- Generator: Adobe Illustrator 15.1.0, SVG Export Plug-In . SVG Version: 6.00 Build 0)  -->

<svg
   version="1.1"
   id="Layer_1"
   x="0px"
   y="0px"
   width="283.465px"
   height="283.465px"
   viewBox="0 0 283.465 283.465"
   enable-background="new 0 0 283.465 283.465"
   xml:space="preserve"
   sodipodi:docname="distributed.svg"
   inkscape:version="1.2.2 (b0a8486541, 2022-12-01)"
   xmlns:inkscape="http://www.inkscape.org/namespaces/inkscape"
   xmlns:sodipodi="http://sodipodi.sourceforge.net/DTD/sodipodi-0.dtd"
   xmlns="http://www.w3.org/2000/svg"
   xmlns:svg="http://www.w3.org/2000/svg"><defs
   id="defs314"><marker
     id="DistanceX"
     orient="auto"
     refX="0.0"
     refY="0.0"
     style="overflow:visible"><path
       d="M 3,-3 L -3,3 M 0,-5 L  0,5"
       style="stroke:#000000; stroke-width:0.5"
       id="path2973" /></marker><pattern
     id="Hatch"
     patternUnits="userSpaceOnUse"
     width="8"
     height="8"
     x="0"
     y="0"><path
       d="M8 4 l-4,4"
       stroke="#000000"
       stroke-width="0.25"
       linecap="square"
       id="path2976" /><path
       d="M6 2 l-4,4"
       stroke="#000000"
       stroke-width="0.25"
       linecap="square"
       id="path2978" /><path
       d="M4 0 l-4,4"
       stroke="#000000"
       stroke-width="0.25"
       linecap="square"
       id="path2980" /></pattern><symbol
     id="*MODEL_SPACE" /><symbol
     id="*PAPER_SPACE" /><symbol
     id="*D0"><path
       style="fill:none;stroke:#000000;stroke-linecap:round"
       d="M 133.733 560.801 L 115.633 560.801"
       id="path2985" /><path
       style="fill:none;stroke:#000000;stroke-linecap:round"
       d="M 133.733 610.369 L 115.633 610.369"
       id="path2987" /><path
       style="fill:none;stroke:#000000;stroke-linecap:round"
       d="M 116.314 561.481 L 116.314 584.905"
       id="path2989" /><path
       style="fill:none;stroke:#000000;stroke-linecap:round"
       d="M 116.314 609.688 L 116.314 586.265"
       id="path2991" /><path
       style="fill:none;stroke:#000000;stroke-linecap:round"
       d="M 116.2 561.481 L 116.427 561.481 L 116.314 560.801 z"
       id="path2993" /><path
       style="fill:none;stroke:#000000;stroke-linecap:round"
       d="M 116.2 609.688 L 116.427 609.688 L 116.314 610.369 z"
       id="path2995" /><text
       x="116.313628"
       y="585.584925"
       style="font-size: 0.680px; fill: #000000; font-family: Arial; text-anchor: middle"
       id="text2999"><tspan
         sodipodi:role="line"
         dx="0.000000"
         dy="0.340157"
         dominant-baseline="central"
         id="tspan2997">13.1148</tspan></text><path
       d="M 134.219508,560.801113 A 0.250000,0.250000 0.000000 0, 0 133.719508,560.801113 A 0.250000,0.250000 0.000000 0, 0 134.219508,560.801113 z"
       style="fill:none;stroke:#000000;stroke-linecap: round"
       id="path3001" /><path
       d="M 134.219508,610.368737 A 0.250000,0.250000 0.000000 0, 0 133.719508,610.368737 A 0.250000,0.250000 0.000000 0, 0 134.219508,610.368737 z"
       style="fill:none;stroke:#000000;stroke-linecap: round"
       id="path3003" /><path
       d="M 116.563628,610.368737 A 0.250000,0.250000 0.000000 0, 0 116.063628,610.368737 A 0.250000,0.250000 0.000000 0, 0 116.563628,610.368737 z"
       style="fill:none;stroke:#000000;stroke-linecap: round"
       id="path3005" /></symbol></defs><sodipodi:namedview
   id="namedview312"
   pagecolor="#ffffff"
   bordercolor="#000000"
   borderopacity="0.25"
   inkscape:showpageshadow="2"
   inkscape:pageopacity="0.0"
   inkscape:pagecheckerboard="0"
   inkscape:deskcolor="#d1d1d1"
   showgrid="false"
   inkscape:zoom="1.047695"
   inkscape:cx="108.33306"
   inkscape:cy="121.21849"
   inkscape:window-width="1920"
   inkscape:window-height="1015"
   inkscape:window-x="0"
   inkscape:window-y="0"
   inkscape:window-maximized="1"
   inkscape:current-layer="Layer_1" />

<path
   id="path1372"
   style="display:inline;stroke-width:4.17531;stroke-linecap:round;stroke-linejoin:round;paint-order:stroke fill markers"
   inkscape:transform-center-x="-0.12652628"
   inkscape:transform-center-y="-81.591118"
   d="M 131.89756 49.417152 A 25.364967 25.43544 30 0 0 128.13688 49.129322 A 25.364967 25.43544 0 0 0 126.80313 48.93775 A 25.364967 25.43544 0 0 0 126.41883 48.99856 A 25.364967 25.43544 30 0 0 103.91718 61.444495 A 25.364967 25.43544 30 0 0 113.16496 96.153488 A 25.364967 25.43544 30 0 0 117.26769 98.047466 L 103.78281 148.37371 A 25.364967 25.43544 30 0 0 102.08162 148.33846 A 25.364967 25.43544 0 0 0 100.21908 148.15078 A 25.364967 25.43544 0 0 0 99.121592 148.27729 A 25.364967 25.43544 30 0 0 89.064707 150.2595 L 41.899857 68.567583 A 25.43544 25.364967 90 0 0 52.689679 47.91224 A 25.43544 25.364967 90 0 0 27.324609 22.476675 A 25.43544 25.364967 90 0 0 1.9613023 47.911657 A 25.43544 25.364967 90 0 0 27.326372 73.347222 A 25.43544 25.364967 90 0 0 37.912078 71.021427 L 84.926393 152.45261 A 25.364967 25.43544 30 0 0 77.333131 160.65753 A 25.364967 25.43544 30 0 0 75.479043 164.75477 L 26.147023 151.53629 A 25.364967 25.43544 0 0 0 26.550336 147.05032 A 25.364967 25.43544 0 0 0 1.1852662 121.61475 A 25.364967 25.43544 0 0 0 -24.179927 147.04923 A 25.364967 25.43544 0 0 0 1.1851421 172.4848 A 25.364967 25.43544 0 0 0 25.136272 155.40656 L 74.430561 168.61493 A 25.364967 25.43544 30 0 0 76.396657 184.24828 L -5.0680137 231.28193 A 25.364967 25.43544 30 0 0 -12.82524 224.16855 A 25.364967 25.43544 30 0 0 -47.509818 233.51386 A 25.364967 25.43544 30 0 0 -38.260154 268.22336 A 25.364967 25.43544 30 0 0 -3.5755765 258.87805 A 25.364967 25.43544 30 0 0 -2.6409886 235.28679 L 78.823682 188.25314 A 25.364967 25.43544 30 0 0 86.580909 195.36652 A 25.364967 25.43544 30 0 0 90.683633 197.2605 L 76.938927 248.55644 A 25.43544 25.364967 30 0 0 74.885618 248.49963 A 25.364967 25.43544 90 0 0 73.39052 248.35178 A 25.364967 25.43544 90 0 0 72.813814 248.44394 A 25.43544 25.364967 30 0 0 50.442428 260.75088 A 25.43544 25.364967 30 0 0 59.787739 295.43546 A 25.43544 25.364967 30 0 0 71.599595 298.79657 A 25.364967 25.43544 90 0 0 73.389937 299.08015 A 25.364967 25.43544 90 0 0 98.825502 273.71508 A 25.364967 25.43544 90 0 0 85.606671 251.87177 A 25.43544 25.364967 30 0 0 85.151422 251.5031 A 25.43544 25.364967 30 0 0 83.780814 250.8831 A 25.364967 25.43544 90 0 0 81.976079 249.90614 L 95.720786 198.6102 A 25.364967 25.43544 0 0 0 100.22084 199.02133 A 25.364967 25.43544 0 0 0 110.49548 196.73957 L 157.52913 278.20424 A 25.43544 25.364967 90 0 0 146.54288 299.10217 A 25.43544 25.364967 90 0 0 171.90795 324.53773 A 25.43544 25.364967 90 0 0 197.27314 299.10326 A 25.43544 25.364967 90 0 0 171.90807 273.66769 A 25.43544 25.364967 90 0 0 161.63343 275.94945 L 114.59978 194.48478 A 25.364967 25.43544 0 0 0 124.11914 181.92895 L 173.41343 195.13731 A 25.364967 25.43544 30 0 0 185.6166 221.90306 A 25.364967 25.43544 30 0 0 220.30118 212.55775 A 25.364967 25.43544 30 0 0 211.05152 177.84825 A 25.364967 25.43544 30 0 0 176.36694 187.19356 A 25.364967 25.43544 30 0 0 174.47323 191.28018 L 125.14121 178.0617 A 25.364967 25.43544 0 0 0 125.58414 173.58635 A 25.364967 25.43544 0 0 0 123.11065 162.68405 L 204.54183 115.66973 A 25.364967 25.43544 30 0 0 212.54642 122.97678 A 25.364967 25.43544 30 0 0 247.231 113.63147 A 25.364967 25.43544 30 0 0 237.98322 78.92248 A 25.364967 25.43544 30 0 0 203.29864 88.267791 A 25.364967 25.43544 30 0 0 202.31523 111.55075 L 120.62332 158.71561 A 25.364967 25.43544 0 0 0 112.9049 151.97052 A 25.364967 25.43544 30 0 0 112.01771 151.31222 A 25.364967 25.43544 30 0 0 110.31086 150.54348 A 25.364967 25.43544 0 0 0 108.81996 149.72341 L 122.30484 99.397166 A 25.364967 25.43544 0 0 0 126.80489 99.808296 A 25.364967 25.43544 0 0 0 152.1682 74.373315 A 25.364967 25.43544 0 0 0 138.90417 52.343998 A 25.364967 25.43544 30 0 0 138.60176 52.099184 A 25.364967 25.43544 30 0 0 137.35091 51.598213 A 25.364967 25.43544 0 0 0 133.95015 49.967143 A 25.364967 25.43544 0 0 0 132.891 49.814775 A 25.364967 25.43544 30 0 0 131.89756 49.417152 z "
   transform="rotate(-15)" /></svg>
