<?xml version="1.0" encoding="UTF-8" standalone="no"?>
<!-- Generator: Adobe Illustrator 15.1.0, SVG Export Plug-In . SVG Version: 6.00 Build 0)  -->

<svg
   version="1.1"
   id="Layer_2"
   x="0px"
   y="0px"
   width="283.465px"
   height="283.465px"
   viewBox="0 0 283.465 283.465"
   enable-background="new 0 0 283.465 283.465"
   xml:space="preserve"
   sodipodi:docname="document.svg"
   inkscape:version="1.2.2 (b0a8486541, 2022-12-01)"
   xmlns:inkscape="http://www.inkscape.org/namespaces/inkscape"
   xmlns:sodipodi="http://sodipodi.sourceforge.net/DTD/sodipodi-0.dtd"
   xmlns="http://www.w3.org/2000/svg"
   xmlns:svg="http://www.w3.org/2000/svg"><defs
   id="defs795" /><sodipodi:namedview
   id="namedview793"
   pagecolor="#ffffff"
   bordercolor="#000000"
   borderopacity="0.25"
   inkscape:showpageshadow="2"
   inkscape:pageopacity="0.0"
   inkscape:pagecheckerboard="0"
   inkscape:deskcolor="#d1d1d1"
   showgrid="false"
   inkscape:zoom="0.52384748"
   inkscape:cx="533.55225"
   inkscape:cy="274.88917"
   inkscape:window-width="1920"
   inkscape:window-height="1015"
   inkscape:window-x="0"
   inkscape:window-y="0"
   inkscape:window-maximized="1"
   inkscape:current-layer="Layer_2" />

<path
   d="m 193.86669,9.7236572 c -1.69216,-1.686632 -3.98337,-2.637159 -6.37074,-2.637159 H 44.911387 c -4.97369,0 -9.00348,4.0342128 -9.00348,9.0045838 V 267.37723 c 0,4.96927 4.02979,9.00127 9.00348,9.00127 H 238.55582 c 4.97148,0 9.00127,-4.02979 9.00127,-9.00127 V 67.146538 c 0,-2.38737 -0.94832,-4.675273 -2.62942,-6.363013 z M 79.447567,232.284 c -4.14032,0 -7.50032,-2.61837 -7.50032,-5.84353 0,-3.22516 3.36,-5.83579 7.50032,-5.83579 H 205.72175 c 4.1359,0 7.497,2.61284 7.49258,5.83579 0,3.22074 -3.35447,5.84353 -7.49258,5.84353 z M 161.49572,66.675688 H 76.087567 c -3.22406,0 -5.84353,-2.61947 -5.84243,-5.840213 0,-3.22074 2.61837,-5.84132 5.84022,-5.84132 h 85.410363 c 3.21743,0 5.84574,2.62169 5.84574,5.84132 0,3.220743 -2.62831,5.840213 -5.84574,5.840213 z M 205.72285,189.38982 H 79.447567 c -4.14032,0 -7.50032,-2.61505 -7.50032,-5.83137 0,-3.22516 3.36,-5.83911 7.50032,-5.83911 H 205.72175 c 4.13811,0 7.497,2.61616 7.49258,5.83911 0.002,3.21853 -3.35337,5.83137 -7.49148,5.83137 z m 0,-42.63555 H 79.447567 c -4.14032,0 -7.50032,-2.61395 -7.50032,-5.8369 0,-3.22295 3.36,-5.838 7.50032,-5.838 H 205.72175 c 4.13811,0 7.497,2.61726 7.49258,5.838 0.002,3.21963 -3.35337,5.8369 -7.49148,5.8369 z m 0,-42.84445 H 79.447567 c -4.14032,0 -7.49811,-2.61616 -7.49811,-5.835792 0,-3.22074 3.35889,-5.84243 7.49811,-5.84022 H 205.72175 c 4.13811,0 7.49258,2.61727 7.49258,5.84022 0.002,3.222952 -3.35337,5.835792 -7.49148,5.835792 z m -16.10701,-38.909712 -0.0752,-43.241233 45.30144,43.241233 z"
   id="path508"
   style="stroke-width:1.10526" /></svg>
