<?xml version="1.0" encoding="UTF-8" standalone="no"?>
<!-- Generator: Adobe Illustrator 15.1.0, SVG Export Plug-In . SVG Version: 6.00 Build 0)  -->

<svg
   version="1.1"
   id="Layer_2"
   x="0px"
   y="0px"
   width="283.465px"
   height="283.465px"
   viewBox="0 0 283.465 283.465"
   enable-background="new 0 0 283.465 283.465"
   xml:space="preserve"
   sodipodi:docname="document-invoice.svg"
   inkscape:version="1.2.2 (b0a8486541, 2022-12-01)"
   xmlns:inkscape="http://www.inkscape.org/namespaces/inkscape"
   xmlns:sodipodi="http://sodipodi.sourceforge.net/DTD/sodipodi-0.dtd"
   xmlns="http://www.w3.org/2000/svg"
   xmlns:svg="http://www.w3.org/2000/svg"><defs
   id="defs2758" /><sodipodi:namedview
   id="namedview2756"
   pagecolor="#ffffff"
   bordercolor="#000000"
   borderopacity="0.25"
   inkscape:showpageshadow="2"
   inkscape:pageopacity="0.0"
   inkscape:pagecheckerboard="0"
   inkscape:deskcolor="#d1d1d1"
   showgrid="false"
   inkscape:zoom="4.1907801"
   inkscape:cx="185.52632"
   inkscape:cy="177.53258"
   inkscape:window-width="1920"
   inkscape:window-height="1015"
   inkscape:window-x="0"
   inkscape:window-y="0"
   inkscape:window-maximized="1"
   inkscape:current-layer="Layer_2" />

<path
   id="path508"
   style="stroke-width:1.10526"
   d="M 44.912109 7.0859375 C 39.938439 7.0859375 35.908203 11.121447 35.908203 16.091797 L 35.908203 267.37695 C 35.908203 272.34622 39.938439 276.37891 44.912109 276.37891 L 238.55664 276.37891 C 243.52812 276.37891 247.55664 272.34843 247.55664 267.37695 L 247.55664 67.146484 C 247.55664 64.759126 246.60883 62.470935 244.92773 60.783203 L 193.86719 9.7246094 C 192.17503 8.0379862 189.88346 7.0859375 187.49609 7.0859375 L 44.912109 7.0859375 z M 189.54102 21.759766 L 234.8418 65 L 189.61523 65 L 189.54102 21.759766 z M 76.085938 54.994141 L 161.49609 54.994141 C 164.71352 54.994141 167.3418 57.61632 167.3418 60.835938 C 167.3418 64.056665 164.71352 66.675781 161.49609 66.675781 L 76.087891 66.675781 C 72.863843 66.675781 70.244994 64.056665 70.246094 60.835938 C 70.246094 57.61521 72.8641 54.994141 76.085938 54.994141 z M 79.447266 92.234375 L 205.72266 92.234375 C 209.86073 92.234375 213.21484 94.851281 213.21484 98.074219 C 213.21684 101.29717 209.86073 103.91016 205.72266 103.91016 L 79.447266 103.91016 C 75.306962 103.91016 71.949219 101.29385 71.949219 98.074219 C 71.949219 94.853491 75.308062 92.232165 79.447266 92.234375 z M 79.447266 135.08008 L 205.72266 135.08008 C 209.86073 135.08008 213.21926 137.69723 213.21484 140.91797 C 213.21684 144.1376 209.86073 146.75391 205.72266 146.75391 L 79.447266 146.75391 C 75.306962 146.75391 71.947266 144.14092 71.947266 140.91797 C 71.947266 137.69502 75.306962 135.08008 79.447266 135.08008 z M 79.447266 177.71875 L 205.72266 177.71875 C 209.86073 177.71875 213.21926 180.33568 213.21484 183.55859 C 213.21684 186.77712 209.86073 189.39063 205.72266 189.39062 L 79.447266 189.39062 C 75.306962 189.39062 71.947266 186.77491 71.947266 183.55859 C 71.947266 180.33347 75.306962 177.71875 79.447266 177.71875 z M 200.29492 189.69141 C 221.9512 189.69141 239.42578 207.16599 239.42578 228.82227 C 239.42578 250.47851 221.9512 267.95313 200.29492 267.95312 C 179.80748 267.95313 163.0876 252.3069 161.33984 232.2832 L 79.447266 232.2832 C 75.306962 232.2832 71.947266 229.66653 71.947266 226.44141 C 71.947266 223.21625 75.306962 220.60547 79.447266 220.60547 L 162.04102 220.60547 C 165.80511 202.9153 181.46053 189.69141 200.29492 189.69141 z M 200.29492 203.03125 C 186.07474 203.03125 174.50391 214.59971 174.50391 228.82227 C 174.50391 243.04245 186.07238 254.61328 200.29492 254.61328 C 214.51513 254.61328 226.08594 243.04245 226.08594 228.82227 C 226.08594 214.60206 214.51748 203.03125 200.29492 203.03125 z M 199.11523 210.88672 L 202.03125 210.88672 L 202.03125 214.8418 C 204.18229 215.14562 205.8648 216.04623 207.08008 217.54102 C 208.29535 219.02365 208.9043 220.94858 208.9043 223.31836 L 203.63477 223.31836 C 203.63477 221.86003 203.33225 220.77365 202.72461 220.05664 C 202.12912 219.32747 201.32704 218.96289 200.31836 218.96289 C 199.32183 218.96289 198.54883 219.24718 198.00195 219.81836 C 197.45508 220.37739 197.18164 221.15582 197.18164 222.15234 C 197.18164 223.07595 197.44966 223.81793 197.98438 224.37695 C 198.5191 224.93598 199.50891 225.50651 200.95508 226.08984 C 202.41341 226.67318 203.61111 227.22547 204.54688 227.74805 C 205.48263 228.25846 206.27192 228.84179 206.91602 229.49805 C 207.56011 230.14214 208.0523 230.88412 208.39258 231.72266 C 208.73285 232.54904 208.9043 233.51519 208.9043 234.62109 C 208.9043 236.68706 208.2589 238.36415 206.9707 239.65234 C 205.68251 240.94054 203.90885 241.70073 201.64844 241.93164 L 201.64844 245.55859 L 198.75 245.55859 L 198.75 241.94922 C 196.25868 241.68185 194.32638 240.80143 192.95312 239.30664 C 191.59201 237.7997 190.91211 235.7999 190.91211 233.30859 L 196.17969 233.30859 C 196.17969 234.75477 196.52062 235.86676 197.20117 236.64453 C 197.89388 237.41016 198.88368 237.79297 200.17188 237.79297 C 201.24132 237.79297 202.08529 237.5141 202.70508 236.95508 C 203.32487 236.3839 203.63477 235.61827 203.63477 234.6582 C 203.63477 233.66167 203.3559 232.87044 202.79688 232.28711 C 202.25 231.69162 201.31489 231.14475 199.99023 230.64648 C 198.66558 230.14822 197.52257 229.65603 196.5625 229.16992 C 195.60243 228.67166 194.7767 228.10656 194.08398 227.47461 C 193.40343 226.83051 192.8674 226.07769 192.47852 225.21484 C 192.10178 224.352 191.91406 223.32574 191.91406 222.13477 C 191.91406 220.08095 192.57032 218.39648 193.88281 217.08398 C 195.19531 215.77149 196.93989 215.00586 199.11523 214.78711 L 199.11523 210.88672 z " /></svg>
