<?xml version="1.0" encoding="UTF-8" standalone="no"?>
<!-- Generator: Adobe Illustrator 15.1.0, SVG Export Plug-In . SVG Version: 6.00 Build 0)  -->

<svg
   version="1.0"
   id="Layer_1"
   x="0px"
   y="0px"
   width="283.46px"
   height="283.46px"
   viewBox="0 0 283.46 283.46"
   enable-background="new 0 0 283.46 283.46"
   xml:space="preserve"
   sodipodi:docname="document-json.svg"
   inkscape:version="1.2.2 (b0a8486541, 2022-12-01)"
   xmlns:inkscape="http://www.inkscape.org/namespaces/inkscape"
   xmlns:sodipodi="http://sodipodi.sourceforge.net/DTD/sodipodi-0.dtd"
   xmlns="http://www.w3.org/2000/svg"
   xmlns:svg="http://www.w3.org/2000/svg"><defs
   id="defs7"><style
     id="style5223">.cls-1{fill:none;}</style></defs><sodipodi:namedview
   id="namedview5"
   pagecolor="#ffffff"
   bordercolor="#000000"
   borderopacity="0.25"
   inkscape:showpageshadow="2"
   inkscape:pageopacity="0.0"
   inkscape:pagecheckerboard="0"
   inkscape:deskcolor="#d1d1d1"
   showgrid="false"
   inkscape:zoom="0.7408453"
   inkscape:cx="112.70909"
   inkscape:cy="53.992379"
   inkscape:window-width="1920"
   inkscape:window-height="1015"
   inkscape:window-x="0"
   inkscape:window-y="0"
   inkscape:window-maximized="1"
   inkscape:current-layer="Layer_1" />
<path
   id="databasepage"
   d="M 44.910156 7.0839844 C 39.936501 7.0839844 35.90625 11.119506 35.90625 16.089844 L 35.90625 114.39062 L 16.865234 114.39062 A 1.950188 1.950188 0 0 0 14.914062 116.33984 L 14.914062 227.85547 A 1.950188 1.950188 0 0 0 16.865234 229.80664 L 35.90625 229.80664 L 35.90625 267.375 C 35.90625 272.34425 39.936501 276.37695 44.910156 276.37695 L 238.55469 276.37695 C 243.52614 276.37695 247.55469 272.34646 247.55469 267.375 L 247.55469 229.80664 L 266.5957 229.80664 A 1.950188 1.950188 0 0 0 268.54688 227.85547 L 268.54688 116.33984 A 1.950188 1.950188 0 0 0 266.5957 114.39062 L 247.55469 114.39062 L 247.55469 67.144531 C 247.55469 64.757179 246.60687 62.468978 244.92578 60.78125 L 193.86523 9.7226562 C 192.17309 8.0360359 189.8815 7.0839844 187.49414 7.0839844 L 44.910156 7.0839844 z M 189.53906 21.757812 L 234.83984 64.998047 L 189.61328 64.998047 L 189.53906 21.757812 z M 76.083984 54.992188 L 161.49414 54.992188 C 164.71156 54.992188 167.33984 57.614376 167.33984 60.833984 C 167.33984 64.054704 164.71156 66.673828 161.49414 66.673828 L 76.085938 66.673828 C 72.861891 66.673828 70.243041 64.054704 70.244141 60.833984 C 70.244141 57.613266 72.862158 54.992188 76.083984 54.992188 z M 79.445312 92.232422 L 205.7207 92.232422 C 209.85878 92.232422 213.21289 94.849336 213.21289 98.072266 C 213.21489 101.29519 209.85878 103.9082 205.7207 103.9082 L 79.445312 103.9082 C 75.305017 103.9082 71.947266 101.29187 71.947266 98.072266 C 71.947266 94.851546 75.306117 92.230212 79.445312 92.232422 z M 18.814453 118.29102 L 264.64648 118.29102 L 264.64648 225.90625 L 18.814453 225.90625 L 18.814453 118.29102 z M 73.365234 229.80664 L 211.79492 229.80664 C 210.44367 231.29652 208.24081 232.28125 205.7207 232.28125 L 79.445312 232.28125 C 76.923575 232.28125 74.718323 231.29682 73.365234 229.80664 z " />
<polygon
   points="31,21 29,21 27,15 27,21 25,21 25,11 27,11 29,17 29,11 31,11 "
   id="polygon5229"
   style="fill:#000000"
   transform="matrix(5.1554077,0,0,5.1554077,59.243473,88.043695)" /><path
   d="m 21.3335,21 h -2.667 A 1.6684,1.6684 0 0 1 17,19.3335 v -6.667 A 1.6684,1.6684 0 0 1 18.6665,11 h 2.667 A 1.6684,1.6684 0 0 1 23,12.6665 v 6.667 A 1.6684,1.6684 0 0 1 21.3335,21 Z M 19,19 h 2 v -6 h -2 z"
   id="path5231"
   style="fill:#000000"
   transform="matrix(5.1554077,0,0,5.1554077,59.243473,88.043695)" /><path
   d="M 13.3335,21 H 9 v -2 h 4 V 17 H 11 A 2.002,2.002 0 0 1 9,15 V 12.6665 A 1.6684,1.6684 0 0 1 10.6665,11 H 15 v 2 h -4 v 2 h 2 a 2.002,2.002 0 0 1 2,2 v 2.3335 A 1.6684,1.6684 0 0 1 13.3335,21 Z"
   id="path5233"
   style="fill:#000000"
   transform="matrix(5.1554077,0,0,5.1554077,59.243473,88.043695)" /><path
   d="M 5.3335,21 H 2.6665 A 1.6684,1.6684 0 0 1 1,19.3335 V 17 h 2 v 2 h 2 v -8 h 2 v 8.3335 A 1.6684,1.6684 0 0 1 5.3335,21 Z"
   id="path5235"
   style="fill:#000000"
   transform="matrix(5.1554077,0,0,5.1554077,59.243473,88.043695)" /></svg>
