<?xml version="1.0" encoding="UTF-8" standalone="no"?>
<!-- Generator: Adobe Illustrator 15.1.0, SVG Export Plug-In . SVG Version: 6.00 Build 0)  -->

<svg
   version="1.1"
   id="Layer_2"
   x="0px"
   y="0px"
   width="283.465px"
   height="283.465px"
   viewBox="0 0 283.465 283.465"
   enable-background="new 0 0 283.465 283.465"
   xml:space="preserve"
   sodipodi:docname="document-certificate.svg"
   inkscape:version="1.2.2 (b0a8486541, 2022-12-01)"
   xmlns:inkscape="http://www.inkscape.org/namespaces/inkscape"
   xmlns:sodipodi="http://sodipodi.sourceforge.net/DTD/sodipodi-0.dtd"
   xmlns="http://www.w3.org/2000/svg"
   xmlns:svg="http://www.w3.org/2000/svg"><defs
   id="defs795" /><sodipodi:namedview
   id="namedview793"
   pagecolor="#ffffff"
   bordercolor="#000000"
   borderopacity="0.25"
   inkscape:showpageshadow="2"
   inkscape:pageopacity="0.0"
   inkscape:pagecheckerboard="0"
   inkscape:deskcolor="#d1d1d1"
   showgrid="false"
   inkscape:zoom="1.4816644"
   inkscape:cx="268.95429"
   inkscape:cy="137.683"
   inkscape:window-width="1920"
   inkscape:window-height="1015"
   inkscape:window-x="0"
   inkscape:window-y="0"
   inkscape:window-maximized="1"
   inkscape:current-layer="Layer_2" />

<path
   id="path508"
   style="stroke-width:1.10526"
   d="M 44.912109 7.0859375 C 39.938454 7.0859375 35.908203 11.121461 35.908203 16.091797 L 35.908203 267.37695 C 35.908203 272.34622 39.938454 276.37891 44.912109 276.37891 L 238.55664 276.37891 C 243.52812 276.37891 247.55664 272.34843 247.55664 267.37695 L 247.55664 67.146484 C 247.55664 64.759135 246.60883 62.470929 244.92773 60.783203 L 193.86719 9.7246094 C 192.17503 8.0379893 189.88346 7.0859375 187.49609 7.0859375 L 44.912109 7.0859375 z M 189.54102 21.759766 L 234.8418 65 L 189.61523 65 L 189.54102 21.759766 z M 76.085938 54.994141 L 161.49609 54.994141 C 164.71352 54.994141 167.3418 57.616329 167.3418 60.835938 C 167.3418 64.056653 164.71352 66.675781 161.49609 66.675781 L 76.087891 66.675781 C 72.863852 66.675781 70.244994 64.056653 70.246094 60.835938 C 70.246094 57.615219 72.864109 54.994141 76.085938 54.994141 z M 79.447266 92.234375 L 205.72266 92.234375 C 209.8607 92.234375 213.21484 94.85129 213.21484 98.074219 C 213.21684 101.29717 209.8607 103.91016 205.72266 103.91016 L 79.447266 103.91016 C 75.306974 103.91016 71.949219 101.29385 71.949219 98.074219 C 71.949219 94.8535 75.308074 92.232165 79.447266 92.234375 z M 167.26172 116.26172 L 178.66406 124.4707 L 190.06836 116.26172 L 197.42383 128.21484 L 211.12891 125.93164 L 212.92188 139.37891 C 212.95193 139.46262 212.99234 139.54173 213.01758 139.62695 L 226.1875 142.80664 L 222.52539 156.08398 L 233.52734 164.79492 L 224.42969 175.25586 L 230.09766 185.07812 L 231.30859 187.17969 L 218.48047 193.13477 L 219.84961 207.27344 L 205.64844 207.73047 L 202.41016 216.79688 L 202.41016 262.92383 L 179.95508 249.06836 L 157.50195 262.92383 L 157.50195 232.2832 L 79.447266 232.2832 C 75.306974 232.2832 71.947266 229.6665 71.947266 226.44141 C 71.947266 223.21625 75.306974 220.60547 79.447266 220.60547 L 157.50195 220.60547 L 157.50195 220.02734 L 156.25 220.51953 L 151.68164 207.73047 L 137.55469 207.27539 L 138.4668 193.13477 L 130.68945 189.39062 L 79.447266 189.39062 C 75.306974 189.39062 71.947266 186.77491 71.947266 183.55859 C 71.947266 180.3335 75.306974 177.71875 79.447266 177.71875 L 131.47852 177.71875 L 132.87891 175.29102 L 123.29492 164.79492 L 134.75391 156.08594 L 131.85742 146.75391 L 79.447266 146.75391 C 75.306974 146.75391 71.947266 144.14092 71.947266 140.91797 C 71.947266 137.69502 75.306974 135.08008 79.447266 135.08008 L 144.98047 135.08008 L 146.19922 125.93164 L 159.90625 128.21484 L 167.26172 116.26172 z M 188.78906 122.65234 L 178.66406 129.94141 L 168.54102 122.6543 L 162.12109 133.08594 L 149.99414 131.06445 L 148.37305 143.22656 L 136.28711 146.04688 L 139.91602 157.73828 L 129.84961 165.38867 L 138.34766 174.69727 L 132.27344 185.22461 L 143.0918 190.43359 L 142.28125 202.98633 L 154.8457 203.39062 L 158.88867 214.71289 L 170.19922 210.26758 L 178.66406 219.13672 L 187.12891 210.26758 L 198.43945 214.71289 L 202.48242 203.39062 L 214.97461 202.98828 L 213.75781 190.43164 L 225.03906 185.19531 L 219.00195 174.73242 L 227.12695 165.38867 L 217.46289 157.74023 L 220.6875 146.04688 L 208.95312 143.21484 L 207.33398 131.06445 L 195.20898 133.08594 L 188.78906 122.65234 z M 178.66406 136.67773 A 34.011084 34.011084 0 0 1 212.67578 170.68945 A 34.011084 34.011084 0 0 1 178.66406 204.69922 A 34.011084 34.011084 0 0 1 144.65234 170.68945 A 34.011084 34.011084 0 0 1 178.66406 136.67773 z M 178.66406 147.44141 A 23.24799 23.24799 0 0 0 155.41602 170.68945 A 23.24799 23.24799 0 0 0 178.66406 193.9375 A 23.24799 23.24799 0 0 0 201.91211 170.68945 A 23.24799 23.24799 0 0 0 178.66406 147.44141 z M 169.04688 215.49023 L 159.7207 219.15625 L 159.7207 258.94531 L 179.95508 246.46094 L 200.19141 258.94531 L 200.19141 220.16992 L 188.28125 215.49023 L 178.66406 225.56641 L 169.04688 215.49023 z " /></svg>
