<?xml version="1.0" encoding="UTF-8" standalone="no"?>
<!-- Generator: Adobe Illustrator 15.1.0, SVG Export Plug-In . SVG Version: 6.00 Build 0)  -->

<svg
   version="1.1"
   id="Layer_2"
   x="0px"
   y="0px"
   width="283.465px"
   height="283.465px"
   viewBox="0 0 283.465 283.465"
   enable-background="new 0 0 283.465 283.465"
   xml:space="preserve"
   sodipodi:docname="document-contract.svg"
   inkscape:version="1.2.2 (b0a8486541, 2022-12-01)"
   xmlns:inkscape="http://www.inkscape.org/namespaces/inkscape"
   xmlns:sodipodi="http://sodipodi.sourceforge.net/DTD/sodipodi-0.dtd"
   xmlns="http://www.w3.org/2000/svg"
   xmlns:svg="http://www.w3.org/2000/svg"><defs
   id="defs2758" /><sodipodi:namedview
   id="namedview2756"
   pagecolor="#ffffff"
   bordercolor="#000000"
   borderopacity="0.25"
   inkscape:showpageshadow="2"
   inkscape:pageopacity="0.0"
   inkscape:pagecheckerboard="0"
   inkscape:deskcolor="#d1d1d1"
   showgrid="false"
   inkscape:zoom="1.4816645"
   inkscape:cx="19.235124"
   inkscape:cy="255.11849"
   inkscape:window-width="1920"
   inkscape:window-height="1015"
   inkscape:window-x="0"
   inkscape:window-y="0"
   inkscape:window-maximized="1"
   inkscape:current-layer="Layer_2" />

<path
   id="path508"
   style="stroke-width:1.10526"
   d="M 44.912109 7.0859375 C 39.938429 7.0859375 35.908203 11.121437 35.908203 16.091797 L 35.908203 267.37695 C 35.908203 272.34622 39.938429 276.37891 44.912109 276.37891 L 238.55664 276.37891 C 243.52812 276.37891 247.55664 272.34843 247.55664 267.37695 L 247.55664 67.146484 C 247.55664 64.75912 246.60883 62.470939 244.92773 60.783203 L 193.86719 9.7246094 C 192.17503 8.0379828 189.88346 7.0859375 187.49609 7.0859375 L 44.912109 7.0859375 z M 189.54102 21.759766 L 234.8418 65 L 189.61523 65 L 189.54102 21.759766 z M 76.085938 54.994141 L 161.49609 54.994141 C 164.71352 54.994141 167.3418 57.616314 167.3418 60.835938 C 167.3418 64.056673 164.71352 66.675781 161.49609 66.675781 L 76.087891 66.675781 C 72.863837 66.675781 70.244994 64.056673 70.246094 60.835938 C 70.246094 57.615204 72.864094 54.994141 76.085938 54.994141 z M 79.447266 92.234375 L 205.72266 92.234375 C 209.86075 92.234375 213.21484 94.851275 213.21484 98.074219 C 213.21684 101.29717 209.86075 103.91016 205.72266 103.91016 L 79.447266 103.91016 C 75.306954 103.91016 71.949219 101.29385 71.949219 98.074219 C 71.949219 94.853485 75.308054 92.232165 79.447266 92.234375 z M 79.447266 135.08008 L 205.72266 135.08008 C 209.86075 135.08008 213.21926 137.69723 213.21484 140.91797 C 213.21684 144.1376 209.86075 146.75391 205.72266 146.75391 L 79.447266 146.75391 C 75.306954 146.75391 71.947266 144.14092 71.947266 140.91797 C 71.947266 137.69502 75.306954 135.08008 79.447266 135.08008 z M 79.447266 177.71875 L 205.72266 177.71875 C 209.86075 177.71875 213.21926 180.33566 213.21484 183.55859 C 213.21684 186.77712 209.86075 189.39063 205.72266 189.39062 L 79.447266 189.39062 C 75.306954 189.39062 71.947266 186.77491 71.947266 183.55859 C 71.947266 180.33345 75.306954 177.71875 79.447266 177.71875 z M 200.29492 189.69141 C 221.95124 189.69141 239.42578 207.16595 239.42578 228.82227 C 239.42578 250.47857 221.95124 267.95313 200.29492 267.95312 C 179.80744 267.95313 163.0876 252.30694 161.33984 232.2832 L 79.447266 232.2832 C 75.306954 232.2832 71.947266 229.66655 71.947266 226.44141 C 71.947266 223.21625 75.306954 220.60547 79.447266 220.60547 L 162.04102 220.60547 C 165.80513 202.91526 181.46049 189.69141 200.29492 189.69141 z M 200.29492 203.03125 C 186.0747 203.03125 174.50391 214.59969 174.50391 228.82227 C 174.50391 243.04249 186.07234 254.61328 200.29492 254.61328 C 214.51515 254.61328 226.08594 243.04249 226.08594 228.82227 C 226.08594 214.60204 214.5175 203.03125 200.29492 203.03125 z M 200.29492 212.48633 L 205.60742 223.24023 L 217.49023 224.96484 L 208.89258 233.33594 L 210.92188 245.15625 L 200.29492 239.57617 L 189.66797 245.15625 L 191.69922 233.33594 L 183.09961 224.96484 L 194.98047 223.24023 L 200.29492 212.48633 z " /></svg>
