<?xml version="1.0" encoding="utf-8"?>
<!-- Generator: Adobe Illustrator 15.1.0, SVG Export Plug-In . SVG Version: 6.00 Build 0)  -->
<!DOCTYPE svg PUBLIC "-//W3C//DTD SVG 1.1//EN" "http://www.w3.org/Graphics/SVG/1.1/DTD/svg11.dtd">
<svg version="1.1" id="Layer_1" xmlns="http://www.w3.org/2000/svg" xmlns:xlink="http://www.w3.org/1999/xlink" x="0px" y="0px"
	 width="283.465px" height="283.465px" viewBox="0 0 283.465 283.465" enable-background="new 0 0 283.465 283.465"
	 xml:space="preserve">
<g>
	<path d="M164.08,24.923h-34.941l-29.092,40.793c-4.01,5.526-8.396,11.865-13.162,19.015c-3.035-5.199-7.045-11.644-12.025-19.339
		L48.367,24.925H11.801l58.344,82.885L7.088,197.519h35.431l45.343-68.094l9.426,14.463l35.43,53.631h35.914l-64.193-91.334
		L164.08,24.923z"/>
	<path d="M213.646,238.878c3.791-3.9,10.184-9.154,19.176-15.764c17.336-12.459,28.441-21.725,33.316-27.791
		c6.393-8.125,9.59-16.738,9.59-25.842c0-9.205-3.818-17.01-11.459-23.4c-7.639-6.393-19.637-9.59-35.996-9.59
		c-14.52,0-25.652,2.846-33.398,8.533s-13.191,14.545-16.33,26.57v2.602h24.539c2.275-7.258,5.172-12.16,8.693-14.707
		c3.521-2.545,8.855-3.82,16.01-3.82c7.363,0,12.943,1.682,16.738,5.037c3.791,3.361,5.689,7.639,5.689,12.84
		c0,4.66-2.008,9.211-6.014,13.652c-2.928,3.25-12.189,10.537-27.793,21.857c-15.6,11.324-26.814,21.645-33.641,30.959
		c-4.441,6.176-6.986,12.352-7.639,18.527h101.248v-19.664H213.646L213.646,238.878z"/>
</g>
</svg>
