<?xml version="1.0" encoding="utf-8"?>
<!-- Generator: Adobe Illustrator 15.1.0, SVG Export Plug-In . SVG Version: 6.00 Build 0)  -->
<!DOCTYPE svg PUBLIC "-//W3C//DTD SVG 1.1//EN" "http://www.w3.org/Graphics/SVG/1.1/DTD/svg11.dtd">
<svg version="1.1" id="Layer_1" xmlns="http://www.w3.org/2000/svg" xmlns:xlink="http://www.w3.org/1999/xlink" x="0px" y="0px"
	 width="283.465px" height="283.465px" viewBox="0 0 283.465 283.465" enable-background="new 0 0 283.465 283.465"
	 xml:space="preserve">
<g>
	<g>
		<path d="M59.023,7.468h42.102V120.4c0,17.921,0.52,29.538,1.564,34.847c1.8,8.532,6.091,15.385,12.874,20.553
			c6.777,5.169,16.046,7.753,27.805,7.753c11.948,0,20.955-2.441,27.024-7.326c6.063-4.883,9.719-10.879,10.948-17.994
			c1.232-7.108,1.851-18.916,1.851-35.414V7.468h42.103v109.518c0,25.034-1.14,42.719-3.413,53.052
			c-2.277,10.337-6.472,19.06-12.59,26.171c-6.115,7.111-14.294,12.777-24.534,16.998c-10.239,4.218-23.61,6.328-40.108,6.328
			c-19.914,0-35.014-2.299-45.299-6.896c-10.29-4.599-18.418-10.572-24.394-17.922c-5.973-7.348-9.909-15.054-11.805-23.111
			c-2.75-11.948-4.125-29.584-4.125-52.911L59.023,7.468L59.023,7.468z"/>
	</g>
	<rect x="54.558" y="241.807" width="176.749" height="34.953"/>
</g>
</svg>
