<?xml version="1.0" encoding="utf-8"?>
<!-- Generator: Adobe Illustrator 15.1.0, SVG Export Plug-In . SVG Version: 6.00 Build 0)  -->
<!DOCTYPE svg PUBLIC "-//W3C//DTD SVG 1.1//EN" "http://www.w3.org/Graphics/SVG/1.1/DTD/svg11.dtd">
<svg version="1.1" id="Layer_1" xmlns="http://www.w3.org/2000/svg" xmlns:xlink="http://www.w3.org/1999/xlink" x="0px" y="0px"
	 width="283.465px" height="283.465px" viewBox="0 0 283.465 283.465" enable-background="new 0 0 283.465 283.465"
	 xml:space="preserve">
<g>
	<path d="M35.935,187.087l51.124-4.97c3.077,17.16,9.32,29.764,18.729,37.81c9.407,8.051,22.101,12.071,38.077,12.071
		c16.922,0,29.672-3.576,38.254-10.739c8.578-7.16,12.869-15.53,12.869-25.119c0-6.15-1.805-11.389-5.414-15.709
		c-3.611-4.318-9.913-8.075-18.906-11.272c-6.154-2.131-20.178-5.915-42.07-11.361c-28.167-6.979-47.929-15.56-59.289-25.74
		c-15.976-14.317-23.965-31.773-23.965-52.366c0-13.254,3.756-25.651,11.272-37.19c7.514-11.537,18.342-20.326,32.485-26.36
		c14.141-6.035,31.211-9.053,51.213-9.053c32.662,0,57.248,7.162,73.756,21.479c16.512,14.32,25.18,33.434,26.006,57.337
		l-52.544,2.308c-2.249-13.371-7.072-22.988-14.468-28.847c-7.397-5.857-18.492-8.787-33.283-8.787
		c-15.267,0-27.223,3.137-35.859,9.409c-5.563,4.023-8.344,9.408-8.344,16.153c0,6.154,2.604,11.422,7.812,15.798
		c6.627,5.564,22.723,11.362,48.283,17.396c25.563,6.038,44.468,12.28,56.716,18.729c12.25,6.452,21.833,15.267,28.758,26.45
		c6.922,11.182,10.385,25.002,10.385,41.45c0,14.91-4.143,28.876-12.426,41.895c-8.284,13.019-20,22.693-35.148,29.023
		c-15.149,6.326-34.023,9.496-56.627,9.496c-32.902,0-58.168-7.604-75.8-22.813C49.898,238.362,39.366,216.199,35.935,187.087z"/>
</g>
<rect x="7.087" y="121.244" width="269.291" height="40.977"/>
</svg>
