<?xml version="1.0" encoding="utf-8"?>
<!-- Generator: Adobe Illustrator 15.1.0, SVG Export Plug-In . SVG Version: 6.00 Build 0)  -->
<!DOCTYPE svg PUBLIC "-//W3C//DTD SVG 1.1//EN" "http://www.w3.org/Graphics/SVG/1.1/DTD/svg11.dtd">
<svg version="1.1" id="Layer_1" xmlns="http://www.w3.org/2000/svg" xmlns:xlink="http://www.w3.org/1999/xlink" x="0px" y="0px"
	 width="283.46px" height="283.46px" viewBox="0 0 283.46 283.46" enable-background="new 0 0 283.46 283.46" xml:space="preserve">
<g>
	<path d="M164.746,220.293h-34.512l-13.72-35.691H53.707L40.74,220.293H7.084L68.285,63.167h33.548L164.746,220.293z
		 M106.334,158.129l-21.65-58.307L63.46,158.129H106.334z"/>
	<path d="M177.663,102.448h47.104c9.326,0,16.279,0.39,20.86,1.167c4.583,0.777,8.682,2.399,12.3,4.862
		c3.617,2.465,6.632,5.748,9.043,9.848c2.412,4.099,3.618,8.694,3.618,13.786c0,5.521-1.487,10.585-4.462,15.192
		c-2.974,4.609-7.008,8.067-12.098,10.37c7.181,2.091,12.701,5.655,16.56,10.69c3.858,5.039,5.787,10.962,5.787,17.766
		c0,5.36-1.246,10.57-3.737,15.635c-2.492,5.065-5.897,9.113-10.209,12.14c-4.314,3.026-9.635,4.892-15.957,5.587
		c-3.966,0.43-13.532,0.697-28.698,0.803h-40.111V102.448z M201.457,122.063v27.25h15.595c9.271,0,15.032-0.132,17.282-0.4
		c4.072-0.484,7.274-1.891,9.605-4.222c2.333-2.331,3.498-5.397,3.498-9.203c0-3.645-1.004-6.605-3.014-8.884
		c-2.01-2.276-4.999-3.656-8.963-4.138c-2.359-0.269-9.139-0.403-20.339-0.403H201.457z M201.457,168.928v31.512h22.025
		c8.573,0,14.015-0.242,16.319-0.725c3.537-0.643,6.416-2.21,8.642-4.701c2.221-2.494,3.335-5.829,3.335-10.01
		c0-3.537-0.858-6.537-2.573-9.002s-4.193-4.262-7.436-5.387s-10.275-1.688-21.101-1.688H201.457z"/>
</g>
</svg>
