<?xml version="1.0" encoding="utf-8"?>
<!-- Generator: Adobe Illustrator 15.1.0, SVG Export Plug-In . SVG Version: 6.00 Build 0)  -->
<!DOCTYPE svg PUBLIC "-//W3C//DTD SVG 1.1//EN" "http://www.w3.org/Graphics/SVG/1.1/DTD/svg11.dtd">
<svg version="1.1" id="Layer_3" xmlns="http://www.w3.org/2000/svg" xmlns:xlink="http://www.w3.org/1999/xlink" x="0px" y="0px"
	 width="283.465px" height="283.465px" viewBox="0 0 283.465 283.465" enable-background="new 0 0 283.465 283.465"
	 xml:space="preserve">
<g>
	<path d="M243.861,123.18h-38.299v-0.035h-43.117V33.609c0-5.451-1.17-10.5-3.156-14.651h-0.088
		c-2.355-6.855-9.863-11.871-18.771-11.871c-9.242,0-16.98,5.398-19.014,12.649c-1.77,3.998-2.797,8.758-2.797,13.872v89.536h-24.82
		v0.034H44.711c-9.871,0-17.873,8.002-17.873,17.873c0,8.655,6.151,15.87,14.319,17.52l-19.425,92.27
		c0,14.102,10.213,25.852,25.532,25.531c1.247-0.025,2.452-0.15,3.628-0.355c0.021-0.209,0.059-0.42,0.117-0.629l19.201-67.496
		c0.549-1.926,2.553-3.041,4.477-2.494c1.926,0.549,3.043,2.553,2.494,4.479l-18.033,63.389c8.113-3.826,15.748-10.021,26.867-11.75
		L110,177.212c0.547-1.924,2.551-3.041,4.477-2.494c1.926,0.549,3.041,2.553,2.494,4.479L93.68,261.06
		c7.512,0.053,15.342,0.445,23.221,1.076l15.432-54.244c0.547-1.924,2.553-3.041,4.477-2.494c1.926,0.549,3.041,2.553,2.494,4.479
		l-15.053,52.912c7.703,0.752,15.371,1.697,22.746,2.736l16.395-57.633c0.549-1.924,2.553-3.041,4.479-2.492
		c1.926,0.547,3.041,2.551,2.494,4.477l-16.135,56.713c8.088,1.236,15.689,2.551,22.441,3.805l17.781-62.5
		c0.549-1.926,2.551-3.041,4.477-2.494c1.926,0.549,3.043,2.553,2.494,4.479l-17.604,61.879c13.221,2.584,21.744,4.619,21.744,4.619
		c14.102,0,25.531-11.432,25.531-25.533l19.641-93.287c6.459-2.691,10.998-9.064,10.998-16.5
		C261.732,131.182,253.73,123.18,243.861,123.18z M243.861,148.712H44.711c-4.229,0-7.658-3.43-7.658-7.661
		c0-4.229,3.43-7.659,7.658-7.659h199.15c4.229,0,7.658,3.43,7.658,7.659C251.52,145.282,248.09,148.712,243.861,148.712z"/>
</g>
</svg>
