<?xml version="1.0" encoding="UTF-8" standalone="no"?>
<svg
   version="1.1"
   id="Layer_3"
   x="0px"
   y="0px"
   width="283.46px"
   height="283.46px"
   viewBox="0 0 283.46 283.46"
   enable-background="new 0 0 283.46 283.46"
   xml:space="preserve"
   sodipodi:docname="email-alt-4.svg"
   inkscape:version="1.4.2 (ebf0e940d0, 2025-05-08)"
   xmlns:inkscape="http://www.inkscape.org/namespaces/inkscape"
   xmlns:sodipodi="http://sodipodi.sourceforge.net/DTD/sodipodi-0.dtd"
   xmlns="http://www.w3.org/2000/svg"
   xmlns:svg="http://www.w3.org/2000/svg"><defs
   id="defs15"></defs><sodipodi:namedview
   id="namedview13"
   pagecolor="#ffffff"
   bordercolor="#000000"
   borderopacity="0.25"
   inkscape:showpageshadow="2"
   inkscape:pageopacity="0.0"
   inkscape:pagecheckerboard="0"
   inkscape:deskcolor="#d1d1d1"
   showgrid="false"
   inkscape:zoom="0.74084529"
   inkscape:cx="220.01895"
   inkscape:cy="225.41818"
   inkscape:window-width="1920"
   inkscape:window-height="995"
   inkscape:window-x="0"
   inkscape:window-y="0"
   inkscape:window-maximized="1"
   inkscape:current-layer="layer1" />

<g
   inkscape:groupmode="layer"
   id="layer1"
   inkscape:label="Layer 1"><g
     id="g2"
     transform="translate(-0.00242577,-0.00340457)">
	
	
	<path
   id="path1"
   d="m 44.910156,7.0878906 c -4.973,0 -9.001953,4.0329064 -9.001953,9.0039064 V 267.37695 c 0,4.971 4.028953,9.00196 9.001953,9.00196 H 238.55664 c 4.973,0 9,-4.03096 9,-9.00196 V 67.146484 c 0,-2.386 -0.94991,-4.676281 -2.62891,-6.363281 L 193.86719,9.7246094 c -1.694,-1.687 -3.9831,-2.6367188 -6.3711,-2.6367188 z M 189.54102,21.759766 234.8418,65.001953 h -45.22657 z m -46.42383,63.089843 c 10.19675,0 19.5527,1.693754 28.0332,5.095703 l 0.006,0.002 c 8.51622,3.34536 15.91238,8.169453 22.14453,14.453128 l 0.002,0.002 c 6.23643,6.23758 11.05749,13.73944 14.45118,22.45899 l 0.002,0.002 c 3.40144,8.68762 5.0918,18.37285 5.0918,29.02539 0,6.34753 -0.6494,12.04881 -1.9668,17.10742 a 1.3808298,1.3808298 0 0 1 -0.002,0.004 c -1.31841,5.01008 -3.30913,9.3298 -5.99219,12.92578 l -0.002,0.004 c -2.63456,3.54782 -5.92089,6.29079 -9.80665,8.17969 -3.90287,1.89724 -8.3758,2.83203 -13.36523,2.83203 -5.22775,0 -9.41828,-0.8549 -12.55078,-2.73438 a 1.3808298,1.3808298 0 0 1 -0.01,-0.006 c -2.91779,-1.78312 -5.11073,-3.8901 -6.48242,-6.34765 a 1.3808298,1.3808298 0 0 1 -0.0176,-0.0352 c -0.52319,-1.00093 -0.93135,-1.91709 -1.29687,-2.81055 -1.56837,2.67989 -3.76183,5.08946 -6.57227,7.19727 a 1.3808298,1.3808298 0 0 0 -0.002,0.002 c -3.93295,2.9359 -9.10247,4.34961 -15.35742,4.34961 -6.95343,0 -13.04259,-1.8263 -18.10742,-5.49023 -5.01291,-3.62637 -8.86897,-8.42589 -11.52149,-14.31446 a 1.3808298,1.3808298 0 0 1 -0.002,-0.006 c -2.64262,-5.91944 -3.96289,-12.27313 -3.96289,-19.01367 0,-7.46308 1.50382,-14.15612 4.53711,-20.00976 a 1.3808298,1.3808298 0 0 1 0.004,-0.008 c 3.07021,-5.82286 7.21258,-10.45581 12.38672,-13.8164 a 1.3808298,1.3808298 0 0 1 0.006,-0.002 c 5.23693,-3.36659 11.08655,-5.06445 17.42969,-5.06445 5.36362,0 9.9173,1.09326 13.56836,3.36133 2.09944,1.27352 3.8338,2.62997 5.27344,4.06445 v -4.19922 a 1.3808298,1.3808298 0 0 1 1.38086,-1.38086 h 12.30078 a 1.3808298,1.3808298 0 0 1 1.38086,1.38086 v 49.97461 c 0,3.70166 0.78525,6.30586 2.14648,7.96485 1.35387,1.65004 3.31452,2.49414 6.31445,2.49414 3.32381,0 5.9467,-0.91444 8.09766,-2.74414 2.21369,-1.89087 3.93633,-4.71031 5.11133,-8.57813 a 1.3808298,1.3808298 0 0 1 0.004,-0.01 c 1.22477,-3.91913 1.85938,-8.81171 1.85938,-14.65821 0,-8.99169 -1.28898,-17.00431 -3.83984,-24.05664 -2.55461,-7.06272 -6.21383,-13.00497 -10.98829,-17.8789 a 1.3808298,1.3808298 0 0 1 -0.0117,-0.01 c -4.72677,-4.9258 -10.40747,-8.65028 -17.09961,-11.19726 a 1.3808298,1.3808298 0 0 1 -0.01,-0.004 c -6.68898,-2.59575 -14.2001,-3.904302 -22.56445,-3.904302 -8.77442,0 -16.6467,1.360672 -23.64258,4.058602 h -0.002 c -6.95283,2.70159 -12.87118,6.58497 -17.80469,11.66796 -4.880358,5.02975 -8.645376,11.12952 -11.302736,18.34766 -2.6021,7.1557 -3.914062,15.24208 -3.914062,24.2832 0,8.98443 1.309246,17.07027 3.910156,24.27735 v 0.002 h 0.002 v 0.002 l 0.002,0.006 c 2.65586,7.16137 6.418858,13.233 11.296872,18.26172 l 0.004,0.004 0.002,0.002 c 4.93258,5.03069 10.8516,8.88817 17.80469,11.58984 6.99662,2.69872 14.86884,4.06055 23.64453,4.06055 4.7495,0 9.07548,-0.35415 12.97851,-1.05469 a 1.3808298,1.3808298 0 0 1 0.0176,-0.004 c 3.94896,-0.65814 7.47883,-1.46577 10.58594,-2.41797 a 1.3808298,1.3808298 0 0 1 0.0195,-0.006 c 3.15856,-0.917 5.87849,-1.78009 8.15039,-2.58789 a 1.3808298,1.3808298 0 0 1 1.76172,0.83398 l 3.99805,11.14844 a 1.3808298,1.3808298 0 0 1 -0.79883,1.75195 c -2.15762,0.84198 -5.0265,1.7969 -8.63281,2.87891 l -0.006,0.002 c -3.60706,1.0975 -7.78215,2.02911 -12.53516,2.80469 h -0.002 c -4.75583,0.83611 -9.93369,1.25196 -15.53711,1.25195 -10.6096,0 -20.35266,-1.7709 -29.19336,-5.32812 -8.82344,-3.55024 -16.500029,-8.57813 -22.988279,-15.06641 -6.48956,-6.48958 -11.51845,-14.19364 -15.068359,-23.06836 a 1.3808298,1.3808298 0 0 1 -0.002,-0.008 c -3.5022,-8.93841 -5.248046,-18.72857 -5.248046,-29.33594 0,-10.65788 1.744466,-20.44824 5.248046,-29.33789 a 1.3808298,1.3808298 0 0 1 0.002,-0.004 c 3.548809,-8.92415 8.575573,-16.65248 15.064453,-23.14258 l 0.002,-0.002 0.002,-0.002 c 6.48755,-6.538753 14.164555,-11.59223 22.988285,-15.14258 8.8407,-3.55722 18.58375,-5.328125 29.19336,-5.328125 z m -2.1543,48.429691 c -4.08796,0 -7.51393,0.9348 -10.39648,2.77539 l -0.002,0.002 v 0.002 h -0.002 c -2.82877,1.83963 -4.9995,4.51067 -6.55078,8.14649 a 1.3808298,1.3808298 0 0 1 -0.004,0.006 c -1.54216,3.56626 -2.3457,8.0697 -2.3457,13.52148 0,5.39928 0.8033,9.90318 2.34961,13.52735 1.55027,3.63343 3.72084,6.30306 6.54687,8.14257 2.8841,1.84373 6.31282,2.78321 10.4043,2.78321 4.19934,0 7.5902,-0.94298 10.30078,-2.76563 2.72115,-1.82976 4.76801,-4.48472 6.17188,-8.11523 a 1.3808298,1.3808298 0 0 1 0.004,-0.01 c 1.45642,-3.68961 2.21094,-8.20714 2.21094,-13.5625 0,-5.40779 -0.75619,-9.92462 -2.20898,-13.55664 a 1.3808298,1.3808298 0 0 1 -0.006,-0.0156 c -1.40386,-3.6305 -3.45073,-6.28744 -6.17188,-8.11719 -2.71058,-1.82266 -6.10144,-2.76367 -10.30078,-2.76367 z" />
</g></g></svg>
