<?xml version="1.0" encoding="UTF-8" standalone="no"?>
<!-- Generator: Adobe Illustrator 15.1.0, SVG Export Plug-In . SVG Version: 6.00 Build 0)  -->

<svg
   version="1.1"
   id="Layer_8"
   x="0px"
   y="0px"
   width="283.46px"
   height="283.46px"
   viewBox="0 0 283.46 283.46"
   enable-background="new 0 0 283.46 283.46"
   xml:space="preserve"
   sodipodi:docname="email.svg"
   inkscape:version="1.4.2 (ebf0e940d0, 2025-05-08)"
   xmlns:inkscape="http://www.inkscape.org/namespaces/inkscape"
   xmlns:sodipodi="http://sodipodi.sourceforge.net/DTD/sodipodi-0.dtd"
   xmlns="http://www.w3.org/2000/svg"
   xmlns:svg="http://www.w3.org/2000/svg"><defs
   id="defs5" /><sodipodi:namedview
   id="namedview5"
   pagecolor="#ffffff"
   bordercolor="#000000"
   borderopacity="0.25"
   inkscape:showpageshadow="2"
   inkscape:pageopacity="0.0"
   inkscape:pagecheckerboard="0"
   inkscape:deskcolor="#d1d1d1"
   inkscape:zoom="1.3829112"
   inkscape:cx="360.10989"
   inkscape:cy="190.17851"
   inkscape:window-width="1920"
   inkscape:window-height="995"
   inkscape:window-x="0"
   inkscape:window-y="0"
   inkscape:window-maximized="1"
   inkscape:current-layer="g5" />
<g
   id="g5">
	<path
   id="path1"
   d="M 47.578125 7.0839844 C 42.743125 7.0839844 38.824219 11.006844 38.824219 15.839844 L 38.824219 79.994141 L 38.824219 116.78906 L 38.824219 130.62109 L 26.048828 141.28516 C 25.272828 141.93216 24.850109 142.91288 24.912109 143.92188 C 24.974109 144.93087 25.512328 145.84848 26.361328 146.39648 L 38.824219 154.44336 L 40.826172 155.73828 L 139.82227 229.67578 C 140.38727 230.09778 141.05561 230.30859 141.72461 230.30859 C 142.39161 230.30859 143.062 230.09773 143.625 229.67773 L 242.66797 155.76367 L 244.61523 154.47266 L 256.97266 146.26562 C 257.80866 145.71062 258.33367 144.79302 258.38867 143.79102 C 258.44367 142.78902 258.02195 141.82073 257.25195 141.17773 L 244.61328 130.62891 L 244.61328 116.78906 L 244.61328 87.371094 L 244.61328 65.482422 C 244.61328 63.162422 243.68964 60.935922 242.05664 59.294922 L 192.41016 9.6484375 C 190.76416 8.0084375 188.5368 7.0839844 186.2168 7.0839844 L 47.578125 7.0839844 z M 188.20508 21.351562 L 232.25 63.396484 L 188.27734 63.396484 L 188.20508 21.351562 z M 142.46094 71.345703 L 142.46094 71.347656 C 147.84339 71.347656 152.7814 72.23944 157.25781 74.035156 L 157.26172 74.037109 C 161.75708 75.802989 165.6615 78.34913 168.95117 81.664062 L 168.95117 81.666016 C 172.24313 84.958571 174.78851 88.917211 176.58008 93.519531 L 176.58008 93.521484 C 178.37557 98.107314 179.26758 103.21877 179.26758 108.8418 C 179.26758 112.1924 178.92586 115.20281 178.23047 117.87305 A 0.72888314 0.72888314 0 0 0 178.23047 117.875 C 177.53454 120.51961 176.48268 122.80104 175.06641 124.69922 L 175.06445 124.69922 C 173.67378 126.57197 171.93979 128.02246 169.88867 129.01953 C 167.8285 130.02101 165.46769 130.51367 162.83398 130.51367 C 160.07447 130.51367 157.8625 130.06241 156.20898 129.07031 A 0.72888314 0.72888314 0 0 1 156.20312 129.06641 C 154.66295 128.12517 153.5053 127.01404 152.78125 125.7168 A 0.72888314 0.72888314 0 0 1 152.77344 125.69727 C 152.49727 125.16892 152.28278 124.68451 152.08984 124.21289 C 151.26196 125.62749 150.10266 126.90104 148.61914 128.01367 C 146.5431 129.56341 143.81345 130.31055 140.51172 130.31055 C 136.84128 130.31055 133.62664 129.34616 130.95312 127.41211 C 128.30702 125.4979 126.27321 122.96381 124.87305 119.85547 A 0.72888314 0.72888314 0 0 0 124.87109 119.85352 C 123.47616 116.72888 122.7793 113.37446 122.7793 109.81641 C 122.7793 105.87695 123.57268 102.34381 125.17383 99.253906 A 0.72888314 0.72888314 0 0 1 125.17578 99.25 C 126.79642 96.17635 128.98362 93.730951 131.71484 91.957031 A 0.72888314 0.72888314 0 0 1 131.71875 91.955078 C 134.4831 90.177988 137.56969 89.283203 140.91797 89.283203 C 143.7492 89.283203 146.15284 89.859421 148.08008 91.056641 C 149.18829 91.728881 150.1053 92.445935 150.86523 93.203125 L 150.86523 90.986328 A 0.72888314 0.72888314 0 0 1 151.59375 90.257812 L 158.08594 90.257812 A 0.72888314 0.72888314 0 0 1 158.81445 90.986328 L 158.81445 117.36523 C 158.81445 119.31918 159.22874 120.6946 159.94727 121.57031 C 160.66193 122.4413 161.69771 122.88672 163.28125 122.88672 C 165.03575 122.88672 166.42123 122.40333 167.55664 121.4375 C 168.72515 120.43939 169.63368 118.95182 170.25391 116.91016 A 0.72888314 0.72888314 0 0 1 170.25586 116.9043 C 170.90237 114.83556 171.23828 112.25409 171.23828 109.16797 C 171.23828 104.42162 170.55743 100.19333 169.21094 96.470703 C 167.86246 92.742583 165.9304 89.605953 163.41016 87.033203 A 0.72888314 0.72888314 0 0 1 163.4043 87.027344 C 160.90922 84.427224 157.91141 82.459689 154.37891 81.115234 A 0.72888314 0.72888314 0 0 1 154.37305 81.115234 C 150.84221 79.745043 146.87614 79.054688 142.46094 79.054688 C 137.82928 79.054688 133.67526 79.771186 129.98242 81.195312 L 129.98047 81.197266 C 126.31036 82.623317 123.18623 84.672369 120.58203 87.355469 C 118.0059 90.010459 116.01794 93.228903 114.61523 97.039062 C 113.24169 100.81626 112.54883 105.08693 112.54883 109.85938 C 112.54883 114.60189 113.24037 118.86951 114.61328 122.67383 L 114.61523 122.67578 L 114.61523 122.67969 C 116.01715 126.45988 118.00517 129.66391 120.58008 132.31836 L 120.58203 132.32031 L 120.58203 132.32227 C 123.18574 134.97777 126.31022 137.01335 129.98047 138.43945 C 133.6737 139.86398 137.82861 140.58203 142.46094 140.58203 C 144.968 140.58203 147.25224 140.39517 149.3125 140.02539 A 0.72888314 0.72888314 0 0 1 149.32227 140.02344 C 151.40675 139.67604 153.27004 139.25068 154.91016 138.74805 A 0.72888314 0.72888314 0 0 1 154.91992 138.74414 C 156.58719 138.2601 158.02341 137.80335 159.22266 137.37695 A 0.72888314 0.72888314 0 0 1 160.15234 137.81836 L 162.26172 143.70312 A 0.72888314 0.72888314 0 0 1 161.8418 144.62891 C 160.70288 145.07335 159.18682 145.57729 157.2832 146.14844 L 157.28125 146.14844 C 155.37723 146.72777 153.17297 147.21951 150.66406 147.62891 L 150.66211 147.62891 C 148.15171 148.07025 145.41875 148.28907 142.46094 148.28906 C 136.86057 148.28906 131.71742 147.35427 127.05078 145.47656 C 122.39326 143.60253 118.34286 140.95028 114.91797 137.52539 C 111.4924 134.09981 108.83674 130.03227 106.96289 125.34766 A 0.72888314 0.72888314 0 0 1 106.96094 125.34375 C 105.11228 120.62554 104.19141 115.45661 104.19141 109.85742 C 104.19141 104.23156 105.1135 99.063574 106.96289 94.371094 A 0.72888314 0.72888314 0 0 0 106.96289 94.369141 C 108.83616 89.658451 111.48883 85.580143 114.91406 82.154297 L 114.91602 82.152344 L 114.91602 82.150391 C 118.34053 78.698852 122.3931 76.032288 127.05078 74.158203 C 131.71742 72.280491 136.86058 71.345703 142.46094 71.345703 z M 141.32422 96.910156 C 139.16636 96.910156 137.35751 97.40344 135.83594 98.375 L 135.83398 98.375 C 134.34079 99.34606 133.19386 100.75659 132.375 102.67578 A 0.72888314 0.72888314 0 0 1 132.37305 102.67969 C 131.559 104.56217 131.13477 106.93864 131.13477 109.81641 C 131.13477 112.66647 131.55877 115.04398 132.375 116.95703 C 133.19332 118.87496 134.34028 120.28486 135.83203 121.25586 C 137.35443 122.22909 139.16255 122.72461 141.32227 122.72461 C 143.53893 122.72461 145.32896 122.22773 146.75977 121.26562 C 148.19615 120.29978 149.27653 118.89686 150.01758 116.98047 A 0.72888314 0.72888314 0 0 1 150.02148 116.97656 C 150.79026 115.02896 151.1875 112.64329 151.1875 109.81641 C 151.1875 106.96187 150.78835 104.57735 150.02148 102.66016 A 0.72888314 0.72888314 0 0 1 150.01953 102.65234 C 149.27849 100.73594 148.1981 99.333038 146.76172 98.367188 C 145.33091 97.405078 143.54087 96.910156 141.32422 96.910156 z M 26.226562 158.06055 C 25.741563 158.06055 25.253734 158.17148 24.802734 158.39648 C 23.727734 158.93648 23.046875 160.03528 23.046875 161.23828 L 23.025391 265.26172 C 23.025391 266.45872 23.697672 267.5547 24.763672 268.0957 C 25.219672 268.3277 25.712125 268.44141 26.203125 268.44141 C 26.864125 268.44141 27.521172 268.23603 28.076172 267.83203 L 38.824219 259.99609 L 98.570312 216.44531 C 99.385312 215.85031 99.871953 214.90448 99.876953 213.89648 C 99.882953 212.88648 99.410563 211.93303 98.601562 211.33203 L 38.824219 166.68164 L 28.128906 158.69336 C 27.568906 158.27336 26.900564 158.06055 26.226562 158.06055 z M 257.21289 158.10742 C 256.50389 158.11542 255.84822 158.35781 255.32422 158.75781 L 244.61328 166.75195 L 184.85742 211.3457 C 184.04842 211.9497 183.57408 212.90116 183.58008 213.91016 C 183.58408 214.91816 184.06972 215.86689 184.88672 216.46289 L 244.61523 260.03516 L 255.36133 267.87695 C 255.91633 268.28295 256.57236 268.48633 257.23438 268.48633 C 257.72638 268.48633 258.22083 268.37358 258.67383 268.14258 C 259.73983 267.59958 260.41211 266.50359 260.41211 265.30859 L 260.43164 161.41406 C 260.43364 161.37106 260.43555 161.3282 260.43555 161.2832 C 260.43555 159.5312 259.01572 158.10942 257.26172 158.10742 L 257.25391 158.10742 L 257.2168 158.10742 L 257.21289 158.10742 z M 110.38672 220.91992 C 109.72972 220.91992 109.07267 221.1213 108.51367 221.5293 L 44.355469 268.30078 L 41.216797 270.58984 C 40.103797 271.40084 39.639406 272.83358 40.066406 274.14258 C 40.492406 275.45158 41.713844 276.33789 43.089844 276.33789 L 240.3457 276.375 C 241.7207 276.375 242.94019 275.48769 243.36719 274.17969 C 243.79319 272.87469 243.3307 271.43991 242.2207 270.62891 L 239.04883 268.31445 L 174.93945 221.54492 C 174.38045 221.13892 173.72245 220.93555 173.06445 220.93555 C 172.39645 220.93555 171.72606 221.14441 171.16406 221.56641 L 144.70703 241.3125 C 143.83803 241.9585 142.80661 242.30273 141.72461 242.30273 C 140.64161 242.30273 139.61019 241.95855 138.74219 241.31055 L 112.28906 221.55273 C 111.72506 221.13073 111.05672 220.91992 110.38672 220.91992 z " />
	
	
	
	
</g>
</svg>
