<?xml version="1.0" encoding="UTF-8" standalone="no"?>
<!-- Generator: Adobe Illustrator 15.1.0, SVG Export Plug-In . SVG Version: 6.00 Build 0)  -->

<svg
   version="1.1"
   id="Layer_5"
   x="0px"
   y="0px"
   width="283.46px"
   height="283.46px"
   viewBox="0 0 283.46 283.46"
   enable-background="new 0 0 283.46 283.46"
   xml:space="preserve"
   sodipodi:docname="email-alt-1.svg"
   inkscape:version="1.4.2 (ebf0e940d0, 2025-05-08)"
   xmlns:inkscape="http://www.inkscape.org/namespaces/inkscape"
   xmlns:sodipodi="http://sodipodi.sourceforge.net/DTD/sodipodi-0.dtd"
   xmlns="http://www.w3.org/2000/svg"
   xmlns:svg="http://www.w3.org/2000/svg"><defs
   id="defs4" /><sodipodi:namedview
   id="namedview4"
   pagecolor="#ffffff"
   bordercolor="#000000"
   borderopacity="0.25"
   inkscape:showpageshadow="2"
   inkscape:pageopacity="0.0"
   inkscape:pagecheckerboard="0"
   inkscape:deskcolor="#d1d1d1"
   inkscape:zoom="2.7658224"
   inkscape:cx="141.73"
   inkscape:cy="141.73"
   inkscape:window-width="1920"
   inkscape:window-height="995"
   inkscape:window-x="0"
   inkscape:window-y="0"
   inkscape:window-maximized="1"
   inkscape:current-layer="g4" />
<g
   id="g4">
	<path
   id="path1"
   d="M 141.72852 9.8554688 C 135.54252 9.8554688 129.52239 12.039906 124.77539 16.003906 L 16.585938 106.30859 C 10.225938 111.61759 6.7021875 119.68422 7.1171875 127.94922 L 7.0917969 255.50781 L 7.0917969 255.93945 L 7.1191406 256.36914 L 7.1777344 257.25391 L 7.2167969 257.8418 L 7.3066406 258.42383 C 7.6486406 260.63883 8.3944844 262.74173 9.5214844 264.67773 L 9.9394531 265.39844 L 10.445312 266.05859 L 11.080078 266.89062 L 11.832031 267.87695 L 12.755859 268.70312 L 13.462891 269.33984 L 14.009766 269.83203 L 14.607422 270.25977 C 16.939422 271.92877 19.680109 273.02197 22.537109 273.41797 L 23.0625 273.49023 L 23.591797 273.52148 L 24.324219 273.56445 L 24.710938 273.58789 L 25.099609 273.58789 L 258.9375 273.60547 L 259.63281 273.60547 L 260.32422 273.5332 L 260.4375 273.51953 L 260.51758 273.51172 L 260.59766 273.50195 C 263.44366 273.16895 266.20875 272.12542 268.59375 270.48242 L 269.25781 270.02539 L 269.86133 269.49023 L 270.63867 268.80273 L 271.56055 267.98828 L 272.31641 267.01758 L 272.88672 266.28711 L 273.375 265.65625 L 273.78711 264.97266 C 275.00011 262.95566 275.79539 260.76875 276.15039 258.46875 L 276.24023 257.89062 L 276.2793 257.30664 L 276.33789 256.42188 L 276.36328 255.98828 L 276.36328 255.55469 L 276.36328 127.33594 C 276.58728 119.19094 273.13405 111.53559 266.87305 106.30859 L 158.68164 16.001953 C 153.93664 12.038953 147.91352 9.8554687 141.72852 9.8554688 z M 141.72852 23.130859 C 144.80952 23.130859 147.80883 24.218359 150.17383 26.193359 L 258.36523 116.50195 C 261.50923 119.12495 263.22984 122.97541 263.08984 127.06641 C 263.08884 127.10441 263.08789 127.13978 263.08789 127.17578 L 263.08789 255.55664 L 263.0293 256.44336 C 262.9383 257.03136 262.73611 257.58991 262.41211 258.12891 L 261.84375 258.85938 L 261.06445 259.54688 C 260.45345 259.96787 259.75073 260.23441 259.05273 260.31641 L 258.9375 260.32812 L 25.099609 260.31055 L 24.367188 260.26758 C 23.628187 260.16458 22.923891 259.88289 22.337891 259.46289 L 21.628906 258.82617 L 20.994141 257.99609 C 20.705141 257.50009 20.515734 256.96058 20.427734 256.39258 L 20.369141 255.50977 L 20.394531 127.66016 C 20.394531 127.59516 20.393672 127.52789 20.388672 127.46289 C 20.119672 123.28189 21.87875 119.18595 25.09375 116.50195 L 133.28516 26.193359 C 135.64916 24.218359 138.64752 23.130859 141.72852 23.130859 z M 141.72852 36.306641 L 34.492188 125.81836 L 48.230469 134.68945 L 141.73633 204.5293 L 235.27344 134.72461 L 248.8418 125.7168 L 141.72852 36.306641 z M 142.41211 82.992188 C 147.43417 82.992188 152.04237 83.826442 156.21875 85.501953 L 156.2207 85.503906 C 160.41508 87.151553 164.05939 89.52634 167.12891 92.621094 L 167.12891 92.623047 C 170.20046 95.695154 172.57447 99.389413 174.24609 103.68359 L 174.24805 103.68359 C 175.92332 107.96238 176.75586 112.73393 176.75586 117.98047 C 176.75586 121.10673 176.43595 123.9148 175.78711 126.40625 A 0.68008086 0.68008086 0 0 0 175.78711 126.4082 C 175.13778 128.87574 174.15543 131.00431 172.83398 132.77539 C 171.53642 134.52275 169.9177 135.87439 168.00391 136.80469 C 166.08168 137.73912 163.87729 138.19922 161.41992 138.19922 C 158.84517 138.19922 156.78305 137.77919 155.24023 136.85352 A 0.68008086 0.68008086 0 0 1 155.23438 136.84961 C 153.79731 135.97139 152.71855 134.93304 152.04297 133.72266 A 0.68008086 0.68008086 0 0 1 152.0332 133.70703 C 151.77552 133.21405 151.57456 132.76232 151.39453 132.32227 C 150.62209 133.64216 149.54239 134.82906 148.1582 135.86719 A 0.68008086 0.68008086 0 0 0 148.15625 135.86719 C 146.21921 137.31317 143.67441 138.00977 140.59375 138.00977 C 137.16907 138.00977 134.16835 137.11119 131.67383 135.30664 C 129.20489 133.5206 127.3064 131.15608 126 128.25586 A 0.68008086 0.68008086 0 0 0 126 128.25391 C 124.69847 125.33849 124.04688 122.2085 124.04688 118.88867 C 124.04687 115.21299 124.7873 111.91621 126.28125 109.0332 A 0.68008086 0.68008086 0 0 1 126.2832 109.0293 C 127.79533 106.16145 129.83642 103.87976 132.38477 102.22461 A 0.68008086 0.68008086 0 0 0 132.38672 102.22266 C 134.966 100.56456 137.84856 99.730469 140.97266 99.730469 C 143.61433 99.730469 145.8561 100.26771 147.6543 101.38477 C 148.68831 102.012 149.54291 102.68022 150.25195 103.38672 L 150.25195 101.31836 A 0.68008086 0.68008086 0 0 1 150.93164 100.63867 L 156.99023 100.63867 A 0.68008086 0.68008086 0 0 1 157.66992 101.31836 L 157.66992 125.93164 C 157.66992 127.75477 158.0581 129.03838 158.72852 129.85547 C 159.39533 130.66814 160.36037 131.08398 161.83789 131.08398 C 163.47492 131.08398 164.76679 130.63163 165.82617 129.73047 C 166.91644 128.79919 167.76505 127.41083 168.34375 125.50586 A 0.68008086 0.68008086 0 0 1 168.3457 125.50195 C 168.94892 123.57172 169.26172 121.16269 169.26172 118.2832 C 169.26172 113.85465 168.62743 109.90894 167.37109 106.43555 C 166.1129 102.95705 164.31048 100.02939 161.95898 97.628906 A 0.68008086 0.68008086 0 0 1 161.95312 97.623047 C 159.62512 95.197013 156.82723 93.363809 153.53125 92.109375 A 0.68008086 0.68008086 0 0 1 153.52734 92.107422 C 150.23291 90.828976 146.53169 90.183594 142.41211 90.183594 C 138.09057 90.183594 134.21511 90.85482 130.76953 92.183594 L 130.76758 92.183594 C 127.3432 93.514168 124.42788 95.426232 121.99805 97.929688 C 119.59439 100.40692 117.74043 103.41175 116.43164 106.9668 C 115.15007 110.49109 114.50391 114.47288 114.50391 118.92578 C 114.50391 123.35075 115.1487 127.3332 116.42969 130.88281 L 116.42969 130.88477 L 116.42969 130.88672 L 116.43164 130.88867 C 117.7397 134.41575 119.59359 137.40608 121.99609 139.88281 L 121.99805 139.88477 L 121.99805 139.88672 C 124.42742 142.36441 127.34308 144.26313 130.76758 145.59375 C 134.21353 146.9229 138.08994 147.59375 142.41211 147.59375 C 144.75131 147.59375 146.88238 147.41925 148.80469 147.07422 A 0.68008086 0.68008086 0 0 1 148.8125 147.07227 C 150.75743 146.74813 152.49704 146.34984 154.02734 145.88086 A 0.68008086 0.68008086 0 0 1 154.03711 145.87891 C 155.59275 145.42727 156.93184 145.00137 158.05078 144.60352 A 0.68008086 0.68008086 0 0 1 158.91797 145.01367 L 160.88672 150.50391 A 0.68008086 0.68008086 0 0 1 160.49414 151.36719 C 159.43148 151.78187 158.01836 152.25225 156.24219 152.78516 L 156.24023 152.78711 C 154.46369 153.32764 152.40539 153.78599 150.06445 154.16797 C 147.72212 154.57977 145.17188 154.78516 142.41211 154.78516 C 137.18671 154.78516 132.38739 153.91215 128.0332 152.16016 C 123.68752 150.41162 119.90846 147.93581 116.71289 144.74023 C 113.51668 141.54401 111.03941 137.74985 109.29102 133.37891 A 0.68008086 0.68008086 0 0 1 109.28906 133.375 C 107.56417 128.97268 106.70508 124.15008 106.70508 118.92578 C 106.70508 113.6766 107.5635 108.85485 109.28906 104.47656 A 0.68008086 0.68008086 0 0 0 109.29102 104.47461 C 111.03886 100.07933 113.51309 96.274592 116.70898 93.078125 L 116.71094 93.076172 L 116.71094 93.074219 C 119.90616 89.85378 123.68737 87.365793 128.0332 85.617188 C 132.38738 83.865197 137.18671 82.992188 142.41211 82.992188 z M 141.35156 106.8457 C 139.33818 106.8457 137.65213 107.30637 136.23242 108.21289 L 136.23047 108.21289 L 136.23047 108.21484 C 134.83725 109.12089 133.76794 110.43586 133.00391 112.22656 A 0.68008086 0.68008086 0 0 1 133.00195 112.23047 C 132.24241 113.98691 131.8457 116.20358 131.8457 118.88867 C 131.8457 121.5479 132.24037 123.76777 133.00195 125.55273 C 133.76548 127.34225 134.8347 128.65651 136.22656 129.5625 C 137.64702 130.47056 139.33644 130.93359 141.35156 130.93359 C 143.4198 130.93359 145.08883 130.46996 146.42383 129.57227 C 147.76404 128.67109 148.77342 127.3623 149.46484 125.57422 A 0.68008086 0.68008086 0 0 1 149.4668 125.56836 C 150.18412 123.75116 150.55469 121.52626 150.55469 118.88867 C 150.55469 116.22524 150.18232 114.00172 149.4668 112.21289 A 0.68008086 0.68008086 0 0 1 149.46484 112.20508 C 148.77342 110.417 147.76404 109.10821 146.42383 108.20703 C 145.08883 107.30934 143.4198 106.8457 141.35156 106.8457 z M 32.736328 142.3457 L 32.716797 240.51758 L 99.244141 192.02344 L 32.736328 142.3457 z M 250.76562 142.39062 L 184.23828 192.03906 L 250.74805 240.56055 L 250.76562 142.39062 z M 112.16211 201.66992 L 48.652344 247.9707 L 234.80859 248.00586 L 171.31445 201.68359 L 146.3457 220.31836 C 143.6107 222.35936 139.86095 222.35941 137.12695 220.31641 L 112.16211 201.66992 z " />
	
	
	
	
	
</g>
</svg>
