<?xml version="1.0" encoding="UTF-8" standalone="no"?>
<!-- Generator: Adobe Illustrator 15.1.0, SVG Export Plug-In . SVG Version: 6.00 Build 0)  -->

<svg
   version="1.1"
   id="Layer_1"
   x="0px"
   y="0px"
   width="283.46px"
   height="283.46px"
   viewBox="0 0 283.46 283.46"
   enable-background="new 0 0 283.46 283.46"
   xml:space="preserve"
   sodipodi:docname="email-alt-3.svg"
   inkscape:version="1.4.2 (ebf0e940d0, 2025-05-08)"
   xmlns:inkscape="http://www.inkscape.org/namespaces/inkscape"
   xmlns:sodipodi="http://sodipodi.sourceforge.net/DTD/sodipodi-0.dtd"
   xmlns="http://www.w3.org/2000/svg"
   xmlns:svg="http://www.w3.org/2000/svg"><defs
   id="defs1" /><sodipodi:namedview
   id="namedview1"
   pagecolor="#ffffff"
   bordercolor="#000000"
   borderopacity="0.25"
   inkscape:showpageshadow="2"
   inkscape:pageopacity="0.0"
   inkscape:pagecheckerboard="0"
   inkscape:deskcolor="#d1d1d1"
   inkscape:zoom="2.7658224"
   inkscape:cx="141.73"
   inkscape:cy="141.73"
   inkscape:window-width="1920"
   inkscape:window-height="995"
   inkscape:window-x="0"
   inkscape:window-y="0"
   inkscape:window-maximized="1"
   inkscape:current-layer="Layer_1" />
<path
   id="path1"
   d="m 141.73047,10.082031 c -4.00025,0 -8.00122,1.360033 -11.26172,4.082031 L 13.396484,111.88477 c -4.3769984,3.654 -6.6293906,9.12109 -6.2753902,14.62109 l -0.027344,138.44726 0.076172,1.18946 c 0.159,1.185 0.5669217,2.28972 1.1699219,3.26172 l 0.984375,1.28906 1.1171872,1.00195 0.0918,0.0684 c 1.118,0.813 2.448578,1.35725 3.892578,1.53125 l 1.003907,0.0586 253.302732,0.0195 0.29688,-0.0293 c 1.447,-0.169 2.77753,-0.7153 3.89453,-1.5293 l 1.20703,-1.0664 0.92383,-1.18555 0.0625,-0.10742 c 0.604,-0.97 1.01387,-2.07386 1.17187,-3.25586 l 0.0781,-1.19141 V 125.97852 c 0.181,-5.32 -2.06474,-10.55575 -6.30274,-14.09375 L 152.99023,14.164062 c -3.2595,-2.721999 -7.25951,-4.082031 -11.25976,-4.082031 z m -0.002,17.572266 115.90625,96.748043 -14.6836,9.74805 -101.21484,75.5332 L 40.554688,134.11133 25.689453,124.51172 Z M 23.791016,142.39648 95.757812,196.15039 23.769531,248.62695 Z m 235.925784,0.0469 -0.0215,106.23047 -71.96679,-52.50586 z m -149.98047,64.14648 27.01172,20.17578 c 2.958,2.21003 7.01656,2.20984 9.97656,0.002 l 27.01953,-20.16406 68.70508,50.125 -201.437501,-0.0391 z" />
<path
   id="path3"
   style="font-family:'Adwaita Sans';-inkscape-font-specification:'Adwaita Sans';baseline-shift:baseline;white-space:pre;display:inline;overflow:visible;vector-effect:none;stroke-width:0.279091;stroke-linecap:round;stroke-linejoin:round;paint-order:stroke fill markers;enable-background:accumulate;stop-color:#000000"
   d="m 142.45763,78.35224 c -5.57599,0 -10.69661,0.930097 -15.34293,2.799632 -4.6374,1.865925 -8.67144,4.522495 -12.08104,7.959001 l -10e-4,0.0011 -0.001,0.0011 c -3.41031,3.410928 -6.05248,7.472652 -7.91759,12.162827 a 0.7257093,0.7257093 0 0 0 -5.4e-4,0.002 c -1.84134,4.67205 -2.75821,9.81732 -2.75821,15.41868 0,5.57482 0.91704,10.71993 2.75766,15.41761 a 0.7257093,0.7257093 0 0 0 0.002,0.004 c 1.86569,4.6642 4.50855,8.71289 7.9192,12.12356 3.40997,3.40998 7.4438,6.05226 12.08105,7.91812 4.64632,1.86953 9.76694,2.80017 15.34292,2.80017 2.94494,1e-5 5.66666,-0.21796 8.16614,-0.65739 h 5.7e-4 c 2.498,-0.40761 4.69289,-0.89769 6.58862,-1.47449 l 0.003,-5.7e-4 c 1.89533,-0.56866 3.40345,-1.07069 4.53741,-1.51319 a 0.7257093,0.7257093 0 0 0 0.41918,-0.92122 l -2.10081,-5.85928 a 0.7257093,0.7257093 0 0 0 -0.92612,-0.43826 c -1.19402,0.42454 -2.62284,0.87863 -4.28285,1.36057 a 0.7257093,0.7257093 0 0 0 -0.0104,0.003 c -1.63297,0.50044 -3.48842,0.92528 -5.56383,1.27117 a 0.7257093,0.7257093 0 0 0 -0.009,0.002 c -2.05128,0.36818 -4.32578,0.55437 -6.82193,0.55437 -4.61215,0 -8.74949,-0.71519 -12.42664,-2.13352 -3.65426,-1.41989 -6.76481,-3.44755 -9.35718,-6.09149 l -0.001,-10e-4 c -5.4e-4,-5.7e-4 -0.001,-0.001 -0.002,-0.002 -2.56369,-2.64289 -4.5414,-5.83384 -5.93722,-9.59757 l -10e-4,-0.003 c -3.4e-4,-8.5e-4 -7.7e-4,-0.002 -0.001,-0.003 -1.36694,-3.78776 -2.05557,-8.03674 -2.05557,-12.7586 0,-4.75166 0.68964,-9.00221 2.0572,-12.76297 1.3966,-3.79356 3.37558,-6.999378 5.9405,-9.642812 2.59286,-2.671419 5.70305,-4.711982 9.35718,-6.131827 l 0.002,-5.4e-4 c 3.67675,-1.417925 7.81351,-2.132431 12.42501,-2.132431 4.39597,0 8.34427,0.687535 11.85973,2.051756 a 0.7257093,0.7257093 0 0 0 0.004,0.0016 c 3.51712,1.338598 6.5034,3.296638 8.98761,5.885442 a 0.7257093,0.7257093 0 0 0 0.005,0.0054 c 2.50927,2.561548 4.43327,5.684545 5.77587,9.396432 1.34063,3.70642 2.01742,7.91736 2.01742,12.64304 0,3.07269 -0.33367,5.64361 -0.97737,7.70335 a 0.7257093,0.7257093 0 0 0 -0.002,0.005 c -0.61753,2.03277 -1.52282,3.51421 -2.68625,4.50797 -1.13046,0.96162 -2.50927,1.44234 -4.25614,1.44234 -1.57664,0 -2.60702,-0.44322 -3.31856,-1.31042 -0.71541,-0.8719 -1.12836,-2.24092 -1.12836,-4.18637 V 97.90721 a 0.7257093,0.7257093 0 0 0 -0.72553,-0.725527 h -6.46488 a 0.7257093,0.7257093 0 0 0 -0.72553,0.725527 v 2.20711 c -0.75661,-0.753904 -1.66845,-1.466937 -2.77183,-2.136247 -1.91885,-1.192007 -4.31209,-1.766123 -7.13099,-1.766123 -3.33371,0 -6.40808,0.891831 -9.16041,2.661177 a 0.7257093,0.7257093 0 0 0 -0.003,0.0016 c -2.71932,1.766193 -4.8966,4.200473 -6.51017,7.260743 a 0.7257093,0.7257093 0 0 0 -0.002,0.004 c -1.59418,3.07643 -2.38481,6.59431 -2.38481,10.51661 0,3.54256 0.69451,6.88228 2.08337,9.99331 a 0.7257093,0.7257093 0 0 0 0.001,0.002 c 1.39405,3.0948 3.42038,5.61705 6.05496,7.52292 2.66188,1.92562 5.86245,2.88522 9.5169,2.88522 3.28735,0 6.00429,-0.74261 8.07129,-2.28561 a 0.7257093,0.7257093 0 0 0 0.001,-0.001 c 1.47706,-1.10777 2.63003,-2.37455 3.4543,-3.78299 0.19211,0.46957 0.40586,0.95172 0.68083,1.47777 a 0.7257093,0.7257093 0 0 0 0.009,0.018 c 0.72091,1.29159 1.8734,2.39887 3.40687,3.33601 a 0.7257093,0.7257093 0 0 0 0.006,0.003 c 1.64632,0.98778 3.84821,1.43688 6.59571,1.43688 2.62224,0 4.97351,-0.49045 7.0247,-1.48757 2.04219,-0.99273 3.7693,-2.43515 5.15392,-4.29975 l 0.001,-10e-4 c 1.4101,-1.88991 2.45668,-4.16103 3.14958,-6.79412 a 0.7257093,0.7257093 0 0 0 5.7e-4,-0.002 c 0.69232,-2.65878 1.03346,-5.65558 1.03346,-8.9916 0,-5.59854 -0.88823,-10.68874 -2.6759,-15.25461 l -5.7e-4,-0.001 c -1.78376,-4.582289 -4.31779,-8.524825 -7.59541,-11.803048 l -10e-4,-0.0011 c -3.27528,-3.302437 -7.16268,-5.837708 -11.63847,-7.5959 l -0.003,-0.0011 c -4.45694,-1.787925 -9.37437,-2.677539 -14.73338,-2.677539 z m -1.13163,25.45289 c 2.207,0 3.98935,0.49423 5.41393,1.45214 1.43013,0.96165 2.50553,2.3579 3.24334,4.26595 a 0.7257093,0.7257093 0 0 0 0.003,0.008 c 0.76353,1.90885 1.16052,4.28288 1.16052,7.125 0,2.81456 -0.39617,5.18861 -1.16161,7.12772 a 0.7257093,0.7257093 0 0 0 -0.002,0.005 c -0.73781,1.90805 -1.81321,3.30431 -3.24334,4.26596 -1.42458,0.95791 -3.20693,1.45268 -5.41393,1.45268 -2.15032,0 -3.95158,-0.49296 -5.46735,-1.46195 h -5.7e-4 c -1.48525,-0.96678 -2.62591,-2.37 -3.44067,-4.27958 -0.81268,-1.90472 -1.23519,-4.27209 -1.23519,-7.10973 0,-2.86525 0.42305,-5.23219 1.23356,-7.10647 a 0.7257093,0.7257093 0 0 0 0.002,-0.003 c 0.81529,-1.91084 1.95671,-3.31492 3.44339,-4.28176 h 5.7e-4 v -5.7e-4 l 5.7e-4,-5.7e-4 h 5.7e-4 c 1.51495,-0.96733 3.31506,-1.45868 5.46353,-1.45868 z" /></svg>
