<?xml version="1.0" encoding="UTF-8" standalone="no"?>
<svg
   version="1.1"
   id="Layer_3"
   x="0px"
   y="0px"
   width="283.46px"
   height="283.46px"
   viewBox="0 0 283.46 283.46"
   enable-background="new 0 0 283.46 283.46"
   xml:space="preserve"
   sodipodi:docname="email-at.svg"
   inkscape:version="1.4.2 (ebf0e940d0, 2025-05-08)"
   xmlns:inkscape="http://www.inkscape.org/namespaces/inkscape"
   xmlns:sodipodi="http://sodipodi.sourceforge.net/DTD/sodipodi-0.dtd"
   xmlns="http://www.w3.org/2000/svg"
   xmlns:svg="http://www.w3.org/2000/svg"><defs
   id="defs15"></defs><sodipodi:namedview
   id="namedview13"
   pagecolor="#ffffff"
   bordercolor="#000000"
   borderopacity="0.25"
   inkscape:showpageshadow="2"
   inkscape:pageopacity="0.0"
   inkscape:pagecheckerboard="0"
   inkscape:deskcolor="#d1d1d1"
   showgrid="false"
   inkscape:zoom="0.74084529"
   inkscape:cx="220.01895"
   inkscape:cy="225.41819"
   inkscape:window-width="1920"
   inkscape:window-height="995"
   inkscape:window-x="0"
   inkscape:window-y="0"
   inkscape:window-maximized="1"
   inkscape:current-layer="layer1" />

<g
   inkscape:groupmode="layer"
   id="layer1"
   inkscape:label="Layer 1"><path
     id="path3"
     style="font-family:'Adwaita Sans';-inkscape-font-specification:'Adwaita Sans';baseline-shift:baseline;white-space:pre;display:inline;overflow:visible;opacity:1;vector-effect:none;stroke-width:0.981052;stroke-linecap:round;stroke-linejoin:round;paint-order:stroke fill markers;enable-background:accumulate;stop-color:#000000;stop-opacity:1"
     d="m 144.28686,7.0845082 c -19.60052,0 -37.60034,3.2694458 -53.932935,9.8411738 C 74.05268,23.484718 59.872347,32.823004 47.887037,44.902898 l -0.0038,0.0038 -0.0038,0.0038 C 35.891641,56.900476 26.603958,71.178114 20.047782,87.664868 a 2.5509892,2.5509892 0 0 0 -0.0019,0.0077 c -6.472619,16.423012 -9.695566,34.509522 -9.695566,54.199232 0,19.5964 3.223553,37.68234 9.693633,54.19544 a 2.5509892,2.5509892 0 0 0 0.0057,0.0153 c 6.558221,16.39545 15.848318,30.62729 27.837339,42.61635 11.986607,11.98665 26.166187,21.27469 42.466888,27.83351 16.332594,6.57173 34.332414,9.84308 53.932934,9.84308 10.35194,2e-5 19.91926,-0.76617 28.70534,-2.31083 h 0.002 c 8.78087,-1.43283 16.49629,-3.15554 23.1601,-5.18309 l 0.01,-0.002 c 6.66241,-1.99895 11.96371,-3.76365 15.94976,-5.31914 a 2.5509892,2.5509892 0 0 0 1.47349,-3.23824 l -7.38471,-20.59633 a 2.5509892,2.5509892 0 0 0 -3.25548,-1.54056 c -4.19718,1.49234 -9.21971,3.08853 -15.05493,4.78263 a 2.5509892,2.5509892 0 0 0 -0.0364,0.01 c -5.74017,1.75913 -12.26236,3.25253 -19.55779,4.46839 a 2.5509892,2.5509892 0 0 0 -0.0307,0.006 c -7.21058,1.29419 -15.20582,1.94869 -23.9802,1.94869 -16.2125,0 -30.75593,-2.51401 -43.68171,-7.49968 -12.845358,-4.99116 -23.77945,-12.11873 -32.892056,-21.4126 l -0.0038,-0.004 c -0.0019,-0.002 -0.0038,-0.004 -0.0057,-0.006 -9.011807,-9.29021 -15.963801,-20.50692 -20.87034,-33.73706 l -0.0038,-0.0115 c -0.0012,-0.003 -0.0027,-0.006 -0.0038,-0.01 -4.805,-13.3146 -7.225676,-28.25049 -7.225676,-44.84862 0,-16.70285 2.424223,-31.64427 7.231424,-44.863948 C 51.74112,83.672578 58.697544,72.403603 67.713668,63.111492 76.827992,53.72101 87.760849,46.548091 100.60572,41.557099 l 0.006,-0.0019 c 12.9244,-4.984241 27.46581,-7.495848 43.67597,-7.495848 15.45257,0 29.33151,2.416798 41.68895,7.212262 a 2.5509892,2.5509892 0 0 0 0.0153,0.0057 c 12.36326,4.705393 22.86054,11.588232 31.59293,20.688308 a 2.5509892,2.5509892 0 0 0 0.0192,0.01916 c 8.8205,9.004266 15.58369,19.982123 20.30317,33.030016 4.71254,13.028703 7.09155,27.830863 7.09155,44.442403 0,10.80101 -1.17291,19.83824 -3.4356,27.07855 a 2.5509892,2.5509892 0 0 0 -0.006,0.0192 c -2.17073,7.14554 -5.35298,12.35303 -9.44262,15.84628 -3.97375,3.38025 -8.82053,5.07005 -14.96104,5.07005 -5.54217,0 -9.16412,-1.558 -11.66532,-4.60634 -2.51477,-3.06488 -3.96637,-7.8772 -3.96637,-14.71578 V 75.823268 a 2.5509892,2.5509892 0 0 0 -2.55035,-2.55035 h -22.72514 a 2.5509892,2.5509892 0 0 0 -2.55035,2.55035 v 7.758356 c -2.65962,-2.650095 -5.86488,-5.156525 -9.74345,-7.50926 -6.74508,-4.190106 -15.15772,-6.208218 -25.06663,-6.208218 -11.71853,0 -22.52547,3.134933 -32.20034,9.354481 a 2.5509892,2.5509892 0 0 0 -0.01,0.0057 C 97.116705,85.432793 89.463217,93.989701 83.791226,104.74704 a 2.5509892,2.5509892 0 0 0 -0.0077,0.0153 c -5.60381,10.81419 -8.383008,23.1801 -8.383008,36.96764 0,12.45268 2.44133,24.19238 7.323396,35.12816 a 2.5509892,2.5509892 0 0 0 0.0038,0.008 c 4.900343,10.87873 12.023206,19.74486 21.284216,26.44433 9.35694,6.76887 20.60747,10.142 33.45348,10.142 11.55559,0 21.10608,-2.61038 28.37194,-8.03427 a 2.5509892,2.5509892 0 0 0 0.004,-0.004 c 5.19211,-3.89403 9.24498,-8.34694 12.14243,-13.29785 0.67528,1.65061 1.42667,3.34545 2.39323,5.1946 a 2.5509892,2.5509892 0 0 0 0.0326,0.0632 c 2.53411,4.54014 6.58531,8.43243 11.97572,11.72663 a 2.5509892,2.5509892 0 0 0 0.0192,0.0115 c 5.7871,3.47222 13.52708,5.05089 23.18501,5.05089 9.21762,0 17.48271,-1.72403 24.693,-5.22908 7.17865,-3.48959 13.24971,-8.55996 18.11687,-15.11433 l 0.004,-0.004 c 4.95676,-6.64334 8.63566,-14.6267 11.07132,-23.88247 a 2.5509892,2.5509892 0 0 0 0.002,-0.006 c 2.4338,-9.34545 3.63295,-19.8797 3.63295,-31.60634 0,-19.67983 -3.12228,-37.57273 -9.40622,-53.62252 l -0.002,-0.0038 C 257.43123,68.58713 248.52368,54.72846 237.0023,43.20496 l -0.004,-0.0038 C 225.48517,31.592544 211.82029,22.680641 196.08715,16.500304 l -0.01,-0.0038 C 180.41026,10.211648 163.12467,7.0845082 144.28686,7.0845082 Z M 140.309,96.555649 c 7.75799,0 14.02325,1.737301 19.03087,5.104531 5.02714,3.38034 8.80735,8.28842 11.40089,14.99553 a 2.5509892,2.5509892 0 0 0 0.0115,0.0287 c 2.68394,6.70991 4.07941,15.05503 4.07941,25.04556 0,9.89365 -1.39261,18.23881 -4.08325,25.05513 a 2.5509892,2.5509892 0 0 0 -0.008,0.0172 c -2.59354,6.70711 -6.37375,11.61518 -11.40089,14.99553 -5.00762,3.36724 -11.27288,5.10644 -19.03087,5.10644 -7.55873,0 -13.89046,-1.73286 -19.21864,-5.13902 h -0.002 c -5.2209,-3.39837 -9.23052,-8.33093 -12.09452,-15.04343 -2.85671,-6.69541 -4.34192,-15.0171 -4.34192,-24.9919 0,-10.0718 1.48712,-18.39199 4.33617,-24.98041 a 2.5509892,2.5509892 0 0 0 0.006,-0.0115 c 2.86589,-6.71692 6.87816,-11.65251 12.10411,-15.05109 h 0.002 v -0.002 l 0.002,-0.002 h 0.002 c 5.32532,-3.400356 11.65301,-5.127535 19.20523,-5.127535 z" /></g></svg>
