<?xml version="1.0" encoding="UTF-8" standalone="no"?>
<!-- Generator: Adobe Illustrator 15.1.0, SVG Export Plug-In . SVG Version: 6.00 Build 0)  -->

<svg
   version="1.0"
   id="Layer_2"
   x="0px"
   y="0px"
   width="283.46px"
   height="283.46px"
   viewBox="0 0 283.46 283.46"
   enable-background="new 0 0 283.46 283.46"
   xml:space="preserve"
   sodipodi:docname="end-to-end.svg"
   inkscape:version="1.2.2 (b0a8486541, 2022-12-01)"
   xmlns:inkscape="http://www.inkscape.org/namespaces/inkscape"
   xmlns:sodipodi="http://sodipodi.sourceforge.net/DTD/sodipodi-0.dtd"
   xmlns="http://www.w3.org/2000/svg"
   xmlns:svg="http://www.w3.org/2000/svg"><defs
   id="defs400" /><sodipodi:namedview
   id="namedview398"
   pagecolor="#ffffff"
   bordercolor="#000000"
   borderopacity="0.25"
   inkscape:showpageshadow="2"
   inkscape:pageopacity="0.0"
   inkscape:pagecheckerboard="0"
   inkscape:deskcolor="#d1d1d1"
   showgrid="false"
   inkscape:zoom="0.74084529"
   inkscape:cx="99.210997"
   inkscape:cy="95.836473"
   inkscape:window-width="1920"
   inkscape:window-height="1015"
   inkscape:window-x="0"
   inkscape:window-y="0"
   inkscape:window-maximized="1"
   inkscape:current-layer="Layer_2" />

<path
   id="path640-3"
   d="M 33.269531 116.33398 A 25.43544 25.364967 75 0 0 28.033203 117.16211 A 25.43544 25.364967 75 0 0 10.115234 148.29492 A 25.43544 25.364967 75 0 0 41.199219 166.29883 A 25.43544 25.364967 75 0 0 55.029297 156.73047 L 134.58203 156.73047 L 139.57422 156.73047 L 232.59375 156.73047 A 25.364967 25.43544 15 0 0 246.42383 166.29883 A 25.364967 25.43544 15 0 0 277.50781 148.29492 A 25.364967 25.43544 15 0 0 259.58984 117.16211 A 25.364967 25.43544 15 0 0 254.35156 116.33398 A 25.364967 25.43544 15 0 0 251.69727 116.33594 A 25.364967 25.43544 15 0 0 232.60938 126.73047 L 144.94922 126.73047 L 129.20703 126.73047 L 55.011719 126.73047 A 25.43544 25.364967 75 0 0 35.925781 116.33594 A 25.43544 25.364967 75 0 0 33.269531 116.33398 z " /></svg>
