<?xml version="1.0" encoding="UTF-8" standalone="no"?>
<svg
   version="1.1"
   id="Layer_3"
   x="0px"
   y="0px"
   width="283.46px"
   height="283.46px"
   viewBox="0 0 283.46 283.46"
   enable-background="new 0 0 283.46 283.46"
   xml:space="preserve"
   sodipodi:docname="entity-alt-1.svg"
   inkscape:version="1.2.2 (b0a8486541, 2022-12-01)"
   xmlns:inkscape="http://www.inkscape.org/namespaces/inkscape"
   xmlns:sodipodi="http://sodipodi.sourceforge.net/DTD/sodipodi-0.dtd"
   xmlns="http://www.w3.org/2000/svg"
   xmlns:svg="http://www.w3.org/2000/svg"><defs
   id="defs15"><inkscape:path-effect
     effect="fill_between_many"
     method="originald"
     linkedpaths="#g1670,0,1"
     id="path-effect1674" /></defs><sodipodi:namedview
   id="namedview13"
   pagecolor="#ffffff"
   bordercolor="#000000"
   borderopacity="0.25"
   inkscape:showpageshadow="2"
   inkscape:pageopacity="0.0"
   inkscape:pagecheckerboard="0"
   inkscape:deskcolor="#d1d1d1"
   showgrid="false"
   inkscape:zoom="0.74084529"
   inkscape:cx="114.0589"
   inkscape:cy="194.37257"
   inkscape:window-width="1920"
   inkscape:window-height="1015"
   inkscape:window-x="0"
   inkscape:window-y="0"
   inkscape:window-maximized="1"
   inkscape:current-layer="Layer_3" />
<path
   id="path302"
   style="color:#000000;display:inline;fill:#000000;stroke-width:0.877887;stroke-linecap:round;stroke-linejoin:round;-inkscape-stroke:none"
   d="M 186.65625 29.939453 C 184.68753 30.028693 183.02864 30.525864 181.68555 31.109375 A 6.8529221 6.2813241 0 0 0 181.67188 31.115234 C 181.36383 31.249753 181.06428 31.401914 180.77539 31.568359 L 180.77344 31.568359 C 178.79108 32.710778 177.83385 34.220146 177.3125 35.173828 L 177.31055 35.175781 C 177.23675 35.266251 177.20616 35.322783 177.20508 35.353516 L 177.20508 35.355469 C 177.0899 35.577154 176.81235 36.009331 176.78516 36.072266 C 176.73276 36.193501 176.70066 36.263168 176.62305 36.439453 C 176.60025 36.491253 176.47942 36.868824 176.41602 37.023438 C 176.05097 37.919589 175.8008 38.850923 175.80078 39.816406 L 175.80078 39.820312 L 175.80078 64.302734 L 144.64453 64.302734 C 144.58593 64.297534 144.52899 64.291016 144.46289 64.291016 C 144.40319 64.291016 143.71273 64.286256 143.00781 64.285156 C 142.30289 64.284056 141.58376 64.28896 141.4668 64.3125 C 141.4021 64.32552 141.34166 64.339326 141.28516 64.353516 C 140.78227 64.387166 140.04726 64.451996 139.4375 64.683594 C 138.57249 65.01213 137.92416 65.593825 137.73438 65.839844 C 136.88715 66.93804 136.401 67.212358 136.5 69.466797 C 136.507 69.640043 136.50309 69.873104 136.49609 70.125 A 0.4389872 0.43898737 0 0 0 136.41992 70.201172 L 136.41992 72.076172 C 136.40362 72.522302 136.393 72.940137 136.4082 73.259766 C 136.3238 73.738075 136.32222 74.159217 136.41992 74.490234 L 136.41992 138.79492 L 107.42578 138.79492 L 107.42578 86.689453 C 107.54489 83.337851 106.84895 80.618933 106.63477 79.677734 C 106.18804 77.715585 105.55244 75.61698 102.8457 73.398438 C 102.37289 73.010621 101.9007 72.620367 101.42773 72.232422 A 9.1291351 8.3676792 0 0 1 101.42578 72.232422 C 99.907143 70.98737 97.40907 69.804537 94.583984 69.804688 L 20.962891 69.804688 A 9.1291351 8.3676792 0 0 0 20.720703 69.894531 C 20.293645 69.889331 19.87019 69.779041 19.451172 69.816406 C 15.78031 70.143901 13.410257 71.757263 11.849609 73.091797 A 9.1291351 8.3676792 0 0 0 11.845703 73.097656 C 11.447875 73.438604 11.101838 73.786136 10.798828 74.128906 C 8.1796332 77.091465 7.9094379 79.605417 7.7675781 80.392578 C 7.7981781 80.272807 7.9650204 79.941062 8.5371094 79.009766 C 8.6011293 78.905544 8.7216066 78.753512 8.8789062 78.541016 A 9.1291351 8.3676792 0 0 0 7.8359375 80.458984 C 7.8526375 80.412754 7.7566719 80.499092 7.7636719 80.419922 C 7.7579719 80.450922 7.7452334 80.523918 7.7402344 80.548828 C 7.6761344 80.840779 7.6290248 81.044665 7.578125 81.271484 C 7.552675 81.384893 7.5586538 81.108201 7.4277344 82.103516 C 7.4113344 82.22793 7.3879937 82.383104 7.3710938 82.6875 C 7.3637838 82.817464 7.3622344 83.002363 7.3652344 83.226562 C 7.3014744 83.768153 7.0839344 84.331201 7.0839844 84.875 L 7.0839844 84.876953 L 7.0839844 189.41406 A 9.1291351 8.3676792 0 0 0 7.1347656 189.53125 C 7.0765457 192.1722 7.3874504 194.57933 7.9121094 196.57617 A 9.1291351 8.3676792 0 0 1 7.9121094 196.57812 A 9.1291351 8.3676792 0 0 1 7.9121094 196.58008 A 9.1291351 8.3676792 0 0 1 7.9121094 196.58203 C 7.9917093 196.88432 8.0842466 197.18983 8.1914062 197.49805 L 8.1933594 197.50195 C 8.852908 199.39642 10.345163 201.19637 11.474609 202.38867 C 11.336161 202.22358 11.104349 201.85144 10.712891 201.08008 C 10.749251 201.11388 10.787221 201.14629 10.824219 201.17969 A 9.1291351 8.3676792 0 0 0 11.742188 202.61523 C 11.682698 202.54633 11.626637 202.55443 11.498047 202.41211 C 12.161925 203.1109 12.728711 203.65081 12.832031 203.72461 C 12.911171 203.78121 12.933521 203.79971 13.175781 203.97656 C 13.236361 204.02076 13.309022 204.07366 13.482422 204.19141 C 13.581592 204.25871 14.126588 204.53124 14.398438 204.69336 C 15.902874 205.61579 17.692288 206.35552 19.933594 206.35352 L 93.544922 206.35352 A 9.1291351 8.3676792 0 0 0 93.765625 206.27539 C 97.694537 206.29279 100.92821 204.54597 102.65625 203.06836 A 9.1291351 8.3676792 0 0 0 102.66602 203.06445 C 103.06454 202.7229 103.40951 202.37656 103.71289 202.0332 C 106.33043 199.07251 106.59847 196.55646 106.74023 195.76758 C 106.70923 195.88735 106.54362 196.22048 105.97266 197.15039 C 105.90946 197.25333 105.79177 197.40352 105.63672 197.61328 A 9.1291351 8.3676792 0 0 0 106.67383 195.70312 C 106.65743 195.74852 106.74814 195.66919 106.74414 195.74219 L 106.74609 195.74219 C 106.75209 195.71069 106.76353 195.63653 106.76953 195.61133 C 106.83373 195.31928 106.88074 195.11946 106.93164 194.89258 C 106.95704 194.77915 106.95314 195.0518 107.08398 194.05664 C 107.10038 193.93224 107.12373 193.77897 107.14062 193.47461 C 107.14762 193.34423 107.14753 193.15703 107.14453 192.93164 C 107.20823 192.39005 107.4259 191.83091 107.42578 191.28711 L 107.42578 144.90039 L 136.41797 144.90039 L 136.41797 209.69922 A 0.4389872 0.43898737 0 0 0 136.47266 209.75586 C 136.39996 210.07078 136.40788 210.4542 136.48438 210.88867 C 136.43628 211.8942 136.61096 213.84996 136.57422 214.68555 C 136.47522 216.93997 136.96135 217.21431 137.80859 218.3125 C 137.99838 218.55852 138.64671 219.14021 139.51172 219.46875 C 140.12219 219.70063 140.85843 219.76718 141.36133 219.80078 C 141.41773 219.81498 141.47632 219.8288 141.54102 219.8418 C 141.77493 219.889 144.41773 219.86133 144.53711 219.86133 C 144.60011 219.86133 144.65474 219.85331 144.71094 219.84961 L 176.20117 219.84961 L 176.20117 242.61328 A 6.8529221 6.2813241 0 0 0 176.3125 242.79102 C 176.2859 244.84983 176.74866 246.70006 177.46484 248.08594 L 177.4668 248.08984 C 177.61119 248.36939 177.77462 248.64181 177.95312 248.9043 A 6.8529221 6.2813241 0 0 0 177.96094 248.91797 C 179.62387 251.34907 182.54582 252.45844 182.88086 252.58008 C 183.01545 252.62898 183.09343 252.65828 183.28906 252.73047 C 183.31156 252.73847 183.4408 252.77794 183.54492 252.80664 C 184.00989 252.96657 184.49124 253.10089 184.98828 253.20898 C 185.56358 253.34934 186.14597 253.4525 186.74609 253.4707 C 187.1233 253.5018 187.50862 253.51953 187.89648 253.51953 C 189.50508 253.51953 191.15545 253.53952 192.71289 253.48242 L 264.49609 253.48242 A 6.8529221 6.2813241 0 0 0 264.54492 253.45703 C 264.66915 253.4568 264.79422 253.45703 264.91797 253.45703 C 266.40044 253.45703 267.81344 253.22536 269.09766 252.80469 C 269.58712 252.66348 270.05033 252.50601 270.46875 252.32422 A 6.8529221 6.2813241 0 0 0 270.48242 252.31445 C 270.78867 252.18073 271.08574 252.03051 271.37305 251.86523 C 272.23746 251.36846 272.93523 250.75037 273.50586 250.13086 C 273.51186 250.12486 273.51588 250.11733 273.52148 250.11133 C 273.61748 250.00659 273.72059 249.90295 273.80859 249.79883 C 274.18771 249.36486 274.51634 248.90319 274.78516 248.41602 C 275.09766 247.89734 275.32234 247.4657 275.36914 247.35742 C 275.42164 247.23582 275.45354 247.1667 275.53125 246.99023 C 275.55395 246.93863 275.67363 246.56008 275.73633 246.4082 C 276.10211 245.51096 276.35373 244.58003 276.35352 243.61328 L 276.35352 187.64844 L 276.31836 188.28711 C 276.65932 185.23647 275.37949 182.80797 275.20898 182.42773 C 274.36146 180.53337 272.75226 179.00351 270.71875 178.15625 C 270.22209 177.94927 269.72422 177.74027 269.22266 177.53125 A 6.8529221 6.2813241 0 0 0 269.2168 177.52734 C 268.07582 177.05293 266.83687 176.8078 265.58398 176.80859 L 188.05664 176.80859 A 6.8529221 6.2813241 0 0 0 188.01172 176.83203 C 187.69358 176.82403 187.36027 176.78883 187.05469 176.80273 C 185.08982 176.89183 183.43333 177.38665 182.0957 177.9668 C 181.78556 178.101 181.48425 178.25146 181.19336 178.41797 A 6.8529221 6.2813241 0 0 0 181.18164 178.42188 C 179.4609 179.41073 178.40076 180.84005 177.79492 181.83789 C 177.17865 182.68682 176.74839 183.62878 176.55078 184.62891 C 176.33876 185.29239 176.20159 185.97211 176.20117 186.67188 A 6.8529221 6.2813241 0 0 1 176.20117 186.67383 A 6.8529221 6.2813241 0 0 1 176.20117 186.67578 L 176.20117 213.74609 L 144.69336 213.74609 A 0.4389872 0.43898737 0 0 0 144.65625 213.76172 C 143.79749 213.62441 142.49305 213.24664 142.49805 211.95703 C 142.50205 211.04501 142.50863 210.33386 142.51562 209.70703 A 0.4389872 0.43898737 0 0 0 142.52539 209.69922 L 142.52539 209.13477 C 142.54739 207.55422 142.56629 206.88989 142.52539 206.45312 L 142.52539 71.615234 C 142.84969 70.78618 143.8677 70.506313 144.58008 70.392578 A 0.4389872 0.43898737 0 0 0 144.61914 70.40625 L 175.80078 70.40625 L 175.80078 95.751953 A 6.8529221 6.2813241 0 0 0 175.91211 95.933594 C 175.89861 97.009434 176.02465 98.02232 176.24414 98.947266 C 176.62527 102.6835 180.20534 105.7218 184.86914 106.42383 C 185.42419 106.54192 185.98844 106.61926 186.56641 106.61914 L 264.09766 106.61914 A 6.8529221 6.2813241 0 0 0 264.25 106.53906 C 264.36452 106.53885 264.47965 106.53906 264.59375 106.53906 C 265.55834 106.53906 266.49362 106.43861 267.38281 106.25391 C 267.47851 106.23611 267.56626 106.21461 267.66016 106.19531 C 267.75816 106.17271 267.85437 106.14775 267.95117 106.12305 C 268.71786 105.94776 269.43657 105.73275 270.05469 105.46484 C 270.05669 105.46484 270.0605 105.46194 270.0625 105.46094 C 270.37179 105.327 270.6708 105.17976 270.96094 105.01367 A 6.8529221 6.2813241 0 0 0 270.97266 105.00391 C 271.70514 104.58296 272.31769 104.07382 272.83789 103.55078 C 273.6032 102.83999 274.21687 102.027 274.64258 101.14453 C 274.82394 100.81419 274.9333 100.57349 274.9668 100.49609 C 275.0163 100.38165 275.0475 100.31948 275.12109 100.1543 C 275.14599 100.0983 275.25181 99.794408 275.34961 99.513672 C 275.70713 98.623289 275.95512 97.697904 275.95312 96.740234 L 275.95312 40.787109 L 275.91797 41.425781 C 276.25851 38.378689 274.98164 35.950837 274.80859 35.564453 A 6.8529221 6.2813241 0 0 0 274.80664 35.556641 C 273.95693 33.664409 272.34757 32.138159 270.31445 31.292969 C 269.823 31.088164 269.32831 30.882601 268.83203 30.675781 C 267.69171 30.198682 266.45272 29.950919 265.19922 29.949219 A 6.8529221 6.2813241 0 0 0 265.18945 29.949219 L 187.6582 29.949219 A 6.8529221 6.2813241 0 0 0 187.61523 29.970703 C 187.29546 29.961803 186.97608 29.924963 186.65625 29.939453 z M 192.04297 66.539062 L 261 66.539062 L 261 70.822266 L 192.04297 70.822266 L 192.04297 66.539062 z M 191.61523 82.796875 L 260.57031 82.796875 L 260.57031 87.080078 L 191.61523 87.080078 L 191.61523 82.796875 z M 25.900391 112.74414 L 89.546875 112.74414 L 89.546875 117.02734 L 25.900391 117.02734 L 25.900391 112.74414 z M 25.503906 133 L 89.150391 133 L 89.150391 137.28516 L 25.503906 137.28516 L 25.503906 133 z M 25.492188 154.00977 L 89.138672 154.00977 L 89.138672 158.29297 L 25.492188 158.29297 L 25.492188 154.00977 z M 25.095703 174.26562 L 88.742188 174.26562 L 88.742188 178.55078 L 25.095703 178.55078 L 25.095703 174.26562 z M 192.41016 213.39844 L 261.36523 213.39844 L 261.36523 217.68359 L 192.41016 217.68359 L 192.41016 213.39844 z M 191.98047 229.65625 L 260.93555 229.65625 L 260.93555 233.94141 L 191.98047 233.94141 L 191.98047 229.65625 z " />
</svg>
