<?xml version="1.0" encoding="UTF-8" standalone="no"?>
<svg
   version="1.1"
   id="Layer_3"
   x="0px"
   y="0px"
   width="283.46px"
   height="283.46px"
   viewBox="0 0 283.46 283.46"
   enable-background="new 0 0 283.46 283.46"
   xml:space="preserve"
   sodipodi:docname="entity.svg"
   inkscape:version="1.2.2 (b0a8486541, 2022-12-01)"
   xmlns:inkscape="http://www.inkscape.org/namespaces/inkscape"
   xmlns:sodipodi="http://sodipodi.sourceforge.net/DTD/sodipodi-0.dtd"
   xmlns="http://www.w3.org/2000/svg"
   xmlns:svg="http://www.w3.org/2000/svg"><defs
   id="defs15"><inkscape:path-effect
     effect="fill_between_many"
     method="originald"
     linkedpaths="#g1670,0,1"
     id="path-effect1674" /></defs><sodipodi:namedview
   id="namedview13"
   pagecolor="#ffffff"
   bordercolor="#000000"
   borderopacity="0.25"
   inkscape:showpageshadow="2"
   inkscape:pageopacity="0.0"
   inkscape:pagecheckerboard="0"
   inkscape:deskcolor="#d1d1d1"
   showgrid="false"
   inkscape:zoom="2.0954269"
   inkscape:cx="89.957803"
   inkscape:cy="175.14331"
   inkscape:window-width="1920"
   inkscape:window-height="1015"
   inkscape:window-x="0"
   inkscape:window-y="0"
   inkscape:window-maximized="1"
   inkscape:current-layer="Layer_3" />
<path
   id="path2890"
   style="color:#000000;display:inline;fill:#000000;stroke-width:0.877887;stroke-linecap:round;stroke-linejoin:round;-inkscape-stroke:none"
   d="m 186.6561,29.940363 c 0.31983,-0.01449 0.6387,0.02198 0.95847,0.03087 a 6.8529221,6.2813241 0 0 1 0.0429,-0.02229 h 77.53179 a 6.8529221,6.2813241 0 0 1 0.0103,0 c 1.2535,0.0017 2.49125,0.249899 3.63157,0.727 0.49628,0.20682 0.9917,0.412459 1.48315,0.617264 2.03312,0.845192 3.6426,2.372032 4.49231,4.264268 a 6.8529221,6.2813241 0 0 1 0.002,0.0068 c 0.17305,0.386384 1.4499,2.815198 1.10936,5.862296 l 0.0343,-0.639555 v 55.953292 c 0.002,0.957672 -0.24432,1.882161 -0.60184,2.772546 -0.0978,0.280736 -0.20483,0.585296 -0.22975,0.641266 -0.0736,0.16518 -0.10486,0.22849 -0.15432,0.34293 -0.0335,0.0774 -0.1427,0.31778 -0.32406,0.64812 -0.42571,0.88247 -1.03848,1.69483 -1.80379,2.40562 -0.5202,0.52304 -1.13302,1.03305 -1.8655,1.454 a 6.8529221,6.2813241 0 0 1 -0.012,0.009 c -0.29014,0.16609 -0.58918,0.31358 -0.89847,0.44752 -0.002,8.8e-4 -0.005,0.003 -0.007,0.003 -0.61812,0.26791 -1.33715,0.48313 -2.10384,0.65842 -0.0968,0.0247 -0.19349,0.0494 -0.29148,0.072 -0.0939,0.0193 -0.18209,0.0423 -0.27777,0.0601 -0.88919,0.1847 -1.82339,0.28463 -2.78798,0.28463 -0.1141,0 -0.23012,-2.1e-4 -0.34464,0 a 6.8529221,6.2813241 0 0 1 -0.1526,0.0806 h -77.53022 c -0.57797,1.2e-4 -1.14243,-0.0791 -1.69748,-0.19719 -4.66382,-0.70203 -8.24514,-3.73951 -8.62627,-7.47575 -0.21949,-0.924948 -0.34442,-1.938465 -0.33092,-3.014307 a 6.8529221,6.2813241 0 0 1 -0.11145,-0.180035 V 70.40718 h -31.18213 a 0.4389872,0.43898737 0 0 1 -0.0378,-0.01543 c -0.71238,0.113735 -1.73152,0.39347 -2.05582,1.222526 V 206.45222 c 0.0409,0.43677 0.022,1.10113 0,2.68168 v 0.56582 a 0.4389872,0.43898737 0 0 1 -0.009,0.007 c -0.007,0.62683 -0.0153,1.33756 -0.0189,2.24958 -0.005,1.28961 1.29994,1.66819 2.1587,1.8055 a 0.4389872,0.43898737 0 0 1 0.0378,-0.0155 h 31.50837 v -27.07047 a 6.8529221,6.2813241 0 0 1 0,-0.002 6.8529221,6.2813241 0 0 1 0,-0.002 c 4.2e-4,-0.69977 0.13605,-1.38036 0.34807,-2.04384 0.19761,-1.00013 0.62855,-1.94076 1.24482,-2.78969 0.60584,-0.99784 1.66564,-2.42667 3.38638,-3.41554 a 6.8529221,6.2813241 0 0 1 0.012,-0.005 c 0.29089,-0.16651 0.59175,-0.31676 0.90189,-0.45096 1.33763,-0.58015 2.99553,-1.07516 4.9604,-1.16422 0.30558,-0.0139 0.63862,0.0213 0.95676,0.0291 a 6.8529221,6.2813241 0 0 1 0.0446,-0.0223 h 77.52665 c 1.25289,-7.9e-4 2.49231,0.24402 3.63329,0.71843 a 6.8529221,6.2813241 0 0 1 0.005,0.004 c 0.50156,0.20902 1.0002,0.41714 1.49686,0.62412 2.03351,0.84726 3.64306,2.37674 4.4906,4.27112 0.17051,0.38024 1.45032,2.80994 1.10936,5.86058 l 0.0343,-0.63955 v 55.96529 c 2.1e-4,0.96675 -0.25149,1.8976 -0.61727,2.79484 -0.0627,0.15188 -0.18128,0.53132 -0.20403,0.58297 -0.0777,0.17647 -0.11034,0.24533 -0.16289,0.36693 -0.0468,0.10828 -0.27219,0.53924 -0.58469,1.05792 -0.26882,0.48717 -0.5965,0.94973 -0.97562,1.3837 -0.088,0.10412 -0.19034,0.20732 -0.28634,0.31206 -0.006,0.006 -0.0112,0.0127 -0.0171,0.0189 -0.57063,0.61951 -1.26687,1.23843 -2.13128,1.7352 -0.28731,0.16528 -0.58535,0.31551 -0.8916,0.44923 a 6.8529221,6.2813241 0 0 1 -0.0137,0.009 c -0.41842,0.18179 -0.88224,0.33888 -1.3717,0.48009 -1.28422,0.42067 -2.69606,0.65327 -4.17853,0.65327 -0.12375,0 -0.24956,-2.3e-4 -0.37379,0 a 6.8529221,6.2813241 0 0 1 -0.048,0.0257 H 192.7121 c -1.55744,0.0571 -3.20777,0.036 -4.81637,0.036 -0.38786,0 -0.77159,-0.0169 -1.1488,-0.048 -0.60012,-0.0182 -1.1839,-0.12198 -1.7592,-0.26234 -0.49704,-0.10809 -0.97874,-0.243 -1.44371,-0.40293 -0.10412,-0.0287 -0.23294,-0.0672 -0.25548,-0.0754 -0.19563,-0.0722 -0.27349,-0.10202 -0.40808,-0.15089 -0.33504,-0.12164 -3.25633,-1.23134 -4.91926,-3.66244 a 6.8529221,6.2813241 0 0 1 -0.009,-0.0137 c -0.17852,-0.26249 -0.34084,-0.5349 -0.48523,-0.81445 l -0.002,-0.004 c -0.71618,-1.38588 -1.1788,-3.23421 -1.15223,-5.29304 a 6.8529221,6.2813241 0 0 1 -0.11145,-0.17832 v -22.76333 h -31.49076 c -0.0562,0.004 -0.11015,0.0103 -0.17317,0.0103 -0.11938,0 -2.76324,0.0283 -2.99715,-0.0189 -0.0647,-0.013 -0.12188,-0.027 -0.17833,-0.0412 -0.5029,-0.0336 -1.2396,-0.10076 -1.85007,-0.33264 -0.86501,-0.32854 -1.51283,-0.90964 -1.70262,-1.15566 -0.84724,-1.09819 -1.33352,-1.37198 -1.23454,-3.62642 0.0367,-0.83559 -0.13901,-2.79065 -0.0909,-3.79618 -0.0765,-0.43447 -0.083,-0.81844 -0.0103,-1.13336 a 0.4389872,0.43898737 0 0 1 -0.0549,-0.0565 V 144.90074 H 107.426 v 46.3857 c 1.2e-4,0.5438 -0.21751,1.10445 -0.2812,1.64604 0.003,0.22539 0.002,0.41144 -0.005,0.54182 -0.0169,0.30436 -0.0385,0.45857 -0.0549,0.58297 -0.13089,0.99516 -0.12716,0.72159 -0.15261,0.83502 -0.0509,0.22688 -0.0987,0.42638 -0.16289,0.71843 -0.006,0.0252 -0.0182,0.10055 -0.024,0.13203 h -0.002 c 0.004,-0.073 -0.0867,0.006 -0.0703,-0.0394 a 9.1291351,8.3676792 0 0 1 -1.03735,1.91008 c 0.15505,-0.20976 0.27457,-0.36 0.33778,-0.46294 0.57096,-0.92991 0.73547,-1.26221 0.76643,-1.38198 -0.14176,0.78888 -0.41048,3.30451 -3.02802,6.26522 -0.30338,0.34336 -0.6474,0.68894 -1.04592,1.03049 a 9.1291351,8.3676792 0 0 1 -0.009,0.005 c -1.72804,1.47761 -4.963103,3.22374 -8.892023,3.20635 a 9.1291351,8.3676792 0 0 1 -0.21947,0.0788 h -73.61216 c -2.24131,0.002 -4.03036,-0.73904 -5.5348,-1.66147 -0.27185,-0.16212 -0.81645,-0.43333 -0.91562,-0.50067 -0.1734,-0.11776 -0.24634,-0.17181 -0.30692,-0.21604 -0.24226,-0.17689 -0.26549,-0.19549 -0.34463,-0.25205 -0.10332,-0.0738 -0.67011,-0.6129 -1.33399,-1.31169 0.12859,0.14232 0.18571,0.13345 0.2452,0.20233 a 9.1291351,8.3676792 0 0 1 -0.91903,-1.43515 c -0.037,-0.0334 -0.0751,-0.0656 -0.11146,-0.0994 0.39146,0.77136 0.62455,1.14315 0.763,1.30824 -1.12945,-1.1923 -2.6222302,-2.9922 -3.2817802,-4.88667 l -0.002,-0.004 c -0.10716,-0.30822 -0.19987,-0.61332 -0.27947,-0.91561 a 9.1291351,8.3676792 0 0 1 0,-0.002 9.1291351,8.3676792 0 0 1 0,-0.002 9.1291351,8.3676792 0 0 1 0,-0.002 c -0.52466,-1.99684 -0.83496,-4.40443 -0.77674,-7.04538 a 9.1291351,8.3676792 0 0 1 -0.0514,-0.11659 v -104.537131 -0.0018 c -5e-5,-0.543801 0.21745,-1.106162 0.28121,-1.647753 -0.003,-0.224201 -3.1e-4,-0.410142 0.007,-0.540106 0.0169,-0.304396 0.0385,-0.458558 0.0549,-0.582972 0.13092,-0.995317 0.12542,-0.719898 0.15087,-0.833307 0.0509,-0.226821 0.0988,-0.429906 0.1629,-0.721857 0.005,-0.02491 0.0183,-0.09931 0.024,-0.130311 -0.007,0.07917 0.0887,-0.0068 0.072,0.03943 a 9.1291351,8.3676792 0 0 1 1.0425,-1.916949 c -0.1573,0.212498 -0.27891,0.36387 -0.34293,0.468092 -0.57209,0.931298 -0.73755,1.26393 -0.76815,1.383701 0.14186,-0.787163 0.41226,-3.302667 3.0314602,-6.265232 0.30301,-0.342772 0.64808,-0.689541 1.04591,-1.030489 a 9.1291351,8.3676792 0 0 1 0.005,-0.0052 c 1.56065,-1.334536 3.93005,-2.94915 7.60092,-3.276645 0.41902,-0.03737 0.84176,0.07369 1.26882,0.07887 a 9.1291351,8.3676792 0 0 1 0.24348,-0.08916 h 73.61962 c 2.82509,-1.51e-4 5.32435,1.181137 6.843043,2.426191 a 9.1291351,8.3676792 0 0 1 0.002,0.0018 c 0.47297,0.387947 0.94518,0.778126 1.41799,1.165943 2.70674,2.218548 3.34259,4.316797 3.78932,6.27895 0.21418,0.941201 0.90955,3.659485 0.79044,7.011093 v 52.105672 h 28.99325 V 74.489697 c -0.0977,-0.331019 -0.0947,-0.751073 -0.0103,-1.229384 -0.0152,-0.319629 -0.006,-0.738674 0.0103,-1.184806 v -1.874082 a 0.4389872,0.43898737 0 0 1 0.0772,-0.07716 c 0.007,-0.251896 0.011,-0.483454 0.004,-0.6567 -0.099,-2.254443 0.3873,-2.529944 1.23453,-3.628142 0.1898,-0.246019 0.8376,-0.827117 1.70261,-1.155655 0.60976,-0.2316 1.34548,-0.297275 1.84837,-0.330923 0.0565,-0.01419 0.11531,-0.02813 0.18004,-0.04115 0.11696,-0.02357 0.83652,-0.02857 1.54144,-0.02743 0.70492,0.0011 1.39602,0.0068 1.45572,0.0068 0.0661,0 0.12316,0.0068 0.18174,0.012 h 31.15585 v -24.483101 -0.0034 c 2e-5,-0.965485 0.2505,-1.896968 0.61555,-2.793121 0.0634,-0.154614 0.18294,-0.532891 0.20576,-0.584687 0.0776,-0.176285 0.1105,-0.245694 0.16288,-0.366929 0.13653,-0.31594 1.34578,-2.979782 3.98822,-4.5026 l 0.002,-0.0018 c 0.28889,-0.166447 0.58869,-0.318142 0.89674,-0.452661 a 6.8529221,6.2813241 0 0 1 0.0137,-0.0052 c 1.34309,-0.583513 3.00198,-1.080135 4.9707,-1.169372 z m -9.23153,5.106147 c -0.18251,0.194018 -0.23148,0.288615 -0.21605,0.322348 a 10.722622,8.2920323 0 0 1 0.21605,-0.322348 z m 91.67571,18.523072 h -86.44783 v 42.18144 l 0.0137,-0.209184 c -0.14406,1.107972 0.15191,2.14358 0.59155,2.993732 a 1.9267637,1.7660535 0 0 0 0.10973,0.18175 c 0.5197,0.759758 1.23585,1.013901 1.63576,1.159085 0.3999,0.145185 0.60763,0.234755 0.51267,0.178315 a 1.9267637,1.7660535 0 0 0 1.04934,0.28463 h 77.53181 l -0.22976,-0.0137 c 1.20881,0.13204 2.33884,-0.13885 3.26636,-0.541819 a 1.9267637,1.7660535 0 0 0 0.1989,-0.09945 c 0.82888,-0.476366 1.10529,-1.133765 1.26367,-1.500314 0.15843,-0.36655 0.25704,-0.556853 0.19547,-0.469806 a 1.9267637,1.7660535 0 0 0 0.30863,-0.961904 z M 11.510857,76.235183 c -0.51903,0.310337 -1.16427,0.696186 -1.16422,0.696137 9e-5,-7.2e-5 -0.4216702,0.41348 -0.7218602,0.708139 h 0.11659 a 9.1291351,8.3676792 0 0 1 1.7437702,-1.375127 c 0.009,-0.0097 0.0172,-0.01944 0.0257,-0.02915 z m -2.3936102,1.982104 c -0.0808,0.111266 -0.1141,0.159448 -0.21089,0.289771 a 9.1291351,8.3676792 0 0 1 0.21089,-0.219471 z M 98.299897,97.038704 h -82.08583 v 92.377026 l 0.012,-0.39093 c -0.13679,2.07072 0.14494,4.00592 0.56239,5.59481 a 1.8295516,3.3006188 0 0 0 0.10288,0.33949 c 0.49348,1.41994 1.17372,1.89423 1.55345,2.16557 0.37973,0.27136 0.57713,0.43811 0.48696,0.33264 a 1.8295516,3.3006188 0 0 0 0.9962,0.53153 h 73.62073 l -0.21775,-0.024 c 1.14779,0.24676 2.221,-0.26024 3.10174,-1.01335 a 1.8295516,3.3006188 0 0 0 0.18689,-0.18517 c 0.78707,-0.89026 1.05155,-2.12007 1.20195,-2.80513 0.15042,-0.68505 0.24197,-1.03885 0.18348,-0.87616 a 1.8295516,3.3006188 0 0 0 0.2949,-1.79864 z m 7.304273,100.620926 a 9.1291351,8.3676792 0 0 1 -1.36653,1.41628 c -0.0274,0.0536 -0.0518,0.10813 -0.0806,0.16118 1.3e-4,-8e-5 0.0137,-0.009 0.0137,-0.009 -1.2e-4,1.1e-4 1.02033,-1.00321 1.02019,-1.00305 -1.5e-4,1.7e-4 0.22451,-0.31166 0.41323,-0.56583 z m 163.89733,2.77084 h -86.44783 v 42.18144 l 0.0137,-0.20919 c -0.14406,1.10797 0.15191,2.14358 0.59155,2.99373 a 1.9267637,1.7660535 0 0 0 0.10802,0.18175 c 0.5197,0.75976 1.23756,1.0139 1.63747,1.15909 0.3999,0.1452 0.60591,0.23304 0.51095,0.1766 a 1.9267637,1.7660535 0 0 0 1.04935,0.28463 h 77.53181 l -0.22804,-0.012 c 1.2088,0.13204 2.33883,-0.13886 3.26635,-0.54183 a 1.9267637,1.7660535 0 0 0 0.19718,-0.0994 c 0.82888,-0.47636 1.10701,-1.13375 1.26539,-1.5003 0.1584,-0.36655 0.25533,-0.55685 0.19376,-0.46981 a 1.9267637,1.7660535 0 0 0 0.31034,-0.9619 z m -88.18131,41.94482 c -0.0141,0.016 -0.0383,0.0463 -0.0549,0.0651 l 0.79216,0.0635 a 6.8529221,6.2813241 0 0 1 0.0755,-0.1046 z m 82.95343,5.67198 v 0.0154 c 0.007,-8.8e-4 0.0137,-0.003 0.0206,-0.004 a 6.8529221,6.2813241 0 0 1 -0.0206,-0.012 z m 10.65638,0.0874 c -0.01,0.0201 -0.0207,0.0399 -0.0309,0.06 0.0182,-0.027 0.0245,-0.0425 0.0309,-0.06 z m -92.99083,3.98651 c 0.0442,0.0267 0.0765,0.045 0.10116,0.0514 -0.0337,-0.017 -0.0678,-0.0342 -0.10116,-0.0514 z M 260.99975,66.53974 v 4.283128 H 192.04337 V 66.53974 Z m -0.4288,16.256341 v 4.284841 H 191.61457 V 82.796081 Z M 89.138637,154.00888 v 4.28485 h -63.64622 v -4.28485 z m -0.39577,20.25634 v 4.28484 h -63.64623 v -4.28484 z m 0.80338,-61.52176 v 4.28485 h -63.64622 v -4.28485 z m -0.39577,20.25634 v 4.28484 h -63.64623 v -4.28484 z m 172.213903,80.3991 v 4.28484 h -68.95482 v -4.28484 z m -0.42879,16.25807 v 4.28483 h -68.95482 v -4.28483 z" />
</svg>
