<?xml version="1.0" encoding="UTF-8" standalone="no"?>
<!-- Generator: Adobe Illustrator 15.1.0, SVG Export Plug-In . SVG Version: 6.00 Build 0)  -->

<svg
   version="1.1"
   id="Layer_2"
   x="0px"
   y="0px"
   width="283.46px"
   height="283.46px"
   viewBox="0 0 283.46 283.46"
   enable-background="new 0 0 283.46 283.46"
   xml:space="preserve"
   sodipodi:docname="extension-alt-3.svg"
   inkscape:version="1.2.2 (b0a8486541, 2022-12-01)"
   xmlns:inkscape="http://www.inkscape.org/namespaces/inkscape"
   xmlns:sodipodi="http://sodipodi.sourceforge.net/DTD/sodipodi-0.dtd"
   xmlns="http://www.w3.org/2000/svg"
   xmlns:svg="http://www.w3.org/2000/svg"><defs
   id="defs7" /><sodipodi:namedview
   id="namedview5"
   pagecolor="#ffffff"
   bordercolor="#000000"
   borderopacity="0.25"
   inkscape:showpageshadow="2"
   inkscape:pageopacity="0.0"
   inkscape:pagecheckerboard="0"
   inkscape:deskcolor="#d1d1d1"
   showgrid="false"
   inkscape:zoom="0.37042265"
   inkscape:cx="25.64638"
   inkscape:cy="107.98476"
   inkscape:window-width="1920"
   inkscape:window-height="1015"
   inkscape:window-x="0"
   inkscape:window-y="0"
   inkscape:window-maximized="1"
   inkscape:current-layer="Layer_2" />
<path
   id="path2"
   style="stroke-width:0.728345"
   d="m 266.77797,7.083788 -0.008,0.002 c -0.37238,0.002 -0.74476,0.0266 -1.11409,0.0725 -0.0268,0.003 -0.0564,0.007 -0.0936,0.0114 l -0.0114,0.002 -0.0106,0.002 c -0.15577,0.0214 -0.30924,0.0465 -0.45851,0.0741 -0.0631,0.0115 -0.11558,0.0222 -0.13111,0.0252 l -0.005,8.2e-4 -0.005,8.1e-4 c -0.0676,0.0135 -0.17367,0.0343 -0.31029,0.0668 l -0.01,0.002 -39.23745,9.27756 h -8.1e-4 c -1.77459,0.41997 -3.33982,1.32501 -4.55002,2.53521 -2.26302,2.26303 -3.32963,5.63537 -2.54416,8.95506 0.006,0.0233 0.0139,0.0452 0.0195,0.0684 a 2.3540892,2.3540892 0 0 0 0.4129,1.26068 c 0.95465,2.38573 2.82287,4.22943 5.09321,5.21538 l 5.75206,5.73577 -31.06828,31.06827 c -3.70118,3.70119 -3.70151,9.80193 0,13.50345 3.70138,3.701375 9.80289,3.701375 13.50427,0 l 31.08782,-31.08782 2.91553,2.90657 2.74613,2.73799 c 0.96358,2.3092 2.81065,4.21761 5.21293,5.19745 l 0.0578,0.0578 a 2.3540892,2.3540892 0 0 0 2.23469,0.56356 c 4.78896,0.65015 9.45015,-2.46682 10.58467,-7.2595 v -8.1e-4 l 9.28001,-39.24804 c 0.0749,-0.3169 0.08,-0.37904 0.0301,-0.15311 l 8.1e-4,-0.002 8.2e-4,-0.002 c 0.008,-0.0378 0.0322,-0.13652 0.0627,-0.29888 v -0.002 l 8.1e-4,-0.002 c 0.0306,-0.16424 0.0474,-0.28811 0.0594,-0.37218 l 8.1e-4,-0.005 8.2e-4,-0.005 c 0.013,-0.0925 0.0251,-0.18575 0.0358,-0.28097 v -0.002 -0.002 c 0.003,-0.0281 0.0142,-0.10998 0.0261,-0.24838 0.0144,-0.16584 0.0192,-0.28614 0.0228,-0.35671 l 8.1e-4,-0.007 v -0.007 c 0.004,-0.0817 0.008,-0.19493 0.01,-0.32738 v -8.2e-4 c 10e-4,-0.0805 10e-4,-0.15181 8.1e-4,-0.21419 v -0.0155 -0.0155 c -0.002,-0.11748 -0.006,-0.22615 -0.0106,-0.32739 l -8.1e-4,-0.013 c -0.005,-0.1014 -0.0109,-0.21689 -0.022,-0.34856 v -8.1e-4 -0.002 c -0.0117,-0.13759 -0.0232,-0.22145 -0.0269,-0.25328 v -0.002 c -0.012,-0.10664 -0.0249,-0.20684 -0.0383,-0.30051 l -0.002,-0.0171 -0.002,-0.0163 c -0.008,-0.0503 -0.023,-0.16004 -0.0521,-0.31842 l -8.2e-4,-0.004 c -0.0321,-0.17431 -0.0571,-0.27749 -0.0635,-0.30703 l -0.003,-0.0147 -0.003,-0.0138 c 0.054,0.23768 0.0449,0.16548 -0.0277,-0.14008 -0.0611,-0.25629 -0.083,-0.32562 -0.0277,-0.10017 l -0.002,-0.0106 -0.002,-0.0106 c -0.009,-0.0369 -0.0338,-0.13698 -0.0725,-0.27363 l -0.002,-0.006 c -0.0532,-0.18828 -0.0943,-0.306 -0.10831,-0.34938 l -0.004,-0.0106 -0.003,-0.01 c -0.0115,-0.0347 -0.0392,-0.12406 -0.0904,-0.26712 l -0.009,-0.0244 -0.009,-0.0244 c -3e-5,-10e-5 -0.0267,-0.0731 -0.0578,-0.15392 l -0.002,-0.004 c -0.0746,-0.19492 -0.13166,-0.31944 -0.15881,-0.38114 l -0.002,-0.005 c -0.0235,-0.0538 -0.0653,-0.15275 -0.13518,-0.29888 l -0.005,-0.0114 -0.006,-0.0114 c -0.0189,-0.0387 -0.0421,-0.0853 -0.0684,-0.13763 l -0.002,-0.006 c -0.0805,-0.15991 -0.14712,-0.2783 -0.19057,-0.3559 l -8.1e-4,-8.1e-4 c -0.0245,-0.0439 -0.0817,-0.14841 -0.1637,-0.28503 l -0.006,-0.009 c -0.0738,-0.12281 -0.11319,-0.18107 -0.0961,-0.15392 l -0.005,-0.007 -0.004,-0.008 c -0.0796,-0.12491 -0.14885,-0.22497 -0.20441,-0.3054 l -0.002,-0.005 c -0.0257,-0.0375 -0.0929,-0.13958 -0.21093,-0.29726 v -8.1e-4 c -0.12033,-0.1608 -0.17158,-0.21815 -0.13763,-0.17509 l 0.0171,0.0228 c -0.0978,-0.12624 -0.17496,-0.21738 -0.22559,-0.27771 l -0.004,-0.005 -0.004,-0.005 c -0.0164,-0.0194 -0.0908,-0.11262 -0.2264,-0.26142 -0.12696,-0.13948 -0.2059,-0.21637 -0.18894,-0.19871 l -0.01,-0.01 -0.01,-0.0106 c 0.16899,0.17294 0.14053,0.13319 -0.0994,-0.10669 -0.2402,-0.24023 -0.28017,-0.26893 -0.10669,-0.0993 l -0.0106,-0.01 -0.01,-0.01 c 0.0174,0.0168 -0.0542,-0.0592 -0.20767,-0.1979 -0.13943,-0.12635 -0.23373,-0.20159 -0.25246,-0.21744 l -0.006,-0.005 -0.005,-0.004 c -0.0794,-0.0666 -0.16197,-0.13407 -0.24758,-0.20197 l -0.003,-0.003 -0.004,-0.002 c 0.0426,0.0336 -0.0135,-0.0176 -0.17753,-0.14007 l -0.003,-0.002 -0.002,-0.002 c -0.15641,-0.11622 -0.25173,-0.17785 -0.27934,-0.19708 l -0.005,-0.004 -0.005,-0.003 c -0.0791,-0.0547 -0.18177,-0.12497 -0.31028,-0.20685 l -0.0114,-0.007 -0.0114,-0.007 c 0.0148,0.009 -0.0258,-0.0175 -0.12379,-0.0774 l -0.003,-0.002 -0.002,-0.002 c -0.14867,-0.0905 -0.25478,-0.14758 -0.31273,-0.17998 l -0.003,-0.002 -0.004,-0.002 c -0.0829,-0.0461 -0.1915,-0.10516 -0.31843,-0.1702 l -0.0106,-0.006 c -0.0736,-0.0378 -0.13106,-0.0659 -0.16287,-0.0814 l -0.003,-0.002 -0.003,-0.002 c -0.17222,-0.0834 -0.27516,-0.12496 -0.30377,-0.13764 l -0.005,-0.003 -0.006,-0.002 c -0.004,-0.002 -0.0149,-0.006 -0.0187,-0.008 l -0.0619,-0.0643 -0.78426,-0.25735 c -4.2e-4,-1.7e-4 -0.002,-8.1e-4 -0.003,-8.1e-4 -0.0635,-0.0209 -0.1837,-0.0628 -0.36567,-0.11402 l -0.003,-8.1e-4 c -0.14289,-0.0402 -0.23218,-0.0611 -0.26386,-0.0692 l -0.005,-8.2e-4 -0.004,-0.002 c 0.21075,0.0531 0.16345,0.0354 -0.11727,-0.0318 l -0.002,-8.1e-4 c -0.22702,-0.0541 -0.29792,-0.0636 -0.19546,-0.0407 l -0.0228,-0.005 -0.022,-0.005 c -0.0448,-0.009 -0.12569,-0.0271 -0.24513,-0.0489 h -0.002 l -8.1e-4,-8.1e-4 c 0.0168,0.003 -0.0492,-0.0112 -0.1979,-0.035 -0.12135,-0.0196 -0.25343,-0.0339 -0.38276,-0.0497 l -0.12705,-0.022 -0.15636,-0.0122 c -0.13567,-0.0106 -0.15497,-0.0111 -0.0619,-0.003 l -0.006,-8.2e-4 -0.005,-8.1e-4 c -0.096,-0.008 -0.16535,-0.0117 -0.21744,-0.0147 -0.17168,-0.0107 -0.34051,-0.0156 -0.50656,-0.0163 -0.0373,-2.7e-4 -0.0726,-8.1e-4 -0.0945,-8.1e-4 z m -2.15489,0.26061 0.0358,0.0179 c -0.0605,0.016 -0.0645,0.0172 -0.12867,0.0342 z m -122.96275,36.31948 c -4.35777,0.044 -8.73204,1.75077 -12.09048,5.1095 l -32.109883,32.10907 -2.790925,-4.49219 c -0.603064,-1.48 -3.594976,-9.87566 -4.327685,-11.40883 -0.724711,-1.54263 -1.550545,-3.06499 -2.480639,-4.53698 -0.92791,-1.47708 -1.92488,-2.82631 -2.97661,-4.04265 -1.0561,-1.20906 -2.17408,-2.27462 -3.34308,-3.19161 -1.17628,-0.90533 -2.40723,-1.65463 -3.67454,-2.23876 -1.28334,-0.5703 -2.60275,-0.97459 -3.94655,-1.20693 -1.35764,-0.21632 -2.73997,-0.2606 -4.12164,-0.12949 -1.39916,0.14639 -2.79505,0.46528 -4.16725,0.95691 -1.38604,0.50401 -2.742,1.17649 -4.04428,2.01481 -1.30884,0.84561 -2.55743,1.85113 -3.71689,3.00999 -0.1056,0.1049 -0.20493,0.21466 -0.30702,0.32088 -0.10777,0.10417 -0.21927,0.20646 -0.32495,0.31272 -0.21705,0.21705 -0.42413,0.43859 -0.62952,0.66292 -0.22361,0.20538 -0.44603,0.41322 -0.66373,0.63034 -0.10852,0.1078 -0.20772,0.21825 -0.31273,0.32738 -0.10633,0.10198 -0.21599,0.20133 -0.32087,0.30622 -1.15953,1.15952 -2.16207,2.40492 -3.00185,3.70793 -0.83322,1.29791 -1.49721,2.64618 -1.98956,4.01984 -0.48071,1.36201 -0.78672,2.74422 -0.91783,4.12734 -0.11435,1.36711 -0.0536,2.73002 0.18161,4.06871 0.2542,1.32122 0.67929,2.62291 1.2729,3.88221 0.60743,1.24401 1.38214,2.44956 2.31369,3.59962 0.94249,1.1435 2.03632,2.23331 3.27305,3.26246 1.24328,1.02332 2.6251,1.98997 4.1306,2.88946 1.5033,0.899511 3.05398,1.696303 4.62575,2.391877 1.56011,0.705033 10.09889,3.553756 11.6051,4.130601 l 4.58177,2.699713 -32.60992,32.610741 c -6.71752,6.71752 -6.82629,17.4981 -0.2435,24.0816 l 30.85002,30.8492 0.17916,-0.1132 0.23455,-0.36892 3.35856,-5.94914 c 0.5295,-1.5958 3.05088,-10.69336 3.72096,-12.33724 0.65769,-1.65261 1.432489,-3.27369 2.328347,-4.83016 0.892227,-1.55939 1.874987,-2.97357 2.931815,-4.22996 1.062652,-1.24838 2.209806,-2.33166 3.426151,-3.2421 1.227259,-0.89658 2.531177,-1.61316 3.889541,-2.14267 1.378758,-0.51203 2.816658,-0.83587 4.295928,-0.96261 1.4982,-0.10852 3.0394,-0.0214 4.59806,0.25979 1.57978,0.30299 3.17254,0.79602 4.75524,1.48138 1.6009,0.69922 3.18358,1.58512 4.72185,2.64922 1.54773,1.07505 3.04239,2.32237 4.45391,3.73318 0.12746,0.12819 0.24843,0.26046 0.373,0.3901 0.13328,0.126 0.26795,0.25074 0.39905,0.38113 0.26438,0.26366 0.51669,0.53359 0.76797,0.80381 0.27094,0.252 0.54258,0.50603 0.80625,0.77041 0.13037,0.13038 0.25358,0.26414 0.38032,0.39743 0.13037,0.12381 0.2611,0.2448 0.38928,0.37299 1.41081,1.41153 2.65403,2.90279 3.72178,4.44251 1.06047,1.53462 1.93615,3.10701 2.62153,4.69335 0.6708,1.56959 1.14992,3.14771 1.43252,4.70638 0.26293,1.53972 0.32801,3.05882 0.19545,4.53372 -0.15296,1.45378 -0.50127,2.86657 -1.04242,4.21693 -0.55645,1.33142 -1.30361,2.60483 -2.23225,3.80077 -0.94102,1.18503 -2.05811,2.29756 -3.34146,3.32598 -1.29063,1.0226 -2.74002,1.9695 -4.33583,2.82676 -1.59362,0.85872 -3.25081,1.59666 -4.93766,2.22085 -1.67883,0.63512 -10.94972,2.98325 -12.5783,3.48072 l -6.087589,3.21929 -0.377878,0.2264 -0.109943,0.18324 31.49258,31.49258 c 6.58204,6.58277 17.36407,6.47401 24.0816,-0.2435 l 32.10744,-32.10826 2.79011,4.48812 c 0.60307,1.48 3.59424,9.87575 4.32768,11.40964 0.72471,1.54191 1.55063,3.06427 2.48146,4.53698 0.9279,1.47562 1.92406,2.82687 2.97579,4.04102 1.05683,1.20978 2.17473,2.27762 3.34227,3.19242 1.177,0.90606 2.4073,1.65554 3.67536,2.2404 1.28261,0.57029 2.60275,0.97377 3.94655,1.20611 1.35835,0.21633 2.73996,0.2606 4.12164,0.12949 1.39915,-0.14712 2.79587,-0.46601 4.16806,-0.95691 1.38532,-0.50474 2.7411,-1.17729 4.04265,-2.01562 1.30956,-0.84488 2.55817,-1.84966 3.7177,-3.00918 0.10561,-0.10562 0.20488,-0.21392 0.3054,-0.32169 0.10998,-0.10344 0.22113,-0.20565 0.3282,-0.31273 0.21704,-0.21704 0.42341,-0.43939 0.62952,-0.66372 0.22436,-0.20537 0.44676,-0.41315 0.66374,-0.62953 0.1078,-0.1078 0.20922,-0.21902 0.31191,-0.32902 0.10852,-0.1005 0.2169,-0.19979 0.3225,-0.30539 1.15953,-1.15954 2.16117,-2.40574 3.00022,-3.70875 0.83396,-1.29718 1.49802,-2.64537 1.99038,-4.01903 0.4807,-1.362 0.78671,-2.74495 0.91782,-4.12734 0.11508,-1.36565 0.0537,-2.72928 -0.18161,-4.06871 -0.25347,-1.32267 -0.67857,-2.62127 -1.2729,-3.88058 -0.60817,-1.24402 -1.38132,-2.44982 -2.31287,-3.60206 -0.94103,-1.14058 -2.03723,-2.23168 -3.27468,-3.26083 -1.24256,-1.02333 -2.6234,-1.98907 -4.12816,-2.88784 -1.50403,-0.90023 -3.05543,-1.69639 -4.62575,-2.39268 -1.56156,-0.70505 -10.0997,-3.55458 -11.60591,-4.13142 l -4.57934,-2.69809 32.61156,-32.60829 c 6.7168,-6.7168 6.82628,-17.49882 0.2435,-24.0816 l -30.85083,-30.849207 -0.17754,0.112387 -0.23455,0.369734 -3.35937,5.948326 c -0.52951,1.59653 -3.05152,10.69255 -3.72014,12.33643 -0.65916,1.65406 -1.43339,3.27613 -2.32998,4.8326 -0.89295,1.56012 -1.87499,2.97266 -2.93182,4.22833 -1.06265,1.24911 -2.20908,2.33313 -3.42615,3.2421 -1.22726,0.89731 -2.53053,1.61488 -3.89035,2.14511 -1.37948,0.51057 -2.81666,0.83361 -4.29593,0.9618 -1.4982,0.10852 -3.03949,0.0213 -4.59887,-0.25979 -1.57905,-0.30299 -3.17182,-0.79593 -4.75525,-1.48057 -1.59871,-0.70066 -3.18277,-1.58609 -4.72103,-2.65166 -1.54846,-1.0743 -3.04312,-2.32075 -4.45391,-3.73155 -0.1282,-0.12819 -0.24999,-0.25972 -0.37381,-0.39009 -0.13329,-0.12527 -0.2678,-0.25092 -0.39824,-0.38196 -0.26439,-0.2651 -0.51768,-0.53285 -0.77042,-0.8038 -0.27093,-0.25201 -0.54008,-0.50692 -0.8038,-0.77123 -0.1311,-0.13039 -0.25506,-0.26404 -0.38032,-0.39661 -0.13184,-0.12382 -0.26264,-0.24634 -0.3901,-0.37381 -1.41154,-1.41153 -2.65548,-2.90296 -3.72177,-4.44414 -1.06048,-1.53244 -1.93551,-3.10603 -2.62235,-4.6909 -0.67298,-1.57031 -1.1491,-3.14708 -1.4317,-4.70719 -0.26293,-1.53974 -0.32882,-3.06045 -0.19627,-4.53536 0.15223,-1.45377 0.50036,-2.86576 1.04079,-4.216112 0.55718,-1.332141 1.30525,-2.603455 2.23388,-3.801586 0.94103,-1.183544 2.0582,-2.297473 3.34227,-3.325167 1.28918,-1.023328 2.73921,-1.967133 4.33502,-2.825129 1.59215,-0.860173 3.25099,-1.599748 4.93929,-2.222478 1.67738,-0.63658 10.94737,-2.98334 12.57667,-3.48153 l 6.0884,-3.2193 0.37706,-0.22721 0.10913,-0.18161 -31.49257,-31.49176 c -3.29176,-3.29139 -7.63254,-4.90998 -11.99031,-4.866 z M 78.210158,195.72245 c -2.45059,0 -4.90063,0.92476 -6.75132,2.77545 l -31.45592,31.45593 -4.89369,-4.87903 c -0.90351,-3.25928 -3.50753,-5.96104 -7.00134,-6.78715 -5.09273,-1.20349 -10.28363,2.00106 -11.48945,7.09499 l -9.2800098,39.24804 c -0.0747,0.31606 -0.0799,0.37882 -0.0301,0.15311 l -8.1e-4,0.002 v 0.002 c -0.008,0.0378 -0.0322,0.13651 -0.0627,0.29888 l -8.1e-4,0.002 v 0.002 c -0.0307,0.16423 -0.0482,0.28892 -0.0603,0.37299 v 0.004 l -8.1e-4,0.005 c -0.013,0.0925 -0.0251,0.18657 -0.0358,0.28179 v 0.002 l -8.1e-4,0.002 c -0.003,0.0275 -0.0137,0.11079 -0.0252,0.2435 -0.0149,0.17001 -0.0199,0.29071 -0.0236,0.36241 v 0.007 l -8.2e-4,0.007 c -0.004,0.0886 -0.009,0.20677 -0.01,0.35507 -8.3e-4,0.0684 -0.001,0.13276 -8.1e-4,0.18731 v 0.0155 l 8.1e-4,0.0155 c 0.002,0.11778 0.006,0.22674 0.0106,0.3282 0.005,0.10402 0.0113,0.22419 0.0228,0.36078 v 0.002 0.002 c 0.0118,0.13846 0.0225,0.22356 0.0261,0.2549 0.012,0.10665 0.0258,0.20766 0.0391,0.30133 l 0.002,0.0163 0.002,0.0163 c 0.008,0.0505 0.0221,0.16019 0.0513,0.31924 8.3e-4,0.004 7.9e-4,0.003 0.002,0.006 1.5e-4,8.4e-4 -1.5e-4,8e-4 0,0.002 0.0314,0.17006 0.0572,0.27381 0.0635,0.30296 l 0.003,0.0138 0.003,0.0147 c -0.0542,-0.23898 -0.0461,-0.17001 0.0277,0.14007 0.002,0.009 -0.001,-0.005 8.1e-4,0.004 0.0534,0.22172 0.0787,0.30999 0.0261,0.0953 l 0.003,0.0106 0.003,0.0106 c 0.01,0.0385 0.033,0.13836 0.0749,0.28504 0.0521,0.18359 0.0937,0.30172 0.10751,0.34449 l 0.003,0.01 0.003,0.0106 c 0.0115,0.0347 0.0383,0.12406 0.0896,0.26712 l 0.009,0.0244 0.009,0.0244 c 4e-5,1.1e-4 0.0259,0.0706 0.0668,0.17509 0.0705,0.18203 0.12849,0.31015 0.15392,0.36811 0.0234,0.0537 0.0651,0.1531 0.13519,0.29969 l 0.006,0.0114 0.006,0.0114 c 0.0196,0.0403 0.0431,0.0883 0.0709,0.14334 0.0806,0.16011 0.14799,0.27918 0.19139,0.3567 0.0264,0.0472 0.0822,0.15157 0.17509,0.30459 0.002,0.003 0.002,0.003 0.003,0.006 0.0581,0.0954 0.10163,0.16194 0.0863,0.13763 l 0.005,0.007 0.005,0.007 c 0.0806,0.12652 0.15094,0.22856 0.20685,0.30947 l -0.003,-0.003 c 0.0255,0.037 0.0935,0.14122 0.21745,0.30621 0.11374,0.15144 0.16745,0.21216 0.13437,0.17021 0.0867,0.11077 0.16114,0.19946 0.20767,0.2549 l 0.004,0.005 0.005,0.006 c 0.0153,0.0181 0.0917,0.11293 0.21011,0.24432 0.006,0.006 0.002,0.002 0.007,0.008 0.13916,0.15399 0.21483,0.22533 0.19709,0.20686 l 0.0106,0.0106 0.01,0.01 c -0.169,-0.17294 -0.14053,-0.13239 0.0994,0.1075 0.2375698,0.2375 0.2794598,0.26742 0.10669,0.0985 l 0.01,0.0106 0.0106,0.01 c -0.0174,-0.0168 0.0542,0.0592 0.20767,0.19789 0.006,0.005 0.002,0.002 0.008,0.007 0.1313,0.11835 0.22621,0.19479 0.24432,0.21012 l 0.005,0.004 0.005,0.004 c 0.0794,0.0666 0.16198,0.13488 0.24758,0.20278 l 0.004,0.002 0.003,0.003 c -0.0426,-0.0336 0.0143,0.0176 0.17835,0.14008 l 0.002,0.002 0.002,0.002 c 0.1564,0.11622 0.25253,0.17785 0.28015,0.19708 l 0.005,0.003 0.005,0.004 c 0.0791,0.0547 0.18096,0.12497 0.30947,0.20686 l 0.0114,0.007 0.0114,0.007 c -0.0148,-0.009 0.0258,0.0183 0.12379,0.0782 l 0.003,0.002 0.002,0.002 c 0.14867,0.0905 0.25397,0.14758 0.31191,0.17998 l 0.004,0.003 0.005,0.002 c 0.0829,0.0461 0.1907,0.10598 0.31761,0.17102 0.005,0.003 0.006,0.003 0.0106,0.005 0.005,0.002 0.007,0.004 0.0114,0.007 0.0657,0.0336 0.1219,0.0605 0.15148,0.0749 l 0.004,0.002 0.003,0.002 c 0.17221,0.0834 0.27435,0.12495 0.30296,0.13763 l 0.006,0.002 0.005,0.002 c 0.004,0.002 0.0148,0.006 0.0187,0.008 l 0.0627,0.0651 0.78426,0.25734 h 8.1e-4 c 0.063,0.0207 0.18492,0.0626 0.3673,0.11402 0.14602,0.0411 0.23505,0.0619 0.26712,0.07 l 0.005,0.002 0.005,8.2e-4 c -0.21113,-0.0532 -0.16482,-0.0349 0.11727,0.0326 0.23189,0.0554 0.29964,0.0647 0.19627,0.0415 l 0.0228,0.005 0.0228,0.005 c 0.0448,0.009 0.1257,0.0271 0.24513,0.0489 h 8.2e-4 0.002 c -0.0161,-0.003 0.0538,0.0121 0.18976,0.0342 0.1266,0.0206 0.26455,0.0357 0.39986,0.0521 l 0.11728,0.0212 0.10994,0.008 0.0472,0.004 c 0.13567,0.0106 0.15415,0.0111 0.0611,0.003 l 0.006,8.1e-4 h 0.006 c 0.0957,0.008 0.16456,0.0117 0.21662,0.0147 0.003,1.7e-4 0.005,-1.7e-4 0.008,0 0.002,1.1e-4 0.006,8.1e-4 0.008,8.1e-4 0.16603,0.0101 0.33036,0.0156 0.49108,0.0163 0.0372,2.7e-4 0.0726,0 0.0945,0 h 0.01 0.01 c 0.37592,-0.002 0.75108,-0.0266 1.12387,-0.0733 0.0249,-0.003 0.0501,-0.006 0.0831,-0.0106 l 0.0114,-8.1e-4 0.0114,-0.002 c 0.15465,-0.0212 0.307,-0.0459 0.45525,-0.0733 0.0654,-0.0119 0.11853,-0.0229 0.13437,-0.0261 l 0.005,-8.1e-4 0.005,-8.2e-4 c 0.0675,-0.0135 0.17337,-0.0344 0.30947,-0.0668 h 8.2e-4 c 0.003,-8.3e-4 0.004,-7.9e-4 0.007,-0.002 l 0.003,-8.1e-4 39.23745,-9.27756 c 1.77459,-0.41997 3.34063,-1.32582 4.55083,-2.53602 2.26303,-2.26304 3.32882,-5.63456 2.54335,-8.95425 -0.81763,-3.45733 -3.47325,-6.03992 -6.68698,-6.96876 l -4.95884,-4.94337 31.43638,-31.43638 c 3.701188,-3.70119 3.701519,-9.80275 0,-13.50427 -1.85216,-1.85221 -4.30317,-2.77708 -6.75376,-2.77708 z m -59.27885,80.34149 -0.0945,0.0529 -0.0358,-0.0179 c 0.0613,-0.0162 0.0653,-0.0178 0.1303,-0.035 z" />
</svg>
