<?xml version="1.0" encoding="utf-8"?>
<!-- Generator: Adobe Illustrator 15.1.0, SVG Export Plug-In . SVG Version: 6.00 Build 0)  -->
<!DOCTYPE svg PUBLIC "-//W3C//DTD SVG 1.1//EN" "http://www.w3.org/Graphics/SVG/1.1/DTD/svg11.dtd">
<svg version="1.1" id="Layer_3" xmlns="http://www.w3.org/2000/svg" xmlns:xlink="http://www.w3.org/1999/xlink" x="0px" y="0px"
	 width="283.46px" height="283.46px" viewBox="0 0 283.46 283.46" enable-background="new 0 0 283.46 283.46" xml:space="preserve">
<g>
	<path fill="none" d="M100.093,115.128c-0.093,0.152-0.192,0.299-0.284,0.452l23.339,23.339c0.031-0.214,0.058-0.429,0.096-0.641
		L100.093,115.128z"/>
	<path fill="none" d="M141.73,122.538c10.367,0,18.805,8.611,18.805,19.19c0,0.569-0.036,1.131-0.084,1.688l23.663,23.663
		c4.291-7.445,6.765-16.106,6.765-25.351c0-27.655-22.049-50.156-49.148-50.156c-9.415,0-18.216,2.721-25.699,7.424l23.66,23.66
		C140.362,122.582,141.041,122.538,141.73,122.538z"/>
	<path fill="none" d="M141.73,191.887c0.757,0,1.509-0.023,2.257-0.059l-51.372-51.372c-0.011,0.424-0.032,0.845-0.032,1.271
		C92.583,169.385,114.628,191.887,141.73,191.887z"/>
	<path fill="none" d="M168.191,183.962c0.148-0.097,0.298-0.192,0.445-0.291l-23.138-23.138c-0.209,0.043-0.426,0.063-0.637,0.1
		L168.191,183.962z"/>
	<path fill="#231F20" d="M100.093,115.128L67.659,82.694c-0.182,0.063-0.366,0.125-0.547,0.189l32.697,32.697
		C99.9,115.427,100,115.28,100.093,115.128z"/>
	<path fill="#231F20" d="M168.191,183.962l23.441,23.441c0.203-0.042,0.404-0.087,0.606-0.13l-23.603-23.603
		C168.489,183.77,168.339,183.866,168.191,183.962z"/>
	<path fill="#231F20" d="M141.73,191.887c-27.102,0-49.147-22.502-49.147-50.159c0-0.426,0.021-0.848,0.032-1.271L44.819,92.661
		c-23.361,12.714-37.735,30.01-37.735,49.068c0,39.041,60.283,70.692,134.646,70.692c7.463,0,14.78-0.324,21.912-0.938
		l-19.655-19.655C143.239,191.864,142.487,191.887,141.73,191.887z"/>
	<path fill="#231F20" d="M276.376,141.732c-0.002-39.041-60.287-70.693-134.646-70.693c-17.233,0-33.708,1.703-48.855,4.801
		l23.156,23.156c7.482-4.704,16.284-7.424,25.699-7.424c27.1,0,49.148,22.501,49.148,50.156c0,9.244-2.474,17.905-6.765,25.351
		l33.171,33.171C252.947,187.533,276.376,166.069,276.376,141.732z"/>
	<path d="M123.244,138.279c1.48-8.268,8.159-14.706,16.447-15.623l-23.66-23.66L92.875,75.84L52.748,35.712L36.712,51.748
		l30.947,30.947l32.434,32.434L123.244,138.279z"/>
	<path d="M160.451,143.416c-0.73,8.506-6.91,15.441-14.952,17.118l23.138,23.138l23.603,23.603l35.474,35.474l16.035-16.035
		l-26.463-26.463l-33.171-33.171L160.451,143.416z"/>
	<path fill="#231F20" d="M141.73,122.538c-0.689,0-1.368,0.044-2.039,0.118c-8.288,0.917-14.967,7.355-16.447,15.623
		c-0.038,0.211-0.065,0.427-0.096,0.641c-0.133,0.919-0.225,1.852-0.225,2.809c0,10.581,8.438,19.193,18.807,19.193
		c1.069,0,2.11-0.112,3.132-0.288c0.211-0.037,0.428-0.057,0.637-0.1c8.042-1.677,14.222-8.612,14.952-17.118
		c0.048-0.557,0.084-1.118,0.084-1.688C160.535,131.149,152.097,122.538,141.73,122.538z"/>
</g>
</svg>
