<?xml version="1.0" encoding="UTF-8" standalone="no"?>
<!-- Generator: Adobe Illustrator 15.1.0, SVG Export Plug-In . SVG Version: 6.00 Build 0)  -->

<svg
   version="1.1"
   id="Layer_1"
   x="0px"
   y="0px"
   width="283.465px"
   height="283.465px"
   viewBox="1108.268 1108.268 283.465 283.465"
   enable-background="new 1108.268 1108.268 283.465 283.465"
   xml:space="preserve"
   sodipodi:docname="file-backup.svg"
   inkscape:version="1.2.2 (b0a8486541, 2022-12-01)"
   xmlns:inkscape="http://www.inkscape.org/namespaces/inkscape"
   xmlns:sodipodi="http://sodipodi.sourceforge.net/DTD/sodipodi-0.dtd"
   xmlns="http://www.w3.org/2000/svg"
   xmlns:svg="http://www.w3.org/2000/svg"><path
   id="path536"
   d="M 1130.1127 149.36028 C 1125.1397 149.36028 1121.1129 153.39385 1121.1129 158.36484 L 1121.1129 409.65123 C 1121.1129 414.62123 1125.1397 418.65105 1130.1127 418.65105 L 1323.7584 418.65105 C 1328.7314 418.65105 1332.7582 414.62123 1332.7582 409.65123 L 1332.7582 209.42084 C 1332.7582 207.03384 1331.8091 204.74188 1330.1291 203.05488 L 1279.0684 151.99889 C 1277.3744 150.31189 1275.0857 149.36028 1272.6977 149.36028 L 1130.1127 149.36028 z M 1274.742 164.03192 L 1320.0453 207.27667 L 1274.8181 207.27667 L 1274.742 164.03192 z M 1418.3111 252.30426 A 12.517223 10.302514 0 0 0 1405.7076 262.53542 A 12.517223 10.302514 0 0 0 1418.1352 272.90922 L 1540.8379 273.6081 C 1554.8305 273.68834 1560.0994 274.25408 1561.5047 274.85371 C 1563.8403 275.84977 1565.7313 277.44074 1566.9198 279.39403 C 1567.6334 280.56675 1568.2436 284.88433 1568.1464 296.42379 L 1567.6805 351.9155 L 1526.7463 317.7609 A 12.517223 10.302514 0 0 0 1509.0509 317.65631 A 12.517223 10.302514 0 0 0 1508.9273 332.22812 L 1571.075 384.09709 A 12.517223 10.302514 0 0 0 1579.8989 387.16359 A 12.517223 10.302514 0 0 0 1588.7751 384.19693 L 1651.7928 333.04109 A 12.517223 10.302514 0 0 0 1655.5202 325.77659 A 12.517223 10.302514 0 0 0 1651.9164 318.47404 A 12.517223 10.302514 0 0 0 1634.2163 318.3742 L 1592.7164 352.06764 L 1593.1776 296.57117 C 1593.2746 285.03159 1593.991 277.83901 1589.3218 270.16601 C 1585.7757 264.33837 1580.0572 259.5574 1573.0052 256.54981 C 1563.7488 252.60065 1555.0018 253.08774 1541.0091 253.00789 L 1418.3111 252.30426 z M 1433.791 446.88184 C 1428.818 446.88184 1424.7912 450.91541 1424.7912 455.88641 L 1424.7912 707.1728 C 1424.7912 712.14279 1428.818 716.17261 1433.791 716.17261 L 1627.4367 716.17261 C 1632.4097 716.17261 1636.4366 712.14279 1636.4366 707.1728 L 1636.4366 506.9424 C 1636.4366 504.5554 1635.4875 502.26345 1633.8075 500.57645 L 1582.7467 449.52045 C 1581.0527 447.83346 1578.764 446.88184 1576.376 446.88184 L 1433.791 446.88184 z M 1578.4203 461.55348 L 1623.7237 504.79823 L 1578.4964 504.79823 L 1578.4203 461.55348 z M 1177.6505 514.10232 A 12.517223 10.302514 0 0 0 1168.7743 517.06897 L 1105.7566 568.22005 A 12.517223 10.302514 0 0 0 1102.0245 575.48456 A 12.517223 10.302514 0 0 0 1105.633 582.7871 A 12.517223 10.302514 0 0 0 1123.3283 582.88694 L 1164.8378 549.19826 L 1164.3671 604.69473 C 1164.27 616.23419 1163.5583 623.42677 1168.2276 631.09989 C 1171.7736 636.92741 1177.4874 641.70863 1184.5394 644.71609 C 1193.7958 648.66525 1202.5478 648.17327 1216.5404 648.25326 L 1339.243 648.95689 A 12.517223 10.302514 0 0 0 1351.8466 638.73048 A 12.517223 10.302514 0 0 0 1339.4142 628.35193 L 1216.7163 627.6483 C 1202.7235 627.56805 1197.4453 627.00706 1196.04 626.40744 C 1193.7044 625.41138 1191.8135 623.82041 1190.6249 621.86712 C 1189.9114 620.69439 1189.3057 616.37681 1189.403 604.83736 L 1189.869 549.34089 L 1230.8031 583.505 A 12.517223 10.302514 0 0 0 1248.5032 583.60484 A 12.517223 10.302514 0 0 0 1248.6269 569.03779 L 1186.4744 517.16881 A 12.517223 10.302514 0 0 0 1177.6505 514.10232 z "
   transform="matrix(0.41081581,0,0,0.41081581,674.98813,1079.4475)" /><defs
   id="defs7789" /><sodipodi:namedview
   id="namedview7787"
   pagecolor="#ffffff"
   bordercolor="#000000"
   borderopacity="0.25"
   inkscape:showpageshadow="2"
   inkscape:pageopacity="0.0"
   inkscape:pagecheckerboard="0"
   inkscape:deskcolor="#d1d1d1"
   showgrid="false"
   inkscape:zoom="1.047695"
   inkscape:cx="-199.96278"
   inkscape:cy="301.6145"
   inkscape:window-width="1920"
   inkscape:window-height="1015"
   inkscape:window-x="0"
   inkscape:window-y="0"
   inkscape:window-maximized="1"
   inkscape:current-layer="Layer_1" />

</svg>
