<?xml version="1.0" encoding="UTF-8" standalone="no"?>
<!-- Generator: Adobe Illustrator 15.1.0, SVG Export Plug-In . SVG Version: 6.00 Build 0)  -->

<svg
   version="1.1"
   id="Layer_4"
   x="0px"
   y="0px"
   width="283.46px"
   height="283.46px"
   viewBox="0 0 283.46 283.46"
   enable-background="new 0 0 283.46 283.46"
   xml:space="preserve"
   sodipodi:docname="flow-chart.svg"
   inkscape:version="1.2.2 (b0a8486541, 2022-12-01)"
   xmlns:inkscape="http://www.inkscape.org/namespaces/inkscape"
   xmlns:sodipodi="http://sodipodi.sourceforge.net/DTD/sodipodi-0.dtd"
   xmlns="http://www.w3.org/2000/svg"
   xmlns:svg="http://www.w3.org/2000/svg"><defs
   id="defs7" /><sodipodi:namedview
   id="namedview5"
   pagecolor="#ffffff"
   bordercolor="#000000"
   borderopacity="0.25"
   inkscape:showpageshadow="2"
   inkscape:pageopacity="0.0"
   inkscape:pagecheckerboard="0"
   inkscape:deskcolor="#d1d1d1"
   showgrid="false"
   inkscape:zoom="1.0477135"
   inkscape:cx="100.69547"
   inkscape:cy="196.61864"
   inkscape:window-width="1400"
   inkscape:window-height="1043"
   inkscape:window-x="475"
   inkscape:window-y="0"
   inkscape:window-maximized="0"
   inkscape:current-layer="Layer_4" />

<g
   id="g366"><path
     id="path990"
     style="color:#000000;fill:#000000;stroke-width:8.48932;-inkscape-stroke:none"
     d="m 14.383731,7.0834951 c -3.978861,0 -7.300236,3.3213759 -7.3002359,7.3002359 v 33.959397 c -1e-7,3.978859 3.3213749,7.302207 7.3002359,7.302207 H 134.42878 V 75.00229 H 65.323812 c -3.978862,0 -7.302207,3.321376 -7.302207,7.300236 V 117.45006 H 14.383731 c -3.978861,0 -7.300236,3.32138 -7.3002359,7.30024 v 33.9594 c -1e-7,3.97885 3.3213749,7.3022 7.3002359,7.3022 h 43.637874 v 27.84533 H 31.364414 c -3.97886,0 -7.302206,3.32335 -7.302206,7.3022 V 228.989 c -9.827778,3.11988 -16.978713,12.30064 -16.9787129,23.10855 -1e-7,13.35523 10.9345819,24.27895 24.2809189,24.27895 13.346338,0 24.280921,-10.92372 24.280921,-24.27895 0,-10.80801 -7.152766,-19.98875 -16.980685,-23.10855 V 208.45967 H 91.981003 V 228.989 c -9.827779,3.11988 -16.978713,12.30064 -16.978713,23.10855 0,13.35523 10.934785,24.27106 24.278946,24.27106 13.346354,0 24.280924,-10.92568 24.280924,-24.28092 0,-10.80791 -7.15093,-19.98669 -16.97872,-23.10657 v -27.83153 c 0,-3.97888 -3.32333,-7.30024 -7.302204,-7.30024 H 72.624048 V 166.0119 h 43.637882 c 3.97885,0 7.30023,-3.32335 7.30023,-7.3022 v -33.9594 c 0,-3.97886 -3.32138,-7.30024 -7.30023,-7.30024 H 72.624048 V 89.602761 H 210.83791 v 27.847299 h -43.63788 c -3.97885,0 -7.3022,3.32138 -7.3022,7.30024 v 33.9594 c 0,3.97885 3.32335,7.3022 7.3022,7.3022 h 43.57681 v 27.84533 h -26.59809 c -3.97886,0 -7.30024,3.32335 -7.30024,7.3022 V 228.989 c -9.82777,3.11988 -16.98068,12.30064 -16.98068,23.10855 0,13.34851 10.9324,24.27895 24.28092,24.27895 13.34634,0 24.28092,-10.92372 24.28092,-24.27895 0,-10.80791 -7.15093,-19.98867 -16.97872,-23.10855 v -20.52933 h 53.31439 V 228.989 c -9.82777,3.11988 -16.97871,12.30064 -16.97871,23.10855 0,13.34634 10.92568,24.27895 24.28092,24.27895 13.35306,0 24.27895,-10.92903 24.27895,-24.28881 0,-10.80791 -7.15094,-19.9867 -16.97872,-23.10657 v -27.83153 c 0,-3.97888 -3.32137,-7.30024 -7.30023,-7.30024 H 225.38716 V 166.0119 h 43.6891 c 3.97885,0 7.30024,-3.32335 7.30024,-7.3022 v -33.9594 c 0,-3.97886 -3.32139,-7.30024 -7.30024,-7.30024 H 225.43839 V 82.302526 c 0,-3.97886 -3.32138,-7.300236 -7.30024,-7.300236 H 149.03122 V 55.645335 h 120.04504 c 3.97885,0 7.30024,-3.323348 7.30024,-7.302207 V 14.383731 c 0,-3.97886 -3.32139,-7.300236 -7.30024,-7.3002359 z M 21.685937,21.685937 H 261.77602 V 41.042892 H 21.685937 Z m 0,110.366573 h 87.273783 v 19.35695 H 65.552375 65.093278 21.685937 Z m 152.814333,0 h 87.27575 v 19.35695 H 218.3076 217.8485 174.50027 Z M 31.364414,242.41907 c 5.370818,0 9.678478,4.30766 9.678478,9.67848 0,5.37081 -4.30766,9.67847 -9.678478,9.67847 -5.373948,0 -9.678477,-4.29662 -9.678477,-9.67847 0,-5.38186 4.304529,-9.67848 9.678477,-9.67848 z m 67.916822,0 c 5.373944,0 9.678484,4.29662 9.678484,9.67848 0,5.38185 -4.30454,9.67847 -9.678484,9.67847 -5.373946,0 -9.678475,-4.29662 -9.678475,-9.67847 0,-5.38186 4.304529,-9.67848 9.678475,-9.67848 z m 84.897514,0 c 5.37394,0 9.67848,4.29662 9.67848,9.67848 0,5.38498 -4.2935,9.67847 -9.67848,9.67847 -5.38498,0 -9.67848,-4.29349 -9.67848,-9.67847 0,-5.38186 4.30454,-9.67848 9.67848,-9.67848 z m 67.9188,0 c 5.37393,0 9.67847,4.29662 9.67847,9.67848 0,5.38498 -4.2935,9.67847 -9.67847,9.67847 -5.385,0 -9.67848,-4.29349 -9.67848,-9.67847 0,-5.38186 4.30452,-9.67848 9.67848,-9.67848 z" /><path
     id="rect285"
     style="display:inline;fill-rule:evenodd;stroke-width:0.768;stroke-linejoin:round;paint-order:markers fill stroke"
     d="m 14.658203,17.058594 v 29.8125 H 267.73242 v -29.8125 z M 170.44141,124.29883 v 31.08203 H 274.9375 v -31.08203 z m -157.589848,3.0039 v 25.10938 H 120.9043 v -25.10938 z m 19.447266,108.00196 a 13.577773,15.234824 0 0 0 -13.578125,15.23633 13.577773,15.234824 0 0 0 13.578125,15.23437 13.577773,15.234824 0 0 0 13.578125,-15.23437 13.577773,15.234824 0 0 0 -13.578125,-15.23633 z m 152.470702,1.55273 a 16.125698,15.781756 0 0 0 -16.125,15.78125 16.125698,15.781756 0 0 0 16.125,15.78321 16.125698,15.781756 0 0 0 16.125,-15.78321 16.125698,15.781756 0 0 0 -16.125,-15.78125 z m 67.72266,2.25781 a 11.816183,15.89419 0 0 0 -11.81641,15.89454 11.816183,15.89419 0 0 0 11.81641,15.89453 11.816183,15.89419 0 0 0 11.8164,-15.89453 11.816183,15.89419 0 0 0 -11.8164,-15.89454 z m -151.86328,0.31055 a 12.710086,13.200336 0 0 0 -12.710941,13.20117 12.710086,13.200336 0 0 0 12.710941,13.19922 12.710086,13.200336 0 0 0 12.70898,-13.19922 12.710086,13.200336 0 0 0 -12.70898,-13.20117 z" /></g></svg>
