<?xml version="1.0" encoding="UTF-8" standalone="no"?>
<!-- Generator: Adobe Illustrator 15.1.0, SVG Export Plug-In . SVG Version: 6.00 Build 0)  -->

<svg
   version="1.1"
   id="Layer_4"
   x="0px"
   y="0px"
   width="283.46px"
   height="283.46px"
   viewBox="0 0 283.46 283.46"
   enable-background="new 0 0 283.46 283.46"
   xml:space="preserve"
   sodipodi:docname="flow-data.svg"
   inkscape:version="1.2.2 (b0a8486541, 2022-12-01)"
   xmlns:inkscape="http://www.inkscape.org/namespaces/inkscape"
   xmlns:sodipodi="http://sodipodi.sourceforge.net/DTD/sodipodi-0.dtd"
   xmlns="http://www.w3.org/2000/svg"
   xmlns:svg="http://www.w3.org/2000/svg"><defs
   id="defs7" /><sodipodi:namedview
   id="namedview5"
   pagecolor="#ffffff"
   bordercolor="#000000"
   borderopacity="0.25"
   inkscape:showpageshadow="2"
   inkscape:pageopacity="0.0"
   inkscape:pagecheckerboard="0"
   inkscape:deskcolor="#d1d1d1"
   showgrid="false"
   inkscape:zoom="1.4816906"
   inkscape:cx="-79.976211"
   inkscape:cy="138.01802"
   inkscape:window-width="1920"
   inkscape:window-height="1052"
   inkscape:window-x="1920"
   inkscape:window-y="0"
   inkscape:window-maximized="1"
   inkscape:current-layer="Layer_4" />

<g
   id="g262"
   style="fill:#000000"
   transform="matrix(2.7163242,0,0,2.7163242,7.0854337,7.0860435)">
		<path
   d="m 2.819,37.569 h 30.5 c 0.829,0 1.5,-0.672 1.5,-1.5 v -30.5 c 0,-0.828 -0.671,-1.5 -1.5,-1.5 h -30.5 c -0.829,0 -1.5,0.672 -1.5,1.5 v 30.5 c 0,0.828 0.671,1.5 1.5,1.5 z m 25.75,-30.75 c 1.036,0 1.875,0.84 1.875,1.875 0,1.035 -0.839,1.875 -1.875,1.875 -1.036,0 -1.875,-0.84 -1.875,-1.875 0,-1.035 0.839,-1.875 1.875,-1.875 z m -7.125,0 c 1.036,0 1.875,0.84 1.875,1.875 0,1.035 -0.839,1.875 -1.875,1.875 -1.036,0 -1.875,-0.84 -1.875,-1.875 0,-1.035 0.839,-1.875 1.875,-1.875 z m -17.125,6.5 h 27.5 v 21.25 h -27.5 z"
   id="path236" />
		<path
   d="m 13.271,18.985 -7.08,3.647 C 5.98,22.741 5.845,22.959 5.845,23.197 v 0.823 c 0,0.238 0.134,0.456 0.346,0.565 l 7.08,3.647 c 0.092,0.047 0.191,0.07 0.292,0.07 0.114,0 0.229,-0.03 0.331,-0.093 0.188,-0.115 0.305,-0.321 0.305,-0.543 v -1.053 c 0,-0.24 -0.136,-0.461 -0.352,-0.568 l -4.861,-2.438 4.861,-2.438 c 0.216,-0.107 0.352,-0.328 0.352,-0.568 v -1.053 c 0,-0.222 -0.116,-0.428 -0.305,-0.543 -0.189,-0.113 -0.426,-0.121 -0.623,-0.02 z"
   id="path238" />
		<path
   d="m 20.855,16.58 h -1.038 c -0.264,0 -0.499,0.162 -0.595,0.407 L 14.965,28.05 c -0.075,0.195 -0.049,0.416 0.069,0.589 0.118,0.173 0.314,0.275 0.524,0.275 h 1.021 c 0.263,0 0.499,-0.161 0.593,-0.406 l 4.273,-11.063 c 0.076,-0.196 0.05,-0.416 -0.069,-0.589 C 21.26,16.682 21.065,16.58 20.855,16.58 Z"
   id="path240" />
		<path
   d="m 30.189,22.615 -7.08,-3.631 c -0.199,-0.102 -0.434,-0.092 -0.622,0.023 -0.189,0.115 -0.306,0.321 -0.306,0.543 v 1.053 c 0,0.241 0.138,0.462 0.354,0.569 l 4.896,2.438 -4.896,2.437 c -0.216,0.107 -0.354,0.328 -0.354,0.569 v 1.053 c 0,0.222 0.115,0.428 0.306,0.543 0.102,0.062 0.216,0.093 0.332,0.093 0.1,0 0.199,-0.022 0.291,-0.069 l 7.08,-3.632 c 0.212,-0.109 0.346,-0.328 0.346,-0.566 v -0.854 c -0.001,-0.241 -0.135,-0.459 -0.347,-0.569 z"
   id="path242" />
		<path
   d="m 63.971,37.569 h 30.5 c 0.829,0 1.5,-0.672 1.5,-1.5 v -30.5 c 0,-0.828 -0.671,-1.5 -1.5,-1.5 h -30.5 c -0.828,0 -1.5,0.672 -1.5,1.5 v 30.5 c 0,0.828 0.673,1.5 1.5,1.5 z m 25.75,-30.75 c 1.036,0 1.875,0.84 1.875,1.875 0,1.035 -0.839,1.875 -1.875,1.875 -1.035,0 -1.875,-0.84 -1.875,-1.875 0,-1.035 0.841,-1.875 1.875,-1.875 z m -7.125,0 c 1.036,0 1.875,0.84 1.875,1.875 0,1.035 -0.839,1.875 -1.875,1.875 -1.035,0 -1.875,-0.84 -1.875,-1.875 0,-1.035 0.841,-1.875 1.875,-1.875 z m -17.125,6.5 h 27.5 v 21.25 h -27.5 z"
   id="path244" />
		<path
   d="m 85.356,22.801 -7.813,-6.205 c -0.472,-0.372 -1.117,-0.447 -1.659,-0.184 -0.542,0.261 -0.888,0.811 -0.888,1.414 v 12.409 c 0,0.604 0.345,1.153 0.888,1.414 0.217,0.106 0.45,0.156 0.683,0.156 0.349,0 0.693,-0.114 0.978,-0.339 l 7.813,-6.206 c 0.375,-0.298 0.594,-0.751 0.594,-1.229 -0.003,-0.479 -0.221,-0.93 -0.596,-1.23 z"
   id="path246" />
		<path
   id="path248"
   d="m 22.640316,58.936916 c -0.97729,-0.03852 -1.956749,0.559653 -2.304498,1.501339 l -0.708966,1.921974 c -1.399999,-0.152 -2.831202,-0.103937 -4.250201,0.161063 L 14.52316,60.666908 c -0.533999,-1.159999 -1.911269,-1.668071 -3.070268,-1.136072 l -2.3541121,1.084301 c -1.1579988,0.534 -1.6669135,1.91055 -1.133914,3.069549 l 0.8549295,1.856542 C 7.6957965,66.448227 6.7303177,67.504144 5.9343185,68.666143 L 4.0137831,67.957177 c -1.1569989,-0.43 -2.5459183,0.2086 -2.9739179,1.367599 l -0.8959143,2.431049 c -0.21499979,0.581999 -0.18869167,1.208977 0.0683081,1.770976 0.25999974,0.561 0.72301108,0.989504 1.3000105,1.201503 l 1.9219735,0.709685 c -0.1509999,1.398999 -0.1029365,2.829921 0.1610632,4.25092 l -1.8551035,0.85421 c -1.15899878,0.534 -1.66691343,1.911831 -1.13391397,3.06883 l 1.08142467,2.356269 c 0.5329994,1.157999 1.9105503,1.665476 3.0695491,1.132476 l 1.8565416,-0.854929 c 0.9079991,1.124999 1.9623538,2.091915 3.1263527,2.886915 l -0.7089659,1.920535 c -0.2149998,0.579999 -0.1914107,1.206977 0.067589,1.770977 0.2579997,0.561999 0.7200111,0.988941 1.3000101,1.202941 l 2.43033,0.896633 c 0.578999,0.213 1.207977,0.189411 1.770976,-0.06759 0.562,-0.26 0.987785,-0.723449 1.200785,-1.301448 l 0.710404,-1.921974 c 1.399998,0.151 2.82992,0.104218 4.250919,-0.161782 l 0.853491,1.855822 c 0.534,1.158999 1.91227,1.668071 3.070268,1.136071 l 2.354112,-1.085738 c 1.158999,-0.533 1.666914,-1.909832 1.133914,-3.06883 l -0.85421,-1.856542 c 1.123999,-0.907999 2.090478,-1.961916 2.885477,-3.124915 l 1.921973,0.710404 c 0.58,0.216 1.208978,0.188973 1.770977,-0.06903 0.561999,-0.258 0.986941,-0.722292 1.202941,-1.299291 l 0.895914,-2.431768 c 0.441,-1.197999 -0.173038,-2.530918 -1.369037,-2.973918 L 32.70605,78.554276 c 0.151,-1.399999 0.103218,-2.829202 -0.161782,-4.250201 l 1.855823,-0.854929 c 1.158998,-0.533 1.667194,-1.91027 1.133195,-3.070268 l -1.083582,-2.351955 c -0.534,-1.158999 -1.910831,-1.667633 -3.06883,-1.134633 l -1.855823,0.854929 C 28.617052,66.62222 27.563135,65.656303 26.400137,64.860304 l 0.708965,-1.921254 c 0.44,-1.195999 -0.173038,-2.530919 -1.369037,-2.973918 l -2.431049,-0.895914 c -0.217499,-0.08025 -0.443171,-0.123413 -0.6687,-0.132302 z M 18.20173,69.037163 c 2.961084,0.05103 5.775788,1.759165 7.097568,4.62985 1.837998,3.992996 0.09368,8.720711 -3.899312,10.559709 -3.992996,1.838998 -8.72115,0.09412 -10.561148,-3.897875 -1.8389979,-3.993996 -0.09296,-8.722149 3.900032,-10.561147 1.12303,-0.517218 2.304174,-0.750504 3.46286,-0.730537 z m -0.133021,3.297483 c -2.574998,0 -4.668678,2.094679 -4.668678,4.668677 0,2.573997 2.09468,4.669396 4.668678,4.669396 2.573997,0 4.669396,-2.095399 4.669396,-4.669396 0,-2.573998 -2.094399,-4.668677 -4.669396,-4.668677 z m 0,1.588342 c 1.697998,0 3.080334,1.383336 3.080334,3.080335 0,1.696998 -1.381336,3.079615 -3.080334,3.079615 -1.697999,0 -3.079616,-1.382617 -3.079616,-3.079615 0,-1.696999 1.381617,-3.080335 3.079616,-3.080335 z" />
		
		<path
   d="m 91.804,72.128 v 7.297 c 0,0.869 -0.558,1.602 -1.333,1.877 v -22.09 h -20 v 22.09 C 69.697,81.027 69.138,80.294 69.138,79.425 V 72.128 H 61.804 V 94.796 H 99.138 V 72.128 Z m -3.333,9.295 h -16 V 61.212 h 16 z"
   id="path252" />
		<polygon
   points="73.018,76.411 74.925,77.011 76.374,72.396 79.881,76.656 82.061,69.574 84.461,70.946 87.585,65.591 85.859,64.583 83.733,68.226 80.883,66.597 79.063,72.515 75.571,68.275 "
   id="polygon254" />
		<path
   id="rect256"
   d="m 77.721001,40.231998 h 3 v 16.333001 h -3 z" />
		<path
   id="rect258"
   d="m 16.707001,40.231998 h 3 v 16.333001 h -3 z" />
		<path
   id="rect260"
   d="m 37.555,21.247 h 22.5 v 3 h -22.5 z" />
	</g></svg>
