<?xml version="1.0" encoding="UTF-8" standalone="no"?>
<!-- Generator: Adobe Illustrator 15.1.0, SVG Export Plug-In . SVG Version: 6.00 Build 0)  -->

<svg
   version="1.1"
   id="Layer_4"
   x="0px"
   y="0px"
   width="283.46px"
   height="283.46px"
   viewBox="0 0 283.46 283.46"
   enable-background="new 0 0 283.46 283.46"
   xml:space="preserve"
   sodipodi:docname="flow-data-alt.svg"
   inkscape:version="1.2.2 (b0a8486541, 2022-12-01)"
   xmlns:inkscape="http://www.inkscape.org/namespaces/inkscape"
   xmlns:sodipodi="http://sodipodi.sourceforge.net/DTD/sodipodi-0.dtd"
   xmlns="http://www.w3.org/2000/svg"
   xmlns:svg="http://www.w3.org/2000/svg"><defs
   id="defs7" /><sodipodi:namedview
   id="namedview5"
   pagecolor="#ffffff"
   bordercolor="#000000"
   borderopacity="0.25"
   inkscape:showpageshadow="2"
   inkscape:pageopacity="0.0"
   inkscape:pagecheckerboard="0"
   inkscape:deskcolor="#d1d1d1"
   showgrid="false"
   inkscape:zoom="1.4816906"
   inkscape:cx="-57.704354"
   inkscape:cy="216.64442"
   inkscape:window-width="1920"
   inkscape:window-height="1015"
   inkscape:window-x="0"
   inkscape:window-y="0"
   inkscape:window-maximized="1"
   inkscape:current-layer="Layer_4" />

<g
   id="g3095"
   transform="matrix(1.0334472,0,0,1.0334472,-0.36490029,-0.204143)"><path
     id="rect256"
     d="m 77.721001,40.231998 h 3 v 16.333001 h -3 z"
     style="fill:#000000"
     transform="matrix(2.7163242,0,0,2.7163242,7.0855452,5.0859641)" /><path
     id="rect258"
     d="m 16.707001,40.231998 h 3 v 16.333001 h -3 z"
     style="fill:#000000"
     transform="matrix(2.7163242,0,0,2.7163242,7.0855452,5.0859641)" /><path
     id="rect260"
     d="m 111.17135,56.799704 h 61.11729 v 8.148973 h -61.11729 z"
     style="fill:#000000;stroke-width:2.71632" /><path
     id="path2410"
     d="m 44.913556,7.0891384 c -4.97299,0 -9.003676,4.0326856 -9.003676,9.0036756 V 267.37867 c 0,4.97098 4.030686,8.99837 9.003676,8.99837 H 238.55891 c 4.97298,0 8.99837,-4.02739 8.99837,-8.99837 V 67.143709 c 0,-2.385996 -0.9526,-4.674468 -2.6316,-6.361466 L 193.86948,9.7260429 C 192.17548,8.0390463 189.8854,7.0891384 187.4974,7.0891384 Z M 189.54007,21.759241 234.83965,65.000229 h -45.2253 z m -53.23682,37.075831 h 9.773 v 13.057187 c 11.40498,2.062996 20.06063,12.036892 20.06063,24.039868 0,7.448983 -3.33814,14.114293 -8.59514,18.596273 l 20.59651,55.59784 h 19.63618 v -9.06204 h 6.93447 c 8.339,0 15.10086,6.24255 15.09986,13.94853 0.001,7.70198 -6.75886,13.94854 -15.09986,13.94854 h -6.93978 v -9.06204 h -16.01243 l 11.34877,30.64539 -8.47841,3.14625 v 10.94023 l -2.58916,-10.21866 -12.78129,-34.51321 h -21.97067 v 13.05188 h -12.19236 v -36.1049 h 12.19236 v 13.28003 h 18.35222 L 146.98882,119.7863 c -1.703,0.376 -3.46642,0.57831 -5.28442,0.57831 -1.906,0 -3.75811,-0.22368 -5.53909,-0.63668 l -18.67056,50.39831 h 12.44173 v 9.77299 H 113.8763 l -12.78129,34.51321 -2.589157,10.21866 v -10.94023 l -8.483722,-3.14625 11.354079,-30.64539 H 85.692726 v 9.06204 h -6.934475 c -8.340984,0 -15.105165,-6.24556 -15.105165,-13.94854 0,-7.70498 6.764181,-13.94853 15.105165,-13.94853 h 6.934475 v 9.06204 h 19.301924 l 20.66018,-55.77823 c -5.136,-4.47898 -8.38822,-11.0669 -8.38822,-18.415883 0,-11.639978 8.14066,-21.368646 19.03664,-23.827642 z m 5.40115,27.716678 a 9.3789997,9.3789997 0 0 0 -9.38038,9.380377 9.3789997,9.3789997 0 0 0 9.38038,9.380373 9.3789997,9.3789997 0 0 0 9.37507,-9.380373 9.3789997,9.3789997 0 0 0 -9.37507,-9.380377 z"
     transform="matrix(0.36812222,0,0,0.36812222,4.0600722,165.48994)" /><path
     fill="#231f20"
     d="M 244.917,60.785 193.875,9.725 c -1.69,-1.691 -3.991,-2.638 -6.367,-2.638 H 44.911 c -4.976,0 -9.006,4.03 -9.006,9.001 v 251.29 c 0,4.972 4.03,9 9.006,9 h 193.637 c 4.981,0 9.011,-4.028 9.011,-9 V 67.148 c 0,-2.396 -0.951,-4.69 -2.642,-6.363 z m -57.161,72.774 h 9.506 v 24.77 h -9.506 z M 176.244,87.062 h 9.514 v 71.268 h -9.514 z M 76.082,54.983 h 85.401 c 3.232,0 5.845,2.618 5.845,5.84 0,3.232 -2.612,5.85 -5.845,5.85 H 76.082 c -3.221,0 -5.842,-2.61 -5.841,-5.85 0,-3.221 2.619,-5.84 5.841,-5.84 z m 98.032,58.748 v 44.598 H 164.6 v -44.598 z m -11.451,-12.322 v 56.92 h -9.506 v -56.92 z m -11.53,21.285 v 35.635 h -9.509 V 122.694 Z M 123.437,98.214 98.89,119.677 V 87.061 c 9.4,0 18.355,4.059 24.547,11.153 z m -41.562,139.84 c -6.42,0 -11.624,-5.197 -11.624,-11.613 0,-6.426 5.203,-11.624 11.624,-11.624 6.417,0 11.621,5.198 11.62,11.624 0,6.415 -5.203,11.613 -11.62,11.613 z m 0,-42.874 c -6.424,0 -11.634,-5.209 -11.634,-11.635 0,-6.416 5.209,-11.624 11.634,-11.624 6.42,0 11.63,5.208 11.63,11.624 0,6.426 -5.209,11.635 -11.63,11.635 z M 63.18,125.721 c 0,-18.007 14.599,-32.606 32.602,-32.606 v 32.606 l 24.917,-21.024 c 4.976,5.878 7.689,13.335 7.689,21.024 0,17.998 -14.608,32.608 -32.606,32.608 -17.994,0 -32.602,-14.61 -32.602,-32.608 z m 144.212,106.574 h -98.341 c -3.222,0 -5.84,-2.625 -5.84,-5.846 0,-3.222 2.618,-5.844 5.84,-5.844 h 98.331 c 3.223,0 5.845,2.622 5.847,5.844 0,3.221 -2.615,5.846 -5.837,5.846 z m 0,-42.903 h -98.341 c -3.222,0 -5.84,-2.615 -5.84,-5.837 0,-3.221 2.618,-5.854 5.84,-5.854 h 98.331 c 3.223,0 5.845,2.632 5.847,5.854 0,3.222 -2.615,5.837 -5.837,5.837 z m -8.146,-31.065 V 117.7 h 9.515 v 40.627 z m 21.035,0.002 h -9.505 v -35.635 h 9.505 z m -30.665,-93.328 -0.075,-43.241 45.3,43.241 z"
     id="path2377"
     style="fill:#000000"
     transform="matrix(0.36811705,0,0,0.36811705,170.49421,165.88877)" /><path
     id="path2388"
     d="m 44.913028,7.085366 c -4.972995,0 -9.003714,4.038025 -9.003714,9.00902 V 267.37601 c 0,4.97099 4.030719,9.00371 9.003714,9.00371 H 238.5592 c 4.973,0 8.99841,-4.03272 8.99841,-9.00371 V 67.145498 c 0,-2.385997 -0.95261,-4.674494 -2.63161,-6.361492 L 193.86958,9.7222817 C 192.17559,8.0352834 189.88548,7.085366 187.49748,7.085366 Z M 189.54016,21.760837 234.83993,65.00201 h -45.22549 z m -43.25178,81.569303 h 15.18481 l -25.46189,73.78058 h -15.34398 l 25.377,-73.07493 z m -43.30484,16.56959 4.08536,12.67523 -19.519545,7.61363 19.519545,7.61363 -4.08536,12.66993 -34.263991,-14.48446 v -11.6088 l 33.213461,-14.03348 z m 76.17874,0 34.26399,14.47916 v 11.6088 l -34.26399,14.48446 -4.08536,-12.66993 19.51954,-7.61363 -19.51954,-7.61363 3.73519,-11.58757 z"
     transform="matrix(0.36812065,0,0,0.36812065,170.06229,4.6143867)" /><path
     id="path2425"
     d="m 1250.0649,1115.3563 c -63.553,0 -117.4135,15.0755 -117.4135,38.7735 v 184.3173 9.5714 c 0,21.5429 56.0155,36.6247 117.4135,36.6247 61.3979,0 117.4081,-14.0048 117.4081,-36.6247 v -193.8887 c 1.078,-22.619 -53.8552,-38.7735 -117.4081,-38.7735 z m 0,6.4622 c 65.7069,0 109.8688,16.1585 109.8688,31.2395 10e-4,16.157 -44.1619,31.2342 -109.8688,31.2342 -65.707,0 -109.8742,-15.0771 -109.8742,-30.1571 0,-15.081 44.1672,-32.3166 109.8742,-32.3166 z m 0,4.5788 c -29.798,0 -57.5601,3.6513 -78.1731,10.2823 -8.956,2.881 -16.2508,6.2527 -21.0898,9.7517 -3.833,2.771 -6.0272,5.5818 -6.0272,7.7038 0,2.057 2.1607,4.7109 5.9317,7.2899 4.789,3.276 12.0769,6.4084 21.0739,9.0514 20.286,5.958 48.0875,9.2371 78.2845,9.2371 30.3789,0 58.1729,-3.3254 78.2579,-9.3644 8.999,-2.706 16.2702,-5.93 21.0262,-9.322 3.873,-2.764 6.006,-5.5941 6.006,-7.9691 0,-2.09 -2.1775,-4.8228 -5.9795,-7.4968 -4.814,-3.388 -12.1085,-6.6406 -21.0845,-9.4016 -20.457,-6.295 -48.2362,-9.7623 -78.2261,-9.7623 z m -109.8742,38.5082 c 12.926,14.003 57.0922,26.926 109.8742,26.926 52.7819,0 96.9428,-10.768 109.8688,-25.849 v 54.9345 c -4.308,15.0799 -47.3929,29.0854 -109.8688,29.0854 -62.476,0 -106.6422,-15.0825 -109.8742,-29.0854 z m 4.5841,9.5289 v 45.8512 c 0.443,1.242 2.0103,3.8089 7.5393,7.1679 5.278,3.205 12.8361,6.2681 21.8591,8.8551 20.497,5.877 47.4497,9.115 75.8917,9.115 28.7399,0 55.5543,-3.0971 75.5043,-8.7171 19.365,-5.455 28.0128,-12.008 29.7858,-16.527 v -44.3816 c -9.812,6.394 -23.4077,10.6196 -34.3486,13.2216 -20.348,4.836 -44.8786,7.3961 -70.9415,7.3961 -12.93,0 -25.7717,-0.7691 -38.1687,-2.2761 -11.683,-1.421 -22.7367,-3.4666 -32.8577,-6.0856 -14.363,-3.716 -26.1217,-8.4175 -34.2637,-13.6195 z m 187.1558,24.9683 c 5.331,0 9.6669,4.3358 9.6669,9.6668 0,5.33 -4.3359,9.6668 -9.6669,9.6668 -5.33,0 -9.6668,-4.3368 -9.6668,-9.6668 0,-5.331 4.3368,-9.6668 9.6668,-9.6668 z m -191.7399,30.1306 c 12.926,16.157 56.0152,25.8543 109.8742,25.8543 52.7809,0 96.9428,-10.7733 109.8688,-25.8543 v 52.7803 c -4.308,15.081 -47.3929,29.0855 -109.8688,29.0855 -62.476,0 -106.6422,-15.0825 -109.8742,-29.0855 z m 215.1643,9.8207 c -9.812,6.394 -23.4077,10.6143 -34.3486,13.2163 -20.348,4.837 -44.8786,7.396 -70.9415,7.396 -26.994,0 -51.6575,-2.4175 -71.3235,-6.9875 -9.962,-2.315 -18.531,-5.1578 -25.467,-8.4518 -3.171,-1.506 -6.0076,-3.1099 -8.4996,-4.8069 v 41.9622 c 0.443,1.242 2.0103,3.8142 7.5393,7.1732 5.278,3.204 12.8361,6.2627 21.8591,8.8497 20.497,5.877 47.4497,9.1151 75.8917,9.1151 28.7399,0 55.5543,-3.0971 75.5043,-8.7171 19.365,-5.455 28.0128,-12.0081 29.7858,-16.5271 z m -23.4244,24.6764 c 5.331,0 9.6669,4.3359 9.6669,9.6669 0,5.33 -4.3359,9.6668 -9.6669,9.6668 -5.33,0 -9.6668,-4.3368 -9.6668,-9.6668 0,-5.331 4.3368,-9.6669 9.6668,-9.6669 z m -191.7346,25.8225 c 12.926,16.157 56.0099,26.9314 109.8689,26.9314 52.7809,0 96.9428,-10.7734 109.8688,-25.8543 v 57.0938 c -3.231,15.08 -47.3939,29.0801 -109.8688,29.0801 -62.475,0 -106.6369,-15.0771 -109.8689,-29.0801 z m 4.5788,10.2452 v 47.289 c 0.443,1.242 2.0103,3.8142 7.5393,7.1732 5.278,3.205 12.8361,6.2681 21.8591,8.8551 20.497,5.877 47.4497,9.1097 75.8917,9.1097 28.8599,0 55.8211,-3.0961 75.9181,-8.7171 9.057,-2.533 16.5981,-5.5655 21.8061,-8.7755 4.193,-2.584 6.8549,-5.2617 7.5659,-7.5817 v -46.7001 c -9.812,6.394 -23.4077,10.6196 -34.3486,13.2216 -20.348,4.838 -44.8796,7.396 -70.9415,7.396 -26.689,0 -51.3729,-2.6073 -71.3819,-7.5393 -9.92,-2.445 -18.4834,-5.4168 -25.4564,-8.8338 -3.15,-1.543 -5.9718,-3.1811 -8.4518,-4.8971 z m 187.1558,28.5601 c 5.331,0 9.6669,4.3412 9.6669,9.6722 0,5.33 -4.3359,9.6668 -9.6669,9.6668 -5.33,0 -9.6668,-4.3368 -9.6668,-9.6668 0,-5.331 4.3368,-9.6722 9.6668,-9.6722 z"
     transform="matrix(0.36812358,0,0,0.36812358,-403.58851,-403.53621)" /></g></svg>
