<?xml version="1.0" encoding="UTF-8" standalone="no"?>
<svg
   version="1.1"
   id="Layer_3"
   x="0px"
   y="0px"
   width="283.46px"
   height="283.46px"
   viewBox="0 0 283.46 283.46"
   enable-background="new 0 0 283.46 283.46"
   xml:space="preserve"
   sodipodi:docname="flow.svg"
   inkscape:version="1.2.2 (b0a8486541, 2022-12-01)"
   xmlns:inkscape="http://www.inkscape.org/namespaces/inkscape"
   xmlns:sodipodi="http://sodipodi.sourceforge.net/DTD/sodipodi-0.dtd"
   xmlns="http://www.w3.org/2000/svg"
   xmlns:svg="http://www.w3.org/2000/svg"><defs
   id="defs15" /><sodipodi:namedview
   id="namedview13"
   pagecolor="#ffffff"
   bordercolor="#000000"
   borderopacity="0.25"
   inkscape:showpageshadow="2"
   inkscape:pageopacity="0.0"
   inkscape:pagecheckerboard="0"
   inkscape:deskcolor="#d1d1d1"
   showgrid="false"
   inkscape:zoom="1.4816906"
   inkscape:cx="172.43816"
   inkscape:cy="107.30985"
   inkscape:window-width="1920"
   inkscape:window-height="1015"
   inkscape:window-x="0"
   inkscape:window-y="0"
   inkscape:window-maximized="1"
   inkscape:current-layer="Layer_3" />

<g
   id="g999"
   style="fill:#000000;stroke:#000000;stroke-width:0.519816;stroke-linecap:round;stroke-linejoin:round;paint-order:stroke fill markers"
   transform="matrix(13.953005,0,0,13.953005,-25.706067,-21.15546)"><path
     id="path987"
     style="color:#000000;fill:#000000;stroke:none;stroke-width:0.506163;stroke-linecap:round;stroke-linejoin:round;-inkscape-stroke:none;paint-order:stroke fill markers"
     d="m 8.0372168,13.616055 c -1.7163685,0.0015 -3.4686516,0.678481 -4.5519483,1.89719 L 2.416523,16.677266 a 0.25310687,0.25310687 0 0 0 0.0075,0.349888 l 1.3637035,1.363567 a 0.25310687,0.25310687 0 0 0 0.3651536,-0.0076 l 1.0706504,-1.167734 a 0.25310687,0.25310687 0 0 0 0.00191,-0.0019 c 0.4321736,-0.475392 1.1880708,-0.827443 1.9969635,-0.96611 0.8088928,-0.138668 1.6635095,-0.06395 2.2782912,0.243435 a 0.25310687,0.25310687 0 0 0 0.00191,0.0019 l 3.7980608,1.850438 a 0.25310687,0.25310687 0 0 0 0.02276,0.0095 c 0.796299,0.298612 1.608011,0.502138 2.521864,0.502137 1.818331,0 3.541243,-0.704136 4.666987,-1.93222 l 1.07079,-1.167701 a 0.25310687,0.25310687 0 0 0 -0.02099,-0.363246 l -1.460479,-1.264747 a 0.25310687,0.25310687 0 0 0 -0.359565,0.02849 l -0.968017,1.160205 c -0.432174,0.47539 -1.187935,0.829352 -1.996828,0.968018 -0.808893,0.138667 -1.663645,0.06205 -2.278428,-0.245343 a 0.25310687,0.25310687 0 0 0 -0.0057,-0.002 l -3.889246,-1.848531 -0.0057,-0.0019 C 10.033819,13.90454 9.4110546,13.730839 8.7686144,13.657082 8.5269391,13.629335 8.2824123,13.615837 8.0372168,13.616055 Z" /><path
     id="path981"
     style="color:#000000;fill:#000000;stroke:none;stroke-width:0.506163;stroke-linecap:round;stroke-linejoin:round;-inkscape-stroke:none;paint-order:stroke fill markers"
     d="M 8.0372193,4.4929396 C 6.3208508,4.4944581 4.5685677,5.1715574 3.485271,6.3902662 L 2.4165255,7.556059 a 0.25310687,0.25310687 0 0 0 0.0075,0.3498878 L 3.7877256,9.267742 A 0.25310687,0.25310687 0 0 0 4.1528792,9.260112 L 5.223533,8.0924082 a 0.25310687,0.25310687 0 0 0 0.00191,-0.00191 C 5.6576148,7.615109 6.413512,7.2630572 7.2224047,7.1243899 8.0312975,6.9857225 8.8860503,7.0604345 9.5008323,7.3678256 a 0.25310687,0.25310687 0 0 0 0.00177,0.00191 l 3.7980607,1.8504387 a 0.25310687,0.25310687 0 0 0 0.02276,0.00954 c 0.796299,0.298612 1.608011,0.502001 2.521864,0.502001 1.818331,0 3.541243,-0.7041357 4.666987,-1.93222 l 1.07079,-1.1677009 a 0.25310687,0.25310687 0 0 0 -0.02099,-0.363246 L 20.101599,5.0038003 a 0.25310687,0.25310687 0 0 0 -0.359565,0.028487 l -0.973607,1.1696091 0.0057,-0.0094 C 18.341934,6.6678856 17.586082,7.0218426 16.777189,7.16051 15.968296,7.2991773 15.113544,7.2225571 14.498761,6.915166 a 0.25310687,0.25310687 0 0 0 -0.0057,-0.00191 l -3.889246,-1.8485304 -0.0057,-0.00191 C 10.033821,4.7815136 9.4110572,4.60786 8.7686169,4.5341029 8.5269416,4.5063567 8.2824148,4.4927228 8.0372193,4.4929396 Z" /></g></svg>
