<?xml version="1.0" encoding="UTF-8" standalone="no"?>
<!-- Generator: Adobe Illustrator 15.1.0, SVG Export Plug-In . SVG Version: 6.00 Build 0)  -->

<svg
   version="1.1"
   id="Layer_1"
   x="0px"
   y="0px"
   width="283.465px"
   height="283.465px"
   viewBox="1108.268 1108.268 283.465 283.465"
   enable-background="new 1108.268 1108.268 283.465 283.465"
   xml:space="preserve"
   sodipodi:docname="folder-backup.svg"
   inkscape:version="1.2.2 (b0a8486541, 2022-12-01)"
   xmlns:inkscape="http://www.inkscape.org/namespaces/inkscape"
   xmlns:sodipodi="http://sodipodi.sourceforge.net/DTD/sodipodi-0.dtd"
   xmlns="http://www.w3.org/2000/svg"
   xmlns:svg="http://www.w3.org/2000/svg"><defs
   id="defs7789" /><sodipodi:namedview
   id="namedview7787"
   pagecolor="#ffffff"
   bordercolor="#000000"
   borderopacity="0.25"
   inkscape:showpageshadow="2"
   inkscape:pageopacity="0.0"
   inkscape:pagecheckerboard="0"
   inkscape:deskcolor="#d1d1d1"
   showgrid="false"
   inkscape:zoom="1.047695"
   inkscape:cx="-199.96278"
   inkscape:cy="301.6145"
   inkscape:window-width="1920"
   inkscape:window-height="1015"
   inkscape:window-x="0"
   inkscape:window-y="0"
   inkscape:window-maximized="1"
   inkscape:current-layer="Layer_1" />

<g
   id="g374"
   transform="matrix(0.99536533,0,0,0.99536533,6.4168958,9.6514288)"><path
     d="m 1211.9915,1423.2253 a 7.9601769,9.6713594 90 0 0 -6.8593,2.2925 l -48.6913,39.5212 a 7.9601769,9.6713594 90 0 0 -2.8811,5.6125 7.9601769,9.6713594 90 0 0 2.7861,5.6453 7.9601769,9.6713594 90 0 0 13.6746,0.077 l 32.0697,-26.0294 -0.362,42.8778 c -0.075,8.9159 -0.6241,14.4737 2.9836,20.4023 2.7398,4.5026 7.1546,8.1955 12.6033,10.5192 7.1519,3.0513 13.9128,2.6732 24.7241,2.735 l 94.8049,0.5411 a 7.9601769,9.6713594 90 0 0 9.7368,-7.9013 7.9601769,9.6713594 90 0 0 -9.6052,-8.0183 l -94.8012,-0.5412 c -10.8114,-0.062 -14.8887,-0.4983 -15.9745,-0.9616 -1.8046,-0.7696 -3.2645,-1.9972 -4.1829,-3.5064 -0.5513,-0.9061 -1.0221,-4.2432 -0.9469,-13.1591 l 0.3619,-42.8778 31.6273,26.3951 a 7.9601769,9.6713594 90 0 0 13.6746,0.077 7.9601769,9.6713594 90 0 0 0.095,-11.2541 l -48.0222,-40.077 a 7.9601769,9.6713594 90 0 0 -6.8154,-2.3693 z"
     transform="matrix(0.53417691,0,0,0.53417691,510.31692,526.70728)"
     id="path352" /><g
     id="g358"><path
       d="m 1418.2668,1435.0096 c -4.6371,0 -9.3526,3.4221 -10.2926,7.4735 l -33.5358,144.5968 c -0.361,1.5602 -0.1179,2.9696 0.6801,3.9744 0.8494,1.0696 2.2822,1.6563 4.0402,1.6563 h 202.0815 c 4.3432,0 9.2733,-3.6209 10.5485,-7.7551 l 44.7205,-144.6003 c 0.3175,-1.0283 0.5155,-2.4994 -0.3473,-3.6673 -0.7879,-1.0674 -2.3435,-1.6783 -4.2669,-1.6783 z"
       transform="matrix(0.53417691,0,0,0.53417691,510.31692,526.70728)"
       id="path354" /><path
       d="m 1385.4951,1384.6437 c -9.881,0 -17.9196,8.0411 -17.9196,17.9233 v 13.6162 c -0.053,0.4694 -0.084,0.9443 -0.084,1.426 v 163.3317 l 32.5376,-140.3005 c 1.7916,-7.7319 9.8041,-13.7881 18.2378,-13.7881 h 196.3191 v -9.2395 c 0,-7.0288 -5.7193,-12.7496 -12.7459,-12.7496 h -134.4322 c -0.4571,-0.6438 -1.022,-1.2036 -1.6892,-1.6417 l -26.7058,-17.5759 c -0.9958,-0.655 -2.145,-1.0019 -3.3163,-1.0019 z"
       transform="matrix(0.53417691,0,0,0.53417691,510.31692,526.70728)"
       id="path350" /></g><path
     d="m 1397.934,1220.95 a 7.9601769,9.6713594 90 0 0 -9.7368,7.905 7.9601769,9.6713594 90 0 0 9.6015,8.0146 l 94.8049,0.5412 c 10.8113,0.062 14.885,0.4983 15.9708,0.9616 1.8046,0.7696 3.2645,1.9972 4.1828,3.5064 0.5514,0.9061 1.0221,4.2432 0.947,13.1591 l -0.3583,42.8778 -31.6272,-26.3914 a 7.9601769,9.6713594 90 0 0 -13.6747,-0.08 7.9601769,9.6713594 90 0 0 -0.095,11.2578 l 48.0185,40.077 a 7.9601769,9.6713594 90 0 0 6.819,2.3693 7.9601769,9.6713594 90 0 0 6.8556,-2.2925 l 48.6913,-39.5249 a 7.9601769,9.6713594 90 0 0 2.8812,-5.6125 7.9601769,9.6713594 90 0 0 -2.7861,-5.6417 7.9601769,9.6713594 90 0 0 -13.6747,-0.08 l -32.0659,26.033 0.3583,-42.8777 c 0.075,-8.916 0.6277,-14.4738 -2.9799,-20.4023 -2.7399,-4.5027 -7.1583,-8.1955 -12.607,-10.5193 -7.1519,-3.0513 -13.9091,-2.6769 -24.7205,-2.7386 z"
     transform="matrix(0.53417691,0,0,0.53417691,510.31692,526.70728)"
     id="path336" /><g
     id="g364"
     transform="translate(-126.69821,-151.59959)"><path
       d="m 1418.2668,1435.0096 c -4.6371,0 -9.3526,3.4221 -10.2926,7.4735 l -33.5358,144.5968 c -0.361,1.5602 -0.1179,2.9696 0.6801,3.9744 0.8494,1.0696 2.2822,1.6563 4.0402,1.6563 h 202.0815 c 4.3432,0 9.2733,-3.6209 10.5485,-7.7551 l 44.7205,-144.6003 c 0.3175,-1.0283 0.5155,-2.4994 -0.3473,-3.6673 -0.7879,-1.0674 -2.3435,-1.6783 -4.2669,-1.6783 z"
       transform="matrix(0.53417691,0,0,0.53417691,510.31692,526.70728)"
       id="path360" /><path
       d="m 1385.4951,1384.6437 c -9.881,0 -17.9196,8.0411 -17.9196,17.9233 v 13.6162 c -0.053,0.4694 -0.084,0.9443 -0.084,1.426 v 163.3317 l 32.5376,-140.3005 c 1.7916,-7.7319 9.8041,-13.7881 18.2378,-13.7881 h 196.3191 v -9.2395 c 0,-7.0288 -5.7193,-12.7496 -12.7459,-12.7496 h -134.4322 c -0.4571,-0.6438 -1.022,-1.2036 -1.6892,-1.6417 l -26.7058,-17.5759 c -0.9958,-0.655 -2.145,-1.0019 -3.3163,-1.0019 z"
       transform="matrix(0.53417691,0,0,0.53417691,510.31692,526.70728)"
       id="path362" /></g></g></svg>
