<?xml version="1.0" encoding="utf-8"?>
<!-- Generator: Adobe Illustrator 15.1.0, SVG Export Plug-In . SVG Version: 6.00 Build 0)  -->
<!DOCTYPE svg PUBLIC "-//W3C//DTD SVG 1.1//EN" "http://www.w3.org/Graphics/SVG/1.1/DTD/svg11.dtd">
<svg version="1.1" id="Layer_1" xmlns="http://www.w3.org/2000/svg" xmlns:xlink="http://www.w3.org/1999/xlink" x="0px" y="0px"
	 width="283.465px" height="283.465px" viewBox="0 0 283.465 283.465" enable-background="new 0 0 283.465 283.465"
	 xml:space="preserve">
<g>
	<circle cx="58.102" cy="196.725" r="7.816"/>
	<circle cx="141.33" cy="50.931" r="7.816"/>
	<path d="M141.732,7.086C67.37,7.086,7.086,67.37,7.086,141.732c0,74.361,60.283,134.646,134.646,134.646
		c74.361,0,134.646-60.283,134.646-134.646C276.379,67.37,216.094,7.086,141.732,7.086z M189.879,80.821
		c17.785,0.231,31.168,6.02,37.496,16.984c8.603,14.899,2.35,36.182-15.563,57.342c-0.015,0.017-0.028,0.032-0.041,0.048
		c-1.015,1.172-2.786,1.299-3.957,0.284c-1.172-1.013-1.299-2.786-0.285-3.957c16.556-19.557,22.134-38.536,14.988-50.912
		c-5.187-8.984-16.716-13.972-32.71-14.18c-1.52-0.042-2.727-1.283-2.729-2.8C187.076,82.082,188.33,80.823,189.879,80.821z
		 M141.33,37.506c7.415,0,13.424,6.01,13.424,13.426c0,0.197-0.021,0.389-0.028,0.584c22.231,11.485,37.687,50.674,37.687,95.967
		c0,18.624-2.604,36.496-7.453,51.989l0,0c-0.008,0.025-0.016,0.052-0.022,0.076c-0.483,1.473-2.069,2.271-3.543,1.789
		c-1.472-0.484-2.271-2.069-1.788-3.541c4.673-14.938,7.195-32.244,7.195-50.313c0-42.648-14.184-79.327-33.555-90.383
		c-2.234,4.309-6.728,7.257-11.917,7.257c-7.415,0-13.426-6.011-13.426-13.425C127.903,43.517,133.915,37.506,141.33,37.506z
		 M55.202,97.663c8.621-14.931,30.25-20.145,57.605-15.163c1.487,0.294,2.472,1.717,2.223,3.212c-0.254,1.529-1.7,2.562-3.229,2.307
		c-25.287-4.605-44.579,0.046-51.741,12.45c-5.274,9.136-3.687,21.884,4.468,36.108c0.021,0.034,0.041,0.069,0.06,0.104
		c0.742,1.361,0.24,3.065-1.12,3.806c-1.361,0.742-3.064,0.24-3.806-1.12C50.607,123.577,48.77,108.803,55.202,97.663z
		 M58.102,210.15c-7.414,0-13.426-6.012-13.426-13.427c0-5.052,2.793-9.444,6.915-11.736c-2.025-25.093,24.339-58.729,64.199-81.741
		c16.555-9.558,33.794-16.343,49.989-19.813c0.029-0.007,0.06-0.013,0.091-0.02c1.52-0.299,2.994,0.69,3.293,2.21
		c0.301,1.52-0.688,2.996-2.207,3.295c-15.609,3.344-32.301,9.913-48.361,19.187c-37.547,21.677-62.352,52.917-61.476,75.243
		c0.326-0.022,0.651-0.05,0.983-0.05c7.415,0,13.427,6.011,13.427,13.425C71.528,204.139,65.518,210.15,58.102,210.15z
		 M143.379,156.979c-5.244,1.133-10.41-2.2-11.544-7.443c-1.132-5.244,2.2-10.413,7.443-11.546c5.244-1.133,10.409,2.2,11.545,7.444
		C151.959,150.676,148.625,155.842,143.379,156.979z M174.584,223.194c-9.063,15.08-20.688,23.646-33.253,23.646
		c-17.229,0-32.55-16.102-41.916-42.252h0.001c-0.014-0.035-0.026-0.071-0.038-0.107c-0.492-1.469,0.3-3.059,1.769-3.553
		c1.47-0.49,3.06,0.301,3.551,1.771c8.656,24.171,22.322,38.532,36.633,38.532c10.292,0,20.3-7.373,28.447-20.926
		c0.014-0.022,0.028-0.047,0.043-0.069c0.816-1.315,2.546-1.72,3.863-0.901C174.998,220.149,175.402,221.879,174.584,223.194z
		 M224.363,210.15c-2.921,0-5.617-0.943-7.82-2.527c-21.414,12.607-62.33,6.188-100.835-16.045
		c-16.388-9.462-30.759-20.861-41.82-33.019c-0.005-0.005-0.01-0.011-0.015-0.017c-1.039-1.15-0.947-2.924,0.203-3.963
		c1.15-1.037,2.924-0.947,3.962,0.203c10.662,11.717,24.578,22.758,40.476,31.938c36.34,20.979,74.597,27.207,94.177,16.619
		c-1.108-1.953-1.751-4.209-1.751-6.617c0-7.413,6.011-13.424,13.425-13.424c7.415,0,13.427,6.011,13.427,13.424
		C237.791,204.139,231.778,210.15,224.363,210.15z"/>
	<path d="M224.363,188.908c-4.316,0-7.814,3.499-7.814,7.815c0,1.864,0.654,3.575,1.744,4.918c0.375,0.213,0.713,0.504,0.965,0.89
		c0.041,0.063,0.066,0.131,0.103,0.195c1.356,1.131,3.101,1.813,5.004,1.813c4.315,0,7.815-3.498,7.815-7.815
		C232.178,192.407,228.68,188.908,224.363,188.908z"/>
</g>
</svg>
