<?xml version="1.0" encoding="utf-8"?>
<!-- Generator: Adobe Illustrator 15.1.0, SVG Export Plug-In . SVG Version: 6.00 Build 0)  -->
<!DOCTYPE svg PUBLIC "-//W3C//DTD SVG 1.1//EN" "http://www.w3.org/Graphics/SVG/1.1/DTD/svg11.dtd">
<svg version="1.1" id="Layer_1" xmlns="http://www.w3.org/2000/svg" xmlns:xlink="http://www.w3.org/1999/xlink" x="0px" y="0px"
	 width="283.465px" height="283.465px" viewBox="0 0 283.465 283.465" enable-background="new 0 0 283.465 283.465"
	 xml:space="preserve">
<g>
	<circle cx="163.261" cy="105.094" r="25.622"/>
	<circle cx="120.171" cy="178.464" r="25.621"/>
	<path d="M143.173,243.071c-35.752,12.719-75.047-5.953-87.768-41.707s5.953-75.049,41.707-87.768
		c-1.135-10.523,0.182-21.166,3.844-31.096c-0.943,0.189-1.875,0.418-2.813,0.635c0.006-0.018,0.012-0.035,0.018-0.053
		c-4.988,1.16-9.863,2.717-14.596,4.635c-0.291,0.119-0.58,0.244-0.869,0.365c-0.984,0.408-1.959,0.832-2.93,1.273
		c-0.447,0.205-0.895,0.41-1.34,0.621c-0.805,0.381-1.602,0.777-2.396,1.18c-0.502,0.256-1.008,0.504-1.506,0.768
		c-0.766,0.404-1.52,0.83-2.273,1.256c-1.793,1.01-3.568,2.057-5.301,3.18c-19.244,12.436-33.514,31.23-40.318,53.109
		c-16.047,51.592,12.768,106.422,64.357,122.469s106.422-12.768,122.469-64.357c-11.785,5.738-24.471,9.4-37.5,10.832
		C167.794,229.778,156.358,238.38,143.173,243.071z"/>
	<path d="M192.38,11.497C140.774-4.497,85.972,24.372,69.978,75.978c11.777-5.775,24.465-9.479,37.5-10.945
		c8.236-11.477,19.811-20.135,33.145-24.795c35.824-12.523,75.016,6.365,87.539,42.188c12.521,35.824-6.365,75.016-42.188,87.539
		c1.262,10.449,0.105,21.047-3.377,30.979c10.363-2.09,20.303-5.854,29.447-11.113c1.461-0.842,2.906-1.711,4.326-2.629
		c19.344-12.453,33.682-31.324,40.492-53.299C272.854,82.296,243.987,27.493,192.38,11.497z"/>
</g>
</svg>
