<?xml version="1.0" encoding="UTF-8" standalone="no"?>
<svg
   width="283.45999"
   height="283.45999"
   viewBox="0 0 283.45999 283.45999"
   fill="none"
   class="fill-current"
   version="1.1"
   id="svg4507"
   sodipodi:docname="gear-alt.svg"
   inkscape:version="1.2.2 (b0a8486541, 2022-12-01)"
   xmlns:inkscape="http://www.inkscape.org/namespaces/inkscape"
   xmlns:sodipodi="http://sodipodi.sourceforge.net/DTD/sodipodi-0.dtd"
   xmlns="http://www.w3.org/2000/svg"
   xmlns:svg="http://www.w3.org/2000/svg">
  <defs
     id="defs4511" />
  <sodipodi:namedview
     id="namedview4509"
     pagecolor="#ffffff"
     bordercolor="#000000"
     borderopacity="0.25"
     inkscape:showpageshadow="2"
     inkscape:pageopacity="0.0"
     inkscape:pagecheckerboard="0"
     inkscape:deskcolor="#d1d1d1"
     showgrid="false"
     inkscape:zoom="1.8561553"
     inkscape:cx="46.601704"
     inkscape:cy="121.21831"
     inkscape:window-width="1920"
     inkscape:window-height="1015"
     inkscape:window-x="0"
     inkscape:window-y="0"
     inkscape:window-maximized="1"
     inkscape:current-layer="g4505" />
  <g
     clip-path="url(#clip0_2007_600)"
     id="g4505"
     style="fill:#000000;fill-opacity:1">
    <g
       id="g5129"
       transform="translate(6.5377309,6.5527442)">
      <g
         id="g5124"
         transform="matrix(14.207887,0,0,14.196613,-7.2150057,-7.0107006)">
        <path
           d="m 10.0312,6.125 c -2.12495,0 -3.87495,1.75 -3.87495,3.875 0,2.1562 1.75,3.875 3.87495,3.875 2.125,0 3.875,-1.7188 3.875,-3.875 0,-2.125 -1.75,-3.875 -3.875,-3.875 z m 0,6.375 c -1.37495,0 -2.4687,-1.125 -2.4687,-2.4688 0,-1.37495 1.09375,-2.4687 2.4687,-2.4687 1.375,0 2.4688,1.09375 2.4688,2.4375 0,1.375 -1.125,2.5 -2.4688,2.5 z"
           id="path4501"
           style="fill:#000000;fill-opacity:1" />
        <path
           d="m 18.9687,11.9062 -1.75,-0.9687 c 0.0625,-0.3438 0.0938,-0.6875 0.0938,-1.03125 0,-0.375 -0.0313,-0.71875 -0.0625,-1.0625 l 1.7812,-1 C 19.4375,7.625 19.5937,7.125 19.4062,6.6875 L 17.5937,3.625 C 17.375,3.25 16.875,3.09375 16.4687,3.25 l -1.875,1.03125 C 14.5,4.21875 14.4062,4.125 14.3437,4.0625 14,3.78125 13.6875,3.5 13.1875,3.25 13.1562,3.25 13.125,3.21875 13.125,3.15625 v -1.125 c 0,-0.8125 -0.6563,-1.5 -1.5,-1.5 H 8.40624 c -0.8125,0 -1.5,0.6875 -1.5,1.5 V 3.25 c 0,0.03125 -0.03125,0.0625 -0.0625,0.09375 -0.46875,0.21875 -0.8125,0.53125 -1.1875,0.8125 -0.0625,0.0625 -0.15625,0.125 -0.21875,0.1875 L 3.78124,3.40625 c -0.625,-0.34375 -1.15625,-0.125 -1.375,0.25 L 0.687486,6.625 c -0.09375,0.25 -0.125,0.5 -0.0625,0.75 0.0625,0.25 0.21875,0.4375 0.437504,0.5625 l 1.75,0.9375 c -0.0625,0.3125 -0.0625,0.65625 -0.0625,1.0625 0,0.3437 0.03125,0.6875 0.0625,1.0312 l -1.812504,1 c -0.40625,0.2188 -0.5625,0.7188 -0.375,1.1563 l 1.812504,3.0625 c 0.21875,0.375 0.6875,0.5312 1.125,0.375 l 1.875,-1.0313 c 0.09375,0.0626 0.15625,0.1251 0.25,0.2188 0.34375,0.3125 0.6875,0.5937 1.1875,0.8125 0.03125,0 0.0625,0.0312 0.0625,0.0937 V 18 c 0,0.8125 0.65625,1.5 1.5,1.5 H 11.625 c 0.8125,0 1.5,-0.6875 1.5,-1.5 v -1.4375 c 0,-0.0313 0.0312,-0.0625 0.0625,-0.0937 0.4687,-0.2188 0.7812,-0.5001 1.1562,-0.8126 0.0938,-0.0625 0.1563,-0.1249 0.25,-0.2187 L 16.25,16.375 c 0.625,0.3438 1.125,0.125 1.375,-0.25 l 1.75,-2.9688 c 0.125,-0.2187 0.1562,-0.4687 0.0937,-0.6874 -0.0625,-0.2188 -0.2812,-0.4376 -0.5,-0.5626 z M 16.5937,15 l -1.5,-0.8438 c -0.4375,-0.25 -0.9375,-0.1874 -1.3125,0.125 C 13.625,14.4063 13.5,14.5 13.375,14.625 c -0.3125,0.2812 -0.5313,0.4687 -0.8438,0.5938 -0.5,0.25 -0.8437,0.7812 -0.8437,1.3437 v 1.375 c 0,0.0625 -0.0313,0.0937 -0.0938,0.0937 H 8.40624 C 8.34374,18.0312 8.31249,18 8.31249,17.9375 v -1.3438 c 0,-0.5625 -0.34375,-1.0937 -0.84375,-1.3437 -0.3125,-0.1563 -0.5625,-0.3438 -0.875,-0.625 -0.125,-0.0938 -0.25,-0.2188 -0.40625,-0.3125 -0.21875,-0.1563 -0.46875,-0.25 -0.75,-0.25 -0.1875,0 -0.40625,0.0625 -0.59375,0.1562 l -1.5,0.8438 -1.25,-2.125 1.46875,-0.8125 c 0.4375,-0.25 0.6875,-0.7188 0.625,-1.25 -0.03125,-0.3125 -0.0625,-0.625 -0.0625,-0.9375 0,-0.34375 0.03125,-0.65625 0.0625,-0.90625 C 4.28124,8.5 4.03124,7.96875 3.56249,7.71875 l -1.375,-0.78125 1.21875,-2.09375 1.5,0.84375 c 0.4375,0.25 0.9375,0.1875 1.3125,-0.125 0.125,-0.09375 0.25,-0.21875 0.375,-0.3125 0.3125,-0.28125 0.5625,-0.46875 0.875,-0.625 C 7.99999,4.375 8.31249,3.84375 8.31249,3.28125 V 2.0625 C 8.31249,2 8.34374,1.96875 8.40624,1.96875 h 3.18746 c 0.0625,0 0.0938,0.03125 0.0938,0.09375 V 3.25 c 0,0.5625 0.3437,1.09375 0.8437,1.34375 0.3125,0.15625 0.5313,0.34375 0.8438,0.59375 0.125,0.125 0.25,0.21875 0.4062,0.34375 0.375,0.3125 0.9063,0.34375 1.3125,0.09375 l 1.5,-0.84375 1.25,2.125 -1.4375,0.8125 C 15.9687,7.96875 15.7187,8.5 15.8125,9.03125 15.8437,9.3125 15.875,9.625 15.875,9.9375 c 0,0.3125 -0.0313,0.625 -0.0938,0.9375 -0.0937,0.5312 0.1563,1.0313 0.625,1.2813 l 1.4063,0.7812 z"
           id="path4503"
           style="fill:#000000;fill-opacity:1" />
      </g>
    </g>
  </g>
</svg>
