<?xml version="1.0" encoding="UTF-8" standalone="no"?>
<svg
   width="283.45999"
   height="283.45999"
   viewBox="0 0 283.45999 283.45999"
   fill="none"
   class="fill-current"
   version="1.1"
   id="svg4507"
   sodipodi:docname="gear-alt.svg"
   inkscape:version="1.2.2 (b0a8486541, 2022-12-01)"
   xmlns:inkscape="http://www.inkscape.org/namespaces/inkscape"
   xmlns:sodipodi="http://sodipodi.sourceforge.net/DTD/sodipodi-0.dtd"
   xmlns="http://www.w3.org/2000/svg"
   xmlns:svg="http://www.w3.org/2000/svg">
  <defs
     id="defs4511" />
  <sodipodi:namedview
     id="namedview4509"
     pagecolor="#ffffff"
     bordercolor="#000000"
     borderopacity="0.25"
     inkscape:showpageshadow="2"
     inkscape:pageopacity="0.0"
     inkscape:pagecheckerboard="0"
     inkscape:deskcolor="#d1d1d1"
     showgrid="false"
     inkscape:zoom="1.8561553"
     inkscape:cx="183.98245"
     inkscape:cy="166.74251"
     inkscape:window-width="1920"
     inkscape:window-height="1052"
     inkscape:window-x="1920"
     inkscape:window-y="0"
     inkscape:window-maximized="1"
     inkscape:current-layer="svg4507" />
  <path
     id="path2125"
     style="color:#000000;display:inline;fill:#000000;fill-rule:evenodd;stroke-linecap:round;stroke-linejoin:round;-inkscape-stroke:none;paint-order:markers stroke fill"
     d="M 118.75781 7.0839844 C 107.21397 7.0839844 97.445313 16.844229 97.445312 28.378906 L 97.445312 45.681641 C 97.445312 46.12528 97.002584 46.568076 96.558594 47.011719 C 89.898683 50.11721 85.013473 54.554102 79.685547 58.546875 C 78.797559 59.434157 77.466112 60.321702 76.578125 61.208984 L 53.046875 47.898438 C 44.166999 43.018377 36.617723 46.12552 33.509766 51.449219 L 9.0898438 93.59375 C 7.7578622 97.142879 7.3151374 100.69304 8.203125 104.24219 C 9.0911126 107.79129 11.309955 110.45394 14.417969 112.22852 L 39.283203 125.53711 C 38.395216 129.9735 38.394531 134.85377 38.394531 140.62109 C 38.394531 145.50045 38.839211 150.38039 39.283203 155.25977 L 13.53125 169.45703 C 7.7593306 172.56325 5.5391624 179.66205 8.203125 185.87305 L 33.955078 229.34961 C 37.063035 234.67329 43.721585 236.89134 49.9375 234.67383 L 76.578125 220.0332 C 77.910108 220.92191 78.798881 221.80845 80.130859 223.13867 C 85.01479 227.57511 89.898052 231.56761 97.001953 234.67383 C 97.445949 234.67383 97.890625 235.11662 97.890625 236.00391 L 97.890625 255.08203 C 97.890625 266.61671 107.21333 276.37695 119.20117 276.37695 L 164.49023 276.37695 C 176.03408 276.37695 185.80078 266.61671 185.80078 255.08203 L 185.80078 234.67383 C 185.80078 234.22947 186.24475 233.78668 186.68945 233.34375 C 193.34868 230.23753 197.78924 226.24306 203.11719 221.80664 C 204.44989 220.91935 205.33669 220.03477 206.66797 218.70312 L 230.20117 232.01172 C 239.08104 236.89246 246.18437 233.7866 249.73633 228.46289 L 274.59961 186.31641 C 276.37559 183.21161 276.81963 179.66144 275.93164 176.55664 C 275.04365 173.45042 271.93681 170.34489 268.82812 168.57031 L 243.96484 154.81836 C 244.85282 149.93757 245.29687 145.05781 245.29688 140.17773 C 245.29688 134.85406 244.85149 129.97383 244.4082 125.09375 L 269.7168 110.89648 C 275.4894 107.79102 277.70694 100.69339 275.04297 94.482422 L 249.29297 51.003906 C 246.18572 45.68021 239.08125 43.463433 233.30859 45.681641 L 206.66797 60.322266 C 205.33669 59.434984 204.00518 58.102126 203.11719 57.214844 C 198.23394 53.222071 193.79339 49.23077 186.68945 45.681641 C 186.24475 45.681641 185.80078 45.236891 185.80078 44.349609 L 185.80078 28.378906 C 185.80078 16.844229 176.47736 7.0839844 164.49023 7.0839844 L 118.75781 7.0839844 z M 141.73047 71.828125 C 180.10627 71.828125 211.6875 103.38513 211.6875 141.73047 C 211.6875 180.40042 179.96035 211.63086 141.73047 211.63086 C 103.50111 211.63086 71.773438 180.40042 71.773438 141.73047 C 71.773438 103.38513 103.35519 71.828125 141.73047 71.828125 z M 141.73047 92.179688 C 114.52833 92.179688 92.179688 114.52833 92.179688 141.73047 C 92.179693 168.9326 114.52833 191.2793 141.73047 191.2793 C 168.9326 191.27929 191.27929 168.9326 191.2793 141.73047 C 191.2793 114.52833 168.9326 92.179693 141.73047 92.179688 z M 141.73047 105.97852 A 35.751419 35.751419 0 0 1 177.48047 141.73047 A 35.751419 35.751419 0 0 1 141.73047 177.48047 A 35.751419 35.751419 0 0 1 105.97852 141.73047 A 35.751419 35.751419 0 0 1 141.73047 105.97852 z " />
</svg>
