<?xml version="1.0" encoding="UTF-8" standalone="no"?>
<svg
   width="283.45999"
   height="283.45999"
   viewBox="0 0 283.45999 283.45999"
   fill="none"
   class="fill-current"
   version="1.1"
   id="svg4507"
   sodipodi:docname="gear-alt-2.svg"
   inkscape:version="1.2.2 (b0a8486541, 2022-12-01)"
   xmlns:inkscape="http://www.inkscape.org/namespaces/inkscape"
   xmlns:sodipodi="http://sodipodi.sourceforge.net/DTD/sodipodi-0.dtd"
   xmlns="http://www.w3.org/2000/svg"
   xmlns:svg="http://www.w3.org/2000/svg">
  <defs
     id="defs4511" />
  <sodipodi:namedview
     id="namedview4509"
     pagecolor="#ffffff"
     bordercolor="#000000"
     borderopacity="0.25"
     inkscape:showpageshadow="2"
     inkscape:pageopacity="0.0"
     inkscape:pagecheckerboard="0"
     inkscape:deskcolor="#d1d1d1"
     showgrid="false"
     inkscape:zoom="1.8561553"
     inkscape:cx="183.98245"
     inkscape:cy="166.74251"
     inkscape:window-width="1920"
     inkscape:window-height="1052"
     inkscape:window-x="1920"
     inkscape:window-y="0"
     inkscape:window-maximized="1"
     inkscape:current-layer="svg4507" />
  <path
     id="path248"
     d="M 175.78719,7.1260828 C 168.50516,6.8390598 161.20697,11.296198 158.6158,18.312944 l -5.28268,14.3211 c -10.43175,-1.13259 -21.096,-0.77444 -31.66932,1.20012 l -6.35958,-13.81748 C 111.32526,11.373245 101.06287,7.5874728 92.426881,11.55153 l -17.541083,8.079404 c -8.628541,3.97897 -12.420591,14.23599 -8.449079,22.87199 l 6.370296,13.83356 c -8.375201,6.75827 -15.569225,14.62617 -21.500416,23.28452 l -14.310383,-5.28268 c -8.621106,-3.20404 -18.970278,1.55432 -22.159428,10.19032 L 8.1611185,102.64301 c -1.60202,4.3366 -1.40599,9.00838 0.50896,13.19597 1.9373395,4.18016 5.3873595,7.37306 9.6867095,8.9527 l 14.321126,5.28806 c -1.125153,10.42428 -0.767009,21.08644 1.200122,31.67465 l -13.822864,6.36496 c -8.635974,3.97895 -12.4205735,14.24553 -8.449054,22.86661 l 8.057965,17.55715 c 3.971515,8.62854 14.235981,12.4099 22.871974,8.43839 l 13.83356,-6.37031 c 6.76573,8.38264 14.621992,15.58739 23.295243,21.51114 l -5.282686,14.31037 c -1.602017,4.32173 -1.426248,8.99352 0.503624,13.196 1.922421,4.1876 5.364985,7.36887 9.686703,8.96343 l 18.108999,6.68105 c 4.31427,1.58709 9.00094,1.41134 13.19599,-0.50364 4.1876,-1.93732 7.36023,-5.3906 8.94735,-9.69744 l 5.2934,-14.3211 c 10.43174,1.12516 21.08645,0.77656 31.67467,-1.20547 l 6.35957,13.82819 c 3.97898,8.636 14.24881,12.42921 22.87735,8.46516 l 17.54108,-8.09012 c 8.63599,-3.97152 12.4206,-14.23063 8.44908,-22.86661 l -6.36494,-13.83356 c 8.37521,-6.76573 15.57668,-14.61873 21.50042,-23.28455 l 14.32111,5.29341 c 4.32172,1.60948 9.0084,1.40808 13.19599,-0.51437 4.1876,-1.92242 7.35395,-5.38198 8.96342,-9.68133 l 6.67568,-18.11971 c 3.286,-8.92661 -1.28935,-18.85853 -10.20104,-22.15943 l -14.32111,-5.28265 c 1.12514,-10.43174 0.7691,-21.0811 -1.20548,-31.66931 l 13.8282,-6.37028 c 8.63599,-3.97154 12.42268,-14.23392 8.44372,-22.877356 l -8.07404,-17.525 c -3.97897,-8.636 -14.23808,-12.42595 -22.86663,-8.45443 l -13.8282,6.37028 c -6.76573,-8.38265 -14.61873,-15.57993 -23.28452,-21.51111 l 5.28268,-14.31576 c 3.27854,-8.91169 -1.28936,-18.85852 -10.20105,-22.159415 L 180.76985,8.1118978 c -1.62064,-0.597963 -3.30218,-0.919579 -4.98266,-0.985815 z M 142.71417,82.385574 c 22.06379,0.38022 43.03685,13.10797 52.88577,34.498156 13.69539,29.75282 0.69803,64.98022 -29.05476,78.68308 -29.75282,13.70282 -64.98348,0.70131 -78.693771,-29.04407 -13.702838,-29.76025 -0.69267,-64.99092 29.060121,-78.693766 8.36798,-3.85392 17.16898,-5.59219 25.80264,-5.4434 z M 141.723,106.95593 c -19.18696,0 -34.7875,15.60799 -34.7875,34.78749 0,19.1795 15.60799,34.79287 34.7875,34.79287 19.1795,0 34.79285,-15.61337 34.79285,-34.79287 0,-19.1795 -15.6059,-34.78749 -34.79285,-34.78749 z m 0,11.83514 c 12.65221,0 22.95234,10.30758 22.95234,22.95235 0,12.64477 -10.29268,22.94701 -22.95234,22.94701 -12.65222,0 -22.947,-10.30224 -22.947,-22.94701 0,-12.64477 10.29478,-22.95235 22.947,-22.95235 z"
     style="fill:#000000;stroke-width:7.45124" />
</svg>
