<?xml version="1.0" encoding="UTF-8" standalone="no"?>
<!-- Generator: Adobe Illustrator 15.1.0, SVG Export Plug-In . SVG Version: 6.00 Build 0)  -->

<svg
   version="1.1"
   id="Layer_2"
   x="0px"
   y="0px"
   width="283.46px"
   height="283.46px"
   viewBox="0 0 283.46 283.46"
   enable-background="new 0 0 283.46 283.46"
   xml:space="preserve"
   sodipodi:docname="gps-alt.svg"
   inkscape:version="1.2.2 (b0a8486541, 2022-12-01)"
   xmlns:inkscape="http://www.inkscape.org/namespaces/inkscape"
   xmlns:sodipodi="http://sodipodi.sourceforge.net/DTD/sodipodi-0.dtd"
   xmlns="http://www.w3.org/2000/svg"
   xmlns:svg="http://www.w3.org/2000/svg"><defs
   id="defs10366" /><sodipodi:namedview
   id="namedview10364"
   pagecolor="#ffffff"
   bordercolor="#000000"
   borderopacity="0.25"
   inkscape:showpageshadow="2"
   inkscape:pageopacity="0.0"
   inkscape:pagecheckerboard="0"
   inkscape:deskcolor="#d1d1d1"
   showgrid="false"
   inkscape:zoom="0.52385673"
   inkscape:cx="-800.79147"
   inkscape:cy="234.79702"
   inkscape:window-width="1920"
   inkscape:window-height="1015"
   inkscape:window-x="0"
   inkscape:window-y="0"
   inkscape:window-maximized="1"
   inkscape:current-layer="Layer_2" />

<path
   d="m 62.288556,7.0834957 a 9.425255,9.425255 0 0 0 -9.42525,9.4252503 v 44.37141 h 9.42525 V 229.39833 h -9.42525 v 37.55291 a 9.425255,9.425255 0 0 0 9.42525,9.42526 h 43.259234 v -9.42526 h 72.36442 v 9.42526 h 43.25922 a 9.425255,9.425255 0 0 0 9.42526,-9.42526 v -37.55291 h -9.42526 V 60.880156 h 9.42526 V 16.508746 A 9.425255,9.425255 0 0 0 221.17143,7.0834957 Z M 75.753206,29.973406 H 207.70678 V 253.48659 H 75.753206 Z m 20.19698,17.50404 V 123.55272 H 187.50981 V 47.477446 Z M 141.73,140.99483 c -16.73117,0 -30.29546,13.56159 -30.29546,30.29546 0,16.73117 13.56429,30.29546 30.29546,30.29546 16.73117,0 30.29546,-13.56429 30.29546,-30.29546 0,-16.73387 -13.56429,-30.29546 -30.29546,-30.29546 z m -41.41457,76.90469 v 20.47165 h 20.94292 v -20.47165 z m 30.94177,0 v 20.47165 h 20.9456 v -20.47165 z m 30.94176,0 v 20.47165 h 20.94561 v -20.47165 z"
   fill="#000000"
   id="path10485"
   style="stroke-width:2.69293" /></svg>
