<?xml version="1.0" encoding="UTF-8" standalone="no"?>
<!-- Generator: Adobe Illustrator 15.1.0, SVG Export Plug-In . SVG Version: 6.00 Build 0)  -->

<svg
   version="1.1"
   id="Layer_2"
   x="0px"
   y="0px"
   width="283.46px"
   height="283.46px"
   viewBox="0 0 283.46 283.46"
   enable-background="new 0 0 283.46 283.46"
   xml:space="preserve"
   sodipodi:docname="gps.svg"
   inkscape:version="1.2.2 (b0a8486541, 2022-12-01)"
   xmlns:inkscape="http://www.inkscape.org/namespaces/inkscape"
   xmlns:sodipodi="http://sodipodi.sourceforge.net/DTD/sodipodi-0.dtd"
   xmlns="http://www.w3.org/2000/svg"
   xmlns:svg="http://www.w3.org/2000/svg"><defs
   id="defs10366" /><sodipodi:namedview
   id="namedview10364"
   pagecolor="#ffffff"
   bordercolor="#000000"
   borderopacity="0.25"
   inkscape:showpageshadow="2"
   inkscape:pageopacity="0.0"
   inkscape:pagecheckerboard="0"
   inkscape:deskcolor="#d1d1d1"
   showgrid="false"
   inkscape:zoom="1.4816906"
   inkscape:cx="277.7233"
   inkscape:cy="200.44671"
   inkscape:window-width="1920"
   inkscape:window-height="1015"
   inkscape:window-x="0"
   inkscape:window-y="0"
   inkscape:window-maximized="1"
   inkscape:current-layer="Layer_2" />

<path
   id="path11886"
   style="stroke-width:2.94168"
   d="m 79.254718,7.0834952 c -28.562505,0.01165 -53.775478,8.2231438 -65.88578,20.4840958 -0.301753,0.305508 -0.434011,0.589429 -0.430974,0.855548 -0.0038,0.266731 0.128422,0.551371 0.430974,0.857682 10.836546,10.97135 32.174738,18.681116 57.005996,20.193935 V 276.3765 h 23.488113 v -8.34853 c 16.805493,-0.76502 28.459763,-1.48853 34.149413,-6.2662 5.76567,-4.84494 17.4701,-6.69323 26.46867,-6.46676 v 1.21826 c 0.33102,-0.32126 0.68498,-0.61467 1.05183,-0.89396 v 7.03855 a 6.0978966,6.0978966 0 0 0 6.09978,6.09977 h 27.98562 v -6.09977 h 46.81836 v 6.09977 h 27.98774 a 6.0978966,6.0978966 0 0 0 6.09765,-6.09977 v -24.29461 h -6.09765 V 129.33521 h 6.09765 v -28.70675 a 6.0978966,6.0978966 0 0 0 -6.09765,-6.097654 H 161.63274 a 6.0978966,6.0978966 0 0 0 -6.09978,6.097654 v 28.70675 h 6.09978 v 109.02804 h -6.09978 v 5.23358 c -20.22277,0.59215 -26.26251,2.99143 -34.207,8.48081 -8.30071,5.7355 -13.65304,3.92276 -27.462913,4.30974 V 49.474756 c 24.831893,-1.512607 46.171383,-9.222372 57.008133,-20.193935 0.30256,-0.306311 0.43425,-0.590951 0.43098,-0.857682 0.003,-0.266119 -0.12922,-0.55004 -0.43098,-0.855548 C 138.76088,15.306639 113.54791,7.0951402 84.985397,7.0834952 h -0.0597 c -0.93899,0 -1.87428,0.01016 -2.80561,0.02773 -0.93196,-0.01764 -1.86599,-0.02773 -2.8056,-0.02773 z M 170.34398,109.33969 h 85.36925 v 144.60693 h -85.36925 z m 13.06579,11.32482 v 49.21859 h 59.23768 v -49.21859 z m 29.61777,60.50287 c -10.82463,0 -19.59867,8.77443 -19.59867,19.60081 0,10.82463 8.77404,19.60081 19.59867,19.60081 10.82462,0 19.60081,-8.77618 19.60081,-19.60081 0,-10.82638 -8.77619,-19.60081 -19.60081,-19.60081 z m -26.79297,49.75624 v 13.245 h 13.5501 v -13.245 z m 20.01899,0 v 13.245 h 13.5501 v -13.245 z m 20.01685,0 v 13.245 h 13.55223 v -13.245 z" /></svg>
