<?xml version="1.0" encoding="UTF-8" standalone="no"?>
<svg
   version="1.1"
   id="Layer_3"
   x="0px"
   y="0px"
   width="283.46px"
   height="283.46px"
   viewBox="0 0 283.46 283.46"
   enable-background="new 0 0 283.46 283.46"
   xml:space="preserve"
   sodipodi:docname="group-alt-2.svg"
   inkscape:version="1.2.2 (b0a8486541, 2022-12-01)"
   xmlns:inkscape="http://www.inkscape.org/namespaces/inkscape"
   xmlns:sodipodi="http://sodipodi.sourceforge.net/DTD/sodipodi-0.dtd"
   xmlns="http://www.w3.org/2000/svg"
   xmlns:svg="http://www.w3.org/2000/svg"><defs
   id="defs15"><style
     id="style2382">.cls-1{fill:none;stroke:#020202;stroke-miterlimit:10;stroke-width:1.91px;}</style></defs><sodipodi:namedview
   id="namedview13"
   pagecolor="#ffffff"
   bordercolor="#000000"
   borderopacity="0.25"
   inkscape:showpageshadow="2"
   inkscape:pageopacity="0.0"
   inkscape:pagecheckerboard="0"
   inkscape:deskcolor="#d1d1d1"
   showgrid="false"
   inkscape:zoom="1.0477135"
   inkscape:cx="0.47722971"
   inkscape:cy="181.34729"
   inkscape:window-width="1920"
   inkscape:window-height="1015"
   inkscape:window-x="0"
   inkscape:window-y="0"
   inkscape:window-maximized="1"
   inkscape:current-layer="Layer_3" />

<path
   id="path2503"
   style="color:#000000;fill:#020202;stroke-width:33.3333;stroke-miterlimit:10;-inkscape-stroke:none"
   d="M 140.68995,11.47804 A 42.820999,42.820999 0 0 0 97.867693,54.29836 42.820999,42.820999 0 0 0 140.68995,97.12062 42.820999,42.820999 0 0 0 183.51027,54.29836 42.820999,42.820999 0 0 0 140.68995,11.47804 Z m -10.64452,97.36524 v 50.30664 l -40.29883,30.26953 13.45508,17.89648 38.03516,-28.58398 38.03319,28.58398 13.45509,-17.89648 -40.29883,-30.26953 V 108.84328 Z M 50.482929,186.19679 A 42.820999,42.820999 0 0 0 7.6606625,229.01711 42.820999,42.820999 0 0 0 50.482929,271.83741 42.820999,42.820999 0 0 0 93.30324,229.01711 42.820999,42.820999 0 0 0 50.482929,186.19679 Z m 182.496091,0.14258 a 42.820999,42.820999 0 0 0 -42.82031,42.82031 42.820999,42.820999 0 0 0 42.82031,42.82227 42.820999,42.820999 0 0 0 42.82031,-42.82227 42.820999,42.820999 0 0 0 -42.82031,-42.82031 z" /></svg>
