<?xml version="1.0" encoding="UTF-8" standalone="no"?>
<svg
   version="1.1"
   id="Layer_3"
   x="0px"
   y="0px"
   width="283.46px"
   height="283.46px"
   viewBox="0 0 283.46 283.46"
   enable-background="new 0 0 283.46 283.46"
   xml:space="preserve"
   sodipodi:docname="group-alt-3.svg"
   inkscape:version="1.2.2 (b0a8486541, 2022-12-01)"
   xmlns:inkscape="http://www.inkscape.org/namespaces/inkscape"
   xmlns:sodipodi="http://sodipodi.sourceforge.net/DTD/sodipodi-0.dtd"
   xmlns="http://www.w3.org/2000/svg"
   xmlns:svg="http://www.w3.org/2000/svg"><defs
   id="defs15"><style
     id="style2382">.cls-1{fill:none;stroke:#020202;stroke-miterlimit:10;stroke-width:1.91px;}</style></defs><sodipodi:namedview
   id="namedview13"
   pagecolor="#ffffff"
   bordercolor="#000000"
   borderopacity="0.25"
   inkscape:showpageshadow="2"
   inkscape:pageopacity="0.0"
   inkscape:pagecheckerboard="0"
   inkscape:deskcolor="#d1d1d1"
   showgrid="false"
   inkscape:zoom="0.26192837"
   inkscape:cx="-1158.7137"
   inkscape:cy="-866.64916"
   inkscape:window-width="1920"
   inkscape:window-height="1015"
   inkscape:window-x="0"
   inkscape:window-y="0"
   inkscape:window-maximized="1"
   inkscape:current-layer="Layer_3" />

<path
   id="line2398"
   style="color:#000000;fill:#020202;stroke-width:33.3333;stroke-miterlimit:10;-inkscape-stroke:none"
   d="m 140.94485,7.0845207 c -7.20618,0 -13.73733,2.64927 -18.46681,6.9277303 -4.72842,4.27877 -7.6582,10.1836 -7.6582,16.70703 0,5.34131 1.96013,10.27227 5.26953,14.23047 3.31785,3.97092 7.99102,6.96947 13.39258,8.42383 -0.19227,0 -0.38425,0.004 -0.57617,0.008 -0.0172,0 -0.0355,-10e-4 -0.0527,0 -2.20814,0.0483 -4.38371,0.31851 -6.49414,0.79492 -0.0211,0.004 -0.0444,0.01 -0.0645,0.0137 -0.17294,0.0401 -0.34499,0.083 -0.51758,0.125 -0.0657,0.0156 -0.13189,0.0307 -0.19727,0.0469 -0.11845,0.0292 -0.237,0.0623 -0.35546,0.0937 -0.11881,0.0321 -0.23471,0.061 -0.35352,0.0937 -0.0527,0.0146 -0.10868,0.0303 -0.16211,0.0449 -0.7589,0.2134 -1.50793,0.45615 -2.24609,0.72266 -0.10721,0.0397 -0.2124,0.0771 -0.32031,0.11718 -3.25633,1.22092 -6.27482,2.96139 -8.89844,5.16407 -0.27804,0.23248 -0.55106,0.46696 -0.82031,0.70898 -2.71888,2.45742 -4.86482,5.35065 -6.34571,8.49024 -0.046,0.0989 -0.0962,0.1996 -0.14258,0.29882 -0.12021,0.26174 -0.23302,0.52515 -0.34375,0.79102 -0.85872,2.05829 -1.43618,4.21443 -1.72265,6.42187 v 15.417973 h 74.4668 V 77.309241 c -0.29175,-2.26437 -0.89789,-4.47508 -1.79493,-6.58203 -0.09,-0.21022 -0.17748,-0.42286 -0.27344,-0.63086 -0.0344,-0.0744 -0.071,-0.14823 -0.10546,-0.22265 -1.4837,-3.16758 -3.64073,-6.08928 -6.38282,-8.56641 -0.26503,-0.24011 -0.53637,-0.47092 -0.81054,-0.70117 -2.62609,-2.20617 -5.64711,-3.95032 -8.90625,-5.17188 -0.1037,-0.0394 -0.20811,-0.0761 -0.3125,-0.11328 -0.74484,-0.27032 -1.5031,-0.51484 -2.27149,-0.73047 -0.0474,-0.0143 -0.095,-0.0273 -0.14453,-0.041 -0.12162,-0.0337 -0.24416,-0.0655 -0.36719,-0.0977 -0.11248,-0.0296 -0.22755,-0.0609 -0.34179,-0.0898 -0.0678,-0.0169 -0.13834,-0.0342 -0.20899,-0.0508 -0.16767,-0.0413 -0.33838,-0.0823 -0.50781,-0.1211 -0.0225,-0.005 -0.0451,-0.01 -0.0683,-0.0156 -2.10973,-0.47514 -4.28331,-0.74463 -6.48828,-0.79297 -0.0172,-10e-4 -0.0371,0 -0.0547,0 -0.19227,-0.004 -0.38194,-0.008 -0.57422,-0.008 5.40155,-1.45435 10.07439,-4.45227 13.39258,-8.42383 3.30976,-3.95884 5.26954,-8.88916 5.26954,-14.23047 0,-6.52438 -2.92999,-12.42826 -7.66016,-16.70703 -4.72878,-4.2787803 -11.25867,-6.9277303 -18.46485,-6.9277303 -0.0524,0 -0.10548,0.002 -0.1582,0.002 -0.0527,-7e-4 -0.10352,-0.002 -0.15624,-0.002 z M 130.02296,111.38725 v 50.30859 l -40.298823,30.26759 13.455073,17.89648 38.03516,-28.58399 38.03321,28.58399 13.45507,-17.89648 -40.29883,-30.26759 v -50.30859 z m 101.32618,79.11523 c -7.20618,0 -13.73732,2.64929 -18.46681,6.92773 -4.72841,4.27878 -7.66014,10.18557 -7.66014,16.709 0,5.3413 1.96207,10.27031 5.27148,14.22851 3.31784,3.97092 7.99103,6.96948 13.39257,8.42383 -0.19227,0 -0.38425,0.004 -0.57617,0.008 -0.0172,0 -0.0355,-0.001 -0.0527,0 -2.20815,0.0483 -4.38568,0.3185 -6.4961,0.79492 -0.0211,0.004 -0.0425,0.01 -0.0625,0.0137 -0.17294,0.0401 -0.34499,0.083 -0.51758,0.12501 -0.0657,0.0156 -0.13383,0.0307 -0.19921,0.0469 -0.11845,0.0292 -0.23506,0.0623 -0.35351,0.0937 -0.11881,0.0321 -0.23667,0.061 -0.35548,0.0937 -0.0527,0.0146 -0.10672,0.0303 -0.16015,0.0449 -0.75889,0.2134 -1.50794,0.45614 -2.24609,0.72265 -0.10721,0.0397 -0.21436,0.0771 -0.32227,0.1172 -3.25632,1.22091 -6.27286,2.96138 -8.89648,5.16406 -0.27804,0.23247 -0.55107,0.46891 -0.82032,0.71094 -2.71887,2.45741 -4.86481,5.34869 -6.3457,8.48828 -0.0461,0.0989 -0.0962,0.1996 -0.14258,0.29882 -0.12022,0.26174 -0.23498,0.5271 -0.34571,0.79297 -0.85872,2.05829 -1.43617,4.21444 -1.72265,6.42188 v 15.41601 h 74.4668 v -15.41601 c -0.29175,-2.26437 -0.89594,-4.47704 -1.79296,-6.58398 -0.09,-0.21022 -0.17749,-0.42093 -0.27345,-0.62891 -0.0344,-0.0744 -0.071,-0.15019 -0.10546,-0.22461 -1.4837,-3.16758 -3.6427,-6.08732 -6.38477,-8.56445 -0.26503,-0.24012 -0.53638,-0.47287 -0.81055,-0.70313 -2.62608,-2.20618 -5.64711,-3.95033 -8.90624,-5.17187 -0.1037,-0.0394 -0.20812,-0.0761 -0.31251,-0.11328 -0.74483,-0.27033 -1.50115,-0.51485 -2.26954,-0.73047 -0.0474,-0.0143 -0.095,-0.0273 -0.14452,-0.041 -0.12162,-0.0337 -0.24417,-0.0655 -0.36718,-0.0977 -0.11248,-0.0296 -0.22757,-0.0609 -0.34181,-0.0898 -0.0678,-0.0169 -0.13832,-0.0343 -0.20898,-0.0508 -0.16766,-0.0413 -0.33839,-0.0823 -0.50781,-0.1211 -0.0225,-0.005 -0.0471,-0.008 -0.0703,-0.0137 -2.10972,-0.47514 -4.28329,-0.74463 -6.48828,-0.79297 -0.0172,-0.001 -0.0352,-0.002 -0.0527,-0.002 -0.19228,-0.004 -0.3839,-0.008 -0.57618,-0.008 5.40156,-1.45434 10.07634,-4.45226 13.39454,-8.42382 3.30976,-3.95884 5.26953,-8.88721 5.26953,-14.22851 0,-6.5244 -2.92997,-12.43022 -7.66016,-16.709 -4.72877,-4.27877 -11.26062,-6.92773 -18.46679,-6.92773 -0.0524,0 -0.10353,0.002 -0.15626,0.002 -0.0527,-7e-4 -0.10351,-0.002 -0.15624,-0.002 z m -179.548831,0.23047 c -7.206191,0 -13.737317,2.64929 -18.466797,6.92773 -4.728425,4.27878 -7.660156,10.18557 -7.660156,16.709 0,5.3413 1.962078,10.27031 5.271484,14.22851 3.317842,3.97092 7.991024,6.96948 13.392579,8.42382 -0.192273,0 -0.384252,0.004 -0.576173,0.008 -0.01722,0 -0.03551,-0.001 -0.05273,0 -2.208144,0.0483 -4.385666,0.31851 -6.496093,0.79492 -0.02109,0.004 -0.04246,0.01 -0.0625,0.0137 -0.17294,0.0401 -0.34499,0.083 -0.517577,0.12501 -0.06573,0.0156 -0.13384,0.0307 -0.19922,0.0469 -0.118457,0.0293 -0.235059,0.0623 -0.353516,0.0938 -0.118808,0.0321 -0.23666,0.061 -0.355468,0.0937 -0.05273,0.0146 -0.106728,0.0303 -0.160156,0.0449 -0.758897,0.21339 -1.507936,0.45614 -2.246094,0.72265 -0.107209,0.0397 -0.214355,0.0771 -0.322266,0.11719 -3.256328,1.22092 -6.272862,2.96139 -8.896484,5.16406 -0.27804,0.23248 -0.551061,0.46892 -0.820313,0.71094 -2.718879,2.45741 -4.864819,5.34869 -6.345702,8.48828 -0.04605,0.0989 -0.09618,0.1996 -0.142579,0.29883 -0.120214,0.26174 -0.23498,0.52709 -0.345702,0.79297 -0.858724,2.05829 -1.436182,4.21444 -1.722658,6.42188 v 15.41602 h 74.466793 v -15.41601 c -0.291749,-2.26438 -0.895932,-4.47705 -1.792969,-6.58399 -0.08998,-0.21022 -0.177478,-0.42092 -0.273437,-0.6289 -0.03445,-0.0744 -0.07102,-0.15019 -0.105469,-0.22461 -1.483696,-3.16758 -3.642687,-6.08732 -6.384766,-8.56445 -0.265034,-0.24012 -0.536374,-0.47288 -0.810547,-0.70313 -2.626083,-2.20618 -5.64711,-3.95033 -8.90625,-5.17187 -0.103693,-0.0394 -0.208103,-0.0761 -0.3125,-0.11329 -0.744836,-0.27032 -1.501145,-0.51484 -2.269531,-0.73046 -0.04745,-0.0143 -0.09497,-0.0273 -0.144531,-0.041 -0.121621,-0.0337 -0.244162,-0.0655 -0.367188,-0.0977 -0.11248,-0.0296 -0.227558,-0.0609 -0.341797,-0.0898 -0.06784,-0.0169 -0.138332,-0.0342 -0.208984,-0.0508 -0.167667,-0.0413 -0.338388,-0.0823 -0.507813,-0.1211 -0.0225,-0.005 -0.04711,-0.008 -0.07031,-0.0137 -2.109724,-0.47513 -4.2833,-0.74462 -6.488281,-0.79296 -0.01722,-0.001 -0.03516,-0.002 -0.05273,-0.002 -0.192272,-0.004 -0.3839,-0.008 -0.576171,-0.008 5.401554,-1.45434 10.076338,-4.45226 13.394531,-8.42382 3.309757,-3.95884 5.269531,-8.88721 5.269531,-14.22851 0,-6.52439 -2.929974,-12.43022 -7.660157,-16.709 -4.728782,-4.27875 -11.260631,-6.92771 -18.466803,-6.92771 -0.05237,0 -0.103525,0.002 -0.15625,0.002 -0.05273,-7e-4 -0.103524,-0.002 -0.15625,-0.002 z" /></svg>
