<?xml version="1.0" encoding="UTF-8" standalone="no"?>
<!-- Generator: Adobe Illustrator 15.1.0, SVG Export Plug-In . SVG Version: 6.00 Build 0)  -->

<svg
   version="1.1"
   id="Layer_3"
   x="0px"
   y="0px"
   width="283.46px"
   height="283.46px"
   viewBox="0 0 283.46 283.46"
   style="enable-background:new 0 0 283.46 283.46;"
   xml:space="preserve"
   sodipodi:docname="history-alt-2.svg"
   inkscape:version="1.2.2 (b0a8486541, 2022-12-01)"
   xmlns:inkscape="http://www.inkscape.org/namespaces/inkscape"
   xmlns:sodipodi="http://sodipodi.sourceforge.net/DTD/sodipodi-0.dtd"
   xmlns="http://www.w3.org/2000/svg"
   xmlns:svg="http://www.w3.org/2000/svg"><defs
   id="defs1831" /><sodipodi:namedview
   id="namedview1829"
   pagecolor="#ffffff"
   bordercolor="#000000"
   borderopacity="0.25"
   inkscape:showpageshadow="2"
   inkscape:pageopacity="0.0"
   inkscape:pagecheckerboard="0"
   inkscape:deskcolor="#d1d1d1"
   showgrid="false"
   inkscape:zoom="1.4816906"
   inkscape:cx="100.89826"
   inkscape:cy="88.412521"
   inkscape:window-width="1920"
   inkscape:window-height="1015"
   inkscape:window-x="0"
   inkscape:window-y="0"
   inkscape:window-maximized="1"
   inkscape:current-layer="Layer_3" />
<g
   id="g1826"
   transform="matrix(0.38829777,0,0,0.38829777,66.696553,84.696553)">
	<path
   d="M 141.729,7.084 C 67.367,7.084 7.084,67.367 7.084,141.73 c 0,74.363 60.283,134.646 134.645,134.646 74.364,0 134.647,-60.283 134.647,-134.646 0,-74.363 -60.283,-134.646 -134.647,-134.646 z m -7,19.163 c 0,-0.552 0.448,-1 1,-1 h 11.999 c 0.553,0 1,0.448 1,1 v 35.995 c 0,0.552 -0.447,1 -1,1 h -11.999 c -0.552,0 -1,-0.448 -1,-1 z M 44.716,78.792 75.888,96.79 v 10e-4 L 69.889,107.18 38.72,89.183 38.718,89.182 Z M 25.248,147.73 v -11.999 c 0,-0.265 0.106,-0.519 0.293,-0.707 0.093,-0.094 0.204,-0.167 0.324,-0.217 0.067,-0.027 0.142,-0.03 0.213,-0.042 0.057,-0.01 0.111,-0.034 0.17,-0.034 h 35.994 0.001 c 0.552,0 1,0.448 1,1 v 11.999 c 0,0.266 -0.105,0.518 -0.293,0.707 -0.188,0.186 -0.442,0.293 -0.707,0.293 H 62.242 26.248 c -0.552,0 -1,-0.447 -1,-1 z m 19.47,56.941 -5.999,-10.389 0.003,-0.002 31.168,-17.996 5.998,10.387 10e-4,0.002 z m 34.075,-159.955 10.391,-5.999 17.997,31.171 -0.002,10e-4 -10.388,5.998 -17.997,-31.17 z m 10.402,200.032 -10.392,-6 v -0.002 l 17.997,-31.17 10.381,5.994 0.01,0.006 z m 59.535,12.464 c 0,0.553 -0.447,1 -1,1 h -11.999 c -0.552,0 -1,-0.447 -1,-1 v -35.994 c 0,-0.553 0.448,-1 1,-1 h 11.999 c 0.553,0 1,0.447 1,1 z m -4.047,-97.498 c 0.643,0.236 1.045,0.549 1.045,0.896 v 31.328 c 0,0.74 -1.791,1.342 -4,1.342 -2.209,0 -4,-0.602 -4,-1.342 V 160.61 c 0,-0.346 0.402,-0.66 1.046,-0.896 -8.669,-1.414 -15.293,-8.918 -15.293,-17.987 0,-10.078 8.169,-18.247 18.247,-18.247 0.632,0 1.257,0.032 1.873,0.094 4.307,0.439 8.17,2.377 11.063,5.284 l 43.74,-24.311 c 1.314,-0.73 3.248,0.244 4.32,2.175 0.135,0.241 0.25,0.486 0.344,0.731 0.189,0.49 0.303,0.982 0.338,1.449 0.09,1.167 -0.295,2.181 -1.115,2.637 l -43.377,24.105 c 0.676,1.904 1.063,3.946 1.063,6.082 -0.001,9.07 -6.626,16.574 -15.294,17.988 z m 56.998,80.75 -7.41,4.279 -17.998,-31.172 0.008,-0.004 10.383,-5.994 17.998,31.17 z m -15.012,-164.57 -10.391,-6 0.002,-0.001 18,-31.171 10.385,5.997 0.006,0.003 z m 20.899,20.893 31.17,-17.991 5.996,10.39 0.002,0.002 -21.992,12.693 -9.178,5.297 -0.006,0.003 -5.998,-10.391 z m 31.178,107.882 -31.17,-17.998 5.998,-10.391 31.166,17.994 0.006,0.004 z m 18.466,-55.941 h -35.994 c -0.553,0 -1,-0.447 -1,-1 v -12 c 0,-0.265 0.105,-0.519 0.293,-0.707 0.188,-0.188 0.441,-0.293 0.707,-0.293 l 35.996,0.001 c 0.266,0 0.518,0.106 0.705,0.293 0.189,0.187 0.293,0.442 0.293,0.707 v 11.999 c 0,0.553 -0.447,1 -1,1 z"
   id="path1824" />
</g>
<g
   id="g1700"
   transform="translate(-3.783196e-5,-3.3677817e-4)">
	<path
   d="m 7.097,139.934 c 0.396,-27.091 10.09,-53.528 27.294,-74.443 6.698,-8.14 14.41,-15.355 22.921,-21.445 17.005,-12.167 37.13,-19.68 58.199,-21.729 31.959,-3.11 63.183,6.386 87.918,26.739 7.337,6.037 13.936,12.917 19.612,20.45 9.904,13.144 16.865,27.879 20.715,43.839 l 28.937,-0.045 c 1.314,-10e-4 2.53,0.699 3.188,1.833 0.657,1.137 0.66,2.54 0.006,3.679 l -41.621,72.351 c -0.245,0.544 -0.628,1.038 -1.139,1.423 -1.622,1.222 -3.926,0.899 -5.148,-0.72 -0.094,-0.122 -0.181,-0.252 -0.259,-0.388 l -42.026,-72.523 c -0.658,-1.137 -0.661,-2.54 -0.006,-3.678 0.655,-1.139 1.868,-1.843 3.183,-1.844 l 26.818,-0.043 c -3.161,-9.954 -7.946,-19.218 -14.26,-27.596 -4.395,-5.832 -9.508,-11.162 -15.193,-15.84 C 167.081,54.194 142.895,46.84 118.131,49.249 102.366,50.782 87.237,56.275 74.379,65.137 67.258,70.043 60.836,75.948 55.292,82.684 27.88,116.003 26.865,163.333 52.826,197.785 c 4.394,5.831 9.507,11.163 15.198,15.848 15.22,12.522 33.666,19.772 53.34,20.965 3.522,0.212 6.771,1.967 8.916,4.813 0.521,0.692 0.968,1.439 1.326,2.225 0.479,1.058 0.947,2.099 1.412,3.147 1.704,3.851 1.3,8.223 -1.077,11.692 -2.376,3.472 -6.307,5.43 -10.513,5.234 C 95.379,260.499 70.966,251.099 50.829,234.526 43.497,228.497 36.897,221.614 31.212,214.07 15.275,192.921 6.71,166.592 7.097,139.934 Z"
   id="path1698" />
</g></svg>
