<?xml version="1.0" encoding="UTF-8" standalone="no"?>
<!-- Generator: Adobe Illustrator 15.1.0, SVG Export Plug-In . SVG Version: 6.00 Build 0)  -->

<svg
   version="1.1"
   id="Layer_1"
   x="0px"
   y="0px"
   width="283.464px"
   height="283.464px"
   viewBox="0 0 283.464 283.464"
   enable-background="new 0 0 283.464 283.464"
   xml:space="preserve"
   sodipodi:docname="hive.svg"
   inkscape:version="1.2.2 (b0a8486541, 2022-12-01)"
   xmlns:inkscape="http://www.inkscape.org/namespaces/inkscape"
   xmlns:sodipodi="http://sodipodi.sourceforge.net/DTD/sodipodi-0.dtd"
   xmlns="http://www.w3.org/2000/svg"
   xmlns:svg="http://www.w3.org/2000/svg"><defs
   id="defs447" /><sodipodi:namedview
   id="namedview445"
   pagecolor="#ffffff"
   bordercolor="#000000"
   borderopacity="0.25"
   inkscape:showpageshadow="2"
   inkscape:pageopacity="0.0"
   inkscape:pagecheckerboard="0"
   inkscape:deskcolor="#d1d1d1"
   showgrid="false"
   inkscape:zoom="0.52384934"
   inkscape:cx="210.93851"
   inkscape:cy="341.7013"
   inkscape:window-width="1920"
   inkscape:window-height="1015"
   inkscape:window-x="0"
   inkscape:window-y="0"
   inkscape:window-maximized="1"
   inkscape:current-layer="Layer_1" />

<g
   style="fill:#000000"
   id="g2588"
   transform="matrix(22.441,0,0,22.441,-15.355005,-15.355005)"><path
     d="m 10.134766,10.26461 h 0.351562 v 0.37296 H 10.134766 Z M 9.4763125,8.90929 9.3005313,9.21374 10.134719,9.69536 v 0.40249 h 0.351562 V 9.49239 Z M 6.251875,10.26461 h 0.3515625 v 0.37296 H 6.251875 Z M 5.5934922,8.90929 5.4177109,9.21374 6.2518984,9.69536 v 0.40249 H 6.6034609 V 9.49239 Z M 10.134766,3.53922 h 0.351562 V 3.91218 H 10.134766 Z M 9.4763125,2.18383 9.3005313,2.48828 10.134719,2.9699 v 0.40247 h 0.351562 V 2.76693 Z M 6.251875,3.53922 H 6.6034375 V 3.91218 H 6.251875 Z M 5.5934922,2.18383 5.4177109,2.48828 6.2518984,2.9699 V 3.37237 H 6.6034609 V 2.76693 Z m 6.4826018,4.71773 h 0.351562 V 7.27452 H 12.076094 Z M 11.417711,5.54615 11.24193,5.8506 12.076117,6.33222 V 6.73471 H 12.42768 V 6.12925 Z M 11.058602,4.65637 V 2.41492 L 8.9413984,1.19254 7,2.31341 5.0586016,1.19254 2.9413984,2.41492 V 4.65637 L 1,5.77724 V 8.22196 L 2.9413984,9.34284 V 11.5851 L 5.0585781,12.80746 7,11.68659 8.9413984,12.80746 11.058578,11.5851 V 9.34284 L 13,8.22196 V 5.77724 Z M 7.1757812,2.61789 8.9413984,1.5985 10.707039,2.61789 V 4.65637 L 8.9414219,5.67576 7.1757812,4.65637 Z m -3.8827968,0 L 5.0586016,1.5985 6.8242187,2.61789 V 4.65637 L 5.0586016,5.67576 3.2929844,4.65637 Z M 1.3515625,8.01899 V 5.98021 l 1.7653828,-1.01925 1.765875,1.01953 v 2.0385 L 3.1171797,9.03836 Z M 6.8241953,11.38211 5.0585781,12.4015 3.2929609,11.38211 V 9.34335 L 5.0585781,8.32396 6.8241953,9.34335 Z M 5.2343828,8.01897 V 5.98047 L 7,4.9611 8.7656172,5.98049 v 2.0385 L 7,9.03836 Z M 8.9414219,12.4015 7.1757812,11.38211 V 9.34335 L 8.9413984,8.32396 10.707016,9.34335 v 2.03876 h 2.3e-5 z M 12.648438,8.01899 10.88282,9.03838 9.1172031,8.01899 v -2.0385 l 1.7658749,-1.01953 1.76536,1.01925 z M 8.1932031,6.90156 H 8.5447656 V 7.27452 H 8.1932031 Z M 7.5349141,5.54615 7.3591328,5.8506 8.1932969,6.33222 V 6.73471 H 8.5448594 V 6.12925 Z M 4.3105469,6.90156 H 4.6621094 V 7.27452 H 4.3105469 Z M 3.6520938,5.54615 3.4763125,5.8506 4.3105,6.33222 V 6.73471 H 4.6620625 V 6.12925 Z"
     id="path2579" /></g></svg>
