<?xml version="1.0" encoding="UTF-8" standalone="no"?>
<!-- Generator: Adobe Illustrator 15.1.0, SVG Export Plug-In . SVG Version: 6.00 Build 0)  -->

<svg
   version="1.1"
   id="Layer_2"
   x="0px"
   y="0px"
   width="283.46px"
   height="283.46px"
   viewBox="0 0 283.46 283.46"
   enable-background="new 0 0 283.46 283.46"
   xml:space="preserve"
   sodipodi:docname="home-alt-2.svg"
   inkscape:version="1.2.2 (b0a8486541, 2022-12-01)"
   xmlns:inkscape="http://www.inkscape.org/namespaces/inkscape"
   xmlns:sodipodi="http://sodipodi.sourceforge.net/DTD/sodipodi-0.dtd"
   xmlns="http://www.w3.org/2000/svg"
   xmlns:svg="http://www.w3.org/2000/svg"><defs
   id="defs1304" /><sodipodi:namedview
   id="namedview1302"
   pagecolor="#ffffff"
   bordercolor="#000000"
   borderopacity="0.25"
   inkscape:showpageshadow="2"
   inkscape:pageopacity="0.0"
   inkscape:pagecheckerboard="0"
   inkscape:deskcolor="#d1d1d1"
   showgrid="false"
   inkscape:zoom="1.4816906"
   inkscape:cx="138.01802"
   inkscape:cy="212.59499"
   inkscape:window-width="1920"
   inkscape:window-height="1015"
   inkscape:window-x="0"
   inkscape:window-y="0"
   inkscape:window-maximized="1"
   inkscape:current-layer="g1299" />
<g
   id="g1299">
	<path
   id="rect1589"
   style="stroke-width:24.0742;stroke-linecap:round;stroke-linejoin:round;paint-order:stroke fill markers"
   d="M 31.603516 5.46875 L 31.603516 79.027344 L 12.566406 91.634766 C 7.8834207 94.736757 5.9418179 100.19216 7.7578125 105.16016 C 9.5718071 110.13113 14.727987 113.49023 20.542969 113.49023 L 25.630859 113.49023 C 25.886481 113.49023 26.136427 113.44804 26.390625 113.43555 L 26.390625 124.26172 L 26.324219 124.30664 L 26.324219 277.73828 L 112.83203 277.73828 L 112.83203 185.5957 L 170.62695 185.5957 L 170.62695 277.73633 L 257.13477 277.73633 L 257.13477 170.15039 L 257.18555 170.15039 L 257.18555 113.37109 C 257.73402 113.43242 258.28448 113.49023 258.8418 113.49023 L 262.3457 113.49023 C 268.4087 113.49023 273.78676 109.98673 275.67773 104.80273 C 277.56673 99.61776 275.54113 93.92535 270.66016 90.693359 C 222.89128 59.067455 142.32031 5.7226563 142.32031 5.7226562 L 64.150391 57.480469 L 64.150391 5.46875 L 31.603516 5.46875 z M 197.39648 192.43359 L 235.99805 192.43359 L 235.99805 227.51562 L 197.39648 227.51562 L 197.39648 192.43359 z " />
	
</g>
</svg>
