<?xml version="1.0" encoding="UTF-8" standalone="no"?>
<!-- Generator: Adobe Illustrator 15.1.0, SVG Export Plug-In . SVG Version: 6.00 Build 0)  -->

<svg
   version="1.1"
   id="Layer_1"
   x="0px"
   y="0px"
   width="283.464px"
   height="283.464px"
   viewBox="0 0 283.464 283.464"
   enable-background="new 0 0 283.464 283.464"
   xml:space="preserve"
   sodipodi:docname="hook.svg"
   inkscape:version="1.2.2 (b0a8486541, 2022-12-01)"
   xmlns:inkscape="http://www.inkscape.org/namespaces/inkscape"
   xmlns:sodipodi="http://sodipodi.sourceforge.net/DTD/sodipodi-0.dtd"
   xmlns="http://www.w3.org/2000/svg"
   xmlns:svg="http://www.w3.org/2000/svg"><defs
   id="defs447" /><sodipodi:namedview
   id="namedview445"
   pagecolor="#ffffff"
   bordercolor="#000000"
   borderopacity="0.25"
   inkscape:showpageshadow="2"
   inkscape:pageopacity="0.0"
   inkscape:pagecheckerboard="0"
   inkscape:deskcolor="#d1d1d1"
   showgrid="false"
   inkscape:zoom="2.9633394"
   inkscape:cx="211.41689"
   inkscape:cy="150.50588"
   inkscape:window-width="1920"
   inkscape:window-height="1015"
   inkscape:window-x="0"
   inkscape:window-y="0"
   inkscape:window-maximized="1"
   inkscape:current-layer="Layer_1" />

<path
   id="path2611"
   style="fill:#000000"
   d="M 36.319894 6.5328238 A 8.91 8.91 0 0 0 35.786876 22.999937 L 35.786876 49.869971 A 7.438 7.438 0 0 1 20.97823 50.870276 L 25.551655 50.870276 A 1.0006 1.0006 0 0 0 26.082989 49.022619 C 26.023389 48.985519 20.187322 45.249027 20.901121 39.871133 A 1 1 0 0 0 19.2692 38.971532 A 14.1852 14.1852 0 0 0 28.349476 64.054585 A 14.2007 14.2007 0 0 0 42.533669 49.869971 L 42.533669 23.234212 A 8.91 8.91 0 1 0 36.319894 6.5328238 z M 39.445111 12.718789 A 2.1664 2.1664 0 0 1 41.609208 14.882886 A 2.1643 2.1643 0 1 1 39.445111 12.718789 z "
   transform="matrix(4.6353042,0,0,4.6353042,-3.1779771,-20.566782)" /></svg>
