<?xml version="1.0" encoding="UTF-8" standalone="no"?>
<!-- Generator: Adobe Illustrator 15.1.0, SVG Export Plug-In . SVG Version: 6.00 Build 0)  -->

<svg
   version="1.1"
   id="Layer_1"
   x="0px"
   y="0px"
   width="283.464px"
   height="283.464px"
   viewBox="0 0 283.464 283.464"
   enable-background="new 0 0 283.464 283.464"
   xml:space="preserve"
   sodipodi:docname="hook-alt.svg"
   inkscape:version="1.2.2 (b0a8486541, 2022-12-01)"
   xmlns:inkscape="http://www.inkscape.org/namespaces/inkscape"
   xmlns:sodipodi="http://sodipodi.sourceforge.net/DTD/sodipodi-0.dtd"
   xmlns="http://www.w3.org/2000/svg"
   xmlns:svg="http://www.w3.org/2000/svg"><defs
   id="defs447" /><sodipodi:namedview
   id="namedview445"
   pagecolor="#ffffff"
   bordercolor="#000000"
   borderopacity="0.25"
   inkscape:showpageshadow="2"
   inkscape:pageopacity="0.0"
   inkscape:pagecheckerboard="0"
   inkscape:deskcolor="#d1d1d1"
   showgrid="false"
   inkscape:zoom="2.9633394"
   inkscape:cx="170.92204"
   inkscape:cy="139.03234"
   inkscape:window-width="1920"
   inkscape:window-height="1015"
   inkscape:window-x="0"
   inkscape:window-y="0"
   inkscape:window-maximized="1"
   inkscape:current-layer="Layer_1" />

<path
   id="path2657"
   style="fill:#000000"
   d="M 177.63912 -0.00010875354 C 171.79613 -0.00010875354 167.0558 4.7355117 167.0558 10.579506 L 167.0558 74.06462 L 152.84072 74.06462 C 146.99772 74.06462 142.25739 78.800241 142.25739 84.644235 L 142.25739 201.03114 C 142.25739 202.85913 142.73036 204.65853 143.63136 206.24853 L 188.60122 285.60121 C 190.47922 288.91621 193.99315 290.96714 197.80315 290.96714 L 203.09481 290.96714 L 203.09481 322.7097 C 203.09481 328.55369 207.83143 333.28931 213.67443 333.28931 L 224.02381 333.28931 C 224.34381 355.00529 232.9282 375.37608 248.31719 390.76607 L 271.16232 413.6112 C 274.85832 417.3072 276.89589 422.22323 276.89589 427.45123 L 276.89589 428.94403 C 276.89589 439.73702 268.11529 448.51762 257.3223 448.51762 C 246.52931 448.51762 237.74871 439.73702 237.74871 428.94403 L 237.74871 414.6584 C 237.74871 397.15641 223.50914 382.91584 206.00616 382.91584 C 188.50317 382.91584 174.2636 397.15541 174.2636 414.6584 L 174.2636 428.94403 C 174.2636 474.74199 211.52435 512.00273 257.3223 512.00273 C 303.12025 512.00273 340.381 474.74199 340.381 428.94403 L 340.381 427.45123 C 340.381 405.26525 331.74118 384.40631 316.0542 368.71933 L 293.20907 345.87419 C 289.81107 342.47619 287.83763 338.04531 287.53863 333.28931 L 298.32248 333.28931 C 304.16548 333.28931 308.90581 328.54998 308.90581 322.70599 L 308.90581 290.96343 L 314.19376 290.96343 C 318.00476 290.96343 321.5214 288.91621 323.3994 285.60121 L 368.36555 206.24853 C 369.26655 204.65853 369.73952 202.85913 369.73952 201.03114 L 369.73952 84.644235 C 369.73952 78.800241 365.0029 74.06462 359.15991 74.06462 L 344.94112 74.06462 L 344.94112 10.579506 C 344.94212 4.7355117 340.2045 -0.00010875354 334.3615 -0.00010875354 L 292.03933 -0.00010875354 C 286.19634 -0.00010875354 281.45971 4.7355117 281.45971 10.579506 L 281.45971 74.06462 L 230.54091 74.06462 L 230.54091 10.579506 C 230.54091 4.7355117 225.80429 -0.00010875354 219.9613 -0.00010875354 L 177.63912 -0.00010875354 z M 188.21874 21.162834 L 209.38168 21.162834 L 209.38168 74.06462 L 188.21874 74.06462 L 188.21874 21.162834 z M 302.62266 21.162834 L 323.78189 21.162834 L 323.78189 74.06462 L 302.62266 74.06462 L 302.62266 21.162834 z M 256.00031 150.14575 C 264.7513 150.14575 271.87159 157.26233 271.87159 166.01332 C 271.87159 174.76431 264.7513 181.8846 256.00031 181.8846 C 247.24932 181.8846 240.12903 174.76431 240.12903 166.01332 C 240.12903 157.26233 247.24932 150.14575 256.00031 150.14575 z M 224.25776 290.96714 L 287.74287 290.96714 L 287.74287 312.12637 L 224.25776 312.12637 L 224.25776 290.96714 z "
   transform="matrix(0.52595991,0,0,0.52595991,7.0865206,7.0859947)" /></svg>
