<?xml version="1.0" encoding="UTF-8" standalone="no"?>
<!-- Generator: Adobe Illustrator 15.1.0, SVG Export Plug-In . SVG Version: 6.00 Build 0)  -->

<svg
   version="1.1"
   id="Layer_1"
   x="0px"
   y="0px"
   width="283.46px"
   height="283.46px"
   viewBox="0 0 283.46 283.46"
   enable-background="new 0 0 283.46 283.46"
   xml:space="preserve"
   sodipodi:docname="inspect.svg"
   inkscape:version="1.2.2 (b0a8486541, 2022-12-01)"
   xmlns:inkscape="http://www.inkscape.org/namespaces/inkscape"
   xmlns:sodipodi="http://sodipodi.sourceforge.net/DTD/sodipodi-0.dtd"
   xmlns="http://www.w3.org/2000/svg"
   xmlns:svg="http://www.w3.org/2000/svg"><defs
   id="defs2024" /><sodipodi:namedview
   id="namedview2022"
   pagecolor="#ffffff"
   bordercolor="#000000"
   borderopacity="0.25"
   inkscape:showpageshadow="2"
   inkscape:pageopacity="0.0"
   inkscape:pagecheckerboard="0"
   inkscape:deskcolor="#d1d1d1"
   showgrid="false"
   inkscape:zoom="2.9633812"
   inkscape:cx="107.14113"
   inkscape:cy="198.42199"
   inkscape:window-width="1920"
   inkscape:window-height="1015"
   inkscape:window-x="0"
   inkscape:window-y="0"
   inkscape:window-maximized="1"
   inkscape:current-layer="Layer_1" />
<path
   id="path13746"
   style="display:inline"
   d="M 114.54234 74.285718 L 29.958464 108.43204 L 54.652187 134.25019 C 54.869181 134.04315 55.124324 133.86881 55.417959 133.74937 L 139.24737 99.758137 C 133.01533 93.331969 114.54234 74.285718 114.54234 74.285718 z M 169.96872 75.116112 L 142.55118 100.03924 L 226.04617 133.74613 C 226.11383 133.774 226.17633 133.8157 226.24004 133.84953 C 226.30869 133.88437 226.3805 133.91433 226.44521 133.95616 C 226.51287 133.99896 226.57131 134.05242 226.631 134.10317 C 226.86193 134.1181 227.0898 134.1594 227.31276 134.22111 L 252.70764 109.26405 L 169.96872 75.116112 z M 138.13426 105.46427 L 62.684715 136.05799 L 99.995904 151.90333 C 101.15914 150.48194 102.39901 149.10169 103.7246 147.77559 C 113.35705 138.14525 125.66667 132.824 138.26996 131.759 L 138.13426 105.46427 z M 143.00192 105.47396 L 143.13924 131.54252 C 157.29713 131.58303 171.44207 136.9884 182.22754 147.77559 C 183.10489 148.653 183.89802 149.58107 184.70418 150.50103 L 218.65986 136.0176 L 143.00192 105.47396 z M 142.9793 132.90282 C 129.1232 132.90282 115.26541 138.18543 104.69878 148.74977 C 83.57585 169.88074 83.576145 204.18546 104.7117 225.28658 C 124.97079 245.5451 157.31545 246.39487 178.57154 227.81007 L 188.35856 237.59709 C 186.9747 241.02202 187.66591 245.05832 190.43131 247.82031 L 227.30953 284.7163 C 230.98701 288.39034 236.97 288.39034 240.65723 284.7163 C 244.33817 281.02908 244.33817 275.02898 240.65723 271.36699 L 203.77093 234.47261 C 201.01527 231.72443 196.96301 231.02443 193.55418 232.41117 L 183.76877 222.62415 C 202.34726 201.3646 201.5073 169.0037 181.25336 148.74977 C 170.69075 138.18543 156.8354 132.90282 142.9793 132.90282 z M 226.41775 137.39082 L 187.75919 154.3202 C 194.15252 163.06426 197.67919 173.23945 198.30875 183.58432 L 250.60742 161.37209 L 226.41775 137.39082 z M 54.766891 137.85448 L 30.666076 160.92296 L 87.54484 185.83317 C 87.767975 175.36009 90.915594 164.94876 97.021672 155.93252 L 55.380801 138.24868 C 55.260365 138.19592 55.152268 138.12797 55.044766 138.06128 C 55.015907 138.04336 54.983779 138.03173 54.955911 138.01281 C 54.887232 137.96602 54.830596 137.90824 54.766891 137.85448 z M 142.9793 141.60741 C 143.18896 141.60741 143.39369 141.6353 143.6029 141.63811 L 143.61583 144.0986 C 143.55423 144.09834 143.49328 144.09375 143.43165 144.09375 C 141.84926 144.09375 140.27982 144.18617 138.72555 144.35385 L 138.71262 141.81582 C 140.12329 141.68536 141.54475 141.60741 142.9793 141.60741 z M 143.43165 146.07926 C 154.46908 146.07926 164.90333 150.39818 172.70224 158.19591 C 188.82041 174.32337 188.82104 200.62931 172.70224 216.75162 C 164.90297 224.55204 154.46779 228.87311 143.43004 228.87311 C 132.3923 228.87311 121.95707 224.55187 114.15622 216.75162 C 106.35583 208.95423 102.03635 198.51901 102.03635 187.4778 C 102.03635 176.43558 106.35574 165.99595 114.15622 158.19429 A 3.0409551 3.0409551 0 0 0 114.15784 158.19429 C 121.95787 150.39717 132.39373 146.07926 143.43165 146.07926 z M 143.43165 152.1602 C 133.97057 152.1602 125.13919 155.81502 118.45682 162.49489 C 111.77385 169.17886 108.11729 178.0124 108.11729 187.4778 C 108.11729 196.94274 111.77432 205.77149 118.45682 212.45101 C 125.14053 219.13422 133.96986 222.79055 143.43004 222.79055 C 152.89022 222.79055 161.7196 219.13566 168.40164 212.45263 C 182.18799 198.66328 182.18863 176.28984 168.40164 162.49489 C 161.7203 155.81456 152.89215 152.1602 143.43165 152.1602 z M 143.43165 154.14572 C 143.51118 154.14572 143.58972 154.15164 143.66914 154.15218 L 143.69822 159.64021 A 28.19725 28.19725 0 0 1 155.41905 162.38342 L 161.81987 159.65314 C 163.37188 160.68605 164.84395 161.86316 166.23195 163.16858 L 160.60336 165.63391 A 28.19725 28.19725 0 0 1 171.49057 187.80737 A 28.19725 28.19725 0 0 1 170.52124 194.95619 L 176.39054 192.46501 C 176.08641 194.48228 175.59881 196.4782 174.92362 198.42317 L 171.86377 199.72854 C 171.56477 199.85654 171.25998 199.95049 170.95098 200.01449 L 170.34191 200.27459 C 170.33791 200.27559 170.33784 200.27582 170.33384 200.27782 C 170.21284 200.32982 170.08641 200.36476 169.95741 200.39576 C 169.92441 200.40376 169.89348 200.41761 169.86048 200.42161 C 169.84348 200.42761 169.82678 200.42569 169.80878 200.42969 C 169.66578 200.45469 169.52566 200.47169 169.38066 200.47169 L 169.36935 200.47169 C 169.16635 200.46969 168.96229 200.4336 168.76029 200.3796 C 168.71429 200.3676 168.66835 200.35583 168.62135 200.34083 C 168.58627 200.32961 168.55583 200.30654 168.52119 200.29398 A 28.19725 28.19725 0 0 1 143.75638 215.9713 L 143.75638 220.79696 C 143.64731 220.79798 143.5393 220.80504 143.43004 220.80504 C 141.88662 220.80504 140.36406 220.69649 138.8661 220.49485 L 138.8661 215.62719 A 28.19725 28.19725 0 0 1 117.24839 198.46033 L 114.964 200.72533 C 114.846 200.84033 114.71773 200.94552 114.58273 201.03552 C 114.57973 201.03752 114.57542 201.03837 114.57142 201.04037 C 114.39842 201.15237 114.20905 201.23385 114.01405 201.29885 C 113.96705 201.31785 113.92089 201.33047 113.87189 201.34247 C 113.66989 201.39847 113.46328 201.43518 113.24828 201.43618 C 113.24628 201.43618 113.24421 201.43779 113.24021 201.43779 C 113.20383 201.43779 113.16774 201.42935 113.13196 201.42487 C 112.23449 199.4783 111.53054 197.44756 111.02851 195.35039 L 112.70061 196.08223 L 115.67 193.1387 A 28.19725 28.19725 0 0 1 115.09648 187.80737 A 28.19725 28.19725 0 0 1 124.604 166.7228 L 119.30984 164.47556 C 119.49341 164.28331 119.67201 164.08756 119.86074 163.89881 C 120.96137 162.79859 122.12528 161.79212 123.33902 160.86965 L 129.30203 163.40283 A 28.19725 28.19725 0 0 1 138.80794 160.00048 L 138.77886 154.46721 C 140.30555 154.25768 141.85761 154.14572 143.43165 154.14572 z M 174.41311 154.28142 C 174.6359 154.49549 174.87736 154.68269 175.09649 154.9018 C 176.10557 155.91144 177.04094 156.96639 177.93501 158.04405 L 176.03997 158.87444 C 175.41889 158.16615 174.78121 157.46744 174.10615 156.79199 C 173.54105 156.22697 172.9589 155.68377 172.36782 155.15382 L 174.41311 154.28142 z M 110.42268 155.38323 L 113.05765 156.50281 C 112.95848 156.60007 112.8539 156.69045 112.75554 156.78876 A 1.9853899 1.9853899 0 0 0 112.75231 156.79038 C 111.62116 157.9217 110.56712 159.11044 109.57775 160.34298 L 107.06233 159.2751 C 108.10701 157.92748 109.21763 156.62293 110.42268 155.38323 z M 56.699092 177.63908 L 56.699092 241.77653 L 138.4816 276.65792 L 138.4816 242.25796 C 125.81212 241.24188 113.42385 235.94681 103.73752 226.26076 C 93.970108 216.50894 88.647846 203.99703 87.687008 191.21296 L 56.699092 177.63908 z M 222.69713 178.44525 L 198.38791 188.81709 C 197.99212 200.83287 193.75084 212.74918 185.60889 222.51752 L 193.99199 230.90063 C 197.68968 229.78263 201.84216 230.60171 204.74511 233.49682 L 216.63719 245.39213 L 222.74398 242.78786 C 222.71611 242.68235 222.69713 242.5663 222.69713 242.45183 L 222.69713 178.44525 z M 188.36017 187.38087 C 188.34601 189.21393 188.19028 191.04168 187.95629 192.86244 L 186.34235 193.55066 C 186.59674 191.73039 186.72822 189.89754 186.7527 188.06263 L 188.36017 187.38087 z M 97.682433 189.50532 L 100.17361 190.59582 C 100.31016 192.51619 100.56551 194.4146 100.94908 196.27933 L 98.309267 195.1226 C 97.979452 193.27818 97.783978 191.40161 97.682433 189.50532 z M 178.46491 229.6518 C 168.31214 238.11819 155.84172 242.34307 143.34926 242.43406 L 143.34926 276.65146 L 195.19558 254.53778 L 189.45713 248.7961 L 189.45713 248.79449 C 186.54639 245.88684 185.73284 241.73925 186.84802 238.03491 L 178.46491 229.6518 z M 138.8661 230.61629 C 140.37392 230.77407 141.8959 230.85862 143.43004 230.85862 C 143.53924 230.85862 143.64729 230.85135 143.75638 230.85054 L 143.75638 232.40955 C 143.49583 232.41392 143.24054 232.44671 142.9793 232.44671 C 141.59643 232.44671 140.22692 232.36772 138.8661 232.24638 L 138.8661 230.61629 z "
   transform="matrix(1.2089516,0,0,1.2089516,-29.134349,-76.944556)" />
</svg>
