<?xml version="1.0" encoding="UTF-8" standalone="no"?>
<!-- Generator: Adobe Illustrator 15.1.0, SVG Export Plug-In . SVG Version: 6.00 Build 0)  -->

<svg
   version="1.1"
   id="key-8"
   x="0px"
   y="0px"
   width="283.465px"
   height="283.465px"
   viewBox="0 0 283.465 283.465"
   enable-background="new 0 0 283.465 283.465"
   xml:space="preserve"
   sodipodi:docname="key-exchange.svg"
   inkscape:version="1.2.2 (b0a8486541, 2022-12-01)"
   xmlns:inkscape="http://www.inkscape.org/namespaces/inkscape"
   xmlns:sodipodi="http://sodipodi.sourceforge.net/DTD/sodipodi-0.dtd"
   xmlns="http://www.w3.org/2000/svg"
   xmlns:svg="http://www.w3.org/2000/svg"><defs
   id="defs243" /><sodipodi:namedview
   id="namedview241"
   pagecolor="#ffffff"
   bordercolor="#000000"
   borderopacity="0.25"
   inkscape:showpageshadow="2"
   inkscape:pageopacity="0.0"
   inkscape:pagecheckerboard="0"
   inkscape:deskcolor="#d1d1d1"
   showgrid="false"
   inkscape:zoom="0.7408322"
   inkscape:cx="-3.3745833"
   inkscape:cy="149.8315"
   inkscape:window-width="1920"
   inkscape:window-height="1015"
   inkscape:window-x="0"
   inkscape:window-y="0"
   inkscape:window-maximized="1"
   inkscape:current-layer="g3217" />

<g
   id="g3217"
   transform="matrix(0.66285286,0,0,0.66285286,47.784706,31.274949)"><path
     id="path2525"
     style="color:#000000;fill:#000000;stroke-width:16.7349;stroke-linecap:round;stroke-linejoin:round;-inkscape-stroke:none"
     d="m -9.1723678,167.7198 c 0.3039354,18.09681 7.8493531,36.024 22.3543228,48.92924 27.505731,24.47218 70.033814,21.9895 94.506035,-5.51624 2.22473,-2.5005 4.3134,-7.36403 6.53817,-9.86457 l 4.30922,-7.36456 8.20137,-1.66321 18.90017,-1.10272 25.58691,-28.75692 -17.38293,-0.39366 v 0.0313 l -33.67618,-0.4171 0.0123,-1.17573 -0.065,-8.9e-4 0.12247,-4.66377 0.0756,-5.98548 h 0.0808 l 0.0314,-1.17834 h 0.0287 v -8.9e-4 l 2.56521,0.0469 -0.0123,-0.0391 84.84479,1.56673 84.79785,1.52767 -19.95858,-17.75833 -148.14859,0.34933 -8.33692,-0.69865 -5.13822,-6.8119 c -2.63842,-4.58736 -5.14145,-6.81158 -8.8922,-10.14872 -27.505743,-24.472163 -70.031276,-21.989473 -94.5034347,5.51623 -10.706588,12.03377 -16.2543734,26.94132 -16.8042068,41.95575 -0.044198,1.20652 -0.056782,2.41458 -0.036518,3.62105 z m 28.6891388,-1.24611 c -0.06415,-6.02481 2.025226,-12.09239 6.342628,-16.94499 9.210434,-10.35212 25.088901,-11.27769 35.441072,-2.06729 10.352146,9.21046 11.277695,25.08634 2.067278,35.43848 -9.210477,10.35217 -25.086303,11.27769 -35.438454,2.06726 -5.499584,-4.89304 -8.339892,-11.66536 -8.412524,-18.49346 z m 158.795249,-4.50737 21.25421,18.9106 15.57114,-17.50287 z m 52.25308,1.69189 23.75425,21.13689 9.45009,-0.55267 17.80005,-20.00288 z" /><path
     id="path3237"
     style="fill:#000000;stroke-width:14.2529"
     d="m 28.210582,-36.492279 c -4.06205,0 -8.127049,1.248947 -11.226332,3.748004 L -30.631899,5.6521373 c -6.198405,4.9982407 -6.198405,13.1023777 0,18.1006187 L 16.98425,62.149169 c 6.198564,4.997856 16.251152,4.997856 22.449717,0 6.198402,-4.997859 6.198402,-13.10571 0,-18.103566 L 18.911289,27.50076 h 28.457721 28.45772 2.012489 0.04715 193.900266 20.19266 v 18.675194 a 3.0938092,3.0938092 0 0 0 3.09093,3.093872 h 20.5816 a 3.0938092,3.0938092 0 0 0 3.09388,-3.093872 V 5.0186304 A 3.0938092,3.0938092 0 0 0 315.94943,1.9719041 V 1.901187 H 295.37076 279.40344 75.82673 37.957749 18.911289 l 20.522678,-16.544844 c 6.198402,-4.998241 6.198402,-13.102378 0,-18.100618 -3.099283,-2.499057 -7.161336,-3.748004 -11.223385,-3.748004 z" /><path
     id="path3237-2"
     style="fill:#000000;stroke-width:14.2529"
     d="m 255.2544,369.77151 c 4.06205,0 8.12704,-1.24894 11.22633,-3.748 l 47.61615,-38.39641 c 6.1984,-4.99824 6.1984,-13.10238 0,-18.10062 l -47.61615,-38.39641 c -6.19857,-4.99786 -16.25115,-4.99786 -22.44972,0 -6.1984,4.99786 -6.1984,13.10571 0,18.10357 l 20.52268,16.54484 h -28.45772 -28.45772 -2.01249 -0.0471 H 11.678389 -8.5142709 v -18.67519 a 3.0938092,3.0938092 0 0 0 -3.0909301,-3.09388 h -20.5816 a 3.0938092,3.0938092 0 0 0 -3.09388,3.09388 v 41.15732 a 3.0938092,3.0938092 0 0 0 2.79627,3.04673 v 0.0707 h 20.57867 15.9673198 203.5767212 37.86898 19.04646 l -20.52268,16.54485 c -6.1984,4.99824 -6.1984,13.10237 0,18.10061 3.09928,2.49907 7.16134,3.74801 11.22339,3.74801 z" /></g></svg>
