<?xml version="1.0" encoding="UTF-8" standalone="no"?>
<!-- Generator: Adobe Illustrator 15.1.0, SVG Export Plug-In . SVG Version: 6.00 Build 0)  -->

<svg
   version="1.1"
   id="key-8"
   x="0px"
   y="0px"
   width="283.465px"
   height="283.465px"
   viewBox="0 0 283.465 283.465"
   enable-background="new 0 0 283.465 283.465"
   xml:space="preserve"
   sodipodi:docname="key-alt-2.svg"
   inkscape:version="1.2.2 (b0a8486541, 2022-12-01)"
   xmlns:inkscape="http://www.inkscape.org/namespaces/inkscape"
   xmlns:sodipodi="http://sodipodi.sourceforge.net/DTD/sodipodi-0.dtd"
   xmlns="http://www.w3.org/2000/svg"
   xmlns:svg="http://www.w3.org/2000/svg"><defs
   id="defs243" /><sodipodi:namedview
   id="namedview241"
   pagecolor="#ffffff"
   bordercolor="#000000"
   borderopacity="0.25"
   inkscape:showpageshadow="2"
   inkscape:pageopacity="0.0"
   inkscape:pagecheckerboard="0"
   inkscape:deskcolor="#d1d1d1"
   showgrid="false"
   inkscape:zoom="2.0953899"
   inkscape:cx="246.97074"
   inkscape:cy="119.78677"
   inkscape:window-width="1920"
   inkscape:window-height="1015"
   inkscape:window-x="0"
   inkscape:window-y="0"
   inkscape:window-maximized="1"
   inkscape:current-layer="key-8" />

<path
   id="path2353"
   style="color:#000000;fill:#000000;stroke-width:12.5379;stroke-linecap:round;stroke-linejoin:round;-inkscape-stroke:none"
   d="m 182.44582,246.28822 c 0.96351,-1.08293 1.50794,-2.47272 1.52296,-3.92215 l 1.16873,-113.71362 c 2.81128,-2.18794 5.30839,-4.52963 7.7779,-7.30527 25.43281,-28.585433 22.92568,-71.543173 -5.65974,-96.975953 -28.68563,-25.5219596 -72.30471,-22.0697496 -96.975961,5.65973 -24.671251,27.72949 -23.025871,71.454013 5.659749,96.975963 1.991503,1.77186 4.627112,3.68496 7.428352,5.42912 l 0.97875,16.4728 c 0.0928,1.58849 0.80434,3.07552 1.99308,4.13325 l 14.25191,12.68009 -12.68011,14.25191 c -2.17411,2.44443 -1.94941,6.29538 0.49436,8.47026 l 14.25191,12.68011 -12.6801,14.25191 c -1.05765,1.18878 -1.5913,2.74855 -1.49874,4.33701 l 1.03308,17.70115 c 0.0928,1.58847 0.80434,3.07552 1.99308,4.13324 l 37.46844,33.33612 c 2.44447,2.17424 6.29537,1.94954 8.47026,-0.49432 z m -6.04386,-4.59062 -23.56967,26.49135 -35.82187,-31.87115 -0.9564,-16.38739 14.7636,-16.59368 a 3.7868222,3.7868222 0 0 0 -0.31275,-5.35875 l -15.89848,-14.14505 14.14507,-15.89848 a 3.7868222,3.7868222 0 0 0 -0.31275,-5.35874 l -16.59369,-14.7636 -1.025,-17.56285 a 3.7868222,3.7868222 0 0 0 -2.05659,-3.14086 c -2.88637,-1.46117 -5.31636,-3.55005 -7.79427,-5.75468 C 75.383428,98.589807 73.998118,59.714477 95.932902,35.060687 c 21.934778,-24.6538 60.707318,-27.8002096 86.293048,-5.03627 25.6069,22.78278 27.81904,60.68611 5.03626,86.293043 -2.97796,3.3471 -5.24234,5.80128 -7.96919,7.59396 a 3.7868222,3.7868222 0 0 0 -1.70766,3.13506 z m -11.13916,-3.98454 -0.26135,-110.99368 0.52348,-6.24705 5.10372,-3.85015 c 3.43691,-1.97672 5.10373,-3.85016 7.60394,-6.66028 18.33479,-20.607563 16.47523,-52.469773 -4.13231,-70.804553 -20.60757,-18.3348 -52.46977,-16.47523 -70.80456,4.13232 -18.334791,20.60756 -16.475247,52.46975 4.13232,70.804553 1.8734,1.66678 5.51695,3.2303 7.39038,4.89711 l 5.51695,3.2303 1.24663,6.14374 0.82647,14.16091 21.54435,19.16827 0.29452,-13.02327 -0.0222,-9e-5 0.31128,-25.23038 0.88247,0.0107 8.9e-4,-0.0487 3.49488,0.0919 4.48382,0.0553 -3e-4,0.0621 0.88251,0.0234 -2.9e-4,0.0198 0.002,2e-4 -0.0345,1.92282 0.0296,-0.01 -1.17454,63.56566 -1.14429,63.53163 z m -22.70156,6.65335 0.43405,-38.21241 -15.83466,17.79753 0.41323,7.08044 z m 0.64759,-49.76978 1.05391,-27.59174 -14.16785,15.92409 z M 155.13168,79.339547 c -6.90055,7.75592 -18.7958,8.45015 -26.55171,1.54962 -7.75596,-6.90057 -8.45015,-18.79579 -1.54962,-26.55171 6.90054,-7.75592 18.79574,-8.45019 26.55171,-1.54962 7.75591,6.90053 8.45015,18.79578 1.54962,26.55171 z" /></svg>
