<?xml version="1.0" encoding="UTF-8" standalone="no"?>
<!-- Generator: Adobe Illustrator 15.1.0, SVG Export Plug-In . SVG Version: 6.00 Build 0)  -->

<svg
   version="1.1"
   id="key-8"
   x="0px"
   y="0px"
   width="283.465px"
   height="283.465px"
   viewBox="0 0 283.465 283.465"
   enable-background="new 0 0 283.465 283.465"
   xml:space="preserve"
   sodipodi:docname="key-alt-3.svg"
   inkscape:version="1.2.2 (b0a8486541, 2022-12-01)"
   xmlns:inkscape="http://www.inkscape.org/namespaces/inkscape"
   xmlns:sodipodi="http://sodipodi.sourceforge.net/DTD/sodipodi-0.dtd"
   xmlns="http://www.w3.org/2000/svg"
   xmlns:svg="http://www.w3.org/2000/svg"><defs
   id="defs243" /><sodipodi:namedview
   id="namedview241"
   pagecolor="#ffffff"
   bordercolor="#000000"
   borderopacity="0.25"
   inkscape:showpageshadow="2"
   inkscape:pageopacity="0.0"
   inkscape:pagecheckerboard="0"
   inkscape:deskcolor="#d1d1d1"
   showgrid="false"
   inkscape:zoom="2.0953899"
   inkscape:cx="246.97074"
   inkscape:cy="119.78677"
   inkscape:window-width="1920"
   inkscape:window-height="1015"
   inkscape:window-x="0"
   inkscape:window-y="0"
   inkscape:window-maximized="1"
   inkscape:current-layer="key-8" />

<path
   id="path2525"
   style="color:#000000;fill:#000000;stroke-width:14.931;stroke-linecap:round;stroke-linejoin:round;-inkscape-stroke:none"
   d="m 140.76756,7.0945832 c -16.14607,0.271178 -32.14078,7.0032378 -43.654909,19.9446368 -21.834184,24.540745 -19.619126,62.484511 4.921619,84.31872 2.23096,1.98491 6.57022,3.84843 8.80123,5.83337 l 6.57068,3.84472 1.48392,7.3173 0.98386,16.86282 25.65706,22.82876 0.35122,-15.50913 h -0.0279 l 0.37215,-30.04605 1.04899,0.0116 0.002,-0.0581 4.16104,0.10932 5.34029,0.0675 v 0.0721 l 1.05131,0.0279 v 0.0256 h 0.002 l -0.0419,2.28869 0.0349,-0.0116 -1.39786,75.69892 -1.363,75.65705 15.84408,-17.80714 -0.31168,-132.17887 0.62335,-7.43825 6.0776,-4.58436 c 4.09287,-2.354 6.07733,-4.58722 9.05474,-7.93366 21.83418,-24.540749 19.61911,-62.482221 -4.92161,-84.316399 -10.73658,-9.552463 -24.03717,-14.5022228 -37.43312,-14.9927858 -1.07647,-0.03942 -2.15429,-0.05064 -3.2307,-0.03256 z m 1.11179,25.5965878 c 5.37537,-0.05718 10.78887,1.806914 15.11839,5.658927 9.23622,8.217582 10.06202,22.38444 1.84445,31.620685 -8.21761,9.236233 -22.38215,10.062024 -31.61837,1.844443 -9.23627,-8.217629 -10.06201,-22.382124 -1.84443,-31.618358 4.36559,-4.906749 10.40788,-7.44089 16.49996,-7.505697 z m 4.02149,141.677869 -16.87212,18.96311 15.61614,13.89263 z m -1.50951,46.62045 -18.85843,21.19365 0.49309,8.43141 17.84667,15.88129 z" /></svg>
