<?xml version="1.0" encoding="utf-8"?>
<!-- Generator: Adobe Illustrator 15.1.0, SVG Export Plug-In . SVG Version: 6.00 Build 0)  -->
<!DOCTYPE svg PUBLIC "-//W3C//DTD SVG 1.1//EN" "http://www.w3.org/Graphics/SVG/1.1/DTD/svg11.dtd">
<svg version="1.1" id="Layer_1" xmlns="http://www.w3.org/2000/svg" xmlns:xlink="http://www.w3.org/1999/xlink" x="0px" y="0px"
	 width="283.464px" height="283.464px" viewBox="0 0 283.464 283.464" enable-background="new 0 0 283.464 283.464"
	 xml:space="preserve">
<g id="Layer_2_3_">
	<path d="M7.243,39.125c0.044,0.178,4.489,17.682,8.935,34.971C18.79,84.25,20.89,92.343,22.424,98.15
		c2.478,9.389,2.922,10.871,3.176,11.123l-0.002,0.006c4.297,3.006,18.661,13.184,23.053,17.958
		c1.659,1.804,3.34,6.499,4.848,11.986c1.098,3.991,2.104,8.403,2.945,12.426l-0.063,0.017l0.017,0.061l13.761,45.742l-0.855,0.212
		c-0.732,0.186-1.183,0.922-1.012,1.655l16.283,70.024c0.898,3.862,4.786,6.239,8.632,5.281l3.098-0.772
		c3.846-0.958,6.163-4.882,5.143-8.714l-18.498-69.473c-0.195-0.729-0.938-1.169-1.669-0.986l-0.855,0.213L71.088,148l-0.062,0.016
		c-1.147-3.946-2.328-8.315-3.234-12.356c-1.244-5.553-1.964-10.486-1.346-12.858c1.637-6.279,9.501-21.999,11.871-26.667
		l-0.004-0.003c0.104-0.344-0.202-1.863-2.428-11.311c-1.379-5.846-3.329-13.976-5.799-24.166
		c-4.205-17.348-8.513-34.887-8.557-35.063c-0.768-3.082-4.157-4.9-7.555-4.052L12.015,32C8.614,32.849,6.474,36.044,7.243,39.125z
		 M89.386,255.624l1.365-0.34c1.765-0.44,3.558,0.638,3.998,2.403l1.87,7.495c0.44,1.766-0.636,3.558-2.402,3.997l-1.365,0.341
		c-1.766,0.44-3.559-0.636-3.999-2.401l-1.869-7.497C86.544,257.856,87.62,256.063,89.386,255.624z M65.368,91.939L49.785,29.44
		c-0.425-1.702,0.612-3.425,2.313-3.849s3.426,0.611,3.849,2.313l15.582,62.499c0.424,1.701-0.612,3.425-2.313,3.849
		C67.515,94.675,65.792,93.64,65.368,91.939z M53.19,94.975L37.608,32.477c-0.425-1.702,0.611-3.425,2.312-3.85
		c1.703-0.424,3.425,0.612,3.849,2.313l15.583,62.499c0.424,1.701-0.612,3.424-2.313,3.848
		C55.337,97.711,53.615,96.676,53.19,94.975z M41.013,98.012L25.431,35.513c-0.423-1.701,0.611-3.425,2.313-3.848
		c1.702-0.426,3.426,0.609,3.849,2.312l15.583,62.499c0.423,1.701-0.612,3.425-2.314,3.85
		C43.162,100.748,41.439,99.712,41.013,98.012z M15.567,34.699c1.701-0.423,3.425,0.612,3.849,2.313l15.582,62.499
		c0.426,1.702-0.61,3.426-2.313,3.849c-1.701,0.424-3.424-0.611-3.849-2.313L13.255,38.549
		C12.83,36.847,13.866,35.124,15.567,34.699z"/>
	<path d="M193.826,270.558c0.982,1.663,2.557,2.84,4.434,3.307l3.097,0.773c1.856,0.462,3.78,0.175,5.42-0.81l0,0
		c1.676-1.007,2.842-2.611,3.285-4.515l16.282-70.025c0.177-0.763-0.296-1.536-1.056-1.727l-0.852-0.213l13.144-43.691
		c1.223-1.16,2.672-2.285,4.307-3.346l0.014-0.01c0.563-0.338,0.995-1.833,1.588-4.076c0.061-0.224,0.119-0.442,0.173-0.646
		c3.583-13.234,7.872-30.125,12.414-48.007l0.051-0.206c2.791-10.987,5.675-22.347,8.38-32.77c1.284-4.954,2.518-9.664,3.713-14.216
		l0.03-0.104c2.616-9.981,4.877-18.601,6.342-24.784c2.224-9.394,1.962-10.348,1.387-10.619l-0.059-0.021
		c-0.172-0.043-0.321-0.02-0.473,0.071c-0.612,0.369-1.645,2.023-4.647,11.506c-2.277,7.177-5.223,17.381-8.344,28.185
		c-0.721,2.496-1.456,5.045-2.205,7.629c-1.9,6.559-4.009,13.437-6.048,20.088c-2.23,7.28-4.337,14.151-6.095,20.326
		c-5.599,19.667-7.675,25.378-9.66,26.571c-0.606,0.365-1.205,0.316-2.034,0.108c-0.234-0.058-0.479-0.128-0.736-0.202l-0.313-0.088
		c-4.957-1.389-4.984-1.759-1.466-19.786l0.007-0.034c0.608-3.116,1.298-6.65,2.082-10.82c2.599-13.81,6.141-30.725,9.265-45.649
		c2.461-11.755,4.785-22.853,6.333-30.902c2.582-13.455,2.074-13.581,1.537-13.715l-0.156-0.039l-0.14,0.09
		c-1.833,1.258-6.22,19.72-12.22,45.664l-0.009,0.044c-1.706,7.376-3.317,14.344-4.697,20.017
		c-4.361,17.938-8.634,36.624-12.769,54.694l-0.191,0.844c-0.814,3.569-1.629,7.121-2.438,10.65
		c-0.039,0.166-0.075,0.329-0.114,0.487l-0.015,0.071c-0.35,1.476-0.624,2.642-0.148,3.513c1.3,2.38,2.185,4.732,2.624,6.99
		l-8.682,43.622l-0.854-0.212c-0.373-0.093-0.759-0.036-1.091,0.163c-0.322,0.192-0.554,0.501-0.65,0.865l-18.498,69.473
		C192.576,266.947,192.842,268.891,193.826,270.558z M198.018,265.135l1.868-7.495c0.21-0.841,0.734-1.547,1.475-1.994
		c0.742-0.445,1.612-0.574,2.452-0.366l1.363,0.34c0.841,0.209,1.548,0.733,1.995,1.476c0.444,0.742,0.575,1.612,0.365,2.451
		l-1.868,7.495c-0.209,0.839-0.731,1.547-1.475,1.992c-0.742,0.446-1.611,0.576-2.453,0.368l-1.364-0.341
		C198.644,268.629,197.585,266.868,198.018,265.135z"/>
</g>
</svg>
