<?xml version="1.0" encoding="utf-8"?>
<!-- Generator: Adobe Illustrator 15.1.0, SVG Export Plug-In . SVG Version: 6.00 Build 0)  -->
<!DOCTYPE svg PUBLIC "-//W3C//DTD SVG 1.1//EN" "http://www.w3.org/Graphics/SVG/1.1/DTD/svg11.dtd">
<svg version="1.1" id="Layer_1" xmlns="http://www.w3.org/2000/svg" xmlns:xlink="http://www.w3.org/1999/xlink" x="0px" y="0px"
	 width="283.464px" height="283.464px" viewBox="0 0 283.464 283.464" enable-background="new 0 0 283.464 283.464"
	 xml:space="preserve">
<g>
	<path fill="none" d="M95.582,194.266l-0.584,0.146v0.001l0.588-0.146c0.125-0.031,0.251-0.035,0.371-0.018
		C95.835,194.231,95.708,194.235,95.582,194.266z"/>
	<path fill="none" d="M87.343,196.319c-0.504,0.127-0.814,0.634-0.696,1.14l11.201,48.17c0.463,1.995,2.085,3.413,3.984,3.718
		c-1.897-0.307-3.517-1.724-3.98-3.716l-11.201-48.172c-0.117-0.504,0.193-1.012,0.696-1.139l0.588-0.146l-0.448-1.487
		c-0.001,0-0.002,0.001-0.003,0.001l0.448,1.486L87.343,196.319z"/>
	<path fill="none" d="M58.754,82.114c0.146-0.037,0.292-0.058,0.438-0.063C59.046,82.056,58.899,82.077,58.754,82.114
		c-1.171,0.291-1.883,1.477-1.591,2.647C56.872,83.591,57.584,82.405,58.754,82.114z"/>
	<path fill="none" d="M186.41,194.184c-0.258-0.063-0.522-0.024-0.752,0.112c-0.221,0.133-0.381,0.345-0.447,0.596l-12.726,47.791
		c-0.341,1.287-0.159,2.625,0.519,3.771c0.508,0.858,1.245,1.529,2.127,1.945c-0.881-0.416-1.616-1.086-2.123-1.945
		c-0.678-1.146-0.86-2.484-0.519-3.771l12.726-47.791c0.066-0.251,0.226-0.463,0.447-0.597c0.229-0.135,0.494-0.174,0.752-0.111
		l0.586,0.146l0.205-1.029c-0.001,0-0.003,0-0.004-0.001l-0.205,1.028L186.41,194.184z"/>
	<path fill="none" d="M210.667,205.187l0.004,0.001c0.001-0.004,1.143-4.918-11.754-9.108
		C211.814,200.271,210.667,205.187,210.667,205.187z"/>
	<path fill="none" d="M101.159,236.179c-1.064,0.264-1.764,1.241-1.719,2.295C99.396,237.42,100.096,236.443,101.159,236.179z"/>
	<path fill="none" d="M196.044,195.224c1.004,0.274,1.938,0.554,2.811,0.836C197.983,195.778,197.048,195.499,196.044,195.224z"/>
	<path fill="none" d="M176.057,248.73c-0.244-0.061-0.473-0.155-0.701-0.25c0.227,0.095,0.454,0.188,0.697,0.249L176.057,248.73z"/>
	<path fill="none" d="M265.786,153.779c0,0,0.001-0.001,0.001-0.002c-0.721,0.072-1.439,0.105-2.154,0.107
		c-1.683-0.002-3.354-0.173-5-0.428c1.646,0.256,3.318,0.426,5.002,0.43C264.349,153.885,265.066,153.851,265.786,153.779z"/>
	<path fill="none" d="M214.817,200.734L214.817,200.734c-0.099-0.191-0.224-0.383-0.338-0.574
		C214.592,200.351,214.717,200.542,214.817,200.734z"/>
	<path fill="none" d="M62.153,131.434c-1.023,0.255-2.059-0.258-2.498-1.174C60.094,131.176,61.129,131.69,62.153,131.434
		c1.025-0.254,1.699-1.194,1.655-2.209C63.851,130.24,63.178,131.18,62.153,131.434z"/>
	<path fill="none" d="M248.914,207.117L248.914,207.117c-0.024,0-0.054-0.002-0.08-0.002
		C248.86,207.115,248.888,207.117,248.914,207.117z"/>
	<path fill="none" d="M206.797,193.675c-0.512-0.259-1.043-0.515-1.61-0.767C205.754,193.161,206.285,193.417,206.797,193.675z"/>
	<path fill="none" d="M178.188,236.195c0.383-0.229,0.815-0.338,1.251-0.317C179.003,235.857,178.571,235.964,178.188,236.195z"/>
	<path fill="none" d="M176.873,94.38L176.873,94.38c-1.521-0.285-3.022-0.533-4.514-0.762
		C173.85,93.847,175.351,94.095,176.873,94.38z"/>
	<path fill="none" d="M182.501,238.442c-0.007,0.146-0.028,0.29-0.064,0.435C182.473,238.732,182.495,238.587,182.501,238.442z"/>
	<rect x="194.355" y="195.865" fill="none" width="0.001" height="0.6"/>
	<path fill="none" d="M183.792,56.036c-11.193-0.085-18.164,8.348-18.243,8.444l-0.002,0.005
		C165.546,64.485,172.535,55.952,183.792,56.036z"/>
	<path fill="none" d="M130.676,51.309c6.58-4.881,11.768-6.646,15.954-6.692c-4.186,0.046-9.375,1.812-15.956,6.692
		c-7.127,5.287-14.117,6.674-19.532,6.657C116.557,57.984,123.547,56.596,130.676,51.309z"/>
	<path fill="none" d="M176.325,78.964c-0.013,0.145-0.879,9.908-5.206,14.462c0.001,0,0.001,0,0.002,0
		c4.359-4.59,5.207-14.469,5.207-14.469C176.327,78.959,176.326,78.961,176.325,78.964z"/>
	<path fill="none" d="M102.021,75.824l0.001,0.003c5.235,6.626,9.745,10.971,13.458,13.816c3.728,2.856,8.332,4.269,12.98,4.047
		c-4.648,0.222-9.251-1.191-12.979-4.047C111.768,86.798,107.258,82.452,102.021,75.824z"/>
	<path fill="none" d="M79.171,52.981c3.78-2.614,8.125-3.493,12.421-3.403c-4.297-0.09-8.642,0.789-12.423,3.403
		c-13.515,9.345-6.066,41.292,25.164,47.409l0,0C73.103,94.272,65.654,62.326,79.171,52.981z"/>
	<path fill="none" d="M152.296,91.983c3.621-7.565,3.623-19.177,3.623-19.177c-0.001,0.002-0.001,0.004-0.002,0.007
		c0,0.142-0.024,11.653-3.623,19.17c1.465,0.013,2.953,0.049,4.467,0.112c0.521,0.021,1.041,0.022,1.557,0.004
		c-0.516,0.018-1.034,0.017-1.555-0.004C155.25,92.033,153.761,91.997,152.296,91.983z"/>
	<path fill="none" d="M80.498,124.609l-10.72-42.994c-0.01-0.038-0.022-0.075-0.034-0.112c-0.037-0.084-0.079-0.165-0.116-0.248
		c-0.037-0.084-0.071-0.17-0.107-0.254c-0.485-0.791-1.442-1.214-2.391-0.977c-0.439,0.109-0.814,0.345-1.095,0.658
		c0.281-0.313,0.655-0.548,1.094-0.657c0.949-0.237,1.906,0.186,2.391,0.977c0.036,0.084,0.07,0.17,0.107,0.254
		c0.036,0.084,0.078,0.165,0.116,0.248c0.012,0.037,0.024,0.074,0.034,0.112L80.498,124.609c0.218,0.877-0.128,1.763-0.807,2.275
		C80.371,126.373,80.717,125.486,80.498,124.609z"/>
	<path fill="none" d="M87.284,125.168c1.17-0.291,1.883-1.477,1.591-2.647l-6.489-26.029c-2.011-1.498-3.959-3.17-5.756-5.031
		l0,0.002c1.797,1.86,3.744,3.531,5.752,5.029l6.49,26.029c0.292,1.17-0.421,2.356-1.591,2.647
		c-0.146,0.037-0.292,0.057-0.437,0.063C86.99,125.225,87.137,125.205,87.284,125.168z"/>
	<path fill="none" d="M65.787,81.019c0.012-0.021,0.029-0.037,0.042-0.057C65.816,80.981,65.799,80.998,65.787,81.019z"/>
	<path fill="none" d="M70.091,129.409c-1.014,0.042-1.953-0.631-2.209-1.654L57.163,84.761l10.718,42.994
		C68.137,128.779,69.077,129.452,70.091,129.409z"/>
	<path fill="none" d="M107.119,56.58c-3.695,0.044-6.227-0.46-6.227-0.46l0.001,0C100.919,56.126,103.442,56.624,107.119,56.58z"/>
	<path fill="none" d="M194.451,194.809L194.451,194.809c0.378,0.095,0.735,0.19,1.096,0.286
		C195.186,195,194.829,194.904,194.451,194.809z"/>
	<path fill="none" d="M165.791,98.582c-1.197,5.894-1.271,14.363-1.179,19.519c0.034,1.873,0.104,3.633,0.146,4.551
		c0.001,0,0.001,0.001,0.002,0.001c-0.043-0.918-0.113-2.679-0.146-4.553c-0.092-5.156-0.019-13.624,1.18-19.519
		c-11.648-1.583-34.266-3.21-52.263,4.261l0,0C131.527,95.373,154.143,97,165.791,98.582z"/>
	<path fill="none" d="M164.82,122.695c0.001,0,0.001,0,0.002,0c-0.021-0.014-0.042-0.028-0.063-0.042c0,0,0,0.001,0,0.001
		C164.78,122.668,164.8,122.682,164.82,122.695z"/>
	<path fill="none" d="M118.544,118.699c-0.666,0.077-1.338,0.161-2.017,0.251l0,0C117.206,118.86,117.878,118.777,118.544,118.699
		c8.255-2.126,15.366-2.949,21.462-2.898C133.909,115.75,126.799,116.572,118.544,118.699z"/>
	<path fill="none" d="M48.761,86.672c0.01,0.06,0.011,0.119,0.026,0.178l10.719,42.993L48.787,86.849
		C48.772,86.79,48.771,86.731,48.761,86.672z"/>
	<rect x="93.542" y="126.459" fill="none" width="0.001" height="0.002"/>
	<path fill="none" d="M109.469,126.12L109.469,126.12c-0.364-2.562-0.945-9.666-1.377-11.665c-0.214-0.989-0.552-1.932-0.998-2.812
		c0.446,0.879,0.783,1.822,0.997,2.81C108.523,116.453,109.104,123.56,109.469,126.12z"/>
	<path fill="none" d="M213.794,65.929l-0.106-0.027l-0.097,0.062c-1.26,0.865-4.278,13.565-8.405,31.413l-0.006,0.03
		c-1.173,5.074-2.282,9.868-3.232,13.77c-1.837,7.555-3.651,15.302-5.433,23.027c-29.689-3.558-55.8-3.558-55.8-3.558
		s-23.084,0-50.737,3.074c0,0,0,0.001-0.001,0.002c27.654-3.074,50.739-3.074,50.739-3.074s26.112,0.001,55.8,3.558
		c1.782-7.725,3.596-15.472,5.433-23.027c0.95-3.902,2.059-8.696,3.232-13.77l0.006-0.03c4.127-17.848,7.145-30.548,8.406-31.413
		l0.096-0.062l0.107,0.027c0.092,0.023,0.183,0.046,0.239,0.21C213.979,65.975,213.887,65.952,213.794,65.929z"/>
	<path fill="none" d="M229.517,70.561l-0.039-0.015c-0.119-0.03-0.221-0.013-0.325,0.049c-0.422,0.253-1.132,1.392-3.196,7.915
		c-1.566,4.938-3.594,11.957-5.74,19.389c-0.496,1.717-1.002,3.471-1.518,5.249c-1.306,4.512-2.758,9.243-4.16,13.819
		c-1.535,5.007-2.982,9.734-4.191,13.982c-0.518,1.815-0.989,3.452-1.424,4.938c-2.744-0.418-5.483-0.802-8.202-1.156
		c0,0.001,0,0.001,0,0.002c2.719,0.354,5.459,0.738,8.202,1.156c0.436-1.486,0.908-3.122,1.425-4.937
		c1.209-4.248,2.657-8.974,4.192-13.982c1.401-4.575,2.853-9.307,4.159-13.819c0.515-1.778,1.022-3.532,1.517-5.249
		c2.147-7.432,4.175-14.451,5.74-19.389c2.065-6.523,2.775-7.662,3.197-7.915c0.104-0.062,0.206-0.079,0.325-0.049l0.039,0.015
		c0.052,0.024,0.099,0.057,0.14,0.108C229.617,70.619,229.569,70.585,229.517,70.561z"/>
	<path fill="none" d="M23.453,148.268c1.03-0.171,2.068-0.383,3.089-0.621c10.158-4.112,22.083-7.228,34.325-9.591
		c-0.001,0-0.001-0.001-0.002-0.001c-12.242,2.362-24.166,5.478-34.324,9.59c-1.021,0.237-2.059,0.45-3.089,0.621
		c-0.119-2.164-0.184-4.343-0.184-6.535c0-32.512,13.225-61.994,34.579-83.347c-21.354,21.354-34.58,50.835-34.58,83.348
		c0,2.193,0.065,4.371,0.184,6.535c-4.343,0.72-8.534,0.688-10.584-1.365C14.917,148.957,19.109,148.989,23.453,148.268z"/>
	<path fill="none" d="M254.237,147.22c-11.743-4.783-26.164-8.186-40.739-10.607c0,0,0,0.001,0,0.002
		c14.576,2.421,28.998,5.824,40.74,10.607c1.521,0.402,3.119,0.765,4.7,1.031c0.119-2.159,0.183-4.332,0.183-6.521c0,0,0,0,0-0.001
		c0,2.189-0.064,4.36-0.183,6.521C257.357,147.986,255.757,147.623,254.237,147.22z"/>
	<path fill="none" d="M186.746,51.852c-4.014-0.223-7.377,0.54-10.16,1.787c-9.254-1.978-12.592-8.661-23.281-13.069
		c-11.619-4.792-19.936,3.193-27.575,9.711c-3.933,3.356-8.5,4.994-12.638,5.741c-8.838-12.533-27.539-13.766-36.646-7.232
		c-8.912,6.394-11.109,18.376-8.24,28.5l-20.27,5.054c-2.34,0.584-3.812,2.782-3.283,4.902c0.03,0.122,3.088,12.164,6.146,24.057
		c1.797,6.984,3.242,12.552,4.297,16.547c0.924,3.502,1.436,5.397,1.739,6.433c-0.304-1.037-0.814-2.931-1.738-6.431
		c-1.055-3.995-2.5-9.562-4.297-16.547c-3.058-11.893-6.116-23.935-6.146-24.057c-0.529-2.12,0.943-4.319,3.283-4.902l20.27-5.054
		c-2.868-10.123-0.672-22.105,8.24-28.5c9.107-6.535,27.808-5.301,36.646,7.232c4.138-0.747,8.705-2.385,12.638-5.741
		c7.639-6.517,15.956-14.503,27.575-9.711c10.69,4.408,14.028,11.091,23.28,13.069c2.783-1.247,6.147-2.01,10.16-1.787
		c6.853,0.381,13.307,3.645,16.907,9.614c0.36,0.598,0.679,1.215,0.967,1.846c-0.288-0.632-0.607-1.25-0.968-1.849
		C200.053,55.497,193.598,52.233,186.746,51.852z"/>
	<path fill="none" d="M266.13,137.286c0,0,0.273-0.033,0.734-0.035c-0.463,0.002-0.736,0.035-0.736,0.035l-0.396,3.312
		c0,0,0.001,0,0.001,0L266.13,137.286z"/>
	<rect x="57.278" y="135.504" fill="none" width="0.003" height="0.002"/>
	<path fill="none" d="M270.378,145.888c1.394-2.37,1.081-5.526-1.897-5.74C271.458,140.362,271.772,143.518,270.378,145.888z"/>
	<path fill="none" d="M269.996,146.462c-1.179,1.563-3.381,2.179-6.006,2.229C266.616,148.641,268.818,148.026,269.996,146.462z"/>
	<path fill="none" d="M172.571,130.092c0.06,0.114,0.111,0.216,0.156,0.307C172.682,130.308,172.63,130.206,172.571,130.092
		L172.571,130.092z"/>
	<path fill="none" d="M242.803,205.208c-2.313-0.394-4.847-0.963-7.484-1.619l-0.009-0.002l-0.02-0.006l-0.218-0.05l-0.013-0.002
		l-19.393-3.948c-0.347-0.596-0.756-1.187-1.234-1.766l0.002,0.001c-0.814-0.985-1.805-1.927-2.987-2.817v-0.002
		c-2.069-1.555-4.714-2.971-8.179-4.274h-0.001c-5.203-1.946-12.306-3.653-22.377-4.913c-10.073-1.254-23.121-2.046-40.174-2.047
		c0,0-0.001,0-0.001,0c17.053,0.001,30.1,0.793,40.173,2.047c10.07,1.26,17.174,2.967,22.377,4.913h0.001
		c3.465,1.303,6.11,2.719,8.179,4.274V195c1.182,0.89,2.174,1.832,2.987,2.817l-0.002-0.001c0.478,0.579,0.887,1.17,1.233,1.766
		l19.394,3.948l0.013,0.002l0.219,0.05l0.019,0.006l0.009,0.002c2.637,0.656,5.171,1.225,7.484,1.619
		c1.151,0.197,2.251,0.35,3.275,0.452C245.052,205.558,243.955,205.406,242.803,205.208L242.803,205.208z"/>
	<path fill="none" d="M109.068,138.488c0.043-0.003,0.088-0.007,0.131-0.01C109.156,138.481,109.111,138.484,109.068,138.488z"/>
	<path fill="none" d="M248.898,205.816h0.003c-0.326,0-0.68-0.015-1.034-0.029C248.22,205.801,248.573,205.816,248.898,205.816z"/>
	<path fill="none" d="M23.354,153.535c1.486-0.215,2.952-0.506,4.368-0.834c0.298-0.072,0.482-0.13,0.765-0.244
		c5.01-2.027,10.542-3.83,16.376-5.412c10.211-2.773,21.341-4.876,32.269-6.456c16.395-2.37,32.333-3.561,44.146-4.157
		c5.905-0.297,10.782-0.445,14.173-0.52c1.695-0.038,3.019-0.057,3.915-0.065c0.449-0.005,0.788-0.008,1.016-0.008
		c0.113,0,0.199,0,0.255,0c0.028,0,0.048,0,0.061,0h0.014h0.002h0.002c0.147-0.003,18.209,0.013,41.179,2.063
		c11.515,1.026,24.263,2.565,36.565,4.855c6.151,1.144,12.191,2.474,17.902,4.015c5.71,1.54,11.092,3.29,15.918,5.257
		c0.2,0.081,0.426,0.155,0.635,0.213c1.411,0.372,2.905,0.705,4.428,0.985c-1.522-0.281-3.018-0.614-4.428-0.987
		c-0.211-0.057-0.436-0.131-0.636-0.212c-4.825-1.967-10.208-3.717-15.918-5.257c-5.711-1.541-11.751-2.871-17.901-4.016
		c-12.303-2.29-25.051-3.828-36.566-4.854c-22.971-2.05-41.033-2.065-41.179-2.063h-0.002h-0.002h-0.014c-0.013,0-0.034,0-0.061,0
		c-0.056,0-0.142,0-0.255,0c-0.228,0-0.568,0.004-1.016,0.008c-0.895,0.008-2.22,0.027-3.915,0.065
		c-3.39,0.075-8.267,0.223-14.173,0.52c-11.813,0.595-27.751,1.787-44.146,4.157c-10.928,1.579-22.059,3.683-32.269,6.455
		c-5.834,1.584-11.366,3.386-16.376,5.412c-0.283,0.115-0.467,0.174-0.765,0.244c-1.416,0.329-2.883,0.62-4.368,0.834
		c-1.488,0.213-2.993,0.348-4.506,0.35h0C20.361,153.882,21.866,153.746,23.354,153.535z"/>
	<path fill="none" d="M247.554,205.777c-0.281-0.016-0.586-0.045-0.883-0.069C246.968,205.732,247.272,205.761,247.554,205.777z"/>
	<path fill="none" d="M212.884,198.026c0.189,0.205,0.372,0.411,0.543,0.618c0.098,0.118,0.175,0.239,0.267,0.359
		c-0.092-0.119-0.168-0.24-0.266-0.358C213.257,198.437,213.074,198.231,212.884,198.026z"/>
	<path fill="none" d="M212.183,197.317c0.002,0.002,0.003,0.003,0.005,0.005C212.186,197.32,212.185,197.319,212.183,197.317z"/>
	<path fill="none" d="M16.986,154.576c-0.097-0.271-0.195-0.535-0.296-0.797c0.706,0.069,1.407,0.101,2.105,0.103
		c-0.7-0.002-1.4-0.034-2.106-0.104C16.79,154.039,16.888,154.304,16.986,154.576c0.884,2.461,1.711,5.334,2.507,8.489
		c0.239,0.949,0.474,1.93,0.706,2.923c-0.232-0.993-0.466-1.973-0.705-2.922C18.698,159.912,17.871,157.039,16.986,154.576z"/>
	<path fill="none" d="M26.343,201.809c-0.165-1.537-0.393-3.386-0.676-5.472c-0.993-7.299-2.661-17.502-4.635-26.655
		c-0.23-1.066-0.466-2.113-0.704-3.145c0.238,1.031,0.473,2.078,0.703,3.144c1.973,9.152,3.642,19.357,4.635,26.656
		C25.948,198.423,26.176,200.271,26.343,201.809c0.12,1.147,0.359,1.976,0.618,2.562c0.196,0.441,0.397,0.753,0.616,1.01
		c-0.218-0.256-0.419-0.567-0.615-1.01C26.703,203.785,26.465,202.957,26.343,201.809z"/>
	<path fill="none" d="M140.642,137.137c-0.001,0-0.001,0-0.003,0c-0.058,0-0.142,0.001-0.253,0.002c-0.004,0-0.012,0-0.017,0
		c0.005,0,0.014,0,0.02,0C140.5,137.138,140.584,137.137,140.642,137.137z"/>
	<path fill="none" d="M30.449,205.505c-0.577-0.141-0.985-0.313-1.262-0.469v0.002c0.277,0.155,0.684,0.326,1.259,0.467l0.003,0.002
		c0.753,0.186,1.816,0.312,3.092,0.311h0.002h0.001c-1.276,0.001-2.339-0.125-3.092-0.311L30.449,205.505z"/>
	<path fill="none" d="M18.848,155.182c1.591,0,3.158-0.144,4.689-0.362h0.001c1.531-0.218,3.036-0.518,4.479-0.855
		c0.335-0.076,0.637-0.172,0.957-0.303c4.95-2.005,10.436-3.791,16.229-5.363c10.14-2.754,21.225-4.85,32.114-6.422
		c2.946-0.426,5.876-0.813,8.772-1.167c-2.897,0.354-5.828,0.74-8.775,1.167c-10.888,1.573-21.973,3.668-32.114,6.422
		c-5.794,1.572-11.279,3.358-16.229,5.363c-0.32,0.131-0.622,0.227-0.957,0.303c-1.443,0.336-2.947,0.637-4.479,0.855h-0.001
		c-1.531,0.217-3.098,0.362-4.688,0.362C18.846,155.182,18.847,155.182,18.848,155.182L18.848,155.182z"/>
	<path fill="none" d="M135.478,137.211c1.691-0.037,3.009-0.056,3.901-0.064c0.017,0,0.027,0,0.043,0c-0.017,0-0.029,0-0.046,0
		c-0.892,0.008-2.211,0.026-3.901,0.064c-3.379,0.074-8.243,0.222-14.136,0.519c-3.608,0.181-7.606,0.419-11.882,0.729
		c4.277-0.31,8.276-0.548,11.885-0.729C127.234,137.433,132.099,137.285,135.478,137.211z"/>
	<path fill="none" d="M28.435,204.367c-0.087-0.128-0.181-0.289-0.284-0.521c-0.194-0.441-0.404-1.14-0.515-2.177
		c-0.167-1.551-0.396-3.41-0.681-5.506c-0.998-7.33-2.669-17.556-4.653-26.756c-0.497-2.302-1.013-4.537-1.547-6.658
		c-0.696-2.754-1.414-5.301-2.183-7.57c-0.001,0-0.002,0-0.003,0c0.769,2.269,1.487,4.816,2.183,7.57
		c0.534,2.121,1.05,4.356,1.547,6.658c1.984,9.2,3.655,19.426,4.653,26.756c0.285,2.096,0.514,3.955,0.681,5.506
		c0.111,1.037,0.321,1.736,0.515,2.177c0.103,0.233,0.197,0.393,0.284,0.521c0.086,0.124,0.168,0.219,0.271,0.32
		c0.131,0.125,0.265,0.227,0.481,0.352v-0.002c-0.214-0.124-0.348-0.226-0.478-0.35C28.603,204.587,28.521,204.491,28.435,204.367z"
		/>
	<path fill="none" d="M263.906,155.181L263.906,155.181c-0.091,0.001-0.182,0.002-0.274,0.002c0.001,0,0.001,0,0.001,0
		C263.722,155.183,263.812,155.182,263.906,155.181z"/>
	<polygon fill="none" points="251.595,205.602 251.688,205.584 251.676,205.586 	"/>
	<path fill="none" d="M185.698,139.563c4.55,0.443,9.251,0.964,14.014,1.582C194.949,140.527,190.248,140.005,185.698,139.563z"/>
	<path d="M9.723,151.483c-1.73-2.095-2.625-3.942-2.964-5.546c0.611,20.033,5.582,39.313,14.463,56.748
		c-0.014-0.107-0.029-0.213-0.041-0.323C19.922,190.608,14.492,157.255,9.723,151.483z"/>
	<path d="M275.617,146.389c0.359-1.343,0.338-2.521,0.071-3.533c0-0.001-0.001-0.002-0.001-0.003
		c0.004-0.374,0.014-0.747,0.014-1.122c0-35.928-13.99-69.706-39.396-95.111C210.9,21.215,177.121,7.224,141.194,7.224
		c-35.929,0-69.707,13.991-95.111,39.396C20.678,72.025,6.687,105.803,6.687,141.731c0,0.507,0.013,1.013,0.019,1.519
		c0.282-1.475,1.069-2.625,1.963-3.447c3.312-3.046,7.682-2.516,7.682-2.516v0.001c-0.02-0.002-4.376-0.523-7.68,2.516
		c-0.894,0.823-1.681,1.974-1.963,3.448c-0.154,0.801-0.156,1.695,0.053,2.688c0.339,1.604,1.234,3.451,2.964,5.546
		c4.769,5.772,10.199,39.125,11.458,50.879c0.012,0.11,0.027,0.216,0.041,0.323c0.469,3.74,1.971,6.181,4.227,7.667
		c5.678,9.539,12.579,18.437,20.633,26.489c25.405,25.404,59.183,39.396,95.111,39.396s69.706-13.991,95.111-39.396
		c8.028-8.028,14.913-16.895,20.579-26.397c0.002-0.001,0.005-0.003,0.007-0.004c2.38-1.507,3.954-4.035,4.396-7.983
		c0.001-0.005,0.002-0.01,0.002-0.015c8.736-17.234,13.65-36.268,14.321-56.039C275.614,146.399,275.616,146.394,275.617,146.389z
		 M270.378,145.888c1.394-2.37,1.08-5.526-1.897-5.74C271.459,140.362,271.772,143.518,270.378,145.888z M269.996,146.462
		c-1.178,1.563-3.38,2.179-6.006,2.229C266.615,148.641,268.817,148.026,269.996,146.462z M266.128,137.286
		c0,0,0.273-0.033,0.736-0.035c-0.461,0.002-0.734,0.035-0.734,0.035l-0.397,3.312c0,0-0.001,0-0.001,0L266.128,137.286z
		 M12.867,146.902c2.051,2.053,6.241,2.085,10.584,1.365c-0.119-2.164-0.184-4.342-0.184-6.535c0-32.513,13.226-61.995,34.58-83.348
		C79.2,37.03,108.682,23.805,141.194,23.805c65.025,0,117.926,52.901,117.927,117.926c0,0,0,0,0,0.001
		c0,2.189-0.063,4.362-0.183,6.521c-1.581-0.267-3.179-0.629-4.7-1.031c-11.742-4.783-26.164-8.186-40.74-10.607
		c0,0,0-0.001,0-0.002c0.762-2.99,1.541-6.052,2.33-9.16l0.034-0.142c1.92-7.558,3.904-15.373,5.765-22.542
		c0.885-3.408,1.731-6.647,2.556-9.78l0.021-0.072c1.801-6.866,3.354-12.796,4.362-17.049c1.331-5.628,1.368-6.852,1.093-7.197
		c-0.041-0.051-0.088-0.084-0.14-0.108l-0.039-0.015c-0.119-0.03-0.222-0.013-0.325,0.049c-0.422,0.253-1.132,1.392-3.197,7.915
		c-1.565,4.938-3.593,11.957-5.74,19.389c-0.494,1.717-1.002,3.471-1.517,5.249c-1.307,4.512-2.758,9.244-4.159,13.819
		c-1.535,5.008-2.983,9.734-4.192,13.982c-0.517,1.815-0.989,3.451-1.425,4.937c-2.743-0.418-5.483-0.802-8.202-1.156
		c0,0,0-0.001,0-0.002c0.382-1.959,0.81-4.159,1.288-6.703c1.787-9.5,4.225-21.136,6.373-31.403
		c1.692-8.087,3.291-15.721,4.356-21.258c1.333-6.949,1.469-8.729,1.297-9.225c-0.057-0.165-0.147-0.188-0.239-0.21l-0.107-0.027
		l-0.096,0.062c-1.262,0.865-4.279,13.565-8.406,31.413l-0.006,0.03c-1.174,5.074-2.282,9.868-3.232,13.77
		c-1.837,7.555-3.65,15.302-5.433,23.027c-29.688-3.557-55.8-3.558-55.8-3.558s-23.085,0-50.739,3.074c0-0.001,0-0.001,0.001-0.002
		c1.46-3.079,2.865-5.874,3.567-7.258l-0.001-0.001l-0.001-0.001c0,0,0-0.001,0-0.001c0.07-0.238-0.141-1.289-1.67-7.78
		c-0.949-4.021-2.291-9.614-3.989-16.624c-0.184-0.756-0.367-1.514-0.55-2.268c4.869,2.904,9.683,4.894,13.25,6.148
		c2.861,1.005,5.173,3.071,6.511,5.708c0.446,0.879,0.784,1.823,0.998,2.812c0.432,2,1.014,9.104,1.377,11.665c0,0,0,0.001,0,0.002
		c0,0,10.756-1.838,24.066-2.168c13.311-0.331,29.174,0.846,39.393,6.874c0,0-0.067-0.158-0.202-0.43
		c-0.045-0.09-0.097-0.193-0.156-0.307l0,0c-0.935-2.212-1.297-5.73-1.344-9.563c-0.108-8.798,1.428-19.234,1.428-19.234
		c-0.038,0.51,12.108-1.232,13.322-1.564c3.272-0.898,6.433-2.274,9.183-4.282c9.158-6.688,14.291-21.56,9.46-32.135
		c-0.288-0.631-0.606-1.249-0.967-1.846c-3.601-5.969-10.055-9.233-16.907-9.614c-4.013-0.223-7.377,0.54-10.16,1.787
		c-9.252-1.978-12.59-8.661-23.28-13.069c-11.619-4.792-19.936,3.194-27.575,9.711c-3.933,3.356-8.5,4.994-12.638,5.741
		c-8.838-12.533-27.539-13.767-36.646-7.232c-8.912,6.395-11.108,18.377-8.24,28.5l-20.27,5.054
		c-2.34,0.583-3.812,2.782-3.283,4.902c0.03,0.122,3.088,12.164,6.146,24.057c1.797,6.985,3.242,12.552,4.297,16.547
		c0.924,3.5,1.435,5.395,1.738,6.431c0.256,0.873,0.365,1.139,0.445,1.219c0,0,0,0.001,0.001,0.001l-0.001,0.003v0.001
		c0.789,0.552,2.072,1.457,3.585,2.547c0.001,0,0.001,0.001,0.002,0.001c-12.242,2.363-24.167,5.479-34.325,9.591
		c-1.021,0.238-2.059,0.45-3.089,0.621C19.109,148.989,14.917,148.957,12.867,146.902z M62.153,131.435
		c-1.023,0.255-2.059-0.259-2.498-1.175c-0.063-0.131-0.113-0.27-0.149-0.417L48.787,86.85c-0.015-0.06-0.016-0.119-0.026-0.178
		c-0.182-1.11,0.505-2.192,1.616-2.47c1.17-0.292,2.356,0.421,2.648,1.591l10.719,42.994c0.037,0.146,0.058,0.293,0.064,0.438
		C63.852,130.24,63.178,131.18,62.153,131.435z M57.163,84.761c-0.292-1.17,0.42-2.356,1.59-2.647
		c0.146-0.037,0.293-0.058,0.438-0.063c1.014-0.044,1.954,0.629,2.208,1.654l10.72,42.994c0.291,1.17-0.421,2.356-1.592,2.648
		c-0.146,0.036-0.292,0.057-0.437,0.063c-1.014,0.043-1.954-0.63-2.21-1.654L57.163,84.761z M78.908,127.256
		c-1.171,0.292-2.356-0.42-2.648-1.591L65.54,82.672c-0.146-0.585-0.041-1.174,0.247-1.653c0.012-0.021,0.029-0.037,0.042-0.057
		c0.063-0.098,0.129-0.193,0.207-0.28c0.281-0.313,0.656-0.549,1.095-0.658c0.949-0.237,1.906,0.186,2.391,0.977
		c0.036,0.084,0.07,0.17,0.107,0.254c0.037,0.083,0.079,0.164,0.116,0.248c0.012,0.037,0.024,0.074,0.034,0.112l10.72,42.994
		c0.219,0.877-0.127,1.764-0.807,2.275C79.464,127.054,79.2,127.183,78.908,127.256z M111.142,57.966
		c5.415,0.018,12.404-1.37,19.532-6.657c6.581-4.881,11.77-6.646,15.956-6.692c4.744-0.053,8.199,2.102,10.93,4.431
		c5.037,4.297,10.401,7.403,12.897,8.752c-3.395,3.253-4.884,6.625-4.908,6.68c0.079-0.096,7.05-8.529,18.243-8.444
		c1.608,0.012,3.304,0.2,5.079,0.614c15.366,3.584,14.016,19.68,7.836,28.791c-3.936,5.8-12.785,8.067-19.832,8.939h-0.001h-0.001
		c-1.521-0.285-3.022-0.533-4.514-0.762c-0.412-0.063-0.828-0.132-1.238-0.192l0,0c-0.001,0-0.001,0-0.002,0
		c4.327-4.554,5.193-14.317,5.206-14.462c-0.108,0.307-0.222,0.608-0.341,0.903c-2.93,7.261-9.928,11.957-17.666,12.232
		c-0.516,0.018-1.035,0.017-1.557-0.004c-1.514-0.063-3.002-0.099-4.467-0.112c3.599-7.517,3.623-19.028,3.623-19.17
		c-0.883,3.17-1.892,5.912-2.953,8.276c-2.895,6.449-9.006,10.885-16.038,11.596c-2.254,0.228-4.413,0.503-6.471,0.81
		c-0.664,0.099-1.33,0.164-1.995,0.196c-4.648,0.222-9.253-1.191-12.98-4.047c-3.714-2.846-8.223-7.19-13.458-13.816
		c0.029,0.078,5.471,14.528,14.235,20.587c-7.608,2.023-11.923,3.975-11.923,3.975c0,0-0.001,0-0.001,0l0,0
		c-31.23-6.117-38.679-38.064-25.164-47.409c3.781-2.614,8.126-3.493,12.423-3.403c9.455,0.197,18.679,5.085,21.162,6.503
		c-2.033,0.346-3.954,0.479-5.635,0.499c-3.677,0.044-6.2-0.454-6.226-0.459C100.911,56.128,105.019,57.945,111.142,57.966z
		 M113.53,102.843c17.997-7.471,40.614-5.844,52.263-4.261c-1.198,5.895-1.271,14.363-1.18,19.519
		c0.033,1.874,0.104,3.635,0.146,4.553c0.021,0.014,0.041,0.028,0.063,0.042c-0.001,0-0.001,0-0.002,0
		c-0.021-0.006-0.041-0.011-0.06-0.018c0-0.008,0-0.015-0.001-0.022c0,0,0-0.001,0-0.001c-0.001,0-0.001-0.001-0.002-0.001
		c-5.166-3.472-13.112-6.753-24.751-6.851c-6.097-0.051-13.207,0.771-21.461,2.898c-0.667,0.078-1.339,0.161-2.018,0.251l0,0
		C116.282,113.375,115.522,107.032,113.53,102.843L113.53,102.843z M84.637,123.577L76.63,91.463l0-0.002
		c1.797,1.861,3.745,3.533,5.756,5.031l6.489,26.029c0.292,1.17-0.421,2.356-1.591,2.647c-0.147,0.037-0.294,0.057-0.439,0.063
		C85.831,125.274,84.893,124.6,84.637,123.577z M141.195,259.66c-9.83,0-19.382-1.209-28.516-3.486
		c-27.402-6.832-51.041-23.276-67.119-45.527h0c2.339-0.529,4.737-1.145,7.143-1.779l18.063-3.679c0,0-1.424-6.1,16.717-10.501
		c0.001,0,0.002-0.001,0.003-0.001l0.448,1.487l-0.588,0.146c-0.503,0.127-0.813,0.635-0.696,1.139l11.201,48.172
		c0.463,1.992,2.083,3.409,3.98,3.716c0.633,0.103,1.296,0.082,1.958-0.083l2.131-0.531c2.646-0.659,4.24-3.357,3.538-5.994
		l-12.725-47.792c-0.101-0.376-0.414-0.641-0.777-0.696c-0.12-0.018-0.246-0.014-0.371,0.018l-0.588,0.146v-0.001l-0.239-1.2
		c10.297-1.739,24.991-2.957,45.958-2.957c21.325,0,36.162,1.26,46.484,3.046c0.001,0.001,0.003,0.001,0.004,0.001L187,194.332
		l-0.586-0.146c-0.258-0.063-0.522-0.023-0.752,0.111c-0.222,0.134-0.381,0.346-0.447,0.597l-12.726,47.791
		c-0.342,1.286-0.159,2.624,0.519,3.771c0.507,0.859,1.242,1.529,2.123,1.945c0.071,0.034,0.152,0.05,0.226,0.08
		c0.229,0.095,0.457,0.189,0.701,0.25l0,0l2.131,0.531c1.276,0.318,2.601,0.119,3.728-0.557c1.153-0.693,1.957-1.797,2.262-3.106
		l11.201-48.171c0.121-0.524-0.205-1.057-0.728-1.188l-0.004-0.001l-0.582-0.145v-0.001l0.386-1.283l0,0
		c0.378,0.095,0.735,0.19,1.096,0.286c0.164,0.043,0.338,0.086,0.498,0.129c1.004,0.274,1.938,0.554,2.811,0.836
		c0.02,0.006,0.042,0.013,0.063,0.02c12.896,4.19,11.755,9.104,11.754,9.108l0,0l23.08,4.7c1.039,0.259,2.071,0.504,3.094,0.737
		c-20.769,28.753-54.156,47.814-91.977,48.978C143.648,259.641,142.423,259.66,141.195,259.66z M104.482,245.503l-0.939,0.234
		c-1.215,0.303-2.448-0.438-2.751-1.652l-1.286-5.156c-0.038-0.152-0.06-0.304-0.066-0.455c-0.044-1.054,0.655-2.031,1.719-2.295
		l0.939-0.234c1.214-0.303,2.447,0.438,2.75,1.653l1.286,5.155C106.437,243.969,105.696,245.201,104.482,245.503z M175.824,243.168
		c0.006-0.148,0.027-0.298,0.064-0.446l1.285-5.156c0.145-0.578,0.505-1.063,1.015-1.371c0.383-0.23,0.815-0.338,1.251-0.317
		c0.146,0.007,0.291,0.028,0.436,0.064l0.938,0.233c0.145,0.036,0.283,0.086,0.415,0.148c0.395,0.186,0.726,0.484,0.957,0.867
		c0.229,0.384,0.338,0.815,0.316,1.251c-0.007,0.146-0.028,0.29-0.064,0.435l-1.286,5.156c-0.144,0.577-0.503,1.063-1.015,1.37
		c-0.51,0.308-1.108,0.396-1.688,0.254l-0.938-0.233C176.468,245.162,175.781,244.202,175.824,243.168z M258.189,187.153
		c-0.475,2.938-0.893,5.724-1.238,8.209c-0.349,2.487-0.623,4.677-0.812,6.448c-0.073,0.68-0.187,1.249-0.321,1.722
		c-0.115,0.411-0.249,0.75-0.387,1.028c-0.241,0.488-0.487,0.807-0.77,1.078c-0.215,0.201-0.457,0.383-0.771,0.555
		c-0.466,0.258-1.101,0.494-1.937,0.661c-0.834,0.169-1.859,0.263-3.039,0.263h-0.001h-0.001c-0.025,0-0.054-0.002-0.08-0.002
		c-1.795-0.005-3.928-0.228-6.252-0.626c-2.363-0.403-4.927-0.978-7.58-1.64l-0.22-0.049l-19.964-4.065c0,0,0-0.001-0.001-0.001l0,0
		c-0.1-0.191-0.225-0.383-0.338-0.574c-0.231-0.388-0.492-0.773-0.785-1.156c-0.092-0.12-0.169-0.241-0.267-0.359
		c-0.171-0.207-0.354-0.413-0.543-0.618c-0.221-0.236-0.451-0.472-0.696-0.704c-0.002-0.002-0.003-0.003-0.005-0.005
		c-0.23-0.218-0.472-0.433-0.726-0.646c-0.253-0.214-0.519-0.425-0.796-0.634c-1.087-0.818-2.365-1.604-3.864-2.361
		c-0.513-0.259-1.043-0.515-1.61-0.767c-0.743-0.329-1.535-0.652-2.38-0.97c-5.07-1.898-12.078-3.591-22.082-4.84
		c-10.002-1.246-22.999-2.037-40.012-2.038c-16.928,0.001-29.883,0.786-39.866,2.019c-7.487,0.93-13.303,2.11-17.889,3.434
		c-3.438,0.994-6.186,2.066-8.424,3.207c-1.677,0.853-3.069,1.744-4.232,2.678c-0.872,0.699-1.613,1.422-2.235,2.164
		c-0.599,0.713-1.083,1.447-1.459,2.173l-14.944,3.044l-0.289,0.068c-3.382,0.892-6.689,1.725-9.735,2.322
		c-1.522,0.299-2.977,0.537-4.335,0.701c-1.357,0.161-2.617,0.245-3.741,0.245c-1.369,0.001-2.531-0.128-3.427-0.349
		c-0.674-0.163-1.194-0.374-1.593-0.6c-0.3-0.17-0.535-0.347-0.743-0.547c-0.077-0.076-0.151-0.155-0.224-0.24
		c-0.219-0.257-0.419-0.568-0.616-1.01c-0.259-0.586-0.498-1.414-0.619-2.563c-0.166-1.537-0.394-3.385-0.676-5.471
		c-0.993-7.299-2.662-17.504-4.635-26.656c-0.23-1.065-0.465-2.112-0.703-3.144c-0.043-0.185-0.086-0.366-0.128-0.55
		c-0.232-0.993-0.467-1.974-0.706-2.923c-0.796-3.155-1.623-6.028-2.508-8.489c-0.097-0.271-0.195-0.537-0.296-0.798
		c0.706,0.069,1.407,0.102,2.106,0.104c0.017,0,0.034,0.001,0.051,0.001c1.513-0.002,3.018-0.137,4.506-0.35
		c1.485-0.214,2.952-0.505,4.368-0.834c0.298-0.07,0.482-0.129,0.765-0.244c5.01-2.026,10.542-3.828,16.376-5.412
		c10.21-2.771,21.341-4.875,32.269-6.455c16.395-2.37,32.333-3.562,44.146-4.157c5.906-0.297,10.783-0.445,14.173-0.52
		c1.695-0.038,3.02-0.057,3.915-0.065c0.448-0.004,0.788-0.008,1.016-0.008c0.113,0,0.199,0,0.255,0c0.027,0,0.048,0,0.061,0h0.014
		h0.002h0.002c0.146-0.002,18.208,0.013,41.179,2.063c11.516,1.026,24.264,2.565,36.566,4.854c6.15,1.145,12.19,2.475,17.901,4.016
		c5.71,1.54,11.093,3.29,15.918,5.257c0.2,0.081,0.425,0.155,0.636,0.212c1.41,0.373,2.905,0.706,4.428,0.987
		c0.268,0.049,0.529,0.11,0.8,0.155c0.162,0.027,0.326,0.049,0.489,0.074c1.646,0.255,3.317,0.426,5,0.428
		c0.715-0.002,1.434-0.035,2.154-0.107c0,0.001-0.001,0.002-0.001,0.002c0.001,0,0.002,0,0.003,0
		c-0.467,1.233-0.912,2.567-1.349,4.006c-0.985,3.25-1.918,7.012-2.796,11.006C260.33,174.778,259.143,181.274,258.189,187.153z"/>
	<path d="M150.611,156.051c-0.191-0.236-0.434-0.433-0.73-0.587c-0.295-0.155-0.666-0.239-1.11-0.248
		c-0.427-0.006-0.794,0.059-1.104,0.195c-0.309,0.139-0.567,0.322-0.775,0.551c-0.207,0.23-0.367,0.498-0.48,0.805
		c-0.115,0.306-0.197,0.617-0.252,0.93c2.008,0.02,3.01,0.036,5.016,0.082c-0.01-0.314-0.06-0.623-0.147-0.923
		C150.94,156.555,150.801,156.287,150.611,156.051z"/>
	<path d="M248.917,205.816h0.002h0.002h0.006c1.104,0.002,2.05-0.089,2.771-0.234l-0.022,0.005c0.004-0.001,0.008-0.002,0.012-0.002
		l0.013-0.003c0.729-0.146,1.239-0.347,1.564-0.526c0.227-0.125,0.365-0.229,0.5-0.354c0.095-0.093,0.171-0.177,0.249-0.285
		c0.077-0.107,0.161-0.242,0.255-0.431l-0.002,0.003c0.1-0.203,0.205-0.467,0.304-0.813l-0.001,0.003
		c0.112-0.394,0.213-0.892,0.277-1.507c0.193-1.789,0.468-3.989,0.816-6.487c0.346-2.498,0.767-5.291,1.246-8.237
		c0.954-5.9,2.145-12.415,3.467-18.436c0.883-4.016,1.82-7.805,2.82-11.104c0.233-0.771,0.471-1.511,0.709-2.226
		c-0.094,0.001-0.184,0.002-0.273,0.002c0,0,0,0-0.001,0s-0.002,0-0.003,0c-1.943-0.001-3.849-0.212-5.701-0.52h-0.001
		c-1.853-0.309-3.657-0.722-5.347-1.168c-0.268-0.07-0.535-0.16-0.791-0.264c-4.765-1.941-10.099-3.678-15.769-5.207
		c-5.669-1.527-11.677-2.852-17.801-3.99c-6.124-1.14-12.364-2.093-18.508-2.89c-4.763-0.618-9.464-1.139-14.014-1.582
		c-1.319-0.128-2.631-0.252-3.922-0.367c-21.72-1.939-39.053-2.053-40.899-2.059h-0.163h-0.002h-0.001h-0.002h-0.011
		c0,0-0.002,0-0.003,0c-0.012,0-0.029,0-0.053,0c-0.058,0-0.142,0.001-0.253,0.002c-0.005,0-0.014,0-0.02,0
		c-0.216,0-0.537,0.004-0.947,0.007c-0.016,0-0.027,0-0.043,0c-0.892,0.008-2.21,0.027-3.901,0.064
		c-3.379,0.074-8.244,0.222-14.136,0.519c-3.609,0.181-7.608,0.419-11.885,0.729c-0.087,0.006-0.171,0.012-0.258,0.019
		c-0.043,0.003-0.088,0.006-0.131,0.01c-7.066,0.518-14.883,1.234-22.979,2.222c-2.896,0.354-5.826,0.74-8.772,1.167
		c-10.889,1.573-21.974,3.668-32.114,6.422c-5.793,1.572-11.279,3.358-16.229,5.363c-0.32,0.131-0.622,0.227-0.957,0.303
		c-1.443,0.338-2.948,0.638-4.479,0.855h-0.001c-1.531,0.219-3.098,0.362-4.689,0.362h-0.001c0,0-0.001,0-0.001,0s0,0,0,0h-0.001
		c-0.09,0-0.181-0.002-0.272-0.003c0.769,2.27,1.487,4.816,2.183,7.57c0.534,2.121,1.05,4.356,1.547,6.658
		c1.984,9.2,3.655,19.426,4.653,26.756c0.285,2.096,0.514,3.955,0.681,5.506c0.111,1.037,0.321,1.735,0.515,2.177
		c0.103,0.231,0.197,0.393,0.284,0.521c0.086,0.124,0.168,0.221,0.271,0.32c0.13,0.124,0.264,0.226,0.478,0.35l0,0
		c0.001,0,0.002,0.001,0.003,0.002v-0.002c0.277,0.156,0.685,0.328,1.262,0.469l0.003,0.002c0.753,0.186,1.816,0.312,3.092,0.311
		h0.002h0.013h0.003c0,0,0.003,0,0.006,0c0.001,0,0.002,0,0.003,0h0.005c1.054,0,2.263-0.081,3.576-0.236h-0.001
		c1.317-0.158,2.743-0.392,4.24-0.686c2.996-0.587,6.28-1.413,9.653-2.305l0.015-0.006l0.331-0.076l14.374-2.928
		c0.367-0.627,0.8-1.248,1.31-1.854c0.681-0.813,1.484-1.597,2.417-2.343c1.243-0.997,2.712-1.934,4.456-2.822h0.001
		c2.326-1.184,5.152-2.285,8.652-3.297h0.001c4.668-1.348,10.55-2.538,18.089-3.473c10.052-1.244,23.056-2.028,40.024-2.029
		c0,0,0.001,0,0.001,0s0.001,0,0.001,0c17.053,0.001,30.101,0.793,40.174,2.047c10.071,1.26,17.174,2.967,22.377,4.913h0.001
		c3.465,1.304,6.109,2.72,8.179,4.274V195c1.183,0.891,2.173,1.832,2.987,2.817l-0.002-0.001c0.479,0.579,0.888,1.17,1.234,1.766
		l19.393,3.948l0.013,0.002l0.218,0.05l0.02,0.006l0.009,0.002c2.638,0.656,5.171,1.226,7.484,1.619h0.001
		c1.15,0.197,2.248,0.35,3.271,0.452c0.207,0.021,0.396,0.03,0.596,0.047c0.297,0.024,0.602,0.054,0.883,0.069
		c0.109,0.007,0.205,0.005,0.313,0.01c0.354,0.015,0.708,0.029,1.034,0.029h0.015H248.917z M67.018,197.792l0.055-0.065l0.001-0.001
		L67.018,197.792z M91.368,168.854c-0.421-0.51-0.913-1.056-1.475-1.638c-0.562-0.58-1.164-1.161-1.806-1.739
		c-0.643-0.579-1.309-1.126-2-1.64c-0.691-0.516-1.375-0.959-2.05-1.33c0.427,2.89,0.642,4.332,1.07,7.222
		c-1.546,0.229-2.318,0.351-3.862,0.595c-1.079-6.809-1.618-10.214-2.697-17.023c1.612-0.256,2.42-0.379,4.034-0.617
		c0.38,2.563,0.57,3.844,0.949,6.406c0.867-1.187,1.751-2.422,2.655-3.703c0.904-1.282,1.749-2.469,2.528-3.565
		c1.919-0.253,2.88-0.374,4.8-0.604c-1.056,1.533-2.114,3.02-3.172,4.457c-1.058,1.436-3.388,4.043-3.327,4.373
		c0.083,0.451,3.102,2.115,4.599,3.513c1.497,1.399,2.952,2.972,4.359,4.718C94.13,168.498,93.209,168.612,91.368,168.854z
		 M95.658,151.339c-0.078-0.676,0.091-1.233,0.507-1.672c0.416-0.439,0.937-0.693,1.562-0.762c0.626-0.068,1.191,0.066,1.692,0.404
		s0.787,0.85,0.856,1.525c0.069,0.676-0.104,1.23-0.52,1.666s-0.933,0.688-1.553,0.754c-0.619,0.068-1.178-0.067-1.676-0.4
		C96.026,152.52,95.736,152.014,95.658,151.339z M97.959,168.044c-0.593-5.198-0.89-7.795-1.484-12.994
		c1.531-0.176,2.296-0.26,3.828-0.42c0.544,5.203,0.817,7.808,1.361,13.012C100.182,167.796,99.44,167.876,97.959,168.044z
		 M112.223,166.781c-0.537,0.174-1.204,0.293-2,0.358c-1.012,0.083-1.861,0.022-2.549-0.192c-0.688-0.214-1.254-0.545-1.699-0.996
		c-0.444-0.449-0.781-1.011-1.006-1.688c-0.225-0.677-0.376-1.437-0.457-2.279c-0.419-4.377-0.63-6.567-1.049-10.944
		c1.523-0.385,2.285-0.576,3.813-0.947c0.133,1.537,0.2,2.307,0.332,3.843c1.843-0.159,2.766-0.231,4.61-0.369
		c0.091,1.229,0.137,1.847,0.229,3.076c-1.83,0.137-2.745,0.212-4.574,0.369c0.158,1.833,0.237,2.747,0.395,4.581
		c0.067,0.775,0.26,1.384,0.576,1.822c0.315,0.439,0.889,0.623,1.726,0.557c0.401-0.032,0.812-0.104,1.233-0.21
		c0.421-0.108,0.802-0.239,1.142-0.4c0.297,1.136,0.445,1.701,0.738,2.837C113.247,166.412,112.761,166.606,112.223,166.781z
		 M124.069,166.101c-0.641,0.162-1.354,0.262-2.134,0.302c-1.196,0.063-2.237-0.054-3.123-0.358
		c-0.887-0.303-1.629-0.741-2.228-1.316s-1.058-1.273-1.375-2.092c-0.318-0.818-0.512-1.711-0.58-2.688
		c-0.066-0.943,0.029-1.842,0.287-2.697c0.257-0.856,0.664-1.617,1.223-2.275c0.558-0.659,1.257-1.201,2.095-1.616
		s1.808-0.649,2.909-0.707c0.723-0.038,1.389-0.01,1.996,0.086c0.607,0.097,1.199,0.249,1.776,0.457
		c-0.269,1.196-0.401,1.791-0.665,2.988c-0.364-0.116-0.762-0.212-1.193-0.291c-0.431-0.079-0.912-0.106-1.441-0.079
		c-1.126,0.057-1.949,0.443-2.463,1.155c-0.514,0.711-0.735,1.622-0.669,2.729c0.07,1.176,0.382,2.068,0.931,2.684
		c0.549,0.617,1.458,0.889,2.731,0.824c0.453-0.022,0.937-0.088,1.453-0.195c0.515-0.107,0.987-0.262,1.415-0.463
		c0.264,1.203,0.396,1.805,0.657,3.009C125.245,165.757,124.71,165.939,124.069,166.101z M135.788,165.583
		c-0.045-2.776-0.066-4.164-0.111-6.938c-0.02-1.192-0.19-2.034-0.514-2.526c-0.325-0.49-0.915-0.729-1.769-0.711
		c-0.341,0.008-0.661,0.043-0.958,0.108s-0.564,0.136-0.801,0.208c0.104,3.977,0.157,5.964,0.261,9.941
		c-1.488,0.039-2.231,0.062-3.718,0.115c-0.267-7.476-0.402-11.212-0.67-18.689c1.55-0.293,2.327-0.438,3.882-0.717
		c0.066,2.506,0.099,3.76,0.165,6.266c0.256-0.09,0.586-0.176,0.988-0.26s0.793-0.129,1.172-0.137
		c1.102-0.023,2.02,0.106,2.755,0.385c0.735,0.279,1.325,0.686,1.767,1.213c0.442,0.527,0.754,1.152,0.939,1.881
		c0.185,0.729,0.281,1.541,0.285,2.438c0.02,2.953,0.029,4.428,0.049,7.383C138.021,165.552,137.275,165.559,135.788,165.583z
		 M154.753,159.732c-0.024,0.257-0.049,0.486-0.071,0.684c-3.42-0.109-5.132-0.146-8.554-0.182c0.076,0.764,0.431,1.374,1.063,1.83
		c0.632,0.455,1.485,0.691,2.558,0.712c0.687,0.013,1.362-0.036,2.028-0.144c0.665-0.107,1.21-0.246,1.636-0.418
		c0.166,1.209,0.25,1.816,0.414,3.025c-0.203,0.094-0.475,0.186-0.81,0.274c-0.336,0.089-0.706,0.17-1.116,0.233
		c-0.41,0.063-0.849,0.114-1.314,0.154c-0.467,0.04-0.933,0.055-1.398,0.045c-1.182-0.021-2.206-0.207-3.077-0.564
		c-0.868-0.355-1.591-0.838-2.164-1.446s-0.999-1.327-1.274-2.156s-0.414-1.724-0.414-2.686c0-1.161,0.182-2.179,0.551-3.048
		c0.368-0.869,0.852-1.59,1.456-2.166c0.603-0.578,1.299-1.014,2.085-1.305c0.785-0.291,1.592-0.429,2.418-0.414
		c1.928,0.031,3.441,0.635,4.523,1.803c1.082,1.166,1.58,2.856,1.51,5.06C154.794,159.24,154.779,159.476,154.753,159.732z
		 M169.287,159.08c-0.203,2.947-0.304,4.42-0.506,7.366c-1.488-0.102-2.232-0.147-3.718-0.235c0.164-2.771,0.247-4.155,0.411-6.926
		c0.07-1.193-0.04-2.048-0.335-2.563c-0.294-0.516-0.888-0.797-1.774-0.844c-0.272-0.016-0.564-0.019-0.873-0.01
		c-0.308,0.01-0.582,0.025-0.822,0.047c-0.197,4.033-0.299,6.049-0.498,10.084c-1.486-0.073-2.229-0.105-3.715-0.164
		c0.198-5.051,0.299-7.572,0.498-12.623c0.659-0.155,1.508-0.291,2.547-0.402c1.039-0.109,2.127-0.135,3.264-0.073
		c1.152,0.063,2.104,0.263,2.849,0.599c0.746,0.336,1.325,0.787,1.736,1.347c0.409,0.56,0.687,1.208,0.823,1.948
		S169.348,158.186,169.287,159.08z M188.476,162.472c-0.1,0.84-0.288,1.619-0.566,2.338c-0.281,0.718-0.691,1.322-1.229,1.82
		s-1.225,0.863-2.064,1.098c-0.839,0.232-1.869,0.284-3.097,0.159c-1.127-0.115-2.082-0.343-2.869-0.692
		c-0.789-0.349-1.432-0.732-1.932-1.142c0.626-1.153,0.938-1.728,1.573-2.878c0.461,0.326,0.957,0.621,1.487,0.889
		c0.531,0.27,1.125,0.434,1.776,0.5c0.953,0.096,1.66-0.061,2.128-0.479c0.467-0.416,0.76-1.168,0.877-2.256
		c0.483-4.471,0.728-6.705,1.211-11.174c1.62,0.176,2.431,0.264,4.049,0.455C189.285,155.656,189.013,157.927,188.476,162.472z
		 M196.569,157.289c0.124,0.234,0.315,0.455,0.572,0.666c0.256,0.211,0.556,0.416,0.901,0.606c0.346,0.192,0.736,0.39,1.149,0.604
		c0.864,0.446,1.617,0.899,2.245,1.321c0.628,0.423,1.132,0.882,1.514,1.376c0.379,0.495,0.633,1.049,0.762,1.653
		c0.129,0.608,0.129,1.323-0.002,2.142c-0.252,1.59-1.012,2.731-2.272,3.434c-1.26,0.703-3.015,0.883-5.276,0.565
		c-0.76-0.106-1.438-0.247-2.039-0.42c-0.6-0.173-1.125-0.354-1.58-0.547c-0.453-0.192-0.842-0.386-1.162-0.577
		c-0.321-0.189-0.592-0.365-0.807-0.525c0.59-1.17,0.891-1.754,1.488-2.922c0.482,0.348,1.091,0.681,1.82,1.004
		c0.728,0.321,1.641,0.56,2.74,0.713c0.551,0.078,1.008,0.098,1.379,0.06s0.677-0.12,0.916-0.245
		c0.238-0.124,0.418-0.287,0.533-0.488c0.116-0.199,0.19-0.431,0.229-0.693c0.082-0.559-0.117-1.063-0.601-1.51
		c-0.482-0.446-1.365-0.974-2.604-1.588c-0.543-0.269-1.087-0.578-1.626-0.91s-1.014-0.721-1.42-1.166
		c-0.408-0.446-0.719-0.963-0.938-1.551c-0.219-0.586-0.281-1.275-0.181-2.065c0.099-0.791,0.341-1.483,0.729-2.076
		c0.39-0.593,0.9-1.073,1.526-1.442c0.627-0.371,1.362-0.621,2.206-0.75c0.844-0.127,1.773-0.121,2.793,0.025
		c1.21,0.173,2.236,0.449,3.079,0.828c0.843,0.378,1.522,0.759,2.043,1.143c-0.653,1.137-0.978,1.709-1.623,2.848
		c-0.457-0.321-0.976-0.627-1.554-0.905c-0.578-0.279-1.301-0.478-2.156-0.601c-0.96-0.138-1.664-0.105-2.119,0.09
		c-0.455,0.197-0.719,0.557-0.79,1.082C196.403,156.778,196.446,157.055,196.569,157.289z"/>
</g>
</svg>
