<?xml version="1.0" encoding="utf-8"?>
<!-- Generator: Adobe Illustrator 15.1.0, SVG Export Plug-In . SVG Version: 6.00 Build 0)  -->
<!DOCTYPE svg PUBLIC "-//W3C//DTD SVG 1.1//EN" "http://www.w3.org/Graphics/SVG/1.1/DTD/svg11.dtd">
<svg version="1.1" id="Layer_1" xmlns="http://www.w3.org/2000/svg" xmlns:xlink="http://www.w3.org/1999/xlink" x="0px" y="0px"
	 width="283.464px" height="283.464px" viewBox="0 0 283.464 283.464" enable-background="new 0 0 283.464 283.464"
	 xml:space="preserve">
<g id="Layer_3_3_">
	<g>
		<path d="M270.927,102.677c-6.95-11.526-19.415-17.83-32.646-18.564c-7.75-0.432-14.247,1.042-19.62,3.45
			c-17.867-3.82-24.313-16.724-44.956-25.237c-22.438-9.252-38.497,6.167-53.248,18.754c-7.595,6.48-16.415,9.642-24.404,11.085
			C78.984,67.963,42.875,65.582,25.289,78.199C5.765,92.207,2.924,120.102,12.126,140.89c12.217,27.594,43.07,41.786,59.772,47.659
			c7.367,2.59,12.85,8.818,14.5,16.452c0.835,3.862,1.958,17.586,2.662,22.528c0,0,20.771-3.549,46.472-4.187
			c25.704-0.638,56.337,1.634,76.067,13.273c0,0-0.231-0.539-0.691-1.421c-1.805-4.271-2.504-11.066-2.595-18.469
			c-0.21-16.989,2.758-37.142,2.758-37.142c-0.073,0.984,23.381-2.378,25.725-3.021c6.32-1.733,12.422-4.389,17.732-8.268
			C273.266,154.61,283.287,123.175,270.927,102.677z M195.543,212.04c0.065,3.619,0.202,7.02,0.281,8.791
			c0.041,0.026,0.082,0.055,0.121,0.081c-0.039-0.013-0.08-0.023-0.119-0.037c0-0.015,0-0.027-0.002-0.044
			c-15.198-10.217-42.869-19.584-89.239-7.636c-1.287,0.15-2.585,0.311-3.897,0.484c-0.473-10.764-1.94-23.013-5.787-31.103
			c34.752-14.426,78.425-11.284,100.92-8.228C195.509,185.731,195.367,202.083,195.543,212.04z M257.515,148.972
			c-7.598,11.199-24.685,15.578-38.295,17.261c-3.752-0.702-7.455-1.313-11.109-1.842c8.419-8.86,10.056-27.938,10.056-27.938
			c-0.211,0.597-0.433,1.183-0.664,1.757c-6.035,14.954-21.005,24.274-37.116,23.611c-2.921-0.12-5.797-0.19-8.623-0.216
			c6.992-14.606,6.993-37.031,6.993-37.031c-1.704,6.128-3.653,11.426-5.706,15.994c-5.588,12.452-17.389,21.019-30.967,22.392
			c-4.353,0.441-8.522,0.971-12.495,1.563c-10.249,1.53-20.687-1.134-28.913-7.436c-7.174-5.495-15.882-13.888-25.996-26.687
			c0,0,10.521,28.029,27.492,39.762c-14.69,3.907-23.024,7.677-23.024,7.677c-60.311-11.813-74.694-73.502-48.596-91.547
			c23.364-16.152,57.875,2.002,64.851,5.986c-12.559,2.135-22.906,0.075-22.906,0.075s28.149,12.491,57.513-9.29
			c27.108-20.105,41.989-12.832,51.912-4.366c9.727,8.298,20.086,14.296,24.908,16.901c-6.608,6.335-9.483,12.909-9.483,12.909
			s17.626-21.522,45.039-15.13C272.059,100.298,269.45,131.379,257.515,148.972z"/>
	</g>
</g>
</svg>
