<?xml version="1.0" encoding="UTF-8" standalone="no"?>
<svg
   version="1.1"
   id="Layer_3"
   x="0px"
   y="0px"
   width="283.46px"
   height="283.46px"
   viewBox="0 0 283.46 283.46"
   enable-background="new 0 0 283.46 283.46"
   xml:space="preserve"
   sodipodi:docname="legend.svg"
   inkscape:version="1.2.2 (b0a8486541, 2022-12-01)"
   xmlns:inkscape="http://www.inkscape.org/namespaces/inkscape"
   xmlns:sodipodi="http://sodipodi.sourceforge.net/DTD/sodipodi-0.dtd"
   xmlns="http://www.w3.org/2000/svg"
   xmlns:svg="http://www.w3.org/2000/svg"><path
   id="path3248"
   style="stroke-width:33.3333"
   d="M 19.669449,7.0835129 V 56.046404 H 68.630386 V 7.0835129 Z M 105.35305,25.563982 V 37.804217 H 264.48 V 25.563982 Z M 43.519058,80.534685 a 24.48116,24.48116 0 0 0 -23.849609,24.472655 24.48116,24.48116 0 0 0 24.480469,24.48242 24.48116,24.48116 0 1 0 -0.63086,-48.955075 z m 61.767582,16.472656 v 0.05469 h -0.0977 v 12.242189 h 95.21289 V 97.062029 h -22.42968 v -0.05469 z M 19.669449,153.97023 v 48.96289 h 48.960937 v -48.96289 z m 85.765631,18.40235 v 0.0781 h -0.082 v 12.24024 h 85.68359 v -0.0781 h 73.52539 v -12.24023 z m -61.285162,57.59961 -25.251953,46.40429 h 50.503906 z m 61.232422,15.91992 v 0.002 h -0.0293 v 12.24024 h 29.26562 65.875 v -12.24219 z" /><defs
   id="defs15" /><sodipodi:namedview
   id="namedview13"
   pagecolor="#ffffff"
   bordercolor="#000000"
   borderopacity="0.25"
   inkscape:showpageshadow="2"
   inkscape:pageopacity="0.0"
   inkscape:pagecheckerboard="0"
   inkscape:deskcolor="#d1d1d1"
   showgrid="false"
   inkscape:zoom="0.37042264"
   inkscape:cx="-95.836474"
   inkscape:cy="321.25466"
   inkscape:window-width="1400"
   inkscape:window-height="1043"
   inkscape:window-x="396"
   inkscape:window-y="89"
   inkscape:window-maximized="0"
   inkscape:current-layer="Layer_3" />

</svg>
