<?xml version="1.0" encoding="UTF-8" standalone="no"?>
<!-- Generator: Adobe Illustrator 15.1.0, SVG Export Plug-In . SVG Version: 6.00 Build 0)  -->

<svg
   version="1.1"
   id="Layer_1"
   x="0px"
   y="0px"
   width="283.465px"
   height="283.465px"
   viewBox="0 0 283.465 283.465"
   enable-background="new 0 0 283.465 283.465"
   xml:space="preserve"
   sodipodi:docname="light-bulb-lit.svg"
   inkscape:version="1.2.2 (b0a8486541, 2022-12-01)"
   xmlns:inkscape="http://www.inkscape.org/namespaces/inkscape"
   xmlns:sodipodi="http://sodipodi.sourceforge.net/DTD/sodipodi-0.dtd"
   xmlns="http://www.w3.org/2000/svg"
   xmlns:svg="http://www.w3.org/2000/svg"><defs
   id="defs47">
	
	
	
	
	
	
	
	
	
	
	
	
	
	
	
	
	
	
	
	
</defs><sodipodi:namedview
   id="namedview45"
   pagecolor="#ffffff"
   bordercolor="#000000"
   borderopacity="0.25"
   inkscape:showpageshadow="2"
   inkscape:pageopacity="0.0"
   inkscape:pagecheckerboard="0"
   inkscape:deskcolor="#d1d1d1"
   showgrid="false"
   inkscape:zoom="1.047695"
   inkscape:cx="92.106962"
   inkscape:cy="88.289057"
   inkscape:window-width="1920"
   inkscape:window-height="1052"
   inkscape:window-x="1920"
   inkscape:window-y="0"
   inkscape:window-maximized="1"
   inkscape:current-layer="Layer_1" />

<g
   id="g779"
   transform="translate(2.9649769e-8,0.99999982)"><g
     id="g302"
     transform="matrix(1.1766342,0,0,1.1766342,-25.033228,-50.960391)">
	<path
   d="m 174.418,146.776 c 1.497,0.258 2.838,0.046 3.683,-1.12 1.516,-2.066 2.168,-3.683 2.25,-4.982 0.083,-1.4 -0.578,-2.296 -1.222,-2.828 z"
   id="path276" />
	<path
   d="m 169.293,134.957 c -0.845,-1.185 -2.534,-1.791 -5.115,-1.791 -0.982,0 -1.754,0.115 -2.323,0.354 -0.349,0.143 -0.597,0.322 -0.726,0.578 -0.267,0.533 -0.102,1.218 0.192,1.984 0.735,1.864 2.462,4.014 4.574,5.91 0.44,0.404 0.909,0.799 1.387,1.176 1.268,-1.64 2.121,-3.325 2.452,-4.887 0.276,-1.267 0.193,-2.433 -0.441,-3.324 z"
   id="path278" />
	<path
   d="m 149.704,133.166 c -2.553,0 -4.114,0.473 -4.821,1.52 -0.322,0.465 -0.423,1.033 -0.386,1.648 0.046,0.988 0.413,2.086 0.982,3.215 0.9,1.787 2.277,3.628 3.876,5.263 0.973,-1.057 1.754,-2.177 2.342,-3.292 2.177,-4.111 1.901,-8.354 -1.993,-8.354 z"
   id="path280" />
	<path
   d="m 138.242,136.146 c -0.44,-1.354 -1.424,-2.277 -2.984,-2.277 -2.25,0 -3.766,0.697 -4.61,1.905 -1.433,2.034 -1.047,5.193 0.275,8.018 0.771,1.607 1.874,3.141 3.214,4.298 2.066,-2.021 3.417,-4.537 4.032,-6.934 0.468,-1.845 0.523,-3.619 0.073,-5.01 z"
   id="path282" />
	<path
   d="m 121.114,134.355 c -0.312,-0.372 -0.881,-0.473 -1.717,-0.486 -1.442,-0.027 -2.461,0.215 -3.095,0.785 -0.708,0.624 -0.817,1.611 -0.662,2.723 0.211,1.529 0.956,3.266 2.039,4.964 0.321,-0.422 0.643,-0.854 0.937,-1.281 1.249,-1.813 2.205,-3.559 2.563,-5.015 0.174,-0.693 0.266,-1.29 -0.065,-1.69 z"
   id="path284" />
	<path
   d="m 141.732,77.016 c -37.053,0 -67.135,30.082 -67.135,67.135 0,37.057 30.082,67.135 67.135,67.135 37.058,0 67.135,-30.078 67.135,-67.135 0,-37.053 -30.077,-67.135 -67.135,-67.135 z m 38.739,70.377 c -1.571,2.148 -3.995,2.773 -6.778,2.231 -0.229,-0.037 -0.459,-0.092 -0.688,-0.156 l -24.484,46.434 c -0.377,0.717 -1.268,0.992 -1.984,0.615 -0.716,-0.376 -0.991,-1.267 -0.605,-1.983 l 24.291,-46.094 c -0.836,-0.396 -1.671,-0.863 -2.498,-1.387 -2.021,2.029 -4.573,3.885 -7.549,5.253 -1.855,0.863 -4.399,0.478 -7.035,-0.919 -1.249,-0.67 -2.525,-1.543 -3.747,-2.571 -1.644,1.368 -3.6,2.571 -5.878,3.518 -3.352,1.387 -6.529,0.946 -9.184,-0.551 -0.193,0.146 -0.376,0.275 -0.579,0.413 -2.829,1.91 -6.19,1.718 -9.432,0.184 -2.434,-1.157 -4.803,-3.095 -6.76,-5.317 -1.212,1.341 -2.498,2.627 -3.779,3.756 l 24.112,43.688 c 0.396,0.716 0.138,1.607 -0.579,2.002 -0.707,0.386 -1.598,0.129 -1.993,-0.578 0,0 -14.869,-26.955 -23.851,-43.22 -1.942,1.441 -3.77,2.406 -5.161,2.69 -0.749,0.147 -1.456,-0.064 -2.066,-0.707 -0.574,-0.615 -1.111,-1.929 -1.456,-3.683 -1.088,-5.547 -0.941,-16.142 -0.941,-16.142 0.009,-0.665 0.464,-1.239 1.111,-1.4 0.643,-0.16 1.318,0.134 1.639,0.713 l 7.728,14 c 1.162,-1.065 2.319,-2.24 3.407,-3.472 -0.349,-0.505 -0.679,-1.01 -0.973,-1.524 -2.034,-3.508 -2.673,-7.076 -1.483,-9.35 0.9,-1.73 2.806,-2.966 6.176,-2.906 2.544,0.051 3.885,1.079 4.473,2.457 0.643,1.543 0.22,3.926 -1.185,6.566 -0.817,1.538 -1.957,3.205 -3.261,4.85 2.039,2.405 4.62,4.49 7.237,5.391 1.763,0.606 3.545,0.661 5.106,-0.257 -1.469,-1.369 -2.691,-3.068 -3.545,-4.896 -1.818,-3.853 -1.984,-8.174 -0.037,-10.951 1.304,-1.865 3.554,-3.16 7.017,-3.16 4.362,0 6.558,3.637 6.189,8.381 -0.257,3.361 -1.854,7.273 -4.757,10.368 1.718,0.698 3.655,0.79 5.703,-0.055 1.846,-0.771 3.453,-1.736 4.821,-2.819 -1.79,-1.847 -3.352,-3.922 -4.362,-5.938 -1.497,-2.984 -1.735,-5.855 -0.403,-7.83 1.093,-1.606 3.324,-2.805 7.255,-2.805 2.305,0 3.958,0.905 4.996,2.314 1.332,1.791 1.653,4.555 0.744,7.577 -0.661,2.182 -1.966,4.523 -3.913,6.663 0.983,0.79 1.993,1.479 2.985,2.002 1.671,0.891 3.242,1.405 4.427,0.854 2.47,-1.14 4.638,-2.654 6.373,-4.308 -1.414,-1.12 -2.718,-2.36 -3.82,-3.632 -1.533,-1.787 -2.663,-3.628 -3.141,-5.227 -0.358,-1.203 -0.367,-2.305 -0.046,-3.228 0.578,-1.663 2.286,-3.017 5.868,-3.017 3.857,0 6.245,1.253 7.504,3.022 1.074,1.515 1.387,3.48 0.927,5.643 -0.403,1.879 -1.414,3.94 -2.938,5.934 0.634,0.386 1.276,0.734 1.92,1.02 0,0 4.398,-8.826 5.657,-10.723 0.367,-0.556 0.34,-1.263 1.873,-0.67 0.092,0.041 0.294,0.119 0.551,0.252 1.029,0.523 3.031,1.893 3.518,4.523 0.34,1.893 -0.082,4.57 -2.717,8.162 z"
   id="path286" />
	<path
   d="m 106.112,152.131 c 0.032,0.083 0.074,0.175 0.115,0.257 1.07,-0.357 2.37,-1.175 3.766,-2.24 l 0.046,-0.037 c -3.109,-5.639 -5.221,-9.468 -5.221,-9.478 0.1,4.05 0.413,9.156 1.294,11.498 z"
   id="path288" />
	<path
   d="m 165.262,232.748 -49.584,17.183 c -1.993,0.688 -3.049,2.865 -2.356,4.858 0.689,1.993 2.866,3.049 4.854,2.36 l 49.584,-17.184 c 1.993,-0.688 3.049,-2.865 2.36,-4.858 -0.689,-1.992 -2.865,-3.048 -4.858,-2.359 z"
   id="path290" />
	<path
   d="m 118.203,223.646 10.984,-3.803 c 1.993,-0.688 3.049,-2.865 2.356,-4.857 -0.689,-1.993 -2.866,-3.05 -4.854,-2.36 l -10.984,3.811 c -1.993,0.689 -3.049,2.866 -2.355,4.85 0.688,1.992 2.865,3.048 4.853,2.359 z"
   id="path292" />
	<path
   d="m 165.262,221.57 -49.584,17.184 c -1.993,0.688 -3.049,2.865 -2.356,4.849 0.689,1.993 2.866,3.05 4.854,2.36 L 167.76,228.78 c 1.993,-0.688 3.049,-2.865 2.36,-4.858 -0.689,-1.984 -2.865,-3.04 -4.858,-2.352 z"
   id="path294" />
	<path
   d="m 165.289,210.449 -49.584,17.183 c -1.993,0.689 -3.049,2.865 -2.355,4.858 0.688,1.993 2.865,3.049 4.854,2.352 l 49.584,-17.174 c 1.993,-0.698 3.049,-2.866 2.36,-4.858 -0.689,-1.994 -2.866,-3.05 -4.859,-2.361 z"
   id="path296" />
	<path
   d="m 161.763,257.012 -28.585,9.9 c -1.993,0.688 -3.049,2.865 -2.356,4.858 0.689,1.992 2.866,3.049 4.854,2.36 l 28.585,-9.91 c 1.993,-0.688 3.049,-2.865 2.36,-4.858 -0.689,-1.983 -2.865,-3.04 -4.858,-2.35 z"
   id="path298" />
	<path
   d="m 165.262,244.595 -44.064,15.273 c -1.993,0.688 -3.049,2.865 -2.356,4.857 0.689,1.984 2.866,3.04 4.854,2.352 l 44.064,-15.264 c 1.993,-0.688 3.049,-2.865 2.36,-4.858 -0.689,-1.993 -2.865,-3.049 -4.858,-2.36 z"
   id="path300" />
</g><g
     id="g706"
     transform="matrix(0.96410446,0,0,0.86942726,5.0885272,-7.3739758)"
     style="display:inline"><g
       inkscape:groupmode="layer"
       id="layer1"
       inkscape:label="Layer 1"
       transform="matrix(0.9097376,0,0,0.9097376,12.793025,11.255405)"><path
         d="m 31.883,139.389 c -5.547,0 -14.942,0 -20.411,0 -1.162,-0.005 -2.278,0.459 -3.1,1.281 -0.822,0.821 -1.286,1.938 -1.286,3.095 0.004,0.009 0.004,0.009 0.004,0.009 0,2.425 1.961,4.381 4.381,4.381 5.469,0 14.864,0 20.411,0 2.416,0 4.372,-1.965 4.372,-4.381 0.009,0 0.009,0 0.009,-0.009 0,-1.157 -0.464,-2.273 -1.286,-3.095 -0.816,-0.822 -1.932,-1.281 -3.094,-1.281 z"
         id="path2" /><path
         d="m 67.149,218.348 c -0.817,-0.817 -1.933,-1.286 -3.095,-1.286 -1.162,0 -2.273,0.469 -3.095,1.286 -3.926,3.921 -10.566,10.562 -14.437,14.428 -0.822,0.826 -1.286,1.938 -1.286,3.104 0,1.157 0.459,2.278 1.281,3.096 0.009,0 0.009,0 0.014,0 1.708,1.717 4.482,1.717 6.19,0 3.871,-3.867 10.516,-10.507 14.437,-14.429 1.704,-1.708 1.699,-4.481 -0.009,-6.189 0.005,-0.01 0.005,-0.01 0,-0.01 z"
         id="path4" /><path
         d="m 141.729,38.296 c 0.004,0.004 0.004,0.004 0.004,0.004 1.166,0 2.277,-0.459 3.104,-1.281 0.817,-0.822 1.276,-1.933 1.276,-3.095 0,-5.547 0,-14.942 0,-20.412 0.009,-1.162 -0.459,-2.282 -1.276,-3.104 -0.827,-0.822 -1.938,-1.286 -3.104,-1.286 0,0.009 0,0.009 -0.004,0.009 -2.421,0 -4.381,1.96 -4.381,4.38 0,5.469 0,14.864 0,20.412 0.004,2.417 1.965,4.373 4.381,4.373 z"
         id="path6" /><path
         d="m 222.505,218.348 c -1.708,-1.709 -4.481,-1.699 -6.189,0.009 0,-0.009 -0.01,-0.009 -0.01,0 -0.817,0.817 -1.276,1.929 -1.276,3.095 0,1.157 0.459,2.269 1.276,3.095 3.922,3.922 10.562,10.562 14.438,14.438 0.817,0.817 1.929,1.286 3.095,1.286 1.167,0 2.277,-0.46 3.104,-1.286 -0.01,-0.009 -0.01,-0.009 0,-0.009 1.708,-1.709 1.708,-4.482 0,-6.199 -3.867,-3.868 -10.516,-10.508 -14.438,-14.429 z"
         id="path18" /><path
         d="m 276.369,143.765 c 0,-2.415 -1.956,-4.376 -4.381,-4.376 -5.465,0 -14.859,0 -20.407,0 -2.415,0.004 -4.371,1.965 -4.371,4.376 -0.009,0.009 -0.009,0.009 -0.009,0.009 0,1.167 0.459,2.277 1.285,3.095 0.817,0.827 1.929,1.286 3.095,1.286 5.548,0 14.942,0 20.407,0 1.166,0 2.287,-0.459 3.104,-1.276 0.826,-0.827 1.285,-1.938 1.285,-3.104 -0.008,-0.002 -0.008,-0.002 -0.008,-0.01 z"
         id="path20" /><path
         d="m 236.933,48.564 c -1.708,-1.708 -4.481,-1.708 -6.189,0 -3.876,3.866 -10.516,10.511 -14.438,14.433 -1.708,1.712 -1.699,4.481 0.01,6.19 -0.01,0.004 0,0.009 0,0.009 0.817,0.822 1.929,1.281 3.095,1.281 1.157,0 2.277,-0.459 3.095,-1.281 3.922,-3.921 10.571,-10.562 14.438,-14.432 0.817,-0.822 1.285,-1.934 1.285,-3.1 0,-1.162 -0.459,-2.278 -1.285,-3.1 -0.011,0.004 -0.011,0.004 -0.011,0 z"
         id="path24" /><path
         d="m 52.726,48.564 c -0.822,-0.822 -1.938,-1.286 -3.1,-1.286 -1.162,-0.004 -2.277,0.459 -3.099,1.281 0,0.009 0,0.009 0,0.009 -1.713,1.713 -1.713,4.486 0,6.195 3.866,3.871 10.506,10.511 14.432,14.432 1.708,1.708 4.478,1.704 6.186,-0.004 0.009,0.004 0.009,0 0.014,0 0.817,-0.822 1.281,-1.933 1.281,-3.095 0,-1.162 -0.464,-2.277 -1.281,-3.099 C 63.237,59.075 56.593,52.43 52.726,48.564 Z"
         id="path36" /></g></g></g></svg>
