<?xml version="1.0" encoding="UTF-8" standalone="no"?>
<svg
   version="1.1"
   id="Layer_3"
   x="0px"
   y="0px"
   width="283.46px"
   height="283.46px"
   viewBox="0 0 283.46 283.46"
   enable-background="new 0 0 283.46 283.46"
   xml:space="preserve"
   sodipodi:docname="limit.svg"
   inkscape:version="1.2.2 (b0a8486541, 2022-12-01)"
   xmlns:inkscape="http://www.inkscape.org/namespaces/inkscape"
   xmlns:sodipodi="http://sodipodi.sourceforge.net/DTD/sodipodi-0.dtd"
   xmlns="http://www.w3.org/2000/svg"
   xmlns:svg="http://www.w3.org/2000/svg"><defs
   id="defs15" /><sodipodi:namedview
   id="namedview13"
   pagecolor="#ffffff"
   bordercolor="#000000"
   borderopacity="0.25"
   inkscape:showpageshadow="2"
   inkscape:pageopacity="0.0"
   inkscape:pagecheckerboard="0"
   inkscape:deskcolor="#d1d1d1"
   showgrid="false"
   inkscape:zoom="0.52385673"
   inkscape:cx="-209.02662"
   inkscape:cy="232.8881"
   inkscape:window-width="1920"
   inkscape:window-height="1015"
   inkscape:window-x="0"
   inkscape:window-y="0"
   inkscape:window-maximized="1"
   inkscape:current-layer="Layer_3" />

<g
   inkscape:label="Layer 1"
   id="layer1"
   transform="translate(-933.99129,-227.76676)"
   style="display:inline"><path
     id="rect1872"
     style="color:#000000;display:inline;fill:#000000;stroke-width:0.354614;stroke-linecap:round;stroke-linejoin:round;-inkscape-stroke:none"
     d="m 982.63522,234.85026 c -8.26158,0 -14.96442,6.70284 -14.96442,14.96441 v 239.36417 c 0,8.26158 6.70284,14.96441 14.96442,14.96441 h 186.17208 c 8.2616,0 14.9645,-6.70283 14.9645,-14.96441 V 249.81467 c 0,-8.26157 -6.7029,-14.96441 -14.9645,-14.96441 z m 0,3.33281 h 186.17208 c 6.4726,0 11.6316,5.15905 11.6316,11.6316 v 239.36417 c 0,6.47255 -5.159,11.6316 -11.6316,11.6316 H 982.63522 c -6.47256,0 -11.6316,-5.15905 -11.6316,-11.6316 V 249.81467 c 0,-6.47255 5.15904,-11.6316 11.6316,-11.6316 z m 0,1.6581 c -5.52531,0 -9.97351,4.4482 -9.97351,9.9735 v 239.36417 c 0,5.52531 4.4482,9.9735 9.97351,9.9735 h 186.17208 c 5.5254,0 9.9736,-4.44819 9.9736,-9.9735 V 249.81467 c 0,-5.5253 -4.4482,-9.9735 -9.9736,-9.9735 z m 0,5.54083 h 186.17208 c 2.4557,0 4.4327,1.97698 4.4327,4.43267 v 239.36417 c 0,2.45569 -1.977,4.43267 -4.4327,4.43267 H 982.63522 c -2.4557,0 -4.43267,-1.97698 -4.43267,-4.43267 V 249.81467 c 0,-2.45569 1.97697,-4.43267 4.43267,-4.43267 z m 22.45288,26.22686 c -1.8436,4e-5 -3.5332,0.23833 -5.0685,0.71477 -1.53536,0.47651 -2.84463,1.14655 -3.92846,2.01063 -1.08384,0.86415 -1.93327,1.89591 -2.5474,3.09595 -0.61414,1.2001 -0.92117,2.54102 -0.92116,4.02264 -10e-6,1.1285 0.19003,2.20477 0.56932,3.22824 0.37928,1.0235 0.94799,1.94122 1.70658,2.7531 0.75857,0.84637 1.67097,1.52549 2.73717,2.03695 1.06619,0.51149 2.53865,0.97898 4.41745,1.40321 l 1.7336,0.52846 1.6802,0.37124 1.6803,0.47651 c 0.8302,0.17553 1.5976,0.38663 2.3022,0.63373 0.7045,0.24714 1.3816,0.49483 2.0321,0.74248 1.5171,0.74084 2.2759,1.81627 2.2759,3.22684 0,1.34168 -0.7406,2.44446 -2.2219,3.30857 -1.4813,0.86413 -3.3783,1.29657 -5.6904,1.29656 -2.0585,1e-5 -3.8465,-0.35316 -5.3642,-1.05899 -1.51774,-0.70583 -2.96303,-1.83449 -4.33574,-3.38615 l -5.20284,3.96863 c 2.05962,2.32908 4.2908,4.04936 6.69333,5.16059 2.40255,1.11125 5.17535,1.66641 8.31885,1.66641 1.698,0 3.3421,-0.20269 4.9321,-0.6081 1.5899,-0.40541 3.0167,-0.99602 4.2803,-1.77238 3.397,-1.94035 5.0954,-4.71018 5.0954,-8.30987 0,-1.94035 -0.47,-3.69591 -1.4094,-5.26587 -0.9394,-1.56994 -2.2218,-2.76054 -3.8481,-3.57246 -1.0111,-0.49422 -2.3299,-0.98845 -3.9562,-1.48217 -1.6263,-0.49369 -3.6498,-0.98722 -6.07,-1.48148 -1.1202,-0.24656 -2.0501,-0.49395 -2.7905,-0.74109 -0.7404,-0.2471 -1.3281,-0.52014 -1.7619,-0.82005 -0.43392,-0.29986 -0.74095,-0.63522 -0.92121,-1.00566 -0.18028,-0.37038 -0.27013,-0.80298 -0.27012,-1.29725 -10e-6,-1.12951 0.51455,-2.02019 1.54383,-2.67276 1.0292,-0.6525 2.4658,-0.97862 4.3094,-0.97865 3.504,3e-5 6.3936,1.16445 8.6693,3.4935 l 4.8247,-4.23528 c -1.8424,-1.87034 -3.8748,-3.246 -6.097,-4.12792 -2.2223,-0.88185 -4.688,-1.32284 -7.397,-1.32288 z m 22.4231,0.36986 v 35.46066 h 6.6123 v -13.91927 h 10.3495 c 1.3727,1e-5 2.538,-0.0887 3.4956,-0.26527 0.9576,-0.17658 1.9605,-0.54669 3.008,-1.11094 0.8677,-0.45869 1.6442,-1.03235 2.3306,-1.72043 0.6863,-0.68805 1.2734,-1.43751 1.7613,-2.24889 0.4879,-0.81134 0.8584,-1.67567 1.1109,-2.59311 0.2525,-0.9174 0.3789,-1.83497 0.3789,-2.75241 0,-2.0114 -0.4971,-3.84586 -1.4905,-5.50413 -0.9934,-1.65821 -2.3569,-2.94659 -4.0912,-3.86404 -1.0475,-0.5642 -2.0504,-0.9521 -3.008,-1.16427 -0.9576,-0.21209 -2.1229,-0.31787 -3.4956,-0.3179 z m 35.1413,0 v 35.46066 h 27.1515 v -6.35049 h -20.5392 v -9.68608 h 10.8379 v -6.50909 h -10.8379 v -6.56243 h 19.8882 v -6.35257 z m 34.401,0 v 35.46066 h 27.1515 v -6.35049 h -20.5392 v -9.68608 h 10.8372 v -6.50909 h -10.8372 v -6.56243 h 19.8875 v -6.35257 z m 34.4003,0 v 35.46066 h 11.7064 c 1.4807,0 2.9617,-0.17581 4.4431,-0.52846 1.4812,-0.35264 2.8542,-0.88246 4.1189,-1.58883 2.8898,-1.58717 5.0755,-3.7036 6.5569,-6.3498 1.4813,-2.64618 2.2218,-5.75137 2.2218,-9.31553 0,-3.5286 -0.7405,-6.58979 -2.2218,-9.18325 -1.4814,-2.5934 -3.6311,-4.68364 -6.4482,-6.27084 -2.6738,-1.4827 -5.5637,-2.22392 -8.6707,-2.22395 z m -97.3303,6.35257 h 10.5663 c 1.6263,2e-5 2.9269,0.40557 3.9022,1.2169 0.9752,0.81138 1.4634,1.90477 1.4634,3.28087 0,1.30508 -0.4882,2.35517 -1.4634,3.14927 -0.9753,0.79415 -2.2759,1.19061 -3.9022,1.19059 h -10.5663 z m 103.9426,0 h 5.0941 c 1.9868,2e-5 3.8107,0.45812 5.4723,1.37551 1.8071,0.98743 3.153,2.29276 4.0378,3.91598 0.8848,1.62328 1.3277,3.63492 1.3278,6.03398 -10e-5,4.79815 -1.8612,8.15003 -5.5824,10.05592 -1.59,0.91743 -3.3414,1.37622 -5.2555,1.37621 h -5.0941 z m -127.1768,46.83946 v 35.46066 h 26.5178 v -5.45079 h -20.1666 v -30.00987 z m 32.5635,0 v 35.46066 h 6.3512 v -35.46066 z m 15.61,0 v 35.46066 h 6.2445 v -21.64596 l 10.3212,21.64596 10.4264,-21.64596 v 21.64596 h 6.2466 v -35.46066 h -6.2466 l -10.4264,21.01155 -10.3212,-21.01155 z m 42.4878,0 v 35.46066 h 6.3512 v -35.46066 z m 12.3803,0 v 6.24591 h 10.2152 v 29.21475 h 6.1926 v -29.21475 h 10.2152 v -6.24591 z m -110.4407,53.19134 -2.778,41.68026 15.8773,4.1023 c 3.2653,-1.23557 6.1991,-2.11743 8.8009,-2.64645 2.6017,-0.52892 5.3576,-0.79368 8.2676,-0.79372 6.528,4e-5 11.3358,1.23564 14.4235,3.70682 1.6771,1.41063 3.0222,3.19637 4.0358,5.35799 1.0135,2.16169 1.5209,4.43279 1.521,6.81246 -10e-5,5.02862 -1.8968,8.9325 -5.6898,11.71194 -3.793,2.77948 -9.0413,4.1695 -15.7443,4.16948 -9.3492,2e-5 -17.9939,-2.42701 -25.9352,-7.28066 l -8.33484,13.49887 c 5.64504,3.35151 11.24634,5.84326 16.80394,7.47458 5.5576,1.63134 11.3796,2.44698 17.4661,2.44698 5.3812,0 10.3655,-0.79357 14.9527,-2.38049 4.587,-1.58691 8.5343,-3.79257 11.8414,-6.61645 3.3071,-2.82386 5.8871,-6.1982 7.7406,-10.1231 1.8533,-3.92488 2.78,-8.22517 2.7801,-12.90115 -10e-5,-4.58709 -0.8599,-8.84323 -2.5799,-12.76817 -1.7203,-3.92485 -4.1466,-7.32052 -7.2786,-10.18752 -3.1322,-2.86689 -6.8368,-5.11596 -11.1143,-6.74735 -4.2775,-1.63128 -8.9308,-2.44692 -13.9594,-2.44698 -2.8239,6e-5 -5.4709,0.17587 -7.9407,0.52846 -2.4699,0.35271 -5.5126,0.92636 -9.1278,1.72043 l 0.9246,-12.70376 h 43.9291 l 0.2667,-15.61477 z m 83.9901,0 -2.778,41.68026 15.8773,4.1023 c 3.2653,-1.23557 6.1984,-2.11743 8.8002,-2.64645 2.6017,-0.52892 5.3576,-0.79368 8.2676,-0.79372 6.528,4e-5 11.3365,1.23564 14.4242,3.70682 1.677,1.41063 3.0222,3.19637 4.0358,5.35799 1.0135,2.16169 1.5202,4.43279 1.5203,6.81246 -10e-5,5.02862 -1.8968,8.9325 -5.6898,11.71194 -3.793,2.77948 -9.0406,4.1695 -15.7436,4.16948 -9.3492,2e-5 -17.9946,-2.42701 -25.9359,-7.28066 l -8.3348,13.49887 c 5.645,3.35151 11.2463,5.84326 16.8039,7.47458 5.5576,1.63134 11.3802,2.44698 17.4668,2.44698 5.3812,0 10.3648,-0.79357 14.952,-2.38049 4.587,-1.58691 8.5343,-3.79257 11.8414,-6.61645 3.3071,-2.82386 5.8878,-6.1982 7.7413,-10.1231 1.8533,-3.92488 2.78,-8.22517 2.7801,-12.90115 -10e-5,-4.58709 -0.8606,-8.84323 -2.5807,-12.76817 -1.7202,-3.92485 -4.1465,-7.32052 -7.2785,-10.18752 -3.1322,-2.86689 -6.8368,-5.11596 -11.1143,-6.74735 -4.2776,-1.63128 -8.9308,-2.44692 -13.9594,-2.44698 -2.8239,6e-5 -5.4709,0.17587 -7.9407,0.52846 -2.4699,0.35271 -5.5126,0.92636 -9.1279,1.72043 l 0.9254,-12.70376 h 43.9284 l 0.2667,-15.61477 z" /></g></svg>
