<?xml version="1.0" encoding="UTF-8" standalone="no"?>
<svg
   version="1.1"
   id="Layer_3"
   x="0px"
   y="0px"
   width="283.46px"
   height="283.46px"
   viewBox="0 0 283.46 283.46"
   enable-background="new 0 0 283.46 283.46"
   xml:space="preserve"
   sodipodi:docname="limit-alt.svg"
   inkscape:version="1.2.2 (b0a8486541, 2022-12-01)"
   xmlns:inkscape="http://www.inkscape.org/namespaces/inkscape"
   xmlns:sodipodi="http://sodipodi.sourceforge.net/DTD/sodipodi-0.dtd"
   xmlns="http://www.w3.org/2000/svg"
   xmlns:svg="http://www.w3.org/2000/svg"><defs
   id="defs15" /><sodipodi:namedview
   id="namedview13"
   pagecolor="#ffffff"
   bordercolor="#000000"
   borderopacity="0.25"
   inkscape:showpageshadow="2"
   inkscape:pageopacity="0.0"
   inkscape:pagecheckerboard="0"
   inkscape:deskcolor="#d1d1d1"
   showgrid="false"
   inkscape:zoom="0.52385673"
   inkscape:cx="-236.70594"
   inkscape:cy="282.51999"
   inkscape:window-width="1400"
   inkscape:window-height="1043"
   inkscape:window-x="-2"
   inkscape:window-y="0"
   inkscape:window-maximized="0"
   inkscape:current-layer="Layer_3" />

<g
   inkscape:label="Layer 1"
   id="layer1-6"
   transform="matrix(0.36826323,0,0,0.36826323,-435.31886,-21.671197)"><path
     id="rect2760"
     style="color:#000000;display:inline;overflow:visible;visibility:visible;fill:#000000;fill-opacity:1;fill-rule:nonzero;stroke:none;stroke-width:0.873544;stroke-linecap:butt;stroke-linejoin:miter;stroke-miterlimit:4;stroke-dashoffset:0;stroke-opacity:1;marker:none;marker-start:none;marker-mid:none;marker-end:none"
     d="m 1304.4467,78.082592 c -15.5811,0 -28.125,12.543814 -28.125,28.124998 V 781.2076 c 0,15.58117 12.5439,28.125 28.125,28.125 h 525 c 15.5812,0 28.125,-12.54383 28.125,-28.125 V 106.20759 c 0,-15.581184 -12.5438,-28.124998 -28.125,-28.124998 z m 0,12.888672 h 525 c 8.3939,0 15.2364,6.842417 15.2364,15.236326 V 781.2076 c 0,8.39391 -6.8425,15.23632 -15.2364,15.23632 h -525 c -8.3939,0 -15.2363,-6.84241 -15.2363,-15.23632 V 106.20759 c 0,-8.393909 6.8424,-15.236326 15.2363,-15.236326 z m 0,5.472656 c -5.456,0 -9.7636,4.30766 -9.7636,9.76367 V 781.2076 c 0,5.456 4.3076,9.76367 9.7636,9.76367 h 525 c 5.4561,0 9.7637,-4.30767 9.7637,-9.76367 V 106.20759 c 0,-5.45601 -4.3076,-9.76367 -9.7637,-9.76367 z m 63.3145,71.2207 c 7.6393,10e-5 14.5926,1.24369 20.8594,3.73048 6.2666,2.48696 11.9977,6.36829 17.1933,11.64257 l -13.6035,11.94141 c -6.4175,-6.56783 -14.5681,-9.85148 -24.4492,-9.85156 -5.1987,8e-5 -9.248,0.92169 -12.1504,2.76172 -2.9025,1.84021 -4.3535,4.3519 -4.3535,7.53711 0,1.39379 0.2533,2.61372 0.7617,3.6582 0.5083,1.04462 1.3741,1.98838 2.5977,2.83398 1.2234,0.84573 2.8789,1.61765 4.9668,2.31446 2.0878,0.69694 4.712,1.3926 7.8711,2.08789 6.8247,1.39382 12.529,2.78754 17.1152,4.17968 4.5861,1.39229 8.305,2.78599 11.1562,4.17969 4.5861,2.28958 8.2044,5.64708 10.8536,10.07422 2.6489,4.42725 3.9725,9.37593 3.9726,14.84766 -10e-5,10.151 -4.7896,17.96382 -14.3691,23.43554 -3.5633,2.18932 -7.5869,3.85482 -12.0703,4.99805 -4.4836,1.14325 -9.1181,1.71484 -13.9063,1.71484 -8.8645,0 -16.684,-1.5675 -23.459,-4.70117 -6.775,-3.13363 -13.0669,-7.98283 -18.875,-14.55078 l 14.6719,-11.1914 c 3.871,4.37559 7.9467,7.55844 12.2266,9.54882 4.2798,1.99044 9.3219,2.98635 15.1269,2.98633 6.52,2e-5 11.8695,-1.21944 16.0469,-3.65625 4.1772,-2.43677 6.2655,-5.54658 6.2656,-9.33008 -10e-5,-3.97775 -2.1397,-7.01046 -6.418,-9.09961 -1.8345,-0.69833 -3.7456,-1.39683 -5.7324,-2.09375 -1.9868,-0.6968 -4.151,-1.29211 -6.4922,-1.78711 l -4.7382,-1.34375 -4.7383,-1.04882 -4.8868,-1.48828 c -5.2981,-1.19634 -9.4504,-2.5166 -12.457,-3.95899 -3.0066,-1.44229 -5.5796,-3.35546 -7.7187,-5.74219 -2.1392,-2.28944 -3.7449,-4.87742 -4.8145,-7.76367 -1.0696,-2.88613 -1.6035,-5.92122 -1.6035,-9.10351 0,-4.17814 0.8658,-7.95952 2.5977,-11.34375 1.7318,-3.38409 4.1252,-6.2936 7.1816,-8.73047 3.0564,-2.4367 6.7504,-4.32814 11.0801,-5.67188 4.3296,-1.34355 9.0923,-2.01553 14.291,-2.01563 z m 63.2344,1.04298 h 47.832 c 3.871,10e-5 7.157,0.30035 9.8574,0.89843 2.7003,0.5983 5.5267,1.69219 8.4805,3.28321 4.8908,2.58716 8.7375,6.21842 11.5391,10.89453 2.8013,4.67626 4.201,9.85134 4.2011,15.52344 -10e-5,2.58713 -0.3545,5.17471 -1.0664,7.76171 -0.7121,2.58715 -1.757,5.02458 -3.1328,7.3125 -1.3759,2.28805 -3.0314,4.40153 -4.9668,6.3418 -1.9356,1.94036 -4.1273,3.55809 -6.5742,4.85156 -2.9538,1.59117 -5.7802,2.63487 -8.4805,3.13282 -2.7004,0.49802 -5.9864,0.74808 -9.8574,0.74804 h -29.1875 v 39.25196 h -18.6445 z m 99.0976,0 h 74.7285 v 17.91406 h -56.082 v 18.50586 h 30.5625 v 18.35547 h -30.5625 v 27.3164 h 57.9199 v 17.90821 h -76.5664 z m 97.0078,0 h 74.7305 v 17.91406 h -56.084 v 18.50586 h 30.5625 v 18.35547 h -30.5625 v 27.3164 h 57.9219 v 17.90821 h -76.5684 z m 97.0098,0 h 33.0098 c 8.7617,10e-5 16.9131,2.0923 24.4531,6.27343 7.944,4.47588 14.0043,10.37027 18.1816,17.6836 4.1772,7.31344 6.2656,15.94401 6.2657,25.89453 -10e-5,10.05081 -2.0885,18.8074 -6.2657,26.26953 -4.1773,7.46218 -10.341,13.43245 -18.4902,17.9082 -3.5663,1.99195 -7.4381,3.48407 -11.6152,4.47852 -4.1774,0.99445 -8.3537,1.49219 -12.5293,1.49219 h -33.0098 z m -274.4707,17.91406 v 24.92383 h 29.7988 c 4.5861,6e-5 8.2537,-1.1199 11.0039,-3.35938 2.7501,-2.23936 4.125,-5.19863 4.125,-8.8789 0,-3.88056 -1.3749,-6.96584 -4.125,-9.25391 -2.7502,-2.28792 -6.4178,-3.43156 -11.0039,-3.43164 z m 293.1172,0 v 64.17773 h 14.3633 c 5.3976,2e-5 10.3386,-1.29374 14.8222,-3.88086 10.4937,-5.37454 15.7402,-14.82873 15.7403,-28.35937 -10e-5,-6.76523 -1.2471,-12.43611 -3.7422,-17.01367 -2.4952,-4.57744 -6.2908,-8.25843 -11.3867,-11.04297 -4.6857,-2.58702 -9.8308,-3.88078 -15.4336,-3.88086 z M 1384.1225,318.7076 h 17.9102 v 84.6289 h 56.8672 v 15.3711 h -74.7774 z m 91.8281,0 h 17.9102 v 100 h -17.9102 z m 44.0196,0 h 17.6094 l 29.1054,59.2539 29.4024,-59.2539 h 17.6132 v 100 h -17.6132 v -61.04297 l -29.4024,61.04297 -29.1054,-61.04297 v 61.04297 h -17.6094 z m 119.8125,0 h 17.9101 v 100 h -17.9101 z m 34.914,0 h 75.0743 v 17.61328 h -28.8047 v 82.38672 h -17.4629 v -82.38672 h -28.8067 z m -311.4394,150 h 166.7949 l -0.75,44.0332 h -123.8789 l -2.6074,35.82422 c 10.195,-2.23926 18.7751,-3.85694 25.7402,-4.85156 6.9649,-0.99429 14.4292,-1.49202 22.3926,-1.49219 14.1804,1.7e-4 27.3006,2.30024 39.3633,6.90039 12.0623,4.60048 22.5111,10.94279 31.3437,19.02734 8.8323,8.08486 15.6744,17.66251 20.5254,28.73047 4.8506,11.0682 7.2752,23.07041 7.2754,36.00586 -2e-4,13.18613 -2.6135,25.31283 -7.8398,36.38086 -5.2268,11.06812 -12.5025,20.58365 -21.8282,28.54687 -9.326,7.96327 -20.4572,14.1812 -33.3925,18.65625 -12.9357,4.47506 -26.9912,6.7129 -42.1661,6.7129 -17.1639,0 -33.5818,-2.30008 -49.2539,-6.9004 -15.6722,-4.6003 -31.4678,-11.62501 -47.3867,-21.07617 l 23.502,-38.0664 c 22.3942,13.68713 46.774,20.52934 73.1386,20.52929 18.9022,5e-5 33.7022,-3.91781 44.3985,-11.75586 10.6959,-7.83794 16.0428,-18.84675 16.0429,-33.02734 -10e-5,-6.7106 -1.4291,-13.11503 -4.2871,-19.21094 -2.8582,-6.09568 -6.6516,-11.13143 -11.3808,-15.10937 -8.7074,-6.96866 -22.2651,-10.453 -40.6738,-10.45313 -8.2063,1.3e-4 -15.9776,0.74477 -23.3145,2.23633 -7.3371,1.49182 -15.6102,3.98058 -24.8184,7.46484 l -44.7734,-11.57031 z m 236.8476,0 h 166.7969 l -0.7519,44.0332 H 1642.271 l -2.6075,35.82422 c 10.195,-2.23926 18.7752,-3.85694 25.7403,-4.85156 6.9649,-0.99429 14.4292,-1.49202 22.3925,-1.49219 14.1804,1.7e-4 27.3026,2.30024 39.3653,6.90039 12.0624,4.60048 22.5091,10.94279 31.3418,19.02734 8.8322,8.08486 15.6743,17.66251 20.5254,28.73047 4.8506,11.0682 7.2751,23.07041 7.2754,36.00586 -3e-4,13.18613 -2.6135,25.31283 -7.8399,36.38086 -5.2268,11.06812 -12.5024,20.58365 -21.8281,28.54687 -9.3261,7.96327 -20.4572,14.1812 -33.3926,18.65625 -12.9357,4.47506 -26.9912,6.7129 -42.166,6.7129 -17.164,0 -33.5818,-2.30008 -49.2539,-6.9004 -15.6723,-4.6003 -31.4678,-11.62501 -47.3867,-21.07617 l 23.5019,-38.0664 c 22.3942,13.68713 46.7741,20.52934 73.1387,20.52929 18.9022,5e-5 33.7022,-3.91781 44.3984,-11.75586 10.696,-7.83794 16.0428,-18.84675 16.043,-33.02734 -2e-4,-6.7106 -1.4292,-13.11503 -4.2871,-19.21094 -2.8583,-6.09568 -6.6517,-11.13143 -11.3809,-15.10937 -8.7073,-6.96866 -22.2651,-10.453 -40.6738,-10.45313 -8.2063,1.3e-4 -15.9776,0.74477 -23.3144,2.23633 -7.3371,1.49182 -15.6103,3.98058 -24.8184,7.46484 l -44.7734,-11.57031 z" /></g></svg>
