<?xml version="1.0" encoding="UTF-8" standalone="no"?>
<!-- Generator: Adobe Illustrator 15.1.0, SVG Export Plug-In . SVG Version: 6.00 Build 0)  -->

<svg
   version="1.1"
   id="Layer_3"
   x="0px"
   y="0px"
   width="283.46px"
   height="283.46px"
   viewBox="0 0 283.46 283.46"
   style="enable-background:new 0 0 283.46 283.46;"
   xml:space="preserve"
   sodipodi:docname="listen.svg"
   inkscape:version="1.2.2 (b0a8486541, 2022-12-01)"
   xmlns:inkscape="http://www.inkscape.org/namespaces/inkscape"
   xmlns:sodipodi="http://sodipodi.sourceforge.net/DTD/sodipodi-0.dtd"
   xmlns="http://www.w3.org/2000/svg"
   xmlns:svg="http://www.w3.org/2000/svg"><defs
   id="defs9701" /><sodipodi:namedview
   id="namedview9699"
   pagecolor="#ffffff"
   bordercolor="#000000"
   borderopacity="0.25"
   inkscape:showpageshadow="2"
   inkscape:pageopacity="0.0"
   inkscape:pagecheckerboard="0"
   inkscape:deskcolor="#d1d1d1"
   showgrid="false"
   inkscape:zoom="0.37042265"
   inkscape:cx="-894.92368"
   inkscape:cy="580.41807"
   inkscape:window-width="1920"
   inkscape:window-height="1015"
   inkscape:window-x="0"
   inkscape:window-y="0"
   inkscape:window-maximized="1"
   inkscape:current-layer="Layer_3" />

<g
   style="fill:#000000"
   id="g9831"
   transform="matrix(8.6910763,0,0,8.6910763,-5.7920024,0.56518848)"><path
     d="M 16.97,0.75 C 11.862,0.75 6.69,4.614 6.69,12 c 0,0.69 0.56,1.25 1.25,1.25 0.69,0 1.25,-0.56 1.25,-1.25 v 0 c 0,-6.012 4.033,-8.75 7.78,-8.75 3.747,0 7.78,2.738 7.78,8.75 0.005,0.124 0.008,0.27 0.008,0.416 0,0.717 -0.067,1.418 -0.194,2.098 l 0.011,-0.07 c -0.241,1.112 -0.633,2.096 -1.162,2.991 l 0.025,-0.046 c -0.286,0.493 -0.583,0.917 -0.911,1.315 l 0.013,-0.016 c -0.188,0.227 -0.393,0.432 -0.598,0.635 -0.378,0.359 -0.72,0.747 -1.026,1.163 l -0.017,0.024 c -0.429,0.631 -0.849,1.359 -1.216,2.118 l -0.046,0.105 c -0.266,0.49 -0.52,1.069 -0.726,1.67 l -0.024,0.082 c -0.098,0.328 -0.168,0.711 -0.196,1.105 l -10e-4,0.018 c -0.013,0.22 -0.046,0.426 -0.097,0.624 l 0.005,-0.022 c -0.083,0.282 -0.177,0.522 -0.288,0.752 l 0.013,-0.029 c -0.221,0.427 -0.505,0.79 -0.845,1.092 l -0.004,0.003 c -0.733,0.622 -1.657,1.04 -2.672,1.156 l -0.023,0.002 c -0.235,0.033 -0.506,0.052 -0.781,0.052 -0.818,0 -1.597,-0.167 -2.304,-0.469 l 0.038,0.015 C 10.839,28.413 10.125,27.762 9.683,26.942 L 9.672,26.92 C 9.406,26.376 9.25,25.737 9.25,25.061 c 0,-0.021 0,-0.043 0,-0.064 V 25 C 9.25,24.31 8.69,23.75 8,23.75 7.31,23.75 6.75,24.31 6.75,25 v 0 c 0,0.018 0,0.038 0,0.059 0,1.085 0.254,2.111 0.706,3.021 L 7.438,28.04 c 0.72,1.368 1.868,2.429 3.262,3.023 l 0.043,0.016 c 0.947,0.415 2.051,0.656 3.211,0.656 0.011,0 0.022,0 0.034,0 h -0.002 c 0.392,0 0.778,-0.026 1.156,-0.075 l -0.045,0.005 c 1.561,-0.182 2.947,-0.821 4.049,-1.779 l -0.009,0.008 c 0.574,-0.512 1.049,-1.12 1.402,-1.801 l 0.016,-0.035 c 0.155,-0.309 0.301,-0.675 0.417,-1.055 l 0.013,-0.05 c 0.096,-0.323 0.165,-0.699 0.192,-1.087 l 0.001,-0.017 c 0.013,-0.226 0.048,-0.437 0.101,-0.64 l -0.005,0.023 c 0.187,-0.542 0.39,-0.999 0.625,-1.436 l -0.025,0.051 c 0.354,-0.743 0.713,-1.369 1.113,-1.965 l -0.035,0.055 c 0.235,-0.314 0.484,-0.591 0.754,-0.844 l 0.003,-0.003 c 0.262,-0.26 0.521,-0.523 0.762,-0.814 1.214,-1.476 2.104,-3.266 2.534,-5.228 l 0.015,-0.083 c 0.151,-0.76 0.238,-1.634 0.238,-2.528 0,-0.154 -0.003,-0.307 -0.008,-0.459 L 27.251,12 c 0,-7.386 -5.172,-11.25 -10.28,-11.25 z m -0.314,15.6 c -2.227,0.358 -3.907,2.266 -3.907,4.566 0,0.03 0,0.059 10e-4,0.089 v -0.004 c 0,0.727 -0.294,1.195 -0.75,1.195 -0.456,0 -0.75,-0.469 -0.75,-1.195 0,-0.69 -0.56,-1.25 -1.25,-1.25 -0.69,0 -1.25,0.56 -1.25,1.25 v 0 c -0.01,0.098 -0.016,0.212 -0.016,0.327 0,1.825 1.45,3.31 3.261,3.368 H 12 c 1.816,-0.058 3.266,-1.543 3.266,-3.368 0,-0.115 -0.006,-0.229 -0.017,-0.341 l 10e-4,0.014 c 0,-0.011 0,-0.024 0,-0.037 0,-1.086 0.796,-1.985 1.837,-2.147 l 0.012,-0.002 c 0.384,-0.025 0.739,-0.129 1.057,-0.294 l -0.015,0.007 c 0.308,-0.182 0.565,-0.416 0.768,-0.692 l 0.005,-0.007 c 0.773,-0.948 1.241,-2.171 1.241,-3.503 0,-1.208 -0.385,-2.327 -1.04,-3.239 l 0.011,0.017 c -0.998,-1.28 -2.54,-2.096 -4.273,-2.096 -0.065,0 -0.13,0.001 -0.194,0.003 h 0.009 c -0.413,0.024 -0.801,0.093 -1.17,0.203 l 0.037,-0.009 c 0.659,-1.288 1.976,-2.154 3.496,-2.154 1.083,0 2.063,0.44 2.771,1.15 v 0 c 0.827,0.934 1.331,2.17 1.331,3.524 0,0.097 -0.003,0.194 -0.008,0.29 l 0.001,-0.013 c 0,0.69 0.56,1.25 1.25,1.25 0.69,0 1.25,-0.56 1.25,-1.25 v 0 c 0.019,-0.193 0.03,-0.417 0.03,-0.644 0,-3.71 -2.955,-6.73 -6.64,-6.834 h -0.01 c -3.694,0.105 -6.649,3.124 -6.649,6.834 0,0.227 0.011,0.451 0.033,0.672 l -0.002,-0.028 c 0,0 0,10e-4 0,10e-4 0,0.69 0.559,1.249 1.249,1.249 0.511,0 0.95,-0.306 1.143,-0.746 l 0.003,-0.008 c 0.017,-0.017 0.039,-0.023 0.055,-0.041 0.509,-0.584 1.254,-0.951 2.084,-0.951 0.899,0 1.698,0.43 2.202,1.096 l 0.005,0.007 c 0.334,0.495 0.534,1.106 0.534,1.763 0,0.731 -0.247,1.405 -0.662,1.942 l 0.005,-0.007 z"
     id="path9822" /></g></svg>
