<?xml version="1.0" encoding="UTF-8" standalone="no"?>
<!-- Generator: Adobe Illustrator 15.1.0, SVG Export Plug-In . SVG Version: 6.00 Build 0)  -->

<svg
   version="1.1"
   id="Layer_3"
   x="0px"
   y="0px"
   width="283.46px"
   height="283.46px"
   viewBox="0 0 283.46 283.46"
   style="enable-background:new 0 0 283.46 283.46;"
   xml:space="preserve"
   sodipodi:docname="listen-stop.svg"
   inkscape:version="1.2.2 (b0a8486541, 2022-12-01)"
   xmlns:inkscape="http://www.inkscape.org/namespaces/inkscape"
   xmlns:sodipodi="http://sodipodi.sourceforge.net/DTD/sodipodi-0.dtd"
   xmlns="http://www.w3.org/2000/svg"
   xmlns:svg="http://www.w3.org/2000/svg"><defs
   id="defs9701" /><sodipodi:namedview
   id="namedview9699"
   pagecolor="#ffffff"
   bordercolor="#000000"
   borderopacity="0.25"
   inkscape:showpageshadow="2"
   inkscape:pageopacity="0.0"
   inkscape:pagecheckerboard="0"
   inkscape:deskcolor="#d1d1d1"
   showgrid="false"
   inkscape:zoom="0.37042265"
   inkscape:cx="-897.6233"
   inkscape:cy="580.41807"
   inkscape:window-width="1920"
   inkscape:window-height="1015"
   inkscape:window-x="0"
   inkscape:window-y="0"
   inkscape:window-maximized="1"
   inkscape:current-layer="Layer_3" />

<path
   d="m 181.6034,204.3159 c -1.1122,-0.41704 -2.3894,-0.66031 -3.7361,-0.66031 -4.657,0 -8.6362,2.92794 -10.174,7.05487 l -0.026,0.0782 -0.8862,2.59779 c -0.8514,2.84975 -1.4596,6.17736 -1.7029,9.60054 l -0.01,0.15639 c -0.1129,1.91141 -0.3996,3.70119 -0.8427,5.42148 l 0.043,-0.19115 c -0.7211,2.45009 -1.5379,4.53528 -2.5022,6.53358 l 0.1128,-0.25196 c -1.92,3.71859 -4.3962,6.87242 -7.3502,9.48759 l -0.034,0.0261 c -6.3598,5.40411 -14.3878,9.03581 -23.2063,10.04364 l -0.1999,0.0174 c -2.0418,0.28673 -4.3963,0.45181 -6.7855,0.45181 -7.1071,0 -13.8752,-1.45095 -20.0179,-4.0748 l 0.3302,0.13032 C 96.856896,247.51405 90.653396,241.85798 86.813396,234.7336 l -0.096,-0.19114 c -2.3111,-4.72642 -3.6664,-10.27822 -3.6664,-16.15149 0,-0.18246 0,-0.37361 0,-0.55606 v 0.0261 c 0,-5.99491 -4.8654,-10.86033 -10.8604,-10.86033 -5.995,0 -10.8603,4.86542 -10.8603,10.86033 v 0 c 0,0.15639 0,0.33015 0,0.5126 0,9.42678 2.2068,18.34095 6.1339,26.24727 l -0.1564,-0.34753 c 6.2555,11.88556 16.2298,21.10381 28.3412,26.26463 l 0.3736,0.13901 c 8.227704,3.60564 17.819604,5.69952 27.898004,5.69952 0.096,0 0.1911,0 0.2954,0 h -0.017 c 3.4058,0 6.7595,-0.2259 10.0436,-0.65163 l -0.391,0.0434 c 13.5625,-1.58126 25.6043,-7.13307 35.1788,-15.45643 l -0.078,0.0695 c 4.9871,-4.44841 9.1141,-9.73087 12.181,-15.64758 l 0.139,-0.30409 c 1.3467,-2.68468 2.6153,-5.86458 3.623,-9.16613 l 0.113,-0.4344 c 0.834,-2.80632 1.4335,-6.07311 1.6681,-9.44416 l 0.01,-0.14769 c 0.1216,-1.97224 0.4169,-3.82285 0.8774,-5.59525 l -0.043,0.19983 0.5475,-1.59864 c 0.417,-1.1121 0.6602,-2.38928 0.6602,-3.72727 0,-4.65692 -2.928,-8.62745 -7.0549,-10.17397 l -0.078,-0.0261 z m -74.6497,10.89509 c 15.7779,-0.50392 28.3759,-13.406 28.3759,-29.26209 0,-0.99915 -0.052,-1.98962 -0.1477,-2.9627 l 0.01,0.12163 c 0.026,-4.23118 1.3119,-8.14959 3.51,-11.40769 l -0.043,0.0695 c 1.1468,-1.6942 1.8332,-3.78807 1.8332,-6.03833 0,-5.99491 -4.8567,-10.85165 -10.8517,-10.85165 -3.7445,0 -7.0461,1.89404 -8.9923,4.77854 l -0.026,0.0348 c -4.4484,6.58571 -7.107,14.68318 -7.1418,23.40619 v 0.009 c 0,6.31636 -2.5543,10.38247 -6.5161,10.38247 -3.9618,0 -6.5163,-4.07479 -6.5163,-10.38247 0,-5.99492 -4.865404,-10.86034 -10.860204,-10.86034 -5.9949,0 -10.8604,4.86542 -10.8604,10.86034 v 0 c -0.087,0.85144 -0.139,1.84191 -0.139,2.84105 0,15.8561 12.598,28.75818 28.332404,29.26209 h 0.043 z m 164.0779,38.40215 -65.831,-65.83102 c 1.1816,-1.28586 2.2676,-2.6673 3.484,-3.90103 2.2764,-2.25896 4.5266,-4.54397 6.6204,-7.07226 10.5476,-12.82388 18.2802,-28.37588 22.0161,-45.42227 l 0.1304,-0.72113 c 1.312,-6.60307 2.0677,-14.19662 2.0677,-21.96394 0,-1.33799 -0.026,-2.6673 -0.069,-3.98791 l 0.01,0.19115 c 0,-63.163744 -41.0346,-91.609124 -76.1613,-96.7873343 -4.0226,-0.65162 -8.6535,-1.03391 -13.3712,-1.03391 -33.7452,0 -63.016004,19.1228903 -77.577604,47.1251703 l -0.2263,0.48654 -44.3621,-44.3536 c -1.9637,-1.9548703 -4.6658,-3.1538503 -7.6545,-3.1538503 -5.9949,0 -10.8603003,4.8654403 -10.8603003,10.8603403 0,2.98877 1.2076003,5.69082 3.1538003,7.65436 L 255.6636,268.98269 c 1.9635,1.96354 4.683,3.1799 7.6804,3.1799 6.0036,0 10.8691,-4.86543 10.8691,-10.86902 0,-2.99745 -1.2165,-5.71688 -3.1799,-7.68043 z M 160.1345,29.620856 c 26.56,3.90973 57.5945,25.97793 57.5945,75.292554 0.043,1.07734 0.07,2.34583 0.07,3.61431 0,6.22949 -0.5821,12.31997 -1.6856,18.228 l 0.097,-0.60817 c -2.094,9.66134 -5.4996,18.2106 -10.0958,25.98659 l 0.2172,-0.39965 c -2.4849,4.28331 -5.0652,7.96714 -7.915,11.42507 l 0.113,-0.13901 c -1.6335,1.97224 -3.4146,3.75333 -5.1956,5.51705 -1.1643,1.16423 -2.398,2.4501 -3.6317,3.75334 l -20.3218,-20.32186 c 5.2476,-7.56749 8.3841,-16.95081 8.3841,-27.07265 0,-10.41724 -3.3276,-20.06122 -8.9836,-27.924104 l 0.095,0.13901 c -8.6709,-11.12098 -22.0682,-18.21062 -37.125,-18.21062 -0.5647,0 -1.1294,0.009 -1.6854,0.0261 h 0.078 c -3.7013,0.22589 -7.1592,0.86013 -10.4521,1.86798 l 0.3215,-0.0869 c 5.5865,-11.37294 17.0899,-19.06206 30.3829,-19.06206 0.5386,0 1.0686,0.009 1.5986,0.0347 h -0.078 c 19.5312,1.81585 34.701,18.12374 34.701,37.97642 0,1.850614 -0.1304,3.675144 -0.391,5.447554 l 0.026,-0.19982 c 0,5.99489 4.8654,10.86033 10.8603,10.86033 5.9949,0 10.8604,-4.86544 10.8604,-10.86033 v 0 c 0.1737,-1.7116 0.278,-3.70121 0.278,-5.708204 0,-31.39072 -24.3793,-57.09063 -55.2314,-59.19318 l -0.1824,-0.009 c -0.5299,-0.0174 -1.1556,-0.0261 -1.7898,-0.0261 -25.2133,0 -46.5691,16.54246 -53.797804,39.36654 l -0.1129,0.39966 -8.4276,-8.42762 c 9.6612,-25.0222 33.527904,-42.45087 61.460704,-42.45087 3.5187,0 6.9681,0.27803 10.339,0.80801 l -0.3736,-0.0521 z m -39.1058,73.997994 c 2.9279,-1.66814 6.3859,-2.74548 10.0784,-2.98007 h 0.07 c 0.2607,-0.009 0.556,-0.0174 0.8602,-0.0174 7.9064,0 14.9437,3.72727 19.453,9.51366 l 0.043,0.0521 c 2.8498,4.11824 4.5527,9.20957 4.5527,14.70924 0,4.08349 -0.9384,7.94976 -2.6151,11.39032 l 0.07,-0.15639 z"
   id="path9856"
   style="fill:#000000;stroke-width:8.68827" /></svg>
