<?xml version="1.0" encoding="UTF-8" standalone="no"?>
<!-- Generator: Adobe Illustrator 15.1.0, SVG Export Plug-In . SVG Version: 6.00 Build 0)  -->

<svg
   version="1.0"
   id="Layer_3"
   x="0px"
   y="0px"
   width="283.465px"
   height="283.465px"
   viewBox="0 0 283.465 283.465"
   enable-background="new 0 0 283.465 283.465"
   xml:space="preserve"
   sodipodi:docname="log.svg"
   inkscape:version="1.2.2 (b0a8486541, 2022-12-01)"
   xmlns:inkscape="http://www.inkscape.org/namespaces/inkscape"
   xmlns:sodipodi="http://sodipodi.sourceforge.net/DTD/sodipodi-0.dtd"
   xmlns="http://www.w3.org/2000/svg"
   xmlns:svg="http://www.w3.org/2000/svg"><defs
   id="defs10151" /><sodipodi:namedview
   id="namedview10149"
   pagecolor="#ffffff"
   bordercolor="#000000"
   borderopacity="0.25"
   inkscape:showpageshadow="2"
   inkscape:pageopacity="0.0"
   inkscape:pagecheckerboard="0"
   inkscape:deskcolor="#d1d1d1"
   showgrid="false"
   inkscape:zoom="2.9633288"
   inkscape:cx="37.626604"
   inkscape:cy="141.7325"
   inkscape:window-width="1920"
   inkscape:window-height="1015"
   inkscape:window-x="0"
   inkscape:window-y="0"
   inkscape:window-maximized="1"
   inkscape:current-layer="Layer_3" />

<path
   id="path10144"
   d="M 44.910156 7.0859375 C 39.937171 7.0859375 35.908203 11.120812 35.908203 16.091797 L 35.908203 267.37695 C 35.908203 272.34695 39.937171 276.37695 44.910156 276.37695 L 238.55664 276.37695 C 243.52964 276.37695 247.55664 272.34695 247.55664 267.37695 L 247.55664 67.146484 C 247.55664 64.759493 246.60773 62.468244 244.92773 60.78125 L 193.86719 9.7226562 C 192.17319 8.0356613 189.88409 7.0859375 187.49609 7.0859375 L 44.910156 7.0859375 z M 189.54102 21.759766 L 234.8418 65 L 189.61523 65 L 189.54102 21.759766 z M 135.00586 192.24219 C 139.42946 192.24219 143.35417 193.31033 146.78125 195.44922 C 150.23264 197.5638 152.89411 200.61546 154.76562 204.60156 C 156.66146 208.56337 157.60938 213.14432 157.60938 218.3457 L 157.60938 220.71484 C 157.60938 225.94054 156.68706 230.52344 154.83984 234.46094 C 152.99264 238.39842 150.34201 241.43533 146.89062 243.57422 C 143.46355 245.7131 139.52604 246.7832 135.07812 246.7832 C 130.67883 246.7832 126.75412 245.72591 123.30273 243.61133 C 119.85135 241.49674 117.17708 238.4835 115.28125 234.57031 C 113.38542 230.63282 112.42665 226.11197 112.40234 221.00781 L 112.40234 218.38281 C 112.40234 213.15713 113.33747 208.56337 115.20898 204.60156 C 117.10482 200.61546 119.76628 197.5638 123.19336 195.44922 C 126.64475 193.31033 130.58225 192.24219 135.00586 192.24219 z M 186.48438 192.24219 C 192.77951 192.24219 197.70139 193.74783 201.25 196.76172 C 204.79861 199.7513 206.90234 204.11545 207.55859 209.85156 L 196.91211 209.85156 C 196.426 206.81337 195.34505 204.58941 193.66797 203.17969 C 192.0152 201.76996 189.72917 201.06445 186.8125 201.06445 C 183.09376 201.06445 180.2628 202.46268 178.31836 205.25781 C 176.37391 208.05295 175.38954 212.2092 175.36523 217.72656 L 175.36523 221.11719 C 175.36523 226.68316 176.42252 230.88672 178.53711 233.73047 C 180.65169 236.57422 183.75066 237.99609 187.83398 237.99609 C 191.94162 237.99609 194.8711 237.12109 196.62109 235.37109 L 196.62109 226.2207 L 186.66797 226.2207 L 186.66797 218.16406 L 207.55859 218.16406 L 207.55859 239.3457 C 205.58984 241.70334 202.80621 243.53906 199.20898 244.85156 C 195.61177 246.13975 191.625 246.7832 187.25 246.7832 C 182.65626 246.7832 178.62218 245.78602 175.14648 243.79297 C 171.6951 241.77561 169.02083 238.85894 167.125 235.04297 C 165.25347 231.227 164.2947 226.74262 164.24609 221.58984 L 164.24609 217.98047 C 164.24609 212.68186 165.13195 208.10091 166.90625 204.23633 C 168.70485 200.34744 171.28255 197.38151 174.63672 195.33984 C 178.01519 193.27387 181.96355 192.24219 186.48438 192.24219 z M 75.90625 192.9707 L 86.84375 192.9707 L 86.84375 237.26758 L 110.06836 237.26758 L 110.06836 246.05469 L 75.90625 246.05469 L 75.90625 192.9707 z M 135.00586 201.2832 C 131.33572 201.2832 128.50478 202.71788 126.51172 205.58594 C 124.51867 208.42967 123.50867 212.6096 123.48438 218.12695 L 123.48438 220.71484 C 123.48438 226.13498 124.48156 230.3405 126.47461 233.33008 C 128.46767 236.31966 131.33509 237.81445 135.07812 237.81445 C 138.74826 237.81445 141.56836 236.37978 143.53711 233.51172 C 145.50586 230.61936 146.50304 226.41579 146.52734 220.89844 L 146.52734 218.30859 C 146.52734 212.74264 145.53017 208.51345 143.53711 205.62109 C 141.54406 202.72874 138.7003 201.2832 135.00586 201.2832 z " /></svg>
