<?xml version="1.0" encoding="UTF-8" standalone="no"?>
<!-- Generator: Adobe Illustrator 15.1.0, SVG Export Plug-In . SVG Version: 6.00 Build 0)  -->

<svg
   class="w-5 h-5 text-gray-500"
   fill="none"
   viewBox="0 0 283.45999 283.45999"
   stroke="currentColor"
   version="1.1"
   id="svg4"
   sodipodi:docname="magnify-alt.svg"
   width="283.45999"
   height="283.45999"
   inkscape:version="1.2.2 (b0a8486541, 2022-12-01)"
   xmlns:inkscape="http://www.inkscape.org/namespaces/inkscape"
   xmlns:sodipodi="http://sodipodi.sourceforge.net/DTD/sodipodi-0.dtd"
   xmlns="http://www.w3.org/2000/svg"
   xmlns:svg="http://www.w3.org/2000/svg">
  <defs
     id="defs8" />
  <sodipodi:namedview
     id="namedview6"
     pagecolor="#ffffff"
     bordercolor="#000000"
     borderopacity="0.25"
     inkscape:showpageshadow="2"
     inkscape:pageopacity="0.0"
     inkscape:pagecheckerboard="0"
     inkscape:deskcolor="#d1d1d1"
     showgrid="false"
     inkscape:zoom="1.09375"
     inkscape:cx="21.485714"
     inkscape:cy="228.57143"
     inkscape:window-width="1400"
     inkscape:window-height="1043"
     inkscape:window-x="53"
     inkscape:window-y="7"
     inkscape:window-maximized="0"
     inkscape:current-layer="svg4" />
  <path
     style="color:#000000;fill:#000000;stroke-linecap:round;stroke-linejoin:round;-inkscape-stroke:none;stroke:none"
     d="M 114.80078,7.0957031 C 55.479558,7.0957031 7.0976475,55.465844 7.0839844,114.78711 7.0703169,174.12752 55.46041,222.5293 114.80078,222.5293 c 24.83153,0 47.68148,-8.55786 65.93359,-22.76368 l 72.65625,72.65625 c 5.25816,5.25772 13.78286,5.25772 19.04102,0 5.25901,-5.25838 5.25901,-13.78458 0,-19.04296 l -72.6582,-72.65821 c 14.1996,-18.25467 22.74986,-41.104 22.74414,-65.93359 C 222.50392,55.465844 174.122,7.0957031 114.80078,7.0957031 Z m 0,26.9277339 c 44.76984,0 80.7768,35.999668 80.78711,80.769533 0.0103,44.78462 -36.00251,80.80664 -80.78711,80.80664 -44.784598,0 -80.797481,-36.02202 -80.787108,-80.80664 0.0059,-25.655522 11.83278,-48.430998 30.35558,-63.202246 6.102131,-4.866224 12.930975,-8.863749 20.303294,-11.809366 9.300451,-3.716003 19.465824,-5.757921 30.128234,-5.757921 z"
     id="path2"
     sodipodi:nodetypes="ssscccccsssssssss" />
</svg>
