<?xml version="1.0" encoding="UTF-8" standalone="no"?>
<svg
   version="1.1"
   id="Layer_3"
   x="0px"
   y="0px"
   width="283.46px"
   height="283.46px"
   viewBox="0 0 283.46 283.46"
   enable-background="new 0 0 283.46 283.46"
   xml:space="preserve"
   sodipodi:docname="map-fuel.svg"
   inkscape:version="1.4.2 (ebf0e940d0, 2025-05-08)"
   xmlns:inkscape="http://www.inkscape.org/namespaces/inkscape"
   xmlns:sodipodi="http://sodipodi.sourceforge.net/DTD/sodipodi-0.dtd"
   xmlns="http://www.w3.org/2000/svg"
   xmlns:svg="http://www.w3.org/2000/svg"><defs
   id="defs15" /><sodipodi:namedview
   id="namedview13"
   pagecolor="#ffffff"
   bordercolor="#000000"
   borderopacity="0.25"
   inkscape:showpageshadow="2"
   inkscape:pageopacity="0.0"
   inkscape:pagecheckerboard="0"
   inkscape:deskcolor="#d1d1d1"
   showgrid="false"
   inkscape:zoom="2.0954269"
   inkscape:cx="-20.998108"
   inkscape:cy="152.71351"
   inkscape:window-width="1920"
   inkscape:window-height="995"
   inkscape:window-x="0"
   inkscape:window-y="0"
   inkscape:window-maximized="1"
   inkscape:current-layer="Layer_3" />

<path
   d="m 10.78125,0 -0.625,0.71875 1.1875,1.09375 c 0.03621,0.036212 0.0856,0.084693 0.125,0.125 l -0.25,0.28125 C 10.818532,2.6189681 11.105689,3.1369332 11.25,3.28125 l 0.75,0.75 V 10 c 0,1 -0.392136,1 -0.5,1 C 11.392136,11 11,11 11,10 V 6 C 11,4.7190916 10,4 9,4 V 2 C 9,1.4486964 8.575273,1 8,1 H 2 C 1.400757,1 1,1.4247267 1,2 V 14 H 9 V 5 c 0,0 1,0 1,1 v 4 c 0,2 1.239698,2 1.5,2 0.275652,0 1.5,0 1.5,-2 V 3 C 13,2 12.713983,1.7907839 12.375,1.46875 Z M 2,3 H 8 V 6 H 2 Z"
   id="fuel"
   style="fill:#000000;fill-opacity:1;stroke:none"
   transform="matrix(16.830812,0,0,16.830812,23.914312,23.914312)" /></svg>
