<?xml version="1.0" encoding="UTF-8" standalone="no"?>
<svg
   version="1.1"
   id="Layer_3"
   x="0px"
   y="0px"
   width="283.46px"
   height="283.46px"
   viewBox="0 0 283.46 283.46"
   enable-background="new 0 0 283.46 283.46"
   xml:space="preserve"
   sodipodi:docname="map-cinema.svg"
   inkscape:version="1.4.2 (ebf0e940d0, 2025-05-08)"
   xmlns:inkscape="http://www.inkscape.org/namespaces/inkscape"
   xmlns:sodipodi="http://sodipodi.sourceforge.net/DTD/sodipodi-0.dtd"
   xmlns="http://www.w3.org/2000/svg"
   xmlns:svg="http://www.w3.org/2000/svg"><defs
   id="defs15" /><sodipodi:namedview
   id="namedview13"
   pagecolor="#ffffff"
   bordercolor="#000000"
   borderopacity="0.25"
   inkscape:showpageshadow="2"
   inkscape:pageopacity="0.0"
   inkscape:pagecheckerboard="0"
   inkscape:deskcolor="#d1d1d1"
   showgrid="false"
   inkscape:zoom="2.0954269"
   inkscape:cx="-20.998108"
   inkscape:cy="152.71351"
   inkscape:window-width="1920"
   inkscape:window-height="995"
   inkscape:window-x="0"
   inkscape:window-y="0"
   inkscape:window-maximized="1"
   inkscape:current-layer="Layer_3" />

<g
   id="g7"
   transform="matrix(16.830812,0,0,16.830812,7.0834997,7.0834997)"><path
     d="M 1.1428572,0.5714285 C 0.5097143,0.5714285 0,1.0811428 0,1.7142857 V 14.285715 c 0,0.633143 0.5097143,1.142857 1.1428572,1.142857 H 14.857143 C 15.490286,15.428572 16,14.918858 16,14.285715 V 1.7142857 C 16,1.0811428 15.490286,0.5714285 14.857143,0.5714285 Z m 0.2857143,1.1428572 h 0.5714286 c 0.1582857,0 0.2857143,0.1274286 0.2857143,0.2857143 v 0.5714286 c 0,0.1582857 -0.1274286,0.2857143 -0.2857143,0.2857143 H 1.4285715 c -0.1582857,0 -0.2857143,-0.1274286 -0.2857143,-0.2857143 V 2 c 0,-0.1582857 0.1274286,-0.2857143 0.2857143,-0.2857143 z m 3.1428572,0 H 11.428572 V 7.4285716 H 4.5714287 Z m 9.4285713,0 h 0.571429 c 0.158286,0 0.285714,0.1274286 0.285714,0.2857143 v 0.5714286 c 0,0.1582857 -0.127428,0.2857143 -0.285714,0.2857143 H 14 c -0.158285,0 -0.285714,-0.1274286 -0.285714,-0.2857143 V 2 C 13.714286,1.8417143 13.841715,1.7142857 14,1.7142857 Z M 1.4285715,4 h 0.5714286 c 0.1582857,0 0.2857143,0.1274286 0.2857143,0.2857143 v 0.5714286 c 0,0.1582857 -0.1274286,0.2857143 -0.2857143,0.2857143 H 1.4285715 c -0.1582857,0 -0.2857143,-0.1274286 -0.2857143,-0.2857143 V 4.2857143 C 1.1428572,4.1274286 1.2702858,4 1.4285715,4 Z M 14,4 h 0.571429 c 0.158286,0 0.285714,0.1274286 0.285714,0.2857143 v 0.5714286 c 0,0.1582857 -0.127428,0.2857143 -0.285714,0.2857143 H 14 c -0.158285,0 -0.285714,-0.1274286 -0.285714,-0.2857143 V 4.2857143 C 13.714286,4.1274286 13.841715,4 14,4 Z M 1.4285715,6.2857144 h 0.5714286 c 0.1582857,0 0.2857143,0.1274286 0.2857143,0.2857143 v 0.5714286 c 0,0.1582857 -0.1274286,0.2857143 -0.2857143,0.2857143 H 1.4285715 c -0.1582857,0 -0.2857143,-0.1274286 -0.2857143,-0.2857143 V 6.5714287 c 0,-0.1582857 0.1274286,-0.2857143 0.2857143,-0.2857143 z m 12.5714285,0 h 0.571429 c 0.158286,0 0.285714,0.1274286 0.285714,0.2857143 v 0.5714286 c 0,0.1582857 -0.127428,0.2857143 -0.285714,0.2857143 H 14 c -0.158285,0 -0.285714,-0.1274286 -0.285714,-0.2857143 V 6.5714287 C 13.714286,6.413143 13.841715,6.2857144 14,6.2857144 Z M 1.4285715,8.5714285 h 0.5714286 c 0.1582857,0 0.2857143,0.127429 0.2857143,0.285715 v 0.571428 c 0,0.158286 -0.1274286,0.285714 -0.2857143,0.285714 H 1.4285715 c -0.1582857,0 -0.2857143,-0.127428 -0.2857143,-0.285714 v -0.571428 c 0,-0.158286 0.1274286,-0.285715 0.2857143,-0.285715 z m 3.1428572,0 H 11.428572 V 14.285715 H 4.5714287 Z m 9.4285713,0 h 0.571429 c 0.158286,0 0.285714,0.127429 0.285714,0.285715 v 0.571428 c 0,0.158286 -0.127428,0.285714 -0.285714,0.285714 H 14 c -0.158285,0 -0.285714,-0.127428 -0.285714,-0.285714 v -0.571428 c 0,-0.158286 0.127429,-0.285715 0.285714,-0.285715 z M 1.4285715,10.857144 h 0.5714286 c 0.1582857,0 0.2857143,0.127428 0.2857143,0.285714 v 0.571428 c 0,0.158286 -0.1274286,0.285715 -0.2857143,0.285715 H 1.4285715 c -0.1582857,0 -0.2857143,-0.127429 -0.2857143,-0.285715 v -0.571428 c 0,-0.158286 0.1274286,-0.285714 0.2857143,-0.285714 z m 12.5714285,0 h 0.571429 c 0.158286,0 0.285714,0.127428 0.285714,0.285714 v 0.571428 c 0,0.158286 -0.127428,0.285715 -0.285714,0.285715 H 14 c -0.158285,0 -0.285714,-0.127429 -0.285714,-0.285715 v -0.571428 c 0,-0.158286 0.127429,-0.285714 0.285714,-0.285714 z M 1.4285715,13.142858 h 0.5714286 c 0.1582857,0 0.2857143,0.127429 0.2857143,0.285714 v 0.571429 c 0,0.158286 -0.1274286,0.285714 -0.2857143,0.285714 H 1.4285715 c -0.1582857,0 -0.2857143,-0.127428 -0.2857143,-0.285714 v -0.571429 c 0,-0.158285 0.1274286,-0.285714 0.2857143,-0.285714 z m 12.5714285,0 h 0.571429 c 0.158286,0 0.285714,0.127429 0.285714,0.285714 v 0.571429 c 0,0.158286 -0.127428,0.285714 -0.285714,0.285714 H 14 c -0.158285,0 -0.285714,-0.127428 -0.285714,-0.285714 v -0.571429 c 0,-0.158285 0.127429,-0.285714 0.285714,-0.285714 z"
     id="cinema"
     style="fill:#000000;fill-opacity:1;stroke:none;stroke-width:1.14286" /></g></svg>
