<?xml version="1.0" encoding="UTF-8" standalone="no"?>
<svg
   version="1.1"
   id="Layer_3"
   x="0px"
   y="0px"
   width="283.46px"
   height="283.46px"
   viewBox="0 0 283.46 283.46"
   enable-background="new 0 0 283.46 283.46"
   xml:space="preserve"
   sodipodi:docname="map-theatre.svg"
   inkscape:version="1.4.2 (ebf0e940d0, 2025-05-08)"
   xmlns:inkscape="http://www.inkscape.org/namespaces/inkscape"
   xmlns:sodipodi="http://sodipodi.sourceforge.net/DTD/sodipodi-0.dtd"
   xmlns="http://www.w3.org/2000/svg"
   xmlns:svg="http://www.w3.org/2000/svg"><defs
   id="defs15" /><sodipodi:namedview
   id="namedview13"
   pagecolor="#ffffff"
   bordercolor="#000000"
   borderopacity="0.25"
   inkscape:showpageshadow="2"
   inkscape:pageopacity="0.0"
   inkscape:pagecheckerboard="0"
   inkscape:deskcolor="#d1d1d1"
   showgrid="false"
   inkscape:zoom="2.0954269"
   inkscape:cx="-20.998108"
   inkscape:cy="152.71351"
   inkscape:window-width="1920"
   inkscape:window-height="995"
   inkscape:window-x="0"
   inkscape:window-y="0"
   inkscape:window-maximized="1"
   inkscape:current-layer="Layer_3" />

<g
   id="g5"
   transform="translate(6.0834957,6.0834957)"
   style="fill:#000000"><path
     d="m 1,1 v 134.6465 c 0,0 0,76.94086 76.940857,76.94086 9.380899,0 17.412274,-1.59806 24.645123,-3.60661 -1.12311,-9.2962 -0.6011,-15.62861 -0.6011,-15.62861 v -4.2077 c -6.597895,2.57615 -14.618518,4.2077 -24.044023,4.2077 -57.705643,0 -57.705643,-57.70564 -57.705643,-57.70564 V 29.852821 c 38.470429,18.313088 76.940857,18.313088 115.411286,0 v 22.240717 c 6.43391,2.560771 13.01516,4.953035 19.23521,6.612105 V 1 C 97.176071,27.407668 58.705643,26.103584 1,1 Z m 48.088036,57.705643 c -10.623321,0 -19.235215,8.6119 -19.235215,19.235214 0,10.623315 8.611894,19.235214 19.235215,19.235214 10.62332,0 19.235214,-8.611899 19.235214,-19.235214 0,-10.623314 -8.611894,-19.235214 -19.235214,-19.235214 z m 67.323254,0 V 193.35214 c 0,0 0,76.94086 76.94085,76.94086 76.94086,0 76.94086,-76.94086 76.94086,-76.94086 V 58.705643 c -57.70564,26.407668 -96.17607,25.103584 -153.88171,0 z m 48.08803,57.705647 c 10.62332,0 19.23522,8.6119 19.23522,19.23521 0,10.62332 -8.6119,19.23521 -19.23522,19.23521 -10.62332,0 -19.23521,-8.61189 -19.23521,-19.23521 0,-10.62331 8.61189,-19.23521 19.23521,-19.23521 z m 57.70564,0 c 10.62332,0 19.23522,8.6119 19.23522,19.23521 0,10.62332 -8.6119,19.23521 -19.23522,19.23521 -10.62332,0 -19.23521,-8.61189 -19.23521,-19.23521 0,-10.62331 8.61189,-19.23521 19.23521,-19.23521 z m -144.264103,9.6176 c -28.1265,0 -38.470428,19.56123 -38.470428,38.47043 H 101.98488 V 132.641 c -5.853261,-4.26162 -13.543943,-6.61211 -24.044023,-6.61211 z m 76.940853,67.32325 h 76.94086 c 0,19.23522 -19.23521,38.47043 -38.47043,38.47043 -19.23521,0 -38.47043,-19.23521 -38.47043,-38.47043 z"
     id="theatre"
     style="fill:#000000;fill-opacity:1;stroke:none;stroke-width:19.2352" /></g></svg>
