<?xml version="1.0" encoding="UTF-8" standalone="no"?>
<svg
   version="1.1"
   id="Layer_3"
   x="0px"
   y="0px"
   width="283.46px"
   height="283.46px"
   viewBox="0 0 283.46 283.46"
   enable-background="new 0 0 283.46 283.46"
   xml:space="preserve"
   sodipodi:docname="map-dentist.svg"
   inkscape:version="1.4.2 (ebf0e940d0, 2025-05-08)"
   xmlns:inkscape="http://www.inkscape.org/namespaces/inkscape"
   xmlns:sodipodi="http://sodipodi.sourceforge.net/DTD/sodipodi-0.dtd"
   xmlns="http://www.w3.org/2000/svg"
   xmlns:svg="http://www.w3.org/2000/svg"><defs
   id="defs15" /><sodipodi:namedview
   id="namedview13"
   pagecolor="#ffffff"
   bordercolor="#000000"
   borderopacity="0.25"
   inkscape:showpageshadow="2"
   inkscape:pageopacity="0.0"
   inkscape:pagecheckerboard="0"
   inkscape:deskcolor="#d1d1d1"
   showgrid="false"
   inkscape:zoom="2.0954269"
   inkscape:cx="-20.998108"
   inkscape:cy="152.71351"
   inkscape:window-width="1920"
   inkscape:window-height="995"
   inkscape:window-x="0"
   inkscape:window-y="0"
   inkscape:window-maximized="1"
   inkscape:current-layer="Layer_3" />

<g
   id="g1"
   transform="matrix(19.235214,0,0,19.235214,7.0834977,7.0834977)"><path
     d="m 7,8 c 2,0 2,1 2,3 0,1 -1.009121,3 0,3 1,0 1.751359,-1.142963 2,-3 C 11.248641,9.142963 11,8 11,7 11,5 12,3 12,2 12,1 11.599761,0.21742 11,0 9,0 9,1 7,1 5,1 5,0 3,0 2.400799,0.21742 2,1 2,2 2,3 3,5 3,7 3,8 2.87761,9.57334 3,11 3.12239,12.42666 4,14 5,14 6.008702,14 5,12 5,11 5,9 5,8 7,8 Z"
     id="dentist"
     style="fill:#000000" /></g></svg>
