<?xml version="1.0" encoding="UTF-8" standalone="no"?>
<svg
   version="1.1"
   id="Layer_3"
   x="0px"
   y="0px"
   width="283.46px"
   height="283.46px"
   viewBox="0 0 283.46 283.46"
   enable-background="new 0 0 283.46 283.46"
   xml:space="preserve"
   sodipodi:docname="map-firepit.svg"
   inkscape:version="1.4.2 (ebf0e940d0, 2025-05-08)"
   xmlns:inkscape="http://www.inkscape.org/namespaces/inkscape"
   xmlns:sodipodi="http://sodipodi.sourceforge.net/DTD/sodipodi-0.dtd"
   xmlns="http://www.w3.org/2000/svg"
   xmlns:svg="http://www.w3.org/2000/svg"><defs
   id="defs15" /><sodipodi:namedview
   id="namedview13"
   pagecolor="#ffffff"
   bordercolor="#000000"
   borderopacity="0.25"
   inkscape:showpageshadow="2"
   inkscape:pageopacity="0.0"
   inkscape:pagecheckerboard="0"
   inkscape:deskcolor="#d1d1d1"
   showgrid="false"
   inkscape:zoom="2.0954269"
   inkscape:cx="-20.998108"
   inkscape:cy="152.71351"
   inkscape:window-width="1920"
   inkscape:window-height="995"
   inkscape:window-x="0"
   inkscape:window-y="0"
   inkscape:window-maximized="1"
   inkscape:current-layer="Layer_3" />

<path
   id="path4157-6"
   d="M 119.91495,7.0832091 C 151.30885,71.518576 -13.402097,113.74176 129.82462,202.00897 l 6.19337,-2.25222 C 100.35641,148.14895 245.08757,87.651206 119.91495,7.0832091 Z M 185.04032,73.109486 C 205.22788,132.45123 136.3005,149.45408 157.93926,191.76163 l 32.4688,-11.78636 c 13.02635,-31.77732 46.389,-57.40009 -5.36774,-106.865784 z M 35.608503,180.23799 a 9.6102424,9.6102424 0 0 0 -2.77767,18.69313 l 81.003357,29.4659 -80.965687,29.42842 a 9.4989769,9.4989769 0 0 0 6.4561,17.86731 l 102.286367,-37.19849 102.62406,37.31111 a 9.6176913,9.6176913 0 0 0 6.53143,-18.09255 l -81.00336,-29.4659 80.96569,-29.42842 a 9.4982113,9.4982113 0 0 0 -3.04037,-18.46789 9.4982113,9.4982113 0 0 0 -3.41572,0.59962 L 141.98631,218.14872 39.362273,180.83761 a 9.6102424,9.6102424 0 0 0 -3.75377,-0.59962 z"
   style="fill:#000000;fill-opacity:1;stroke:none;stroke-width:19.2185" /></svg>
