<?xml version="1.0" encoding="UTF-8" standalone="no"?>
<svg
   version="1.1"
   id="Layer_3"
   x="0px"
   y="0px"
   width="283.46px"
   height="283.46px"
   viewBox="0 0 283.46 283.46"
   enable-background="new 0 0 283.46 283.46"
   xml:space="preserve"
   sodipodi:docname="map-museum.svg"
   inkscape:version="1.4.2 (ebf0e940d0, 2025-05-08)"
   xmlns:inkscape="http://www.inkscape.org/namespaces/inkscape"
   xmlns:sodipodi="http://sodipodi.sourceforge.net/DTD/sodipodi-0.dtd"
   xmlns="http://www.w3.org/2000/svg"
   xmlns:svg="http://www.w3.org/2000/svg"><defs
   id="defs15" /><sodipodi:namedview
   id="namedview13"
   pagecolor="#ffffff"
   bordercolor="#000000"
   borderopacity="0.25"
   inkscape:showpageshadow="2"
   inkscape:pageopacity="0.0"
   inkscape:pagecheckerboard="0"
   inkscape:deskcolor="#d1d1d1"
   showgrid="false"
   inkscape:zoom="2.0954269"
   inkscape:cx="-20.998108"
   inkscape:cy="152.71351"
   inkscape:window-width="1920"
   inkscape:window-height="995"
   inkscape:window-x="0"
   inkscape:window-y="0"
   inkscape:window-maximized="1"
   inkscape:current-layer="Layer_3" />

<g
   id="g4"
   transform="translate(116.80055,115.46937)"
   style="fill:#000000"><path
     d="m 24.929454,-89.150877 -115.4115,38.470501 v 19.23525 H 140.34096 v -19.23525 z m -115.4115,76.941 V 7.0253728 h 19.235251 V 103.20162 h -19.235251 l -19.235254,38.4705 h 269.2935 l -19.23524,-38.4705 H 121.1057 V 7.0253728 h 19.23526 V -12.209877 Z m 76.941,19.2352498 c 9.5670802,0 19.2352602,10.2445102 19.2352602,19.2352602 V 103.20162 H -32.776296 V 26.260633 c 0,-10.1434 9.668175,-19.2352602 19.23525,-19.2352602 z m 76.941,0 c 9.68233,0 19.23525,9.0918602 19.23525,19.2352602 v 76.940987 h -38.4705 V 26.260633 c 0,-10.1434 9.55291,-19.2352602 19.23525,-19.2352602 z"
     id="museum"
     style="fill:#000000;fill-opacity:1;stroke:none;stroke-width:19.2352" /></g></svg>
