<?xml version="1.0" encoding="UTF-8" standalone="no"?>
<svg
   version="1.1"
   id="Layer_3"
   x="0px"
   y="0px"
   width="283.46px"
   height="283.46px"
   viewBox="0 0 283.46 283.46"
   enable-background="new 0 0 283.46 283.46"
   xml:space="preserve"
   sodipodi:docname="map-library.svg"
   inkscape:version="1.4.2 (ebf0e940d0, 2025-05-08)"
   xmlns:inkscape="http://www.inkscape.org/namespaces/inkscape"
   xmlns:sodipodi="http://sodipodi.sourceforge.net/DTD/sodipodi-0.dtd"
   xmlns="http://www.w3.org/2000/svg"
   xmlns:svg="http://www.w3.org/2000/svg"><defs
   id="defs15" /><sodipodi:namedview
   id="namedview13"
   pagecolor="#ffffff"
   bordercolor="#000000"
   borderopacity="0.25"
   inkscape:showpageshadow="2"
   inkscape:pageopacity="0.0"
   inkscape:pagecheckerboard="0"
   inkscape:deskcolor="#d1d1d1"
   showgrid="false"
   inkscape:zoom="2.0954269"
   inkscape:cx="-20.998108"
   inkscape:cy="152.71351"
   inkscape:window-width="1920"
   inkscape:window-height="995"
   inkscape:window-x="0"
   inkscape:window-y="0"
   inkscape:window-maximized="1"
   inkscape:current-layer="Layer_3" />

<g
   id="g6"
   transform="matrix(19.235214,0,0,19.235214,-12.151716,-30.188619)"
   style="fill:#000000"><path
     id="path4176"
     d="M 3.5917969,2.8769531 C 3.39328,2.8849528 3.1958998,2.9246486 3,3 v 8 c 0,0 3.1875,-0.125 4,3 V 5.5996094 C 6.38001,4.2940108 4.9814151,2.8209552 3.5917969,2.8769531 Z M 7,14 C 4.9375,12.40625 2,12 2,12 V 4.4003906 L 1,4 v 9 l 6,2 h 2 l 6,-2 V 4 L 14,4.4003906 V 12.400391 L 9,14 C 8.333333,13.74532 7.556181,13.790637 7,14 Z M 13,3 C 11.00748,2.8934496 8.7073046,4.0896818 7.5,5.1191406 v 8.4648434 c 1.1147712,-0.924639 3.113583,-2.141273 5.5,-2.384765 z"
     style="fill:#000000;fill-opacity:1;stroke:none" /></g></svg>
