<?xml version="1.0" encoding="UTF-8" standalone="no"?>
<!-- Generator: Adobe Illustrator 15.1.0, SVG Export Plug-In . SVG Version: 6.00 Build 0)  -->

<svg
   version="1.1"
   id="Layer_4"
   x="0px"
   y="0px"
   width="283.46px"
   height="283.46px"
   viewBox="0 0 283.46 283.46"
   enable-background="new 0 0 283.46 283.46"
   xml:space="preserve"
   sodipodi:docname="math-percent.svg"
   inkscape:version="1.2.2 (b0a8486541, 2022-12-01)"
   xmlns:inkscape="http://www.inkscape.org/namespaces/inkscape"
   xmlns:sodipodi="http://sodipodi.sourceforge.net/DTD/sodipodi-0.dtd"
   xmlns="http://www.w3.org/2000/svg"
   xmlns:svg="http://www.w3.org/2000/svg"><defs
   id="defs13" /><sodipodi:namedview
   id="namedview11"
   pagecolor="#ffffff"
   bordercolor="#000000"
   borderopacity="0.25"
   inkscape:showpageshadow="2"
   inkscape:pageopacity="0.0"
   inkscape:pagecheckerboard="0"
   inkscape:deskcolor="#d1d1d1"
   showgrid="false"
   inkscape:zoom="1.4816906"
   inkscape:cx="57.704355"
   inkscape:cy="247.69004"
   inkscape:window-width="1920"
   inkscape:window-height="1015"
   inkscape:window-x="0"
   inkscape:window-y="0"
   inkscape:window-maximized="1"
   inkscape:current-layer="Layer_4" />

<path
   id="path2"
   d="M 69.783203 37.832031 C 61.032212 37.832031 52.869775 42.143758 46.800781 49.96875 C 40.964787 57.492742 37.751953 67.440526 37.751953 77.978516 C 37.751953 88.516505 40.964787 98.463289 46.800781 105.98828 C 52.870775 113.81327 61.032212 118.12305 69.783203 118.12305 C 78.534194 118.12305 86.697584 113.81327 92.767578 105.98828 C 98.603572 98.464289 101.81641 88.516505 101.81641 77.978516 C 101.81641 67.440526 98.603572 57.493742 92.767578 49.96875 C 86.698584 42.143758 78.535194 37.832031 69.783203 37.832031 z M 225.23438 41.837891 C 223.82622 41.871516 222.42205 42.089188 221.06055 42.492188 C 218.58455 43.225187 216.25283 44.567486 214.29883 46.521484 L 46.521484 214.29883 C 44.567486 216.25183 43.222234 218.58555 42.490234 221.06055 C 40.879236 226.50554 42.223489 232.6395 46.521484 236.9375 C 51.601479 242.01749 59.244162 242.96992 65.285156 239.79492 C 66.680155 239.06192 67.989111 238.1095 69.162109 236.9375 L 236.93945 69.160156 C 238.11045 67.988157 239.06488 66.679155 239.79688 65.285156 C 242.97187 59.244162 242.01945 51.601479 236.93945 46.521484 C 233.71596 43.297988 229.45884 41.737016 225.23438 41.837891 z M 213.67578 165.33789 C 204.92479 165.33789 196.76235 169.64766 190.69336 177.47266 C 184.85637 185.00065 181.64258 194.94843 181.64258 205.48242 C 181.64258 216.02141 184.85637 225.9682 190.69336 233.49219 C 196.76135 241.31718 204.92379 245.62891 213.67578 245.62891 C 222.42777 245.62891 230.58921 241.31718 236.6582 233.49219 C 242.4942 225.9702 245.70898 216.02341 245.70898 205.48242 C 245.70798 194.94643 242.4942 184.99965 236.6582 177.47266 C 230.58821 169.64766 222.42677 165.33789 213.67578 165.33789 z " /></svg>
