<?xml version="1.0" encoding="UTF-8" standalone="no"?>
<!-- Generator: Adobe Illustrator 15.1.0, SVG Export Plug-In . SVG Version: 6.00 Build 0)  -->

<svg
   version="1.0"
   id="Layer_1"
   x="0px"
   y="0px"
   width="283.46px"
   height="283.46px"
   viewBox="0 0 283.46 283.46"
   enable-background="new 0 0 283.46 283.46"
   xml:space="preserve"
   sodipodi:docname="media-pause.svg"
   inkscape:version="1.2.2 (b0a8486541, 2022-12-01)"
   xmlns:inkscape="http://www.inkscape.org/namespaces/inkscape"
   xmlns:sodipodi="http://sodipodi.sourceforge.net/DTD/sodipodi-0.dtd"
   xmlns="http://www.w3.org/2000/svg"
   xmlns:svg="http://www.w3.org/2000/svg"><defs
   id="defs1237" /><sodipodi:namedview
   id="namedview1235"
   pagecolor="#ffffff"
   bordercolor="#000000"
   borderopacity="0.25"
   inkscape:showpageshadow="2"
   inkscape:pageopacity="0.0"
   inkscape:pagecheckerboard="0"
   inkscape:deskcolor="#d1d1d1"
   showgrid="false"
   inkscape:zoom="1.4816906"
   inkscape:cx="19.234785"
   inkscape:cy="197.07218"
   inkscape:window-width="1920"
   inkscape:window-height="1015"
   inkscape:window-x="0"
   inkscape:window-y="0"
   inkscape:window-maximized="1"
   inkscape:current-layer="Layer_1" />
<g
   id="g1232"
   transform="matrix(1.1577996,0,0,1.1522146,-22.36031,-21.57338)"
   style="stroke-width:0.865798">
	<path
   stroke="#000000"
   stroke-width="6.92638"
   stroke-miterlimit="10"
   d="m 97.19,255.116 c 5.555,0 10.061,-4.138 10.061,-9.24 V 37.585 c 0,-5.103 -4.505,-9.241 -10.061,-9.241 -5.556,0 -10.061,4.139 -10.061,9.241 v 208.29 c 0,5.103 4.506,9.241 10.061,9.241 z"
   id="path1226" />
	<g
   id="g1230"
   style="stroke-width:0.865798">
		<path
   stroke="#000000"
   stroke-width="6.92638"
   stroke-miterlimit="10"
   d="m 186.262,255.116 c 5.558,0 10.061,-4.138 10.061,-9.24 V 37.585 c 0,-5.103 -4.503,-9.241 -10.061,-9.241 -5.555,0 -10.062,4.139 -10.062,9.241 v 208.29 c 0.001,5.103 4.509,9.241 10.062,9.241 z"
   id="path1228" />
	</g>
</g>
</svg>
