<?xml version="1.0" encoding="UTF-8" standalone="no"?>
<!-- Generator: Adobe Illustrator 15.1.0, SVG Export Plug-In . SVG Version: 6.00 Build 0)  -->

<svg
   version="1.0"
   id="Layer_1"
   x="0px"
   y="0px"
   width="283.46px"
   height="283.46px"
   viewBox="0 0 283.46 283.46"
   enable-background="new 0 0 283.46 283.46"
   xml:space="preserve"
   sodipodi:docname="media-shuffle.svg"
   inkscape:version="1.2.2 (b0a8486541, 2022-12-01)"
   xmlns:inkscape="http://www.inkscape.org/namespaces/inkscape"
   xmlns:sodipodi="http://sodipodi.sourceforge.net/DTD/sodipodi-0.dtd"
   xmlns="http://www.w3.org/2000/svg"
   xmlns:svg="http://www.w3.org/2000/svg"><defs
   id="defs11" /><sodipodi:namedview
   id="namedview9"
   pagecolor="#ffffff"
   bordercolor="#000000"
   borderopacity="0.25"
   inkscape:showpageshadow="2"
   inkscape:pageopacity="0.0"
   inkscape:pagecheckerboard="0"
   inkscape:deskcolor="#d1d1d1"
   showgrid="false"
   inkscape:zoom="0.52385675"
   inkscape:cx="-454.32268"
   inkscape:cy="202.34539"
   inkscape:window-width="1920"
   inkscape:window-height="1015"
   inkscape:window-x="0"
   inkscape:window-y="0"
   inkscape:window-maximized="1"
   inkscape:current-layer="Layer_1" />

<g
   id="path629"
   transform="matrix(1.078655,0,0,1.078655,2.1373599,-11.941721)"
   style="stroke-width:0.927085"><path
     id="path3432"
     style="color:#000000;fill:#000000;stroke-width:4.63541;-inkscape-stroke:none"
     d="m 196.76627,30.396959 c -0.34766,0 -0.69452,0.08981 -1.00593,0.269788 -0.62307,0.359176 -1.00785,1.025373 -1.00785,1.743989 v 15.894388 c -0.0196,-0.03843 -0.0462,-0.0732 -0.0655,-0.11177 v 4.62687 h -14.78055 c -30.6855,0 -52.52721,11.450696 -66.81501,28.217934 h -0.002 C 98.868042,97.748486 91.616764,118.60268 85.075822,138.20824 h -0.0019 v 0.002 c -6.522832,19.60309 -12.476589,38.19491 -21.205364,50.5911 l -0.0019,0.002 v 0.002 C 55.091771,201.3143 45.195895,208.35899 24.365737,208.35899 H 4.586397 v 22.28259 h 19.77934 c 26.860113,0 45.879481,-12.24344 57.69231,-29.05814 l 0.0019,-0.004 c 11.782299,-16.70668 17.748397,-37.08271 24.174963,-56.32795 v -0.002 c 6.40989,-19.24682 13.26534,-37.34167 23.83194,-49.770167 l 0.002,-0.0019 c 10.64366,-12.480717 24.2764,-20.3748 49.83761,-20.374801 h 14.81717 v 3.33574 c 0.009,-0.0075 0.0195,-0.01181 0.0289,-0.01927 v 18.033424 c 0,0.718616 0.38503,1.383375 1.00785,1.742062 0.31167,0.179707 0.65888,0.271715 1.00593,0.271715 0.34756,0 0.69451,-0.09201 1.00592,-0.271715 L 253.2349,66.174747 c 0.62207,-0.35944 1.00592,-1.024859 1.00592,-1.743988 0,-0.719132 -0.38335,-1.382879 -1.00592,-1.742062 l -55.46271,-32.02195 c -0.31129,-0.17997 -0.65827,-0.269788 -1.00592,-0.269788 z M 4.586397,52.820224 v 2.501324 19.781267 h 19.77934 c 20.812394,0 30.708268,7.041328 39.500867,19.551946 h 0.0019 v 0.0019 c 4.24148,6.030839 7.808394,13.570509 11.124915,21.947279 l 2.395335,6.05097 2.273931,-6.09722 c 2.569801,-6.89249 5.707919,-13.87118 9.296135,-20.808386 l 0.58968,-1.138892 -0.581972,-1.144674 c -2.03803,-4.004071 -4.332664,-7.871741 -6.86994,-11.579674 l -0.0096,-0.01349 -0.0096,-0.01349 C 70.247508,65.079412 51.21202,52.820224 24.365737,52.820224 Z m 108.023253,111.624926 -0.57234,1.70352 c -2.38982,7.11807 -4.91895,14.0978 -8.1688,21.26125 l -0.54729,1.20827 0.69182,1.12925 c 2.69501,4.4037 5.65697,8.66642 9.0803,12.67813 14.27193,16.76708 36.13013,28.21601 66.81308,28.21601 h 14.81717 v 2.18143 c 0.0102,-0.006 0.0187,-0.0117 0.0289,-0.0174 v 19.71575 c 0,0.71862 0.38503,1.3853 1.00785,1.74399 0.31167,0.17971 0.65888,0.26979 1.00593,0.26979 0.34756,0 0.69451,-0.09 1.00592,-0.26979 L 253.2349,222.2434 c 0.62207,-0.35945 1.00592,-1.02293 1.00592,-1.74206 0,-0.71913 -0.38335,-1.38287 -1.00592,-1.74206 L 197.77219,186.7354 c -0.62258,-0.35994 -1.38903,-0.35994 -2.01185,0 -0.62307,0.35918 -1.00785,1.0273 -1.00785,1.74592 v 18.07967 c -0.0221,-0.009 -0.0434,-0.0163 -0.0655,-0.025 v 1.39326 c 0.021,-0.008 0.0442,-0.005 0.0655,-0.0116 v 0.0366 c -0.0122,-7.7e-4 -0.0606,-0.005 -0.0655,-0.006 v 0.41047 h -14.78055 c -25.56191,0 -39.19579,-7.89736 -49.83954,-20.37866 v -0.002 c -5.22965,-6.14301 -9.55518,-13.70008 -13.36608,-22.07061 l -0.66677,-1.46264 z" /></g></svg>
