<?xml version="1.0" encoding="UTF-8" standalone="no"?>
<!-- Generator: Adobe Illustrator 15.1.0, SVG Export Plug-In . SVG Version: 6.00 Build 0)  -->

<svg
   version="1.0"
   id="Layer_1"
   x="0px"
   y="0px"
   width="283.46px"
   height="283.46px"
   viewBox="0 0 283.46 283.46"
   enable-background="new 0 0 283.46 283.46"
   xml:space="preserve"
   sodipodi:docname="media-repeat.svg"
   inkscape:version="1.2.2 (b0a8486541, 2022-12-01)"
   xmlns:inkscape="http://www.inkscape.org/namespaces/inkscape"
   xmlns:sodipodi="http://sodipodi.sourceforge.net/DTD/sodipodi-0.dtd"
   xmlns="http://www.w3.org/2000/svg"
   xmlns:svg="http://www.w3.org/2000/svg"><defs
   id="defs11" /><sodipodi:namedview
   id="namedview9"
   pagecolor="#ffffff"
   bordercolor="#000000"
   borderopacity="0.25"
   inkscape:showpageshadow="2"
   inkscape:pageopacity="0.0"
   inkscape:pagecheckerboard="0"
   inkscape:deskcolor="#d1d1d1"
   showgrid="false"
   inkscape:zoom="0.52385675"
   inkscape:cx="-495.36443"
   inkscape:cy="202.34539"
   inkscape:window-width="1920"
   inkscape:window-height="1015"
   inkscape:window-x="0"
   inkscape:window-y="0"
   inkscape:window-maximized="1"
   inkscape:current-layer="Layer_1" />

<g
   color="#000000"
   fill="#808080"
   id="g1579"
   transform="matrix(16.508199,0,0,16.286603,9.663956,22.569894)"
   style="fill:#000000;stroke:#000000;stroke-width:0.304933"><path
     id="path3438"
     style="color:#000000;fill:#000000;stroke:none;stroke-width:0.304933;-inkscape-stroke:none"
     d="m 6.7024356,0.47662715 c -0.02051,0 -0.041021,0.005307 -0.059393,0.0160696 C 6.6062835,0.5141751 6.58365,0.55405633 6.58365,0.59702903 V 1.8437401 H 3.9980503 3.9921347 C 2.7387629,1.8586847 1.7916222,1.8046754 0.98830061,2.2479977 l -0.002011,0.00204 C 0.56546557,2.4900875 0.24438807,2.8724197 0.08013446,3.3281368 -0.09497406,3.7919092 -0.15625376,4.3334815 -0.15625376,4.999972 v 6.000067 c 0,0.667475 0.05939413,1.207334 0.23437691,1.671835 0.17606055,0.471283 0.49854481,0.853031 0.91017746,1.080139 0.80344099,0.444456 1.75054489,0.389314 3.00383409,0.404258 h 8.0156663 c 1.253372,-0.01495 2.201606,0.03898 3.005846,-0.404258 l 0.002,-0.002 c 0.421199,-0.240265 0.742153,-0.621847 0.906273,-1.0781 v -0.002 c 0.173379,-0.463949 0.234377,-1.00407 0.234377,-1.669796 V 4.999972 c 0,-0.6667113 -0.05985,-1.205776 -0.234377,-1.6699164 v -0.00192 C 15.757811,2.8718819 15.434845,2.4903018 15.013647,2.2500364 l -0.002,-0.00204 C 14.208241,1.803538 13.26109,1.8586838 12.007801,1.8437401 h -1.164076 v 1.3125483 h 1.156268 c 0.626982,0.00749 1.145776,0.023025 1.546935,0.060561 0.401663,0.037583 0.686341,0.1022302 0.830079,0.1815621 h 0.0019 c 0.163159,0.088673 0.225353,0.1518213 0.314475,0.3907065 0.08573,0.2299293 0.150375,0.6299176 0.150375,1.2108543 v 6.0000667 c 0,0.580936 -0.06459,0.980924 -0.150375,1.210854 -0.0902,0.23931 -0.150783,0.300853 -0.314475,0.390706 h -0.002 c -0.14374,0.07933 -0.428415,0.14398 -0.83008,0.181563 -0.40111,0.03754 -0.919834,0.05307 -1.546816,0.06056 H 4.0019546 3.9999433 C 3.3729556,12.836222 2.8529118,12.820702 2.4511154,12.783162 2.048813,12.745572 1.7639657,12.6807 1.6210354,12.601599 h -0.00189 C 1.4573151,12.513173 1.3970509,12.450654 1.3066793,12.210893 1.220898,11.980963 1.1563042,11.580975 1.1563042,11.000039 V 4.999972 c 0,-0.5809367 0.064594,-0.9809249 0.1503751,-1.2108543 0.090325,-0.2396379 0.1517882,-0.300983 0.3143561,-0.3907065 0.1429831,-0.07913 0.4279088,-0.1439773 0.83008,-0.1815621 0.4016654,-0.037538 0.9213417,-0.053068 1.5488279,-0.060561 H 6.58365 V 4.426624 c 0,0.042973 0.022649,0.082763 0.059393,0.1042124 0.018387,0.010747 0.038918,0.01619 0.059393,0.01619 0.020505,0 0.041021,-0.00544 0.059393,-0.01619 l 3.272048,-1.9147975 c 0.0367,-0.021494 0.05939,-0.061209 0.05939,-0.1042124 0,-0.043003 -0.02266,-0.082733 -0.05939,-0.1042123 L 6.7618285,0.49269673 c -0.018365,-0.0107622 -0.038883,-0.0160696 -0.059393,-0.0160696 z" /></g></svg>
