<?xml version="1.0" encoding="UTF-8" standalone="no"?>
<!-- Generator: Adobe Illustrator 15.1.0, SVG Export Plug-In . SVG Version: 6.00 Build 0)  -->

<svg
   version="1.0"
   id="Layer_1"
   x="0px"
   y="0px"
   width="283.46px"
   height="283.46px"
   viewBox="0 0 283.46 283.46"
   enable-background="new 0 0 283.46 283.46"
   xml:space="preserve"
   sodipodi:docname="media-repeat-1.svg"
   inkscape:version="1.2.2 (b0a8486541, 2022-12-01)"
   xmlns:inkscape="http://www.inkscape.org/namespaces/inkscape"
   xmlns:sodipodi="http://sodipodi.sourceforge.net/DTD/sodipodi-0.dtd"
   xmlns="http://www.w3.org/2000/svg"
   xmlns:svg="http://www.w3.org/2000/svg"><defs
   id="defs11" /><sodipodi:namedview
   id="namedview9"
   pagecolor="#ffffff"
   bordercolor="#000000"
   borderopacity="0.25"
   inkscape:showpageshadow="2"
   inkscape:pageopacity="0.0"
   inkscape:pagecheckerboard="0"
   inkscape:deskcolor="#d1d1d1"
   showgrid="false"
   inkscape:zoom="0.52385675"
   inkscape:cx="-495.36443"
   inkscape:cy="202.34539"
   inkscape:window-width="1920"
   inkscape:window-height="1015"
   inkscape:window-x="0"
   inkscape:window-y="0"
   inkscape:window-maximized="1"
   inkscape:current-layer="Layer_1" />

<g
   fill="#808080"
   id="g2320"
   transform="matrix(16.524027,0,0,16.524027,9.5377294,20.917738)"
   style="fill:#000000;stroke:#000000;stroke-width:0.30259"><path
     id="path3450"
     style="color:#000000;fill:#000000;stroke:none;stroke-width:0.30259;-inkscape-stroke:none"
     d="m 11.288243,0.4741999 c -0.02049,0 -0.04099,0.005231 -0.05934,0.0158387 l -1.225602,0.7076579 c 1.66e-4,-0.00208 2.57e-4,-0.0042 4.72e-4,-0.00626 -0.0019,-0.00956 -0.0029,-0.019394 -0.00437,-0.029077 -0.00532,0.00255 -0.010643,0.00511 -0.015957,0.00768 1.416e-4,0.00161 -7.316e-4,0.00423 -3.546e-4,0.00544 0.00296,0.00947 0.00661,0.018728 0.010402,0.027895 L 7.9599929,2.3774417 c -0.036694,0.02117 -0.059336,0.060329 -0.059336,0.102715 0,0.042385 0.022672,0.081529 0.059336,0.102715 l 3.2689141,1.8872849 c 0.01835,0.010594 0.03885,0.015957 0.05934,0.015957 0.02046,0 0.04097,-0.00536 0.05934,-0.015957 0.03671,-0.021141 0.05934,-0.06036 0.05934,-0.102715 V 3.1484544 h 0.591113 c 0.62862,0.00748 1.148201,0.022895 1.550773,0.060518 0.402568,0.037622 0.689163,0.1033985 0.834012,0.1835632 0.163534,0.090257 0.227623,0.1539476 0.318311,0.3945486 0.08611,0.231522 0.150467,0.6324206 0.150467,1.2129591 v 5.9999037 c 0,0.58054 -0.06436,0.981439 -0.150467,1.212959 -0.09085,0.241031 -0.152752,0.305663 -0.316301,0.394549 h -0.002 c -0.144799,0.08014 -0.431313,0.145939 -0.834012,0.183563 -0.402196,0.03757 -0.921827,0.05302 -1.548881,0.06052 H 4.001978 3.9999687 C 3.3729182,12.844035 2.8546541,12.828591 2.4530971,12.791018 2.0510339,12.753397 1.7646815,12.687812 1.6190843,12.607455 1.4549235,12.517344 1.3890277,12.453316 1.298883,12.214798 v -0.002 C 1.2127775,11.981291 1.1484155,11.580487 1.1484155,10.999947 V 5.0000432 c 0,-0.5814592 0.064155,-0.9834988 0.1504675,-1.2148503 C 1.3883789,3.545309 1.4530491,3.4817443 1.6171931,3.3925355 h 0.00189 C 1.764687,3.3121788 2.0510339,3.2465931 2.4530971,3.2089723 2.8546541,3.1713988 3.3729182,3.1559478 3.9999687,3.1484544 H 5.148391 V 1.8515739 H 3.9921675 C 2.7386584,1.8665204 1.7912708,1.8127055 0.99026515,2.2558148 0.57014632,2.4954639 0.24928886,2.8767775 0.08592389,3.3320176 c -0.1740477,0.4628874 -0.2343888,1.001764 -0.2343888,1.6680256 v 5.9999038 c 0,0.666043 0.0589879,1.207579 0.23249762,1.669917 0.16352556,0.454601 0.48455114,0.834917 0.90422306,1.074312 h 0.002009 C 1.792078,14.186075 2.7385797,14.133469 3.9921675,14.148417 h 8.0156715 c 1.25351,-0.01495 2.200897,0.03886 3.001902,-0.404241 0.419673,-0.239395 0.740815,-0.619711 0.904342,-1.074312 v -0.0019 c 0.174044,-0.462843 0.234388,-1.001762 0.234388,-1.668026 V 5.0000432 c 0,-0.6660404 -0.05986,-1.2066021 -0.234388,-1.6699168 C 15.738809,2.8620192 15.418663,2.4813767 15.009741,2.2558148 14.207929,1.8139129 13.261427,1.8665214 12.007839,1.8515739 H 11.406915 V 0.59287178 c 0,-0.0423552 -0.02261,-0.0816634 -0.05934,-0.10283321 -0.01835,-0.0106076 -0.03885,-0.0158387 -0.05934,-0.0158387 z M 9.6799079,1.0114148 c 8.533e-4,0.010909 0.00288,0.021622 0.0039,0.032505 5.659e-4,-0.0061 0.00102,-0.012244 0.00165,-0.018321 5.326e-4,-0.00506 -0.00371,-0.00944 -0.00556,-0.014184 z M 8.0370587,4.8515851 7.992143,4.8965008 C 7.8715256,5.0228165 7.7334274,5.144993 7.5780916,5.2617359 7.420501,5.3782276 7.25938,5.4890717 7.0937117,5.5937572 6.9248705,5.6951742 6.7502527,5.7908995 6.5703261,5.8808628 6.393862,5.9660941 6.2246878,6.0405345 6.0605334,6.1093416 L 5.9179853,6.1699778 5.9824038,6.3086253 6.4296692,7.3007885 6.562525,7.2480717 C 6.9673814,7.0834413 7.4302868,6.8602678 7.8516043,6.5879298 V 11.148405 H 9.1484847 V 4.8515851 Z" /></g></svg>
