<?xml version="1.0" encoding="UTF-8" standalone="no"?>
<!-- Generator: Adobe Illustrator 15.1.0, SVG Export Plug-In . SVG Version: 6.00 Build 0)  -->

<svg
   version="1.0"
   id="Layer_1"
   x="0px"
   y="0px"
   width="283.46px"
   height="283.46px"
   viewBox="0 0 283.46 283.46"
   enable-background="new 0 0 283.46 283.46"
   xml:space="preserve"
   sodipodi:docname="media-resume.svg"
   inkscape:version="1.2.2 (b0a8486541, 2022-12-01)"
   xmlns:inkscape="http://www.inkscape.org/namespaces/inkscape"
   xmlns:sodipodi="http://sodipodi.sourceforge.net/DTD/sodipodi-0.dtd"
   xmlns="http://www.w3.org/2000/svg"
   xmlns:svg="http://www.w3.org/2000/svg"><defs
   id="defs1062" /><sodipodi:namedview
   id="namedview1060"
   pagecolor="#ffffff"
   bordercolor="#000000"
   borderopacity="0.25"
   inkscape:showpageshadow="2"
   inkscape:pageopacity="0.0"
   inkscape:pagecheckerboard="0"
   inkscape:deskcolor="#d1d1d1"
   showgrid="false"
   inkscape:zoom="1.0477135"
   inkscape:cx="71.107228"
   inkscape:cy="147.94121"
   inkscape:window-width="1920"
   inkscape:window-height="1015"
   inkscape:window-x="0"
   inkscape:window-y="0"
   inkscape:window-maximized="1"
   inkscape:current-layer="Layer_1" />
<g
   id="g1202"
   transform="matrix(0.88391921,0,0,0.8854454,47.082307,16.235576)"
   style="stroke-width:1.13035"><path
     d="M 255.421,134.833 36.004,8.153 c -2.463,-1.424 -5.501,-1.424 -7.965,0 -2.465,1.421 -3.982,4.053 -3.982,6.896 v 253.362 c 0,2.843 1.518,5.476 3.982,6.895 1.233,0.711 2.609,1.069 3.982,1.069 1.375,0 2.75,-0.358 3.982,-1.069 L 255.42,148.626 c 2.461,-1.422 3.982,-4.05 3.982,-6.895 0,-2.845 -1.518,-5.477 -3.981,-6.898 z"
     id="path1057"
     style="stroke-width:1.13035" /><path
     stroke="#000000"
     stroke-width="9.04279"
     stroke-miterlimit="10"
     d="m -28.597011,272.37561 c 6.700096,0 12.128403,-4.76789 12.128403,-10.64651 V 21.732045 c 0,-5.879778 -5.428307,-10.647665 -12.128403,-10.647665 -6.696478,0 -12.129607,4.76904 -12.129607,10.647665 V 261.72794 c 0.0012,5.87978 5.43554,10.64767 12.129607,10.64767 z"
     id="path1183" /></g>
</svg>
