<?xml version="1.0" encoding="UTF-8" standalone="no"?>
<!-- Generator: Adobe Illustrator 15.1.0, SVG Export Plug-In . SVG Version: 6.00 Build 0)  -->

<svg
   version="1.1"
   id="Icons"
   x="0px"
   y="0px"
   width="283.46px"
   height="283.46px"
   viewBox="0 0 283.46 283.46"
   enable-background="new 0 0 283.46 283.46"
   xml:space="preserve"
   sodipodi:docname="meter-tach.svg"
   inkscape:version="1.2.2 (b0a8486541, 2022-12-01)"
   xmlns:inkscape="http://www.inkscape.org/namespaces/inkscape"
   xmlns:sodipodi="http://sodipodi.sourceforge.net/DTD/sodipodi-0.dtd"
   xmlns="http://www.w3.org/2000/svg"
   xmlns:svg="http://www.w3.org/2000/svg"><defs
   id="defs5786" /><sodipodi:namedview
   id="namedview5784"
   pagecolor="#ffffff"
   bordercolor="#000000"
   borderopacity="0.25"
   inkscape:showpageshadow="2"
   inkscape:pageopacity="0.0"
   inkscape:pagecheckerboard="0"
   inkscape:deskcolor="#d1d1d1"
   showgrid="false"
   inkscape:zoom="1.0477135"
   inkscape:cx="-119.78466"
   inkscape:cy="275.83878"
   inkscape:window-width="1920"
   inkscape:window-height="1015"
   inkscape:window-x="0"
   inkscape:window-y="0"
   inkscape:window-maximized="1"
   inkscape:current-layer="Icons" />

<path
   id="path6323"
   style="color:#000000;fill:#000000;stroke-width:1.63731;stroke-linecap:round;stroke-linejoin:round;-inkscape-stroke:none;paint-order:fill markers stroke"
   d="M 137.05317,32.739153 C 122.3957,33.23983 108.39471,36.18843 95.288236,41.007182 l 6.673024,16.368884 c 0.97238,2.393869 -0.17743,5.119629 -2.566548,6.096776 -0.579933,0.233563 -1.177997,0.346141 -1.762167,0.346141 -1.846784,0 -3.59383,-1.098737 -4.33265,-2.912692 L 86.61113,44.490212 C 73.012554,50.598881 60.652849,58.904207 49.89669,68.942248 l 12.492507,12.486617 c 1.823481,1.828223 1.823481,4.787758 0,6.615982 -0.916243,0.912007 -2.113856,1.364894 -3.306031,1.364894 -1.196935,0 -2.394557,-0.453411 -3.30603,-1.364894 L 43.286595,75.552339 C 33.601579,85.930216 25.556877,97.814188 19.515036,110.85274 l 16.307915,6.86576 c 2.379574,1.00045 3.492263,3.74474 2.491815,6.12432 -0.752588,1.78641 -2.487541,2.86208 -4.311017,2.86156 -0.603236,0 -1.2196,-0.11598 -1.813302,-0.36384 l -16.300048,-6.86971 c -5.152214,13.52226 -8.2874838,28.0319 -8.8069033,43.238 H 43.548167 c 2.580829,0 4.676824,2.09403 4.676824,4.67486 0,2.58082 -2.095995,4.6763 -4.676824,4.67682 H 7.1660971 c 0.5045065,14.64923 3.2896919,28.70026 8.1165899,41.79248 l 16.437718,-6.70056 c 2.393875,-0.9819 5.124405,0.17743 6.096785,2.56655 0.972379,2.39387 -0.178881,5.11964 -2.568517,6.09678 l -16.482952,6.7163 c 4.555774,10.11872 10.323795,19.57543 17.114265,28.18878 H 247.57804 c 6.46886,-8.20539 11.96319,-17.20326 16.41216,-26.78258 l -16.35512,-6.88937 c -2.3748,-1.00046 -3.49227,-3.74476 -2.49182,-6.12432 1.00522,-2.37958 3.73999,-3.49226 6.12432,-2.49181 l 16.32561,6.87363 c 5.16134,-13.50858 8.17729,-28.04697 8.70071,-43.24588 h -36.38403 c -2.58084,0 -4.67486,-2.096 -4.67486,-4.67682 0,-2.58083 2.09402,-4.67486 4.67486,-4.67486 h 36.46663 c -0.50062,-14.65564 -3.45038,-28.65592 -8.26803,-41.761 l -16.37085,6.66713 c -0.5794,0.23356 -1.17323,0.34614 -1.76216,0.34614 -1.84202,0 -3.59581,-1.09874 -4.33462,-2.91269 -0.97238,-2.39386 0.17743,-5.11965 2.56655,-6.09678 l 16.41609,-6.6868 C 258.51481,98.666738 250.20923,86.308155 240.17143,75.552339 l -12.48661,12.490544 c -0.91624,0.911474 -2.1119,1.370795 -3.30406,1.370795 -1.19693,0 -2.39569,-0.459321 -3.31193,-1.370795 -1.82347,-1.82772 -1.82347,-4.78661 0,-6.610091 L 233.56134,68.942248 C 223.18304,59.256842 211.30013,51.212618 198.26096,45.17069 l -6.86577,16.305949 c -0.75259,1.785881 -2.48755,2.861559 -4.31101,2.861559 -0.60748,0 -1.21961,-0.115145 -1.8133,-0.36778 -2.37959,-1.000448 -3.4987,-3.741937 -2.49772,-6.126281 l 6.8697,-16.298084 c -13.52213,-5.152034 -28.03207,-8.287564 -43.23801,-8.8069 v 36.464671 c 0,2.58084 -2.09404,4.674859 -4.67486,4.674859 -2.58083,0 -4.67682,-2.094019 -4.67682,-4.674859 z m 51.42933,87.892037 -13.33032,22.21787 c -6.30195,10.50552 -11.23409,21.72637 -16.61079,32.73185 -3.6279,7.42898 -12.03397,12.10011 -21.22074,10.0007 -6.75529,-1.54278 -12.24775,-7.03191 -13.79053,-13.7925 -2.09464,-9.18254 2.56975,-17.58892 9.99873,-21.21681 11.01024,-5.38146 22.23132,-10.30831 32.73579,-16.61079 z" /></svg>
