<?xml version="1.0" encoding="UTF-8" standalone="no"?>
<!-- Generator: Adobe Illustrator 15.1.0, SVG Export Plug-In . SVG Version: 6.00 Build 0)  -->

<svg
   version="1.0"
   id="Layer_2"
   x="0px"
   y="0px"
   width="283.46px"
   height="283.46px"
   viewBox="0 0 283.46 283.46"
   enable-background="new 0 0 283.46 283.46"
   xml:space="preserve"
   sodipodi:docname="meter-tach-alt-1.svg"
   inkscape:version="1.2.2 (b0a8486541, 2022-12-01)"
   xmlns:inkscape="http://www.inkscape.org/namespaces/inkscape"
   xmlns:sodipodi="http://sodipodi.sourceforge.net/DTD/sodipodi-0.dtd"
   xmlns="http://www.w3.org/2000/svg"
   xmlns:svg="http://www.w3.org/2000/svg"><defs
   id="defs7" /><sodipodi:namedview
   id="namedview5"
   pagecolor="#ffffff"
   bordercolor="#000000"
   borderopacity="0.25"
   inkscape:showpageshadow="2"
   inkscape:pageopacity="0.0"
   inkscape:pagecheckerboard="0"
   inkscape:deskcolor="#d1d1d1"
   showgrid="false"
   inkscape:zoom="2.9633812"
   inkscape:cx="88.412521"
   inkscape:cy="114.73381"
   inkscape:window-width="1920"
   inkscape:window-height="1015"
   inkscape:window-x="0"
   inkscape:window-y="0"
   inkscape:window-maximized="1"
   inkscape:current-layer="Layer_2" />
<path
   d="m 236.87371,103.27262 c -24.36804,-24.300788 -58.01285,-39.3393 -95.14503,-39.3393 -37.13481,0 -70.776994,15.038512 -95.146346,39.3393 -24.397039,24.33376 -39.4988383,57.94824 -39.4988383,95.06065 0,4.89285 0.08174,8.65446 1.714016,11.55246 1.9895773,3.52296 6.2798913,5.77624 15.5659023,7.19491 16.94107,2.59344 50.579292,2.44445 117.366586,2.44445 66.78333,0 100.42156,0.14636 117.36526,-2.44445 9.28601,-1.41867 13.57897,-3.67195 15.56722,-7.19491 1.62964,-2.89405 1.71402,-6.65961 1.71402,-11.55246 -0.005,-37.11372 -15.10707,-70.72821 -39.50279,-95.06065 z M 38.892995,207.08925 c -2.241406,2.24141 -5.3385,3.62844 -8.757303,3.62844 -2.564432,0 -4.945595,-0.78186 -6.923306,-2.11483 -0.540574,-0.36522 -1.042913,-0.78318 -1.518882,-1.2275 -0.104159,-0.0962 -0.213593,-0.18722 -0.313797,-0.28611 0,0 0,0 0,-0.001 v 0 c -0.11207,-0.11339 -0.212274,-0.23469 -0.31907,-0.35335 -0.162173,-0.17404 -0.329619,-0.34412 -0.481243,-0.52607 -1.768074,-2.14252 -2.832082,-4.88626 -2.832082,-7.87656 0,-3.42144 1.388353,-6.5159 3.631077,-8.76126 2.244042,-2.24141 5.3385,-3.63108 8.757303,-3.63108 3.418803,0 6.515897,1.38967 8.757303,3.63108 0,0 0,0 0,0.001 v 0 c 2.242724,2.24272 3.62844,5.33982 3.62844,8.75994 0,3.41748 -1.385716,6.51458 -3.62844,8.7573 z m 14.950174,-55.79913 c -2.244042,2.24272 -5.339819,3.63108 -8.757303,3.63108 v 0 0 c -3.418802,0 -6.514579,-1.38836 -8.758621,-3.63108 -2.241406,-2.24009 -3.627122,-5.3385 -3.627122,-8.75598 0,-3.41881 1.385716,-6.51458 3.627122,-8.75863 2.244042,-2.2414 5.339819,-3.62712 8.758621,-3.62712 v 0 0 c 3.417484,0 6.514579,1.3844 8.757303,3.62712 2.241406,2.24273 3.631077,5.3385 3.631077,8.75863 0,3.41748 -1.389671,6.51457 -3.631077,8.75598 z m 40.844997,-40.845 c -2.24272,2.24272 -5.3385,3.63108 -8.7573,3.63108 v 0 0 c -3.4188,0 -6.51326,-1.38836 -8.7573,-3.63108 -2.24405,-2.24272 -3.62844,-5.3385 -3.62844,-8.7573 0,-3.41881 1.38571,-6.51458 3.62844,-8.75731 2.24272,-2.24272 5.3385,-3.62712 8.7573,-3.62712 v 0 0 c 3.41748,0 6.51458,1.38572 8.7573,3.62712 2.24273,2.24273 3.63108,5.3385 3.63108,8.75731 0,3.4188 -1.38835,6.51458 -3.63108,8.7573 z M 132.97138,77.981658 c 2.24009,-2.242724 5.33982,-3.631076 8.7573,-3.631076 3.4188,0 6.5159,1.388352 8.7573,3.631076 2.24009,2.242724 3.62844,5.338502 3.62844,8.757302 0,3.4188 -1.38835,6.51458 -3.62844,8.7573 -2.24008,2.24273 -5.3385,3.62713 -8.7573,3.62713 -3.41748,0 -6.51721,-1.3844 -8.7573,-3.62713 -2.24141,-2.24272 -3.63108,-5.3385 -3.63108,-8.7573 0,-3.4188 1.38967,-6.514578 3.63108,-8.757302 z m 70.45924,59.734772 v 0 c 0.008,0.49311 -0.17008,0.98754 -0.5353,1.36726 0,0.003 -50.59116,52.63347 -50.59116,52.63347 -0.0356,0.033 -0.0409,0.0949 -0.0158,0.14108 0.58936,0.95985 1.05346,2.00408 1.36198,3.10764 0.30325,1.07192 0.4641,2.19658 0.4641,3.36607 0,0.85437 -0.0844,1.68764 -0.25051,2.49587 -0.49442,2.41808 -1.69555,4.58038 -3.37793,6.26275 -2.24008,2.24009 -5.3385,3.62844 -8.7573,3.62844 -3.41748,0 -6.5159,-1.38835 -8.7573,-3.62844 -2.24141,-2.24141 -3.63108,-5.34114 -3.63108,-8.75862 0,-3.42012 1.38967,-6.51458 3.63108,-8.75994 2.2414,-2.24141 5.33982,-3.63108 8.7573,-3.63108 1.07719,0 2.12802,0.13976 3.12478,0.40082 1.03501,0.27028 2.01595,0.66714 2.92438,1.18003 0.0488,0.0264 0.1068,0.0185 0.14635,-0.0224 l 50.5872,-52.62952 c 0.36786,-0.38236 0.85306,-0.58013 1.34616,-0.58936 0.48916,-0.008 0.98359,0.16745 1.36462,0.5353 l 1.61909,1.55184 c 0.19118,0.18459 0.33489,0.39818 0.43246,0.6276 0.0514,0.11998 0.0567,0.25051 0.0831,0.37708 0.025,0.11603 0.0712,0.22546 0.0738,0.34412 z m 2.85186,-27.27131 c -2.24405,2.24272 -5.3385,3.63108 -8.75731,3.63108 h -0.003 v 0 c -2.2124,0 -4.28504,-0.58409 -6.08212,-1.60195 -0.0897,-0.0514 -0.178,-0.10548 -0.26502,-0.15822 -0.53266,-0.3217 -1.04818,-0.67505 -1.52679,-1.0706 -0.30588,-0.25314 -0.5999,-0.52079 -0.88074,-0.80031 -2.24536,-2.24272 -3.62976,-5.3385 -3.62976,-8.7573 0,-2.61717 0.8135,-5.0458 2.20054,-7.04593 0.19777,-0.28611 0.41004,-0.56299 0.63154,-0.83064 0.25183,-0.30588 0.51948,-0.5999 0.79768,-0.87942 2.24141,-2.24272 5.3385,-3.62712 8.75599,-3.62712 h 0.003 v 0 c 3.42012,0 6.51458,1.3844 8.75862,3.62712 2.24273,2.24273 3.63108,5.3385 3.63108,8.75731 -0.003,3.41748 -1.38967,6.51326 -3.63371,8.75598 z m 23.33171,40.845 c -2.24272,-2.24009 -3.62844,-5.3385 -3.62844,-8.75598 0,-3.41881 1.38572,-6.51458 3.62844,-8.75994 0.13844,-0.13844 0.29138,-0.26502 0.43773,-0.39686 2.19922,-2.00145 5.11304,-3.23027 8.31825,-3.23027 3.42013,0 6.5159,1.3844 8.75863,3.62713 1.68105,1.68237 2.88482,3.84467 3.37924,6.26275 0.16613,0.80558 0.25051,1.64018 0.25051,2.49719 0,0.42718 -0.0211,0.85041 -0.0646,1.26573 -0.29666,2.91251 -1.60458,5.52704 -3.56647,7.49025 -2.24009,2.24272 -5.3385,3.63108 -8.75862,3.63108 -3.41617,0 -6.51458,-1.38836 -8.75467,-3.63108 z m 36.09454,55.79913 c -2.24404,2.24141 -5.33982,3.62844 -8.7573,3.62844 -3.42144,0 -6.51458,-1.38703 -8.75994,-3.62844 0,0 0,0 0,-0.001 -10e-4,0 -10e-4,0 -10e-4,0 -2.24273,-2.2414 -3.62844,-5.3385 -3.62844,-8.75598 0,-3.42144 1.38571,-6.51458 3.62844,-8.76126 2.24272,-2.24141 5.3385,-3.63108 8.75862,-3.63108 3.42012,0 6.51194,1.38967 8.75862,3.63108 0,0 0,0 0,0.001 10e-4,0 10e-4,0 10e-4,0 0.0422,0.0422 0.0817,0.091 0.12262,0.1358 1.01258,1.04291 1.84059,2.26118 2.43917,3.60603 0.68429,1.5347 1.07192,3.22894 1.07192,5.01811 -0.003,3.41748 -1.39231,6.51589 -3.63371,8.7573 z"
   id="path2"
   style="stroke-width:1.31847;fill:#000000" />
</svg>
