<?xml version="1.0" encoding="UTF-8" standalone="no"?>
<!-- Generator: Adobe Illustrator 15.1.0, SVG Export Plug-In . SVG Version: 6.00 Build 0)  -->

<svg
   version="1.1"
   id="Layer_1"
   x="0px"
   y="0px"
   width="283.464px"
   height="283.464px"
   viewBox="0 0 283.464 283.464"
   enable-background="new 0 0 283.464 283.464"
   xml:space="preserve"
   sodipodi:docname="ml.svg"
   inkscape:version="1.2.2 (b0a8486541, 2022-12-01)"
   xmlns:inkscape="http://www.inkscape.org/namespaces/inkscape"
   xmlns:sodipodi="http://sodipodi.sourceforge.net/DTD/sodipodi-0.dtd"
   xmlns="http://www.w3.org/2000/svg"
   xmlns:svg="http://www.w3.org/2000/svg"><path
   id="Combined-Shape"
   style="fill:#000000;fill-rule:evenodd;stroke:none;stroke-width:0.701281"
   d="M 66.927734 7.0859375 L 66.927734 37.007812 L 96.849609 37.007812 L 96.849609 7.0859375 L 66.927734 7.0859375 z M 126.77148 7.0859375 L 126.77148 37.007812 L 156.69336 37.007812 L 156.69336 7.0859375 L 126.77148 7.0859375 z M 186.61328 7.0859375 L 186.61328 37.007812 L 216.53516 37.007812 L 216.53516 7.0859375 L 186.61328 7.0859375 z M 51.96875 51.96875 L 51.96875 231.49609 L 231.49609 231.49609 L 231.49609 51.96875 L 51.96875 51.96875 z M 7.0859375 66.927734 L 7.0859375 96.849609 L 37.007812 96.849609 L 37.007812 66.927734 L 7.0859375 66.927734 z M 246.45703 66.927734 L 246.45703 96.849609 L 276.37891 96.849609 L 276.37891 66.927734 L 246.45703 66.927734 z M 72.173828 103.81445 L 85.091797 103.81445 L 109.88281 165.68945 L 134.67383 103.81445 L 147.64258 103.81445 L 147.64258 179.64844 L 137.64258 179.64844 L 137.64258 150.11719 L 138.58008 118.24219 L 113.68555 179.64844 L 106.0293 179.64844 L 81.185547 118.39844 L 82.173828 150.11719 L 82.173828 179.64844 L 72.173828 179.64844 L 72.173828 103.81445 z M 165.29883 103.81445 L 175.35156 103.81445 L 175.35156 171.4707 L 211.28906 171.4707 L 211.28906 179.64844 L 165.29883 179.64844 L 165.29883 103.81445 z M 7.0859375 126.77148 L 7.0859375 156.69336 L 37.007812 156.69336 L 37.007812 126.77148 L 7.0859375 126.77148 z M 246.45703 126.77148 L 246.45703 156.69336 L 276.37891 156.69336 L 276.37891 126.77148 L 246.45703 126.77148 z M 7.0859375 186.61328 L 7.0859375 216.53516 L 37.007812 216.53516 L 37.007812 186.61328 L 7.0859375 186.61328 z M 246.45703 186.61328 L 246.45703 216.53516 L 276.37891 216.53516 L 276.37891 186.61328 L 246.45703 186.61328 z M 66.927734 246.45703 L 66.927734 276.37891 L 96.849609 276.37891 L 96.849609 246.45703 L 66.927734 246.45703 z M 126.77148 246.45703 L 126.77148 276.37891 L 156.69336 276.37891 L 156.69336 246.45703 L 126.77148 246.45703 z M 186.61328 246.45703 L 186.61328 276.37891 L 216.53516 276.37891 L 216.53516 246.45703 L 186.61328 246.45703 z " /><defs
   id="defs447" /><sodipodi:namedview
   id="namedview445"
   pagecolor="#ffffff"
   bordercolor="#000000"
   borderopacity="0.25"
   inkscape:showpageshadow="2"
   inkscape:pageopacity="0.0"
   inkscape:pagecheckerboard="0"
   inkscape:deskcolor="#d1d1d1"
   showgrid="false"
   inkscape:zoom="2.0953974"
   inkscape:cx="47.00779"
   inkscape:cy="170.85065"
   inkscape:window-width="1920"
   inkscape:window-height="1015"
   inkscape:window-x="0"
   inkscape:window-y="0"
   inkscape:window-maximized="1"
   inkscape:current-layer="Layer_1" />

</svg>
