<?xml version="1.0" encoding="UTF-8" standalone="no"?>
<!-- Generator: Adobe Illustrator 15.1.0, SVG Export Plug-In . SVG Version: 6.00 Build 0)  -->

<svg
   version="1.1"
   id="Layer_1"
   x="0px"
   y="0px"
   width="283.464px"
   height="283.464px"
   viewBox="0 0 283.464 283.464"
   enable-background="new 0 0 283.464 283.464"
   xml:space="preserve"
   sodipodi:docname="network.svg"
   inkscape:version="1.2.2 (b0a8486541, 2022-12-01)"
   xmlns:inkscape="http://www.inkscape.org/namespaces/inkscape"
   xmlns:sodipodi="http://sodipodi.sourceforge.net/DTD/sodipodi-0.dtd"
   xmlns="http://www.w3.org/2000/svg"
   xmlns:svg="http://www.w3.org/2000/svg"><defs
   id="defs447" /><sodipodi:namedview
   id="namedview445"
   pagecolor="#ffffff"
   bordercolor="#000000"
   borderopacity="0.25"
   inkscape:showpageshadow="2"
   inkscape:pageopacity="0.0"
   inkscape:pagecheckerboard="0"
   inkscape:deskcolor="#d1d1d1"
   showgrid="false"
   inkscape:zoom="2.9633394"
   inkscape:cx="157.08629"
   inkscape:cy="154.21791"
   inkscape:window-width="1920"
   inkscape:window-height="1015"
   inkscape:window-x="0"
   inkscape:window-y="0"
   inkscape:window-maximized="1"
   inkscape:current-layer="Layer_1" />

<path
   id="path2768"
   style="color:#000000;fill:#000000;stroke:none;stroke-width:6.78184;stroke-linecap:round;stroke-linejoin:round;-inkscape-stroke:none"
   d="m 111.11897,7.0868219 c -6.39729,-0.0029 -10.32992,0.101828 -13.992842,1.96814 -3.38163,1.7231691 -6.13669,4.4803361 -7.859857,7.8619751 -2.13292,4.186191 -1.966022,8.722449 -1.966022,16.890021 v 26.263017 c 0,8.167572 -0.166905,12.70383 1.966022,16.890021 1.723167,3.381639 4.478227,6.138805 7.859857,7.861975 4.186192,2.132921 8.724572,1.966024 16.892152,1.966024 h 24.3245 V 138.34266 H 61.521859 10.479332 a 3.3909217,3.3909217 0 0 0 -3.390279,3.39028 3.3909217,3.3909217 0 0 0 3.390279,3.38815 h 47.654365 v 51.55679 H 33.807073 c -8.167572,0 -12.703792,-0.16707 -16.890021,1.96602 a 3.3912608,3.3912608 0 0 0 -0.02963,0 c -3.380784,1.72306 -6.109027,4.47721 -7.832347,7.85986 -2.132925,4.18601 -1.966024,8.72385 -1.966024,16.89214 v 26.26091 c 0,8.16828 -0.166906,12.70613 1.966024,16.89212 1.72332,3.38265 4.451609,6.13681 7.832347,7.85987 a 3.3912608,3.3912608 0 0 0 0.02963,0 c 4.186229,2.13313 8.722449,1.96601 16.890021,1.96601 h 55.429572 c 8.167573,0 12.705905,0.16707 16.892135,-1.96601 a 3.3912608,3.3912608 0 0 0 0.0275,0 c 3.38074,-1.72306 6.10903,-4.47722 7.83235,-7.85987 2.13294,-4.18599 1.96603,-8.72384 1.96603,-16.89212 V 223.3959 c 0,-8.16829 0.16692,-12.70613 -1.96603,-16.89214 -1.72322,-3.38265 -4.45161,-6.1368 -7.83235,-7.85986 a 3.3912608,3.3912608 0 0 0 -0.0275,0 c -4.18627,-2.13314 -8.724562,-1.96602 -16.892135,-1.96602 H 64.912137 v -51.55679 h 76.820923 76.82092 v 51.55679 h -24.32664 c -8.16828,0 -12.70398,-0.16707 -16.89001,1.96602 -3.38175,1.72323 -6.13876,4.47811 -7.86198,7.85986 -2.13314,4.18604 -1.96603,8.72385 -1.96603,16.89214 v 26.26091 c 0,8.16828 -0.16707,12.7061 1.96603,16.89212 1.72322,3.38175 4.48023,6.13665 7.86198,7.85987 4.18603,2.13313 8.72173,1.96601 16.89001,1.96601 h 55.42959 c 8.16828,0 12.7061,0.16707 16.89212,-1.96601 3.38175,-1.72322 6.13665,-4.47812 7.85987,-7.85987 2.13313,-4.18602 1.96601,-8.72384 1.96601,-16.89212 V 223.3959 c 0,-8.16829 0.16707,-12.7061 -1.96601,-16.89214 -1.72322,-3.38175 -4.47812,-6.13663 -7.85987,-7.85986 -4.18602,-2.13314 -8.72384,-1.96602 -16.89212,-1.96602 h -24.32452 v -51.55679 h 47.65226 a 3.3909217,3.3909217 0 0 0 3.39026,-3.38815 3.3909217,3.3909217 0 0 0 -3.39026,-3.39028 H 221.94213 145.12121 V 86.787995 h 24.32663 c 8.16829,0 12.70402,0.166904 16.89003,-1.966024 3.38264,-1.723322 6.13891,-4.451609 7.86197,-7.832347 a 3.3912608,3.3912608 0 0 0 0,-0.0021 3.3912608,3.3912608 0 0 0 0,-0.0021 3.3912608,3.3912608 0 0 0 0,-0.0021 3.3912608,3.3912608 0 0 0 0,-0.0021 3.3912608,3.3912608 0 0 0 0,-0.0021 3.3912608,3.3912608 0 0 0 0,-0.0021 3.3912608,3.3912608 0 0 0 0,-0.0021 3.3912608,3.3912608 0 0 0 0,-0.0021 3.3912608,3.3912608 0 0 0 0,-0.0021 3.3912608,3.3912608 0 0 0 0,-0.0021 3.3912608,3.3912608 0 0 0 0,-0.0021 3.3912608,3.3912608 0 0 0 0,-0.0021 3.3912608,3.3912608 0 0 0 0,-0.0021 3.3912608,3.3912608 0 0 0 0,-0.0021 c 2.13314,-4.186276 1.96602,-8.722449 1.96602,-16.890021 V 33.806958 c 0,-8.167572 0.16707,-12.703792 -1.96602,-16.890021 a 3.3912608,3.3912608 0 0 0 0,-0.0021 3.3912608,3.3912608 0 0 0 0,-0.0021 3.3912608,3.3912608 0 0 0 0,-0.0021 3.3912608,3.3912608 0 0 0 0,-0.0021 3.3912608,3.3912608 0 0 0 0,-0.0021 3.3912608,3.3912608 0 0 0 0,-0.0021 3.3912608,3.3912608 0 0 0 0,-0.0021 3.3912608,3.3912608 0 0 0 0,-0.0021 3.3912608,3.3912608 0 0 0 0,-0.0021 3.3912608,3.3912608 0 0 0 0,-0.0021 3.3912608,3.3912608 0 0 0 0,-0.0021 3.3912608,3.3912608 0 0 0 0,-0.0021 3.3912608,3.3912608 0 0 0 0,-0.0021 3.3912608,3.3912608 0 0 0 0,-0.0021 c -1.72306,-3.380784 -4.47933,-6.109027 -7.86197,-7.8323471 -4.18601,-2.132925 -8.72174,-1.966024 -16.89003,-1.966024 h -55.42956 c -1.02095,0 -1.98541,-0.0017 -2.89931,-0.0021 z" /></svg>
