<?xml version="1.0" encoding="UTF-8" standalone="no"?>
<svg
   version="1.1"
   id="Layer_3"
   x="0px"
   y="0px"
   width="283.46px"
   height="283.46px"
   viewBox="0 0 283.46 283.46"
   enable-background="new 0 0 283.46 283.46"
   xml:space="preserve"
   sodipodi:docname="node.svg"
   inkscape:version="1.2.2 (b0a8486541, 2022-12-01)"
   xmlns:inkscape="http://www.inkscape.org/namespaces/inkscape"
   xmlns:sodipodi="http://sodipodi.sourceforge.net/DTD/sodipodi-0.dtd"
   xmlns="http://www.w3.org/2000/svg"
   xmlns:svg="http://www.w3.org/2000/svg"><defs
   id="defs15" /><sodipodi:namedview
   id="namedview13"
   pagecolor="#ffffff"
   bordercolor="#000000"
   borderopacity="0.25"
   inkscape:showpageshadow="2"
   inkscape:pageopacity="0.0"
   inkscape:pagecheckerboard="0"
   inkscape:deskcolor="#d1d1d1"
   showgrid="false"
   inkscape:zoom="0.26192836"
   inkscape:cx="-40.087297"
   inkscape:cy="381.78378"
   inkscape:window-width="1920"
   inkscape:window-height="1015"
   inkscape:window-x="0"
   inkscape:window-y="0"
   inkscape:window-maximized="1"
   inkscape:current-layer="Layer_3" />

<g
   style="fill:none;stroke:none;stroke-width:1.00001965;stroke-dasharray:none"
   id="g242"
   transform="matrix(14.960706,0,0,14.960706,-37.797876,-37.79829)"
   inkscape:transform-center-x="-193.51732"
   inkscape:transform-center-y="15.365943"><path
     fill-rule="evenodd"
     clip-rule="evenodd"
     d="M 20.9999,9.88379 C 21.0033,9.63406 20.8823,9.3827 20.636,9.23825 L 13.1419,4.84334 C 12.4534,4.43956 11.6007,4.43847 10.9111,4.84047 L 3.36938,9.23727 C 3.12196,9.38152 3.00042,9.63347 3.00386,9.88379 H 2.99995 v 4.43101 h 0.00413 c 0.00707,0.2437 0.13266,0.4843 0.37593,0.6207 l 7.56309,4.2423 c 0.6732,0.3776 1.4947,0.3765 2.1669,-0.0028 l 7.5153,-4.2404 c 0.2422,-0.1367 0.3673,-0.3767 0.3743,-0.6198 z M 4.76444,10.4474 c -0.18037,-0.1018 -0.4091,-0.0381 -0.51087,0.1423 -0.10178,0.1804 -0.03806,0.4091 0.14232,0.5109 l 6.35891,3.5879 c 0.7923,0.447 1.7612,0.4446 2.5512,-0.0062 l 6.2781,-3.5826 c 0.1798,-0.1027 0.2424,-0.3317 0.1398,-0.5116 -0.1027,-0.1798 -0.3317,-0.2425 -0.5116,-0.1398 l -6.278,3.5826 c -0.5608,0.32 -1.2486,0.3217 -1.8109,0.0044 z"
     fill="#000000"
     id="path324"
     style="stroke:none;stroke-width:1.00001965;stroke-dasharray:none" /></g></svg>
