<?xml version="1.0" encoding="UTF-8" standalone="no"?>
<svg
   version="1.1"
   id="Layer_3"
   x="0px"
   y="0px"
   width="283.46px"
   height="283.46px"
   viewBox="0 0 283.46 283.46"
   enable-background="new 0 0 283.46 283.46"
   xml:space="preserve"
   sodipodi:docname="observatory.svg"
   inkscape:version="1.2.2 (b0a8486541, 2022-12-01)"
   xmlns:inkscape="http://www.inkscape.org/namespaces/inkscape"
   xmlns:sodipodi="http://sodipodi.sourceforge.net/DTD/sodipodi-0.dtd"
   xmlns="http://www.w3.org/2000/svg"
   xmlns:svg="http://www.w3.org/2000/svg"><defs
   id="defs15" /><sodipodi:namedview
   id="namedview13"
   pagecolor="#ffffff"
   bordercolor="#000000"
   borderopacity="0.25"
   inkscape:showpageshadow="2"
   inkscape:pageopacity="0.0"
   inkscape:pagecheckerboard="0"
   inkscape:deskcolor="#d1d1d1"
   showgrid="false"
   inkscape:zoom="0.74084529"
   inkscape:cx="-155.903"
   inkscape:cy="294.25847"
   inkscape:window-width="1920"
   inkscape:window-height="1015"
   inkscape:window-x="0"
   inkscape:window-y="0"
   inkscape:window-maximized="1"
   inkscape:current-layer="Layer_3" />

<path
   id="path233"
   style="fill:#000000;stroke-width:0.525963"
   d="M 108.0796,7.0835142 C 62.551392,21.383336 29.522964,63.904367 29.522964,114.14992 v 72.45899 H 253.93703 v -72.45899 c 0,-50.237137 -33.02068,-92.766584 -78.54102,-107.0664058 V 136.59328 H 108.0796 v -0.002 -100.984379 z m 33.66212,50.9609368 c -12.40115,0 -22.45118,10.05011 -22.45118,22.443358 0,12.393258 10.04951,22.435551 22.45118,22.435551 12.39272,0 22.43554,-10.042823 22.43554,-22.435551 0,-12.392722 -10.0423,-22.443358 -22.43554,-22.443358 z m 0,11.218752 c 6.18005,0 11.20898,5.036137 11.20898,11.224606 0,6.188478 -5.02893,11.218748 -11.20898,11.218748 -6.19637,0 -11.22657,-5.03027 -11.22657,-11.218748 0,-6.188469 5.02968,-11.224606 11.22657,-11.224606 z M 29.522964,197.83547 v 78.54101 h 89.767576 v -33.6621 c 0,-12.39324 10.04283,-22.44336 22.43555,-22.44336 12.40112,0 22.44336,10.05065 22.44336,22.44336 v 33.6621 h 89.76758 v -78.54101 z" /></svg>
