<?xml version="1.0" encoding="UTF-8" standalone="no"?>
<!-- Generator: Adobe Illustrator 15.1.0, SVG Export Plug-In . SVG Version: 6.00 Build 0)  -->

<svg
   version="1.1"
   id="Layer_1"
   x="0px"
   y="0px"
   width="283.465px"
   height="283.465px"
   viewBox="0 0 283.465 283.465"
   enable-background="new 0 0 283.465 283.465"
   xml:space="preserve"
   sodipodi:docname="observe.svg"
   inkscape:version="1.2.2 (b0a8486541, 2022-12-01)"
   xmlns:inkscape="http://www.inkscape.org/namespaces/inkscape"
   xmlns:sodipodi="http://sodipodi.sourceforge.net/DTD/sodipodi-0.dtd"
   xmlns="http://www.w3.org/2000/svg"
   xmlns:svg="http://www.w3.org/2000/svg"
   xmlns:rdf="http://www.w3.org/1999/02/22-rdf-syntax-ns#"
   xmlns:cc="http://creativecommons.org/ns#"
   xmlns:dc="http://purl.org/dc/elements/1.1/"><defs
   id="defs11" /><sodipodi:namedview
   id="namedview9"
   pagecolor="#ffffff"
   bordercolor="#000000"
   borderopacity="0.25"
   inkscape:showpageshadow="2"
   inkscape:pageopacity="0.0"
   inkscape:pagecheckerboard="0"
   inkscape:deskcolor="#d1d1d1"
   showgrid="false"
   inkscape:zoom="2.0953899"
   inkscape:cx="42.712814"
   inkscape:cy="116.92335"
   inkscape:window-width="1920"
   inkscape:window-height="1015"
   inkscape:window-x="0"
   inkscape:window-y="0"
   inkscape:window-maximized="1"
   inkscape:current-layer="Layer_1" />
<title
   id="title2">H-Red</title>
<desc
   id="desc4">Created with Sketch.</desc>

<path
   id="path294"
   style="display:inline;fill:#000000;stroke-width:0.525961"
   d="M 108.08406,7.0860169 C 62.556066,21.385771 29.525467,63.90711 29.525467,114.15242 v 72.45899 H 253.93953 v -72.45899 c 0,-50.236895 -33.02091,-92.766649 -78.54102,-107.0664031 V 33.61336 a 2.0002007,2.0002007 0 0 1 1.9961,1.996094 V 136.59383 a 2.0002007,2.0002007 0 0 1 -2,2 h -67.3125 a 2.0002007,2.0002007 0 0 1 -2,-2 V 35.609454 a 2.0002007,2.0002007 0 0 1 2,-2 h 0.002 z m 1.99805,30.5234371 v 96.984376 h 63.3125 V 37.609454 Z m 31.66211,26.05078 c 9.27005,0 16.82226,7.543721 16.82226,16.830077 5.3e-4,9.278472 -7.55221,16.832034 -16.82226,16.832034 -9.28636,0 -16.83789,-7.553562 -16.83789,-16.832034 0,-9.286356 7.551,-16.830077 16.83789,-16.830077 z M 29.525467,197.83797 v 78.54101 H 119.29305 V 245.3575 c 0,-12.39317 10.04289,-22.44531 22.43554,-22.44531 12.40105,0 22.44336,10.05266 22.44336,22.44531 v 31.02148 h 89.76758 v -78.54101 z" /><metadata
   id="metadata1184"><rdf:RDF><cc:Work
       rdf:about=""><dc:title>H-Red</dc:title></cc:Work></rdf:RDF></metadata></svg>
