<?xml version="1.0" encoding="UTF-8" standalone="no"?>
<!-- Generator: Adobe Illustrator 15.1.0, SVG Export Plug-In . SVG Version: 6.00 Build 0)  -->

<svg
   version="1.1"
   id="Layer_1"
   x="0px"
   y="0px"
   width="283.46px"
   height="283.46px"
   viewBox="0 0 283.46 283.46"
   style="enable-background:new 0 0 283.46 283.46;"
   xml:space="preserve"
   sodipodi:docname="optimize.svg"
   inkscape:version="1.2.2 (b0a8486541, 2022-12-01)"
   xmlns:inkscape="http://www.inkscape.org/namespaces/inkscape"
   xmlns:sodipodi="http://sodipodi.sourceforge.net/DTD/sodipodi-0.dtd"
   xmlns="http://www.w3.org/2000/svg"
   xmlns:svg="http://www.w3.org/2000/svg"><defs
   id="defs447">
	
	
	
	
	
	
	
</defs><sodipodi:namedview
   id="namedview445"
   pagecolor="#ffffff"
   bordercolor="#000000"
   borderopacity="0.25"
   inkscape:showpageshadow="2"
   inkscape:pageopacity="0.0"
   inkscape:pagecheckerboard="0"
   inkscape:deskcolor="#d1d1d1"
   showgrid="false"
   inkscape:zoom="2.0954269"
   inkscape:cx="12.885202"
   inkscape:cy="174.18885"
   inkscape:window-width="1920"
   inkscape:window-height="1015"
   inkscape:window-x="0"
   inkscape:window-y="0"
   inkscape:window-maximized="1"
   inkscape:current-layer="Layer_1" />

<path
   id="path439"
   style="stroke:none;stroke-width:4.69821;stroke-linecap:round;stroke-linejoin:round;stroke-dasharray:none;stroke-opacity:1;paint-order:stroke fill markers"
   d="m 134.44028,98.968184 c 0.20436,-2.448979 0.20436,-4.911095 0,-7.361068 l -9.49155,-1.298624 c -0.1755,-1.222526 -0.41789,-2.43455 -0.72263,-3.631821 l 8.27164,-4.832043 c -0.74788,-2.340418 -1.6906,-4.615879 -2.81668,-6.800152 l -9.26587,2.431922 c -0.63046,-1.061802 -1.31733,-2.089798 -2.05701,-3.078454 l 5.79249,-7.629709 c -1.58664,-1.876597 -3.32776,-3.617392 -5.20535,-5.205002 l -7.62905,5.793465 c -0.98864,-0.740004 -2.01633,-1.426219 -3.07814,-2.056994 l 2.43195,-9.265556 c -2.18526,-1.126417 -4.45975,-2.06914 -6.80016,-2.817027 l -4.83238,8.271646 c -1.196927,-0.304715 -2.408969,-0.546468 -3.632146,-0.722288 l -1.298959,-9.490568 c -2.449303,-0.205013 -4.91142,-0.205013 -7.361058,0 l -1.298625,9.490893 c -1.2222,0.176136 -2.434559,0.417899 -3.63183,0.722297 l -4.832033,-8.271645 c -2.341728,0.747552 -4.616548,1.690599 -6.800496,2.816692 l 2.432257,9.265556 c -1.061794,0.630775 -2.090134,1.31699 -3.078455,2.056994 L 61.90681,61.563892 c -1.876271,1.587601 -3.6174,3.328405 -5.205011,5.205002 l 5.792491,7.629709 c -0.739679,0.988972 -1.426228,2.016327 -2.056354,3.078464 l -9.265538,-2.431941 c -1.127398,2.184273 -2.069139,4.459418 -2.817021,6.800153 l 8.271975,4.832051 c -0.305383,1.197271 -0.546476,2.40962 -0.722306,3.631812 l -9.490886,1.298634 c -0.204682,2.449313 -0.204682,4.911429 0,7.360743 l 9.490886,1.298611 c 0.176154,1.22318 0.417248,2.43456 0.722306,3.63183 l -8.271975,4.83204 c 0.747882,2.34108 1.690271,4.61589 2.817021,6.80048 l 9.265538,-2.43193 c 0.630126,1.06147 1.316675,2.08949 2.056354,3.07814 l -5.792806,7.63037 c 1.587601,1.87626 3.328415,3.61705 5.205002,5.20467 l 7.630368,-5.79281 c 0.988312,0.74 2.016336,1.42656 3.078455,2.057 l -2.432267,9.26555 c 2.184283,1.12642 4.458759,2.06946 6.800496,2.81702 l 4.83171,-8.27198 c 1.196945,0.30473 2.409304,0.54649 3.631829,0.72263 l 1.29895,9.49155 c 2.449647,0.20435 4.91143,0.20435 7.360742,0 l 1.298625,-9.49155 c 1.223177,-0.17614 2.43455,-0.4179 3.63183,-0.72263 l 4.832696,8.27198 c 2.34041,-0.74756 4.6149,-1.69094 6.80016,-2.81702 l -2.43161,-9.26555 c 1.06114,-0.63044 2.08948,-1.317 3.0778,-2.057 l 7.62972,5.79281 c 1.87725,-1.58696 3.61771,-3.32841 5.20499,-5.20467 l -5.79248,-7.63037 c 0.73969,-0.98865 1.42623,-2.01633 2.05669,-3.07814 l 9.26587,2.43193 c 1.12608,-2.18459 2.06847,-4.45973 2.81702,-6.80048 l -8.27131,-4.83204 c 0.30439,-1.19693 0.5468,-2.40995 0.72262,-3.63215 z M 90.426723,116.49259 c -11.691898,0 -21.20411,-9.51255 -21.20411,-21.204127 0,-11.692214 9.512212,-21.204109 21.20411,-21.204109 11.691887,0 21.203457,9.51222 21.203457,21.204109 0,11.692227 -9.51157,21.204127 -21.203457,21.204127 z M 10.593814,93.811474 C 10.871744,74.797839 17.675412,56.243209 29.749923,41.564157 34.450869,35.851153 39.863484,30.787355 45.836872,26.513129 57.771716,17.973802 71.896312,12.700854 86.683447,11.262777 109.11366,9.0800445 131.02801,15.744749 148.3881,30.029364 c 5.14943,4.237027 9.7809,9.065709 13.76456,14.352694 6.95105,9.225027 11.83658,19.566688 14.53868,30.768106 l 20.30924,-0.03159 c 0.92222,-7.01e-4 1.77566,0.490589 2.23747,1.286479 0.46111,0.797995 0.46322,1.782682 0.004,2.582081 L 170.03064,129.7662 c -0.17196,0.3818 -0.44076,0.72851 -0.7994,0.99872 -1.13839,0.85765 -2.75544,0.63096 -3.61309,-0.50533 -0.066,-0.0857 -0.12704,-0.17687 -0.18178,-0.27232 L 135.94091,79.087504 c -0.46181,-0.797995 -0.46391,-1.782682 -0.004,-2.581379 0.45971,-0.7994 1.31104,-1.293497 2.23397,-1.294199 l 18.82203,-0.03018 C 154.77438,68.195598 151.41606,61.693723 146.98462,55.81368 143.90002,51.72053 140.3115,47.979706 136.32152,44.696483 122.87751,33.635434 105.90272,28.474079 88.522276,30.164819 77.457718,31.240745 66.839531,35.09597 57.81523,41.315705 52.817405,44.758948 48.310168,48.903332 44.419148,53.630948 25.180221,77.015663 24.467851,110.2339 42.688403,134.41381 c 3.083899,4.09245 6.672424,7.83467 10.666614,11.1228 10.682054,8.78849 23.628254,13.87685 37.436319,14.71415 2.471891,0.1488 4.752181,1.38052 6.257634,3.37797 0.36566,0.48568 0.679384,1.00996 0.930644,1.5616 0.336183,0.74255 0.664646,1.47318 0.991002,2.2087 1.195944,2.7028 0.912397,5.77126 -0.755884,8.20596 -1.66758,2.43679 -4.426526,3.81101 -7.378479,3.67345 -18.282315,-0.84923 -35.416414,-7.44656 -49.549431,-19.07821 -5.145914,-4.23141 -9.778079,-9.0622 -13.768059,-14.35691 C 16.333488,131.00004 10.3222,112.52121 10.593814,93.811474 Z M 250.68577,113.51621 H 272.875 v 159.08721 h -22.18923 z m -35.52667,25.17652 h 22.1908 v 133.9099 h -22.1908 z m -35.52352,26.86971 h 22.19002 v 107.03939 h -22.19002 z m -35.52431,27.49619 h 22.19002 v 79.54322 h -22.19002 z m -35.5251,26.02312 h 22.18923 v 53.52088 h -22.18923 z m -35.525094,26.65748 h 22.190012 v 26.8634 H 73.061076 Z M 200.57989,92.304887 210.6305,105.80328 62.325692,216.22911 c -3.774818,2.81009 -4.556567,8.14918 -1.745696,11.92321 1.673285,2.24714 4.241214,3.43378 6.841853,3.43378 1.769058,0 3.554465,-0.54972 5.082917,-1.68808 L 220.8088,119.47375 l 10.22035,13.72576 20.18842,-46.81846 z" />
</svg>
