<?xml version="1.0" encoding="UTF-8" standalone="no"?>
<!-- Generator: Adobe Illustrator 15.1.0, SVG Export Plug-In . SVG Version: 6.00 Build 0)  -->

<svg
   version="1.1"
   id="Layer_1"
   x="0px"
   y="0px"
   width="283.465px"
   height="283.465px"
   viewBox="0 0 283.465 283.465"
   enable-background="new 0 0 283.465 283.465"
   xml:space="preserve"
   sodipodi:docname="org-y-combinator.svg"
   inkscape:version="1.4.2 (ebf0e940d0, 2025-05-08)"
   xmlns:inkscape="http://www.inkscape.org/namespaces/inkscape"
   xmlns:sodipodi="http://sodipodi.sourceforge.net/DTD/sodipodi-0.dtd"
   xmlns="http://www.w3.org/2000/svg"
   xmlns:svg="http://www.w3.org/2000/svg"><defs
   id="defs1" /><sodipodi:namedview
   id="namedview1"
   pagecolor="#ffffff"
   bordercolor="#000000"
   borderopacity="0.25"
   inkscape:showpageshadow="2"
   inkscape:pageopacity="0.0"
   inkscape:pagecheckerboard="0"
   inkscape:deskcolor="#d1d1d1"
   inkscape:zoom="2.7657736"
   inkscape:cx="141.7325"
   inkscape:cy="141.7325"
   inkscape:window-width="1920"
   inkscape:window-height="995"
   inkscape:window-x="0"
   inkscape:window-y="0"
   inkscape:window-maximized="1"
   inkscape:current-layer="Layer_1" />
<g
   id="g1"
   style="fill:#000000">
	<path
   fill="#231F20"
   d="M7.087,7.087v269.291h269.291V7.087H7.087z M150.436,160.396v55.841h-17.777v-56.888h0.001L86.438,72.761   h21.124l27.188,54.797c0.418,0.977,0.907,1.986,1.464,3.032c0.558,1.045,1.046,2.126,1.464,3.242   c0.279,0.418,0.488,0.802,0.628,1.15s0.278,0.662,0.419,0.94c0.696,1.395,1.324,2.754,1.882,4.079s1.046,2.544,1.464,3.66   c1.116-2.37,2.335-4.914,3.661-7.634c1.323-2.719,2.684-5.542,4.078-8.471l27.605-54.797h19.661L150.436,160.396z"
   id="path1"
   style="fill:#000000" />
</g>
</svg>
