<?xml version="1.0" encoding="utf-8"?>
<!-- Generator: Adobe Illustrator 15.1.0, SVG Export Plug-In . SVG Version: 6.00 Build 0)  -->
<!DOCTYPE svg PUBLIC "-//W3C//DTD SVG 1.1//EN" "http://www.w3.org/Graphics/SVG/1.1/DTD/svg11.dtd">
<svg version="1.1"
	 id="svg14662" xmlns:sodipodi="http://inkscape.sourceforge.net/DTD/sodipodi-0.dtd" sodipodi:docname="Wikipedia&apos;s W.svg" inkscape:version="0.43" xmlns:svg="http://www.w3.org/2000/svg" xmlns:cc="http://web.resource.org/cc/" xmlns:inkscape="http://www.inkscape.org/namespaces/inkscape" xmlns:rdf="http://www.w3.org/1999/02/22-rdf-syntax-ns#" xmlns:dc="http://purl.org/dc/elements/1.1/" sodipodi:docbase="D:\var\mediawiki\svg\Inkscape" sodipodi:version="0.32"
	 xmlns="http://www.w3.org/2000/svg" xmlns:xlink="http://www.w3.org/1999/xlink" x="0px" y="0px" width="283.465px"
	 height="283.465px" viewBox="0 0 283.465 283.465" enable-background="new 0 0 283.465 283.465" xml:space="preserve">
<sodipodi:namedview  id="base" inkscape:zoom="7.453125" bordercolor="#666666" borderopacity="1.0" inkscape:cx="64.636948" pagecolor="#ffffff" inkscape:cy="75.677942" inkscape:window-width="1045" inkscape:window-x="57" inkscape:pageshadow="2" inkscape:window-height="978" inkscape:pageopacity="0.0" inkscape:current-layer="svg14662" inkscape:window-y="0">
	</sodipodi:namedview>
<path id="path1599" d="M14.688,81.91l35.648,120.322h1.483l22.28-74.564l22.288,74.564h1.483l26.714-90.161
	c5.103-17.218,2.571-15.311,17.795-15.311h12.559l-24.824,43.084h9.964c6.439,0,13.218,2.323,16.787,6.979
	c0.501,0.643,0.949,1.344,1.365,2.082c0.1,0.168,0.188,0.343,0.278,0.519c0.392,0.741,0.759,1.513,1.073,2.337
	c1.253,3.284,1.885,7.232,1.885,11.85c0,6.537-1.436,12.127-4.31,16.787c-0.778,1.264-1.611,2.338-2.484,3.259
	c-0.56,0.584-1.14,1.096-1.737,1.548c-0.049,0.037-0.104,0.072-0.153,0.109c-0.61,0.441-1.228,0.826-1.878,1.125
	c-0.588,0.271-1.209,0.468-1.834,0.621c-0.156,0.037-0.316,0.068-0.481,0.103c-0.639,0.124-1.297,0.212-1.972,0.212
	c-0.029,0-0.057-0.007-0.088-0.007c-0.029,0-0.055-0.009-0.088-0.009c-0.016,0-0.029-0.006-0.045-0.006
	c-0.033,0-0.064-0.008-0.103-0.008c-0.887-0.02-1.765-0.089-2.601-0.234c-0.004-0.004-0.012,0-0.016,0
	c-0.228-0.043-0.438-0.131-0.664-0.182c-0.046-0.016-0.094-0.022-0.139-0.037c-0.057-0.016-0.109-0.037-0.168-0.052
	c-0.572-0.135-1.146-0.263-1.688-0.468c-0.853-0.328-1.671-0.734-2.461-1.221c-0.789-0.488-1.547-1.059-2.272-1.709
	c-1.549-1.688-2.716-3.598-3.952-5.465h-15.165c1.028,3.055,2.307,5.818,3.776,8.357l-0.043,0.08
	c0.161,0.285,0.373,0.557,0.548,0.84c1.048,1.702,2.177,3.313,3.433,4.771c1.122,1.293,2.321,2.49,3.609,3.594
	c0.641,0.548,1.298,1.061,1.965,1.542l0.009,0.007c0.665,0.475,1.344,0.921,2.038,1.33c0.429,0.255,0.873,0.471,1.315,0.701
	c0.059,0.029,0.115,0.064,0.175,0.095c0.212,0.117,0.424,0.237,0.643,0.343c0.006,0,0.015,0,0.022,0.008
	c0.718,0.34,1.447,0.646,2.191,0.92c0.009,0,0.019,0.009,0.029,0.016h0.007c0.74,0.271,1.49,0.505,2.257,0.709
	c0.015,0.004,0.027,0.007,0.044,0.016h0.007c0.763,0.2,1.542,0.364,2.33,0.504c0.019,0,0.039,0.004,0.059,0.008
	c0.705,0.115,1.42,0.199,2.149,0.27c0.016,0,0.029,0.008,0.052,0.008c0.021,0.004,0.051,0.012,0.079,0.016
	c0.037,0.007,0.08,0.007,0.125,0.015h0.008c0.02,0,0.036,0.007,0.059,0.007h0.008c0.435,0.037,0.892,0.033,1.336,0.053
	c0.093,0.002,0.184,0.01,0.277,0.015c0.059,0,0.117,0.007,0.176,0.007c0.224,0.016,0.445,0.029,0.681,0.029c0.028,0,0.058,0,0.087,0
	c0.665,0,1.301-0.065,1.951-0.104v-0.035c0.693-0.053,1.412-0.06,2.096-0.146c0.096-0.016,0.189-0.029,0.285-0.044
	c1.277-0.179,2.521-0.449,3.727-0.789c5.616-1.589,10.445-4.901,14.441-10.022c5.793-7.429,8.691-16.589,8.691-27.479
	c0-8.812-1.985-16.488-5.945-23.019c-3.01-4.964-7.104-8.75-12.279-11.374c-0.161-0.082-0.336-0.147-0.497-0.226
	c-0.672-0.327-1.344-0.648-2.045-0.935c-0.877-0.36-1.774-0.688-2.703-0.986c8.693-15.058,17.539-30.025,26.101-45.16h-46.916
	c-13.555,0-16.279,2.311-20.987,18.314l-16.151,54.918L74.844,81.91H59.255l3.565,11.965c2.971,9.966,2.707,14.856-0.081,24.289
	l-10.921,36.98L30.284,81.91H14.688z"/>
<path id="path6" d="M257.378,81.912c-3.062,0-5.812,1.105-7.896,3.222c-2.211,2.243-3.441,5.146-3.441,8.145
	c0,3,1.173,5.778,3.316,7.959c2.185,2.211,4.99,3.411,8.024,3.411c2.966,0,5.841-1.2,8.083-3.376
	c2.146-2.084,3.313-4.867,3.313-7.994c0-3.033-1.201-5.871-3.283-7.988C263.313,83.079,260.473,81.912,257.378,81.912z
	 M267.262,93.375c0,2.623-1.012,5.053-2.875,6.852c-1.953,1.897-4.387,2.908-7.074,2.908c-2.521,0-5.019-1.041-6.881-2.938
	c-1.863-1.892-2.904-4.329-2.904-6.916c0-2.588,1.074-5.116,2.998-7.073c1.797-1.832,4.229-2.809,6.883-2.809
	c2.717,0,5.148,1.013,7.042,2.937C266.282,88.167,267.262,90.63,267.262,93.375z M257.695,86.618h-4.861v12.884h2.434v-5.496h2.398
	l2.619,5.496h2.718l-2.879-5.875c1.862-0.378,2.938-1.644,2.938-3.472C263.063,87.818,261.293,86.618,257.695,86.618z
	 M257.254,88.196c2.271,0,3.309,0.632,3.309,2.21c0,1.516-1.037,2.055-3.25,2.055h-2.053v-4.265H257.254z"/>
<path id="path8" d="M238.253,81.236l1.265,7.679c1.184,7.17-0.019,10.139-3.207,16.235l-4.471,8.556c0,0-3.434-7.26-9.139-11.275
	c-4.807-3.386-7.934-4.122-12.831-3.112c-6.286,1.296-13.416,8.815-16.528,18.083c-3.718,11.089-3.758,16.456-3.89,21.385
	c-0.208,7.904,1.037,12.576,1.037,12.576s-5.429-10.046-5.38-24.76c0.035-10.503,1.688-20.025,6.545-29.425
	c4.277-8.262,10.629-13.22,16.269-13.805c5.833-0.603,10.438,2.206,14.005,5.252c3.731,3.192,7.516,10.172,7.516,10.172
	L238.253,81.236z"/>
<path id="path10" d="M239.355,168.146c0,0-3.951,7.067-6.414,9.789c-2.461,2.726-6.869,7.518-12.309,9.916
	c-5.449,2.399-8.299,2.854-13.675,2.334c-5.377-0.519-10.373-3.631-12.127-4.924c-1.745-1.3-6.22-5.119-8.744-8.686
	c-2.526-3.572-6.481-10.694-6.481-10.694s2.201,7.147,3.582,10.177c0.793,1.746,3.229,7.086,6.694,11.73
	c3.226,4.332,9.497,11.798,19.022,13.479c9.525,1.688,16.07-2.594,17.688-3.631c1.621-1.037,5.358-3.48,7.521-5.793
	c2.254-2.41,3.451-4.142,4.957-7.185c1.092-2.21,2.037-7.396,1.425-10.581L239.355,168.146z"/>
</svg>
