<?xml version="1.0" encoding="utf-8"?>
<!-- Generator: Adobe Illustrator 15.1.0, SVG Export Plug-In . SVG Version: 6.00 Build 0)  -->
<!DOCTYPE svg PUBLIC "-//W3C//DTD SVG 1.1//EN" "http://www.w3.org/Graphics/SVG/1.1/DTD/svg11.dtd">
<svg version="1.1" id="Layer_1" xmlns:svg="http://www.w3.org/2000/svg"
	 xmlns="http://www.w3.org/2000/svg" xmlns:xlink="http://www.w3.org/1999/xlink" x="0px" y="0px" width="283.46px"
	 height="283.46px" viewBox="0 0 283.46 283.46" enable-background="new 0 0 283.46 283.46" xml:space="preserve">
<g>
	<path d="M173.736,260.583c-1.432-8.011-10.127,8.006-0.186,1.07L173.736,260.583z"/>
	<path d="M195.455,205.489c-8.782-0.938-10.954,19.573-5.067,7.394C190.557,209.617,202.004,205.769,195.455,205.489z"/>
	<path d="M87.578,186.703l0.127-0.349C81.167,188.009,92.4,189.335,87.578,186.703z"/>
	<rect x="159.792" y="129.108" width="0.002" height="0.004"/>
	<rect x="197.819" y="223.347" width="0.004" height="0.006"/>
	<path d="M75.573,16.741c0.019,0.013,0.042,0.022,0.061,0.036c0.197-0.289,0.157-0.287,0.053-0.174
		c0.021-0.402-0.607-0.958-1.26-1.383c-0.332-0.06-0.681-0.112-1.052-0.155c0.358,0.333,1.044,0.869,2.201,1.672
		C75.575,16.738,75.574,16.74,75.573,16.741z"/>
	<path d="M237.229,123.349C237.187,116.374,229.708,123.688,237.229,123.349L237.229,123.349z"/>
	<path d="M194.397,173.964C196.358,173.093,191.866,174.316,194.397,173.964L194.397,173.964z"/>
	<path d="M203.301,121.04c0.135-0.019,0.276-0.039,0.405-0.058C204.725,119.924,199.53,121.546,203.301,121.04z"/>
	<path d="M158.36,52.989c-0.132,0.061-0.252,0.151-0.375,0.235C155.339,55.262,157.392,63.708,158.36,52.989z"/>
	<path d="M101.541,47.984c-0.158,2.635,0.955-0.052,1.357-1.609C102.416,46.58,101.955,47.084,101.541,47.984z"/>
	<path d="M174.552,235.81c0.503-0.852,0.846-1.7,1.064-2.548C176.052,229.434,164.853,237.407,174.552,235.81z"/>
	<path d="M135.986,233.164c0.654,1.112,1.586,0.934,2.624,0.013C138.665,231.487,137.755,229.623,135.986,233.164z"/>
	<path d="M196.669,57.611c0.002-0.246-0.009-0.508-0.037-0.795C195.778,56.979,196.301,57.512,196.669,57.611z"/>
	<path d="M191.083,128.974c0.086-0.011,0.159-0.015,0.251-0.029C191.498,127.964,190.739,128.885,191.083,128.974z"/>
	<path d="M88.608,235.854c0.212-0.025,0.56-0.53,1.11-1.709C89.661,233.422,88.97,234.879,88.608,235.854z"/>
	<path d="M99.482,191.348C98.839,189.234,98.988,191.47,99.482,191.348L99.482,191.348z"/>
	<path d="M209.208,109.89C209.56,111.747,213.006,107.41,209.208,109.89L209.208,109.89z"/>
	<path d="M271.412,85.373C271.102,83.115,265.016,90.016,271.412,85.373L271.412,85.373z"/>
	<path d="M113.677,20.221c-0.469,0.121-0.895,0.331-1.244,0.679C111.987,23.05,113.54,20.926,113.677,20.221z"/>
	<path d="M11.348,134.872c0.503,1.085,1.208,2.162,2.168,3.2C14.457,138.18,12.751,136.227,11.348,134.872z"/>
	<path d="M17.364,273.142c0.673-0.045,1.363-0.207,2.039-0.529c0.05-0.109,0.089-0.22,0.133-0.329
		C20.168,270.478,17.302,272.599,17.364,273.142z"/>
	<path d="M276.333,246.46c0.121-20.499,0.062-41.173,0.083-61.56c0-0.892,0-1.782,0-2.674c0-58.29,0-116.581,0-174.871
		C186.821,6.76,97.224,7.199,7.628,7.063c-0.427,89.497-0.538,178.995,0,268.492c87.07,0.132,174.148-0.317,261.209,0.352
		C284.559,278.615,272.782,255.242,276.333,246.46z M271.847,117.937c-2.724,3.133-6.012,7.297-4.73,10.396
		c-5.107-1.019-17.279,2.519-5.309,3.592c11.736-2.142,4.858,6.185,3.471,6.397c1.909,0.139,2.656,2.596,2.916,4.28
		c-0.008-0.36-0.013-0.787-0.013-1.296c2.077,7.731-8.048,8.308-4.754,0.267c-6.953-4.056-15.647-6.763-12.747-14.514
		c-11.488,0.751-23.476,1.729-35.253,0.317c-3.866-1.178-23.55,2.438-18.785-2.557c11.577-0.318,22.856,0.301,34.188,1.284
		c7.228-0.504,12.66-2.135,19.396-2.755c-0.296-2.684-6.081-7.142-0.856-9.833c7.016-4.387,14.484-10.886,17.688-17.442
		c7.501,4.838-4.362,9.58-0.505,14.281c-7.183,3.043-16.163,8.975-4.265,4.755C264.902,113.969,271.102,116.883,271.847,117.937z
		 M221.906,253.16c-0.098,0.001-0.198,0.002-0.301,0.004c0.103-0.002,0.2-0.003,0.296-0.004c-0.576,0.006-1.102,0.013-1.566,0.021
		c-0.539,0.008-1.11,0.016-1.706,0.023v-0.001c-6.586-2.07-18.229,4.684-21.813-2.904c5.965,1.207,15.57,0.6,23.938,0.229
		c12.589,0.042,25.72-0.207,37.816,0.926c4.121-1.508,11.291-2.324,3.717,1.73C250.265,253.299,230.392,253.078,221.906,253.16z
		 M218.291,266.863c-5.033-1.49-11.819,0.824-15.801-3.788c-6.258-9.082,16.541-7.746,4.696-2.717
		c-1.892,6.167,9.935,5.742,11.407,5.213C218.908,266.036,218.673,266.915,218.291,266.863z M191.143,233.474
		c-3.742,6.17-2.572-8.668-8.319,0.01c-9.926,2.98-2.342-4.958,3.05-4.531c2.702-1.586,7.794-5.965,5.466,0.678
		C198.164,222.531,192.67,231.099,191.143,233.474z M190.428,234.653c0.245-0.405,0.476-0.784,0.605-0.999
		C190.802,234.036,190.601,234.368,190.428,234.653z M191.08,233.578c0.02-0.032,0.036-0.058,0.046-0.075
		C191.11,233.53,191.096,233.552,191.08,233.578z M190.091,235.208c-0.252,0.416-0.414,0.684-0.508,0.837
		C189.695,235.862,189.883,235.551,190.091,235.208z M189.509,236.168C189.47,236.232,189.474,236.225,189.509,236.168
		L189.509,236.168z M181.828,228.6C183.495,228.4,185.788,228.975,181.828,228.6L181.828,228.6z M194.644,223.718
		c-0.257-3.228-10.538,7.342-14.045,4.045c2.795-4.401-2.975-8.816-1.035-14.029c2.75-4.752-7.865-3.631,0.589-10.154
		c7.055,4.202,11.796-6.565,2.855-5.488c-3.728,1.098-12.126,8.783-11.097,1.219c-14.223,4.087,7.911-12.656,14.424-11.486
		c5.06-2.336,12.488,0.422,13.939,5.758c0.001,0.164,0.008,0.385,0.021,0.648c0.003-0.244,0.003-0.426,0.002-0.57
		c0.195,0.751,0.266,1.555,0.201,2.399c0.436,2.474,1.678,4.976,5.112-0.16c6.192-11.489-14.142-19.017-22.507-13.96
		c-10.961,2.373-16.023,14.243-24.33,18.629c-1.554,9.871-5.575,22.395-0.99,33.41c-0.029,4.39,2.846,7.656,2.055,12.723
		c-4.835-5.7-6.44-13.67-7.31-20.786c-1.46-4.853-0.24-12.06,1.048-16.612c4.361-10.713,12.293-21.969,22.496-28.441
		c6.484-4.511,22.043-2.182,20.579-3.045c13.54,1.325,23.339,16.822,14.126,27.382c7.666,1.003,4.082,6.013,2.651,8.29
		c1.661-0.789-5.3,11.565,0.593,7.908c-4.455,4.01-8.244,18.715-10.604,14.08c-0.186-4.004-0.121-8.38,1.539-11.145
		c-6.32-2.873,5.195-8.451-0.648-14.119C196.55,208.441,199,224.235,194.644,223.718z M171.437,220.594
		c-2.298-3.579,3.846-15-3.249-10.062c0.11-0.389-0.72-1.298-1.86-2.398c-2.732-2.639-7.263-6.387-5.023-6.778
		c4.616,1.577,13.315,2.685,13.379,7.035c-6.377,8.826,3.012,16.796,0.934,24.871c-0.065,0.567-0.381,1.391-1.064,2.548
		C163.414,237.644,176.975,227.68,171.437,220.594z M165.955,225.103c-0.437,0.072-3.055-2.953-4.298-0.817
		c-2.772,2.729,3.599,23.938-1.181,10.825c-2.235-7.652-2.934-7.5-1.696-14.238c0.966-5.262,15.53-2.464,9.888,5.813
		C166.653,227.342,165.304,227.017,165.955,225.103z M165.808,225.127c0.035-0.006,0.078-0.013,0.109-0.019
		C165.868,225.118,165.832,225.124,165.808,225.127z M162.987,247.092c-0.179-0.32-0.332-0.637-0.452-0.945
		C162.861,243.336,162.886,246.422,162.987,247.092z M138.61,233.176c-0.05,1.535-0.896,2.925-2.624-0.013
		c3.376-6.758,8.959-16.576,12.874-24.649c11.775-23.524,23.491-46.829,34.528-70.732c7.17,1.979-7.076,16.04-7.563,21.977
		c-9.911,20.056-19.707,40.166-29.756,60.151c-0.069,0.188-0.152,0.404-0.249,0.646c-0.179,0.326-0.771,1.467-1.836,3.574
		c0.931-1.762,1.532-2.935,1.775-3.423c-0.965,2.396-3.063,6.96-5.153,10.051c-0.58,1.134-0.408,0.796-0.002,0.003
		C139.925,231.765,139.248,232.611,138.61,233.176z M125.094,232.275c1.466-0.045,1.266,3.918,0.109,4.529
		C120.539,241.679,117.849,228.652,125.094,232.275z M118.322,228.158c-3.614-5.957,10.313-4.174,3.236,0.883
		C120.033,229.368,118.129,228.566,118.322,228.158z M115.729,243.19c-7.606-3.013,8.577-6.511,1.171-0.106L115.729,243.19z
		 M115.459,243.083c-0.03-0.012-0.059-0.022-0.088-0.034C115.402,243.06,115.431,243.072,115.459,243.083z M115.135,242.955
		c-0.13-0.051-0.249-0.099-0.368-0.146C114.899,242.861,115.022,242.91,115.135,242.955z M114.595,242.741
		c-0.17-0.067-0.329-0.13-0.477-0.189C114.28,242.616,114.44,242.679,114.595,242.741z M113.665,242.373
		c-0.109-0.043-0.209-0.083-0.304-0.12C113.459,242.292,113.561,242.332,113.665,242.373z M113.671,189.931
		c0.178,0.649-0.035,0.54-0.965-1.109c-0.013-0.022-0.026-0.047-0.04-0.071c-0.013-0.023-0.025-0.044-0.039-0.069
		c-0.186-0.329-0.441-0.799-0.783-1.444c-7.511-16.669-16.746-33.258-24.582-49.206c-0.944-6.068-14.282-17.673-7.655-20.369
		c7.705,0.259,17.917-12.19,20.192,2.134c12.876,25.461,25.888,50.857,39.425,75.975c6.472-4.478,8.668-14.815,12.885-21.071
		c6.227-11.559,9.681-23.813,16.826-34.657c5.384-3.66,17.394-2.328,8.662,6.251c-4.085,9.005-9.381,18.556-13.057,28.286
		c-5.145,8.588-9.529,18.605-14.205,27.717c-5.409,8.195-8.769,22.353-16.027,27.102
		C127.042,216.77,120.457,203.161,113.671,189.931z M99.482,191.348c-0.494,0.122-2.265,8.968-3.488,0.595
		c-2.869-4.086,6.16-27.939,7.75-12.651C102.229,183.14,98.839,189.234,99.482,191.348z M96.507,169.177
		C94.89,163.552,100.545,166.632,96.507,169.177L96.507,169.177z M104.821,188.384c-2.284,3.236-3.719,9.072-4.287,11.71
		C96.61,199.065,109.927,174.455,104.821,188.384z M89.718,234.145c-1.508,3.233-1.494,2.742-1.11,1.709
		c-0.921,0.111,0.69-8.762-0.595-10.802c-2.613-8.507-9.591-18.842-18.603-19.645c-6.13-1.818-8.608,7.715-11.197,8.616
		c-4.993-7.882,6.593-11.216,8.886-13.839c-10.051,1.695-11-20.501-5.065-7.416c13.12,5.255,24.041,16.771,27.133,31.082
		C90.3,226.723,89.6,232.656,89.718,234.145z M76.33,246.567c0.105,1.179,0.26,4.061-4.851,2.786
		c-14.804-0.034-29.517-2.664-44.355-1.191c-14.793-0.125,0.831-5.52,6.079-7.533c6.072-5.221,7.276-21.258,17.49-14.369
		C51.086,240.707,66.558,243.734,76.33,246.567z M60.375,252.276c-2.237-0.04-1.931-0.05-0.491-0.043
		C60.032,252.246,60.198,252.26,60.375,252.276z M60.099,252.271c-0.075-0.002-0.148-0.003-0.22-0.004
		C59.961,252.268,60.034,252.27,60.099,252.271z M59.428,252.259c-0.088-0.002-0.172-0.004-0.256-0.005
		C59.26,252.256,59.345,252.257,59.428,252.259z M59.141,252.253c-0.752-0.013-1.325-0.023-1.738-0.03
		C57.924,252.232,58.577,252.244,59.141,252.253z M57.382,251.708c-9.729,0.273-20.343-0.723-29.312,0.933
		c-8.483,1.85-11.638-5.173-1.783-1.78c13.167-1.802,27.165-0.623,40.812,0.033c5.374-1.438,15.989,0.023,4.249,1.086
		C64.643,252.089,53.573,252.01,57.382,251.708z M66.465,252.382c-1.968,0.003-4.014-0.072-5.526-0.143
		C65.983,252.276,77.196,252.414,66.465,252.382z M56.981,252.215c-0.101-0.002-0.188-0.003-0.257-0.004
		C56.796,252.212,56.885,252.214,56.981,252.215z M56.524,252.208C56.449,252.207,56.454,252.207,56.524,252.208L56.524,252.208z
		 M46.658,266.442c-12.928,3.181,8.344-7.767,2.777-0.894C48.585,265.06,45.893,266.507,46.658,266.442z M36.563,260
		c0.015-0.042,0.01-0.109-0.031-0.219c-8.716-8.237,7.997-4.752,3.481,3.118c-4.167,4.464-17.641-2.502-13-2.896
		C30.138,262.898,36.742,261.875,36.563,260z M36.774,206.046c3.371,6.285-13.56,4.531-15.313,13.863
		c-8.031,6.221,2.69,17.99,6.187,4.725c-1.409-5.93,12.695-15.855,4.194-5.586c-2.427,6.439-7.973,27.431-15.629,12.802
		c-0.015-0.164-0.028-0.307-0.042-0.462c0.026,0.286,0.042,0.462,0.042,0.462C15.176,220.47,25.757,209.263,36.774,206.046z
		 M10.304,185.148L10.211,183c0.348-11.076,8.163-18.758,16.4-25.176c4.493-7.383,11.836-3.633,4.311,0.848
		c-9.29,5.18-16.729,15.211-18.677,24.537c0.351,11.453,10.722,4.263,14.01,5.724C23.853,196.748,9.068,193.857,10.304,185.148z
		 M10.213,182.944c0.002-0.067,0.004-0.126,0.006-0.191C10.216,182.839,10.214,182.902,10.213,182.944z M10.22,182.712
		c0.012-0.402,0.024-0.771,0.035-1.113C10.24,182.06,10.228,182.459,10.22,182.712z M10.266,181.248
		c0.002-0.075,0.004-0.146,0.007-0.218C10.271,181.103,10.268,181.175,10.266,181.248z M10.298,180.208
		c0.004-0.136,0.009-0.276,0.013-0.397C10.307,179.94,10.303,180.074,10.298,180.208z M10.319,179.561
		c0.016-0.514,0.027-0.877,0.035-1.113C10.345,178.717,10.333,179.113,10.319,179.561z M10.364,178.109
		C10.366,178.074,10.366,178.077,10.364,178.109L10.364,178.109z M18.226,146.02c-2.25,2.35-1.734,2.579-0.998,1.868
		c-1.895,5.803-0.003,19.388-3.714,15.209c-1.472-3.054-1.513-18.178,4.138-19.671C19.449,142.427,17.933,148.204,18.226,146.02z
		 M19.471,115.863c-12.645,1.783,2.915-13.497-4.152-20.81c-2.224-6.902-4.981-14.074-5.043-21.26
		c-0.256-6.178,0.292-12.146,0.645-18.186c-0.012,0.052-0.042,0.258-0.073,0.481c-1.241-7.846,8.133-27.066,11.206-13.107
		c-5.122,8.995-2.582,21.241,5.887,27.674c6.018,3.276,13.217-8.667,11.776,3.095c-0.835,5.813-9.448,2.783-7.949,7.209
		c-8.971,3.24-10.89-16.484-15.995-9.682c4.845,8.261,13.941,14.067,12.461,25.215C16.042,93.72,32.777,111.994,19.471,115.863z
		 M74.427,15.22c1.255,0.223,2.22,0.56,2.744,1.034c-2.301,1.681-1.92,0.909-1.598,0.488c-6.263-4.19-29.757,3.771-15.532,7.383
		c6.095-4.914,11.287-1.427,1.647,0.65c-7.648,5.246-19.43-3.764-7.594-8.125c5.141-1.292,14.026-2.202,19.281-1.585
		C72.536,14.283,73.498,14.614,74.427,15.22z M108.018,63.882c-3.797,5.135-4.952,23.07,0.881,10.744
		c0.812-3.956,5.529-17.156,7.362-6.917c11.321-8.613,11.306,3.613,7.028,11.192c-7.043,4.65-2.148,10.717-10.131,17.598
		C102.48,110.585,84,116.254,67.685,117.165c-12.523,7.001-11.562-12.837-5.321-17.417c4.64-7.912,10.918-8.853,8.517-18.82
		c4.352-13.884,8.066,3.53,11.166,5.408c4.596,0.776-6.512,19.731,4.002,8.619c9.636-7.627-1.158-18.542-0.232-25.773
		c13.3,1.896-11.449-10.51,1.888-5.594c-3.577-7.316-11.199-1.617-11.482-12.365c9.873,2.108-0.428-10.429,4.712-15.308
		c2.788-8.22,9.131-6.394,8.758,1.473c3.87,2.902,11.565,15.315,11.849,10.597c1.55-3.367,1.675-2.841,1.357-1.609
		C106.506,44.841,111.392,60.706,108.018,63.882z M146.292,27.666c7.531,2.801,9.393,7.217-0.596,6.25
		c-4.287-1.049-0.119,15.332-5.877,4.708c2.672-13.371-17.133-11.459-17.374,1.112c-7.723-4.886,7.849-14.774,14.72-12.07
		C140.869,29.483,148.191,28.806,146.292,27.666z M164.839,85.374c-14.319,9.333-15.137-13.405-22.7-19.571
		c-2.939-8.446,14.114,3.996,13.907,10.06c6.639,13.282,0.928-4.216-1.473-7.998c0.063-4.765,0.544-12.687,3.411-14.641
		c0.117-0.09,0.239-0.172,0.375-0.235C157.349,64.181,168.646,73.586,164.839,85.374z M177.496,80.369
		c3.475,9.045-10.064,14.216-5.244,4.576c-0.395-4.541-5.457,4.665-4.772-0.008c-0.008-0.021-0.014-0.035-0.021-0.055
		c0.012,0.032,0.021,0.055,0.021,0.055C166.829,83.228,176.037,70.614,177.496,80.369z M169.841,65.65
		c1.349-1.674,1.625-3.12-0.002-4.426c0.48-3.666-1.014-10.107,0.291-14.716c0.43-7.342,6.162-14.019,8.086-2.971
		c2.639,0.486-9.053,5.171-1.626,3.977c1.507,0.244,8.202-3.932,7.634,1.674c0.439,7.316,9.656,20.342-3.114,14.487
		c-2.636-3.038-3.876-8.315-3.282-11.918c-1.668-2.572-2.338-1.798-2.492,0.176c-0.217,2.766,0.578,7.891,1.07,9.508
		c5.551,5.675-10.505,14.202-6.502,5.969C170.169,66.088,170.166,66.066,169.841,65.65z M197.894,36.188
		c0.515,0.153,0.967,0.284,1.367,0.398c0.033,0.009,0.065,0.018,0.098,0.027c0.436,0.124,0.805,0.225,1.113,0.306
		c6.199,1.655,10.296,1.725,16.474-2.478c-4.155,5.107-8.8,8.086-6.771,15.603c-0.469,8.724-9.98,9.323-5.389,0.023
		c7.387-10.219-5.506-7.02-8.742-13.86C193.623,36.184,199.97,36.188,197.894,36.188z M218.721,14.721
		c8.016,0.195,12.185-0.243,19.294,2.33c6.423,0.577,19.857,16.151,6.723,6.751c-7.109-5.669-17.023-8.428-25.722-6.433
		c-9.302-0.397-6.46,17.931,1.724,8.3c1.448-6.227,16.002-6.328,12.405-3.295c-9.12-3.244-18.599,18.894-27.375,6.184
		C200.958,17.503,220.667,13.511,218.721,14.721z M262.003,64.103c3.567-10.435-9.039-11.081-9.584-14.355
		c1.804-4.511,7.209-1.681,5.286-2.708c4.831,1.292,4.728,9.898,5.495,10.026C264.546,63.558,261.606,79.732,262.003,64.103z
		 M263.21,57.113c0.008,0.036,0.014,0.068,0.021,0.104C263.222,57.171,263.215,57.138,263.21,57.113z M263.234,57.229
		c0.012,0.056,0.023,0.109,0.034,0.164C263.255,57.331,263.244,57.274,263.234,57.229z M263.298,57.539
		c0.012,0.057,0.024,0.114,0.035,0.169C263.322,57.648,263.31,57.592,263.298,57.539z M263.49,58.463
		c0.029,0.137,0.056,0.264,0.079,0.38C263.543,58.718,263.517,58.591,263.49,58.463z M255.104,62.278
		c-2.389,0.019-1.219,1.867-1.854,3.437c-0.541,2.518,0.248-0.308-1.8,6.184c-1.569,4.77-5.56,9.895-5.172,7.125
		c-4.833,8.183-18.873,13.766-19.617,12.802c7.269-1.958-7.142,1.181-8.256,1.496c-14.884-0.777,4.112-2.904,9.585-5.078
		c11.408-3.189,20.701-16.399,18.693-27.011c-0.252-4.747-4.459-18.286,1.477-8.83c2.736,8.505,1.938,12.714,0.525,18.526
		c1.57,8.836,0.426-16.34,9.186-12.344C261.693,60.956,257.889,64.12,255.104,62.278z M243.736,100.977
		c0.961-0.205,1.672-0.356,2.187-0.465C244.96,100.716,243.736,100.977,243.736,100.977
		C251.209,99.386,241.859,112.549,243.736,100.977z M246.337,100.423c0.265-0.057,0.451-0.096,0.565-0.121
		C246.775,100.33,246.577,100.372,246.337,100.423z M247.567,96.266c2.532,2.08,6.669,3.426,6.149,3.433
		C254.101,106.746,241.017,95.361,247.567,96.266z M247,100.282C247.077,100.266,247.069,100.268,247,100.282L247,100.282z
		 M239.103,120.612c-0.009-0.108-0.017-0.204-0.023-0.286C239.087,120.413,239.094,120.507,239.103,120.612L239.103,120.612z
		 M241.25,122.948c-1.146-0.897-1.775-2.297-2.091-4.013c-0.009,0.345-0.021,0.722-0.036,1.137
		c-0.023-0.596-0.038-1.132-0.045-1.606c-0.871-5.94,1.568-15.225-0.437-20.703c-3.407-7.723,3.377-12.896,2.766-2.375
		c-0.466,8.786,1.435,18.411,0.268,26.787C241.429,122.386,241.266,122.752,241.25,122.948z M216.97,110.952
		c0.804-7.072-4.074-20,8.297-16.34c6.524-1.792,13.652-8.072,11.512,3.461c0.459,8.104,0.408,18.301,0.45,25.276
		C229.708,123.688,211.177,127.022,216.97,110.952z M203.814,120.904c-0.034,0.026-0.08,0.049-0.107,0.078
		c-0.146,0.021-0.28,0.041-0.405,0.058c-4.601,0.655-12.462,1.296-15.21,2.019c-6.56,0.644-9.643,0.586-15.307,2.062
		c-11.194,0.014,6.844-5.694,10.303-5.295c4.672-0.71,10.445-0.207,15.24-1.58c5.906,1.255,16.54-7.712,15.512,0.518
		C211.027,120.502,205.096,119.926,203.814,120.904z M211.099,137.497c-0.45-0.144-0.953-0.342-1.514-0.604
		c-12.24-2.403-25.039-2.043-37.104-0.845c-7.769-5.734,16.121-3.868,21.008-4.716c4.033-0.089,14.722,0.577,11.932,0.406
		c0.115-0.044,0.215-0.083,0.323-0.124c-0.604-0.057-1.694-0.167-3.396-0.349c1.488,0.124,2.76,0.251,3.452,0.327
		c0.456-0.175,0.852-0.326,1.188-0.455c-0.45,0.172-0.889,0.34-1.188,0.455c0.019,0.002,0.034,0.004,0.052,0.006
		C212.604,129.52,217.805,139.64,211.099,137.497z M207.312,131.014c0.269-0.103,0.494-0.189,0.678-0.26
		C207.785,130.833,207.552,130.921,207.312,131.014z M208.05,130.731c0.087-0.033,0.164-0.063,0.232-0.089
		C208.211,130.669,208.134,130.699,208.05,130.731z M208.497,130.56c0.046-0.018,0.085-0.033,0.115-0.044
		C208.58,130.528,208.542,130.543,208.497,130.56z M194.404,141.248c7.819-6.34,21.662,4.742,17.389,11.639
		c-2.162-13.08-16.074-11.644-20.754-4.214C190.571,145.861,192.826,141.901,194.404,141.248z M202.522,152.023
		c-1.474-5,2.481-4.103,2.122-0.045c0.064,1.561,0.008,4.686-0.064,4.045C202.594,164.995,195.856,156.769,202.522,152.023z
		 M204.371,156.965c-0.075,0.341-0.143,0.646-0.203,0.922C204.239,157.563,204.309,157.246,204.371,156.965z M204.062,158.363
		c-0.008,0.033-0.016,0.067-0.022,0.1C204.047,158.429,204.054,158.397,204.062,158.363z M203.886,159.157
		c-0.004,0.019-0.009,0.037-0.013,0.056C203.878,159.194,203.882,159.176,203.886,159.157z M203.828,159.419
		c-0.019,0.086-0.036,0.164-0.051,0.229C203.792,159.58,203.809,159.504,203.828,159.419z M203.732,159.854
		c-0.014,0.06-0.022,0.103-0.028,0.126C203.709,159.955,203.718,159.914,203.732,159.854z M193.074,157.676
		c-1.01-8.103,10.166,9.248,7.686,7.772C195.207,166.148,194.419,161.502,193.074,157.676z M192.872,150.727
		c-0.846-0.04-1.044-0.051,0.228,0.005c11.173,0.52,4.801,0.229,1.127,0.059c14.285,0.825-9.172,3.101-10.262,7.25
		c-6.025,9.303,1.104,7.85,9.724,5.642c1.251,5.893-15.845,7.263-14.134-1.102C177.98,154.521,187.309,150.599,192.872,150.727z
		 M182.023,174.632c8.031-2.268,16.338-5.272,22.855-10.357c-4.545,3.785,2.795-1.196,3.4-3.816
		c5.34,1.672-5.248,8.074-7.535,10.373c-2.026,1.179-4.386,2.262-6.347,3.133c-2.531,0.352-6.39,1.244-9.833,1.789
		C179.141,179.75,173.158,177.386,182.023,174.632z M205.99,175.75c9.797,5.484,4.674-7.729,10.368-3.151
		C222.293,186.091,196.966,174.381,205.99,175.75z M214.365,168.613c0.014-0.088,0.03-0.2,0.051-0.334
		C214.394,168.417,214.377,168.532,214.365,168.613z M214.884,165.155c-1.234,8.222-14.635,3.212-3.217,0.613
		c4.966-4.659-12.272-15.438,0.398-10.044C215.753,156.042,215.388,167.936,214.884,165.155z M214.516,167.606
		c0.012-0.076,0.023-0.154,0.035-0.232C214.54,167.455,214.527,167.533,214.516,167.606z M214.561,167.311
		c0.021-0.141,0.042-0.283,0.063-0.426C214.602,167.038,214.581,167.179,214.561,167.311z M214.709,166.317
		c0.045-0.295,0.084-0.56,0.115-0.764C214.784,165.827,214.745,166.083,214.709,166.317z M166.957,130.675
		c-8.355,2.236-0.247-4.682,4.651-2.321C171.15,130.447,168.759,131.018,166.957,130.675z M158.946,143.076
		c-0.003,0.042-0.006,0.077-0.009,0.117C158.943,143.121,158.946,143.076,158.946,143.076c-0.515,7.18-10.794-0.627-16.368,2.652
		c-9.271,3.039,13.711-1.068,14.161,6.004c-3.263,1.529,0.454,14.948-4.812,12.348c-0.074-2.106-0.873-3.952-2.125-5.481
		c-0.113-0.243-0.228-0.489-0.354-0.765c-0.65-0.689-1.406-1.21-2.212-1.648c0.144,0.132,0.285,0.265,0.423,0.401
		c-0.416-0.304-0.851-0.585-1.305-0.842c-1.439-0.649-2.99-1.102-4.454-1.654c-3.493-0.705-7.182-0.189-9.774,1.87
		c-5.092,4.968-16.529-11.557-3.207-16.125c5.297-5.75,13.705-8.285,20.311-12.364c8.66-2.78,18.234-11.036,17.665-20.611
		c10.16,3.721,2.577,20.073-6.814,22.039c-1.441,1.277,0.615-0.943-5.85,1.227c-7.492-1.74-13.276,9.98-5.298,1.763
		c3.326-0.102,10.628-2.989,8.244,2.65c7.021-3.896,14.546,5.035,3.853,7.97L158.946,143.076z M158.926,143.352
		c-0.002,0.027-0.004,0.056-0.006,0.083C158.922,143.406,158.924,143.377,158.926,143.352z M158.911,143.563
		c-0.011,0.147-0.021,0.286-0.03,0.42C158.892,143.83,158.902,143.687,158.911,143.563z M158.83,144.703
		c-0.003,0.036-0.006,0.069-0.008,0.105C158.824,144.772,158.827,144.738,158.83,144.703z M158.797,145.148
		c-0.046,0.639-0.069,0.962-0.077,1.071C158.73,146.083,158.761,145.651,158.797,145.148z M158.719,146.236
		C158.716,146.271,158.716,146.271,158.719,146.236L158.719,146.236z M150.768,160.615
		C151.584,161.964,151.689,162.46,150.768,160.615L150.768,160.615z M141.309,178.32c5.21-6.578,1.685-2.255,0.374-0.523
		c4.88-7.221-9.836-9.711-9.728-10.464c-0.97-6.075,16.59-4.708,13.222-0.198c3.688,6.139,1.156,17.379-4.546,16.828
		C139.442,182.059,141.129,178.698,141.309,178.32z M126.752,167.464c-1.624-2.966-2.72-4.471-5.911-11.063
		c-2.911-6.65-1.044-1.813-4.876-9.199c-4.968-12.454-16.421-25.261-17.075-37.391c12.337,21.641,22.609,44.016,34.75,65.747
		c4.032,4.812,10.709,25.299,2.412,9.7C133.566,180.941,126.249,165.537,126.752,167.464z M118.422,94.588
		C123.902,96.963,115.825,103.765,118.422,94.588L118.422,94.588z M133.337,81.548c3.224-8.124-9.176-19.037-0.819-22.789
		c2.105-3.32,1.975,2.873,1.996,0.414c1.264,6.122,3.34,12.081,2.649,18.548c1.208,9.738-0.372,17.868-2.061,26.789
		c-2.846,11.504-11.631,23.764-19.724,30.324c-1.219-7.773,11.88-15.837,12.878-25.431
		C132.281,100.268,134.433,91.53,133.337,81.548z M167.781,93.911c1.884,15.867-21.369,11.548-13.941-2.333
		c5.369-5.909,8.355,10.835,8.94-2.377C165.367,89.298,168.267,93.951,167.781,93.911z M167.801,94.087c0-0.001,0-0.002,0-0.003
		C167.801,94.085,167.801,94.086,167.801,94.087z M153.721,112.678c7.838-11.275,4.679,3.263-1.836,5.964
		c-6.297,8.612-16.981,12.884-24.436,19.725c-3.309,4.575-11.968,7.533-4.955,0.201c5.369-4.895,16.797-12.075,18.379-13.096
		C143.291,123.634,148.599,120.658,153.721,112.678z M139.9,119.329c-2.37-1.982,0.294-7.406,3.7-2.414
		c1.068,7.994-19.85,15.321-8.221,6.887c0.792-0.658,1.696-1.392,2.664-2.152L139.9,119.329z M138.874,118.471
		C138.846,118.447,138.846,118.448,138.874,118.471L138.874,118.471z M138.995,118.572c0.085,0.071,0.198,0.166,0.317,0.265
		C139.173,118.721,139.066,118.632,138.995,118.572z M139.798,119.244c0.004,0.003,0.007,0.006,0.011,0.009
		C139.805,119.25,139.802,119.248,139.798,119.244z M141.924,124.673c-0.034,0.026-0.106,0.081-0.2,0.152
		C141.834,124.742,141.896,124.694,141.924,124.673z M141.118,125.286c-0.079,0.06-0.142,0.108-0.186,0.141
		C141,125.375,141.058,125.332,141.118,125.286z M146.878,90.377c0.024-0.008,0.044-0.015,0.067-0.023
		C146.906,90.368,146.878,90.377,146.878,90.377c8.834-2.999,0.891,7.238-4.42,7.651c-0.207-6.531-4.172-15.801,7.361-12.656
		C156.636,88.312,145.048,87.034,146.878,90.377z M150.771,89.056c-0.031,0.011-0.09,0.031-0.169,0.058
		C150.689,89.083,150.741,89.066,150.771,89.056z M150.474,89.157c-0.057,0.019-0.118,0.04-0.187,0.063
		C150.357,89.196,150.419,89.175,150.474,89.157z M149.599,89.454c-0.091,0.031-0.184,0.063-0.279,0.095
		C149.419,89.514,149.51,89.483,149.599,89.454z M149.017,89.651c-0.26,0.088-0.521,0.177-0.771,0.262
		C148.531,89.816,148.787,89.729,149.017,89.651z M147.093,90.304c-0.002,0-0.004,0.001-0.006,0.002
		C147.089,90.305,147.091,90.305,147.093,90.304z M143.934,106.275c0.023,0.001,0.044,0.002,0.067,0.003
		C143.96,106.276,143.934,106.275,143.934,106.275c8.476,0.428,6.434,12.447-0.499,4.094c-11.688,3.83-15.27,17.223-23.084,25.611
		c-5.331,3.079,6.157-11.112,8.552-15.034C132.272,115.238,136.286,106.041,143.934,106.275z M147.492,106.455
		c-0.277-0.014-0.799-0.04-1.363-0.069C146.827,106.421,147.264,106.443,147.492,106.455z M145.554,106.357
		c-0.66-0.034-1.274-0.064-1.514-0.077C144.627,106.31,145.126,106.335,145.554,106.357z M123.338,97.874
		c2.973-3.952,3.477,6.078,3.518,6.359C124.984,115.306,123.382,103.027,123.338,97.874z M122.82,92.169
		c0.132-0.151,0.271-0.311,0.408-0.468C123.077,91.875,122.938,92.034,122.82,92.169z M123.83,91.012
		c0.195-0.224,0.327-0.375,0.327-0.375c-4.638,5.313-0.382-10.814,0,0C124.041,90.771,123.935,90.892,123.83,91.012z
		 M122.367,92.688c-0.097,0.112-0.167,0.191-0.209,0.24C122.205,92.875,122.277,92.791,122.367,92.688z M118.458,94.603
		c0.03,0.013,0.056,0.024,0.085,0.037C118.505,94.624,118.478,94.612,118.458,94.603z M118.939,94.813
		c0.062,0.026,0.117,0.05,0.175,0.076C119.054,94.862,118.995,94.836,118.939,94.813z M119.888,95.224
		c0.086,0.037,0.165,0.071,0.238,0.103C120.049,95.293,119.97,95.259,119.888,95.224z M120.387,95.439
		c0.172,0.075,0.292,0.127,0.367,0.159C120.671,95.563,120.542,95.507,120.387,95.439z M120.813,95.625
		c0.014,0.006,0.023,0.01,0.03,0.013C120.837,95.635,120.827,95.63,120.813,95.625z M119.5,104.215
		c7.786,6.692-2.88,25.826-6.164,24.013c5.875-5.135,7.118-18.695-0.5-19.931c-4.138,2.351-6.52,8.331-6.29-0.254
		C107.359,101.035,118.572,102.49,119.5,104.215z M167.895,94.875c0.001,0.009,0.002,0.018,0.003,0.026
		C167.897,94.893,167.896,94.884,167.895,94.875z M167.989,95.665c0.011,0.086,0.021,0.168,0.03,0.252
		C168.009,95.832,167.999,95.746,167.989,95.665z M168.062,96.277c0.016,0.135,0.031,0.271,0.047,0.399
		C168.093,96.541,168.078,96.408,168.062,96.277z M168.333,98.563c0.062,0.52,0.112,0.946,0.152,1.284
		C168.441,99.475,168.389,99.034,168.333,98.563z M168.507,100.035c0.008,0.065,0.017,0.139,0.023,0.196
		C168.524,100.17,168.516,100.102,168.507,100.035z M168.538,100.286c0.022,0.189,0.038,0.324,0.051,0.431
		C168.576,100.606,168.558,100.458,168.538,100.286z M168.596,100.782C168.625,101.025,168.623,100.998,168.596,100.782
		L168.596,100.782z M182.193,83.66c-2.895-4.602-5.587-13.542,0.289-3.899c9.317,7.218,5.176,29.417-7.868,24.167
		c-2.507-1.491-3.807-2.945-3.825-2.897c-2.563-5.451,14.344,2.415,14.125-9.669C184.393,89.317,182.461,84.567,182.193,83.66z
		 M179.853,66.24c4.031,6.583,11.797,12.262,15.32,17.157c-5.689,5.476-11.846-6.793-14.145-11.272
		C179.361,70.675,179.095,66.917,179.853,66.24z M170.53,100.479c-0.04-0.085-0.078-0.167-0.115-0.245
		C170.455,100.32,170.494,100.402,170.53,100.479z M170.779,101.01c-0.011-0.023-0.02-0.042-0.029-0.064
		C170.762,100.973,170.773,100.996,170.779,101.01z M169.713,98.744c0.023,0.05,0.053,0.111,0.086,0.182
		C169.765,98.853,169.735,98.79,169.713,98.744z M169.893,99.125c0.072,0.154,0.155,0.331,0.241,0.513
		C170.038,99.433,169.958,99.263,169.893,99.125z M170.262,99.911c0.007,0.014,0.014,0.028,0.021,0.042
		C170.276,99.939,170.269,99.925,170.262,99.911z M179.851,125.706c13.242-4.313,6.876,8.547-2.9,4.388
		c-11.103,0.48,6.846-6.886,1.878-4.635L179.851,125.706z M179.951,125.674c0.099-0.032,0.186-0.061,0.282-0.092
		C180.109,125.622,180.015,125.653,179.951,125.674z M180.588,125.466c0.036-0.012,0.074-0.024,0.109-0.035
		C180.659,125.443,180.625,125.454,180.588,125.466z M181.322,125.227c0.07-0.022,0.136-0.044,0.203-0.066
		C181.457,125.183,181.388,125.206,181.322,125.227z M181.742,125.09c1.303-0.424,2.233-0.728,2.864-0.933
		C183.795,124.421,182.688,124.782,181.742,125.09z M184.961,124.042c0.211-0.068,0.382-0.124,0.501-0.163
		C185.333,123.92,185.164,123.976,184.961,124.042z M185.565,123.845C185.795,123.77,185.771,123.778,185.565,123.845
		L185.565,123.845z M191.333,128.945c-0.117,0.038-0.197,0.043-0.251,0.029C183.023,130.01,197.61,117.911,191.333,128.945z
		 M194.695,130.93c1.483-0.062,3.699,0.044,5.804,0.192C198.566,131.004,196.63,130.932,194.695,130.93z M209.904,85.396
		c-0.219,0.406-0.441,0.821-0.67,1.255C208.738,87.538,208.758,87.469,209.904,85.396z M210.083,85.114
		c0.157-0.292,0.312-0.579,0.467-0.864c0.031-0.064,0.064-0.129,0.097-0.193c0.133-0.24,0.261-0.471,0.412-0.743
		c-0.116,0.203-0.214,0.374-0.323,0.564c0.679-1.374,1.345-2.746,1.992-4.115c4.608-3.891-0.569,11.834-4.153,14.705
		c-2.967,3.707-9.158,23.473-10.926,16.329c0.038-0.09,0.079-0.179,0.117-0.268c0.075-0.168,0.151-0.336,0.228-0.505
		c-0.07,0.156-0.135,0.298-0.193,0.428c1.563-3.692,3.29-7.349,5.082-10.978c0.61-1.281,1.225-2.556,1.84-3.817
		c-0.505,1.043-1.004,2.084-1.491,3.107c2.408-4.852,4.911-9.653,7.273-14.421C210.358,84.609,210.216,84.869,210.083,85.114z
		 M212.995,79.526c0.079-0.068,0.158-0.136,0.23-0.199C213.141,79.4,213.065,79.466,212.995,79.526z M214.124,78.551
		c0.067-0.058,0.128-0.11,0.183-0.158C214.248,78.444,214.189,78.495,214.124,78.551z M209.208,109.89
		c2.774-1.812,0.245-6.481-0.745-7.945c13.003,0.434-1.727,18.798-11.511,14.952c-4.494,1.534-24.043,3.265-8.858-0.613
		C195.089,116.343,209.56,111.747,209.208,109.89z M214.59,78.148C214.831,77.941,214.788,77.978,214.59,78.148L214.59,78.148z
		 M259.017,37.52C258.271,37.977,258.458,37.863,259.017,37.52L259.017,37.52z M259.357,37.312c0.439-0.269,0.988-0.605,1.495-0.916
		C260.203,36.793,259.716,37.092,259.357,37.312z M262.306,35.506c-8.521,5.218-9.182,1.206-17.269,9.139
		c-3.479,3.083-4.646,13.737-4.558,14.146c-0.025,0.945-0.007,2.12,0.038,3.362c-0.38-6.646,0.267,13.837,0.041,5.454
		c0.687,3.414-0.753,16.25-2.416,8.411c0.339-12.742-2.435-27.751,8.793-36.862C250.917,37.414,266.659,29.136,262.306,35.506z
		 M261.565,35.96c0.096-0.059,0.183-0.112,0.264-0.162C261.742,35.851,261.647,35.91,261.565,35.96z M262.148,35.603
		c0.037-0.023,0.067-0.042,0.092-0.057C262.208,35.566,262.179,35.583,262.148,35.603z M256.454,33.516
		c-0.038,0.005-0.075,0.013-0.113,0.019c0.291-0.077,0.587-0.156,0.866-0.23C257.371,33.264,257.226,33.305,256.454,33.516z
		 M257.21,33.304c0.215-0.057,0.419-0.111,0.6-0.159C257.596,33.201,257.399,33.253,257.21,33.304z M254.751,33.957
		c0.004-0.001,0.009-0.002,0.013-0.003C254.76,33.955,254.755,33.956,254.751,33.957z M256.011,33.623
		c0.086-0.023,0.174-0.046,0.262-0.07C256.185,33.576,256.091,33.601,256.011,33.623z M258.544,32.949
		c-0.018,0.004-0.031,0.008-0.049,0.013c0.004-0.001,0.01-0.003,0.013-0.003c-0.129,0.034-0.244,0.065-0.366,0.097
		c0.096-0.025,0.175-0.046,0.239-0.063c-0.443,0.118-0.838,0.223-1.184,0.314c0.003-0.001,0.005-0.001,0.008-0.002
		c-0.324,0.086-0.609,0.162-0.865,0.23c-0.001,0-0.003,0-0.004,0.001c-2.558,0.678-1.16,0.303-0.032,0.005
		c-13.222,1.93-22.785,14.184-20.3,27.558c1.815,12.027,2.556,28.104-13.591,26.404c-11.844,6.638-1.537-22.378-10.92-8.054
		c-6.144,11.37-11.974,24.044-17.813,34.776c-4.408-2.51-18.763,7.48-10.468-3.334c12.505-26.905,26.225-53.22,39.025-79.981
		c12.035-0.591,30.438-3.321,39.189,1.001C259.611,33.772,259.391,32.499,258.544,32.949z M198.696,51.821
		c4.17-1.796,3.667-9.423,3.822-8.842C209.19,41.758,197.972,64.276,198.696,51.821z M192.783,52.813
		c0.494-0.933-0.24-3.503,1.201-2.769C199.475,47.07,195.705,61.547,192.783,52.813z M196.632,56.816
		c0.495,0.71,0.307,0.868,0.037,0.795C196.63,64.621,184.947,55.222,196.632,56.816z M194.277,72.712
		c1.393-3.016-3.389-9.98,4.475-5.36c7.045,12.731-16.375,10.415-12.457,0.353C186.623,71.408,195.006,73.065,194.277,72.712z
		 M167.333,84.554c0.033,0.089,0.066,0.177,0.094,0.247C167.391,84.706,167.36,84.624,167.333,84.554z M167.227,84.274
		c0.007,0.019,0.015,0.04,0.023,0.063C167.242,84.313,167.234,84.292,167.227,84.274z M167.194,84.187
		C167.19,84.178,167.19,84.176,167.194,84.187L167.194,84.187z M166.977,44.528c-5.385,1.578,0.271-6.199,0.274-0.557
		L166.977,44.528z M146.337,56.785c6.268-4.686,7.244,8.652-0.043,3.859C145.472,60.19,146.252,57.26,146.337,56.785z
		 M147.183,48.863c9.783-4.806,2.528,10.813-0.486,1.738C146.763,50.309,147.05,49.325,147.183,48.863z M153.178,47.202
		c0.023-0.02,0.053-0.045,0.09-0.076C153.231,47.157,153.201,47.183,153.178,47.202z M153.814,46.659
		c0.017-0.014,0.033-0.028,0.05-0.042C153.847,46.63,153.83,46.646,153.814,46.659z M154.064,46.446
		c0.063-0.054,0.126-0.108,0.191-0.164C154.189,46.338,154.123,46.396,154.064,46.446z M154.567,46.016
		c0.141-0.121,0.278-0.238,0.407-0.348C154.829,45.792,154.693,45.908,154.567,46.016z M155.71,45.039
		c-0.013,0.011-0.022,0.019-0.035,0.03C155.696,45.051,155.71,45.039,155.71,45.039c-5.824,4.975-2.906-9.118,0-1.767V45.039z
		 M155.238,45.443c0.111-0.095,0.208-0.177,0.284-0.243C155.426,45.282,155.328,45.366,155.238,45.443z M135.986,49.162
		c2.922,12.079-21.998,9.341-5.961,3.74C132.087,52.095,135.041,48.358,135.986,49.162z M81.43,138.787
		c0.223,7.808-9.587,0.218-13.976,0.25c-3.439-5.728,0.188-13.698,2.585-3.616c9.524-0.663,4.187-12.883-2.781-13.798v-0.001h-0.002
		v0.001c-0.002,0-0.004,0-0.006-0.001c-11.974-2.75,12.308-2.048,11.324,5.799C80.536,130.718,82.458,136.422,81.43,138.787z
		 M65.254,121.587h-0.219h-0.001l-0.001-0.002L65.254,121.587z M41.053,152.486c3.042-6.242,25.081-11.572,17.566-24.171
		c1.342-11.578,5.888,11.295,3.8,8.042C61.165,146.213,48.07,150.49,41.053,152.486z M58.762,180.093l-0.194-1.584
		C64.703,171.571,62.336,183.669,58.762,180.093z M54.775,212.156c-0.472,15.228-2.789-6.652-1.486-12.69
		c0.068-4.858-0.031-24.495-0.02-21.271c-0.002-0.391-0.004-0.798-0.006-1.234c1.404-0.313-3.333-22.26,2.624-28.26
		c0.333,8.395-0.144,17.826-0.121,26.65C54.98,187.632,55.568,199.955,54.775,212.156z M53.282,180.898
		C53.289,182.299,53.288,182.111,53.282,180.898L53.282,180.898z M51.086,172.25c0.725-10.044-0.751,13.7-0.282,18.709
		c-2.151,8.368,5.384,25.841-4.813,26.932c-10.364-1.342-3.124-21.031-5.111-30.119c-0.176-5.968-0.061-20.109,0.214-25.932
		c-0.319,2.852-0.183,1.356,0.04-0.771c0.058-0.994,0.121-1.623,0.19-1.768c0.111-1.004,0.218-1.93,0.288-2.414
		c0.919,5.415-0.112-6.371,6.772-4.141C56.196,150.529,49.3,173.449,51.086,172.25z M55.582,83.933
		c1.702,11.518,0.044,25.098,0.307,37.482c0.971,6.306-1.683,28.14-1.747,10.472c-0.585-5.085-0.17-19.03-0.401-19.944
		c1.359-5.943,0.87-5.175,0.307-2.321C54.939,100.877,52.605,89.197,55.582,83.933z M62.68,45.04
		c-3.213-5.149-12.489-23.215-3.215-10.332c8.263,16.013,17.803,31.296,25.293,47.721c-8.976-8.424-13.995-21.789-19.726-32.678
		C65.294,47.968,62.142,45.197,62.68,45.04z M71.223,36.505c-0.002-0.001-0.003-0.001-0.005-0.003
		c10.283-0.64-4.626,11.471-0.12,0.47C70.937,36.568,71.056,36.482,71.223,36.505z M83.471,22.162
		c-6.091-1.176-15.229,18.421-11.377,4.037c6.297-7.984,18.793-5.559,25.564-3.177c-0.118,0.112-0.251,0.198-0.393,0.263
		c-0.025,0.013-0.057,0.021-0.083,0.033c-0.05,0.02-0.101,0.038-0.152,0.053C94.458,24.306,87.4,22.333,83.471,22.162z
		 M51.493,28.847c0.322,0.511,0.593,0.965,0.841,1.394c7.757,12.624,13.594,26.356,20.895,39.236
		c-2.268,7.208-6.855,20.09-10.51,23.295c-1.902-7.451-12.501-22.052-10.713-5.687c2.193,16.373-1.906,32.928,0.959,49.218
		c1.496,8.745-15.666,14.815-10.896,2.541c0.607-28.288-0.065-56.608,0.65-84.882C42.35,39.05,27.35,34.095,16.164,30.316
		c7.919-2.412,21.745-2.61,31.392-0.717C47.678,28.889,48.741,28.406,51.493,28.847z M34.313,86.822l0.174,0.39l-0.657,0.223
		c0.004-0.021,0.008-0.04,0.013-0.061c-0.007,0.037-0.013,0.061-0.013,0.061C35.453,79.584,38.095,89.881,34.313,86.822z
		 M33.858,87.293c0.008-0.04,0.016-0.076,0.024-0.115C33.873,87.222,33.865,87.26,33.858,87.293z M34.049,86.37
		c0.004-0.021,0.009-0.042,0.013-0.063C34.058,86.329,34.054,86.349,34.049,86.37z M34.185,85.714
		c0.062-0.298,0.113-0.549,0.158-0.765C34.293,85.19,34.239,85.452,34.185,85.714z M34.362,84.856
		c0.016-0.075,0.029-0.141,0.042-0.206C34.391,84.717,34.377,84.785,34.362,84.856z M34.496,84.21
		c0.009-0.042,0.017-0.08,0.023-0.111C34.512,84.131,34.505,84.168,34.496,84.21z M34.541,83.993
		C34.553,83.933,34.553,83.936,34.541,83.993L34.541,83.993z M33.205,106.312c-7.821-4.469-3.692-9.907,0.624-5.334
		C43.356,102.086,40.602,116.648,33.205,106.312z M37.511,96.8l0.494,0.015C41.764,101.697,33.528,98.497,37.511,96.8z
		 M37.656,59.171c-8.991,9.691-20.2-8.01-12.706-14.928c-5.496,7.181,7.153,18.818,9.273,8.477
		C34.976,43.75,39.354,59.185,37.656,59.171z M18.225,33.559c6.197,0.298,18.211,6.945,5.004,3.239
		C18.31,36.066,15.223,32.315,18.225,33.559z M30.591,39.446C32.635,35.936,37.788,45.014,30.591,39.446L30.591,39.446z
		 M30.615,39.404c0.074-0.127,0.135-0.232,0.198-0.341C30.725,39.216,30.651,39.343,30.615,39.404z M31.164,38.462
		c0.098-0.167,0.166-0.284,0.218-0.375C31.322,38.189,31.247,38.319,31.164,38.462z M30.481,119.345
		c6.32-5.847-6.807-16.89,3.171-9.476c11.044,8.563-7.64,19.756-8.655,6.712C27.601,117.535,30.735,118.722,30.481,119.345z
		 M39.422,125.411c-4.667,1.671-10.183,5.893-11.086,6.854c-0.153,0.14-0.213,0.227-0.083,0.196
		c3.797-2.879-10.204,11.492-5.611,0.604C25.108,129.392,40.944,116.717,39.422,125.411z M32.42,176.547
		c2.131-9.419,6.348-19.231,3.472-28.347c3.37-8.486,3.653,11.882,2.943,15.774c-0.78,2.069-1.32,5.212-1.433,6.999
		C36.838,177.279,26.323,188.3,32.42,176.547z M37.399,171.008c-0.007,0.073-0.013,0.139-0.019,0.209
		C37.389,171.119,37.396,171.046,37.399,171.008z M37.366,171.38c-0.005,0.057-0.011,0.116-0.016,0.17
		C37.355,171.491,37.361,171.434,37.366,171.38z M37.29,172.228c-0.011,0.13-0.022,0.25-0.032,0.361
		C37.268,172.469,37.279,172.348,37.29,172.228z M37.231,172.886c-0.021,0.23-0.037,0.41-0.049,0.545
		C37.195,173.282,37.212,173.093,37.231,172.886z M37.155,173.729C37.15,173.791,37.15,173.785,37.155,173.729L37.155,173.729z
		 M36.302,141.869c1.602-1.083,1.071-0.459,1.354-1.443c-4.573-6.442,0.595-10.083,1.496-2.181
		C41.275,146.623,22.777,145.822,36.302,141.869z M35.301,139.543c-5.727-1.125-3.831-11.731-0.607-2.495
		C35.559,138.183,35.04,139.476,35.301,139.543z M30.002,139.836c-0.77,0.519-1.519,4.951-1.494,5.164
		C26.77,158.908,26.259,132.832,30.002,139.836z M22.96,201.91c1.62-0.487,3.638-1.7,5.688-2.041
		c0.219-0.148,0.999-0.252,2.206,0.043c-3.286,0.731-17.872,13.404-20.019,2.928C10.622,195.683,17.558,208.89,22.96,201.91z
		 M22.296,181.072l-1.441-1.818c-0.036-0.031-0.065-0.058-0.1-0.088c0.063,0.055,0.1,0.088,0.1,0.088
		c-4.886-4.299-0.664-12.009,2.189-2.418c1.599,4.891,11.506,9.787,15.79,13.517C37.766,197.519,24.49,183.417,22.296,181.072z
		 M18.691,177.349c0.01,0.01,0.038,0.033,0.08,0.07C18.73,177.384,18.702,177.359,18.691,177.349z M18.969,177.594
		c0.085,0.075,0.184,0.162,0.293,0.258C19.144,177.749,19.048,177.664,18.969,177.594z M19.433,178.002
		c0.081,0.071,0.164,0.144,0.248,0.218C19.592,178.142,19.509,178.069,19.433,178.002z M19.917,178.427
		c0.111,0.098,0.219,0.193,0.321,0.283C20.124,178.61,20.016,178.515,19.917,178.427z M20.432,178.881
		c0.11,0.097,0.203,0.179,0.274,0.241C20.613,179.041,20.518,178.957,20.432,178.881z M76.554,246.309
		c0.007,0.012,0.015,0.022,0.022,0.034C76.569,246.333,76.56,246.319,76.554,246.309z M76.717,246.563
		c0.02,0.03,0.036,0.055,0.05,0.077C76.749,246.612,76.734,246.589,76.717,246.563z M76.275,245.878
		c0.036,0.055,0.073,0.112,0.111,0.171C76.346,245.988,76.308,245.928,76.275,245.878z M76.082,245.578
		c0.032,0.049,0.078,0.121,0.13,0.202C76.155,245.691,76.109,245.621,76.082,245.578z M56.419,233.021
		c1.335,4.021,0.9,3.527,0.4,2.561C50.665,230.294,53.92,220.359,56.419,233.021z M60.325,235.224
		c2.043-12.911,10.926,12.828,4.799,1.955C62.591,235.268,60.748,234.933,60.325,235.224z M72.315,240.169
		c-0.032-0.123-0.061-0.232-0.09-0.345c0,0.003,0.001,0.007,0.002,0.01c-0.04-0.151-0.078-0.299-0.114-0.437
		c-0.038-0.147-0.077-0.294-0.11-0.422l0,0c-0.03-0.113-0.056-0.215-0.083-0.318c0.015,0.057,0.029,0.114,0.044,0.169
		c-0.044-0.169-0.083-0.319-0.118-0.453c0,0.002,0.001,0.004,0.001,0.006c-0.004-0.018-0.008-0.031-0.013-0.049
		c-0.015-0.058-0.032-0.121-0.045-0.173c0.071,0.271,0.145,0.553,0.214,0.818c1.627,7.543-6.334-3.722-4.614-4.337
		c-1.301-6.764-14.819-12.98-14.351-12.106c-5.449-1.116-15.26-1.324-17.648,6.363c-0.107,6.997-9.293,14.489-5.319,4.07
		c0.332-8.656,11.209-12.732,10.826-12.168c13.833-5.278,29.163,5.099,31.436,19.437C72.326,240.211,72.321,240.192,72.315,240.169
		C72.315,240.168,72.315,240.168,72.315,240.169z M72.163,239.587c-0.005-0.019-0.01-0.038-0.015-0.057
		C72.153,239.55,72.158,239.569,72.163,239.587z M71.319,213.482c4.421,5.65-10.11-1.626-5.105,8.492
		c4.232,3.2,6.795,10.43,4.747,9.006c0.417,1.015-0.109,0.363-1.048-1.035c-0.62-0.732-1.41-1.815-2.402-3.358
		c-0.094-0.131-0.19-0.268-0.286-0.404c0.547,0.771,1.122,1.524,1.704,2.262c-1.791-2.775-4.147-6.606-4.942-7.815
		c-0.724-1.738-1.096-3.484-0.703-5.002c-0.144-0.07-0.268-0.131-0.378-0.185c0.205,0.1,0.378,0.185,0.378,0.185
		C60.917,214.472,68.829,205.906,71.319,213.482z M66.981,225.836c-0.888-1.275-1.829-2.743-2.562-4.251
		c0.356,0.637,0.851,1.509,1.528,2.691C66.267,224.792,66.619,225.315,66.981,225.836z M62.25,215.123
		C62.232,215.114,62.231,215.113,62.25,215.123L62.25,215.123z M62.453,215.221c0.093,0.045,0.202,0.099,0.313,0.153
		C62.637,215.311,62.531,215.259,62.453,215.221z M70.334,182.232c-0.217,11.953-8.505-1.511-0.759-0.566
		c1.313,0.681,1.103,0.672,0.754,0.564C70.331,182.231,70.332,182.231,70.334,182.232z M89.766,211.081c0,0.001,0,0.002,0,0.003
		c-1.97-0.755-2.919-1.492-3.243-2.082c-3.34-3.645-0.826-9.514-1.463-14.113c-3.15,3.639-2.095,11.675-8.362,3.986
		c-3.57-2.888-1.311-10.86-0.173-15.177c-0.236-7.521,3.043-15.67,1.562-23.614c0.058,0.336,0.082,0.729-0.031,1.059
		c0.063,0.657,0.117,1.17,0.163,1.571c-0.624-3.857-3.4-16.622-10.784-14.146c-0.659,0.017-2.036-0.167-3.869,3.71
		c-3.033,0.732,8.809,9.558,9.13,14.064c5.762,8.271-15.905,12.639-2.365,5.199c1.604-2.071,1.222-6.201-1.961-7.592
		c-5.253-1.662-9.456-10.572-8.339-8.797c0.03-0.725-2.734-8.998,3.827-10.301c4.916-1.397,15.781-0.705,17.963,8.534
		c7.694-12.803,10.971,9.337,5.986,14.956c-3.331,8.496-7.927,10.158-7.163,16.771c-1.76,2.034,4.506,8.116,4.12-1.407
		c-2.428-6.598,5.359-3.446,3.536-10.294c1.265-2.879,4.099-8.278,5.005-2.64c1.551,9.638,0.237,13.666,1.198,8.113
		c-0.604,9.115-2.796,7.287-3.272,16.387c7.768-2.75,1.513,11.406-1.087,14.201C89.848,211.232,89.764,211.428,89.766,211.081z
		 M88.266,173.486C87.389,175.801,87.583,175.047,88.266,173.486L88.266,173.486z M142.244,232.65
		c6.467-5.016,13.58,11.885,8.529,7.508C151.032,230.004,138.577,241.712,142.244,232.65z M199.292,232.61
		c1.175-4.858-3.871-4.69-1.41-9.519c0.002-0.484,3.555-9.375,1.4-0.236c2.703,2.84,1.361,6.321,1.379,8.595
		c-0.007,0.027-0.006,0.113,0.006,0.289C202.023,240.807,198.879,237.966,199.292,232.61z M264.346,247.585
		c-4.935,2.579-3.962,1.815-2.385,0.934c-9.055,2.641-25.137-1.17-36.081,0.623c-7.287-0.523-24.856,4.055-26.867-3.055
		c14.09-0.34,22.563-13.467,21.283-27.025c-0.923-14.277-2.424-28.465-1.785-42.834c-0.104-15.133-0.971-30.609-0.975-45.525
		c8.854,1.087,24.818-4.198,20.156,10.394c2.458,25.833-1.193,51.781,1.362,77.633c-1.806,16.236,10.802,25.941,25.094,27.283
		c0.021,0.902,0.064,1.316,0.109,1.485c0.061,0.004,0.092,0.027,0.087,0.077c0.002-0.004,0.004-0.008,0.006-0.012
		C264.349,247.573,264.348,247.577,264.346,247.585z M241.681,131.296c0.306,8.79,1.172,17.447,0.887,26.315
		c0.022,10.442-0.178,20.915,0.325,31.307c0.001,0.679,0.004,1.504,0.009,2.512c-0.213,7.373,0.818,23.407,0.765,25.404
		c0.074-5.521,0.277-16.14,0.081-4.805c0.113,6.52,0.227,13.285,2.65,19.507c5.426,15.646-8.491-8.069-4.803-13.231
		c-0.759-20.264-1.393-40.512-1.389-60.797C242.165,150.195,239.288,133.581,241.681,131.296z M243.084,192.257
		c0.058,0.898,0.108,1.797,0.179,2.693C243.33,203.998,243.207,197.782,243.084,192.257z M262.457,153.691
		c15.418,1.429,4.356,22.188-7.124,20.692c-9.837,4.376-11.516-17.425-3.759-11.905c-1.145,10.878,18.498,2.38,8.385-2.504
		C255.121,155.856,257.369,152.085,262.457,153.691z M249.623,147.787c-12.683-6.144,4.242,0.811,5.27-5.466
		C260.753,138.83,257.303,151.971,249.623,147.787z M245.208,149.255c1.23,0.496,1.841,0.859,2.071,1.103
		c4.779,3.056,10.104,9.547,9.609,9.052c4.937,11.469-9.82-0.871-11.744-7.655c1.265,0.26,1.38-0.442,1.07-1.108
		c0.307,0.109,0.595,0.138,0.757,0.083c0.36,0.013,0.558-0.108,0.308-0.371C246.571,149.904,245.873,149.523,245.208,149.255
		c-0.023,0.095-0.027,0.185-0.021,0.271c0.002,0.043,0.007,0.084,0.014,0.125c-0.046-0.011-0.091-0.015-0.135-0.015
		C245.107,149.505,245.145,149.374,245.208,149.255z M254.042,224.625c-9.795-0.262,3.056-5.441-0.111-0.52L254.042,224.625z
		 M259.88,234.014c-2.917,0.038-2.23-0.381-2.772-1.247C257.87,227.199,264.81,229.595,259.88,234.014z M264.335,216.696
		c0.686,1.349-2.471,7.969-2.643,5.87C253.875,233.544,258.695,214.851,264.335,216.696z M250.986,216.311
		c4.534-4.563-7.926-5.583-4.549-14.005c1.112-4.561,8.645-5.773,6.719-11.544c-10.421-8.599,9.08-5.695,4.416,3.526
		c-6.828,2.234-10.613,16.948-0.883,14.428c5.114-2.066,5.802-13.783,6.251-13.295c-0.734-3.589-1.467-8.891-2.132-9.668
		c-0.636-7.334,1.033-6.019,2.016-2.374c-0.071-0.076-0.148-0.162-0.24-0.273c0.288,8.183,3.988,14.372,1.813,22.507
		C265.155,210.669,251.24,223.146,250.986,216.311z M255.145,178.058C255.128,178.065,255.129,178.065,255.145,178.058
		L255.145,178.058z M255.266,178.011c0.025-0.01,0.054-0.021,0.085-0.033C255.318,177.991,255.292,178.001,255.266,178.011z
		 M255.413,177.955c0.06-0.023,0.125-0.049,0.197-0.077C255.535,177.908,255.469,177.932,255.413,177.955z M259.868,176.684
		c-2.905,0.467-3.177,0.572-2.587,0.544l0,0h0.002l0,0c0.002,0,0.003,0,0.005-0.001c-0.002,0.001-0.003,0.001-0.005,0.001
		c-0.425,0.165-0.737,0.291-0.97,0.389c0.014-0.01,0.027-0.019,0.04-0.027c-0.052,0.02-0.105,0.041-0.153,0.06
		c0.052-0.021,0.103-0.04,0.153-0.06c0.465-0.333,0.341-0.749-4.666-0.066c-6.016,0.505-9.483-12.506-2.293-3.082
		c7.523,3.452,16.532-1.845,20.644-8.692C275.46,158.166,267.32,179.594,259.868,176.684z M249.253,123.061l0.313,0.021l0.017,0.001
		L249.253,123.061z M271.412,85.373c-6.396,4.643-16.989,20.528-23.26,6.306c-1.455-9.206,10.682-17.068,8.572-23.853
		c0.793,2.037,1.667,4.172,2.258,6.362c1.255,4.653,1.22,9.555-3.658,14.292c1.949,5.072,7.511-1.836,8.745-6.708
		C269.21,78.882,271.102,83.115,271.412,85.373z M268.763,49.456c1.239,5.795,1.105,12.139-0.004,17.959
		c1.314,6.986-8.166,16.744-4.117,4.716c2.541-10.19,2.067-20.662-1.514-30.585C263.599,26.681,269.595,49.771,268.763,49.456z
		 M263.614,59.057c0.026,0.129,0.05,0.244,0.07,0.342C263.663,59.294,263.639,59.179,263.614,59.057z M263.72,59.571
		c0.028,0.136,0.048,0.232,0.061,0.293C263.767,59.798,263.746,59.696,263.72,59.571z M263.792,59.923
		C263.799,59.956,263.799,59.956,263.792,59.923L263.792,59.923z M254.927,11.772c9.188-9.024,18.187,9.115,11.388,10.405
		c2.621-8.369-12.622-11.04-5.167-1.592c7.475,13.999-6.36,1.379-6.488-6.121c-0.052,0.038-0.055-0.15,0.021-0.52
		c0.007-0.098,0.009-0.199,0.021-0.294C254.271,13.909,253.9,13.6,254.927,11.772z M258.987,7.784
		C259.013,7.759,259.01,7.762,258.987,7.784L258.987,7.784z M258.861,7.908c-0.122,0.12-0.313,0.308-0.547,0.538
		C258.576,8.188,258.75,8.017,258.861,7.908z M257.812,8.938c-0.203,0.199-0.418,0.411-0.638,0.626
		C257.415,9.329,257.625,9.123,257.812,8.938z M256.819,9.914c-0.027,0.026-0.054,0.053-0.08,0.079
		C256.765,9.967,256.792,9.94,256.819,9.914z M256.375,10.351c-0.3,0.294-0.579,0.569-0.813,0.798
		C255.853,10.863,256.125,10.595,256.375,10.351z M255.475,11.234c-0.232,0.228-0.402,0.395-0.486,0.478
		C255.16,11.544,255.316,11.39,255.475,11.234z M211.829,10.128c-0.009,0.002-0.021,0.004-0.034,0.007
		C211.81,10.132,211.819,10.13,211.829,10.128z M206.755,11.319l1.064-0.429c0.063-0.012,0.117-0.022,0.179-0.034
		c-0.11,0.021-0.179,0.034-0.179,0.034c9.098-1.729,17.152-1.852,26.343-0.063c10.163,0.723,17.091,8.772,24.313,14.769
		c-4.602,5.358-16.952-13.436-26.509-12.056c-8.387-3.37-18.202-0.778-26.625,1.767C191.656,20.521,207.7,8.752,206.755,11.319z
		 M211.729,10.147c-0.036,0.007-0.079,0.015-0.128,0.024C211.652,10.162,211.694,10.154,211.729,10.147z M211.144,10.259
		c-0.514,0.098-1.221,0.231-1.853,0.352C210.137,10.45,210.736,10.336,211.144,10.259z M208.969,10.671
		c-0.271,0.052-0.516,0.098-0.709,0.135C208.512,10.759,208.749,10.713,208.969,10.671z M192.175,13.375
		c7.794-0.205,8.751,16.84,2.842,4.502C188.992,16.181,190.757,13.978,192.175,13.375z M152.557,16.049
		c3.796-9.463,19.165,3.604,21.243,1.015c-3.547,12.282-22.813-9.077-16.87,7.025c7.663,8.287,18.689-2.61,26.155-6.725
		c11.653-4.212,18.457,11.757,6.774,17.073c8.376-8.544-6.263-1.21-0.403,1.875c0.144,5.043,0.996,6.116,5.109,7.551
		c-1.071,8.999-9.768-3.025-10.259-0.892c-6.237,4.812-10.225-15.609,1.137-16.183c-4.198-7.074-8.077,6.565-13.96,8.391
		c-0.569,0.177-1.155,0.249-1.764,0.175c-6.627,1.496-4.414-5.583-6.942-4.444C154.748,32.186,149.67,19.851,152.557,16.049z
		 M146.4,27.706c0.069,0.025,0.131,0.049,0.197,0.073C146.516,27.749,146.451,27.725,146.4,27.706z M146.609,27.784
		c0.098,0.036,0.199,0.074,0.291,0.108C146.792,27.852,146.693,27.815,146.609,27.784z M147.33,28.052
		c0.197,0.073,0.38,0.141,0.548,0.204C147.69,28.186,147.504,28.117,147.33,28.052z M148.487,28.482
		c0.131,0.049,0.248,0.092,0.354,0.132C148.728,28.572,148.611,28.528,148.487,28.482z M149.199,28.747
		c0.129,0.047,0.229,0.084,0.297,0.11C149.421,28.83,149.32,28.792,149.199,28.747z M149.595,28.895
		c0.007,0.002,0.013,0.004,0.018,0.006C149.607,28.899,149.603,28.897,149.595,28.895z M112.433,20.9
		c1.04-1.036,1.312-1.027,1.244-0.679c3.749-0.967,10.478,4.067,7.023-4.792c1.971-11.201,16.814-5.136,17.553,3.896
		c4.241,1.818,12.858-1.615,5.68,5.111c-8.557,2.965-11.714-17.082-19.419-6.952c0.211,5.524,1.917,15.474-7.188,13.391
		C112.179,29.972,111.766,24.112,112.433,20.9z M110.904,32.074c2.207,1.835,2.735,3.965,2.707,4.134
		c4.354-6.154,4.118,14.123,13.005,6.218c-3.427-5.225,4.048-14.706,7.295-6.059c8.156,12.622-17.241,24.56-19.418,9.849
		c-5.968-4.417-11.976-11.585-19.135-7.654c-4.798-12.25,14.746-5.026,12.124-9.696C110.817,24.197,111.662,31.86,110.904,32.074z
		 M105.134,10.053l0.235-0.047c0.015-0.004,0.027-0.007,0.042-0.011c-0.025,0.007-0.042,0.011-0.042,0.011
		c8.756-2.37,2.857,0.943,2.147,5.647C111,22.943,101.563,9.712,105.134,10.053z M108.874,9.058
		C109.451,8.901,109.321,8.936,108.874,9.058L108.874,9.058z M108.749,9.091c-0.055,0.015-0.112,0.03-0.173,0.047
		C108.639,9.121,108.694,9.106,108.749,9.091z M108.249,9.227c-0.16,0.043-0.33,0.089-0.505,0.137
		C107.93,9.313,108.101,9.267,108.249,9.227z M106.476,9.707c-0.115,0.031-0.226,0.061-0.328,0.088
		C106.265,9.764,106.367,9.736,106.476,9.707z M106.086,9.812c-0.18,0.048-0.333,0.09-0.453,0.123
		C105.787,9.893,105.943,9.851,106.086,9.812z M38.831,16.188c8.39-3.467,17.694-6.737,26.687-6.737
		c10.52-0.255,19.943,0.57,29.354,4.722c7.401-0.771,23.709,15.834,7.928,8.527C91.7,16.285,80.38,12.116,67.544,13.187
		c-7.139-0.533-14.5,0.454-19.896,4.237c-7.337,0.107-14.018,11.652-20.298,8.013C30.48,19.722,38.579,16.185,38.831,16.188z
		 M9.652,13.572c-0.892-7.29,20.619-2.586,16.818,0.262c-6.049-2.969-19.658-0.271-8.441,4.886c7.726-1.435,17.633-1.914,6.086,2.18
		C15.797,26.08,7.558,22.844,9.652,13.572z M11.348,134.872c-4.413-9.508,7.561-19.614,16.006-9.754
		c-4.055,2.604-17.825-5.583-13.363,6.608c1.112,4.421,18.687,14.967,4.662,9.305c-6.24-3.944-3.001-2.712-5.137-2.958
		C8.271,132.396,9.565,133.15,11.348,134.872z M19.403,272.613c-1.486,0.708-2.014,0.754-2.039,0.529
		c-4.583,0.305-8.401-4.915-1.736-3.635c6.602-2.273-8.712-15.111,1.339-6.71c2.583,2.705,3.862,6.262,2.569,9.486
		C19.501,272.382,19.459,272.49,19.403,272.613z M60.218,269.221c-8.316,3.38-5.317,2.575-13.831,3.687
		c-3.7-0.045-7.47,0.371-10.791-0.883c6.285,1.58-11.036-2.665-12.398-6.233c-7.211-5.709-12.804-13.763-12.245-23.086
		c-2.134-8.075,0.159-16.878,2.858-24.255c6.386-7.346,12.885-17.636,23.846-17.369c-1.73,6.804-18.731,7.479-19.727,18.545
		c-5.13,5.009-4.009,15.903-5.867,15.023c-0.046,11.574,4.462,23.779,14,30.96c11.652,7.435,26.125,4.813,36.911-2.708
		c1.605-7.758,11.724-9.358,4.239-0.446C65.654,264.979,62.22,268.208,60.218,269.221z M16.13,230.955
		c-0.018-0.192-0.033-0.366-0.049-0.543C16.099,230.606,16.115,230.788,16.13,230.955z M15.943,228.895
		c-0.017-0.184-0.032-0.354-0.046-0.511C15.912,228.55,15.927,228.72,15.943,228.895z M15.838,227.741
		c-0.014-0.155-0.027-0.293-0.037-0.407C15.812,227.454,15.825,227.592,15.838,227.741z M15.77,226.994
		c-0.003-0.03-0.006-0.063-0.008-0.086C15.765,226.933,15.767,226.96,15.77,226.994z M15.753,226.814
		C15.751,226.79,15.751,226.793,15.753,226.814L15.753,226.814z M86.232,271.739l-0.294,0.874c-7.529,1.775-8.185-0.297-2.929-4.688
		c1.011-1.911-1.167-3.426-2.521-4.118c0.209,0.077,0.449,0.164,0.739,0.265c-5.294-4.579-25.607,12.705-12.956,1.174
		C74.836,249.785,95.826,262.926,86.232,271.739z M82.887,273.333c0.044-0.011,0.093-0.022,0.145-0.034
		C82.979,273.31,82.93,273.322,82.887,273.333z M83.239,273.25c0.11-0.026,0.23-0.055,0.357-0.084
		C83.462,273.197,83.343,273.225,83.239,273.25z M84.442,272.965c0.241-0.057,0.477-0.112,0.688-0.162
		C84.879,272.863,84.651,272.917,84.442,272.965z M85.707,272.667c0.024-0.006,0.047-0.012,0.067-0.016
		C85.751,272.657,85.729,272.662,85.707,272.667z M87.231,254.792c1.036,1.45,16.24-1.982,17.548-3.032
		C106.011,261.686,87.584,259.708,87.231,254.792z M105.954,267.607c-4.191,7.373-19.962-8.515-6.77-6.773
		C105.628,256.46,107.45,263.369,105.954,267.607z M104.933,233.223c0.041,0.027,0.114,0.076,0.211,0.142
		C105.036,233.292,104.972,233.25,104.933,233.223z M105.57,233.653c0.229,0.155,0.501,0.338,0.8,0.54
		C106.045,233.973,105.78,233.794,105.57,233.653z M107.098,234.683c0.273,0.185,0.551,0.371,0.823,0.555
		C107.621,235.036,107.348,234.851,107.098,234.683z M109.817,236.516c0.069,0.047,0.122,0.083,0.165,0.111
		C109.924,236.588,109.874,236.554,109.817,236.516z M117.187,212.664c-1.796-10.8-17.524-1.736-15.349,7.303
		c-0.497,6.565,0.545,7.853,1.472,14.133c0.945,7.232-5.06-8.088-2.569,3.637c-0.672,4.927-0.917,11.781,3.159,2.785
		c1.436,6.152-3.709,12.963-12.954,11.762c-8.264-2.578-12.774-15.839-13.675-20.686c-0.461-5.175-1.96-14.209-1.929-21.118
		c5.282,4.95,3.483,13.837,7.999,9.964c1.72,5.965,1.722,21.17,5.545,23.023c-1.043,1.5,6.7,7.91,6.993,2.125
		c0.824-5.527-1.717-1.119-4.049-3.023c6.28-4.736,0.382-12.658-0.589-18.843c-3.071-6.354,2.869-26.073,10.598-17.075
		c0.46-6.033,10.063-7.507,8.136-6.211c8.411-0.582,11.629,11.327,10.474,9.927c3.342,11.396-16.857,9.939-12.096,21.608
		c5.627,3.024,13.024,5.485,1.728,4.719C98.396,228.816,109.216,216.858,117.187,212.664z M112.993,242.106
		c-0.074-0.029-0.14-0.055-0.199-0.079C112.855,242.052,112.922,242.078,112.993,242.106z M112.379,241.864
		C112.344,241.849,112.344,241.849,112.379,241.864L112.379,241.864z M113.317,266.429c0.177,2.592,0.075,3.015-0.104,2.523
		c-0.784,2.415-4.329-7.668-0.106-9.427c3.187-7.36,23.989-1.478,16.738,2.696C125.717,255.877,111.351,259.336,113.317,266.429z
		 M125.947,272.613c0.335,0.073,0.602,0.13,0.838,0.179C126.505,272.752,126.226,272.699,125.947,272.613z M155.416,271.434
		c-0.068,0.147-0.13,0.278-0.193,0.416C155.34,271.596,155.416,271.434,155.416,271.434c-4.193,8.999-25.777-4.961-10.305-0.585
		c3.107,4.072,10.957-5.151,4.122-7.355c-7.805-2.586-14.847,9.301-21.625,9.351c-1.657-0.793-17.565-5.935-9.227-9.545
		c8.743,9.397,17.782-4.591,27.906-3.341C152.535,260.238,157.491,268.378,155.416,271.434z M153.619,275.29
		c0.027-0.059,0.063-0.135,0.104-0.223C153.678,275.162,153.645,275.233,153.619,275.29z M153.797,274.907
		c0.035-0.075,0.072-0.155,0.112-0.242C153.869,274.754,153.831,274.834,153.797,274.907z M229.016,269.667
		c-0.03,0.012-0.056,0.022-0.086,0.034C228.981,269.681,229.016,269.667,229.016,269.667c-12.034,4.781-24.781,3.433-37.397,3.235
		c-5.033-2.183-11.506-0.833-17.497-3.716c-11.694-2.832-20.64-9.152-30.483-15.119c-6.116-4.367-12.411-7.887-19.421-4.189
		c-4.978,6.461-12.009,5.524-8.092,0.02c2.324-5.041,12.532-7.883,17.71-8.348c-4.746-9.139,11.198,3.56,14.62,4.496
		c1.715-9.215,11.296,13.649,18.22,12.663c8.204-0.366-0.781-6.533-3.631-11.519c0.064-0.156,0.158-1.153,0.323-3.887
		c1.291-4.826,7.801,7.474,8.533,1.048c-3.711,5.358,6.703-12.915,12.803-6.155c11.338,1.865,2.879,14.116,8.474,17.566
		c-8.435,2.444-7.386-4.587-5.515-10.319c-12.228-12.067-12.853,13.132-1.203,15.415c6.805,5.178,13.93,7.965,21.649,8.516
		c4.384,1.411,4.651-0.803,9.335-0.824c1.925-0.379,3.863-1.003,5.876-1.319c0.015,0.114,0.217,0.103,0.198-0.032
		c1.486-0.217,3.013-0.262,4.611,0.118C229.611,269.07,229.134,268.677,229.016,269.667z M223.707,271.777
		C223.664,271.794,223.667,271.793,223.707,271.777L223.707,271.777z M224.093,271.624c0.083-0.033,0.176-0.07,0.278-0.11
		C224.266,271.554,224.172,271.592,224.093,271.624z M224.762,271.358c0.021-0.009,0.041-0.017,0.063-0.025
		C224.803,271.341,224.783,271.349,224.762,271.358z M225.583,271.031c0.514-0.204,1.065-0.423,1.575-0.625
		C226.544,270.65,226.019,270.858,225.583,271.031z M228.155,270.009c0.122-0.048,0.236-0.094,0.337-0.134
		C228.379,269.92,228.263,269.966,228.155,270.009z M268.355,271.105c0.211-0.158,0.432-0.325,0.676-0.508
		C269.371,270.492,269.062,270.733,268.355,271.105z M270.287,259.667c-5.081-0.482-2.526,2.729-1.34,6.139
		c1.049,1.702-0.025-0.107,0.708,2.337c1.585-0.137-0.423,1.871-2.061,3.336c-2.883,1.339-8.918,3.315-11.085-0.343
		c-2.609-3.555-10.845,5.699-10.418-4.414c5.668-5.711-1.489-5.578-3.535-3.411c-1.3-3.54-10.816,9.192-1.115,1.788
		c0.156,2.221-5.538,4.791-6.006,3.689c-4.791-0.898-3.586-7.063-11.916-4.641c-5.742-3.277-0.602-10.254,2.256-3.463
		c1.044,3.711,18.538-7.594,17.952-2.793c-0.772,2.008,9.718-6.127,6.481,1.465c11.664-4.932,4.225,6.211,7.531,10.253
		c12.407,5.735,3.563-10.189,9.098-12.018C267.421,255.976,272.293,259.82,270.287,259.667z M266.804,236.164
		c1.609-2.988-5.736,12.946-6.256,3.744c5.416-10.234,8.511-22.15,7.976-33.925c0.136-6.15-1.178-10.36-2.323-15.97
		c-2.633-6.022-3.835-20.929,3.137-8.219c2.357,8.795,3.464,21.552,2.662,28.697C272.701,218.335,266.984,234.031,266.804,236.164z
		 M272.27,213.519c-0.011-0.126-0.024-0.271-0.038-0.43C272.248,213.262,272.259,213.4,272.27,213.519z M272.187,212.595
		c-0.002-0.029-0.005-0.058-0.007-0.086C272.182,212.538,272.185,212.567,272.187,212.595z M272.139,212.055
		c-0.009-0.1-0.018-0.196-0.026-0.292C272.123,211.868,272.13,211.958,272.139,212.055z M272.088,211.483
		c-0.026-0.292-0.049-0.547-0.065-0.726C272.046,211.017,272.068,211.259,272.088,211.483z M272.01,210.617
		c-0.002-0.025-0.004-0.047-0.005-0.064C272.007,210.575,272.008,210.594,272.01,210.617z M272.306,213.918
		C272.313,213.998,272.312,213.99,272.306,213.918L272.306,213.918z M272.291,213.751c0.004,0.037,0.007,0.068,0.009,0.095
		C272.297,213.818,272.294,213.788,272.291,213.751z"/>
	<path d="M30.854,199.912c-0.729-0.178-1.469-0.165-2.206-0.043C28.367,200.059,29.008,200.323,30.854,199.912z"/>
	<path d="M71.223,36.505C71.996,36.961,71.528,36.547,71.223,36.505L71.223,36.505z"/>
	<path d="M50.328,28.768c-0.689-0.088-1.54,0.145-2.537,0.877c-0.078-0.016-0.156-0.031-0.234-0.046
		c-0.013,0.076-0.016,0.154-0.008,0.234c-0.066,0.052-0.129,0.095-0.196,0.152l0.371,0.64c1.649,1.929,2.841,2.572,3.618,2.522
		c1.935,1.708,3.947,2.191,0.995-2.906c-0.284-0.462-0.552-0.934-0.841-1.394C51.027,28.772,50.649,28.753,50.328,28.768z"/>
	<path d="M97.029,23.371c0.05-0.019,0.106-0.032,0.152-0.053c0.028-0.011,0.057-0.021,0.083-0.033
		c0.152-0.074,0.285-0.16,0.393-0.263C91.576,20.883,94.98,23.953,97.029,23.371z"/>
	<path d="M89.793,210.562c0.018-3.749-4.204-3.258-3.271-1.561c0.751,0.819,1.796,1.527,3.243,2.082c0-0.002,0-0.005,0-0.007
		c0,0.001,0,0.002,0,0.004C90.088,207.831,89.875,209.496,89.793,210.562z"/>
	<path d="M255.047,122.836c0.049,0.046-0.035,0.119-0.421,0.221C253.881,129.483,264.984,117.611,255.047,122.836z"/>
	<path d="M254.626,123.057c0.149-0.081,0.279-0.146,0.421-0.221C254.922,122.719,253.901,122.787,254.626,123.057z"/>
	<path d="M207.535,209.996l0.475,0.596c1.809,1.485-1.94-3.868,0.592-3.379C203.569,205.716,202.893,209.346,207.535,209.996z"/>
	<path d="M190.708,23.531c0.008,0.092,0.02,0.195,0.038,0.313c0.058-0.056,0.102-0.11,0.153-0.166
		c0.136,0.106,0.267,0.209,0.417,0.32c0.124-0.177,0.051-0.484-0.08-0.726C193.84,19.668,184.345,18.487,190.708,23.531z"/>
	<path d="M188.158,25.653C187.932,23.331,180.572,19.641,188.158,25.653L188.158,25.653z"/>
	<path d="M177.496,262.898c-1.318-5.033-8.186,4.354-0.293,5.002C180.858,268.83,180.339,260.357,177.496,262.898z"/>
	<path d="M175.328,251.395l-0.004,0.046c3.426-0.785-1.847-11.939-0.836-1.448L175.328,251.395z"/>
	<path d="M157.184,84.491c-5.526-2.586,5.991,4.335,3.278-1.285C158.78,84.512,157.359,83.989,157.184,84.491z"/>
	<path d="M123.032,47.69c1.496,1.679,10.804,3.164,7.747-2.657c0.01-9.105-3.354,1.493-7.773,1.906
		c0.611,0.08-0.014,0.779-0.123,0.895C122.906,47.811,122.953,47.765,123.032,47.69L123.032,47.69z"/>
	<path d="M113.416,89.473c-3.85,4.973-13.02,14.608-2.535,5.842C113.077,92.646,117.342,85.082,113.416,89.473z"/>
	<path d="M98.137,100.589c-1.885,1.267-2.47,1.881-2.568,2.157c-0.064-0.002-0.124-0.005-0.209-0.003
		c-3.56,2.95-14.243,10.05-4.923,6.006c11.724-6.212,17.673-18.308,24.06-29.265C106.253,84.41,105.708,94.801,98.137,100.589z"/>
	<path d="M105.663,59.171c3.892,11.66-0.077-14.794-0.433-2.81C106.297,59.858,106.433,58.337,105.663,59.171z"/>
	<path d="M95.331,65.673l0.028,0.269c7.049-0.129-1.579-4.039-0.707-1.407C94.75,64.829,94.96,65.201,95.331,65.673z"/>
	<path d="M93.592,210.496c-4.251,2.985,1.066,15.633-0.294,5.887C92.544,214.447,98.746,210.395,93.592,210.496z"/>
	<path d="M73.453,84.074l0.12,0.121C76.076,75.902,68.966,83.715,73.453,84.074z"/>
	<path d="M26.275,91.758c2.408-1.15-4.785-12.681-1.037-1.752L26.275,91.758z"/>
	<path d="M14.136,66.379C18.009,72.644,18.546,58.521,14.136,66.379L14.136,66.379z"/>
	<path d="M13.221,62.705c10.448-1.643-3.36-4.402,0.672-0.393C13.646,62.294,13.245,62.559,13.221,62.705z"/>
	<path d="M254.323,93.528c1.106,2.58,2.419,0.237,0.896-2.267C251.816,87.491,252.589,99.105,254.323,93.528z"/>
	<path d="M192.216,201.957c1.537-5.75-8.224-8.411-1.176-1.179C191.5,203.219,191.881,200.994,192.216,201.957z"/>
	<path d="M99.775,87.729c-3.221,1.264,2.44,3.286,1.214,0.036C104.364,84.527,98.508,83.848,99.775,87.729z"/>
	<path d="M183.719,37.941c-4.593,3.505-4.011-7.715-3.872,0.388C181.919,42.105,190.128,36.521,183.719,37.941z"/>
	<path d="M131.866,146.02c2.676,7.656,1.871,5.058,3.332-0.566c3.825-3.571,13.36-4.891,15.213-8.263
		C144.339,138.003,136.553,140.169,131.866,146.02z"/>
	<path d="M64.741,106.571c4.917-0.803,8.737-6.963,8.403-10.185C72.756,94.182,61.494,109.187,64.741,106.571z"/>
	<path d="M99.186,71.241c1.084-1.1-2.007-1.695-0.295-1.766c-8.967-0.406-3.182-0.024-0.687,0.005
		c-8.828,0.347-0.242,16.09-5.048,22.678c-2.366,10.873-13.325,15.922-19.582,22.949c10.479-3.145,16.288-11.86,20.914-20.228
		C96.646,87.301,97.087,78.954,99.186,71.241z"/>
</g>
</svg>
