<?xml version="1.0" encoding="utf-8"?>
<!-- Generator: Adobe Illustrator 15.1.0, SVG Export Plug-In . SVG Version: 6.00 Build 0)  -->
<!DOCTYPE svg PUBLIC "-//W3C//DTD SVG 1.1//EN" "http://www.w3.org/Graphics/SVG/1.1/DTD/svg11.dtd">
<svg version="1.1" id="Layer_1" xmlns="http://www.w3.org/2000/svg" xmlns:xlink="http://www.w3.org/1999/xlink" x="0px" y="0px"
	 width="283.46px" height="283.46px" viewBox="0 0 283.46 283.46" enable-background="new 0 0 283.46 283.46" xml:space="preserve">
<path d="M141.73,260.623c74.369,0,134.646-48.675,134.646-108.703c0-37.229-23.08-70.105-58.56-89.607
	c-14.431-8.023-25.774-15.226-35.222-21.207c-17.773-11.299-28.747-18.267-40.865-18.267c-12.309,0-26.188,8.808-44.5,20.432
	c-10.32,6.692-20.858,13.042-31.597,19.041C30.165,81.813,7.084,114.689,7.084,151.917c0,60.029,60.276,108.692,134.646,108.692
	V260.623z M126.01,59.989c3.748-8.516,5.644-17.728,5.588-27.03c0-1.627,2.267-2.098,2.581-0.326
	c7.383,31.227-10.121,46.7-23.081,51.883c-1.391,0.539-2.233-1.357-1.156-2.345C116.821,76.01,122.3,68.446,126.01,59.989z
	 M149.102,58.845c-1.067-9.147-4.06-17.965-8.775-25.875v-0.18c-0.774-1.38,0.965-2.951,2.077-1.93
	c22.014,23.687,14.665,45.634,6.238,56.674c-0.921,1.156-2.581-0.033-2.121-1.414C149.292,77.312,150.169,68.017,149.102,58.845z
	 M169.03,52.55c-4.517-7.966-10.684-14.875-18.087-20.264v-0.157c-1.258-0.954-0.271-3.074,1.278-2.446
	c29.116,12.197,31.126,35.681,27.591,49.449c-0.074,0.326-0.271,0.611-0.549,0.796c-0.557,0.392-1.323,0.261-1.719-0.292
	c-0.19-0.27-0.279-0.601-0.246-0.931C176.402,69.504,173.583,60.594,169.03,52.55L169.03,52.55z M111.951,58.845
	c-6.923,6.126-14.385,8.527-23.148,11.22c-1.313,0-2.188-0.875-1.75-2.031c19.658-10.199,26.66-18.502,33.65-31.17
	c0,0,1.739-1.324,2.109,0.954C122.813,41.229,118.896,52.729,111.951,58.845L111.951,58.845z M167.436,184.928
	c-1.592,6.767-5.271,12.862-10.515,17.427c-3.881,3.881-8.977,6.339-14.43,6.956c-5.617-0.531-10.878-2.988-14.889-6.956
	c-5.195-4.583-8.825-10.677-10.379-17.427c-0.104-0.81,0.159-1.625,0.718-2.222c0.564-0.578,1.363-0.862,2.166-0.773h44.489
	c0.795-0.089,1.585,0.202,2.132,0.785C167.291,183.314,167.548,184.121,167.436,184.928L167.436,184.928z M106.195,160.513
	c-8.4,5.706-19.686,4.546-26.75-2.749c-7.134-7.438-8.217-18.806-2.615-27.457c2.323-3.579,5.644-6.351,9.515-8
	c3.864-1.648,8.138-2.079,12.253-1.234c4.106,0.841,7.888,2.928,10.85,5.958c6.067,6.314,7.86,15.602,4.578,23.721
	c-1.595,3.949-4.319,7.34-7.832,9.75L106.195,160.513L106.195,160.513z M201.512,160.569c-8.411,5.675-19.685,4.476-26.716-2.839
	c-3.955-4.12-6.154-9.615-6.139-15.326c0-4.309,1.234-8.528,3.592-12.107c2.321-3.579,5.645-6.362,9.524-8
	c3.871-1.64,8.147-2.063,12.267-1.211c4.117,0.853,7.897,2.939,10.859,5.992c6.051,6.34,7.809,15.644,4.488,23.753
	C207.779,154.781,205.041,158.167,201.512,160.569z"/>
</svg>
