<?xml version="1.0" encoding="UTF-8" standalone="no"?>
<!-- Generator: Adobe Illustrator 15.1.0, SVG Export Plug-In . SVG Version: 6.00 Build 0)  -->

<svg
   version="1.1"
   id="Layer_1"
   x="0px"
   y="0px"
   width="283.465px"
   height="283.465px"
   viewBox="0 0 283.465 283.465"
   enable-background="new 0 0 283.465 283.465"
   xml:space="preserve"
   sodipodi:docname="org-humble-bundle-alt-1.svg"
   inkscape:version="1.4.2 (ebf0e940d0, 2025-05-08)"
   xmlns:inkscape="http://www.inkscape.org/namespaces/inkscape"
   xmlns:sodipodi="http://sodipodi.sourceforge.net/DTD/sodipodi-0.dtd"
   xmlns="http://www.w3.org/2000/svg"
   xmlns:svg="http://www.w3.org/2000/svg"><defs
   id="defs1" /><sodipodi:namedview
   id="namedview1"
   pagecolor="#ffffff"
   bordercolor="#000000"
   borderopacity="0.25"
   inkscape:showpageshadow="2"
   inkscape:pageopacity="0.0"
   inkscape:pagecheckerboard="0"
   inkscape:deskcolor="#d1d1d1"
   inkscape:zoom="2.7657736"
   inkscape:cx="141.7325"
   inkscape:cy="141.7325"
   inkscape:window-width="1920"
   inkscape:window-height="995"
   inkscape:window-x="0"
   inkscape:window-y="0"
   inkscape:window-maximized="1"
   inkscape:current-layer="Layer_1" />
<title
   id="title1">H-Red</title>
<desc
   id="desc1">Created with Sketch.</desc>
<g
   id="Page-1"
   style="fill:#000000">
	<path
   id="H-Red"
   fill="#231F20"
   d="M207.881,224.104c-37.979,0,20.488-215.278,20.488-215.278l-39.135-0.05   c0,0-16.021,50.669-26.592,106.972h-33.729c0.885-11.578,1.311-23.295,1.117-34.943C128.51-11.884,74.221,5.285,49.92,26.557   C26.813,46.781,7.461,85.201,7.088,114.789c3.68-0.18,18.223-0.242,18.223-0.242s12.092-55.168,50.068-55.168   c37.971,0-20.584,215.282-20.584,215.282l39.152,0.029c0,0,20.236-57.635,30.299-121.994l32.207-0.186   c-1.875,16.654-2.473,35.047-2.197,52.127c1.525,92.689,55.604,72.799,79.906,51.529c24.303-21.273,42.438-66.193,42.213-87.762   c0.029-0.025-18.459,0.148-18.682,0.145C257.758,170.252,245.852,224.104,207.881,224.104z"
   style="fill:#000000" />
</g>
</svg>
