<?xml version="1.0" encoding="utf-8"?>
<!-- Generator: Adobe Illustrator 15.1.0, SVG Export Plug-In . SVG Version: 6.00 Build 0)  -->
<!DOCTYPE svg PUBLIC "-//W3C//DTD SVG 1.1//EN" "http://www.w3.org/Graphics/SVG/1.1/DTD/svg11.dtd">
<svg version="1.1"
	 id="svg14662" xmlns:sodipodi="http://inkscape.sourceforge.net/DTD/sodipodi-0.dtd" sodipodi:docname="Wikipedia&apos;s W.svg" inkscape:version="0.43" xmlns:svg="http://www.w3.org/2000/svg" xmlns:cc="http://web.resource.org/cc/" xmlns:inkscape="http://www.inkscape.org/namespaces/inkscape" xmlns:rdf="http://www.w3.org/1999/02/22-rdf-syntax-ns#" xmlns:dc="http://purl.org/dc/elements/1.1/" sodipodi:docbase="D:\var\mediawiki\svg\Inkscape" sodipodi:version="0.32"
	 xmlns="http://www.w3.org/2000/svg" xmlns:xlink="http://www.w3.org/1999/xlink" x="0px" y="0px" width="283.465px"
	 height="283.465px" viewBox="0 0 283.465 283.465" enable-background="new 0 0 283.465 283.465" xml:space="preserve">
<sodipodi:namedview  id="base" inkscape:zoom="7.453125" bordercolor="#666666" borderopacity="1.0" inkscape:cx="64.636948" pagecolor="#ffffff" inkscape:cy="75.677942" inkscape:window-width="1045" inkscape:window-x="57" inkscape:pageshadow="2" inkscape:window-height="978" inkscape:pageopacity="0.0" inkscape:current-layer="svg14662" inkscape:window-y="0">
	</sodipodi:namedview>
<rect x="7.059" y="15.292" fill="none" width="269.292" height="252.844"/>
<g transform="matrix(1.451231002808, 0, 0, 1.451231002808, -0.053854331374, -2.645e-9)">
	<path d="M161.202,47.205c0,0,4.666,5,11.185,5c5.149,0,8.889-3.111,8.889-7.37c0-5.223-4.778-7.63-10.556-7.63h-3.408l-2.037-4.593
		l9.037-10.704c1.926-2.296,3.556-3.741,3.556-3.741s-1.445,0.074-4.37,0.074h-14.705v-7.704h30.112v5.63l-12.074,13.963
		c6.815,0.963,13.482,5.815,13.482,14.371c0,8.408-6.371,16.186-17.371,16.186c-10.482,0-16.297-6.593-16.297-6.593L161.202,47.205z
		"/>
	<path d="M102.459,57.613l39.779,70.817l19.63-35.001l-37.557-66.854H80.607l-18.112,32.26l-18.111-32.26H5.086L62.273,128.43
		l0.222-0.37l0.223,0.37L102.459,57.613z"/>
	<path d="M5.493,176.43h5.815c0,1.704,1.481,3.334,4.111,3.334c2.444,0,4.074-1.223,4.074-2.853c0-1.408-1.074-2.037-2.926-2.444
		l-3.333-0.853c-5.63-1.482-7.074-4.482-7.074-7.667c0-3.889,3.852-7.445,9.297-7.445c4.445,0,9.482,2.26,9.408,7.815h-5.889
		c0-1.704-1.556-2.778-3.334-2.778c-1.926,0-3.259,1.111-3.259,2.667c0,1.297,1.222,2.037,2.667,2.37l4,1.075
		c5.63,1.445,6.63,4.963,6.63,7.259c0,5.074-5.074,7.852-10.149,7.852C10.605,184.764,5.605,181.764,5.493,176.43z"/>
	<path d="M30.828,171.615c0-7.926,6.371-13.112,13.593-13.112c4.334,0,7.852,1.927,10.149,4.815l-4.371,3.481
		c-1.296-1.555-3.407-2.518-5.667-2.518c-4.333,0-7.445,3.111-7.445,7.333c0,4.185,3.111,7.37,7.445,7.37
		c2.26,0,4.371-0.962,5.667-2.518l4.371,3.482c-2.296,2.888-5.815,4.814-10.149,4.814C37.198,184.764,30.828,179.541,30.828,171.615
		z"/>
	<path d="M84.496,170.097v14h-6.222v-13.555c0-4.001-2.407-6.148-5.185-6.148c-2.853,0-6.371,1.667-6.371,6.519v13.223h-6.222
		v-38.594h6.259v17.371c1.222-3.038,5.26-4.445,7.741-4.445C80.94,158.504,84.496,162.839,84.496,170.097z"/>
	<path d="M91.014,171.615c0-7.926,6.148-13.112,13.26-13.112c7.111,0,13.333,5.186,13.333,13.112
		c0,7.926-6.222,13.148-13.333,13.148C97.163,184.764,91.014,179.541,91.014,171.615z M111.348,171.615
		c0-4.296-3.223-7.333-7.074-7.333c-3.852,0-7,3.038-7,7.333c0,4.37,3.149,7.37,7,7.37
		C108.126,178.986,111.348,175.985,111.348,171.615z"/>
	<path d="M122.905,171.615c0-7.926,6.148-13.112,13.259-13.112s13.333,5.186,13.333,13.112c0,7.926-6.222,13.148-13.333,13.148
		C129.09,184.764,122.905,179.541,122.905,171.615z M143.239,171.615c0-4.296-3.223-7.333-7.074-7.333c-3.852,0-7,3.038-7,7.333
		c0,4.37,3.148,7.37,7,7.37C140.053,178.986,143.239,175.985,143.239,171.615z"/>
	<path d="M156.387,184.135v-38.594h6.222v38.594H156.387z"/>
	<path d="M169.388,176.43h5.815c0,1.704,1.482,3.334,4.112,3.334c2.444,0,4.074-1.223,4.074-2.853c0-1.408-1.074-2.037-2.926-2.444
		l-3.333-0.853c-5.63-1.482-7.074-4.482-7.074-7.667c0-3.889,3.852-7.445,9.296-7.445c4.444,0,9.481,2.26,9.407,7.815h-5.926
		c0-1.704-1.556-2.778-3.334-2.778c-1.926,0-3.26,1.111-3.26,2.667c0,1.297,1.223,2.037,2.667,2.37l4,1.075
		c5.63,1.445,6.63,4.963,6.63,7.259c0,5.074-5.074,7.852-10.148,7.852C174.461,184.764,169.499,181.764,169.388,176.43z"/>
</g>
</svg>
