<?xml version="1.0" encoding="UTF-8" standalone="no"?>
<svg
   version="1.1"
   id="Layer_3"
   x="0px"
   y="0px"
   width="283.46px"
   height="283.46px"
   viewBox="0 0 283.46 283.46"
   enable-background="new 0 0 283.46 283.46"
   xml:space="preserve"
   sodipodi:docname="os-nixos.svg"
   inkscape:version="1.4.2 (ebf0e940d0, 2025-05-08)"
   xmlns:inkscape="http://www.inkscape.org/namespaces/inkscape"
   xmlns:sodipodi="http://sodipodi.sourceforge.net/DTD/sodipodi-0.dtd"
   xmlns="http://www.w3.org/2000/svg"
   xmlns:svg="http://www.w3.org/2000/svg"><defs
   id="defs15" /><sodipodi:namedview
   id="namedview13"
   pagecolor="#ffffff"
   bordercolor="#000000"
   borderopacity="0.25"
   inkscape:showpageshadow="2"
   inkscape:pageopacity="0.0"
   inkscape:pagecheckerboard="0"
   inkscape:deskcolor="#d1d1d1"
   showgrid="false"
   inkscape:zoom="0.74084529"
   inkscape:cx="207.19576"
   inkscape:cy="156.5779"
   inkscape:window-width="1920"
   inkscape:window-height="995"
   inkscape:window-x="0"
   inkscape:window-y="0"
   inkscape:window-maximized="1"
   inkscape:current-layer="g869" />

<g
   transform="matrix(0.5368774,0,0,0.5368774,-76.929364,526.00349)"
   id="g869"
   style="stroke-width:11.0512;fill:#000000"><path
     id="path3336-6"
     style="opacity:1;fill:#000000;fill-opacity:1;fill-rule:evenodd;stroke:none;stroke-width:33.1535;stroke-linecap:butt;stroke-linejoin:round;stroke-miterlimit:4;stroke-dasharray:none;stroke-opacity:1"
     d="m 439.24641,-933.32683 -56.15517,0.5275 122.1946,211.67324 28.05575,-48.88293 -33.23253,-57.82497 46.81294,-80.48931 -14.29345,-24.69067 -27.89932,-0.0109 -32.85782,56.56625 z m -129.24491,0.0509 -28.52869,0.0327 -13.96239,24.15953 32.55951,56.73723 -65.55922,-0.1819 -27.62284,48.89385 244.41466,0.0146 -28.30677,-48.73741 -66.69427,-0.13461 z m 273.12159,87.64513 -122.22006,211.66232 56.35889,-0.14552 33.46537,-57.69037 93.11294,0.29468 14.23523,-24.71977 -13.94056,-24.17044 -65.41735,-0.17098 32.93786,-56.68994 z m -229.47001,48.04984 -56.35889,0.14552 -33.46173,57.69036 -93.11294,-0.29103 -14.23524,24.71977 13.94057,24.17044 65.4137,0.17098 -32.93786,56.6863 28.53597,48.36999 z m -44.10632,87.19039 -28.05212,48.88293 33.22889,57.82497 -46.8093,80.48931 14.28981,24.69066 27.90296,0.0109 32.85782,-56.56625 32.62136,56.87185 56.1588,-0.5275 z m 53.48128,82.00996 28.30677,48.73377 66.69425,0.13825 46.3,80.78398 28.52869,-0.0327 13.96239,-24.15953 -32.55952,-56.73723 65.56286,0.18189 27.6192,-48.89748 z" /></g></svg>
