<?xml version="1.0" encoding="utf-8"?>
<!-- Generator: Adobe Illustrator 15.1.0, SVG Export Plug-In . SVG Version: 6.00 Build 0)  -->
<!DOCTYPE svg PUBLIC "-//W3C//DTD SVG 1.1//EN" "http://www.w3.org/Graphics/SVG/1.1/DTD/svg11.dtd">
<svg version="1.1" id="Layer_2" xmlns="http://www.w3.org/2000/svg" xmlns:xlink="http://www.w3.org/1999/xlink" x="0px" y="0px"
	 width="283.46px" height="283.46px" viewBox="0 0 283.46 283.46" enable-background="new 0 0 283.46 283.46" xml:space="preserve">
<g>
	<path d="M233.557,48.234C186.207-0.351,111.095-3.284,69.035,33.449c-42.061,36.734-41.088,98.054-27.15,154.243
		c13.938,56.188,64.15,102.506,112.477,87.45c30.502-9.503,1.788-42.467,1.502-55.432c-0.372-17.057,19.808-26.731,41.025-22.521
		c20.585,4.086,42.563-35.544,49.983-49.681C264.179,114.544,264.091,79.612,233.557,48.234z M85.693,143.042
		c-8.891,7.725-22.36,6.779-30.085-2.111c-7.726-8.891-6.781-22.36,2.11-30.086c8.891-7.726,22.361-6.78,30.085,2.111
		C95.529,121.844,94.584,135.314,85.693,143.042z M90.986,65.883c-7.726-8.891-6.781-22.362,2.11-30.087
		c8.89-7.725,22.36-6.78,30.085,2.11c7.726,8.891,6.781,22.361-2.109,30.086C112.181,75.718,98.711,74.773,90.986,65.883z
		 M139.79,256.206c-7.231,6.286-18.19,5.514-24.477-1.717c-6.286-7.231-5.514-18.19,1.717-24.477
		c7.229-6.285,18.191-5.514,24.476,1.716C147.792,238.96,147.021,249.92,139.79,256.206z M171.826,70.882
		c-7.726-8.89-6.781-22.36,2.11-30.086c8.892-7.725,22.358-6.781,30.084,2.11c7.726,8.892,6.782,22.36-2.108,30.086
		S179.548,79.773,171.826,70.882z M230.085,143.041c-8.892,7.726-22.36,6.781-30.086-2.111c-7.726-8.89-6.78-22.359,2.11-30.085
		c8.89-7.725,22.359-6.78,30.084,2.11C239.921,121.843,238.976,135.313,230.085,143.041z"/>
</g>
</svg>
