<?xml version="1.0" encoding="utf-8"?>
<!-- Generator: Adobe Illustrator 15.1.0, SVG Export Plug-In . SVG Version: 6.00 Build 0)  -->
<!DOCTYPE svg PUBLIC "-//W3C//DTD SVG 1.1//EN" "http://www.w3.org/Graphics/SVG/1.1/DTD/svg11.dtd">
<svg version="1.1" id="Layer_1" xmlns:svg="http://www.w3.org/2000/svg"
	 xmlns="http://www.w3.org/2000/svg" xmlns:xlink="http://www.w3.org/1999/xlink" x="0px" y="0px" width="283.46px"
	 height="283.46px" viewBox="0 0 283.46 283.46" enable-background="new 0 0 283.46 283.46" xml:space="preserve">
<g id="g3" transform="translate(-260.34554,-392.49063)">
	<g id="g2" transform="matrix(-0.06463,-0.02918,0.02918,-0.06463,408.63,540.73)">
		<path id="path1" fill-opacity="0.851" d="M-633.998,2061.708c44.89,113.683,80.563,203.37,24.882,323.582
			c-5.618,11.92-5.334,25.602,0.662,35.905c3.683,6.383,9.195,10.86,15.626,12.656c3.728,1.128,7.835,1.29,11.802,0.572
			c186.243-34.746,437.652-247.075,550.398-631.722c50.992-174.539,59.561-328.986,24.547-446.328
			c-9.232-30.555-21.202-58.271-35.694-83.241l-347.748-103.793c-16.779,7.984-33.358,17.615-49.222,28.796
			c-77.119,53.721-182.496,169.55-245.485,414.94C-734.556,1808.097-681.201,1942.905-633.998,2061.708"/>
		<path id="path2" fill-opacity="0.851" d="M-6.443,1027.092c73.876-199.89,153.588-424.271,198.49-577.83
			c89.752-306.678,643.95-2419.073,667.522-2508.831c37.6-143.024,23.077-266.655-33.049-283.17
			c-56.125-16.212-134.975,80.009-180.419,220.803C617.543-2033.432-54.627,48.426-143.129,351.329
			c-44.225,151.508-97.769,382.176-143.204,590.41l279.938,85.461"/>
	</g>
</g>
</svg>
