<?xml version="1.0" encoding="UTF-8" standalone="no"?>
<svg
   version="1.1"
   id="Layer_3"
   x="0px"
   y="0px"
   width="283.46px"
   height="283.46px"
   viewBox="0 0 283.46 283.46"
   enable-background="new 0 0 283.46 283.46"
   xml:space="preserve"
   sodipodi:docname="payment.svg"
   inkscape:version="1.4.2 (ebf0e940d0, 2025-05-08)"
   xmlns:inkscape="http://www.inkscape.org/namespaces/inkscape"
   xmlns:sodipodi="http://sodipodi.sourceforge.net/DTD/sodipodi-0.dtd"
   xmlns="http://www.w3.org/2000/svg"
   xmlns:svg="http://www.w3.org/2000/svg"><defs
   id="defs15" /><sodipodi:namedview
   id="namedview13"
   pagecolor="#ffffff"
   bordercolor="#000000"
   borderopacity="0.25"
   inkscape:showpageshadow="2"
   inkscape:pageopacity="0.0"
   inkscape:pagecheckerboard="0"
   inkscape:deskcolor="#d1d1d1"
   showgrid="false"
   inkscape:zoom="1.0477135"
   inkscape:cx="290.15567"
   inkscape:cy="230.97919"
   inkscape:window-width="1920"
   inkscape:window-height="995"
   inkscape:window-x="0"
   inkscape:window-y="0"
   inkscape:window-maximized="1"
   inkscape:current-layer="layer1" />

<g
   inkscape:groupmode="layer"
   id="layer1"
   inkscape:label="Layer 1"
   style="display:inline"><path
     id="path3"
     style="display:inline;fill:#000000;fill-opacity:1;stroke:none;stroke-width:4.2077;stroke-opacity:1"
     d="m 23.913589,40.745623 c -9.303231,0 -16.8300779,7.526843 -16.8300779,16.83008 V 225.88429 c 0,9.30324 7.5268469,16.83008 16.8300779,16.83008 H 259.54445 c 9.30323,0 16.83203,-7.52684 16.83203,-16.83008 V 57.575703 c 0,-9.303237 -7.5288,-16.83008 -16.83203,-16.83008 z M 15.497574,91.237811 H 267.96046 V 124.89797 H 15.497574 Z m 37.871092,75.738279 h 58.906254 c 2.32686,0 4.20898,1.88017 4.20898,4.20703 0,2.32686 -1.88212,4.20899 -4.20898,4.20899 H 53.368666 c -2.32686,0 -4.208983,-1.88213 -4.208983,-4.20899 0,-2.32686 1.882123,-4.20703 4.208983,-4.20703 z m 75.738284,0 h 25.24609 c 2.32686,0 4.20703,1.88017 4.20703,4.20703 0,2.32686 -1.88017,4.20899 -4.20703,4.20899 h -25.24609 c -2.32686,0 -4.20898,-1.88213 -4.20898,-4.20899 0,-2.32686 1.88212,-4.20703 4.20898,-4.20703 z m 67.32226,0 h 33.66212 c 2.32686,0 4.20703,1.88017 4.20703,4.20703 v 25.2461 c 0,2.32686 -1.88017,4.20898 -4.20703,4.20898 h -33.66212 c -2.32686,0 -4.20703,-1.88212 -4.20703,-4.20898 v -25.2461 c 0,-2.32686 1.88017,-4.20703 4.20703,-4.20703 z m -143.060544,25.2461 h 42.076173 c 2.32686,0 4.20703,1.88017 4.20703,4.20703 0,2.32686 -1.88017,4.20898 -4.20703,4.20898 H 53.368666 c -2.32686,0 -4.208983,-1.88212 -4.208983,-4.20898 0,-2.32686 1.882123,-4.20703 4.208983,-4.20703 z" /></g></svg>
