<?xml version="1.0" encoding="UTF-8" standalone="no"?>
<svg
   version="1.1"
   id="Layer_3"
   x="0px"
   y="0px"
   width="283.46px"
   height="283.46px"
   viewBox="0 0 283.46 283.46"
   enable-background="new 0 0 283.46 283.46"
   xml:space="preserve"
   sodipodi:docname="payment-cash.svg"
   inkscape:version="1.4.2 (ebf0e940d0, 2025-05-08)"
   xmlns:inkscape="http://www.inkscape.org/namespaces/inkscape"
   xmlns:sodipodi="http://sodipodi.sourceforge.net/DTD/sodipodi-0.dtd"
   xmlns="http://www.w3.org/2000/svg"
   xmlns:svg="http://www.w3.org/2000/svg"><defs
   id="defs15" /><sodipodi:namedview
   id="namedview13"
   pagecolor="#ffffff"
   bordercolor="#000000"
   borderopacity="0.25"
   inkscape:showpageshadow="2"
   inkscape:pageopacity="0.0"
   inkscape:pagecheckerboard="0"
   inkscape:deskcolor="#d1d1d1"
   showgrid="false"
   inkscape:zoom="0.74084529"
   inkscape:cx="140.38019"
   inkscape:cy="94.486665"
   inkscape:window-width="1920"
   inkscape:window-height="995"
   inkscape:window-x="0"
   inkscape:window-y="0"
   inkscape:window-maximized="1"
   inkscape:current-layer="Layer_3" />

<g
   style="fill:#000000"
   id="g16"
   transform="matrix(7.098375,0,0,7.098375,28.155996,28.155996)"><path
     d="M 0,25 V 7 H 32 V 25 Z M 2,8.938 V 23 H 30 V 8.938 Z M 21,16 c 0,-3.313 -2.238,-6 -5,-6 H 29 V 22 H 16 c 2.762,0 5,-2.687 5,-6 z m 4,2 c 0.828,0 1.5,-0.896 1.5,-2 0,-1.104 -0.672,-2 -1.5,-2 -0.828,0 -1.5,0.896 -1.5,2 0,1.104 0.672,2 1.5,2 z m -6.882,-4.522 c -0.015,0.055 -0.036,0.094 -0.062,0.119 -0.027,0.025 -0.063,0.037 -0.109,0.037 -0.046,0 -0.118,-0.028 -0.219,-0.086 -0.1,-0.059 -0.223,-0.121 -0.368,-0.189 -0.146,-0.068 -0.314,-0.13 -0.506,-0.187 -0.192,-0.057 -0.402,-0.083 -0.631,-0.083 -0.18,0 -0.336,0.021 -0.469,0.065 -0.133,0.044 -0.245,0.104 -0.334,0.18 -0.09,0.077 -0.156,0.17 -0.2,0.277 -0.044,0.107 -0.065,0.222 -0.065,0.342 0,0.18 0.049,0.335 0.147,0.466 0.098,0.131 0.229,0.248 0.394,0.35 0.165,0.103 0.351,0.198 0.56,0.287 0.207,0.09 0.42,0.185 0.637,0.284 0.217,0.101 0.429,0.214 0.637,0.341 0.208,0.127 0.395,0.279 0.557,0.456 0.162,0.177 0.293,0.385 0.394,0.624 0.1,0.24 0.149,0.521 0.149,0.847 0,0.425 -0.078,0.797 -0.236,1.118 -0.158,0.321 -0.373,0.588 -0.645,0.802 -0.271,0.215 -0.587,0.376 -0.949,0.484 -0.046,0.014 -0.096,0.02 -0.143,0.031 v 1.092 h -0.983 v -0.963 c -0.013,0 -0.024,0.002 -0.036,0.002 -0.279,0 -0.539,-0.022 -0.778,-0.067 -0.239,-0.045 -0.451,-0.101 -0.634,-0.164 -0.184,-0.064 -0.336,-0.131 -0.459,-0.201 -0.123,-0.07 -0.211,-0.132 -0.265,-0.186 -0.054,-0.054 -0.093,-0.132 -0.116,-0.234 -0.023,-0.103 -0.035,-0.249 -0.035,-0.441 0,-0.129 0.004,-0.237 0.013,-0.325 0.009,-0.088 0.022,-0.158 0.041,-0.213 0.019,-0.055 0.043,-0.093 0.075,-0.116 0.031,-0.022 0.067,-0.034 0.109,-0.034 0.058,0 0.14,0.034 0.247,0.103 0.107,0.069 0.243,0.145 0.409,0.228 0.167,0.084 0.365,0.159 0.597,0.229 0.231,0.068 0.499,0.103 0.803,0.103 0.2,0 0.379,-0.024 0.537,-0.072 0.158,-0.048 0.293,-0.115 0.403,-0.203 0.11,-0.088 0.194,-0.196 0.253,-0.325 0.059,-0.13 0.088,-0.273 0.088,-0.433 0,-0.183 -0.051,-0.34 -0.15,-0.472 -0.1,-0.131 -0.23,-0.247 -0.391,-0.35 -0.16,-0.102 -0.342,-0.197 -0.546,-0.287 -0.204,-0.09 -0.414,-0.185 -0.631,-0.284 -0.216,-0.1 -0.427,-0.213 -0.631,-0.341 -0.204,-0.128 -0.386,-0.278 -0.546,-0.455 -0.16,-0.177 -0.291,-0.387 -0.39,-0.628 -0.099,-0.241 -0.15,-0.531 -0.15,-0.868 0,-0.388 0.072,-0.728 0.215,-1.021 0.143,-0.293 0.337,-0.537 0.581,-0.73 0.244,-0.193 0.531,-0.338 0.862,-0.434 0.17,-0.05 0.346,-0.085 0.526,-0.109 V 10.81 h 0.983 v 1.034 c 0.039,0.005 0.078,0.003 0.117,0.009 0.191,0.029 0.371,0.068 0.537,0.118 0.167,0.049 0.314,0.104 0.444,0.167 0.129,0.062 0.214,0.113 0.256,0.155 0.042,0.042 0.069,0.076 0.085,0.105 0.014,0.029 0.026,0.068 0.037,0.116 0.011,0.048 0.018,0.108 0.021,0.182 0.004,0.072 0.006,0.163 0.006,0.271 0,0.121 -0.003,0.224 -0.009,0.308 -0.009,0.079 -0.019,0.149 -0.034,0.203 z M 11,16 c 0,3.313 2.238,6 5,6 H 3 V 10 h 13 c -2.762,0 -5,2.687 -5,6 z M 7,14 c -0.829,0 -1.5,0.896 -1.5,2 0,1.104 0.671,2 1.5,2 0.828,0 1.5,-0.896 1.5,-2 0,-1.104 -0.672,-2 -1.5,-2 z"
     id="path1" /></g></svg>
