<?xml version="1.0" encoding="UTF-8" standalone="no"?>
<svg
   version="1.1"
   id="Layer_3"
   x="0px"
   y="0px"
   width="283.46px"
   height="283.46px"
   viewBox="0 0 283.46 283.46"
   enable-background="new 0 0 283.46 283.46"
   xml:space="preserve"
   sodipodi:docname="payment-card.svg"
   inkscape:version="1.4.2 (ebf0e940d0, 2025-05-08)"
   xmlns:inkscape="http://www.inkscape.org/namespaces/inkscape"
   xmlns:sodipodi="http://sodipodi.sourceforge.net/DTD/sodipodi-0.dtd"
   xmlns="http://www.w3.org/2000/svg"
   xmlns:svg="http://www.w3.org/2000/svg"><defs
   id="defs15"></defs><sodipodi:namedview
   id="namedview13"
   pagecolor="#ffffff"
   bordercolor="#000000"
   borderopacity="0.25"
   inkscape:showpageshadow="2"
   inkscape:pageopacity="0.0"
   inkscape:pagecheckerboard="0"
   inkscape:deskcolor="#d1d1d1"
   showgrid="false"
   inkscape:zoom="1.4816906"
   inkscape:cx="272.66152"
   inkscape:cy="130.93152"
   inkscape:window-width="1920"
   inkscape:window-height="995"
   inkscape:window-x="0"
   inkscape:window-y="0"
   inkscape:window-maximized="1"
   inkscape:current-layer="g66" />

<g
   id="g66"
   transform="matrix(0.52596173,0,0,0.52596173,7.0837928,56.352995)">
	<path
   id="path1"
   style="display:inline;fill:#000000"
   d="M 16.276352 0.00098985339 C 7.3363524 0.00098985339 0.00036423753 7.3342645 0.00036423753 16.273265 L 0.00036423753 308.60605 C 0.15336424 317.39405 7.3351194 324.49881 16.046119 324.65181 L 495.64746 324.65181 C 504.58746 324.65181 512.00143 317.31755 512.00143 308.30155 L 512.00143 16.273265 C 512.00143 7.3342645 504.59018 0.00098985339 495.65118 0.00098985339 L 16.276352 0.00098985339 z M 55.787307 95.610816 L 121.83447 95.610816 C 124.81082 95.610816 127.25609 98.05979 127.25609 101.03615 L 127.25609 154.65815 C 127.25609 157.6345 124.81082 160.08348 121.83447 160.08348 L 55.787307 160.08348 C 52.810957 160.08348 50.361978 157.6345 50.361978 154.65815 L 50.361978 101.03615 C 50.361978 98.06026 52.810336 95.610816 55.787307 95.610816 z M 55.787307 98.611272 C 54.446279 98.611272 53.362433 99.69603 53.362433 101.03615 L 53.362433 108.55585 L 67.666587 108.55585 L 57.72572 98.611272 L 55.787307 98.611272 z M 61.424302 98.611272 L 80.299695 117.48666 L 97.31837 117.48666 L 103.63864 111.17011 L 106.2529 108.55585 L 116.19748 98.611272 L 61.424302 98.611272 z M 119.89606 98.611272 L 109.95148 108.55585 L 124.25563 108.55585 L 124.25563 101.03615 C 124.25563 99.69649 123.17412 98.611272 121.83447 98.611272 L 119.89606 98.611272 z M 53.362433 111.17011 L 53.362433 120.54282 L 76.504564 120.54282 L 76.504564 117.48666 L 76.601113 117.48666 L 70.284559 111.17011 L 53.362433 111.17011 z M 107.33722 111.17011 L 101.02067 117.48666 L 101.18406 117.48666 L 101.18406 120.54282 L 124.25563 120.54282 L 124.25563 111.17011 L 107.33722 111.17011 z M 79.103969 120.08236 L 79.103969 135.59709 L 98.510383 135.59709 L 98.510383 120.08236 L 94.76724 120.08236 L 94.763527 120.08607 L 82.925094 120.08607 L 82.921381 120.08236 L 79.103969 120.08236 z M 53.362433 123.16079 L 53.362433 132.53351 L 76.504564 132.53351 L 76.504564 123.16079 L 53.362433 123.16079 z M 101.18406 123.16079 L 101.18406 132.53351 L 124.25563 132.53351 L 124.25563 123.16079 L 101.18406 123.16079 z M 53.362433 135.15148 L 53.362433 144.52048 L 70.288273 144.52048 L 76.612254 138.19649 L 76.504564 138.19649 L 76.504564 135.15148 L 53.362433 135.15148 z M 101.18406 135.15148 L 101.18406 138.19649 L 101.00581 138.19649 L 101.03923 138.2262 L 102.46148 139.64845 L 107.32979 144.52048 L 124.25563 144.52048 L 124.25563 135.15148 L 101.18406 135.15148 z M 80.310835 138.19649 L 61.424302 157.08303 L 116.19748 157.08303 L 106.24918 147.13473 L 103.63492 144.52048 L 97.340651 138.2262 L 97.310944 138.19649 L 80.310835 138.19649 z M 53.362433 147.13473 L 53.362433 154.65815 C 53.362433 155.9978 54.447658 157.08303 55.787307 157.08303 L 57.72572 157.08303 L 67.670301 147.13473 L 53.362433 147.13473 z M 109.94776 147.13473 L 111.4777 148.66467 L 119.89235 157.08303 L 121.83447 157.08303 C 123.17412 157.08303 124.25563 155.9978 124.25563 154.65815 L 124.25563 147.13473 L 109.94776 147.13473 z M 84.425322 181.30948 C 86.519389 181.30948 88.324016 181.83877 89.835798 182.89141 C 91.358744 183.93284 92.52386 185.42137 93.330141 187.35867 C 94.147607 189.28476 94.555574 191.5782 94.555574 194.24338 C 94.555574 196.89736 94.147607 199.18714 93.330141 201.11323 C 92.52386 203.03933 91.358744 204.53158 89.835798 205.58421 C 88.324016 206.62565 86.519389 207.14385 84.425322 207.14385 C 82.331255 207.14385 80.522939 206.62565 78.999993 205.58421 C 77.488232 204.53158 76.323138 203.03933 75.50565 201.11323 C 74.699391 199.18714 74.298783 196.89736 74.298783 194.24338 C 74.298783 191.5782 74.699391 189.28476 75.50565 187.35867 C 76.323138 185.43257 77.488232 183.94404 78.999993 182.89141 C 80.511753 181.83877 82.320069 181.30948 84.425322 181.30948 z M 106.79877 181.30948 C 108.89286 181.30948 110.69749 181.83877 112.20925 182.89141 C 113.73219 183.93284 114.89731 185.42137 115.70359 187.35867 C 116.52106 189.28476 116.92902 191.5782 116.92902 194.24338 C 116.92902 196.89736 116.52106 199.18714 115.70359 201.11323 C 114.89731 203.03933 113.73219 204.53158 112.20925 205.58421 C 110.69749 206.62565 108.89286 207.14385 106.79877 207.14385 C 104.7047 207.14385 102.89639 206.62565 101.37344 205.58421 C 99.861684 204.53158 98.696587 203.03933 97.879099 201.11323 C 97.07284 199.18714 96.672233 196.89736 96.672233 194.24338 C 96.672233 191.5782 97.07284 189.28476 97.879099 187.35867 C 98.696587 185.43257 99.861684 183.94404 101.37344 182.89141 C 102.8852 181.83877 104.69352 181.30948 106.79877 181.30948 z M 129.17222 181.30948 C 131.26629 181.30948 133.07094 181.83877 134.5827 182.89141 C 136.10564 183.93284 137.27076 185.42137 138.07704 187.35867 C 138.89451 189.28476 139.30247 191.5782 139.30247 194.24338 C 139.30247 196.89736 138.89451 199.18714 138.07704 201.11323 C 137.27076 203.03933 136.10564 204.53158 134.5827 205.58421 C 133.07094 206.62565 131.26629 207.14385 129.17222 207.14385 C 127.07813 207.14385 125.26984 206.62565 123.74689 205.58421 C 122.23513 204.53158 121.07373 203.03933 120.25626 201.11323 C 119.44998 199.18714 119.04568 196.89736 119.04568 194.24338 C 119.04568 191.5782 119.44998 189.28476 120.25626 187.35867 C 121.07373 185.43257 122.23513 183.94404 123.74689 182.89141 C 125.25865 181.83877 127.06695 181.30948 129.17222 181.30948 z M 186.21802 181.30948 C 187.93134 181.30948 189.45295 181.62925 190.78554 182.26755 C 192.11814 182.90585 193.16197 183.81368 193.91226 184.9895 C 194.67373 186.15411 195.05228 187.52503 195.05228 189.10398 C 195.05228 190.2686 194.83546 191.33449 194.39872 192.29754 C 193.962 193.26059 193.32982 194.19412 192.50115 195.10118 C 191.68368 195.99704 190.6913 196.9416 189.52669 197.93825 L 184.22019 202.55776 L 184.22019 202.59118 L 195.17111 202.59118 L 195.17111 206.7428 L 177.2315 206.7428 L 177.2315 202.94396 L 186.40369 195.10118 C 187.14277 194.45168 187.80064 193.84157 188.38295 193.27046 C 188.96526 192.69935 189.42103 192.10026 189.74578 191.47316 C 190.08174 190.84605 190.25081 190.14774 190.25081 189.37506 C 190.25081 188.57999 190.08174 187.88899 189.74578 187.30668 C 189.42103 186.71317 188.95423 186.25374 188.34953 185.929 C 187.75604 185.60425 187.04669 185.44254 186.21802 185.44254 C 185.32216 185.44254 184.55034 185.63732 183.90083 186.02926 C 183.26253 186.4212 182.76265 186.98356 182.40432 187.71144 C 182.05717 188.42813 181.88444 189.29552 181.88444 190.31456 L 177.13124 190.31456 C 177.13124 188.50045 177.49877 186.92001 178.23785 185.57622 C 178.98813 184.22123 180.04299 183.17374 181.39798 182.43465 C 182.75297 181.68437 184.35911 181.30948 186.21802 181.30948 z M 207.14694 181.30948 C 208.86028 181.30948 210.37823 181.61457 211.69961 182.21927 C 213.03221 182.81278 214.07235 183.63607 214.82261 184.68871 C 215.58411 185.73014 215.96635 186.93198 215.96635 188.29817 C 215.96635 189.69795 215.52532 190.87774 214.64065 191.84079 C 213.75599 192.79263 212.60554 193.41749 211.19459 193.70864 L 211.19459 193.75692 C 212.3592 193.90249 213.35525 194.2627 214.1839 194.83381 C 215.01258 195.39373 215.64844 196.09204 216.08518 196.93191 C 216.5219 197.77177 216.73875 198.69063 216.73875 199.68727 C 216.73875 201.12065 216.33078 202.40337 215.51331 203.53439 C 214.70705 204.65422 213.58603 205.53629 212.15265 206.18579 C 210.71928 206.82409 209.06904 207.14385 207.19893 207.14385 C 205.11605 207.14385 203.36652 206.75428 201.95556 205.97041 C 200.54458 205.18653 199.47504 204.13903 198.74715 202.82884 C 198.03046 201.51865 197.67397 200.06684 197.67397 198.47669 L 202.61284 198.47669 C 202.61284 199.43974 202.78922 200.27041 203.14757 200.9647 C 203.51711 201.65899 204.03905 202.18822 204.71093 202.55776 C 205.39404 202.9273 206.2063 203.11478 207.14694 203.11478 C 208.04279 203.11478 208.82565 202.96409 209.49755 202.66174 C 210.16945 202.34819 210.69872 201.91081 211.07947 201.35089 C 211.46019 200.79098 211.64762 200.14042 211.64762 199.40134 C 211.64762 198.68465 211.44181 198.06351 211.02748 197.5372 C 210.62434 197.01088 210.05467 196.60292 209.31559 196.31176 C 208.58769 196.02061 207.72396 195.87358 206.72732 195.87358 L 204.49183 195.87358 L 204.49183 192.0933 L 206.72732 192.0933 C 207.63438 192.0933 208.41723 191.96101 209.07793 191.69225 C 209.73862 191.42349 210.24953 191.0486 210.60786 190.56708 C 210.96622 190.07435 211.14631 189.48994 211.14631 188.81805 C 211.14631 188.10136 210.97725 187.47657 210.64128 186.93905 C 210.30534 186.40154 209.83488 185.9862 209.23018 185.69505 C 208.63666 185.4039 207.94201 185.25686 207.14694 185.25686 C 206.32947 185.25686 205.61277 185.41858 204.99686 185.74332 C 204.38095 186.06807 203.89946 186.5275 203.55234 187.12101 C 203.21637 187.71451 203.04731 188.41654 203.04731 189.22281 L 198.17899 189.22281 C 198.17899 187.69985 198.54287 186.34361 199.27074 185.1566 C 200.00982 183.95839 201.04994 183.01748 202.39374 182.33439 C 203.73752 181.6513 205.32163 181.30948 207.14694 181.30948 z M 294.27528 181.30948 C 295.94381 181.30948 297.40664 181.62559 298.66085 182.25269 C 299.92624 182.8798 300.93694 183.73616 301.69844 184.82239 C 302.45991 185.90862 302.9157 187.13988 303.06127 188.51726 L 298.22266 188.51726 C 298.04352 187.53182 297.60613 186.75262 296.91182 186.18151 C 296.21753 185.5992 295.32073 185.30885 294.22329 185.30885 C 293.03629 185.30885 292.05128 185.63227 291.2674 186.28177 C 290.49474 186.93127 289.91768 187.84647 289.53694 189.02229 C 289.15619 190.1869 288.96878 191.55045 288.96878 193.11821 L 289.0022 193.11821 C 289.41655 192.47991 289.92008 191.94331 290.51357 191.50658 C 291.11829 191.06985 291.79455 190.73905 292.54482 190.51509 C 293.29511 190.29112 294.09999 190.18088 294.96227 190.18088 C 296.57481 190.18088 298.00822 190.54474 299.26242 191.27263 C 300.52782 191.98932 301.5202 192.97798 302.23689 194.24338 C 302.96478 195.49758 303.32864 196.93099 303.32864 198.54354 C 303.32864 200.24567 302.9317 201.74894 302.13662 203.04793 C 301.35274 204.33573 300.26481 205.34279 298.87623 206.07067 C 297.48766 206.78736 295.88888 207.14385 294.07475 207.14385 C 292.507 207.14385 291.11032 206.8719 289.88971 206.32318 C 288.68031 205.77447 287.6512 204.97322 286.80013 203.92059 C 285.96025 202.86796 285.31707 201.58523 284.86915 200.07347 C 284.43243 198.55051 284.21187 196.81573 284.21187 194.86724 C 284.21187 192.80676 284.42505 190.94699 284.85058 189.28965 C 285.2873 187.62112 285.9305 186.19136 286.78157 185.00435 C 287.63263 183.80614 288.68749 182.89465 289.9417 182.26755 C 291.19591 181.62925 292.64035 181.30948 294.27528 181.30948 z M 333.3629 181.30948 C 335.08743 181.30948 336.59801 181.59618 337.89701 182.16729 C 339.196 182.7384 340.21044 183.53227 340.93831 184.55131 C 341.66621 185.57035 342.03006 186.75385 342.03006 188.09764 C 342.03006 189.6206 341.55962 190.88128 340.61896 191.87792 C 339.68982 192.85131 338.45004 193.46772 336.89809 193.73092 C 338.0724 193.8809 339.10636 194.23848 339.99881 194.80039 C 340.90587 195.3715 341.61155 196.10289 342.11547 196.99875 C 342.6306 197.88341 342.88787 198.89046 342.88787 200.02148 C 342.88787 201.42126 342.48357 202.65989 341.67729 203.73492 C 340.88221 204.80995 339.76857 205.65164 338.33519 206.25634 C 336.91301 206.84985 335.25539 207.14385 333.3629 207.14385 C 331.4816 207.14385 329.82399 206.84985 328.39061 206.25634 C 326.96842 205.65164 325.85845 204.80995 325.06337 203.73492 C 324.2683 202.65989 323.87136 201.42126 323.87136 200.02148 C 323.87136 198.87926 324.12498 197.86855 324.6289 196.98389 C 325.13282 196.09923 325.8385 195.3715 326.74556 194.80039 C 327.64866 194.23871 328.68723 193.881 329.86113 193.73092 C 328.30973 193.47851 327.06163 192.86587 326.1217 191.89277 C 325.18104 190.89613 324.7106 189.6318 324.7106 188.09764 C 324.7106 186.77625 325.07445 185.60377 325.80235 184.58473 C 326.54143 183.55449 327.56323 182.75696 328.86222 182.18585 C 330.1724 181.60354 331.67195 181.30948 333.3629 181.30948 z M 376.37934 181.30948 C 377.94709 181.30948 379.33639 181.58515 380.54582 182.13386 C 381.76642 182.68258 382.79553 183.48382 383.63539 184.53646 C 384.48646 185.58909 385.13335 186.87547 385.57009 188.39843 C 386.01802 189.91019 386.23851 191.64132 386.23851 193.58981 C 386.23851 195.65029 386.02169 197.51371 385.58495 199.18225 C 385.14823 200.83959 384.50503 202.26934 383.65396 203.46755 C 382.80289 204.65456 381.74439 205.56605 380.47897 206.20435 C 379.22479 206.83145 377.78035 207.14385 376.14539 207.14385 C 374.48807 207.14385 373.02157 206.83145 371.74497 206.20435 C 370.47956 205.57725 369.46514 204.72089 368.70367 203.63466 C 367.9422 202.53723 367.49014 201.30597 367.34455 199.93979 L 372.16459 199.93979 C 372.35499 200.91403 372.79602 201.69323 373.49029 202.27554 C 374.19577 202.85785 375.09995 203.1482 376.19738 203.1482 C 377.38439 203.1482 378.36203 202.82106 379.13471 202.17156 C 379.9186 201.52207 380.50301 200.61058 380.88374 199.43476 C 381.26449 198.25895 381.45189 196.89168 381.45189 195.33513 L 381.41847 195.33513 C 381.00412 195.97343 380.5006 196.50637 379.9071 196.93191 C 379.31359 197.35744 378.64836 197.68086 377.90928 197.90483 C 377.1702 198.11759 376.36158 198.22418 375.48812 198.22418 C 373.88676 198.22418 372.45335 197.86768 371.18796 197.151 C 369.92254 196.42311 368.92651 195.43074 368.19864 194.17654 C 367.48196 192.91114 367.12546 191.47773 367.12546 189.87638 C 367.12546 188.17425 367.51504 186.68206 368.2989 185.39426 C 369.09398 184.10646 370.18928 183.10307 371.57787 182.38638 C 372.97764 181.66969 374.57643 181.30948 376.37934 181.30948 z M 398.48542 181.30948 C 400.57949 181.30948 402.38414 181.83877 403.8959 182.89141 C 405.41884 183.93284 406.58025 185.42137 407.38653 187.35867 C 408.20399 189.28476 408.61567 191.5782 408.61567 194.24338 C 408.61567 196.89736 408.20399 199.18714 407.38653 201.11323 C 406.58025 203.03933 405.41884 204.53158 403.8959 205.58421 C 402.38414 206.62565 400.57949 207.14385 398.48542 207.14385 C 396.39136 207.14385 394.58306 206.62565 393.06009 205.58421 C 391.54833 204.53158 390.38322 203.03933 389.56575 201.11323 C 388.75947 199.18714 388.35517 196.89736 388.35517 194.24338 C 388.35517 191.5782 388.75947 189.28476 389.56575 187.35867 C 390.38322 185.43257 391.54833 183.94404 393.06009 182.89141 C 394.57185 181.83877 396.38015 181.30948 398.48542 181.30948 z M 434.26437 181.30948 C 436.35844 181.30948 438.15938 181.83877 439.67114 182.89141 C 441.1941 183.93284 442.35922 185.42137 443.16548 187.35867 C 443.98295 189.28476 444.39463 191.5782 444.39463 194.24338 C 444.39463 196.89736 443.98295 199.18714 443.16548 201.11323 C 442.35922 203.03933 441.1941 204.53158 439.67114 205.58421 C 438.15938 206.62565 436.35844 207.14385 434.26437 207.14385 C 432.17031 207.14385 430.36201 206.62565 428.83904 205.58421 C 427.32728 204.53158 426.16217 203.03933 425.3447 201.11323 C 424.53842 199.18714 424.13412 196.89736 424.13412 194.24338 C 424.13412 191.5782 424.53842 189.28476 425.3447 187.35867 C 426.16217 185.43257 427.32728 183.94404 428.83904 182.89141 C 430.35081 181.83877 432.1591 181.30948 434.26437 181.30948 z M 62.638596 181.71425 L 65.880425 181.71425 L 68.973717 181.71425 L 68.973717 197.33667 L 72.248967 197.33667 L 72.248967 201.35089 L 68.973717 201.35089 L 68.973717 206.7428 L 64.116543 206.7428 L 64.116543 201.35089 L 51.620832 201.35089 L 51.620832 197.35152 L 62.638596 181.71425 z M 169.33674 181.71425 L 174.0231 181.71425 L 174.0231 206.7428 L 169.05081 206.7428 L 169.05081 186.46744 L 169.01738 186.46744 L 163.13902 190.19573 L 163.13902 185.66163 L 169.33674 181.71425 z M 229.79147 181.71425 L 233.0333 181.71425 L 236.12288 181.71425 L 236.12288 197.33667 L 239.39813 197.33667 L 239.39813 201.35089 L 236.12288 201.35089 L 236.12288 206.7428 L 231.26942 206.7428 L 231.26942 201.35089 L 218.76999 201.35089 L 218.76999 197.35152 L 229.79147 181.71425 z M 264.61236 181.71425 L 280.63583 181.71425 L 280.63583 185.89557 L 269.16132 185.89557 L 268.70828 191.80736 L 268.7417 191.80736 C 269.39118 191.14667 270.14097 190.65417 270.99204 190.32942 C 271.85431 189.99347 272.80625 189.8281 273.84767 189.8281 C 274.97871 189.8281 276.04459 190.04128 277.04123 190.46681 C 278.03788 190.88115 278.91265 191.47287 279.66291 192.24555 C 280.42441 193.00703 281.01611 193.9075 281.44165 194.94893 C 281.87837 195.97917 282.09521 197.10018 282.09521 198.30959 C 282.09521 200.02292 281.7093 201.54453 280.93662 202.87712 C 280.17515 204.19851 279.09456 205.23498 277.69479 205.98526 C 276.30622 206.73553 274.68535 207.11042 272.82648 207.11043 C 271.04599 207.11042 269.46914 206.77597 268.10299 206.10409 C 266.73679 205.4322 265.65256 204.49129 264.8463 203.28188 C 264.04002 202.07247 263.58797 200.66111 263.48719 199.04856 L 268.37407 199.04856 C 268.41885 199.82124 268.63568 200.5159 269.02763 201.1318 C 269.41956 201.73651 269.94515 202.21798 270.60584 202.57633 C 271.26653 202.92347 272.02004 203.09621 272.8599 203.09621 C 273.72217 203.09621 274.47561 202.90142 275.12509 202.50949 C 275.78579 202.10635 276.29667 201.55872 276.65503 200.86443 C 277.02457 200.15895 277.20833 199.35033 277.20833 198.44327 C 277.20833 197.51382 277.02821 196.69789 276.66988 195.99241 C 276.31153 195.28692 275.81538 194.73192 275.17708 194.32879 C 274.53878 193.92565 273.80002 193.7235 272.96016 193.7235 C 271.86273 193.7235 270.92181 193.95872 270.13795 194.42905 C 269.36527 194.88818 268.83232 195.53137 268.54117 196.36004 L 263.83996 196.36004 L 264.61236 181.71425 z M 305.14451 181.71425 L 322.56052 181.71425 L 322.56052 185.96242 L 312.09606 206.7428 L 306.8564 206.7428 L 317.35428 186.04783 L 317.35428 186.0144 L 305.14451 186.0144 L 305.14451 181.71425 z M 416.52529 181.71425 L 421.21165 181.71425 L 421.21165 206.7428 L 416.23936 206.7428 L 416.23936 186.46744 L 416.20594 186.46744 L 410.32757 190.19573 L 410.32757 185.66163 L 416.52529 181.71425 z M 333.3629 185.1566 C 332.62382 185.1566 331.97326 185.29626 331.41335 185.57622 C 330.85344 185.85618 330.41605 186.25311 330.10251 186.76823 C 329.80015 187.27215 329.64947 187.86759 329.64947 188.55068 C 329.64947 189.23377 329.80015 189.83287 330.10251 190.34798 C 330.41605 190.8631 330.85344 191.26741 331.41335 191.55856 C 331.97326 191.83852 332.62382 191.97818 333.3629 191.97818 C 334.11317 191.97818 334.7674 191.83852 335.32731 191.55856 C 335.88722 191.27861 336.31723 190.87796 336.61959 190.36284 C 336.93313 189.83652 337.09119 189.23377 337.09119 188.55068 C 337.09119 187.86759 336.93313 187.27215 336.61959 186.76823 C 336.31723 186.25311 335.88722 185.85618 335.32731 185.57622 C 334.7786 185.29626 334.12438 185.1566 333.3629 185.1566 z M 376.41276 185.37569 C 375.58411 185.37569 374.84168 185.57048 374.18099 185.96242 C 373.52027 186.35435 372.99471 186.89467 372.60278 187.57776 C 372.22205 188.24966 372.03091 189.01411 372.03091 189.87638 C 372.03091 190.72744 372.22205 191.48825 372.60278 192.16014 C 372.98352 192.83203 373.49808 193.36498 374.14757 193.75692 C 374.80828 194.13766 375.54702 194.32879 376.36449 194.32879 C 376.99158 194.32879 377.56863 194.21483 378.09495 193.99086 C 378.63247 193.7669 379.09555 193.4545 379.48749 193.05137 C 379.89063 192.64823 380.20301 192.17777 380.42699 191.64026 C 380.65094 191.09155 380.76491 190.49982 380.76491 189.86152 C 380.76491 189.01046 380.57376 188.24966 380.19304 187.57776 C 379.81229 186.89467 379.29038 186.35435 378.62968 185.96242 C 377.96899 185.57048 377.23025 185.37569 376.41276 185.37569 z M 84.425322 185.44254 C 83.339095 185.44254 82.398184 185.80274 81.603111 186.51943 C 80.819245 187.22492 80.216488 188.23198 79.790954 189.54217 C 79.376607 190.85236 79.167097 192.41807 79.167097 194.24338 C 79.167097 196.05749 79.376607 197.61954 79.790954 198.92973 C 80.216488 200.23993 80.819245 201.2507 81.603111 201.95618 C 82.398184 202.66167 83.339095 203.01451 84.425322 203.01451 C 85.511549 203.01451 86.448792 202.66167 87.232679 201.95618 C 88.016545 201.2507 88.619302 200.23993 89.044836 198.92973 C 89.470369 197.61954 89.683547 196.05749 89.683547 194.24338 C 89.683547 192.41807 89.470369 190.85236 89.044836 189.54217 C 88.619302 188.23198 88.016545 187.22492 87.232679 186.51943 C 86.448792 185.80274 85.511549 185.44254 84.425322 185.44254 z M 106.79877 185.44254 C 105.71254 185.44254 104.77163 185.80274 103.97656 186.51943 C 103.19269 187.22492 102.58994 188.23198 102.1644 189.54217 C 101.75006 190.85236 101.54055 192.41807 101.54055 194.24338 C 101.54055 196.05749 101.75006 197.61954 102.1644 198.92973 C 102.58994 200.23993 103.19269 201.2507 103.97656 201.95618 C 104.77163 202.66167 105.71254 203.01451 106.79877 203.01451 C 107.88502 203.01451 108.82226 202.66167 109.60613 201.95618 C 110.38999 201.2507 110.99275 200.23993 111.41829 198.92973 C 111.84382 197.61954 112.057 196.05749 112.057 194.24338 C 112.057 192.41807 111.84382 190.85236 111.41829 189.54217 C 110.99275 188.23198 110.38999 187.22492 109.60613 186.51943 C 108.82226 185.80274 107.88502 185.44254 106.79877 185.44254 z M 129.17222 185.44254 C 128.08597 185.44254 127.1488 185.80274 126.35372 186.51943 C 125.56986 187.22492 124.96339 188.23198 124.53785 189.54217 C 124.12353 190.85236 123.91771 192.41807 123.91771 194.24338 C 123.91771 196.05749 124.12353 197.61954 124.53785 198.92973 C 124.96339 200.23993 125.56986 201.2507 126.35372 201.95618 C 127.1488 202.66167 128.08597 203.01451 129.17222 203.01451 C 130.25845 203.01451 131.19571 202.66167 131.97958 201.95618 C 132.76347 201.2507 133.3662 200.23993 133.79173 198.92973 C 134.21727 197.61954 134.43045 196.05749 134.43045 194.24338 C 134.43045 192.41807 134.21727 190.85236 133.79173 189.54217 C 133.3662 188.23198 132.76347 187.22492 131.97958 186.51943 C 131.19571 185.80274 130.25845 185.44254 129.17222 185.44254 z M 398.48542 185.44254 C 397.3992 185.44254 396.45828 185.80274 395.66321 186.51943 C 394.87932 187.22492 394.27659 188.23198 393.85105 189.54217 C 393.43673 190.85236 393.2272 192.41807 393.2272 194.24338 C 393.2272 196.05749 393.43673 197.61954 393.85105 198.92973 C 394.27659 200.23993 394.87932 201.2507 395.66321 201.95618 C 396.45828 202.66167 397.3992 203.01451 398.48542 203.01451 C 399.57165 203.01451 400.5052 202.66167 401.28907 201.95618 C 402.07295 201.2507 402.6794 200.23993 403.10494 198.92973 C 403.53047 197.61954 403.74365 196.05749 403.74365 194.24338 C 403.74365 192.41807 403.53047 190.85236 403.10494 189.54217 C 402.6794 188.23198 402.07295 187.22492 401.28907 186.51943 C 400.5052 185.80274 399.57165 185.44254 398.48542 185.44254 z M 434.26437 185.44254 C 433.17815 185.44254 432.23724 185.80274 431.44216 186.51943 C 430.65828 187.22492 430.05183 188.23198 429.62629 189.54217 C 429.21197 190.85236 429.00615 192.41807 429.00615 194.24338 C 429.00615 196.05749 429.21197 197.61954 429.62629 198.92973 C 430.05183 200.23993 430.65828 201.2507 431.44216 201.95618 C 432.23724 202.66167 433.17815 203.01451 434.26437 203.01451 C 435.3506 203.01451 436.28415 202.66167 437.06802 201.95618 C 437.85191 201.2507 438.45835 200.23993 438.88389 198.92973 C 439.30942 197.61954 439.5226 196.05749 439.5226 194.24338 C 439.5226 192.41807 439.30942 190.85236 438.88389 189.54217 C 438.45835 188.23198 437.85191 187.22492 437.06802 186.51943 C 436.28415 185.80274 435.3506 185.44254 434.26437 185.44254 z M 64.083122 186.65312 L 56.607976 197.30325 L 56.607976 197.33667 L 64.116543 197.33667 L 64.116543 186.65312 L 64.083122 186.65312 z M 231.236 186.65312 L 223.76085 197.30325 L 223.76085 197.33667 L 231.26942 197.33667 L 231.26942 186.65312 L 231.236 186.65312 z M 294.08961 194.06142 C 293.46249 194.06142 292.88181 194.17903 292.34429 194.4142 C 291.81798 194.63816 291.35116 194.95056 290.94804 195.3537 C 290.55609 195.75683 290.24735 196.23094 290.0234 196.77965 C 289.79942 197.32837 289.68919 197.9238 289.68919 198.5621 C 289.68919 199.41317 289.88031 200.18134 290.26106 200.86443 C 290.64178 201.54753 291.15998 202.08778 291.8207 202.49092 C 292.48139 202.88286 293.22387 203.08135 294.04133 203.08135 C 294.87001 203.08135 295.61241 202.88286 296.27311 202.49092 C 296.9338 202.08778 297.45572 201.54753 297.83646 200.86443 C 298.2284 200.17014 298.42319 199.3946 298.42319 198.54354 C 298.42319 197.69247 298.23207 196.93167 297.85132 196.25977 C 297.48178 195.57668 296.96722 195.04008 296.30653 194.64814 C 295.65702 194.2562 294.91826 194.06142 294.08961 194.06142 z M 333.3629 195.80673 C 332.52302 195.80673 331.7769 195.97581 331.12741 196.31176 C 330.47791 196.63651 329.97073 197.08857 329.60119 197.67088 C 329.23165 198.24199 329.04418 198.90723 329.04418 199.66871 C 329.04418 200.40779 329.22427 201.05835 329.58263 201.61826 C 329.95217 202.17817 330.46307 202.61555 331.11256 202.9291 C 331.76207 203.23146 332.51184 203.38214 333.3629 203.38214 C 334.22516 203.38214 334.97859 203.23146 335.6281 202.9291 C 336.27758 202.61555 336.78483 202.17817 337.14318 201.61826 C 337.51272 201.04715 337.69648 200.39659 337.69648 199.66871 C 337.69648 198.90723 337.51272 198.24199 337.14318 197.67088 C 336.77364 197.08857 336.26275 196.63651 335.61324 196.31176 C 334.96376 195.97581 334.21397 195.80673 333.3629 195.80673 z M 370.41928 272.7714 L 375.00166 272.7714 L 364.30696 305.08943 L 359.72087 305.08943 L 370.41928 272.7714 z M 327.32486 275.36709 C 328.39386 275.36709 329.38801 275.51983 330.38101 275.90183 C 331.37501 276.20683 332.21642 276.74476 332.98042 277.43176 C 333.74442 278.11976 334.27887 278.8832 334.73687 279.8752 C 335.19587 280.8692 335.42386 282.01484 335.42386 283.31384 L 335.42386 294.54699 C 335.42386 295.84499 335.19587 296.99263 334.73687 297.98563 C 334.27887 298.97863 333.74442 299.81807 332.98042 300.42907 C 332.21642 301.11607 331.37401 301.65127 330.38101 302.03327 C 329.38801 302.33827 328.39486 302.49374 327.32486 302.49374 C 326.17886 302.49374 325.18743 302.33827 324.19443 302.03327 C 323.20143 301.65127 322.35903 301.11607 321.59503 300.42907 C 320.83103 299.81807 320.2223 298.97764 319.7643 297.98563 C 319.3823 296.99264 319.15158 295.84499 319.15158 294.54699 L 319.15158 283.31384 C 319.15158 282.01484 319.3823 280.8692 319.7643 279.8752 C 320.2233 278.8822 320.83103 278.11876 321.59503 277.43176 C 322.35903 276.74376 323.20143 276.20683 324.19443 275.90183 C 325.18643 275.51983 326.17886 275.36709 327.32486 275.36709 z M 445.60149 275.36709 C 446.67049 275.36709 447.66465 275.51983 448.65765 275.90183 C 449.65165 276.20683 450.57006 276.74476 451.25706 277.43176 C 452.02206 278.11976 452.63151 278.8832 453.01351 279.8752 C 453.47251 280.8692 453.7015 282.01484 453.7005 283.31384 L 453.7005 294.54699 C 453.7005 295.84499 453.47151 296.99263 453.01351 297.98563 C 452.63151 298.97863 452.02106 299.81807 451.25706 300.42907 C 450.56906 301.11607 449.65065 301.65127 448.65765 302.03327 C 447.66465 302.33827 446.67149 302.49374 445.60149 302.49374 C 444.45649 302.49374 443.46407 302.33827 442.47107 302.03327 C 441.47807 301.65127 440.63566 301.11607 439.87166 300.42907 C 439.10766 299.81807 438.49721 298.97764 438.11521 297.98563 C 437.65621 296.99264 437.42822 295.84499 437.42822 294.54699 L 437.42822 283.31384 C 437.42822 282.01484 437.65721 280.8692 438.11521 279.8752 C 438.49721 278.8822 439.10766 278.11876 439.87166 277.43176 C 440.63566 276.74376 441.47807 276.20683 442.47107 275.90183 C 443.46407 275.51983 444.45549 275.36709 445.60149 275.36709 z M 466.92033 275.36709 C 467.98933 275.36709 468.98348 275.51983 469.97648 275.90183 C 470.96948 276.20683 471.88789 276.74476 472.57589 277.43176 C 473.33989 278.11976 473.95034 278.8832 474.33234 279.8752 C 474.79034 280.8692 475.01933 282.01484 475.01933 283.31384 L 475.01933 294.54699 C 475.01933 295.84499 474.79134 296.99263 474.33234 297.98563 C 473.95034 298.97863 473.33989 299.81807 472.57589 300.42907 C 471.88789 301.11607 470.96948 301.65127 469.97648 302.03327 C 468.98348 302.33827 467.98933 302.49374 466.92033 302.49374 C 465.77433 302.49374 464.7829 302.33827 463.7899 302.03327 C 462.7969 301.65127 461.9545 301.11607 461.1905 300.42907 C 460.5025 299.89407 460.04529 299.12913 459.58629 298.29013 C 459.51025 298.21413 459.51104 298.06263 459.43404 297.98563 C 458.97604 296.99264 458.74706 295.84499 458.74706 294.54699 L 458.74706 283.31384 C 458.74706 282.01484 458.97604 280.8692 459.43404 279.8752 C 459.89304 278.8822 460.4265 278.11876 461.1905 277.43176 C 461.8775 276.82076 462.64267 276.28481 463.55967 275.97981 C 463.63667 275.97981 463.7139 275.90183 463.7899 275.90183 C 464.7829 275.51983 465.77433 275.36709 466.92033 275.36709 z M 341.07571 275.59732 L 356.36021 275.59732 L 356.36021 279.95318 L 345.50955 279.95318 L 345.50955 285.68302 C 345.89155 285.37802 346.42575 285.0708 347.11375 284.7658 C 347.87775 284.45985 348.64391 284.38703 349.56091 284.38703 C 350.70791 284.38703 351.62482 284.53778 352.46482 284.84378 C 353.30582 285.14878 353.99077 285.60848 354.52577 286.14348 C 355.59577 287.21348 356.28246 288.35642 356.51246 289.57841 C 356.81746 290.80142 356.97293 292.02527 356.97293 293.32527 C 356.97293 294.77727 356.81746 296.07566 356.51246 297.22066 C 356.20746 298.29166 355.59675 299.3618 354.60375 300.3548 C 353.99175 300.9658 353.22758 301.42574 352.23458 301.88474 C 351.24158 302.34274 350.09667 302.49374 348.72167 302.49374 C 347.27067 302.49374 346.1228 302.34274 345.0528 301.88474 C 344.0588 301.42574 343.29463 300.9658 342.68363 300.3548 C 341.91863 299.5908 341.30471 298.67413 341.07571 297.68113 C 340.76971 296.76413 340.61797 295.7722 340.54097 294.8552 L 345.43157 294.8552 C 345.50857 295.8492 345.8945 296.68764 346.3525 297.29864 C 346.8875 297.83364 347.65167 298.13788 348.72167 298.13788 C 349.63867 298.13788 350.47415 297.83364 351.00915 297.29864 C 351.46815 296.84064 351.6991 296.30446 351.8521 295.61646 C 352.00412 294.92846 352.08233 294.16627 352.08233 293.32527 C 352.08233 291.72127 351.85236 290.57537 351.31736 289.73437 C 350.85836 288.89437 350.01423 288.51265 348.79223 288.51265 C 347.79823 288.51265 347.03702 288.74164 346.57902 289.19964 C 346.04402 289.65764 345.73582 290.11659 345.58382 290.65159 L 341.07571 290.65159 L 341.07571 275.59732 z M 385.08735 275.59732 L 389.97794 275.59732 L 389.97794 302.26351 L 385.08735 302.26351 L 385.08735 280.79242 L 379.66202 285.53076 L 379.66202 280.33567 L 385.08735 275.59732 z M 406.40618 275.59732 L 411.29678 275.59732 L 411.29678 302.26351 L 406.40618 302.26351 L 406.40618 280.79242 L 400.98085 285.53076 L 400.98085 280.33567 L 406.40618 275.59732 z M 327.32486 279.72295 C 326.33086 279.72295 325.49068 280.03015 324.95568 280.71815 C 324.34468 281.32915 324.03847 282.24583 324.03847 283.39183 L 324.03847 294.54699 C 324.03847 295.61599 324.34468 296.53168 324.95568 297.14268 C 325.49068 297.83068 326.33186 298.13788 327.32486 298.13788 C 328.24186 298.13788 329.08476 297.83068 329.61976 297.14268 C 330.23176 296.53168 330.53326 295.616 330.53326 294.54699 L 330.53326 283.39183 C 330.53326 282.24584 330.23076 281.32915 329.61976 280.71815 C 329.08476 280.03015 328.24186 279.72295 327.32486 279.72295 z M 445.60149 279.72295 C 444.60749 279.72295 443.84332 280.03015 443.23232 280.71815 C 442.62132 281.32915 442.3151 282.24583 442.3151 283.39183 L 442.3151 294.54699 C 442.3151 295.61599 442.62132 296.53168 443.23232 297.14268 C 443.84432 297.83068 444.60849 298.13788 445.60149 298.13788 C 446.59549 298.13788 447.3614 297.83068 447.8964 297.14268 C 448.5074 296.53168 448.8099 295.616 448.8099 294.54699 L 448.8099 283.39183 C 448.8099 282.24584 448.5074 281.32915 447.8964 280.71815 C 447.3614 280.03015 446.59449 279.72295 445.60149 279.72295 z M 466.92033 279.72295 C 465.92733 279.72295 465.16215 280.03015 464.55115 280.71815 C 463.93915 281.32915 463.63765 282.24583 463.63765 283.39183 L 463.63765 294.54699 C 463.63765 295.61599 463.94015 296.53168 464.55115 297.14268 C 465.16115 297.83068 465.92733 298.13788 466.92033 298.13788 C 467.91433 298.13788 468.6785 297.83068 469.2895 297.14268 C 469.8235 296.53168 470.12874 295.616 470.12874 294.54699 L 470.12874 283.39183 C 470.12874 282.24584 469.8245 281.32915 469.2895 280.71815 C 468.6775 280.03015 467.91333 279.72295 466.92033 279.72295 z M 420.69548 289.27391 L 432.23313 289.27391 L 432.23313 293.86 L 420.69548 293.86 L 420.69548 289.27391 z " />
	
	
	
	
	
	
	
	
</g></svg>
