<?xml version="1.0" encoding="UTF-8" standalone="no"?>
<svg
   version="1.1"
   id="Layer_3"
   x="0px"
   y="0px"
   width="283.46px"
   height="283.46px"
   viewBox="0 0 283.46 283.46"
   enable-background="new 0 0 283.46 283.46"
   xml:space="preserve"
   sodipodi:docname="payment-cash-alt.svg"
   inkscape:version="1.4.2 (ebf0e940d0, 2025-05-08)"
   xmlns:inkscape="http://www.inkscape.org/namespaces/inkscape"
   xmlns:sodipodi="http://sodipodi.sourceforge.net/DTD/sodipodi-0.dtd"
   xmlns="http://www.w3.org/2000/svg"
   xmlns:svg="http://www.w3.org/2000/svg"><defs
   id="defs15" /><sodipodi:namedview
   id="namedview13"
   pagecolor="#ffffff"
   bordercolor="#000000"
   borderopacity="0.25"
   inkscape:showpageshadow="2"
   inkscape:pageopacity="0.0"
   inkscape:pagecheckerboard="0"
   inkscape:deskcolor="#d1d1d1"
   showgrid="false"
   inkscape:zoom="0.74084529"
   inkscape:cx="140.38019"
   inkscape:cy="94.486665"
   inkscape:window-width="1920"
   inkscape:window-height="995"
   inkscape:window-x="0"
   inkscape:window-y="0"
   inkscape:window-maximized="1"
   inkscape:current-layer="Layer_3" />

<path
   d="M 262.21717,191.40739 262.62111,70.303678 42.580713,70.438324 42.573627,56.548495 H 276.37629 V 191.41448 Z m -7.13625,21.30955 -14.15204,-0.0142 0.40394,-121.103717 -220.040395,0.141733 -0.0071,-13.889829 H 255.08801 V 212.71694 Z M 234.232,226.9115 H 7.083697 V 99.139246 H 234.232 Z M 220.03036,112.89443 H 21.278252 v 99.82251 H 220.02328 v -99.82251 z m -21.28829,89.17837 c 0,1.25433 0.31182,2.42363 0.71575,3.54332 h -78.80351 c 19.60166,0 35.49701,-19.06308 35.49701,-42.59075 0,-23.52767 -15.89535,-42.59075 -35.49701,-42.59075 h 78.79643 c -0.40394,1.11969 -0.71575,2.28899 -0.71575,3.55041 0,5.88192 4.76222,10.64415 10.64414,10.64415 1.26142,0 2.43072,-0.31182 3.55041,-0.71576 v 58.21681 c -1.11969,-0.39685 -2.28899,-0.71575 -3.55041,-0.71575 -5.87483,0.007 -10.63706,4.7764 -10.63706,10.65832 z m -14.20164,-53.83018 c -5.88192,0 -10.64414,6.34964 -10.64414,14.19456 0,7.84492 4.76222,14.19455 10.64414,14.19455 5.88192,0 10.64415,-6.34963 10.64415,-14.19455 0,-7.84492 -4.76223,-14.19456 -10.64415,-14.19456 z m -49.02542,-10.80713 c 0.1063,0.20551 0.19134,0.48189 0.2622,0.82205 0.078,0.34016 0.12756,0.77244 0.14882,1.28977 0.0354,0.51732 0.0496,1.16221 0.0496,1.93465 0,0.85749 -0.0213,1.58741 -0.0638,2.1756 -0.0496,0.59528 -0.12756,1.08426 -0.21969,1.46694 -0.11338,0.38977 -0.25512,0.67323 -0.43937,0.84331 -0.19134,0.17717 -0.45355,0.26929 -0.77953,0.26929 -0.32599,0 -0.83623,-0.20551 -1.55198,-0.61653 -0.71575,-0.41812 -1.58741,-0.85749 -2.61497,-1.33938 -1.02756,-0.48189 -2.23229,-0.92835 -3.59293,-1.3252 -1.36064,-0.39686 -2.84883,-0.59528 -4.47876,-0.59528 -1.2756,0 -2.38111,0.14882 -3.32364,0.46063 -0.94961,0.31181 -1.74331,0.73701 -2.37403,1.28268 -0.63071,0.54567 -1.1126,1.20473 -1.41732,1.963 -0.31182,0.76536 -0.46772,1.58033 -0.46772,2.43072 0,1.2756 0.34724,2.37403 1.04173,3.30947 0.69449,0.93544 1.62285,1.75749 2.79923,2.48032 1.1693,0.72993 2.4945,1.40316 3.96852,2.04096 1.47402,0.6378 2.98348,1.31103 4.52128,2.01261 1.53781,0.71575 3.04726,1.51654 4.52837,2.42363 1.48111,0.9 2.79923,1.97718 3.94726,3.23151 1.15513,1.26142 2.09056,2.73545 2.79923,4.43624 0.70866,1.7008 1.063,3.69923 1.063,6.00948 0,3.01182 -0.56694,5.66223 -1.68663,7.92996 -1.11969,2.27481 -2.64332,4.18112 -4.57088,5.70475 -1.92757,1.52363 -4.16695,2.66458 -6.73941,3.42994 -0.32598,0.0992 -0.68031,0.14173 -1.01339,0.21968 v 7.75279 h -6.98034 v -6.83861 c -0.0921,0 -0.17008,0.0213 -0.26221,0.0213 -1.97717,0 -3.8197,-0.16299 -5.5205,-0.48189 -1.70079,-0.3189 -3.20316,-0.71575 -4.50002,-1.16221 -1.30394,-0.45355 -2.3882,-0.93544 -3.25986,-1.4315 -0.87165,-0.49607 -1.50237,-0.93544 -1.88504,-1.31812 -0.38268,-0.38268 -0.65906,-0.93544 -0.82206,-1.65828 -0.16299,-0.72283 -0.24803,-1.77166 -0.24803,-3.13229 0,-0.91418 0.0283,-1.68663 0.0921,-2.30317 0.0567,-0.62362 0.1559,-1.12677 0.29055,-1.51654 0.13465,-0.38268 0.31181,-0.65906 0.5315,-0.82205 0.21968,-0.15591 0.48189,-0.24094 0.77244,-0.24094 0.41812,0 0.99922,0.24094 1.75749,0.73701 0.75119,0.48189 1.72206,1.02756 2.90553,1.61575 1.18347,0.58819 2.59371,1.12678 4.23781,1.61576 1.63702,0.48898 3.54333,0.73701 5.69767,0.73701 1.41733,0 2.69292,-0.17008 3.81261,-0.51024 1.11969,-0.34016 2.07639,-0.82205 2.86301,-1.43859 0.77953,-0.62362 1.37481,-1.39607 1.79292,-2.31025 0.41811,-0.91417 0.62363,-1.94174 0.62363,-3.06851 0,-1.30395 -0.36142,-2.42364 -1.063,-3.35199 -0.70867,-0.93544 -1.62993,-1.75749 -2.77088,-2.48741 -1.14095,-0.72993 -2.43072,-1.40316 -3.8764,-2.03387 -1.45276,-0.6378 -2.94096,-1.31103 -4.47876,-2.01969 -1.5378,-0.70867 -3.03308,-1.51655 -4.47876,-2.41655 -1.44568,-0.90001 -2.74253,-1.97718 -3.8764,-3.2386 -1.13386,-1.25434 -2.06221,-2.74253 -2.77087,-4.45041 -0.70867,-1.71497 -1.063,-3.7701 -1.063,-6.16539 0,-2.74962 0.51024,-5.16616 1.53071,-7.24255 1.02048,-2.08347 2.39529,-3.81262 4.12443,-5.18743 1.72915,-1.37481 3.7701,-2.40237 6.11578,-3.08269 1.20473,-0.34724 2.45198,-0.60236 3.73466,-0.77244 v -7.33468 h 6.98035 v 7.33468 c 0.27638,0.0354 0.55276,0.0213 0.82914,0.0638 1.36063,0.20551 2.63623,0.48189 3.8197,0.83622 1.17638,0.35433 2.22521,0.7441 3.13939,1.19056 0.91417,0.44646 1.52363,0.80079 1.82835,1.09843 0.27638,0.26221 0.47481,0.51024 0.58111,0.72284 z m -50.350633,25.58988 c 0,23.52058 15.888263,42.59075 35.489933,42.59075 H 41.857875 c 0.396853,-1.11969 0.715752,-2.28899 0.715752,-3.54332 0,-5.88192 -4.769314,-10.65123 -10.644145,-10.65123 -1.261423,0 -2.43072,0.3189 -3.55041,0.71575 v -58.21681 c 1.11969,0.40394 2.288987,0.71575 3.55041,0.71575 5.881918,0 10.644145,-4.76223 10.644145,-10.64414 0,-1.26143 -0.318899,-2.43072 -0.715752,-3.55041 h 78.796435 c -19.60167,-0.007 -35.489933,19.06308 -35.489933,42.58366 z M 56.768181,148.24262 c -5.881917,0 -10.644144,6.34964 -10.644144,14.19456 0,7.84492 4.769314,14.19455 10.644144,14.19455 5.881917,0 10.644144,-6.34963 10.644144,-14.19455 0,-7.84492 -4.762227,-14.19456 -10.644144,-14.19456 z"
   id="path1-3"
   style="fill:#000000;stroke-width:7.08665" /></svg>
