<?xml version="1.0" encoding="UTF-8" standalone="no"?>
<!-- Generator: Adobe Illustrator 15.1.0, SVG Export Plug-In . SVG Version: 6.00 Build 0)  -->

<svg
   version="1.1"
   id="Layer_4"
   x="0px"
   y="0px"
   width="283.465px"
   height="283.465px"
   viewBox="0.108 0.228 283.465 283.465"
   enable-background="new 0.108 0.228 283.465 283.465"
   xml:space="preserve"
   sodipodi:docname="people-turing.svg"
   inkscape:version="1.2.2 (b0a8486541, 2022-12-01)"
   xmlns:inkscape="http://www.inkscape.org/namespaces/inkscape"
   xmlns:sodipodi="http://sodipodi.sourceforge.net/DTD/sodipodi-0.dtd"
   xmlns="http://www.w3.org/2000/svg"
   xmlns:svg="http://www.w3.org/2000/svg"><defs
   id="defs11" /><sodipodi:namedview
   id="namedview9"
   pagecolor="#ffffff"
   bordercolor="#000000"
   borderopacity="0.25"
   inkscape:showpageshadow="2"
   inkscape:pageopacity="0.0"
   inkscape:pagecheckerboard="0"
   inkscape:deskcolor="#d1d1d1"
   showgrid="false"
   inkscape:zoom="1.4816644"
   inkscape:cx="178.51546"
   inkscape:cy="134.98333"
   inkscape:window-width="1920"
   inkscape:window-height="1015"
   inkscape:window-x="0"
   inkscape:window-y="0"
   inkscape:window-maximized="1"
   inkscape:current-layer="Layer_4" />

<path
   id="path315"
   style="display:inline;fill:#000000;stroke-width:0.999999"
   d="m 136.47881,7.3163915 c -5.69463,-0.020344 -6.08739,0.048995 -9.97402,1.7961287 -0.6511,0.2926826 -2.2471,0.659949 -3.5493,0.8134933 -1.3022,0.1535305 -3.92645,0.7895065 -5.82868,1.4148875 -1.9022,0.625368 -3.92673,1.135669 -4.49973,1.135669 -0.99872,0 -1.01325,0.03255 -0.36244,0.751743 0.65522,0.724021 0.62072,0.759655 -1.02291,1.014853 -8.32965,1.293208 -10.87728,2.574719 -5.11454,2.574719 2.45138,0 3.60836,0.40645 3.60836,1.26454 0,0.173627 -0.95927,0.314121 -2.12903,0.31412 -1.16973,0 -3.85072,0.355271 -5.96025,0.78933 -2.109596,0.434063 -3.904996,0.789331 -3.989616,0.789331 -0.43343,0 -0.0671,0.964384 0.53429,1.404148 0.99115,0.724738 0.71226,0.850947 -3.86611,1.737063 -3.88194,0.751255 -5.80211,1.710747 -4.73867,2.367992 0.47589,0.294123 1.29375,2.430064 1.03096,2.69285 -0.88985,0.889854 -12.844063,1.567027 -12.844063,0.72758 0,-0.353469 0.177643,-0.641667 0.394665,-0.641667 1.625958,0 0.197426,-1.586342 -1.482008,-1.64578 -1.686854,-0.05966 -1.727725,-0.08189 -0.413458,-0.220153 1.015591,-0.106808 1.535645,-0.387796 1.704847,-0.920886 0.13375,-0.421594 0.43967,-0.765166 0.679252,-0.765166 0.547835,0 1.876675,-1.185412 1.876675,-1.672628 0,-0.374473 -2.048456,-0.0502 -3.143899,0.496687 -0.33267,0.166081 -1.046824,0.494752 -1.589399,0.730265 -4.250688,1.845017 -15.783918,10.825508 -15.783918,12.290997 0,0.156747 -0.907888,1.418926 -2.016282,2.802928 -2.116545,2.642817 -4.594896,7.209859 -6.078379,11.198285 -0.484329,1.302198 -1.72699,4.587121 -2.759969,7.299961 -5.553973,14.586429 -6.510788,20.428321 -4.738666,28.944788 0.556362,2.673718 0.582889,3.718684 0.179882,7.627506 -0.431808,4.188185 -0.320316,5.188088 0.735634,5.154809 0.0598,0.01237 0.123316,-0.0093 0.185251,-0.01347 0.140689,-0.01787 0.23381,0.01347 0.405403,-0.02953 1.066798,-0.267745 1.657919,-1.459511 2.075348,-4.180227 0.307199,-2.002249 1.162166,-3.772831 3.723812,-7.71342 0.98751,-1.519154 2.305895,-3.738299 2.931798,-4.931971 0.625888,-1.193686 1.487565,-2.672493 1.91426,-3.286191 0.426708,-0.613763 1.30422,-2.212534 1.949162,-3.551985 0.64494,-1.339532 1.599076,-3.000716 2.12099,-3.691595 0.521911,-0.690868 0.951205,-1.401404 0.953102,-1.578661 0.0055,-0.488645 6.724899,-7.271385 7.716104,-7.82618 0.207031,-0.139826 0.421615,-0.267421 0.630928,-0.405405 0.421551,-0.151936 1.136262,-0.501497 2.064608,-1.11419 1.107622,-0.730922 2.459016,-1.459728 3.001602,-1.621617 0.542574,-0.161902 1.540933,-0.629697 2.217642,-1.039017 0.676707,-0.409316 1.829976,-0.749094 2.563976,-0.754427 1.77147,-0.01237 4.80861,-0.726824 5.10112,-1.200104 0.12839,-0.207661 1.37447,-0.712857 2.77071,-1.122245 1.39615,-0.409457 3.9582,-1.298228 5.69445,-1.97601 1.73619,-0.677793 3.60005,-1.297765 4.14264,-1.3773 0.54257,-0.07959 1.82211,-0.342717 2.843196,-0.582601 2.30055,-0.540361 8.80745,-0.540631 11.90171,-0.0027 1.27203,0.221505 2.60303,0.285996 2.95864,0.142293 0.35561,-0.143702 4.28723,-0.321686 8.73633,-0.394664 4.44908,-0.07299 9.51035,-0.339408 11.24661,-0.593341 3.3133,-0.484577 6.88517,-0.581257 15.38925,-0.413458 5.52558,0.109007 8.65334,-0.571059 10.48412,-2.276707 1.19681,-1.115003 5.01905,-1.347201 5.34275,-0.32486 0.29473,0.931038 0.15563,1.046795 -2.28476,1.906205 -2.40256,0.846032 -2.78363,1.302376 -2.42169,2.89958 0.14754,0.651098 0.29187,1.80437 0.3195,2.56398 0.0454,1.246513 0.5208,2.476761 2.99086,7.737583 0.41881,0.891905 0.76249,1.757443 0.76249,1.922315 0,0.164871 0.66545,1.386484 1.47932,2.717013 1.45163,2.373065 1.47838,2.49253 1.42831,6.169663 -0.028,2.061808 -0.061,4.868711 -0.0725,6.236781 -0.015,1.793307 -0.25326,2.880532 -0.85377,3.898325 -0.94136,1.595469 -1.02384,4.971369 -0.13961,5.705191 0.28425,0.235788 0.42817,0.570519 0.31949,0.746374 -0.10873,0.175841 0.3367,0.702182 0.99069,1.167886 0.98591,0.70203 1.1449,1.026948 0.92625,1.898151 -0.14502,0.577859 -0.26017,1.319027 -0.25504,1.648464 0.006,0.329427 -0.32209,1.069693 -0.7249,1.645781 -1.01387,1.450024 -0.92629,2.884983 0.22821,3.793616 0.52774,0.41515 1.51065,1.68726 2.18274,2.82709 1.17975,2.00083 1.40234,2.69807 2.42974,7.62214 0.29473,1.41167 0.67441,2.27134 1.0068,2.27134 0.29381,0 0.84204,0.16118 1.2189,0.35976 0.37689,0.19857 1.57278,0.7017 2.65794,1.11687 2.00625,0.76759 2.71359,3.78754 1.29408,5.52531 -0.27567,0.33725 -0.27061,0.6571 0.0214,1.0068 0.23345,0.28129 0.42049,0.85658 0.41615,1.28065 -0.0201,1.96331 0.19649,3.3372 0.52622,3.3372 0.46416,0 -0.0158,1.5899 -0.72491,2.40021 -0.77003,0.87986 -0.69948,2.33577 0.11272,2.33577 0.4482,0 0.19025,0.40665 -0.80812,1.28065 -1.3915,1.21811 -1.82119,3.84731 -0.62825,3.84731 0.1696,0 0.21738,0.35314 0.10474,0.78396 -0.11244,0.43083 -0.0969,1.06483 0.0349,1.40683 0.56444,1.47091 3.1597,0.55324 3.60031,-1.27259 0.21877,-0.90656 0.80606,-2.19909 1.30212,-2.87004 0.91157,-1.23296 1.39871,-3.83313 0.78933,-4.20976 -0.5328,-0.32971 -0.015,-0.8326 1.15715,-1.11956 1.00211,-0.24535 3.654,-2.72791 3.654,-3.42043 0,-0.16422 0.5329,-0.88191 1.184,-1.59477 0.6511,-0.71279 1.184,-1.47325 1.184,-1.69142 0,-1.31246 3.29869,-3.38746 5.28636,-3.32647 1.1071,0.034 2.87598,-0.23382 3.92785,-0.59334 3.0282,-1.0352 7.21481,-1.24497 9.80757,-0.49132 1.21664,0.35371 2.30053,0.64167 2.40826,0.64167 0.31445,0 0.99622,-3.39802 1.66189,-8.28528 0.33995,-2.49582 0.80204,-5.42547 1.02827,-6.51063 1.16609,-5.594044 1.26531,-21.914883 0.15572,-25.650544 -1.04259,-3.510156 -2.24585,-6.812413 -3.48755,-9.925692 -0.0458,-0.107633 -0.085,-0.217352 -0.13155,-0.32486 -2.11871,-5.260163 -4.37611,-9.757549 -6.39518,-12.344694 -4.88443,-6.258722 -5.96958,-8.384026 -5.97905,-11.694972 -0.004,-1.106978 -0.26339,-2.456343 -0.57722,-2.998918 -0.31383,-0.542588 -0.68669,-1.253126 -0.82693,-1.578659 -1.31739,-3.059065 -2.10876,-4.296253 -4.0084,-6.269 -0.91702,-0.95232 -1.77254,-2.063207 -1.90083,-2.467328 -0.12825,-0.404123 -0.35704,-0.735634 -0.51012,-0.735634 -0.15302,0 -0.6118,-0.615877 -1.01753,-1.369246 -0.40569,-0.753386 -0.87842,-1.281855 -1.04975,-1.175941 -0.17139,0.105845 -0.54344,-0.125585 -0.82961,-0.512797 -0.28613,-0.387215 -0.96627,-0.989903 -1.50886,-1.339712 -0.54258,-0.349799 -1.64613,-1.233757 -2.4539,-1.965272 -2.98636,-2.704757 -4.56081,-3.895639 -5.15481,-3.895639 -0.33533,0 -0.67136,-0.132568 -0.74369,-0.295328 -0.3755,-0.844891 -4.9556,-3.766078 -7.2758,-4.639328 -1.46149,-0.550105 -2.85072,-1.148725 -3.08483,-1.331659 -0.23417,-0.182947 -1.35756,-0.438391 -2.49685,-0.566491 -1.13931,-0.128114 -2.64785,-0.495742 -3.35332,-0.816178 -0.70548,-0.320424 -2.35887,-0.671101 -3.67548,-0.781276 -1.3166,-0.110245 -3.8909,-0.5609072 -5.7213,-1.0014294 -5.48755,-1.3207888 -11.46688,-2.0218292 -17.42691,-2.043177 z M 83.035264,30.891587 c 0.28837,0.01237 0.53449,0.05819 0.67925,0.147664 0.26017,0.160789 0.0651,0.371357 -0.48326,0.518166 -1.31831,0.352987 -2.30356,0.311875 -2.30356,-0.09397 0,-0.334554 1.24253,-0.607356 2.10757,-0.57186 z m 0.81081,2.768025 c 1.76525,0.286388 1.8142,0.7296 0.13961,1.25917 -1.51927,0.48044 -7.791283,1.049437 -7.791282,0.706102 0,-0.962987 5.353192,-2.338287 7.651672,-1.965272 z M 127.59214,102.4253 c -1.70434,0.0937 -4.06379,0.0976 -6.62877,0.0107 -2.73917,-0.0926 -8.46516,0.7555 -8.46516,1.2538 0,0.51014 -4.85918,2.61525 -6.51331,2.82172 -6.697616,0.83593 -11.558826,3.70054 -11.622486,6.84623 -0.01,0.4651 -0.28582,0.94767 -0.61482,1.07392 -0.74732,0.2868 -0.44997,2.7843 0.63362,5.30784 0.40224,0.9368 0.76585,2.35787 0.80812,3.15732 0.0796,1.50485 0.89398,2.83246 1.73438,2.83246 0.26534,0 0.69456,0.25488 0.9531,0.56649 0.76777,0.92509 2.732366,1.18148 3.530506,0.4591 0.92079,-0.83325 3.59226,-0.85584 3.59226,-0.0295 0,1.04261 1.73328,1.38884 4.00303,0.80006 2.09274,-0.54284 2.36458,-0.76839 3.57346,-2.95059 0.91693,-1.655 1.77251,-1.52975 2.53177,0.36782 1.3838,3.45835 5.05526,4.82325 9.11488,3.3909 1.3894,-0.49023 1.79509,-0.47425 3.60837,0.13961 2.08304,0.7052 2.93885,1.20279 2.06998,1.20279 -0.26603,0 -0.37309,0.17764 -0.23895,0.39466 0.13416,0.21704 -0.0772,0.39688 -0.46984,0.40004 -0.39261,0.003 -0.97927,0.17889 -1.30482,0.38929 -0.46859,0.30283 -0.38633,0.38355 0.39467,0.38393 1.46838,7.9e-4 2.78276,-0.42681 2.53713,-0.82423 -0.11891,-0.19237 0.58388,-0.34903 1.56255,-0.34903 1.26293,0 1.88731,-0.19336 2.15321,-0.66851 0.34074,-0.60887 0.65667,-0.62619 3.47412,-0.17183 5.4321,0.87601 9.60149,0.25186 9.4666,-1.41757 -0.068,-0.84232 -0.78711,-1.67181 -1.50617,-1.73438 -1.70351,-0.14827 3.11586,-0.63516 5.39376,-0.54501 3.64526,0.14424 5.81337,-3.77538 2.7358,-4.9454 -0.75042,-0.2853 -0.93412,-0.68277 -1.03364,-2.23912 -0.11396,-1.79247 -0.20691,-1.931 -1.73706,-2.62304 -0.88864,-0.40189 -1.89597,-1.1999 -2.23913,-1.77466 -0.91425,-1.53126 -3.88704,-4.79504 -4.36816,-4.79504 -0.22787,0 -0.86849,-0.41201 -1.42294,-0.9182 -0.55447,-0.50619 -1.8075,-1.1482 -2.78414,-1.42563 -0.97665,-0.27734 -1.86481,-0.63266 -1.97333,-0.78933 -1.22835,-1.77329 -7.3749,-3.79406 -10.94859,-3.59762 z m -0.4054,3.68354 c 0.44429,0.15553 1.09539,0.7492 1.09539,1.12224 0,0.19047 -0.27172,0.34634 -0.60408,0.34634 -0.63614,0 -1.23899,-1.04837 -0.83496,-1.45247 0.0702,-0.0703 0.19552,-0.0677 0.34365,-0.0161 z m -66.701082,2.91569 c -0.732186,0.01 -1.369138,0.11854 -1.868618,0.3356 -1.24144,0.53936 -2.594712,0.66592 -6.59386,0.61213 -5.031124,-0.0676 -5.0294,-0.0667 -5.007145,1.43368 0.0378,2.54455 0.810353,4.17596 2.147837,4.53462 1.536598,0.41207 2.882604,3.05843 2.255229,4.43528 -1.239667,2.72086 0.414496,7.09269 2.982809,7.88257 1.025955,0.31557 2.006924,0.58629 2.180054,0.60139 0.527838,0.0461 2.321931,-2.07466 2.730439,-3.22713 0.528221,-1.49016 1.301424,-1.36364 2.9667,0.49132 1.617202,1.80145 4.58415,2.18985 7.479842,0.97995 0.909594,-0.38008 1.92686,-0.5038 2.794872,-0.34097 2.813641,0.52785 4.826078,-2.94771 3.589573,-6.20188 -0.421017,-1.10803 -0.722912,-2.73188 -0.671199,-3.60836 0.102547,-1.73742 -2.118537,-4.22639 -3.782878,-4.23929 -0.416055,-0.003 -1.837101,-0.59756 -3.15732,-1.32092 -2.793007,-1.53035 -5.849839,-2.39692 -8.046335,-2.36799 z m 59.895112,8.30138 c 2.03046,0.14806 4.32612,0.65729 5.91461,1.45516 1.12844,0.56672 2.2595,1.03657 2.51297,1.04439 0.25345,0.008 0.98437,0.44404 1.62699,0.96921 1.54958,1.26643 1.18412,1.50921 -0.77322,0.5128 -0.86814,-0.44195 -2.28919,-0.94578 -3.15733,-1.11688 -0.86812,-0.1711 -2.55429,-0.59039 -3.74797,-0.93431 -1.19369,-0.34391 -3.28682,-0.64653 -4.65006,-0.6712 -1.97076,-0.0356 -2.39112,-0.14994 -2.05657,-0.55306 0.5337,-0.64307 2.30007,-0.85416 4.33058,-0.70611 z m 90.52866,3.47413 c -6.67967,0.60589 -14.92954,5.68922 -15.93965,11.04257 -0.29648,1.57122 -0.72563,2.71967 -1.06854,2.85125 -0.31583,0.12124 -0.7152,0.59699 -0.88598,1.05513 -0.25027,0.67117 -0.64154,0.83228 -2.01629,0.83228 -2.87758,0 -3.5237,4.94224 -0.86719,6.62877 0.27347,0.17356 0.49669,1.02024 0.49669,1.87935 0,1.46339 0.05,1.53026 0.78933,1.06856 0.43406,-0.27108 0.78933,-0.71736 0.78933,-0.9907 0,-1.65317 7.61869,-0.19602 8.85715,1.69412 0.66139,1.00939 1.59924,0.9537 2.48879,-0.15036 0.81235,-1.0081 0.64147,-5.44131 -0.23357,-6.06228 -0.39961,-0.28358 -0.93831,-0.91581 -1.19741,-1.40414 -0.25915,-0.48832 -0.68679,-0.88939 -0.95043,-0.89135 -0.59463,-0.004 -3.90686,-2.60326 -4.37353,-3.43117 -0.25988,-0.46109 0.33523,-1.24763 2.46465,-3.25397 1.54498,-1.45581 2.81097,-2.82348 2.81097,-3.03651 0,-0.52319 0.23781,-0.96647 0.60945,-1.34508 0.092,-0.0937 0.18842,-0.16508 0.28191,-0.25237 1.4375,-1.10555 4.40538,-1.37096 7.19525,-0.34634 1.51829,0.55765 3.0438,1.01485 3.3909,1.01485 0.34709,0 0.95226,0.35527 1.34509,0.78933 0.39284,0.43407 0.95386,0.78933 1.24574,0.78933 0.29193,0 0.5316,0.17216 0.5316,0.38393 0,0.21177 0.62036,0.95186 1.37997,1.64309 0.75961,0.69124 1.38267,1.4947 1.38267,1.78539 0,0.29068 0.27615,0.52891 0.61483,0.52891 2.00942,0 -1.31139,-10.76196 -3.70234,-11.99836 -0.79903,-0.41319 -1.71016,-0.67335 -2.69822,-0.79738 -0.86453,-0.1086 -1.78696,-0.11317 -2.74117,-0.0268 z m -146.506653,0.19599 c 0.843571,0 1.007758,1.1535 0.268479,1.89278 -0.646537,0.64654 -1.463624,0.59091 -1.745118,-0.11008 -0.0027,-0.005 -0.0054,-0.0103 -0.0081,-0.0161 -0.294619,-0.77384 0.538834,-1.76659 1.484694,-1.76659 z m 53.199233,0.52085 c 0.16182,-6.5e-4 0.30636,0.0343 0.42689,0.0994 0.11588,0.0623 0.20759,0.15706 0.27385,0.27385 0.0301,0.16034 0.0741,0.28713 0.0403,0.57991 -0.023,0.19829 -0.1075,0.34495 -0.17989,0.50206 -0.29951,0.38967 -0.81044,0.6517 -1.22695,0.50206 -0.16024,-0.0576 -0.26697,-0.18283 -0.34634,-0.32486 -0.0812,-0.22819 -0.11821,-0.44788 -0.10735,-0.65241 0.047,-0.37046 0.23781,-0.73549 0.58796,-0.86987 0.19069,-0.0732 0.36977,-0.10942 0.53159,-0.11008 z m 64.36799,5.21388 c 0.25362,-0.10337 0.59766,-0.0995 0.96116,0.0403 0.52652,0.20204 0.55362,0.31937 0.1343,0.58529 -0.70523,0.44705 -1.51154,0.43451 -1.51154,-0.0242 0,-0.2881 0.16253,-0.49809 0.41613,-0.60139 z m -6.01394,20.24605 c -0.38758,-0.0636 -0.75549,0.022 -1.10077,0.19329 -0.10571,0.13485 -0.21047,0.26794 -0.31681,0.40273 -0.4442,0.56447 -0.90913,1.11364 -1.36656,1.66725 -0.1445,0.1805 -0.29892,0.34807 -0.45909,0.5128 -0.0261,0.0887 -0.0928,0.11025 -0.14768,0.14498 -0.0481,0.047 -0.0959,0.0964 -0.14496,0.1423 0,0.003 -0.003,0.007 -0.003,0.011 -0.0645,0.54788 -0.23683,1.15385 -0.53965,1.80955 -0.15477,0.33514 -0.21287,0.70072 -0.2631,1.06318 -0.11327,0.69914 -0.21116,1.40256 -0.27923,2.10756 -0.0217,0.34555 -0.0761,0.69194 -0.0482,1.03634 0.01,0.0828 0.0124,0.16691 0.0214,0.24968 0.11272,0.55059 0.19918,1.10581 0.23895,1.66458 -0.011,0.46925 -0.0462,0.93404 -0.12619,1.39608 0.52553,0.11657 0.57694,0.20831 0.0617,0.38931 0.0327,0.20509 0.0598,0.41135 0.0698,0.62019 0.0173,0.36607 -0.0461,0.56914 -0.0698,0.78127 0.011,0.039 0.0199,0.0789 0.0322,0.11808 0.0915,0.48417 0.17747,0.9708 0.20943,1.46321 0.0312,0.28397 0.0775,0.56427 0.15302,0.84034 0.0308,0.15076 0.0627,0.30283 0.094,0.45374 0.3241,0.0467 0.5283,0.52385 0.5665,1.44172 0.0957,2.29565 0.23143,3.37286 0.55575,4.40844 0.2471,0.7892 0.18479,0.91135 -0.35708,0.70341 -0.63973,-0.24546 -0.83159,0.10654 -0.67656,1.24039 0.0399,0.29129 -0.25041,0.77259 -0.64435,1.07122 -0.39381,0.29862 -0.55348,0.54886 -0.35708,0.55576 0.19643,0.007 0.0675,0.33044 -0.28459,0.71953 -0.131,0.14477 -0.29703,0.50113 -0.45909,0.84302 -0.0382,0.18185 -0.074,0.36355 -0.11547,0.54501 -0.31923,1.44534 -0.57096,2.92397 -1.23232,4.26347 -0.52715,1.05207 -1.14519,2.05006 -1.79345,3.03114 0.0421,1.39711 -0.0283,2.37014 -0.1772,2.12903 -0.21075,-0.34103 -0.71663,-0.1496 -1.26721,0.20137 -0.18934,0.32335 -0.37265,0.6499 -0.58261,0.96383 -0.50818,0.67064 -1.04888,1.31965 -1.63235,1.925 -0.0186,0.0965 -0.10667,0.21376 -0.10736,0.30338 -0.0173,2.59609 -2.09079,4.6274 -3.4795,3.7614 -0.44511,0.63814 -0.91473,1.25842 -1.42832,1.84714 -0.44807,0.47815 0.23153,-0.25726 -0.71415,0.87793 -0.64648,0.77605 -1.38075,1.46915 -2.12635,2.14784 -0.86541,0.77531 -1.76821,1.50229 -2.70628,2.18811 -0.8272,0.58292 -1.59018,1.24763 -2.41095,1.84176 -1.68997,1.17127 -3.44328,2.22669 -5.33469,3.04725 -1.84973,0.84858 -3.7056,1.68279 -5.43134,2.7734 -2.19093,1.30289 -4.38497,2.60907 -6.72274,3.63789 -1.51902,0.7276 -3.08494,1.3637 -4.4487,2.37337 -1.41021,0.88908 -2.84981,1.72326 -4.36549,2.42168 -1.47221,0.76773 -2.94723,1.53144 -4.51313,2.09683 -2.35758,0.8499 -4.74504,1.65302 -7.20331,2.15858 -1.05945,0.17335 -2.13538,0.30097 -3.17344,0.57455 -1.08795,0.28678 -2.09301,0.43279 -3.02038,0.4752 10e-4,0.006 -0.007,0.011 -0.005,0.0161 0.28248,0.73614 -0.9411,1.09714 -2.63915,0.77859 -1.10151,-0.20666 -1.51178,-0.0834 -2.21228,0.66851 -0.65058,0.69832 -1.30559,0.93092 -2.708956,0.95848 -2.63552,0.0518 -4.41917,0.52886 -4.41917,1.1813 0,0.37905 -0.45159,0.56114 -1.39878,0.56114 -0.77038,0 -1.88128,0.23376 -2.46733,0.52084 -1.67929,0.82262 -7.18762,1.60247 -7.69999,1.09003 -0.23541,-0.23541 -0.99576,-0.42689 -1.68874,-0.42689 -0.75595,0 -1.35111,-0.23821 -1.48738,-0.59334 -0.28509,-0.74287 -2.184883,-0.77109 -3.221753,-0.0482 -1.141203,0.79533 -3.803802,1.13978 -5.07158,0.65777 -1.677372,-0.63777 -2.02472,-0.0738 -0.770537,1.24844 1.450863,1.52962 8.079473,5.44208 9.21959,5.44208 0.48476,0 1.9671,0.1759 3.29425,0.38929 1.32721,0.21339 3.80627,0.56994 5.50651,0.79202 2.72567,0.35595 3.35558,0.60394 5.32663,2.09413 2.87016,2.16981 3.74824,2.7429 8.043656,5.26221 1.16043,0.68064 2.34845,1.52371 2.63916,1.87399 0.2907,0.35026 0.79462,0.63897 1.12223,0.63897 0.32755,0 1.16298,0.60041 1.8552,1.33436 0.69228,0.73403 1.81974,1.62437 2.50492,1.97869 1.87528,0.96975 4.0245,4.57149 4.0245,6.74421 0,1.87949 1.29137,4.85123 2.27135,5.22729 0.31738,0.12179 1.03572,0.64442 1.59476,1.16252 0.55903,0.5181 1.24382,0.85592 1.52229,0.74906 0.27844,-0.10681 0.62008,-0.008 0.75979,0.21746 0.14251,0.23058 1.31798,0.36957 2.67675,0.31681 1.33213,-0.0517 2.73279,0.0411 3.11436,0.20673 0.41358,0.17952 1.23837,0.0423 2.04045,-0.33828 0.73997,-0.35114 2.14973,-0.7485 3.13315,-0.8833 1.55364,-0.21296 1.81902,-0.38852 2.0297,-1.34777 0.24891,-1.13323 1.66737,-2.34651 2.74387,-2.34651 0.33319,0 0.60675,-0.17764 0.60675,-0.39467 0,-0.21703 0.24485,-0.39466 0.54503,-0.39466 0.30024,0 0.62825,-0.31017 0.72758,-0.68999 0.11313,-0.43265 0.88905,-0.88138 2.08071,-1.20011 1.40863,-0.37675 1.78656,-0.62438 1.45784,-0.9531 -0.32867,-0.32871 -0.26075,-0.60501 0.26043,-1.06855 0.38705,-0.34421 0.82026,-0.93574 0.96116,-1.31554 0.1409,-0.37974 0.49566,-0.69269 0.78933,-0.69269 0.29372,0 1.12628,-0.70546 1.84982,-1.56791 0.74753,-0.89093 1.92734,-1.76128 2.73313,-2.01629 4.06868,-1.28768 9.26323,-4.84033 8.94305,-6.11596 -0.20997,-0.8366 0.30503,-1.44236 2.7358,-3.22713 0.21723,-0.15952 1.03626,-0.77057 1.8203,-1.35582 0.784,-0.58525 1.91258,-1.18501 2.5076,-1.33435 0.70027,-0.17576 1.2635,-0.70391 1.59745,-1.49811 0.40752,-0.96917 1.04228,-1.44072 3.01771,-2.24181 1.76135,-0.71425 2.65246,-1.32891 3.01503,-2.07535 0.28313,-0.58293 0.77094,-1.05781 1.08465,-1.05781 0.31372,0 0.57187,-0.26779 0.57187,-0.59334 0,-0.32548 0.28455,-0.59066 0.63362,-0.59066 0.48551,0 0.57443,-0.23995 0.37855,-1.02021 -0.37002,-1.4743 0.0805,-2.703 0.77858,-2.12368 0.66594,0.55266 1.49741,0.10942 1.20817,-0.64435 -0.4557,-1.18752 0.4148,-2.46392 0.91552,-1.3424 0.39772,0.89085 0.41919,0.8436 0.22014,-0.48326 -0.14694,-0.97947 -0.0195,-1.78036 0.38661,-2.4002 0.33511,-0.51139 0.49745,-1.04366 0.35709,-1.184 -0.14032,-0.14035 0.0352,-0.3679 0.39197,-0.50474 0.3566,-0.13678 0.64705,-0.49506 0.64705,-0.79739 0,-0.30877 0.38995,-0.54855 0.88866,-0.54501 0.70989,0.005 0.77118,0.0811 0.30069,0.37856 -0.32365,0.20462 -0.60803,0.60292 -0.63092,0.8833 -0.0232,0.28031 -0.0689,0.9039 -0.10199,1.38535 -0.0415,0.6042 -0.24392,0.80378 -0.65241,0.64703 -0.80768,-0.30995 -0.74354,0.13265 0.1933,1.3236 0.60916,0.77438 0.73187,1.34398 0.54234,2.52909 -0.2394,1.49722 -0.01,1.80895 0.90209,1.22694 0.65978,-0.42073 2.89957,-4.86894 2.89957,-5.75888 0,-0.41604 0.52871,-1.61687 1.17595,-2.66868 0.64718,-1.05183 1.3843,-2.75971 1.63503,-3.79362 0.40617,-1.67407 1.6527,-3.65401 2.30088,-3.65401 0.13155,0 0.44588,1.73133 0.69804,3.8473 0.62982,5.28634 0.0851,9.38027 -1.87935,14.10593 -0.18042,0.43406 -0.45347,1.23481 -0.60409,1.77733 -0.15006,0.54258 -0.60385,1.45631 -1.00947,2.0324 -0.40502,0.57609 -0.73832,1.1702 -0.73832,1.32092 0,0.1507 -0.25788,0.83569 -0.57455,1.51959 -0.31667,0.68389 -0.92248,2.48655 -1.34509,4.00572 -0.84932,3.05313 -1.73735,4.98936 -2.62572,5.72666 -0.32104,0.26645 -0.58529,0.70763 -0.58529,0.97995 0,0.27241 -0.2651,0.7179 -0.59065,0.98801 -0.32555,0.27018 -0.59334,0.85713 -0.59334,1.30481 0,0.44777 -0.32395,1.18162 -0.72221,1.62968 -0.966,1.08676 -2.43243,4.65372 -2.43243,5.91729 0,0.55661 -0.17762,1.01216 -0.39466,1.01216 -0.21703,0 -0.39467,0.29774 -0.39467,0.66046 0,0.36272 -0.27462,0.96168 -0.60945,1.33166 -0.33481,0.36998 -0.71848,1.36081 -0.85108,2.20154 -0.25412,1.61142 -2.05165,4.71308 -3.82584,6.59654 -0.58082,0.61657 -1.35825,1.59221 -1.72631,2.16932 -0.36812,0.5771 -0.98298,1.2817 -1.36658,1.56523 -1.02582,0.75847 -0.95214,3.67073 0.11808,4.63933 0.58622,0.53051 0.70364,1.48481 0.46447,2.53177 4.37294,0.28546 8.77791,0.19772 13.17967,0.0214 0.26663,-0.12385 0.53616,-0.24387 0.80276,-0.36782 0.72868,-0.30655 1.45207,-0.61899 2.18274,-0.92088 1.20871,0.0855 2.41718,0.19431 3.63789,0.25238 3.56498,0.10942 7.06415,-0.31374 10.61031,-0.65241 4.02352,-0.0283 8.0249,0.33178 12.02521,0.72221 3.06699,-0.62326 6.2258,-0.8316 9.35651,-0.62824 1.23639,0.0803 2.46237,0.26497 3.69428,0.39735 2.19767,0.46899 4.36985,1.04784 6.55091,1.5894 0.69179,0.018 1.37988,0.0673 2.07266,0.0778 2.89305,0.14216 5.78788,0.32418 8.68263,0.44298 0.0789,-0.42893 0.15236,-0.85861 0.22284,-1.2887 -0.32406,-1.80409 -0.60536,-3.6158 -0.83229,-5.43402 -0.62396,-4.89222 -0.4673,-9.84694 -1.04706,-14.73954 -0.38597,-2.53557 -0.61437,-5.09174 -1.0793,-7.61407 -0.18036,-1.31726 -0.69778,-2.54205 -1.23769,-3.75066 -1.19907,-1.20893 -2.3118,-2.47949 -3.0177,-4.15339 -0.011,-0.0257 -0.0161,-0.0547 -0.0268,-0.0805 -0.7759,-0.46262 -1.55264,-0.92881 -2.36262,-1.2887 v -0.003 c -5.33032,-2.3682 -8.62292,-5.54564 -10.23445,-8.73363 -0.40734,-0.0694 -0.84829,-0.1867 -1.2189,-0.23358 -3.36399,-0.42546 -5.22859,-1.4663 -7.20062,-4.01646 -0.32425,-0.4193 -0.56112,-0.63421 -0.90478,-1.04707 -0.0775,-0.27505 -0.13985,-0.55315 -0.22283,-0.82692 -0.63706,-0.6988 -1.11151,-1.35823 -1.11151,-1.85787 0,-0.17234 -0.26778,-0.31413 -0.59333,-0.31413 -0.32555,0 -0.59209,-0.13265 -0.59604,-0.29532 -0.004,-0.16278 -1.15775,-1.51333 -2.56397,-2.99892 -1.40563,-1.48552 -3.05979,-3.43687 -3.67549,-4.33863 -0.6157,-0.90177 -2.12837,-3.0385 -3.36136,-4.74673 -1.23298,-1.70822 -2.34849,-3.52692 -2.47808,-4.04329 -0.12962,-0.51636 -0.37245,-0.93969 -0.53964,-0.93969 -0.16716,0 -0.51874,-0.52491 -0.78396,-1.16519 -0.45885,-1.10768 -3.20536,-3.83857 -5.94145,-5.90924 -1.40949,-1.06651 -1.46767,-3.99771 -0.1772,-9.10415 0.30196,-1.19479 0.85713,-3.74812 1.23232,-5.67565 0.37518,-1.92749 1.05796,-4.05914 1.51691,-4.73599 1.7431,-2.57068 1.27559,-3.51583 -0.96116,-1.94916 -1.17454,0.82261 -7.19127,0.88998 -8.15372,0.0913 -0.49463,-0.41049 -0.66827,-0.40892 -0.92894,0.0137 -0.17624,0.28513 -0.50253,0.40485 -0.72758,0.26579 -0.22504,-0.13908 -0.88077,-0.0389 -1.45516,0.22283 -1.37098,0.62466 -1.88618,-0.0939 -1.57866,-2.19616 0.15228,-1.04104 0.0407,-1.73634 -0.34366,-2.16932 -0.86765,-0.97771 -1.82847,-3.55206 -1.42025,-3.80436 0.989,-0.61119 2.10501,-4.52453 2.75191,-9.65721 0.20516,-1.62765 0.56133,-3.87511 0.78934,-4.99104 0.40619,-1.98843 -0.65994,-4.11021 -2.01897,-5.26757 -0.21494,-0.10268 -0.42613,-0.2118 -0.63362,-0.33022 -0.14242,-0.072 -0.27331,-0.1577 -0.40002,-0.24968 -0.19241,-0.0797 -0.38132,-0.24223 -0.57187,-0.27386 z m 15.07513,0.65778 c -0.2359,-0.14582 -0.40272,0.2169 -0.40272,0.8806 0,0.6205 -0.22273,1.35194 -0.49401,1.62698 -0.39532,0.40083 -0.34011,0.61277 0.27385,1.06587 0.97838,0.72212 1.26459,0.71307 1.55987,-0.0564 0.30341,-0.79078 -0.11917,-2.53445 -0.61482,-2.53445 -0.2063,0 -0.2752,-0.16578 -0.15034,-0.36782 0.12495,-0.20203 0.0487,-0.47849 -0.17183,-0.61481 z m 15.50201,6.82206 c -1.00537,-0.13915 -3.19708,0.71346 -4.85411,2.25791 -0.75961,0.70796 -1.76098,1.40183 -2.2257,1.54108 -0.8282,0.24814 -1.37567,1.85732 -1.00679,2.96401 0.11918,0.35742 0.67618,0.41786 1.9948,0.22015 2.79371,-0.41892 3.68067,-1.03212 4.84605,-3.35331 0.2724,-0.54259 0.90397,-1.55248 1.40416,-2.24449 0.62321,-0.86218 0.44523,-1.30184 -0.15841,-1.38535 z m -124.668506,0.0591 c -0.83134,0.0665 -1.56859,0.48717 -2.45391,1.28066 -3.20496,2.87254 -6.404638,3.47579 -11.010346,2.07534 -1.332962,-0.40532 -1.153698,0.89044 0.335599,2.42706 1.013683,1.04587 1.402442,1.21103 2.268653,0.96384 1.469255,-0.41928 2.045596,-0.12247 4.749405,2.4378 2.539638,2.40488 2.97301,2.59533 6.357599,2.79487 1.19367,0.0704 2.56155,0.1612 3.03919,0.20136 2.03075,0.17068 4.89501,-0.77297 5.25951,-1.73169 0.34418,-0.90524 0.49394,-0.93545 4.27419,-0.89136 3.71993,0.0434 3.99909,-0.011 5.533376,-1.0954 2.42333,-1.71219 2.69784,-3.62441 0.45641,-3.1761 -0.705886,0.14117 -1.739576,-0.12303 -3.012336,-0.76787 -2.37642,-1.20408 -5.13033,-1.98637 -8.23964,-2.33845 -1.29728,-0.14689 -3.33878,-0.74996 -4.53731,-1.33971 -1.26321,-0.62154 -2.18906,-0.90685 -3.02039,-0.84035 z m 92.585196,12.64539 c 0.21704,0 0.39467,0.26785 0.39467,0.59334 0,0.32554 -0.17763,0.59066 -0.39467,0.59066 -0.21704,0 -0.39467,-0.26512 -0.39467,-0.59066 0,-0.32549 0.17763,-0.59334 0.39467,-0.59334 z m -63.32629,14.63484 c -2.52337,-0.18275 -5.7648,0.70297 -6.44083,2.07803 -0.60641,1.23339 -0.82413,1.24726 -7.920146,0.494 -5.76439,-0.61191 -9.35526,-0.58428 -13.65487,0.1101 -2.41308,0.38977 -3.67423,0.40604 -5.396443,0.0671 -3.361779,-0.66138 -7.92804,-0.58964 -9.35383,0.14767 -0.66075,0.34168 -1.666119,0.62287 -2.23375,0.62287 -1.29791,0 -2.558611,0.65769 -2.558611,1.33434 0,0.28429 -0.355271,0.83682 -0.78933,1.22964 -0.90715,0.82096 -1.083367,2.95864 -0.244318,2.95864 1.038633,0 3.607268,-1.2604 4.784308,-2.34919 1.972983,-1.82505 5.135446,-2.49236 7.517429,-1.58672 1.666802,0.63367 7.579535,1.18862 16.240335,1.52765 4.5602,0.1785 8.19276,0.49325 8.48396,0.73295 0.28514,0.23468 3.027646,0.48748 6.231406,0.57724 5.72163,0.16031 5.72305,0.16256 8.83566,1.81492 3.2892,1.74617 4.38693,1.9734 5.52532,1.14104 0.89656,-0.6556 0.50121,-3.2651 -0.59871,-3.95202 -0.43939,-0.2744 -0.74101,-0.91319 -0.74101,-1.5733 0,-1.56894 -2.19884,-4.21855 -3.51709,-4.23661 -0.56044,-0.008 -1.46296,-0.26974 -2.00553,-0.57991 -0.55958,-0.31989 -1.32281,-0.49751 -2.16395,-0.55844 z m -11.152636,11.82384 c -2.50935,0.0997 -5.24282,0.30295 -7.2758,0.56917 -3.63893,0.47651 -4.98663,0.47261 -9.86395,-0.0214 -7.364582,-0.74646 -8.652954,-0.51532 -6.985837,1.25916 0.696697,0.7416 0.771374,1.07969 0.442992,2.02166 -0.525295,1.50684 0.330988,3.16583 1.790759,3.47144 0.591346,0.12385 1.871936,0.42279 2.848566,0.66314 0.97665,0.24035 3.37604,0.56137 5.32932,0.71415 1.95323,0.15279 3.99472,0.19875 4.53731,0.10475 0.54257,-0.0942 2.62791,-0.26628 4.63396,-0.38661 4.35456,-0.26122 7.150606,-1.62864 8.572546,-4.19097 0.458,-0.82531 1.27011,-1.71879 1.80419,-1.98405 1.42939,-0.71002 1.48649,-2.00573 0.0966,-2.17738 -1.13639,-0.14033 -3.42129,-0.14274 -5.930706,-0.0429 z m 81.977566,17.34378 c 0.21704,0 0.39466,0.17771 0.39466,0.39467 0,0.21704 -0.17762,0.39466 -0.39466,0.39466 -0.21704,0 -0.39467,-0.17762 -0.39467,-0.39466 0,-0.21696 0.17763,-0.39467 0.39467,-0.39467 z m -97.672896,25.80895 c -0.48194,-0.26424 -0.87896,0.81574 -0.93967,3.08751 -0.021,0.78838 0.45538,2.06037 1.11956,3.47413 0.19078,0.43683 0.4491,0.93495 0.75174,1.42831 1.64842,3.03341 4.08459,6.4842 6.39787,8.62088 3.4041,3.14418 6.30463,5.51373 7.50132,6.1267 0.77349,0.39618 2.734256,1.60181 4.357416,2.67675 0.039,0.0258 0.0784,0.0438 0.11808,0.0698 0.25995,0.0375 0.52143,0.0797 0.78127,0.11808 0.85985,0.51698 1.57633,0.98888 2.53983,1.54376 2.21228,1.27406 2.04312,1.22473 2.04312,0.58528 0,-0.28708 -0.7556,-0.90097 -1.678,-1.36388 -0.23139,-0.11615 -0.45902,-0.30286 -0.67925,-0.42688 0.29453,0.0459 0.59154,0.0874 0.88598,0.1343 -0.3109,-0.2108 -0.34527,-0.2682 -0.70072,-0.50475 -3.51117,-2.33657 -3.20891,-2.10914 -5.52263,-4.2017 -1.08516,-0.98141 -2.128936,-1.7872 -2.319666,-1.79076 -0.19072,-0.004 -1.00845,-0.58334 -1.81761,-1.2887 -0.80907,-0.70535 -2.481,-2.03976 -3.71307,-2.96671 -2.37777,-1.78896 -5.71306,-6.38954 -6.57775,-9.07461 -0.26076,-0.80963 -0.62211,-1.66541 -0.80544,-1.89815 -0.18333,-0.23275 -0.56094,-1.30554 -0.83765,-2.38678 -0.29676,-1.15953 -0.61563,-1.80405 -0.90478,-1.96258 z m -6.124016,6.15623 c -0.209395,0 -0.378557,0.45531 -0.378557,1.01217 0,1.24553 -0.487924,2.18061 -2.397523,4.59637 -1.840289,2.32823 -2.374186,3.89353 -2.193479,6.4274 0.119042,1.66983 -0.109873,3.74179 -0.528904,5.34007 2.549316,0.0872 5.101223,0.13196 7.683889,0.18794 0.73066,-0.0124 1.45878,0.0137 2.18811,0.0161 -0.28272,-1.20818 -0.67633,-2.82959 -0.9719,-3.96813 -0.33806,-1.30213 -0.97439,-4.55864 -1.41489,-7.23822 -0.80038,-4.86932 -1.270423,-6.37371 -1.986746,-6.37371 z" /></svg>
