<?xml version="1.0" encoding="UTF-8" standalone="no"?>
<!-- Generator: Adobe Illustrator 15.1.0, SVG Export Plug-In . SVG Version: 6.00 Build 0)  -->

<svg
   version="1.1"
   id="Layer_4"
   x="0px"
   y="0px"
   width="283.465px"
   height="283.465px"
   viewBox="0.108 0.228 283.465 283.465"
   enable-background="new 0.108 0.228 283.465 283.465"
   xml:space="preserve"
   sodipodi:docname="people-von-neumann.svg"
   inkscape:version="1.2.2 (b0a8486541, 2022-12-01)"
   xmlns:inkscape="http://www.inkscape.org/namespaces/inkscape"
   xmlns:sodipodi="http://sodipodi.sourceforge.net/DTD/sodipodi-0.dtd"
   xmlns="http://www.w3.org/2000/svg"
   xmlns:svg="http://www.w3.org/2000/svg"><defs
   id="defs11" /><sodipodi:namedview
   id="namedview9"
   pagecolor="#ffffff"
   bordercolor="#000000"
   borderopacity="0.25"
   inkscape:showpageshadow="2"
   inkscape:pageopacity="0.0"
   inkscape:pagecheckerboard="0"
   inkscape:deskcolor="#d1d1d1"
   showgrid="false"
   inkscape:zoom="1.4816644"
   inkscape:cx="93.475959"
   inkscape:cy="114.73583"
   inkscape:window-width="1920"
   inkscape:window-height="1015"
   inkscape:window-x="0"
   inkscape:window-y="0"
   inkscape:window-maximized="1"
   inkscape:current-layer="Layer_4" />

<path
   id="path1393"
   style="display:inline;fill:#000000;fill-opacity:1;stroke-width:0.999999"
   d="M 143.11386 7.3237031 C 133.08789 8.1415146 122.81302 6.7816909 113.02988 9.1225312 C 106.27119 6.6053383 86.696043 19.796015 101.12558 20.077609 C 105.96015 18.76653 118.38778 21.542959 106.8873 18.987766 C 103.05863 16.286811 92.334057 22.073629 101.77792 16.343234 C 109.99744 13.292496 102.23923 16.671469 105.19394 16.878391 C 110.15589 12.735862 123.74659 21.650645 111.45566 17.796359 C 119.81688 23.058261 104.29227 19.624424 110.22323 22.452609 C 105.40194 20.832396 96.508248 20.784711 106.19394 23.464328 C 101.44005 23.401528 102.26831 24.904442 104.11386 27.767063 C 100.60732 23.399914 96.450511 28.059845 95.080656 26.587375 C 102.7547 30.684525 87.042908 28.874554 94.760344 26.698703 C 85.24695 25.324549 107.27448 20.916912 95.686125 22.364719 C 95.230244 13.430128 84.964 22.996957 79.617766 23.325656 C 72.27045 31.538361 62.654246 38.57229 59.289641 49.671359 C 61.312806 46.513089 70.974948 40.332512 66.316984 41.50925 C 70.024703 39.569265 74.464143 32.942378 76.82675 32.645969 C 81.023634 36.122955 73.106582 35.486848 75.352141 38.630344 C 73.616459 43.784988 73.932671 35.930016 69.836516 42.19675 C 67.275797 47.493026 63.620873 46.6683 60.623625 51.913547 C 60.207976 57.508691 58.697129 54.090422 57.145109 57.337375 C 57.973563 55.576141 56.202574 54.195203 56.500578 55.9155 C 56.520148 55.94696 56.537803 55.980449 56.553312 56.015109 C 56.601752 56.110989 56.648952 56.207493 56.686125 56.308078 C 56.761515 56.512086 56.787173 56.695567 56.775969 56.851047 C 56.775882 56.852247 56.77606 56.853753 56.775969 56.854953 C 56.812959 56.956644 56.824562 57.023457 56.871672 57.138156 C 55.290367 60.938636 59.965552 59.262669 57.82675 60.651828 C 57.389928 60.979968 57.239568 61.305555 57.184172 61.626438 C 57.170122 61.453172 57.036446 61.282253 56.676359 61.186984 C 56.11424 62.690739 57.183741 62.175807 57.180266 61.651828 C 56.963945 63.108759 59.715911 64.416656 57.604094 64.903781 C 55.57287 67.754183 59.039602 63.928246 58.818937 65.5405 C 59.038768 64.910232 59.04225 65.144102 58.983 65.694797 C 58.93295 65.644307 58.90194 65.599377 58.818937 65.5405 C 58.132748 66.027409 58.625691 66.191782 58.936125 66.104953 C 58.740774 67.731899 58.280529 71.052769 59.297453 71.067844 C 58.227829 71.462135 60.639333 73.722491 59.141203 73.966281 C 58.72039 74.487328 58.720248 75.464578 60.156828 74.597141 C 60.161628 78.088048 58.60901 80.061344 56.856047 76.778781 C 54.236809 77.121916 57.359021 78.471013 58.557219 79.560031 C 58.309798 80.442041 58.723095 80.382006 58.965422 80.081516 C 59.097935 80.471995 58.71545 80.787514 57.274016 80.936984 C 56.373977 80.714652 56.435517 82.332116 57.047453 83.858859 C 55.580578 82.683167 55.077982 84.706335 55.850187 87.854953 C 55.427886 89.968297 56.515654 82.66315 56.877531 85.638156 C 56.575929 87.596851 56.3569 88.623441 55.881437 89.354953 C 55.793168 89.082711 55.632636 88.742609 55.272062 88.231906 C 54.396829 88.869978 54.956472 89.662649 55.455656 89.901828 C 55.221395 90.114292 54.958874 90.310281 54.604094 90.499484 C 54.595294 91.759574 54.977371 95.273735 56.856047 93.417453 C 61.245812 94.535728 62.542688 86.387101 61.527922 87.458469 C 60.935411 88.246855 60.42673 83.840793 61.047453 83.042453 C 60.28156 82.041227 61.068844 78.826363 61.410734 79.800266 C 63.566853 79.465177 60.690682 79.135987 61.82675 77.310031 C 64.037838 79.193226 66.913023 79.542756 67.527922 72.811984 C 69.991424 62.564399 71.646192 51.582029 80.647063 44.786594 C 87.526542 45.816918 79.618988 36.316038 87.047453 40.345188 C 81.274586 37.695477 94.052875 34.952628 96.098234 36.304172 C 100.94037 38.328476 106.85949 40.99569 99.7955 35.987766 C 99.134404 33.145275 90.502103 32.67231 91.990813 29.429172 C 97.378932 32.613316 108.37046 35.39415 109.59628 34.306125 C 107.83824 39.153236 111.48407 45.451671 115.37363 45.710422 C 107.55731 38.353579 113.4672 42.609486 116.29745 44.251438 C 110.54248 40.150415 110.95383 36.349471 114.98495 41.397922 C 123.62396 47.837987 111.55955 34.418547 118.73495 41.089328 C 124.96645 48.124297 123.23979 46.81223 122.84433 43.685031 C 123.7115 40.986152 116.7974 37.186827 124.63339 41.085422 C 131.44038 46.645111 122.60014 33.82598 129.39902 42.103 C 139.60266 53.073655 119.83909 24.672895 131.95956 38.19675 C 134.7907 38.964548 122.07775 26.530607 132.54355 34.403781 C 132.57195 34.380951 132.57774 34.350006 132.60214 34.325656 C 132.39794 34.259156 132.26831 34.097856 132.733 33.767063 C 132.7823 33.802182 132.79326 33.826709 132.83066 33.858859 C 133.13034 31.759898 126.28959 27.356477 134.34628 32.786594 C 141.60154 38.573753 125.61808 24.06603 136.54355 31.421359 C 137.46929 31.051303 132.11346 26.00955 137.77402 29.368625 C 134.62202 22.208417 146.57733 33.03987 144.15488 27.140109 C 146.77007 28.126003 148.21207 27.448723 149.41073 26.567844 C 148.72621 26.555724 147.62571 26.078998 148.54355 25.337375 C 149.38763 25.765236 149.7199 26.055743 149.81698 26.257297 C 151.40842 25.003704 152.74542 23.675392 156.20956 26.048313 C 153.60211 24.851784 156.18047 21.23035 159.85409 23.556125 C 162.67636 18.059615 164.29087 32.195334 169.80722 31.714328 C 166.26872 35.132181 180.411 42.869482 182.34628 49.452609 C 186.66575 53.812091 190.26249 63.545051 192.73886 68.349094 C 193.01729 68.514724 193.2885 68.693939 193.52206 68.921359 C 193.76159 69.154604 193.9013 69.344067 194.09628 69.593234 C 194.36509 69.90556 194.56851 70.26126 194.76425 70.620578 C 194.92569 70.190242 195.24719 70.332957 196.29745 74.440891 C 196.95392 78.270804 196.26605 75.700816 195.75253 75.585422 C 195.71573 75.801517 195.68133 76.01736 195.64902 76.233859 C 195.60612 76.590709 195.49357 76.89358 195.34042 77.171359 C 195.32512 77.493893 195.29906 77.723815 195.30136 78.181125 C 196.72408 78.368573 196.67435 78.228367 197.2037 80.067844 C 197.153 79.991474 197.06623 79.903221 196.92441 79.802219 C 195.93715 80.505172 197.44636 80.605049 197.21933 80.114719 C 197.35564 80.588273 197.34472 80.494471 197.61972 81.374484 C 197.59442 82.763737 198.11856 85.727559 198.41269 87.767062 C 198.36019 87.709533 198.31859 87.654536 198.22128 87.585422 C 197.42856 88.148576 198.22214 88.297229 198.45956 88.091281 C 198.59338 89.063193 198.6729 89.833046 198.54745 89.854953 C 199.00762 89.889483 200.18983 93.152215 199.19394 93.741672 C 200.05489 97.432792 199.70326 96.503707 200.08261 103.01902 C 199.855 110.54343 204.43978 120.824 205.64902 126.22995 C 206.1769 127.31127 204.10172 124.75883 204.01425 127.27292 C 203.66409 126.21017 203.3077 126.22094 203.42636 130.53659 C 202.92043 139.29748 203.80373 125.6298 202.07089 133.66159 C 200.94155 135.22311 201.22521 136.24172 201.73691 136.8237 C 201.4079 136.69301 201.0803 136.56171 200.53964 136.39206 C 199.96578 140.7483 201.19643 145.80053 201.78573 150.88034 C 201.90143 150.68768 202.04241 150.50013 202.23495 150.34519 C 202.10483 150.99573 201.9914 151.26286 201.87948 151.55222 C 202.43413 156.91906 202.12667 162.30245 198.02597 166.93503 C 192.08475 174.57989 193.12942 178.45985 190.5123 185.79831 C 188.83745 192.84277 191.42286 190.76321 195.55136 188.84714 C 196.81144 191.07563 194.62252 198.81906 196.86972 192.05808 C 196.87172 193.53329 196.52247 195.23922 196.07675 196.84128 C 195.04141 196.12499 193.88569 198.181 192.81894 201.32761 C 192.81928 201.33361 192.82089 201.33929 192.82089 201.34519 C 192.83089 201.61473 192.86152 201.88851 192.80722 202.15573 C 192.78622 202.2594 192.75259 202.3602 192.72519 202.46238 C 192.60806 202.73806 192.44223 202.96961 192.24863 203.17527 C 192.01093 203.9908 191.76817 204.78607 191.54745 205.67722 C 191.24809 205.9686 191.14708 206.57035 191.11972 207.33933 C 191.18992 207.49278 191.25246 207.66475 191.30331 207.85886 C 191.42061 208.30643 191.43566 208.76381 191.39316 209.22214 C 191.32836 209.6435 191.27584 210.06387 191.25644 210.48972 C 191.25594 210.97437 191.07935 211.43311 190.98105 211.90183 C 190.92495 212.18823 190.93871 212.48226 190.92831 212.77292 C 190.90011 213.12365 190.93527 213.48404 190.86777 213.83152 C 190.84327 213.95762 190.80412 214.07984 190.77402 214.20456 C 190.66521 214.46998 190.52682 214.72843 190.358 214.96433 C 190.20496 215.31942 190.02247 215.6604 189.78964 215.97409 C 189.58275 217.13791 186.52035 220.09101 185.15683 221.59909 C 185.02363 221.72738 184.9302 221.84701 184.79159 222.00925 C 184.73379 222.07935 184.68485 222.14377 184.64316 222.20066 C 184.30755 222.62988 183.98175 223.13503 183.7623 223.83738 C 182.97077 224.70657 182.3625 225.57534 182.27011 226.07566 C 182.20471 226.42978 182.10582 226.71863 182.0162 227.02488 C 182.0715 227.45818 182.0694 227.89381 181.88925 228.31003 C 181.73968 228.64499 181.56363 228.9656 181.37363 229.27878 C 181.24214 229.49316 181.09042 229.69274 180.94003 229.89402 C 180.76514 230.11276 180.5785 230.32193 180.38144 230.52097 C 180.15674 230.75076 179.94327 230.92152 179.66464 231.04831 C 179.52616 231.21098 179.41006 231.39233 179.25058 231.53659 C 179.05484 231.74175 178.84146 231.93153 178.59823 232.07956 C 178.32545 232.23447 178.04087 232.3633 177.75058 232.48191 C 177.45959 232.58953 177.16174 232.67903 176.858 232.74363 C 176.47403 232.81332 176.08264 232.84528 175.7037 232.728 C 175.44355 232.6454 175.19376 232.53272 174.93027 232.46042 C 174.77487 232.41412 174.70327 232.39517 174.62558 232.36277 C 174.58788 232.35877 174.54988 232.36877 174.5123 232.36277 C 174.24274 232.32347 173.97659 232.2615 173.71738 232.18113 C 173.4198 232.08653 173.13064 231.97289 172.81698 231.94089 C 172.68101 231.91219 172.54609 231.88129 172.41073 231.84909 C 172.33263 231.84409 172.25422 231.84407 172.17636 231.83738 C 172.09346 231.82398 172.01031 231.81641 171.92831 231.79831 C 171.87351 231.78621 171.83121 231.7443 171.77792 231.728 C 171.55859 231.7106 171.33825 231.69532 171.12363 231.64792 C 170.77577 231.58842 170.47782 231.47762 170.22128 231.22605 C 170.15928 231.16135 170.1005 231.09517 170.04745 231.02683 C 168.43932 230.58564 168.08143 225.52377 170.07089 221.86863 C 170.60836 220.16353 170.39575 217.18336 170.98495 216.89988 C 170.98895 216.84788 170.99193 216.79558 170.99863 216.74167 C 171.05372 216.27265 171.07263 215.80004 171.11386 215.32956 C 171.20056 214.59651 171.43213 213.89317 171.62363 213.18308 C 171.65562 213.04357 171.69273 212.90632 171.733 212.76902 C 171.56989 212.41648 171.43042 212.05553 171.38144 211.66355 C 171.31874 211.14945 171.266 210.62777 171.04941 210.14988 C 171.00351 210.04497 170.95641 209.94086 170.90878 209.83738 C 170.87588 209.78348 170.84984 209.71484 170.82284 209.65573 C 170.65749 209.31525 170.47039 208.98816 170.21933 208.69675 C 169.89797 208.32374 169.849 208.15402 169.95956 208.09714 C 168.81621 206.39232 167.54515 204.95108 165.47519 204.01511 C 162.75037 199.78452 159.93194 199.53016 159.96542 197.42331 C 156.36839 192.74903 151.89801 186.48041 146.22909 184.6987 C 152.0874 194.00024 143.25132 195.69876 136.08456 195.6948 C 127.5985 200.57512 117.62165 198.8686 110.16269 194.38034 C 108.5531 183.87939 120.37761 174.60981 119.77402 163.28073 C 121.21256 158.17089 116.18564 149.8457 117.49081 145.24558 C 122.48517 138.38966 106.79665 134.30519 101.66464 132.89988 C 98.577631 131.56691 92.767133 130.24807 89.197844 128.08542 C 88.989573 128.07312 88.781348 128.0618 88.572844 128.0698 C 88.023957 128.083 87.471083 128.0945 86.930266 128.1987 C 86.373764 128.2818 85.816692 128.33255 85.254484 128.35495 C 84.94994 128.39625 84.658589 128.49353 84.377531 128.61667 C 83.778085 128.88169 83.218663 129.23007 82.600188 129.45066 C 82.441444 129.48126 82.284459 129.52615 82.123625 129.54245 C 81.889388 129.56625 81.655576 129.55141 81.424406 129.51511 C 81.390186 129.54451 81.359577 129.57771 81.324797 129.60691 C 80.959933 129.91262 80.600944 130.06829 80.275969 130.11472 C 80.297659 130.17552 80.298194 130.17412 80.322844 130.24363 C 78.848091 131.01311 76.80595 132.11688 75.219328 133.15183 C 75.623478 133.59507 74.878005 133.69289 74.733 133.45261 C 72.928844 134.70066 72.0719 135.78048 74.484953 135.91941 C 68.837285 139.9134 73.461813 145.54416 70.961516 151.96433 C 70.794992 153.18604 70.752495 154.39421 70.787688 155.59519 C 71.248823 155.52639 71.717995 155.50118 72.186125 155.49948 C 72.50917 155.49848 72.831373 155.50752 73.149016 155.51902 C 73.322124 155.53842 73.441595 155.55314 73.584563 155.56784 C 73.760337 155.36024 73.955292 155.16588 74.174406 154.98972 C 74.958097 154.44186 75.793322 153.96447 76.750578 153.80222 C 77.528177 153.67264 78.314357 153.58196 79.07675 153.37448 C 79.185219 153.33928 79.291869 153.30208 79.400969 153.26902 C 79.510138 153.23592 79.578277 153.25022 79.668547 153.15769 C 80.318259 152.49215 80.96807 152.22802 81.510344 152.24167 C 81.566514 152.24267 81.620644 152.24764 81.674406 152.25534 C 83.248779 151.868 84.629075 153.19906 83.803313 157.51902 C 83.0117 163.39356 87.811042 152.21599 86.684172 159.55222 C 82.300026 161.76423 87.88071 166.87935 85.984953 161.49558 C 93.148356 159.87893 103.63128 158.23735 91.074797 157.55808 C 87.673136 154.45886 83.862249 145.82394 89.885344 153.14011 C 96.39147 160.20498 103.60477 141.68063 105.47323 151.47409 C 99.820205 157.6467 115.45542 150.06767 114.80331 153.73777 C 113.6976 157.77406 111.0233 160.85783 114.49667 159.98972 C 110.54335 163.84594 112.09891 170.39042 108.76425 177.11277 C 112.18085 182.26754 104.1417 192.39328 99.988859 198.61472 C 99.628367 199.11666 99.407045 199.58356 99.156828 200.05808 C 99.145738 200.03658 99.081728 200.01021 99.033781 199.98581 C 99.009651 200.06921 98.978211 200.14975 98.940031 200.228 C 98.984461 200.224 99.041548 200.22502 99.070891 200.20652 C 96.432153 205.39401 100 208.45036 102.13339 200.36863 C 106.34998 187.99172 113.62787 200.24938 119.57675 205.03855 C 126.21753 204.03007 124.91872 214.62321 128.73105 207.64206 C 135.16947 207.2802 141.39708 200.38804 146.77988 195.8823 C 152.93193 198.37871 153.31276 195.799 155.02206 201.04636 C 159.8121 205.8058 165.53303 212.23008 166.7623 219.51902 C 168.34125 224.00012 160.08543 211.7599 156.69784 217.51316 C 148.30061 222.14524 135.02897 222.27764 125.10605 222.74753 C 119.15147 219.15581 110.20048 222.92429 106.69003 216.98777 C 110.10728 214.58465 109.33846 214.94577 113.81113 216.78464 C 111.21458 211.06293 110.94527 211.21905 108.40488 213.02097 C 108.61876 212.67278 108.58407 212.21613 108.47519 211.74558 C 108.42989 211.72698 108.38389 211.70542 108.33652 211.68113 C 108.18762 211.60213 108.03488 211.52615 107.89902 211.42527 C 107.84932 211.38607 107.80492 211.35553 107.74081 211.34323 C 107.66481 211.29853 107.44851 211.33942 107.36191 211.33542 C 107.16989 211.34942 106.97749 211.36935 106.78964 211.41355 C 106.64568 211.44555 106.49583 211.46435 106.36777 211.54245 C 106.29437 211.58875 106.23761 211.65132 106.17441 211.71042 C 106.05561 211.82154 105.93552 211.93152 105.79745 212.01902 C 105.73035 212.05072 105.66578 212.08862 105.59628 212.11472 C 105.44818 212.17032 105.28728 212.18739 105.12948 212.19089 C 105.11488 212.21379 105.10347 212.2386 105.08847 212.2612 C 104.821 212.66505 104.49221 212.8141 104.24081 212.77878 C 101.8531 213.93849 99.808104 214.07271 98.414641 214.21823 C 100.38131 214.74093 98.589888 216.28643 98.199797 214.24558 C 97.002487 214.38531 96.328064 214.60604 96.473234 215.74558 C 95.823197 217.30161 95.151791 225.74803 98.397063 227.81784 C 100.53126 230.69904 105.50102 217.15924 108.95566 225.53659 C 108.69419 226.19023 108.84261 226.85893 109.19003 227.50925 C 109.42832 227.53025 109.62264 227.60425 109.86386 227.75925 C 109.98331 227.78715 110.10319 227.81635 110.21738 227.86277 C 110.52646 227.99344 110.83277 228.12495 111.06113 228.38425 C 111.12932 228.46705 111.2058 228.54555 111.2662 228.63425 C 111.38448 228.80805 111.45866 229.0014 111.50839 229.20261 C 111.5099 229.20866 111.51279 229.21413 111.51425 229.22019 C 111.5623 229.42148 111.58501 229.63086 111.59628 229.83542 C 111.59528 229.89442 111.59052 229.95176 111.58652 230.00925 C 111.58697 230.00947 111.58802 230.00903 111.58847 230.00925 C 111.80362 230.11553 112.00155 230.25565 112.16659 230.46042 C 112.19559 230.49642 112.21881 230.53522 112.24081 230.57566 C 112.24124 230.57644 112.24234 230.57682 112.24277 230.57761 C 112.30973 230.70139 112.35247 230.84127 112.41464 230.96823 C 112.4509 231.12849 112.48258 231.28935 112.51425 231.45066 C 112.51437 231.45128 112.51413 231.45198 112.51425 231.45261 C 112.54604 231.61454 112.57822 231.77683 112.61777 231.93698 C 112.73005 232.39195 112.84842 232.84555 112.96152 233.30027 C 113.07607 233.80509 113.20683 234.30764 113.28573 234.8198 C 113.34473 235.20689 113.38443 235.59689 113.47714 235.978 C 113.54534 236.23316 113.59323 236.49682 113.75839 236.71042 C 113.99955 237.03718 114.28876 237.30565 114.6412 237.51316 C 115.00485 237.76553 115.35054 238.04616 115.72714 238.27878 C 116.12407 238.54996 116.49745 238.85635 116.77597 239.25339 C 116.96608 239.5161 117.13688 239.79579 117.34238 240.04636 C 117.39377 239.92541 117.45137 239.81527 117.48886 239.66745 C 120.2898 245.01349 130.22188 239.99642 135.65097 241.89206 C 141.85008 244.6484 156.80107 237.72833 146.19394 235.11472 C 138.63522 233.11812 123.27533 238.31846 122.03378 230.56394 C 118.17143 225.27396 130.5815 230.78595 133.70566 228.55417 C 145.13848 229.93265 149.71121 222.9022 160.44198 227.27683 C 164.3897 234.46927 172.87483 243.24304 164.90488 250.62058 C 158.95873 258.18041 147.1853 261.44663 138.39511 257.90769 C 132.17114 256.68516 124.9411 258.65277 122.63925 254.1987 C 119.39333 250.58133 117.62009 252.81899 115.16855 251.13034 C 111.09706 246.62719 107.2824 241.15084 101.28573 240.84714 C 104.25855 237.55292 96.336423 238.96978 93.938078 236.56394 C 93.42584 236.79091 92.502339 236.70338 93.047453 235.65573 C 93.226616 235.68903 93.30569 235.73143 93.440031 235.76902 C 93.373411 235.59455 93.307594 235.41968 93.285734 235.21628 C 89.275719 233.95775 87.819939 229.15607 87.383391 225.77292 C 87.366571 225.73932 87.349242 225.70642 87.334563 225.67136 C 87.257883 225.45938 87.263009 225.23485 87.270109 225.01316 C 87.270069 225.01016 87.27012 225.00739 87.270109 225.00339 C 87.237189 224.96309 87.204263 224.92169 87.172453 224.88034 C 87.141363 229.65804 86.35594 222.52453 84.57675 223.79636 C 84.53137 223.60161 84.473877 223.41216 84.404875 223.22995 C 85.946323 222.10923 79.618184 216.74057 85.943938 221.90769 C 82.826146 217.5779 85.750513 215.1137 81.9205 215.18894 C 81.07887 215.39887 80.710675 216.03168 80.590422 216.8198 C 80.556292 216.7977 80.521772 216.7769 80.486906 216.7573 C 80.542226 216.49455 80.473505 216.09869 80.070891 215.5737 C 79.897572 216.03897 79.869094 216.35997 79.893156 216.60495 C 79.877556 216.60095 79.861911 216.59819 79.846281 216.59519 C 79.643764 212.24593 75.23961 212.09042 73.543547 205.68113 C 74.043532 201.1444 71.032211 195.15315 71.441984 194.89988 C 66.860505 188.37071 71.161309 197.41944 68.656828 194.61863 C 71.677014 200.3822 72.716971 208.67778 75.371672 210.12448 C 72.968554 213.51225 77.545551 211.32349 74.090422 213.93503 C 71.304018 218.91156 78.8483 232.80469 78.070891 230.42331 C 77.815453 229.17616 77.658372 228.59367 77.449797 227.62644 C 77.409957 227.49877 77.369777 227.37108 77.322844 227.24558 C 77.244134 226.98952 77.171431 226.73089 77.102141 226.47214 C 77.078361 226.39114 77.051179 226.31236 77.020109 226.23386 C 77.004469 226.19436 76.976228 226.15856 76.969328 226.11667 C 76.968128 226.10967 76.97663 226.12465 76.983 226.13425 C 76.981 226.12825 76.978841 226.12227 76.977141 226.11667 C 76.966901 226.08287 76.960709 226.04827 76.957609 226.01316 C 76.954909 225.96646 76.952456 225.91926 76.955656 225.87253 C 76.958556 225.84683 76.963558 225.82156 76.969328 225.79636 C 76.973628 225.76496 76.977127 225.73401 76.981047 225.70261 C 76.983847 225.68231 76.987813 225.66266 76.990813 225.64206 C 76.428246 223.23421 75.911316 221.37307 75.281828 220.28855 C 73.420755 217.26307 79.113054 226.13289 78.373625 224.87644 C 78.402495 225.0532 78.426703 225.18677 78.453703 225.35495 C 78.555995 225.55426 78.630662 225.76792 78.697844 225.98191 C 78.768424 226.24018 78.839837 226.49943 78.918547 226.75534 C 78.986777 226.93453 79.040214 227.11767 79.098234 227.30027 C 79.167734 227.49658 79.216267 227.69895 79.262297 227.90183 C 79.347257 228.26976 79.426315 228.63864 79.498625 229.00925 C 79.562765 229.32521 79.641251 229.63804 79.727141 229.9487 C 79.728141 229.9517 79.726094 229.95547 79.729094 229.95847 C 79.718184 229.50476 79.844877 228.84153 80.275969 227.87253 C 81.304383 229.86695 80.326259 231.01047 79.893156 230.5737 C 79.894256 230.5787 79.895963 230.58413 79.897063 230.58933 C 79.919892 230.77034 79.951192 230.9478 79.996672 231.12448 C 80.099672 231.58302 80.050282 232.05482 80.022063 232.51902 C 80.016363 232.56272 80.033065 232.60462 80.029875 232.64792 C 80.120135 232.74512 80.209499 232.84328 80.299406 232.94089 C 80.334266 232.93489 80.367151 232.92952 80.377531 232.92722 C 80.497536 232.89972 80.609459 232.88324 80.715422 232.87644 C 80.759442 232.84294 80.812842 232.82239 80.852141 232.78269 C 80.869611 232.76749 80.886535 232.75197 80.904875 232.73777 C 80.929685 232.71857 80.925266 232.76822 80.955656 232.68113 C 80.955238 232.65883 80.95495 232.63692 80.955656 232.61472 C 80.982046 231.79244 81.372996 231.37832 81.770109 231.37448 C 82.90898 228.34481 84.339696 246.6463 88.768156 249.0698 C 100.87437 259.18124 115.01041 266.76078 129.71152 272.42917 C 141.08162 274.90468 153.38509 274.19083 162.95761 267.103 C 174.73152 261.48163 183.07404 249.9213 188.50644 238.43698 C 192.01001 227.94099 199.56202 219.25629 201.33652 208.15964 C 204.17299 200.41882 204.32124 192.47286 208.97909 185.41355 C 210.4997 179.75465 212.43523 175.42437 216.40878 175.71628 C 216.76325 175.59476 217.26515 175.62568 217.88339 175.90183 C 218.0913 175.99473 218.29088 176.11547 218.5123 176.17527 C 218.5859 176.19517 218.81087 176.23758 218.87167 176.24948 C 219.25763 176.31778 219.64407 176.38081 220.03378 176.42331 C 220.38491 176.45611 220.73944 176.43666 221.08847 176.39206 C 221.43187 176.34216 221.77673 176.28749 222.11581 176.21042 C 222.11681 176.20988 222.11872 176.21096 222.11972 176.21042 C 225.07167 174.61752 226.49415 173.07868 220.81503 174.58347 C 217.29585 174.74829 214.48704 172.45615 214.68417 168.95066 C 214.84628 166.21496 213.76385 163.80105 214.10995 160.80613 C 214.06765 158.69894 214.07253 156.26065 214.15683 154.55808 C 210.68913 150.00822 209.75403 165.25637 208.63534 166.27878 C 209.11938 158.22796 212.38106 153.6808 213.74081 149.71823 C 211.71941 152.78112 213.46572 145.72295 214.04355 145.55027 C 214.47304 144.06137 216.14512 139.25582 217.31113 143.75144 C 218.31871 147.13281 218.06953 151.62204 217.82089 154.79441 C 217.05001 155.22547 216.61108 155.59939 216.36972 155.86081 C 216.61024 155.48445 216.94492 154.73258 217.02402 153.01316 C 216.64213 151.79865 218.10695 140.61033 215.39316 144.44675 C 215.02612 147.08897 214.73398 153.2785 215.18027 153.55222 C 215.00518 160.30891 214.95088 159.44905 217.03769 165.76316 C 215.5767 163.01686 214.99238 170.43182 217.71933 172.36277 C 216.56555 173.37546 219.70583 173.1469 220.35605 173.62448 C 221.13122 173.92588 223.11592 173.30961 225.09042 171.93503 C 225.10902 171.82636 225.12928 171.71783 225.15488 171.61081 C 224.04325 172.47064 222.81723 172.68869 221.56698 171.52292 C 221.41193 169.79438 224.29132 163.51682 221.07089 163.67527 C 224.49665 161.1765 225.58159 163.04869 227.50644 161.29245 C 230.79192 155.04729 230.45346 160.91905 230.91073 160.85886 C 232.53072 156.6119 231.827 152.0556 233.40292 147.74753 C 231.47637 151.6597 230.51543 155.63955 227.83261 159.228 C 225.14589 161.52994 221.81518 159.46562 224.08066 160.86277 C 224.34959 163.6112 221.33291 155.8952 219.16269 155.83347 C 217.50505 155.93384 223.35092 155.40719 220.58261 155.13816 C 225.66013 154.87305 229.05203 147.57563 227.74863 141.80027 C 227.82632 137.52194 222.92308 138.78617 220.3912 137.87839 C 220.10191 133.96284 225.20287 131.67017 226.98105 128.353 C 230.38612 125.90665 232.58166 129.48712 234.03573 132.08152 C 234.499 131.7061 234.9063 131.31069 235.2623 130.90378 C 235.2504 131.0335 235.26332 131.11307 235.27402 131.19284 C 235.33362 131.01036 235.4415 130.81404 235.608 130.61277 C 235.70832 130.4915 235.72896 130.46122 235.76034 130.42331 C 235.75734 130.41731 235.75032 130.40352 235.74863 130.39792 C 235.56501 129.91953 235.47866 129.41851 235.39316 128.9155 C 235.33036 128.64592 235.29736 128.4885 235.21542 128.23777 C 235.19432 128.19197 235.17267 128.14647 235.15097 128.10105 C 235.06917 127.87333 234.92243 127.68005 234.80917 127.46823 C 234.72767 127.33617 234.64295 127.20696 234.54745 127.08347 C 234.31724 126.82624 234.07242 126.56795 233.78964 126.36862 C 233.39541 126.14099 233.00612 125.90449 232.608 125.68308 C 232.32015 125.51369 232.03723 125.33729 231.75253 125.16355 C 231.47835 125.07385 231.19785 125.00473 230.91269 124.96237 C 230.54034 125.01767 230.17825 125.11975 229.81698 125.22409 C 229.4508 125.32379 229.08409 125.42324 228.71347 125.50534 C 228.35173 125.58774 227.99225 125.68314 227.62753 125.75144 C 227.40863 125.78204 227.18965 125.8078 226.96933 125.8237 C 222.39631 129.27531 222.71165 125.7618 223.00644 122.28073 C 222.82717 120.92236 222.94784 120.77104 222.85214 120.05612 C 222.70756 118.95991 222.71347 119.15438 222.79941 118.49167 C 223.35394 116.77777 222.87901 115.92082 223.63925 115.43894 C 223.66235 115.29147 223.67805 115.14299 223.70175 114.99558 C 223.85893 114.2265 224.06348 113.45223 224.49472 112.78464 C 225.33617 108.3993 223.37474 104.06354 225.58261 99.644016 C 228.48339 90.011321 225.17256 78.755021 222.91464 69.239719 C 220.85374 58.392695 211.5065 50.999952 206.98886 41.546359 C 204.70111 37.445808 194.50991 25.176529 193.86191 27.575656 C 191.39368 25.323153 184.89052 19.262972 179.99081 15.655734 C 171.89299 12.359707 164.39288 6.370662 155.07284 8.6362031 C 151.01713 8.6355855 146.72919 9.6785769 143.11386 7.3237031 z M 93.440031 235.76902 C 93.554241 236.06809 93.71363 236.33882 93.938078 236.56394 C 94.331151 236.38982 94.412073 236.04099 93.440031 235.76902 z M 98.199797 214.24558 C 98.273487 214.23658 98.336806 214.22633 98.414641 214.21823 C 98.325631 214.19453 98.273659 214.16096 98.168547 214.14206 C 98.175147 214.18596 98.191937 214.20466 98.199797 214.24558 z M 74.733 133.45261 C 74.875391 133.35411 75.065614 133.25209 75.219328 133.15183 C 75.166808 133.09423 75.125008 133.03933 75.027922 132.97019 C 74.708993 133.19732 74.671099 133.35003 74.733 133.45261 z M 201.87948 151.55222 C 201.85608 151.32547 201.81173 151.10699 201.78573 150.88034 C 201.25827 151.75875 201.4806 152.60355 201.87948 151.55222 z M 149.81698 26.257297 C 149.68324 26.362661 149.54968 26.465847 149.41073 26.567844 C 149.72626 26.573444 149.92241 26.476174 149.81698 26.257297 z M 132.83066 33.858859 C 132.80586 34.032272 132.73716 34.19066 132.60214 34.325656 C 132.88738 34.418556 133.32164 34.281946 132.83066 33.858859 z M 54.604094 90.499484 C 53.775887 89.33668 53.775892 91.662446 54.604094 90.499484 z M 135.99081 9.1713594 C 145.24892 12.686066 115.8605 12.847663 129.74472 10.542453 C 132.11635 10.93705 134.05678 10.039585 135.99081 9.1713594 z M 118.14511 11.073703 C 120.75391 13.458706 115.60951 13.559502 118.14511 11.073703 z M 109.90683 12.612766 C 113.07138 13.205368 108.87769 14.567992 109.90683 12.612766 z M 108.74277 13.6655 C 109.9043 14.493729 107.57966 14.493678 108.74277 13.6655 z M 114.84823 15.690891 C 116.85951 16.650635 112.02899 15.947076 114.84823 15.690891 z M 106.79941 20.149875 C 105.63629 20.978079 107.96253 20.978079 106.79941 20.149875 z M 159.61777 21.136203 C 159.70927 21.401083 159.32848 21.445734 159.12363 21.327609 C 159.29267 21.275689 159.45847 21.211701 159.61777 21.136203 z M 91.885344 22.743625 C 93.048307 23.571829 90.722381 23.571829 91.885344 22.743625 z M 158.02011 24.364719 C 159.23451 28.370209 161.65015 27.393863 158.02011 24.364719 z M 145.59433 24.626438 C 148.41914 26.527652 146.60846 28.969765 145.59433 24.626438 z M 158.02011 25.985813 C 156.85699 26.814016 159.18323 26.814016 158.02011 25.985813 z M 160.61386 27.282688 C 159.45074 28.110891 161.77698 28.110891 160.61386 27.282688 z M 138.56894 29.876438 C 137.40582 30.704641 139.73206 30.704641 138.56894 29.876438 z M 78.994719 31.173313 C 79.066079 32.954349 77.119665 32.248623 78.994719 31.173313 z M 110.39316 31.370578 C 114.51892 33.176845 112.84947 35.784766 110.39316 31.370578 z M 99.199797 33.528781 C 99.154437 36.187891 102.92025 34.079113 99.199797 33.528781 z M 117.62167 33.890109 C 120.09647 34.345227 117.96431 36.205907 117.62167 33.890109 z M 81.361906 34.487766 C 83.044461 35.103506 82.228738 37.728198 81.361906 34.487766 z M 122.53573 35.063938 C 125.3934 36.797401 122.61413 38.325199 122.53573 35.063938 z M 112.04745 35.077609 C 116.07793 36.916015 115.07277 39.747318 112.04745 35.077609 z M 87.346281 36.358859 C 88.509243 37.187218 86.18332 37.187223 87.346281 36.358859 z M 107.24863 38.470188 C 106.49616 40.498203 108.71711 38.850709 107.24863 38.470188 z M 106.03183 40.825656 C 103.94501 45.94311 123.17541 57.824625 113.60605 47.632297 C 111.49185 45.024322 108.86577 42.64277 106.03183 40.825656 z M 103.233 42.882297 C 101.34841 43.815013 105.04208 43.448708 103.233 42.882297 z M 97.361906 43.491672 C 95.682962 47.230643 91.163931 44.093656 97.020109 48.112766 C 96.418473 48.456681 94.921567 48.448369 93.402922 48.429172 C 93.443592 48.271587 93.402746 47.988742 93.221281 47.517063 C 93.210731 47.514663 93.200551 47.51165 93.190031 47.50925 C 93.117431 47.48618 93.051967 47.462095 92.990813 47.431125 C 92.253815 47.521975 92.494742 48.116325 92.867766 48.435031 C 89.890834 48.411501 87.425496 48.569261 93.291594 51.921359 C 95.715409 54.572038 100.92856 56.209308 103.86777 56.310031 C 103.35531 56.115454 102.39039 55.390285 100.96347 53.677219 C 103.3559 54.675865 104.38113 55.939488 104.27988 56.298313 C 106.80443 56.242143 107.11919 54.82285 100.96738 51.565891 C 91.590473 45.93507 107.50933 52.159084 105.68222 53.116672 C 111.82089 56.746943 105.10647 50.588756 102.65683 47.7905 C 102.08234 48.355807 96.955215 47.89351 98.563078 46.171359 C 100.8628 46.685551 101.90188 47.079408 102.36191 47.38425 C 101.42545 46.195371 101.7913 46.027171 106.1705 48.966281 C 117.26414 52.746302 97.91212 43.969084 97.361906 43.491672 z M 102.36191 47.38425 C 102.48141 47.535982 102.49474 47.605317 102.65683 47.7905 C 102.75816 47.69076 102.60793 47.547253 102.36191 47.38425 z M 104.72323 43.772922 C 104.37239 46.202251 108.04243 45.135385 104.72323 43.772922 z M 92.533781 44.788547 C 91.370821 45.616752 93.696742 45.616747 92.533781 44.788547 z M 125.60214 45.436984 C 124.43902 46.265345 126.76526 46.265345 125.60214 45.436984 z M 90.588469 47.382297 C 89.425507 48.2105 91.751431 48.2105 90.588469 47.382297 z M 92.123625 47.815891 L 92.039641 47.870578 L 92.123625 47.815891 z M 63.356047 48.679172 C 63.364147 48.684972 63.363842 48.689067 63.371672 48.694797 C 63.236364 48.841003 63.14214 49.0049 63.094328 49.177219 C 63.004038 49.077759 63.007568 48.927352 63.356047 48.679172 z M 96.424406 49.327609 C 97.587368 50.155968 95.261445 50.155973 96.424406 49.327609 z M 89.291594 50.624484 C 89.253974 50.651274 89.247925 50.669737 89.217375 50.694797 C 89.267155 50.870685 89.299218 51.050292 89.313078 51.235813 C 89.593439 51.222713 89.853519 51.025121 89.291594 50.624484 z M 57.522062 51.938938 C 56.359257 52.767144 58.685025 52.767139 57.522062 51.938938 z M 57.522062 52.587375 C 57.084063 53.013028 56.772663 53.363415 56.543547 53.659641 C 56.553447 53.55734 56.484097 53.420046 56.225187 53.235813 C 55.398075 53.82483 56.308457 53.974974 56.500578 53.726047 C 56.458668 53.782267 56.443791 53.819167 56.408781 53.870578 C 56.338281 53.880478 56.307353 53.86768 56.225187 53.88425 C 56.193238 54.023366 56.209023 54.091784 56.203703 54.192844 C 55.949936 54.690066 56.113603 54.842297 56.418547 54.716281 C 56.779039 54.778121 57.366943 54.225225 57.166594 53.958469 C 57.37355 53.598704 57.535153 53.149476 57.522062 52.587375 z M 89.615813 52.606906 C 87.733983 53.540821 91.422968 53.177589 89.615813 52.606906 z M 91.102141 52.811984 C 90.391995 54.823495 93.626302 53.217178 91.102141 52.811984 z M 89.834563 56.024875 C 93.337863 59.608026 97.711728 59.231492 90.897063 56.276828 L 89.834563 56.024875 z M 99.666594 56.386203 C 102.42711 59.35779 105.74878 59.923361 99.666594 56.386203 z M 56.367766 57.794406 C 56.296556 57.769406 56.191326 57.829506 56.070891 57.942844 C 56.068191 57.953284 56.065778 57.963664 56.063078 57.974094 C 56.042038 58.049794 56.016272 58.124553 55.990812 58.198703 C 56.52362 58.811017 56.659895 57.897007 56.367766 57.794406 z M 55.096281 60.374484 C 54.876518 60.665938 54.779051 60.942377 54.752531 61.198703 C 54.742631 61.195903 54.741317 61.189704 54.731047 61.186984 C 54.340447 62.231555 54.731949 62.295197 55.012297 62.065891 C 55.806791 63.16978 57.994206 63.168349 55.096281 60.374484 z M 55.391203 62.94675 C 54.138282 63.610631 56.716793 63.32141 55.391203 62.94675 z M 56.225187 62.94675 C 55.109286 63.449083 57.415469 63.647297 56.225187 62.94675 z M 59.385344 63.880344 C 59.89874 64.775153 58.673617 63.807164 59.385344 63.880344 z M 55.512297 64.755344 C 54.447075 65.192713 56.430916 65.665579 55.512297 64.755344 z M 54.928312 65.5405 C 53.983876 66.022169 56.051633 66.320674 54.928312 65.5405 z M 55.938078 65.5405 C 53.808765 66.330822 57.290011 66.55358 55.938078 65.5405 z M 57.348234 66.335422 C 57.236923 66.298712 57.119672 66.298884 56.998625 66.349094 C 55.253032 69.41045 57.028766 72.314731 57.994719 67.954562 C 58.610655 68.653214 58.127414 66.592418 57.348234 66.335422 z M 192.38534 68.13425 C 192.38234 68.13845 192.38495 68.137863 192.38144 68.142062 C 192.43874 68.174332 192.49613 68.205126 192.55331 68.237766 C 192.50411 68.202376 192.46841 68.166796 192.38534 68.13425 z M 57.971281 68.944797 C 57.218934 70.976479 59.441263 69.326967 57.971281 68.944797 z M 57.410734 69.69675 C 56.620916 72.408506 58.31636 74.748026 58.1705 70.726047 C 58.781203 68.845783 57.489695 71.690092 57.410734 69.69675 z M 57.522062 73.317844 C 56.359257 74.14605 58.685025 74.146045 57.522062 73.317844 z M 60.258391 73.616672 C 60.699898 74.33649 59.588848 73.910378 60.258391 73.616672 z M 57.971281 74.780734 C 57.218988 76.808913 59.441153 75.161387 57.971281 74.780734 z M 58.619719 75.429172 C 57.867426 77.457346 60.089432 75.809671 58.619719 75.429172 z M 59.268156 75.429172 C 58.515862 77.457348 60.738028 75.809669 59.268156 75.429172 z M 59.143156 76.599094 C 57.255414 77.528802 60.952417 77.167844 59.143156 76.599094 z M 58.818937 77.208469 C 57.656132 78.036675 59.9819 78.03667 58.818937 77.208469 z M 194.77597 77.948703 C 194.66858 78.07261 194.56002 78.195749 194.44589 78.32175 C 194.27763 78.522598 194.10024 78.712841 193.91855 78.897922 C 193.35363 80.287378 196.63023 79.002154 194.77597 77.948703 z M 55.051359 78.515109 C 54.395755 79.988804 58.097669 79.863615 55.051359 78.515109 z M 65.57675 78.819797 C 65.5648 78.830187 65.570552 78.836841 65.559172 78.847141 C 65.565072 78.844641 65.5708 78.841728 65.57675 78.839328 C 65.57465 78.829928 65.57905 78.829427 65.57675 78.819797 z M 195.62753 79.153781 C 194.46441 79.981985 196.79065 79.981985 195.62753 79.153781 z M 56.676359 79.317844 C 55.918285 81.345646 58.143916 79.705911 56.676359 79.317844 z M 196.25448 79.452609 C 195.44932 81.236696 197.00101 82.570449 196.25448 79.452609 z M 55.07675 79.645969 C 54.306634 79.691479 56.086247 82.239084 55.57675 79.802219 C 55.348493 79.68478 55.186789 79.639467 55.07675 79.645969 z M 56.367766 79.800266 C 56.264221 79.763916 56.108059 79.835657 55.900969 80.126437 C 56.522081 80.998777 56.678244 79.909308 56.367766 79.800266 z M 57.379484 79.800266 C 57.069006 79.909308 57.22517 80.998775 57.846281 80.126437 C 57.639191 79.835815 57.483029 79.763918 57.379484 79.800266 z M 195.43027 79.966281 C 194.67202 81.99407 196.8964 80.354529 195.43027 79.966281 z M 56.027922 80.614719 C 55.269848 82.642511 57.495322 81.002799 56.027922 80.614719 z M 61.953703 80.698703 C 59.807048 82.029521 62.323761 83.641192 61.953703 80.698703 z M 196.90292 80.749484 C 196.09619 82.533505 197.64949 83.86732 196.90292 80.749484 z M 55.57675 81.099094 C 54.426259 81.698668 56.785158 82.172271 55.57675 81.099094 z M 55.57675 81.747531 C 54.42392 82.246862 56.800908 82.940413 55.57675 81.747531 z M 196.27597 81.747531 C 195.11285 82.575735 197.43909 82.575735 196.27597 81.747531 z M 55.57675 82.395969 C 54.413786 83.224172 56.739714 83.224172 55.57675 82.395969 z M 196.92441 83.044406 C 195.76129 83.87261 198.08753 83.87261 196.92441 83.044406 z M 197.37363 83.856906 C 196.62117 85.888461 198.84221 84.239263 197.37363 83.856906 z M 57.039641 83.931125 C 57.566914 84.771273 56.253796 84.281472 57.039641 83.931125 z M 196.65488 84.269016 C 195.57379 84.688496 198.30043 96.704724 199.31698 100.18503 C 199.46552 97.062126 199.5402 93.314809 198.62558 94.298312 C 200.16276 92.566619 197.54782 90.570653 197.97323 89.294406 C 198.02583 89.364656 198.09604 89.438843 198.22128 89.528781 C 198.8234 89.102959 198.49095 88.906039 198.19784 88.921359 C 198.21004 88.909309 198.20818 88.894147 198.22128 88.882297 C 197.06553 87.513432 197.78348 87.126236 196.92441 84.345187 C 196.81687 84.264128 196.72539 84.240885 196.65488 84.269016 z M 197.57284 84.989719 C 196.40974 85.817949 198.73596 85.817897 197.57284 84.989719 z M 59.467375 87.583469 C 60.630339 88.411672 58.304411 88.411672 59.467375 87.583469 z M 61.938078 88.938937 C 61.878858 88.891128 61.806925 88.943738 61.734953 89.202609 C 62.173916 90.127419 62.115738 89.082359 61.938078 88.938937 z M 53.537687 90.171359 C 53.236861 90.280679 53.309828 91.375363 53.955656 90.499484 C 53.779457 90.207299 53.638015 90.134919 53.537687 90.171359 z M 53.279875 90.647922 C 51.916505 92.794768 55.107486 95.053213 53.279875 90.647922 z M 54.082609 90.989719 C 53.324577 93.017391 55.550182 91.377817 54.082609 90.989719 z M 197.94589 91.200656 C 199.1187 91.574818 198.15062 94.028058 197.94589 91.200656 z M 52.637297 91.450656 C 50.355037 92.415594 52.106127 94.849387 52.637297 91.450656 z M 53.631437 93.419406 C 53.518219 93.500146 53.460359 93.565341 53.406828 93.630344 C 53.467208 93.685214 53.499959 93.847674 53.537687 93.995578 C 53.849645 94.063838 54.296771 93.893249 53.631437 93.419406 z M 53.537687 93.995578 C 53.357604 93.956138 53.225325 93.850745 53.406828 93.630344 C 53.316708 93.548454 53.207928 93.581544 53.090422 93.655734 C 53.289771 93.815493 53.039521 93.917675 52.758391 93.974094 C 52.709831 94.042004 52.671071 94.127459 52.625578 94.204562 C 53.268899 94.172303 53.31127 94.870273 53.07675 95.202609 C 53.250041 95.059861 53.389572 94.968992 53.631437 94.716281 C 53.633837 94.357606 53.584527 94.179201 53.537687 93.995578 z M 52.625578 94.204562 C 52.459901 94.212862 52.26005 94.264593 52.010344 94.392062 C 52.109194 94.642265 52.205708 94.7874 52.301359 94.935031 C 52.375009 94.688445 52.483718 94.445461 52.625578 94.204562 z M 52.301359 94.935031 C 52.132234 95.501792 52.247269 95.845749 52.945891 95.317844 C 52.778477 95.411474 52.553309 95.323944 52.301359 94.935031 z M 52.758391 93.974094 C 52.869415 93.818825 52.979918 93.725501 53.090422 93.655734 C 53.013562 93.594134 52.879821 93.52631 52.658781 93.456516 C 51.604136 93.979847 52.261612 94.073788 52.758391 93.974094 z M 50.133391 93.778781 C 49.223845 97.213394 51.765988 98.807481 50.816984 101.59714 C 47.538663 103.29694 44.398383 108.60815 48.787687 109.7905 C 49.558565 110.46853 50.018069 110.73502 50.334562 110.72409 C 50.396252 111.17453 51.277064 110.74742 50.383391 110.70652 C 50.561071 110.67882 50.684932 110.53455 50.789641 110.31394 C 51.077104 110.64258 51.40698 110.86286 51.754484 110.95847 C 52.239905 110.94777 52.711359 110.69531 53.104094 110.23581 C 53.106994 110.23523 53.107053 110.23291 53.109953 110.23191 C 53.234402 110.20431 53.303199 110.12519 53.287687 110.00925 C 53.299487 109.99505 53.311204 109.98078 53.322844 109.96628 C 53.928073 110.78993 54.081295 109.73435 53.774016 109.62644 C 53.693906 109.59834 53.572491 109.67104 53.430266 109.8237 C 53.495006 109.70423 53.55502 109.57834 53.609953 109.44675 C 53.71423 109.5623 53.868551 109.5634 53.822844 109.07175 C 53.796064 109.06875 53.802545 109.08883 53.779875 109.08933 C 53.790585 109.05703 53.801005 109.02447 53.811125 108.99167 C 53.919545 109.03467 53.935466 108.95597 53.869719 108.7612 C 53.896139 108.669 53.920254 108.57522 53.941984 108.47995 C 54.361521 109.0064 54.930568 104.41922 56.838469 103.33737 C 56.448894 98.438567 55.484196 97.747795 54.566984 95.364719 C 54.527664 98.264302 53.947979 97.823703 52.869719 96.579562 C 53.180574 96.663032 53.665685 96.497582 52.983 96.013156 C 52.778391 96.15831 52.705171 96.268601 52.678312 96.362766 C 52.009839 95.578901 51.215086 94.631225 50.133391 93.778781 z M 51.828703 94.065891 C 51.725158 94.029541 51.568997 94.101282 51.361906 94.392062 C 51.983175 95.264401 52.139338 94.174933 51.828703 94.065891 z M 54.928312 94.067844 C 52.60064 95.947836 58.111113 94.876732 54.928312 94.067844 z M 56.145109 94.099094 C 55.572654 94.083234 56.158109 95.148409 56.145109 94.099094 z M 55.57675 95.364719 C 54.635214 96.144831 56.03016 96.059663 55.57675 95.364719 z M 53.774016 96.00925 C 53.670609 95.9728 53.515599 96.04588 53.307219 96.335422 C 53.924684 97.206353 54.08408 96.118599 53.774016 96.00925 z M 52.846281 97.632297 C 52.881021 97.656127 52.896749 97.695654 52.926359 97.724094 C 52.904549 97.738244 52.883046 97.753909 52.861906 97.770969 C 52.859606 97.701479 52.847511 97.708989 52.846281 97.632297 z M 50.221281 98.774875 C 49.471557 100.76071 51.609658 99.199933 50.221281 98.774875 z M 50.38925 99.901828 C 49.226288 100.73019 51.552212 100.73019 50.38925 99.901828 z M 50.38925 100.55027 C 49.226277 101.37705 51.552223 101.37705 50.38925 100.55027 z M 199.43417 100.73386 C 199.24954 103.00239 200.23406 100.61285 199.43417 100.73386 z M 49.740812 101.1987 C 48.563717 101.81835 50.978387 102.2458 49.740812 101.1987 z M 51.082609 101.64206 C 51.365175 102.51214 50.515153 101.46756 51.082609 101.64206 z M 52.945891 104.02683 C 52.948091 104.02762 52.947697 104.05297 52.949797 104.05417 C 52.946497 104.04917 52.943331 104.0452 52.940031 104.0405 C 52.940836 104.04072 52.945091 104.02653 52.945891 104.02683 z M 48.617766 110.41355 C 42.996667 112.4677 41.249502 120.0966 43.186125 125.2573 C 45.058391 117.31314 50.180337 120.16137 50.135344 126.61862 C 52.97981 127.49162 49.858237 119.99693 49.416594 118.25144 C 46.954308 116.11952 48.795059 113.47961 48.617766 110.41355 z M 50.38925 110.92527 C 50.29436 111.13322 51.044141 111.01907 50.38925 110.92527 z M 224.62363 112.49753 L 224.62167 112.58152 L 224.62363 112.49753 z M 48.631437 123.09714 C 48.612138 123.22501 48.821115 123.58053 48.631437 123.09714 z M 204.7037 124.5405 C 203.91873 125.88033 205.75242 124.77985 204.7037 124.5405 z M 45.977141 126.00339 C 43.711637 133.23337 48.243997 141.35011 50.953703 147.83738 C 52.156584 153.63115 53.709072 159.08087 54.744719 164.83738 C 54.556672 169.97557 56.215042 172.6395 57.629484 170.14206 C 56.891912 164.59615 56.967958 157.28228 57.197844 151.77292 C 59.961535 151.61132 56.304101 146.49407 56.123625 149.78269 C 53.915422 156.15642 52.725267 152.31609 53.008391 145.02097 C 52.550976 142.25195 51.929106 144.14025 53.385344 140.92722 C 53.483654 142.7609 52.493538 130.84775 51.397062 133.14988 C 49.91353 136.64121 48.633659 132.89752 50.410734 131.76511 C 51.236199 131.49954 47.655749 125.38909 45.977141 126.00339 z M 51.488859 126.64987 C 51.455809 126.74687 51.474068 126.77241 51.469328 126.82956 C 51.502308 126.79486 51.535688 126.76046 51.570891 126.728 C 51.532801 126.7038 51.537939 126.67187 51.488859 126.64987 z M 206.3248 127.50339 C 206.69739 131.12652 202.51017 129.23432 206.3248 127.50339 z M 168.86581 128.55027 C 168.43111 128.52137 167.98838 128.52857 167.53573 128.58347 C 157.03499 130.15838 146.17379 130.76711 136.43027 135.6948 C 135.60342 140.29922 130.35842 139.44838 131.25448 144.31198 C 134.7673 147.94134 134.79717 159.83568 141.38925 157.09714 C 138.99812 150.2446 142.37478 149.11568 146.0162 152.62058 C 155.05938 152.70208 148.88151 151.52008 146.42831 150.21238 C 150.29527 150.23377 152.55701 141.08686 154.15292 150.10105 C 158.91565 157.14267 165.60481 150.25856 167.37753 146.19089 C 172.62112 148.01398 179.54736 150.91124 181.30331 147.39988 C 187.24202 149.41197 187.27045 142.21098 187.57089 140.24948 C 188.72614 137.98344 187.94589 135.83832 186.21347 134.09128 C 186.08526 134.37322 185.1497 134.23623 185.83261 133.68308 C 183.83815 131.89903 180.80865 130.6031 177.80917 130.16745 C 176.76883 130.34079 175.79557 130.21875 174.84042 130.01706 C 174.49187 130.02716 174.14393 130.00226 173.80917 129.89011 C 173.72667 129.85531 173.6404 129.82651 173.56113 129.78659 C 173.48263 129.74749 173.4079 129.70249 173.33652 129.65378 C 171.86099 129.20351 170.41151 128.65302 168.86581 128.55027 z M 185.83261 133.68308 C 185.97725 133.81246 186.08018 133.95687 186.21347 134.09128 C 186.26047 133.98791 186.20347 133.83268 185.90097 133.61863 C 185.86637 133.64322 185.86121 133.65998 185.83261 133.68308 z M 228.78769 129.28855 C 227.0374 130.03372 225.99716 132.87135 224.48105 133.94284 C 221.17386 136.78429 224.90014 136.83594 227.23495 137.69089 C 226.55753 135.12979 231.54517 141.85579 229.77792 144.39597 C 229.44712 142.91526 229.1494 143.96131 228.80917 145.5698 C 228.81717 145.08137 228.80317 144.35322 228.69003 142.88816 C 228.39462 143.76227 228.54389 145.51427 228.69198 146.03659 C 228.30148 147.96967 227.83898 150.50305 227.17831 151.34714 C 226.36137 152.52433 225.3544 154.69645 223.71347 154.24363 C 219.56378 158.52549 228.34885 155.55796 228.43222 152.06003 C 229.15262 149.31632 230.922 147.27949 231.41855 144.88816 C 230.50974 143.4483 231.04131 141.4222 232.32089 137.9155 C 233.23631 134.32522 231.1019 131.51898 230.33261 129.54636 C 230.22146 129.11852 228.63425 129.79245 228.78769 129.28855 z M 206.02597 129.67136 C 205.80087 132.98183 206.48782 134.50489 206.78378 142.01511 C 205.60586 146.81749 207.34671 130.19679 204.98105 134.98386 C 207.12161 131.82691 202.62223 132.43525 206.02597 129.67136 z M 231.74472 132.08152 C 233.21154 135.24992 233.16714 133.03821 231.74472 132.08152 z M 50.729094 132.11472 C 50.633374 132.24691 50.42416 132.66387 50.38925 132.97019 C 50.807032 132.1351 50.824812 131.98253 50.729094 132.11472 z M 50.38925 133.61863 C 49.226277 134.44541 51.552223 134.44541 50.38925 133.61863 z M 233.19198 133.62839 C 232.79731 136.37062 233.01403 134.3804 233.19198 133.62839 z M 205.56894 135.77292 C 205.66004 138.18164 205.07122 136.26404 205.56894 135.77292 z M 222.8912 135.94675 L 222.85214 135.98581 L 222.8912 135.94675 z M 224.18808 135.94675 C 224.28518 136.21225 223.4003 136.382 224.18808 135.94675 z M 223.15292 136.48777 L 223.18027 136.5737 L 223.15292 136.48777 z M 204.77206 136.53073 C 204.10861 137.91115 203.98296 136.51023 204.77206 136.53073 z M 93.803313 137.41159 C 100.91664 137.52012 114.18632 144.09774 101.55136 142.59909 C 98.290033 143.27796 77.41082 139.87694 91.225188 137.80222 C 91.896799 137.51121 92.787056 137.39609 93.803313 137.41159 z M 56.225187 137.50925 C 55.062383 138.33762 57.38815 138.33761 56.225187 137.50925 z M 156.53378 137.81589 C 165.16807 137.61812 139.56828 144.81265 144.60409 140.42331 C 147.59875 138.88248 150.99476 138.20296 154.33066 137.95847 C 155.22995 137.87397 155.95806 137.82908 156.53378 137.81589 z M 56.547453 138.1948 C 54.776822 138.76018 57.729089 139.19158 56.547453 138.1948 z M 56.779875 138.84323 C 54.627434 139.201 57.837354 141.81855 56.779875 138.84323 z M 55.805266 139.31394 L 55.774016 139.66745 L 55.805266 139.31394 z M 56.348234 140.11277 C 56.2352 140.28378 56.255664 140.45508 56.316984 140.61667 C 56.154899 140.56427 55.978165 140.51194 55.695891 140.46628 C 55.639391 145.38382 54.65027 141.74921 55.383391 145.67722 C 56.087006 147.12945 58.237435 140.96009 55.770109 142.24167 C 55.179502 141.91596 56.455663 141.46292 56.711516 141.06003 C 57.166803 141.37953 57.63157 141.32921 56.348234 140.11277 z M 205.77988 141.353 C 206.84119 144.91915 205.16462 144.01315 205.77988 141.353 z M 72.412688 142.99558 C 73.181516 146.22014 71.580551 144.64836 72.412688 142.99558 z M 110.03964 143.34323 C 111.20276 144.17159 108.87652 144.17159 110.03964 143.34323 z M 143.108 143.34323 C 144.27112 144.17159 141.94488 144.17159 143.108 143.34323 z M 182.05331 144.06003 C 191.51099 147.108 179.11007 147.1228 182.05331 144.06003 z M 55.57675 145.93698 C 55.161054 146.16465 55.971916 146.15651 55.57675 145.93698 z M 54.928312 146.58542 C 53.765508 147.41379 56.091275 147.41378 54.928312 146.58542 z M 93.830656 146.58542 C 94.993619 147.41378 92.667695 147.41379 93.830656 146.58542 z M 214.41659 147.11667 C 213.55406 152.96857 215.45613 151.27623 214.41659 147.11667 z M 230.81894 147.59323 L 230.79355 147.60105 L 230.81894 147.59323 z M 228.11191 147.70456 C 227.99243 148.55388 227.97409 150.29033 228.11191 147.70456 z M 227.79355 148.0405 C 227.71685 148.53225 227.86565 148.4701 227.79355 148.0405 z M 54.731047 148.04831 C 53.973046 150.07427 56.198803 148.43725 54.731047 148.04831 z M 216.37558 148.53073 C 217.5387 149.35909 215.21246 149.35909 216.37558 148.53073 z M 202.21738 149.40769 C 202.4143 149.65221 200.89139 149.42749 202.21738 149.40769 z M 217.92636 151.04441 C 217.89186 151.10641 218.00096 151.29843 217.92636 151.04441 z M 108.17831 151.15183 C 111.64618 153.59743 102.80322 152.94176 108.17831 151.15183 z M 57.322844 151.93698 C 56.719567 152.98772 58.389858 153.37086 57.322844 151.93698 z M 54.684172 152.09909 C 54.702052 151.97264 53.813105 152.3441 54.279875 152.42136 C 54.570977 152.23947 54.678212 152.14124 54.684172 152.09909 z M 57.527922 153.60105 C 56.684385 156.05227 58.39611 156.58139 57.527922 153.60105 z M 217.8873 155.63425 C 218.00815 155.62115 218.1611 155.63926 218.35019 155.70456 C 217.74896 157.38132 217.04131 155.72605 217.8873 155.63425 z M 221.41269 155.73581 C 221.40089 157.7779 223.40142 156.64265 221.41269 155.73581 z M 92.772063 155.89402 C 92.767563 155.89483 92.762761 155.8937 92.758391 155.89597 C 92.765791 155.89797 92.772392 155.89897 92.777922 155.89597 C 92.780022 155.89497 92.774362 155.89402 92.772063 155.89402 z M 57.522062 156.31198 C 56.359258 157.14035 58.685025 157.14034 57.522062 156.31198 z M 218.0787 156.60495 C 216.27462 160.49016 215.54997 156.41679 218.0787 156.60495 z M 57.322844 157.12448 C 56.570552 159.15634 58.792666 157.50685 57.322844 157.12448 z M 218.8248 157.85495 C 220.16925 159.60816 217.9751 160.13611 218.8248 157.85495 z M 228.11777 158.75925 C 227.21943 159.53358 227.34469 159.77643 228.11777 158.75925 z M 57.322844 159.0698 C 56.570557 161.10012 58.792668 159.45211 57.322844 159.0698 z M 215.93222 159.30222 C 215.27412 160.55927 215.30657 159.51288 215.93222 159.30222 z M 207.50058 164.14988 C 207.48638 164.19527 207.47006 164.21258 207.45566 164.2573 L 207.4537 164.23191 C 207.4779 164.19451 207.47578 164.18787 207.50058 164.14988 z M 82.811125 166.5112 C 82.844805 166.5889 82.887895 166.66361 82.9205 166.74167 C 82.90113 166.66547 82.865238 166.58767 82.844328 166.5112 C 82.833358 166.51107 82.822165 166.51136 82.811125 166.5112 z M 218.81113 169.228 C 219.06374 171.26053 217.93953 173.05756 218.81113 169.228 z M 196.78378 172.15964 C 196.80368 172.22464 196.79567 172.29658 196.80527 172.36472 C 196.76447 172.38952 196.72407 172.4163 196.68417 172.4448 C 196.73667 172.31502 196.71918 172.30966 196.78378 172.15964 z M 65.633391 176.99363 C 64.413637 177.55497 66.312526 177.94106 65.633391 176.99363 z M 194.98691 177.71433 C 194.91551 177.78423 194.84576 177.85855 194.77792 177.93698 C 194.69302 177.81675 194.71232 177.72055 194.98691 177.71433 z M 65.811125 178.4155 C 65.13396 178.64339 66.516758 179.59222 65.811125 178.4155 z M 65.887297 179.03269 C 64.979986 179.25349 66.711874 180.3323 65.887297 179.03269 z M 65.738859 179.65378 C 64.988435 181.61268 65.606563 182.81379 66.109953 182.94089 C 66.002196 182.15302 66.011261 181.36432 66.133391 180.57566 C 66.013011 180.27842 65.92671 180.01311 65.738859 179.65378 z M 74.549406 181.0737 C 74.592236 181.094 74.626646 181.11285 74.674406 181.13425 C 74.675187 181.12525 74.675559 181.11601 74.676359 181.10691 C 74.635749 181.09531 74.597158 181.0807 74.553313 181.0737 C 74.552406 181.07356 74.550306 181.07385 74.549406 181.0737 z M 66.443938 186.49167 C 65.368809 189.90119 69.229249 188.92304 66.443938 186.49167 z M 69.979094 193.69089 C 71.300634 195.12616 69.858508 197.71773 69.979094 193.69089 z M 162.55917 202.99558 C 162.56817 203.00158 162.56815 203.00676 162.57675 203.01316 C 162.55315 203.02366 162.52964 203.03466 162.50644 203.04636 C 162.52974 203.02816 162.53227 203.01478 162.55917 202.99558 z M 74.182219 209.64206 C 73.424141 211.67021 75.649638 210.03026 74.182219 209.64206 z M 73.731047 210.13034 C 72.568083 210.9587 74.894011 210.9587 73.731047 210.13034 z M 105.95175 213.53464 C 107.34713 214.02824 105.26131 215.21202 105.95175 213.53464 z M 80.215422 214.67917 C 79.052458 215.50753 81.378386 215.50753 80.215422 214.67917 z M 100.60019 215.31394 C 102.94919 216.70197 99.169048 217.12484 100.60019 215.31394 z M 75.387297 215.36667 C 75.790101 216.0058 75.852274 216.74059 75.820891 217.40964 C 75.773591 217.36404 75.749561 217.32504 75.676359 217.27292 C 74.999203 217.7553 75.472824 217.92266 75.783781 217.84323 C 75.630091 218.8871 75.198052 219.45735 75.186125 218.08738 C 75.444742 217.19452 75.357026 216.27662 75.387297 215.36667 z M 96.424406 217.25925 C 97.587369 218.08761 95.261445 218.08762 96.424406 217.25925 z M 109.71542 227.72214 L 109.71347 227.72409 C 109.71973 227.72661 109.74601 227.73183 109.75644 227.73386 C 109.76814 227.73686 109.77979 227.73867 109.79159 227.74167 C 109.76309 227.73057 109.73622 227.72354 109.71542 227.72214 z M 80.955656 232.73972 C 80.95505 232.74472 80.954203 232.74869 80.953703 232.75339 C 80.953303 232.75739 80.955456 232.76911 80.955656 232.76511 C 80.956028 232.75711 80.955572 232.74822 80.955656 232.73972 z M 117.15878 240.91159 C 117.15378 240.91659 117.14786 240.92057 117.14316 240.92527 C 117.17496 240.94317 117.20521 240.96421 117.23691 240.98191 C 117.21541 240.95961 117.18048 240.93409 117.15878 240.91159 z M 106.80722 243.50144 C 109.47916 243.50744 108.2575 245.90027 106.80722 243.50144 z M 108.74277 245.13816 C 109.90429 245.96653 107.57967 245.96648 108.74277 245.13816 z M 104.22323 276.40964 C 104.12118 276.79226 105.45766 276.56491 104.22323 276.40964 z " /></svg>
