<?xml version="1.0" encoding="UTF-8" standalone="no"?>
<svg
   version="1.1"
   id="Layer_3"
   x="0px"
   y="0px"
   width="283.46px"
   height="283.46px"
   viewBox="0 0 283.46 283.46"
   enable-background="new 0 0 283.46 283.46"
   xml:space="preserve"
   sodipodi:docname="people-woz.svg"
   inkscape:version="1.2.2 (b0a8486541, 2022-12-01)"
   xmlns:inkscape="http://www.inkscape.org/namespaces/inkscape"
   xmlns:sodipodi="http://sodipodi.sourceforge.net/DTD/sodipodi-0.dtd"
   xmlns="http://www.w3.org/2000/svg"
   xmlns:svg="http://www.w3.org/2000/svg"><defs
   id="defs15" /><sodipodi:namedview
   id="namedview13"
   pagecolor="#ffffff"
   bordercolor="#000000"
   borderopacity="0.25"
   inkscape:showpageshadow="2"
   inkscape:pageopacity="0.0"
   inkscape:pagecheckerboard="0"
   inkscape:deskcolor="#d1d1d1"
   showgrid="false"
   inkscape:zoom="1.4816906"
   inkscape:cx="-19.234785"
   inkscape:cy="96.511379"
   inkscape:window-width="1920"
   inkscape:window-height="1015"
   inkscape:window-x="0"
   inkscape:window-y="0"
   inkscape:window-maximized="1"
   inkscape:current-layer="Layer_3" />

<path
   id="path369"
   style="fill:#000000;stroke-width:0.999999"
   d="m 141.17533,7.085613 c -7.92253,-0.06425 -15.65096,1.465102 -23.75798,4.507854 -8.9785,3.369839 -28.670939,14.163225 -33.793159,18.522501 -7.74295,6.589596 -12.46625,14.321022 -18.4685,30.226974 -1.49359,3.95803 -4.09609,10.51353 -5.7825,14.56809 -5.51014,13.24772 -6.93184,18.51588 -6.53777,24.22208 0.45167,6.540778 1.75518,12.219218 5.3589,23.344678 3.97104,12.25934 3.92623,11.97031 3.45047,22.29179 -0.28026,6.07974 0.0451,8.38623 1.61854,11.47051 1.36549,2.67655 1.47384,1.29507 1.03488,-13.25166 -0.38459,-12.74467 -0.25388,-20.15968 0.35546,-20.15968 0.68309,0 1.25111,8.17256 1.73295,24.92464 0.60055,20.87859 1.23331,27.84249 2.94332,32.38545 1.58896,4.22158 3.70517,7.77415 4.28609,7.19534 0.1453,-0.14477 -0.11437,-1.77208 -0.57722,-3.61566 -0.7325,-2.9177 -0.7745,-3.39607 -0.32204,-3.69409 0.28589,-0.18831 0.91475,-0.25503 1.39742,-0.14784 2.8785,0.6392 3.80937,0.60891 4.88838,-0.15941 0.66535,-0.47377 1.07988,-1.07597 1.07988,-1.56968 0,-0.78224 -0.39308,-1.38081 -3.66966,-5.58838 -0.87776,-1.12715 -1.59604,-2.27278 -1.59604,-2.54543 0,-1.38685 4.49503,0.64749 6.11032,2.76526 2.49265,3.26806 2.54696,5.2573 0.23012,8.43528 -3.00959,4.12811 -3.10631,7.26018 -0.3966,12.87755 1.05087,2.17863 1.09189,2.21841 0.90697,0.87741 -0.10647,-0.77231 -0.29197,-2.91493 -0.41203,-4.76111 -0.36828,-5.66351 0.58056,-7.37485 5.54595,-10.00432 6.69051,-3.54296 12.93774,-9.72617 18.600279,-18.40872 1.81575,-2.78423 4.29492,-5.42008 6.75953,-7.18698 6.12428,-4.39067 10.51032,-11.97488 12.71044,-21.97941 0.72482,-3.29584 0.83136,-10.0534 0.19733,-12.51952 -0.53042,-2.06308 -2.47502,-5.26494 -4.9578,-8.16274 -2.09473,-2.44486 -3.0423,-4.12485 -5.08829,-9.02213 -1.95276,-4.674108 -3.20029,-6.506698 -5.08314,-7.467238 -1.56536,-0.79858 -3.1814,-0.93736 -3.17087,-0.27254 0.004,0.24134 0.79126,1.44198 1.75031,2.6682 0.95908,1.22625 2.20277,3.200478 2.76333,4.387648 3.81597,8.08169 4.85431,9.98491 7.51738,13.77618 3.56244,5.07168 4.06122,5.98955 4.31887,7.9474 0.2547,1.93496 -0.68733,9.8411 -1.59218,13.36351 -1.27943,4.98038 -2.74831,7.20309 -8.40056,12.70786 -2.77549,2.70303 -8.75898,8.91666 -13.296009,13.80767 -7.82135,8.43155 -10.47083,10.94085 -11.55086,10.94085 -0.71037,0 -1.93683,-1.36614 -1.81137,-2.0177 0.0604,-0.31381 0.60295,-0.69868 1.20587,-0.85491 1.30403,-0.33792 2.1228,-1.15251 1.5279,-1.52018 -0.21602,-0.13351 -1.4978,-0.38123 -2.84882,-0.55087 -1.70981,-0.21469 -3.18742,-0.69263 -4.86139,-1.57225 -2.80948,-1.47635 -6.65932,-5.01233 -7.59836,-6.97872 -0.36093,-0.75586 -0.84295,-1.43416 -1.07088,-1.50798 -0.22788,-0.0738 -1.0641,0.45238 -1.8583,1.16987 -0.99821,0.90182 -1.55619,1.19237 -1.80815,0.9404 -1.16872,-1.16872 -1.23037,-14.54045 -0.14527,-31.51513 0.83984,-13.13793 1.51232,-18.56661 2.99988,-24.22208 1.09432,-4.1606 1.92732,-10.520078 1.58318,-12.086928 -0.43193,-1.96665 2.4234,-7.63735 5.41932,-10.7628 2.02101,-2.10836 4.68427,-4.06471 7.84455,-5.76128 2.41545,-1.29669 5.07889,-2.42234 14.469749,-6.11546 4.62655,-1.81946 5.18936,-2.19322 11.38565,-7.56751 4.67332,-4.05333 4.69572,-4.14943 0.98218,-4.19482 -1.11015,-0.0136 -2.01835,-0.15985 -2.01835,-0.32525 0,-0.1654 1.30288,-0.88547 2.89575,-1.59989 1.59285,-0.71444 4.87125,-2.38413 7.28469,-3.71016 6.18763,-3.39972 8.80844,-3.95901 8.6641,-1.84865 -0.0901,1.31657 1.04461,1.77184 5.54402,2.22468 2.66399,0.26802 4.93349,0.26822 7.86062,10e-4 3.76901,-0.34395 5.14466,-0.61895 11.45508,-2.29025 3.0735,-0.814 9.24032,-1.08054 12.99069,-0.56179 9.93126,1.37367 17.72673,5.60349 17.72673,9.61864 0,1.3034 -0.85347,1.18564 -2.55571,-0.35225 -0.77682,-0.70182 -2.73549,-1.88716 -4.3523,-2.63414 -2.92661,-1.35208 -7.81019,-2.90244 -8.13123,-2.58142 -0.2828,0.28277 1.01541,1.54239 4.53613,4.40115 4.03985,3.28028 7.27285,6.73499 9.00092,9.61864 0.70067,1.16914 2.57512,4.11793 4.1659,6.5532 1.59076,2.43529 3.15867,5.20023 3.48389,6.14374 0.32523,0.94353 0.73081,3.45298 0.90119,5.57681 0.38074,4.74547 1.0328,7.88087 2.7749,13.339718 2.00133,6.27105 4.19769,16.93292 4.21217,20.44828 0.005,1.12653 -0.1294,1.49191 -0.54701,1.49191 -1.18255,0 -5.71515,-3.0633 -8.21222,-5.55045 -3.00774,-2.99576 -4.58682,-4.07901 -7.31297,-5.01694 -2.75008,-0.94618 -8.14409,-0.90524 -8.14409,0.0617 0,0.46975 1.26458,1.03935 5.43989,2.45094 4.40105,1.48793 7.40482,2.79118 8.42627,3.65616 l 0.70257,0.59458 -0.70257,-0.23205 c -0.38614,-0.12774 -2.04457,-0.47604 -3.68573,-0.77391 -4.44209,-0.80626 -8.25502,-0.69293 -13.33972,0.3966 -3.39046,0.72648 -6.05675,1.01653 -11.72762,1.27592 -4.0367,0.18465 -7.43094,0.24457 -7.54244,0.13306 -0.35155,-0.35155 1.45087,-1.48188 3.82136,-2.3963 2.66576,-1.02833 5.45347,-1.74175 9.13012,-2.33717 1.44807,-0.23452 2.94866,-0.55367 3.33477,-0.70964 1.2742,-0.51463 -7.35193,-0.34649 -10.51468,0.20505 -6.20056,1.08129 -11.42615,3.8967 -11.42615,6.15596 0,2.46397 3.24543,2.84245 21.78464,2.54093 14.36604,-0.23365 15.78191,-0.0936 12.65065,1.25343 -2.61873,1.12653 -7.53751,1.73165 -17.4092,2.14176 -8.63856,0.35888 -11.13359,0.64977 -11.86517,1.38134 -0.52785,0.52785 1.43495,1.27073 4.76176,1.80302 3.76011,0.60162 13.00616,0.2534 17.98577,-0.6775 2.12383,-0.39704 6.31037,-1.28489 9.30303,-1.97335 13.08911,-3.01112 14.77656,-3.0359 17.63996,-0.2539 1.61512,1.56919 1.65574,1.97075 0.17548,1.73167 -0.62747,-0.10135 -1.81226,-0.29754 -2.63285,-0.43581 -1.92168,-0.32383 -1.93271,0.0591 -0.0861,3.0243 5.0999,8.18954 6.43092,13.2609 4.2983,16.37496 -0.53094,0.77531 -2.46605,2.64345 -4.30023,4.1511 -1.83424,1.50768 -5.62869,4.96484 -8.43206,7.68257 -5.63585,5.4637 -7.92225,6.98923 -10.5134,7.01536 -2.30638,0.0232 -3.81896,-0.87588 -8.20901,-4.88002 -4.06684,-3.70934 -6.74806,-5.8979 -10.08916,-8.23472 -3.30261,-2.30991 -7.48746,-6.51288 -9.57235,-9.61414 -2.063,-3.06868 -5.49486,-9.94849 -7.82142,-15.67882 -1.25393,-3.08841 -1.35262,-3.58114 -1.32992,-6.66954 0.0248,-3.38377 0.89098,-7.2279 2.61421,-11.59971 0.89116,-2.26102 0.87839,-3.67122 -0.0688,-7.37467 -0.42221,-1.65088 -0.66457,-3.270188 -0.53865,-3.598318 0.33147,-0.86385 1.86146,-0.7414 4.11189,0.32847 2.49309,1.185238 4.6641,1.175968 10.8213,-0.0463 3.11799,-0.61895 5.92693,-0.94201 8.42498,-0.96804 4.11002,-0.0429 4.78467,0.16824 7.78478,2.435508 0.86884,0.65661 3.55417,2.48056 5.96761,4.05277 4.82454,3.14288 7.7317,5.80398 9.5248,8.71809 0.88635,1.44055 1.20439,1.74298 1.30164,1.23801 0.20919,-1.08642 -0.64674,-7.06767 -1.40063,-9.78834 -1.09283,-3.94353 -1.81291,-4.93237 -5.19563,-7.137478 -3.75794,-2.44969 -13.32264,-7.1671 -17.04346,-8.40571 -2.51644,-0.83771 -3.12918,-0.91085 -5.89434,-0.70449 -5.15664,0.38484 -11.67644,2.35994 -18.63563,5.64623 l -2.76462,1.30614 0.30404,2.32945 c 0.16741,1.28137 0.30789,3.687228 0.30789,5.346048 0.003,2.83619 -0.0686,3.12931 -1.20265,4.91473 -2.51865,3.96538 -2.65599,4.39797 -2.65599,8.39285 0,2.02727 0.2199,7.16114 0.48852,11.4088 0.2979,4.70941 0.40555,9.95399 0.27575,13.43999 -0.2463,6.6144 -0.15289,6.85694 2.80898,7.29755 3.01554,0.44858 4.08006,0.98459 4.84595,2.44001 0.55317,1.05119 1.05489,1.46029 2.28832,1.86536 2.72951,0.89638 4.09568,1.95932 4.36515,3.39584 0.38002,2.02562 -0.17218,2.40388 -3.1265,2.1424 -2.87502,-0.25449 -9.43295,0.74189 -12.39483,1.88336 -1.67509,0.64557 -1.87399,0.66009 -2.07106,0.14655 -0.11989,-0.31243 0.0601,-1.03891 0.39982,-1.61403 0.79798,-1.35088 0.32132,-1.8714 -1.67125,-1.82615 -1.5446,0.0351 -3.99348,1.08907 -4.80739,2.06977 -1.19351,1.4381 -2.47196,1.72509 -8.77787,1.96692 -5.02543,0.19274 -6.50053,0.37108 -8.10489,0.98218 -2.43167,0.92622 -3.17569,2.01096 -2.29859,3.34955 0.83191,1.26964 2.32492,1.92827 5.18213,2.28703 2.83177,0.35558 3.6523,0.85064 2.64378,1.59539 -0.63574,0.46944 -1.38722,0.62908 -5.05808,1.07346 -1.01365,0.1227 -1.84286,0.35689 -1.84286,0.52001 0,0.65157 3.82355,0.78344 14.04228,0.48466 13.47347,-0.39397 19.51981,-0.40259 19.89292,-0.0276 0.16061,0.16143 -0.0802,0.59574 -0.53544,0.96482 -1.0519,0.85281 -0.77403,1.59188 0.71607,1.90329 0.64054,0.13386 2.45276,0.93854 4.02704,1.78823 1.57431,0.84972 3.03183,1.54461 3.239,1.54461 0.20717,0 0.63337,-0.39223 0.94747,-0.87161 0.46802,-0.71429 0.50011,-1.0768 0.17548,-2.00807 -0.37275,-1.06913 -0.32339,-1.20318 0.84076,-2.26967 0.89192,-0.81713 1.23736,-1.42891 1.23736,-2.19254 0,-0.75768 0.44948,-1.56534 1.57739,-2.83533 2.1599,-2.43193 3.04706,-4.31716 3.25571,-6.91637 0.14099,-1.75628 0.0214,-2.5543 -0.59779,-3.99362 -0.42557,-0.98934 -0.71027,-1.86216 -0.6325,-1.93993 0.0778,-0.0778 3.60399,3.99553 7.83555,9.0517 4.88615,5.83832 8.30338,9.60822 9.36474,10.33149 2.00957,1.3694 4.13595,2.01113 9.04335,2.72734 5.31136,0.77517 7.25294,1.24022 8.12738,1.94828 l 0.7707,0.62415 -0.59586,3.03266 c -0.32769,1.66783 -1.45111,5.75781 -2.49658,9.08898 -2.27805,7.25844 -2.87496,9.59017 -3.16701,12.37555 -0.20197,1.92648 0.23396,5.63012 0.71992,6.1161 0.48316,0.48315 1.21481,-1.41129 2.39374,-6.19966 1.53676,-6.24173 2.15281,-7.63951 3.36755,-7.63951 0.86558,0 0.87633,0.0361 0.7932,2.63285 -0.0464,1.44807 0.14813,3.89658 0.43195,5.44118 0.28379,1.54458 0.82944,4.62532 1.21229,6.84566 0.38288,2.22035 1.17547,5.50528 1.76188,7.30012 0.6924,2.11923 1.06637,3.9812 1.06637,5.31005 0,5.63685 1.35788,5.58016 2.16169,-0.09 0.44321,-3.1261 -0.13207,-7.92542 -1.34792,-11.24553 -3.13263,-8.55436 -3.96676,-21.67442 -1.89364,-29.78025 1.20969,-4.72982 2.65385,-6.59883 5.09921,-6.59883 1.12518,0 1.12574,-0.1209 -0.008,7.66264 -1.08822,7.47214 -1.1905,13.08718 -0.33746,18.545 0.50811,3.25086 0.58657,5.57878 0.46023,13.69133 -0.16686,10.7159 -0.14277,10.57121 -2.94653,17.4092 -1.17188,2.85805 -1.75614,3.03805 -3.43247,1.05738 -0.53644,-0.63382 -0.76129,-1.8893 -1.16409,-6.49471 -0.2746,-3.13976 -0.53646,-6.42894 -0.58172,-7.30975 -0.16336,-3.17914 -1.71902,-5.20263 -3.06415,-3.98527 -0.98985,0.8958 -0.94481,7.59737 0.0836,12.42697 0.41368,1.94275 0.65761,3.6272 0.54187,3.74294 -0.54415,0.54418 -1.2536,-0.41256 -2.60393,-3.51154 -1.58507,-3.63758 -2.00283,-5.4693 -2.51522,-11.01734 -0.41944,-4.54201 -1.3049,-6.54764 -4.35615,-9.87254 -1.26147,-1.37462 -2.50003,-3.09302 -2.75305,-3.81879 -0.29639,-0.85017 -0.45746,-3.06785 -0.45252,-6.23437 0.007,-4.6566 0.0663,-5.07133 1.12616,-7.89854 0.67355,-1.7967 1.12155,-3.65016 1.12616,-4.65891 0.0108,-2.4307 -1.74206,-4.22101 -6.42271,-6.55898 -1.96602,-0.98206 -4.68039,-2.56907 -6.0319,-3.52697 -3.88431,-2.753 -3.85299,-2.20333 0.1292,2.25618 1.36145,1.52463 2.40095,2.89308 2.30953,3.04102 -0.20421,0.33039 -1.72066,-0.0848 -3.3367,-0.9134 -0.66447,-0.34071 -2.50341,-1.94047 -4.08619,-3.5546 -3.14323,-3.2055 -4.17995,-3.69589 -3.78857,-1.79338 0.39733,1.93135 2.30174,5.77127 3.37012,6.79489 1.85435,1.77655 1.09238,2.73771 -3.02109,3.80915 -8.64314,2.25124 -45.3072,4.618 -52.3073,3.37654 -3.02206,-0.53595 -7.48115,-0.46428 -9.564,0.15427 -1.79258,0.53234 -3.600239,2.12999 -3.600239,3.18115 0,0.641 -0.0872,0.65677 2.325589,-0.42553 4.13112,-1.85308 8.81454,-1.45332 12.08951,1.03232 2.86797,2.17675 3.24737,2.34639 5.2432,2.34102 1.0619,-0.003 2.95784,-0.1581 4.21282,-0.34517 3.69902,-0.5514 31.51546,-2.80505 34.62298,-2.80512 3.57571,-8e-5 4.14876,0.44399 3.09887,2.40273 -0.84596,1.5783 -3.02809,2.82966 -7.42288,4.25653 -8.88944,2.88614 -22.93254,3.83086 -31.6771,2.13083 -2.76819,-0.53817 -5.13758,-1.74935 -7.92426,-4.05083 -3.22222,-2.66115 -5.01485,-3.45247 -7.89855,-3.48519 -4.21882,-0.0478 -5.388859,1.25603 -7.692209,8.57476 -2.14156,6.80451 -2.23266,7.24785 -1.77859,8.62361 0.53546,1.62248 1.66807,1.61496 3.25828,-0.0225 1.546279,-1.59216 2.784629,-1.61457 4.921159,-0.0881 4.78228,3.41675 5.81289,4.36802 7.25898,6.70168 1.7185,2.77336 1.68422,2.84422 -1.53497,3.19014 -2.77424,0.29807 -4.43265,0.83398 -4.43265,1.43277 0,0.83379 1.44207,1.01764 7.22684,0.92047 l 5.64751,-0.0945 2.0627,1.75994 c 2.3799,2.03088 5.19022,3.55396 6.55641,3.55396 0.52101,0 1.74894,-0.31577 2.72862,-0.70192 2.12138,-0.83617 5.1488,-0.92083 6.21573,-0.17355 0.88576,0.6204 0.75714,1.36305 -0.74948,4.33623 -1.06535,2.10235 -0.95491,2.55921 0.43323,1.78759 1.35065,-0.75077 3.23553,-3.82855 4.77269,-7.79313 1.70313,-4.39265 2.16634,-4.47982 3.72236,-0.70192 1.95792,4.75356 2.33749,5.51432 3.07509,6.16881 0.70178,0.62269 0.72753,0.61905 0.96482,-0.12856 0.13404,-0.42259 0.1358,-1.77596 0.004,-3.00759 -0.2333,-2.17873 -0.21493,-2.24845 0.66593,-2.58336 0.56797,-0.21594 0.90504,-0.61357 0.90504,-1.06638 0,-0.39699 0.22414,-0.80761 0.49816,-0.91275 0.82645,-0.31714 2.15366,0.82273 3.50382,3.01016 2.20689,3.57545 5.88494,6.2253 9.15326,6.59369 1.3888,0.15654 1.61737,0.059 2.91503,-1.23865 2.47864,-2.47864 5.34348,-8.10407 5.34348,-10.49218 0,-1.4987 -1.97159,-2.99008 -6.10261,-4.61584 -2.05316,-0.80802 -3.92887,-1.47159 -4.16846,-1.47455 -0.30906,-0.004 -0.29411,-0.0949 0.0514,-0.31368 0.66226,-0.41939 10.42475,-0.19446 12.16086,0.28025 4.25205,1.16264 5.635,3.8818 6.02354,11.84204 0.28853,5.91086 -0.14654,7.15356 -2.50558,7.15356 -2.82396,0 -5.62847,2.24319 -8.16851,6.53455 -1.80223,3.04488 -3.61378,5.36406 -6.9003,8.83316 -2.65086,2.79813 -4.51959,3.91933 -6.55449,3.93191 -1.40193,0.009 -2.64342,1.11746 -5.2072,4.65248 -3.10709,4.28417 -7.76732,6.60836 -17.41884,8.68661 -6.98565,1.50418 -8.06177,2.46081 -5.74071,5.10435 1.41272,1.60897 2.38026,2.09461 6.20737,3.1188 2.18566,0.58492 3.72252,1.11581 5.06708,1.7548 0.54449,-0.0597 1.08946,-0.11302 1.63782,-0.13434 1.37646,0.12478 2.80934,-0.6093 4.16589,-0.75592 2.83783,-0.62925 5.69093,-1.28755 8.59597,-1.50154 0.12341,-0.009 0.2388,-0.0105 0.35867,-0.0161 2.02201,-0.76158 4.06378,-1.4584 6.10196,-2.16555 1.5921,-1.13726 3.52094,-1.80444 5.3814,-2.40466 1.39531,-0.43687 2.80822,-0.80524 4.23531,-1.1088 0.0371,-3.016 0.15809,-5.94592 0.3259,-6.83731 0.50208,-2.66714 1.93862,-5.41677 3.41897,-6.54484 1.13581,-0.8655 1.54882,-0.96289 4.09776,-0.96289 2.67649,0 2.98487,0.0831 5.53824,1.4919 1.4872,0.82057 3.13587,1.49191 3.66323,1.49191 1.69622,0 3.73265,-1.32885 7.32389,-4.77975 1.93077,-1.85529 5.24767,-4.68782 7.37147,-6.2948 6.30081,-4.76742 7.63761,-6.27318 13.73053,-15.46156 3.04388,-4.59028 6.04718,-9.54095 6.6734,-11.00191 3.42324,-7.98666 2.93706,-16.54101 -1.64874,-29.01661 -0.92897,-2.52727 -1.87296,-5.68631 -2.09741,-7.02051 -0.56673,-3.36865 -1.1015,-4.13769 -2.67463,-3.84257 -2.77421,0.52043 -4.15635,-2.36137 -3.91906,-8.17237 0.16093,-3.94044 1.01484,-6.1811 2.74598,-7.2037 1.28194,-0.75726 1.86104,-0.61911 4.93852,1.18016 3.22531,1.88568 5.24512,3.91465 5.24512,5.26827 0,0.99626 -0.0517,1.03819 -0.78998,0.64407 -0.43442,-0.23189 -1.88515,-1.3432 -3.22421,-2.46958 -2.33719,-1.96601 -3.35791,-2.47418 -3.35791,-1.67317 0,0.20594 0.77958,2.14103 1.7323,4.30023 0.95267,2.1592 1.91211,4.93878 2.13212,6.17717 0.22004,1.23841 0.61887,2.81854 0.8864,3.51089 0.2675,0.69235 1.53437,5.44513 2.81476,10.56161 4.47194,17.87012 5.82775,21.44076 6.54484,17.24014 0.522,-3.05758 0.97955,-30.30914 0.98282,-58.37712 l 0.003,-29.02561 -1.75545,-3.41641 c -1.09042,-2.12238 -1.7548,-3.8673 -1.7548,-4.60748 0,-1.5083 0.54643,-1.21958 1.38391,0.73149 0.3431,0.7993 0.96285,2.00594 1.37749,2.6817 l 0.75399,1.22901 -0.0906,-25.802048 -0.09,-25.80204 -2.48437,-5.09022 c -3.9809,-8.15641 -6.09693,-11.26456 -9.17062,-13.47278 -3.2359,-2.324769 -11.27736,-5.483605 -13.96,-5.483605 -1.75128,0 -3.50538,-2.20066 -5.63145,-7.064209 -3.2938,-7.534946 -4.98228,-9.237392 -14.20234,-14.318043 C 168.12304,11.725638 154.37927,7.192338 141.17502,7.085243 Z m 6.16753,69.119349 c -0.98732,-0.003 -3.47572,0.49537 -7.58294,1.51697 -6.11935,1.52213 -10.1258,1.94392 -16.45916,1.73167 -3.83262,-0.12845 -4.91075,-0.0771 -4.26359,0.2044 0.47638,0.20723 1.97697,0.50657 3.33477,0.66528 5.16388,0.60361 11.61453,0.22677 17.40019,-1.01753 3.31329,-0.71254 8.06246,-2.43869 8.06246,-2.93045 0,-0.11213 -0.16262,-0.16918 -0.49173,-0.17034 z m -50.903459,16.14355 c -0.45236,-0.0277 -0.91392,-0.0183 -1.39034,0.027 -2.28679,0.21744 -4.91206,1.26648 -8.46484,3.05001 -2.70707,1.35902 -6.14637,3.18859 -7.64272,4.06626 l -2.72091,1.596038 v 3.79565 c 0,2.08759 0.10234,5.23164 0.22691,6.98643 l 0.22626,3.19015 2.8109,-3.69216 c 4.26895,-5.60711 7.77177,-7.87379 13.31337,-8.61526 2.52198,-0.33741 4.00249,-0.28037 10.236349,0.39596 4.00823,0.43487 7.37688,0.70163 7.48588,0.59265 0.33526,-0.33525 -0.7443,-1.66314 -4.13118,-5.081218 -4.07542,-4.11293 -6.783179,-6.11747 -9.949679,-6.31151 z m 103.174759,4.92374 c 0.0589,-0.0275 0.13497,-0.0244 0.22755,0.006 0.84863,0.28288 3.93597,6.520058 6.56541,13.263878 1.04768,2.68713 3.56231,10.40998 3.56231,10.94021 0,0.43858 -0.56745,0.35307 -0.96932,-0.14592 -1.20003,-1.48999 -5.23335,-10.75393 -7.94482,-18.24867 -1.42697,-3.944268 -1.85306,-5.623228 -1.44113,-5.815918 z m -96.15618,21.238908 c -3.42467,0.0158 -6.128159,0.49318 -6.438779,1.42505 -0.16005,0.48015 1.53425,0.69493 7.576509,0.96032 5.00917,0.22002 6.72996,0.44948 6.72996,0.89605 0,0.82886 -4.64752,1.4576 -15.446129,2.08969 -7.55754,0.44238 -13.31752,1.19294 -14.71978,1.91807 -1.1993,0.62017 -1.6044,1.80419 -0.78163,2.28446 0.78742,0.45964 2.11225,0.4371 8.48027,-0.14398 2.99263,-0.27308 8.36402,-0.59896 11.935879,-0.72442 13.14906,-0.46187 16.26014,-1.06315 17.19579,-3.32191 0.78081,-1.88517 -0.3008,-3.04476 -3.76544,-4.03734 -3.19617,-0.91567 -7.34196,-1.36184 -10.76665,-1.34599 z m 118.67424,5.00023 c 0.34969,-0.20296 0.32206,0.46796 -0.28219,2.12762 -1.87705,5.15551 -2.13402,6.42377 -2.17068,10.70559 -0.0332,3.88535 0.0486,4.44728 1.05931,7.2384 1.55219,4.28649 3.96548,16.2548 3.97305,19.70394 9.9e-4,0.53096 -0.12896,0.96546 -0.28861,0.96547 -0.71169,0 -3.73381,-10.73697 -5.17763,-18.39459 -1.69464,-8.98799 -1.43596,-14.49408 0.90375,-19.2315 0.90622,-1.83491 1.6333,-2.91198 1.983,-3.11493 z m -108.04836,6.35072 c -0.0571,-0.0472 -0.26354,-0.005 -0.65243,0.0971 -2.34679,0.61731 -7.53738,0.9707 -18.687049,1.27335 -13.81202,0.37492 -16.41858,0.82013 -9.04527,1.54397 3.02248,0.29673 19.090479,0.19651 21.774349,-0.13562 3.00099,-0.37139 5.5086,-1.29382 6.36871,-2.34296 0.20705,-0.25252 0.29883,-0.3886 0.24169,-0.4358 z m 64.99331,4.19224 c 0,-0.14463 -1.14503,0.0393 -2.54479,0.40881 -1.39982,0.36952 -4.59862,0.83632 -7.10856,1.03682 -5.72804,0.45756 -6.84566,0.62239 -6.84566,1.0111 0,0.1709 0.35556,0.37913 0.78998,0.4628 1.8977,0.36552 7.28912,0.19468 9.37503,-0.29697 2.42854,-0.5724 6.334,-2.18943 6.334,-2.62256 z m 44.56238,1.31321 c 0.15123,0.1015 0.36562,0.42045 0.71863,1.00789 0.45371,0.75497 1.66727,2.4307 2.69649,3.72365 1.02924,1.29296 1.87115,2.43862 1.87115,2.54543 0,0.7564 -3.56189,-1.55851 -4.56442,-2.96645 -0.92048,-1.29267 -1.39063,-3.07148 -1.0606,-4.01226 0.0995,-0.28374 0.18751,-0.39976 0.33875,-0.29826 z m -129.405539,2.94782 c -2.57768,0.0148 -4.67369,0.29179 -4.67369,0.69549 0,0.53168 1.72953,1.06686 4.38829,1.35756 1.35154,0.14778 3.12087,0.29002 3.93192,0.31625 1.79261,0.058 5.019509,-0.59666 5.019509,-1.01817 0,-0.51991 -2.48108,-1.04758 -5.987549,-1.27336 -0.90661,-0.0584 -1.81925,-0.0827 -2.67848,-0.0778 z m 115.854339,50.64248 c 0.34962,-0.0184 0.73565,0.8558 1.41798,3.02366 1.38824,4.41072 1.72515,8.73001 1.51505,19.42304 -0.20323,10.34157 -0.4527,12.23992 -1.91615,14.60409 -0.52824,0.85338 -1.14706,1.61307 -1.37556,1.68859 -0.31709,0.10482 -0.39788,-4.37562 -0.34067,-18.92809 0.0412,-10.48608 0.19993,-19.26597 0.35224,-19.51047 0.11813,-0.18959 0.23059,-0.29468 0.34711,-0.30082 z m -31.66425,0.78291 c 0.53629,-0.009 0.84658,0.1804 0.92754,0.57144 0.19611,0.94726 -3.22971,4.31252 -6.76853,6.64833 -3.93687,2.59852 -10.68961,5.93845 -14.39325,7.11884 -4.95994,1.58081 -5.79214,1.96012 -5.79214,2.64121 0,0.84599 0.67798,1.06188 3.33542,1.06188 2.63887,0 3.33477,0.21574 3.33477,1.03553 0,0.75068 -2.3793,3.1469 -4.73797,4.77139 -2.98856,2.05829 -9.24168,3.9691 -16.67578,5.096 -4.62819,0.70157 -10.4671,0.83149 -12.80172,0.28476 -2.70581,-0.63365 -3.67259,-2.54152 -2.46829,-4.87038 0.71192,-1.37668 2.02126,-1.69711 8.61011,-2.10641 5.94261,-0.36918 8.40313,-0.73954 10.96013,-1.65003 1.76579,-0.62874 2.02921,-0.94306 1.09145,-1.30293 -0.31683,-0.12158 -5.72733,-0.3722 -12.0233,-0.55729 -11.19638,-0.32917 -14.94514,-0.72368 -16.95796,-1.78438 -2.77006,-1.45971 -8.70717,-6.45004 -8.70717,-7.31875 0,-1.05667 2.73183,-0.0975 5.92005,2.07877 1.19508,0.81577 2.91898,1.71087 3.831,1.98942 2.35967,0.72069 14.85701,0.99789 23.24762,0.51551 14.16084,-0.81412 19.18842,-2.32635 29.26923,-8.80487 5.55129,-3.56756 9.18994,-5.38991 10.79879,-5.41804 z m -3.33605,7.86127 c 0.25585,0 0.55846,0.4345 0.6717,0.96546 0.42054,1.97141 1.72985,5.33183 4.23146,10.85857 1.4142,3.12432 2.67297,6.08633 2.7974,6.58212 0.38641,1.53957 -0.55812,1.00874 -3.35984,-1.88721 -2.149,-2.22127 -3.24618,-3.02772 -5.96826,-4.3883 -3.00142,-1.50017 -3.51309,-1.64889 -5.11978,-1.48869 -2.43421,0.24272 -2.83126,-0.0502 -2.11477,-1.56004 1.1137,-2.34687 7.6856,-9.08191 8.86209,-9.08191 z m -81.278919,18.61699 c -0.44972,-0.21094 -1.03277,1.1168 -1.79852,3.9602 -1.66159,6.17008 -2.8451,7.46579 -7.7687,8.50147 -1.51712,0.31915 -3.00496,0.88988 -3.69987,1.41992 -1.8448,1.40708 -2.83872,3.93393 -1.7998,4.57599 0.77268,0.47756 4.18899,0.16141 7.89147,-0.73085 5.65919,-1.3638 6.84,-1.09413 3.75966,0.8594 -1.62,1.02736 -3.05155,1.41715 -7.64786,2.08263 -2.47298,0.35806 -3.19371,0.82558 -2.68235,1.73938 0.15748,0.28137 2.39829,1.24556 4.97966,2.1424 2.58135,0.89682 5.32515,1.9357 6.09746,2.30888 l 1.40449,0.67879 -1.57997,0.2931 c -0.86884,0.16143 -1.94205,0.36548 -2.38473,0.45317 -2.07565,0.41115 -0.81567,2.49262 2.17904,3.5996 0.9818,0.36293 2.5751,0.774 3.54046,0.9134 3.41077,0.49249 10.117229,3.89475 9.923319,5.03429 -0.10893,0.64028 2.92277,1.70158 6.04925,2.11798 3.97838,0.52985 4.18598,0.22366 1.26115,-1.86344 -3.85915,-2.75383 -6.07799,-5.51274 -9.35638,-11.63441 -5.766609,-10.76783 -6.860339,-13.91073 -7.369539,-21.17978 -0.23197,-3.31135 -0.54854,-5.06119 -0.99824,-5.27212 z m 16.040699,43.02483 c -3.33352,-0.022 -4.94042,0.099 -5.23484,0.39339 -0.54572,0.54571 0.83216,1.12735 3.55075,1.49897 4.373,0.59777 9.47851,0.22078 9.47851,-0.69999 0,-0.67657 -3.17185,-1.16189 -7.79442,-1.19237 z" /></svg>
