<?xml version="1.0" encoding="utf-8"?>
<!-- Generator: Adobe Illustrator 15.1.0, SVG Export Plug-In . SVG Version: 6.00 Build 0)  -->
<!DOCTYPE svg PUBLIC "-//W3C//DTD SVG 1.1//EN" "http://www.w3.org/Graphics/SVG/1.1/DTD/svg11.dtd">
<svg version="1.1" id="Layer_6" xmlns="http://www.w3.org/2000/svg" xmlns:xlink="http://www.w3.org/1999/xlink" x="0px" y="0px"
	 width="283.465px" height="283.465px" viewBox="0 0 283.465 283.465" enable-background="new 0 0 283.465 283.465"
	 xml:space="preserve">
<g>
	<g>
		<path d="M160.82,97.186V89.59c-5.387-1.969-11.098-3.094-16.969-3.313v10.909H160.82L160.82,97.186z"/>
	</g>
	<g>
		<path d="M174.85,97.186c-3.07-2.294-6.349-4.246-9.787-5.84v5.84H174.85L174.85,97.186z"/>
	</g>
	<g>
		<path d="M165.063,118.396h16.971V103.58c-0.348-0.367-0.699-0.731-1.061-1.092c-0.357-0.359-0.726-0.713-1.093-1.063h-14.817
			V118.396z"/>
	</g>
	<g>
		<path d="M97.185,108.621c-2.289,3.067-4.236,6.342-5.83,9.774h5.83V108.621z"/>
	</g>
	<g>
		<path d="M118.392,91.349c-3.436,1.594-6.711,3.545-9.779,5.837h9.779V91.349z"/>
	</g>
	<g>
		<path d="M118.392,118.396v-16.969h-14.811c-0.365,0.347-0.729,0.697-1.084,1.056c-0.361,0.36-0.717,0.728-1.066,1.097v14.816
			H118.392z"/>
	</g>
	<g>
		<path d="M139.612,97.186v-10.91c-5.873,0.22-11.584,1.345-16.971,3.313v7.596L139.612,97.186L139.612,97.186z"/>
	</g>
	<g>
		<path d="M165.063,165.068v16.971h14.815c0.369-0.35,0.731-0.703,1.095-1.063c0.358-0.359,0.711-0.726,1.061-1.095v-14.813H165.063
			z"/>
	</g>
	<g>
		<path d="M165.063,192.115c3.438-1.594,6.715-3.543,9.783-5.836h-9.783V192.115z"/>
	</g>
	<g>
		<path d="M192.109,118.396c-1.594-3.436-3.543-6.713-5.836-9.783v9.783H192.109z"/>
	</g>
	<g>
		<path d="M97.185,122.643h-7.586c-1.969,5.387-3.096,11.096-3.314,16.965h10.902v-16.965H97.185z"/>
	</g>
	<g>
		<path d="M186.273,139.607h10.906c-0.219-5.87-1.346-11.579-3.313-16.965h-7.594V139.607L186.273,139.607z"/>
	</g>
	<g>
		<path d="M186.273,160.824h7.593c1.969-5.391,3.096-11.1,3.313-16.971h-10.906V160.824L186.273,160.824z"/>
	</g>
	<g>
		<path d="M186.273,174.85c2.291-3.067,4.24-6.346,5.836-9.781h-5.836V174.85z"/>
	</g>
	<g>
		<rect x="165.063" y="122.643" width="16.971" height="16.965"/>
	</g>
	<g>
		<path d="M97.185,143.854H86.282c0.219,5.871,1.346,11.58,3.313,16.972h7.59V143.854L97.185,143.854z"/>
	</g>
	<g>
		<rect x="143.854" y="143.854" width="16.969" height="16.972"/>
	</g>
	<g>
		<rect x="122.642" y="101.428" width="16.971" height="16.969"/>
	</g>
	<g>
		<rect x="122.642" y="165.068" width="16.971" height="16.971"/>
	</g>
	<g>
		<rect x="143.854" y="101.428" width="16.969" height="16.969"/>
	</g>
	<g>
		<rect x="101.431" y="143.854" width="16.959" height="16.972"/>
	</g>
	<g>
		<rect x="101.431" y="122.643" width="16.959" height="16.965"/>
	</g>
	<g>
		<path d="M160.82,186.279h-16.969v10.904c5.871-0.22,11.582-1.347,16.969-3.313V186.279z"/>
	</g>
	<g>
		<rect x="165.063" y="143.854" width="16.971" height="16.972"/>
	</g>
	<g>
		<path d="M118.392,165.068h-16.961v14.82c0.35,0.366,0.701,0.731,1.063,1.092c0.357,0.356,0.721,0.711,1.086,1.059h14.813
			L118.392,165.068L118.392,165.068z"/>
	</g>
	<g>
		<path d="M108.612,186.279c3.068,2.291,6.344,4.24,9.779,5.834v-5.834H108.612z"/>
	</g>
	<g>
		<path d="M122.642,186.279v7.594c5.387,1.967,11.098,3.092,16.971,3.311v-10.901h-16.971V186.279z"/>
	</g>
	<g>
		<path d="M91.353,165.068c1.594,3.436,3.541,6.711,5.832,9.779v-9.779H91.353z"/>
	</g>
	<g>
		<rect x="143.854" y="122.643" width="16.969" height="16.965"/>
	</g>
	<g>
		<rect x="122.642" y="143.854" width="16.971" height="16.972"/>
	</g>
	<g>
		<rect x="143.854" y="165.068" width="16.969" height="16.971"/>
	</g>
	<g>
		<rect x="122.642" y="122.643" width="16.971" height="16.965"/>
	</g>
	<path d="M140.237,50.383c0.291,1.084,0.496,2.178,0.623,3.272c0.291-0.003,0.58-0.011,0.871-0.011c0.297,0,0.594,0.008,0.891,0.011
		c0.121-1.088,0.323-2.18,0.614-3.269c1.5-5.592,6.562-15.916,11.822-24.146c-3.406-10.224-8.121-19.154-13.328-19.154
		c-5.199,0-9.912,8.926-13.322,19.146C133.673,34.463,138.737,44.791,140.237,50.383z"/>
	<path d="M143.238,233.076c-0.293-1.092-0.495-2.186-0.616-3.275c-0.297,0.004-0.592,0.012-0.891,0.012
		c-0.291,0-0.58-0.008-0.871-0.01c-0.125,1.1-0.332,2.195-0.625,3.285c-1.5,5.59-6.563,15.916-11.83,24.146
		c3.408,10.221,8.121,19.145,13.324,19.145c5.203,0,9.916-8.928,13.326-19.15C149.794,248.994,144.736,238.668,143.238,233.076z"/>
	<path d="M231.868,44.883c-0.175,0.002-0.354,0.006-0.531,0.014c-0.069,0.003-0.142,0.008-0.209,0.012
		c-0.14,0.008-0.276,0.016-0.42,0.028c-0.08,0.006-0.16,0.015-0.242,0.022c-0.135,0.012-0.271,0.026-0.407,0.043
		c-0.084,0.01-0.168,0.02-0.252,0.029c-0.146,0.02-0.291,0.04-0.437,0.063c-0.08,0.012-0.158,0.021-0.236,0.035
		c-0.184,0.029-0.368,0.062-0.557,0.097c-0.043,0.008-0.084,0.014-0.13,0.022c-0.229,0.043-0.461,0.09-0.694,0.142
		c-0.073,0.016-0.149,0.034-0.228,0.051c-0.162,0.037-0.325,0.074-0.489,0.112c-0.095,0.023-0.188,0.047-0.281,0.07
		c-0.151,0.039-0.303,0.076-0.455,0.117c-0.101,0.026-0.196,0.053-0.297,0.079c-0.153,0.042-0.31,0.085-0.463,0.13
		c-0.099,0.028-0.192,0.055-0.293,0.084c-0.172,0.051-0.347,0.104-0.521,0.158c-0.08,0.025-0.158,0.048-0.238,0.074
		c-0.252,0.078-0.506,0.16-0.76,0.246c-0.068,0.023-0.142,0.047-0.209,0.07c-0.189,0.064-0.381,0.129-0.572,0.197
		c-0.104,0.036-0.205,0.073-0.309,0.109c-0.162,0.058-0.326,0.117-0.488,0.177c-0.109,0.04-0.221,0.081-0.33,0.122
		c-0.158,0.061-0.318,0.12-0.479,0.182c-0.11,0.043-0.223,0.086-0.336,0.129c-0.166,0.065-0.334,0.133-0.502,0.199
		c-0.104,0.041-0.207,0.082-0.31,0.123c-0.225,0.092-0.446,0.184-0.674,0.277c-0.061,0.025-0.117,0.049-0.18,0.074
		c-0.254,0.106-0.512,0.217-0.768,0.328c-0.105,0.045-0.209,0.092-0.314,0.138c-0.172,0.075-0.344,0.149-0.514,0.228
		c-0.117,0.051-0.232,0.104-0.35,0.155c-0.164,0.074-0.328,0.149-0.492,0.224c-0.117,0.055-0.232,0.107-0.353,0.162
		c-0.166,0.078-0.334,0.156-0.502,0.235c-0.112,0.053-0.228,0.106-0.34,0.161c-0.188,0.09-0.379,0.182-0.567,0.273
		c-0.089,0.043-0.179,0.084-0.267,0.127c-0.272,0.133-0.545,0.269-0.817,0.403c-0.025,0.013-0.052,0.026-0.076,0.039
		c-2.377,10.837-6.193,21.063-8.722,25.433c-0.562,0.973-1.188,1.891-1.881,2.752c0.209,0.207,0.424,0.408,0.631,0.617
		c0.211,0.211,0.416,0.428,0.625,0.639c0.856-0.685,1.774-1.314,2.755-1.879c4.338-2.504,14.831-6.402,25.438-8.731
		c4.813-9.633,7.786-19.271,4.104-22.949c-0.131-0.131-0.27-0.251-0.416-0.364c-0.047-0.037-0.096-0.069-0.145-0.104
		c-0.104-0.076-0.211-0.147-0.322-0.216c-0.057-0.035-0.115-0.069-0.174-0.102c-0.113-0.063-0.23-0.123-0.352-0.18
		c-0.058-0.025-0.111-0.055-0.17-0.079c-0.168-0.071-0.341-0.137-0.521-0.194c-0.013-0.004-0.022-0.01-0.035-0.014
		c-0.19-0.061-0.392-0.113-0.594-0.158c-0.063-0.016-0.132-0.027-0.197-0.041c-0.146-0.029-0.293-0.056-0.442-0.078
		c-0.076-0.011-0.152-0.021-0.232-0.031c-0.15-0.018-0.305-0.032-0.463-0.045c-0.074-0.006-0.146-0.012-0.225-0.017
		c-0.209-0.012-0.422-0.019-0.642-0.021c-0.022,0-0.047,0-0.069,0C231.917,44.883,231.893,44.883,231.868,44.883z"/>
	<path d="M51.624,238.582c0.164-0.002,0.33-0.006,0.5-0.012c0.074-0.004,0.148-0.01,0.225-0.014
		c0.133-0.009,0.268-0.017,0.402-0.027c0.084-0.008,0.168-0.016,0.254-0.021c0.131-0.014,0.264-0.027,0.396-0.043
		c0.088-0.01,0.174-0.02,0.262-0.031c0.139-0.018,0.281-0.039,0.424-0.061c0.082-0.012,0.162-0.023,0.244-0.035
		c0.18-0.029,0.363-0.063,0.547-0.096c0.047-0.008,0.09-0.016,0.137-0.023c0.229-0.043,0.459-0.092,0.693-0.141
		c0.076-0.018,0.152-0.035,0.229-0.053c0.162-0.035,0.326-0.072,0.49-0.113c0.094-0.021,0.188-0.045,0.279-0.068
		c0.152-0.037,0.305-0.078,0.459-0.117c0.098-0.024,0.195-0.053,0.293-0.08c0.156-0.041,0.313-0.086,0.471-0.131
		c0.094-0.024,0.188-0.053,0.281-0.082c0.18-0.053,0.361-0.104,0.541-0.162c0.074-0.022,0.146-0.045,0.221-0.065
		c0.254-0.08,0.51-0.164,0.768-0.25c0.057-0.021,0.113-0.039,0.17-0.06c0.205-0.067,0.41-0.139,0.615-0.211
		c0.092-0.031,0.186-0.063,0.277-0.1c0.174-0.061,0.346-0.123,0.521-0.188c0.102-0.037,0.205-0.074,0.307-0.113
		c0.168-0.063,0.338-0.127,0.508-0.193c0.104-0.039,0.205-0.078,0.307-0.117c0.182-0.07,0.365-0.145,0.549-0.217
		c0.088-0.035,0.176-0.07,0.264-0.105c0.256-0.104,0.512-0.209,0.77-0.315c0.018-0.006,0.033-0.015,0.049-0.021
		c0.275-0.113,0.551-0.232,0.828-0.353c0.082-0.036,0.166-0.073,0.25-0.11c0.193-0.084,0.387-0.17,0.582-0.256
		c0.102-0.045,0.201-0.093,0.303-0.138c0.18-0.082,0.361-0.164,0.541-0.246c0.104-0.047,0.207-0.096,0.309-0.144
		c0.189-0.088,0.375-0.176,0.564-0.264c0.092-0.045,0.186-0.088,0.279-0.133c0.225-0.105,0.447-0.215,0.674-0.324
		c0.055-0.024,0.109-0.053,0.166-0.08c0.281-0.137,0.566-0.276,0.85-0.42c0.02-0.01,0.043-0.02,0.063-0.031
		c0.264-1.19,0.537-2.348,0.811-3.442c2.156-8.621,5.412-17.666,7.914-21.987c0.559-0.97,1.188-1.886,1.877-2.744
		c-0.213-0.209-0.428-0.412-0.639-0.623c-0.209-0.209-0.41-0.422-0.615-0.631c-0.857,0.688-1.775,1.315-2.756,1.881
		c-4.346,2.504-14.844,6.396-25.443,8.725c-4.813,9.633-7.787,19.27-4.106,22.947c0.131,0.131,0.271,0.252,0.417,0.365
		c0.046,0.035,0.096,0.067,0.145,0.104c0.104,0.076,0.211,0.146,0.32,0.215c0.059,0.035,0.117,0.07,0.178,0.104
		c0.111,0.063,0.229,0.121,0.346,0.179c0.059,0.024,0.115,0.055,0.176,0.079c0.162,0.068,0.33,0.134,0.504,0.189
		c0.018,0.006,0.033,0.012,0.051,0.02c0.189,0.063,0.389,0.111,0.592,0.156c0.064,0.017,0.133,0.027,0.199,0.041
		c0.145,0.029,0.291,0.058,0.439,0.076c0.078,0.012,0.154,0.023,0.234,0.031c0.152,0.02,0.309,0.035,0.467,0.047
		c0.072,0.006,0.145,0.012,0.217,0.016c0.217,0.015,0.438,0.021,0.664,0.021c0.018,0,0.031,0.002,0.047,0.002
		C51.554,238.584,51.589,238.582,51.624,238.582z"/>
	<path d="M233.087,140.232c-1.094,0.293-2.205,0.5-3.321,0.623c0.006,0.586,0.006,1.17,0,1.754c1.114,0.123,2.225,0.328,3.315,0.621
		c4.881,1.309,14.813,5.844,24.153,11.828c0.632-0.211,1.257-0.427,1.875-0.646c0.019-0.006,0.035-0.012,0.056-0.02
		c0.303-0.107,0.604-0.218,0.901-0.326c0.011-0.006,0.021-0.008,0.029-0.012c0.309-0.113,0.615-0.229,0.92-0.345
		c0-0.002,0-0.002,0.002-0.002c0.271-0.103,0.537-0.207,0.805-0.313c0.035-0.014,0.07-0.024,0.105-0.039
		c0.268-0.104,0.526-0.213,0.788-0.315c0.035-0.017,0.07-0.028,0.104-0.043c0.267-0.108,0.525-0.22,0.785-0.328
		c0.031-0.015,0.063-0.024,0.093-0.039c0.229-0.096,0.452-0.192,0.676-0.291c0.063-0.026,0.125-0.055,0.188-0.082
		c0.209-0.092,0.414-0.187,0.621-0.276c0.071-0.033,0.146-0.066,0.221-0.103c0.209-0.096,0.412-0.19,0.615-0.289
		c0.067-0.03,0.139-0.063,0.205-0.096c0.209-0.103,0.416-0.201,0.621-0.304c0.059-0.028,0.118-0.059,0.178-0.088
		c0.182-0.09,0.354-0.182,0.531-0.271c0.082-0.043,0.166-0.084,0.248-0.127c0.17-0.088,0.336-0.181,0.502-0.271
		c0.082-0.045,0.168-0.09,0.25-0.133c0.155-0.088,0.311-0.176,0.463-0.262c0.088-0.051,0.178-0.1,0.264-0.148
		c0.148-0.086,0.291-0.172,0.436-0.258c0.088-0.053,0.178-0.104,0.266-0.156c0.134-0.08,0.263-0.162,0.394-0.244
		c0.093-0.059,0.188-0.116,0.278-0.176c0.146-0.094,0.281-0.186,0.423-0.279c0.069-0.049,0.146-0.098,0.219-0.145
		c0.123-0.086,0.242-0.17,0.361-0.256c0.081-0.059,0.168-0.117,0.25-0.176c0.092-0.066,0.178-0.135,0.268-0.203
		c0.104-0.078,0.21-0.154,0.31-0.232c0.082-0.063,0.156-0.127,0.236-0.188c0.104-0.082,0.207-0.166,0.307-0.248
		c0.084-0.069,0.162-0.144,0.242-0.213c0.09-0.078,0.182-0.154,0.266-0.231c0.084-0.076,0.16-0.15,0.24-0.23
		c0.076-0.073,0.156-0.145,0.229-0.221c0.076-0.076,0.146-0.154,0.222-0.229c0.069-0.074,0.145-0.147,0.211-0.224
		c0.071-0.078,0.139-0.157,0.205-0.237c0.063-0.072,0.129-0.146,0.188-0.22c0.063-0.082,0.125-0.164,0.188-0.246
		c0.055-0.071,0.11-0.145,0.164-0.217c0.063-0.092,0.123-0.184,0.184-0.274c0.041-0.063,0.088-0.125,0.127-0.188
		c0.053-0.084,0.098-0.17,0.145-0.256c0.039-0.07,0.084-0.144,0.121-0.214c0.039-0.073,0.068-0.147,0.104-0.226
		c0.039-0.082,0.082-0.166,0.115-0.247c0.039-0.095,0.068-0.188,0.104-0.279c0.021-0.065,0.051-0.131,0.069-0.196
		c0.041-0.129,0.072-0.259,0.104-0.386c0.007-0.032,0.019-0.063,0.022-0.096c0.023-0.111,0.037-0.226,0.056-0.334
		c0.006-0.052,0.019-0.101,0.021-0.148c0.019-0.162,0.025-0.324,0.025-0.486c-0.002-5.202-8.922-9.912-19.141-13.32
		c-1.029,0.659-2.039,1.283-3.01,1.864C246.611,134.846,237.919,138.939,233.087,140.232z"/>
	<path d="M50.386,143.24c1.09-0.293,2.199-0.498,3.316-0.623c-0.006-0.586-0.006-1.174,0-1.76c-1.117-0.125-2.225-0.33-3.314-0.623
		c-4.879-1.307-14.813-5.84-24.156-11.827c-10.221,3.407-19.145,8.119-19.145,13.327c0,5.204,8.927,9.917,19.148,13.325
		C35.574,149.076,45.507,144.545,50.386,143.24z"/>
	<path d="M204.632,203.377c-0.207,0.211-0.407,0.424-0.616,0.633c-0.211,0.211-0.427,0.416-0.64,0.623
		c0.69,0.865,1.324,1.785,1.888,2.76c2.524,4.371,6.34,14.599,8.711,25.435c0.026,0.014,0.055,0.024,0.082,0.041
		c0.271,0.135,0.541,0.269,0.813,0.399c0.096,0.045,0.189,0.092,0.285,0.139c0.184,0.089,0.367,0.179,0.551,0.267
		c0.115,0.056,0.23,0.106,0.346,0.162c0.164,0.078,0.328,0.153,0.492,0.229c0.121,0.058,0.242,0.111,0.361,0.166
		c0.16,0.074,0.32,0.146,0.479,0.222c0.119,0.053,0.238,0.104,0.354,0.159c0.171,0.074,0.341,0.148,0.511,0.226
		c0.104,0.045,0.213,0.095,0.317,0.14c0.256,0.11,0.511,0.221,0.765,0.326c0.071,0.028,0.144,0.061,0.215,0.088
		c0.213,0.09,0.427,0.18,0.64,0.266c0.104,0.043,0.211,0.084,0.315,0.127c0.166,0.064,0.33,0.131,0.496,0.193
		c0.112,0.045,0.228,0.09,0.34,0.133c0.158,0.061,0.313,0.119,0.472,0.18c0.112,0.041,0.227,0.084,0.338,0.125
		c0.162,0.059,0.321,0.117,0.481,0.174c0.104,0.037,0.207,0.074,0.312,0.111c0.19,0.066,0.381,0.131,0.567,0.193
		c0.072,0.024,0.146,0.051,0.216,0.073c0.254,0.084,0.506,0.166,0.754,0.244c0.088,0.026,0.174,0.054,0.26,0.078
		c0.168,0.053,0.336,0.104,0.502,0.151c0.102,0.029,0.203,0.06,0.305,0.088c0.15,0.043,0.301,0.086,0.449,0.127
		c0.104,0.025,0.205,0.056,0.307,0.082c0.148,0.039,0.297,0.076,0.445,0.111c0.096,0.025,0.193,0.051,0.291,0.072
		c0.16,0.039,0.318,0.076,0.479,0.111c0.078,0.018,0.158,0.037,0.238,0.053c0.232,0.051,0.463,0.098,0.689,0.141
		c0.053,0.012,0.104,0.021,0.156,0.027c0.178,0.033,0.354,0.063,0.526,0.092c0.084,0.014,0.166,0.025,0.25,0.037
		c0.142,0.021,0.28,0.041,0.42,0.061c0.088,0.013,0.176,0.021,0.265,0.031c0.135,0.016,0.266,0.029,0.396,0.041
		c0.084,0.008,0.17,0.018,0.254,0.023c0.135,0.01,0.271,0.02,0.401,0.025c0.074,0.006,0.15,0.012,0.226,0.014
		c0.172,0.008,0.342,0.012,0.508,0.012c0.033,0,0.063,0.002,0.099,0.002c0.01,0,0.02,0,0.028,0c0.232,0,0.46-0.008,0.685-0.021
		c0.068-0.004,0.139-0.012,0.209-0.016c0.162-0.014,0.322-0.027,0.479-0.047c0.074-0.01,0.148-0.02,0.221-0.031
		c0.156-0.021,0.312-0.051,0.461-0.08c0.062-0.014,0.123-0.022,0.185-0.037c0.207-0.047,0.407-0.1,0.603-0.16
		c0.002,0,0.002-0.002,0.002-0.002c0.19-0.063,0.375-0.133,0.555-0.207c0.055-0.022,0.105-0.051,0.16-0.073
		c0.123-0.06,0.244-0.119,0.361-0.187c0.057-0.031,0.11-0.063,0.168-0.098c0.112-0.07,0.223-0.143,0.327-0.221
		c0.048-0.033,0.095-0.066,0.142-0.102c0.146-0.115,0.287-0.234,0.418-0.367c3.678-3.676,0.699-13.313-4.113-22.945
		c-10.605-2.33-21.096-6.232-25.426-8.736C206.423,204.697,205.499,204.068,204.632,203.377z"/>
	<path d="M78.843,80.069c0.201-0.206,0.398-0.415,0.604-0.618c0.211-0.212,0.428-0.418,0.641-0.625
		c-0.691-0.863-1.324-1.781-1.887-2.753c-2.523-4.379-6.334-14.604-8.705-25.429c-0.025-0.012-0.047-0.023-0.072-0.036
		c-0.283-0.142-0.566-0.282-0.85-0.42c-0.057-0.026-0.111-0.054-0.166-0.08c-0.225-0.108-0.449-0.218-0.674-0.325
		c-0.094-0.044-0.186-0.087-0.277-0.131c-0.189-0.089-0.377-0.177-0.566-0.266c-0.102-0.047-0.203-0.094-0.303-0.141
		c-0.184-0.084-0.369-0.168-0.553-0.25c-0.098-0.044-0.193-0.088-0.291-0.132c-0.201-0.089-0.4-0.178-0.602-0.265
		c-0.078-0.034-0.156-0.069-0.232-0.104c-0.279-0.121-0.559-0.24-0.834-0.355c-0.006-0.002-0.012-0.006-0.018-0.008
		c-0.268-0.112-0.535-0.221-0.801-0.33c-0.084-0.033-0.166-0.065-0.248-0.098c-0.189-0.076-0.379-0.152-0.566-0.225
		c-0.098-0.038-0.195-0.076-0.293-0.113c-0.176-0.066-0.35-0.133-0.521-0.197c-0.1-0.037-0.197-0.074-0.295-0.11
		c-0.178-0.066-0.355-0.13-0.533-0.192c-0.088-0.031-0.178-0.064-0.268-0.095c-0.219-0.077-0.436-0.151-0.65-0.224
		c-0.045-0.016-0.09-0.031-0.133-0.045c-0.26-0.088-0.52-0.17-0.775-0.252c-0.068-0.021-0.137-0.041-0.205-0.062
		c-0.188-0.058-0.373-0.115-0.559-0.169c-0.09-0.025-0.178-0.051-0.268-0.077c-0.162-0.047-0.326-0.093-0.486-0.138
		c-0.094-0.024-0.188-0.049-0.279-0.074c-0.16-0.042-0.318-0.083-0.475-0.122c-0.088-0.022-0.178-0.044-0.266-0.065
		c-0.174-0.041-0.346-0.08-0.516-0.119c-0.068-0.015-0.137-0.03-0.205-0.045c-0.236-0.051-0.469-0.1-0.701-0.143
		c-0.039-0.007-0.076-0.013-0.115-0.021c-0.189-0.035-0.381-0.067-0.568-0.099c-0.078-0.012-0.154-0.022-0.23-0.034
		c-0.146-0.022-0.295-0.043-0.439-0.063c-0.084-0.012-0.168-0.021-0.25-0.03c-0.139-0.016-0.275-0.03-0.41-0.043
		c-0.082-0.008-0.164-0.015-0.244-0.022c-0.141-0.01-0.279-0.02-0.416-0.027c-0.07-0.004-0.141-0.01-0.211-0.012
		c-0.18-0.008-0.357-0.012-0.531-0.014c-0.023,0-0.051,0-0.074,0c-0.018,0-0.033,0-0.051,0c-0.227,0-0.445,0.008-0.662,0.021
		c-0.072,0.004-0.145,0.011-0.217,0.017c-0.16,0.012-0.316,0.027-0.471,0.047c-0.076,0.008-0.152,0.02-0.229,0.03
		c-0.152,0.022-0.303,0.05-0.449,0.079c-0.064,0.014-0.129,0.023-0.191,0.039c-0.205,0.047-0.406,0.1-0.598,0.16
		c-0.008,0.002-0.014,0.005-0.021,0.007c-0.184,0.06-0.361,0.127-0.533,0.2c-0.057,0.025-0.11,0.052-0.165,0.078
		c-0.122,0.057-0.241,0.117-0.356,0.181c-0.058,0.032-0.115,0.065-0.171,0.101c-0.112,0.067-0.22,0.141-0.325,0.217
		c-0.047,0.035-0.096,0.067-0.142,0.104c-0.146,0.113-0.287,0.234-0.418,0.365c-3.679,3.681-0.705,13.314,4.106,22.945
		c10.607,2.33,21.113,6.229,25.461,8.735C77.065,78.76,77.981,79.385,78.843,80.069z"/>
	<path d="M81.116,74.393c0.432,0.746,0.904,1.449,1.418,2.113c4.916-4.471,10.254-8.332,15.922-11.539
		c-0.43-0.99-0.797-2.02-1.082-3.086c-1.309-4.879-2.352-15.746-1.842-26.828c-0.254-0.227-0.512-0.451-0.768-0.674
		c-0.047-0.043-0.096-0.084-0.145-0.125c-0.193-0.168-0.389-0.336-0.584-0.502c-0.066-0.058-0.133-0.115-0.201-0.17
		c-0.176-0.15-0.354-0.3-0.531-0.447c-0.074-0.063-0.148-0.125-0.225-0.188c-0.17-0.143-0.34-0.281-0.512-0.421
		c-0.078-0.063-0.154-0.126-0.232-0.188c-0.168-0.137-0.336-0.271-0.504-0.405c-0.078-0.063-0.158-0.126-0.236-0.188
		c-0.17-0.134-0.338-0.265-0.506-0.396c-0.076-0.06-0.152-0.119-0.229-0.179c-0.174-0.133-0.348-0.267-0.521-0.397
		c-0.07-0.054-0.139-0.106-0.209-0.158c-0.188-0.142-0.375-0.28-0.563-0.419c-0.055-0.04-0.107-0.08-0.162-0.119
		c-0.232-0.169-0.463-0.336-0.695-0.5c-0.008-0.007-0.018-0.013-0.025-0.02c-0.488-0.348-0.975-0.68-1.457-0.998
		c-0.049-0.032-0.098-0.063-0.145-0.096c-0.188-0.123-0.373-0.244-0.561-0.361c-0.068-0.044-0.139-0.087-0.209-0.131
		c-0.162-0.104-0.324-0.204-0.486-0.303c-0.08-0.049-0.158-0.097-0.238-0.145c-0.152-0.091-0.303-0.182-0.453-0.268
		c-0.084-0.049-0.168-0.098-0.252-0.146c-0.145-0.083-0.289-0.165-0.434-0.245c-0.084-0.047-0.168-0.093-0.252-0.139
		c-0.145-0.077-0.285-0.152-0.426-0.227c-0.084-0.043-0.168-0.088-0.252-0.129c-0.141-0.072-0.281-0.143-0.422-0.211
		c-0.08-0.039-0.162-0.078-0.24-0.117c-0.145-0.068-0.289-0.135-0.434-0.199c-0.072-0.033-0.146-0.067-0.219-0.101
		c-0.158-0.069-0.314-0.135-0.469-0.198c-0.057-0.024-0.115-0.049-0.172-0.072c-0.424-0.172-0.842-0.323-1.248-0.453
		c-0.053-0.018-0.104-0.031-0.156-0.047c-0.148-0.045-0.295-0.09-0.441-0.129c-0.072-0.021-0.143-0.037-0.213-0.055
		c-0.125-0.031-0.25-0.063-0.371-0.09c-0.078-0.018-0.154-0.031-0.23-0.048c-0.115-0.022-0.229-0.045-0.342-0.063
		c-0.078-0.014-0.156-0.025-0.234-0.037c-0.107-0.016-0.213-0.029-0.32-0.041c-0.078-0.01-0.156-0.016-0.234-0.022
		c-0.104-0.008-0.203-0.015-0.305-0.021c-0.078-0.002-0.154-0.006-0.23-0.006c-0.125-0.002-0.25-0.002-0.371,0.002
		c-0.031,0-0.061,0-0.09,0.002c-0.154,0.008-0.307,0.021-0.457,0.041c-0.039,0.004-0.076,0.011-0.115,0.016
		c-0.119,0.018-0.236,0.038-0.352,0.063c-0.037,0.008-0.074,0.015-0.111,0.022c-0.145,0.033-0.283,0.069-0.422,0.114
		c-0.025,0.009-0.051,0.019-0.076,0.027c-0.115,0.039-0.229,0.082-0.338,0.129c-0.037,0.017-0.072,0.031-0.109,0.049
		c-0.131,0.06-0.26,0.123-0.387,0.195C65.413,30.313,75.923,65.375,81.116,74.393z"/>
	<path d="M202.348,209.076c-0.433-0.748-0.906-1.455-1.423-2.121c-4.909,4.467-10.243,8.324-15.905,11.529
		c0.434,0.996,0.803,2.033,1.09,3.106c1.311,4.875,2.35,15.744,1.836,26.83c0.092,0.08,0.182,0.16,0.272,0.24
		c0.148,0.131,0.298,0.262,0.447,0.394c0.104,0.092,0.213,0.186,0.319,0.276c0.136,0.114,0.271,0.229,0.402,0.349
		c0.111,0.094,0.225,0.188,0.336,0.282c0.131,0.11,0.262,0.222,0.394,0.33c0.112,0.097,0.229,0.188,0.342,0.283
		c0.129,0.104,0.258,0.213,0.39,0.317c0.112,0.094,0.227,0.188,0.34,0.277c0.131,0.105,0.26,0.209,0.389,0.314
		c0.113,0.09,0.229,0.182,0.344,0.27c0.127,0.102,0.256,0.203,0.385,0.303c0.113,0.09,0.229,0.18,0.342,0.269
		c0.131,0.1,0.26,0.196,0.392,0.297c0.108,0.084,0.224,0.17,0.334,0.254c0.133,0.101,0.267,0.196,0.397,0.297
		c0.107,0.078,0.215,0.158,0.322,0.236c0.146,0.104,0.291,0.211,0.438,0.313c0.093,0.066,0.187,0.135,0.277,0.201
		c0.232,0.164,0.467,0.328,0.699,0.486c0.076,0.053,0.152,0.104,0.229,0.154c0.158,0.106,0.318,0.217,0.479,0.322
		c0.099,0.063,0.195,0.127,0.293,0.19c0.138,0.088,0.272,0.178,0.408,0.264c0.104,0.065,0.207,0.13,0.31,0.193
		c0.131,0.082,0.262,0.161,0.391,0.241c0.104,0.063,0.207,0.125,0.313,0.188c0.125,0.076,0.25,0.149,0.375,0.224
		c0.105,0.063,0.211,0.121,0.314,0.182c0.123,0.07,0.246,0.141,0.369,0.209c0.104,0.057,0.205,0.113,0.309,0.168
		c0.123,0.066,0.246,0.133,0.367,0.195c0.102,0.053,0.203,0.104,0.303,0.156c0.123,0.063,0.244,0.123,0.365,0.184
		c0.098,0.047,0.197,0.096,0.295,0.143c0.123,0.061,0.248,0.115,0.371,0.172c0.092,0.043,0.184,0.086,0.275,0.125
		c0.133,0.062,0.266,0.113,0.396,0.17c0.08,0.033,0.16,0.068,0.24,0.103c0.18,0.071,0.354,0.139,0.532,0.205
		c0.035,0.012,0.068,0.024,0.104,0.038c0.201,0.07,0.397,0.14,0.597,0.201c0.069,0.023,0.143,0.043,0.213,0.064
		c0.129,0.039,0.258,0.078,0.387,0.113c0.08,0.02,0.158,0.041,0.238,0.061c0.115,0.029,0.229,0.059,0.346,0.084
		c0.084,0.02,0.164,0.033,0.246,0.051c0.109,0.021,0.217,0.043,0.324,0.063c0.082,0.015,0.164,0.024,0.246,0.037
		c0.104,0.017,0.207,0.028,0.311,0.039c0.08,0.01,0.16,0.019,0.24,0.022c0.102,0.008,0.201,0.016,0.301,0.021
		c0.078,0.004,0.154,0.006,0.232,0.008c0.125,0.002,0.248,0.002,0.371-0.004c0.028,0,0.061,0,0.09-0.002
		c0.153-0.009,0.307-0.021,0.455-0.039c0.039-0.006,0.078-0.013,0.116-0.019c0.117-0.018,0.234-0.037,0.351-0.063
		c0.037-0.008,0.076-0.014,0.113-0.021c0.143-0.033,0.28-0.069,0.418-0.115c0.026-0.008,0.055-0.02,0.08-0.026
		c0.112-0.039,0.227-0.082,0.336-0.129c0.036-0.017,0.071-0.03,0.108-0.049c0.131-0.062,0.26-0.123,0.385-0.195
		C218.046,253.146,207.555,218.088,202.348,209.076z"/>
	<path d="M174.995,11.53c-0.086,0.005-0.173,0.013-0.259,0.022c-0.079,0.01-0.161,0.021-0.241,0.033
		c-0.086,0.013-0.17,0.028-0.257,0.045c-0.084,0.017-0.168,0.033-0.252,0.054s-0.17,0.042-0.254,0.065
		c-0.088,0.024-0.174,0.049-0.262,0.076c-0.084,0.026-0.168,0.057-0.252,0.086c-0.09,0.03-0.18,0.063-0.27,0.098
		c-0.084,0.033-0.166,0.068-0.25,0.103c-0.092,0.04-0.188,0.079-0.279,0.122c-0.08,0.037-0.162,0.078-0.244,0.118
		c-0.098,0.047-0.193,0.095-0.291,0.146c-0.078,0.043-0.158,0.086-0.236,0.131c-0.102,0.056-0.201,0.11-0.305,0.17
		c-0.076,0.045-0.15,0.093-0.227,0.139c-0.105,0.064-0.213,0.13-0.318,0.199c-0.072,0.046-0.143,0.095-0.213,0.143
		c-0.113,0.075-0.225,0.15-0.338,0.23c-0.063,0.043-0.125,0.091-0.188,0.136c-0.123,0.089-0.246,0.177-0.369,0.271
		c-0.043,0.033-0.088,0.069-0.133,0.104c-0.142,0.109-0.283,0.22-0.427,0.336c-0.004,0.002-0.008,0.005-0.01,0.008
		c-0.89,0.723-1.789,1.564-2.694,2.501c-0.027,0.028-0.056,0.056-0.082,0.083c-0.148,0.157-0.304,0.319-0.453,0.48
		c-0.037,0.041-0.076,0.082-0.113,0.123c-0.146,0.156-0.289,0.316-0.437,0.478c-0.045,0.052-0.092,0.101-0.137,0.151
		c-0.142,0.158-0.278,0.318-0.42,0.48c-0.052,0.057-0.101,0.113-0.149,0.17c-0.138,0.159-0.273,0.321-0.412,0.485
		c-0.054,0.063-0.104,0.125-0.156,0.188c-0.137,0.162-0.271,0.326-0.406,0.492c-0.055,0.066-0.107,0.133-0.162,0.198
		c-0.135,0.166-0.27,0.334-0.402,0.503c-0.055,0.069-0.109,0.139-0.164,0.208c-0.135,0.169-0.268,0.341-0.399,0.513
		c-0.056,0.072-0.109,0.144-0.164,0.215c-0.134,0.174-0.267,0.348-0.396,0.523c-0.058,0.074-0.111,0.146-0.168,0.223
		c-0.132,0.176-0.265,0.354-0.396,0.533c-0.056,0.074-0.108,0.149-0.164,0.225c-0.131,0.181-0.265,0.361-0.394,0.545
		c-0.057,0.076-0.108,0.152-0.164,0.229c-0.133,0.184-0.264,0.37-0.395,0.557c-0.053,0.074-0.104,0.15-0.158,0.226
		c-0.131,0.188-0.264,0.379-0.395,0.569c-0.051,0.076-0.104,0.15-0.152,0.226c-0.133,0.194-0.264,0.388-0.395,0.583
		c-0.049,0.073-0.1,0.146-0.146,0.219c-0.133,0.199-0.266,0.398-0.396,0.598c-0.047,0.072-0.094,0.143-0.141,0.214
		c-0.133,0.204-0.266,0.407-0.396,0.612c-0.044,0.066-0.087,0.133-0.13,0.199c-0.137,0.211-0.271,0.424-0.403,0.637
		c-0.039,0.06-0.076,0.119-0.112,0.178c-0.14,0.22-0.275,0.439-0.414,0.66c-0.029,0.051-0.062,0.102-0.093,0.152
		c-0.146,0.23-0.287,0.463-0.428,0.694c-0.021,0.032-0.039,0.063-0.06,0.095c-4.893,8.041-8.82,16.568-9.99,20.932
		c-0.223,0.83-0.379,1.66-0.483,2.488c6.634,0.314,13.134,1.361,19.403,3.101c0.396-1.005,0.871-1.994,1.427-2.957
		c2.75-4.771,9.795-12.938,16.752-19.423c0.306-0.284,0.608-0.564,0.912-0.842c-0.646-10.758-2.89-20.604-7.922-21.953
		c-0.142-0.037-0.281-0.065-0.425-0.09c-0.03-0.004-0.063-0.01-0.096-0.015c-0.141-0.021-0.281-0.036-0.426-0.045
		c-0.02-0.001-0.039-0.001-0.059-0.001c-0.113-0.005-0.23-0.004-0.346-0.002C175.15,11.521,175.072,11.525,174.995,11.53z"/>
	<path d="M116.837,266.807c0.104-0.104,0.207-0.207,0.309-0.313c0.09-0.095,0.182-0.188,0.271-0.287
		c0.1-0.104,0.201-0.211,0.301-0.319c0.092-0.101,0.186-0.203,0.277-0.306c0.098-0.108,0.197-0.218,0.295-0.328
		c0.094-0.104,0.186-0.211,0.279-0.315c0.098-0.111,0.195-0.226,0.295-0.338c0.094-0.109,0.186-0.222,0.279-0.33
		c0.098-0.115,0.195-0.23,0.293-0.349c0.094-0.112,0.188-0.228,0.279-0.34c0.098-0.119,0.195-0.237,0.293-0.358
		c0.094-0.115,0.188-0.23,0.279-0.351c0.098-0.121,0.195-0.242,0.293-0.367c0.094-0.118,0.188-0.239,0.281-0.358
		c0.096-0.125,0.191-0.25,0.289-0.375c0.094-0.123,0.188-0.244,0.279-0.369c0.098-0.127,0.191-0.254,0.287-0.381
		c0.094-0.127,0.188-0.252,0.281-0.379c0.094-0.129,0.189-0.261,0.285-0.392c0.092-0.127,0.186-0.256,0.277-0.385
		c0.096-0.132,0.189-0.263,0.281-0.396c0.094-0.131,0.189-0.264,0.281-0.396c0.092-0.132,0.186-0.265,0.277-0.396
		c0.094-0.134,0.186-0.269,0.277-0.4c0.092-0.137,0.186-0.271,0.277-0.406c0.091-0.135,0.184-0.271,0.273-0.406
		c0.092-0.137,0.184-0.271,0.273-0.408c0.092-0.139,0.184-0.274,0.275-0.414c0.09-0.137,0.18-0.274,0.27-0.414
		c0.09-0.139,0.182-0.274,0.271-0.416c0.09-0.139,0.178-0.276,0.268-0.416c0.09-0.141,0.18-0.28,0.27-0.422
		c0.088-0.139,0.176-0.276,0.262-0.418c0.09-0.143,0.18-0.283,0.268-0.426c0.088-0.141,0.174-0.281,0.26-0.422
		c0.09-0.145,0.178-0.285,0.264-0.428c0.059-0.098,0.117-0.193,0.176-0.289l0,0c4.85-7.996,8.738-16.445,9.9-20.775
		c0.225-0.836,0.383-1.672,0.488-2.506c-6.631-0.313-13.129-1.355-19.398-3.094c-0.402,1.012-0.879,2-1.434,2.959
		c-2.752,4.771-9.795,12.938-16.748,19.418c-0.313,0.291-0.621,0.576-0.928,0.855c0.646,10.752,2.887,20.594,7.916,21.942
		c0.141,0.037,0.281,0.063,0.424,0.091c0.033,0.004,0.066,0.01,0.1,0.016c0.139,0.021,0.279,0.035,0.422,0.045
		c0.021,0.002,0.045,0.002,0.066,0.002c0.111,0.006,0.225,0.004,0.338,0.002c0.078-0.002,0.156-0.006,0.236-0.012
		c0.084-0.006,0.17-0.015,0.256-0.021c0.08-0.01,0.16-0.021,0.242-0.033c0.086-0.012,0.172-0.027,0.26-0.045
		c0.082-0.016,0.164-0.033,0.246-0.053c0.088-0.021,0.178-0.045,0.266-0.068c0.082-0.021,0.166-0.047,0.248-0.072
		c0.09-0.026,0.18-0.059,0.27-0.092c0.084-0.029,0.168-0.059,0.252-0.092c0.09-0.035,0.182-0.072,0.271-0.111
		c0.086-0.035,0.17-0.069,0.256-0.108c0.092-0.043,0.184-0.089,0.275-0.136c0.086-0.043,0.172-0.084,0.258-0.129
		c0.094-0.049,0.188-0.102,0.281-0.151c0.086-0.05,0.172-0.097,0.258-0.146c0.096-0.058,0.191-0.115,0.287-0.175
		c0.086-0.055,0.172-0.104,0.258-0.161c0.098-0.063,0.195-0.132,0.295-0.197c0.084-0.058,0.17-0.111,0.254-0.174
		c0.102-0.068,0.203-0.146,0.303-0.22c0.084-0.063,0.168-0.121,0.252-0.187c0.104-0.077,0.207-0.161,0.313-0.243
		c0.082-0.063,0.164-0.128,0.248-0.193c0.111-0.092,0.225-0.188,0.338-0.28c0.074-0.063,0.148-0.123,0.223-0.188
		c0.172-0.146,0.342-0.3,0.514-0.455c0.072-0.063,0.146-0.133,0.219-0.198c0.131-0.121,0.264-0.242,0.395-0.369
		c0.084-0.08,0.166-0.162,0.25-0.244c0.107-0.104,0.213-0.205,0.32-0.313C116.661,266.988,116.749,266.896,116.837,266.807z"/>
	<path d="M248.055,70.895c-0.22,0.001-0.441,0.003-0.666,0.008c-0.076,0.001-0.152,0.003-0.23,0.005
		c-0.193,0.005-0.389,0.011-0.584,0.019c-0.064,0.002-0.129,0.004-0.193,0.008c-0.248,0.011-0.5,0.023-0.754,0.039
		c-0.074,0.004-0.15,0.009-0.225,0.014c-0.191,0.012-0.385,0.025-0.578,0.04c-0.088,0.006-0.178,0.013-0.266,0.021
		c-0.232,0.019-0.468,0.039-0.703,0.06c-0.06,0.005-0.117,0.011-0.176,0.017c-0.234,0.022-0.472,0.047-0.707,0.072
		c-0.101,0.01-0.195,0.021-0.295,0.032c-0.189,0.021-0.378,0.042-0.564,0.065c-0.094,0.01-0.186,0.021-0.277,0.032
		c-0.262,0.032-0.523,0.066-0.785,0.103c-0.096,0.013-0.189,0.025-0.283,0.039c-0.188,0.025-0.375,0.053-0.563,0.08
		c-0.111,0.017-0.225,0.033-0.336,0.049c-0.201,0.031-0.404,0.063-0.607,0.096c-0.102,0.016-0.203,0.032-0.307,0.048
		c-0.242,0.04-0.486,0.08-0.73,0.122c-0.115,0.02-0.231,0.041-0.35,0.061c-0.176,0.031-0.354,0.063-0.527,0.094
		c-0.117,0.021-0.234,0.042-0.354,0.064c-0.264,0.047-0.525,0.098-0.787,0.148c-0.111,0.021-0.221,0.043-0.33,0.064
		c-0.18,0.035-0.359,0.07-0.539,0.107c-0.127,0.025-0.256,0.053-0.385,0.079c-0.176,0.036-0.354,0.073-0.527,0.11
		c-0.125,0.025-0.25,0.053-0.375,0.08c-0.25,0.053-0.502,0.107-0.752,0.164c-0.129,0.028-0.258,0.058-0.387,0.086
		c-0.164,0.037-0.328,0.076-0.492,0.112c-0.131,0.03-0.26,0.06-0.391,0.091c-0.221,0.051-0.439,0.104-0.658,0.155
		c-0.158,0.038-0.316,0.076-0.475,0.114c-0.047,0.012-0.094,0.023-0.142,0.035l0,0c-9.08,2.226-17.795,5.449-21.68,7.691
		c-0.746,0.432-1.449,0.909-2.111,1.422c4.496,4.95,8.326,10.293,11.494,15.912c1.006-0.437,2.051-0.803,3.131-1.092
		c4.451-1.193,12.724-1.965,21.074-1.966l0.002,3.366v-3.366c1.711,0,3.672,0.034,5.76,0.129
		c7.146-8.062,12.521-16.606,9.923-21.122c-0.086-0.148-0.183-0.293-0.283-0.432c-0.035-0.047-0.074-0.09-0.109-0.137
		c-0.072-0.09-0.146-0.18-0.225-0.265c-0.049-0.051-0.101-0.101-0.148-0.149c-0.076-0.076-0.15-0.148-0.23-0.22
		c-0.059-0.051-0.117-0.099-0.178-0.147c-0.08-0.065-0.162-0.131-0.248-0.192c-0.064-0.047-0.131-0.093-0.199-0.14
		c-0.088-0.059-0.18-0.115-0.271-0.172c-0.072-0.043-0.144-0.086-0.218-0.127c-0.098-0.054-0.196-0.104-0.299-0.156
		c-0.076-0.038-0.149-0.077-0.229-0.113c-0.108-0.051-0.226-0.1-0.34-0.146c-0.076-0.031-0.147-0.064-0.228-0.095
		c-0.146-0.057-0.301-0.11-0.455-0.161c-0.059-0.021-0.115-0.041-0.176-0.06c-0.193-0.063-0.395-0.121-0.602-0.175
		c-0.086-0.022-0.176-0.043-0.266-0.063c-0.138-0.033-0.271-0.066-0.412-0.098c-0.103-0.021-0.205-0.041-0.31-0.061
		c-0.133-0.026-0.269-0.053-0.403-0.076c-0.107-0.019-0.22-0.035-0.328-0.051c-0.14-0.021-0.275-0.041-0.416-0.06
		c-0.113-0.015-0.229-0.028-0.344-0.042c-0.146-0.018-0.291-0.032-0.438-0.046c-0.115-0.011-0.229-0.022-0.349-0.031
		c-0.154-0.013-0.313-0.022-0.473-0.032c-0.113-0.008-0.225-0.016-0.34-0.021c-0.174-0.01-0.354-0.016-0.531-0.021
		c-0.102-0.002-0.203-0.008-0.307-0.011c-0.236-0.006-0.479-0.008-0.723-0.009c-0.05,0-0.095-0.001-0.144-0.001
		C248.105,70.895,248.081,70.895,248.055,70.895z"/>
	<path d="M35.355,212.572c0.245,0,0.493-0.004,0.743-0.01c0.063,0,0.123-0.002,0.186-0.004c0.217-0.006,0.438-0.013,0.659-0.021
		c0.042-0.002,0.083-0.004,0.124-0.006c0.264-0.013,0.527-0.022,0.796-0.041c0.048-0.003,0.095-0.007,0.142-0.009
		c0.227-0.016,0.453-0.03,0.683-0.049c0.062-0.004,0.124-0.008,0.187-0.014c0.545-0.043,1.101-0.096,1.662-0.154
		c0.063-0.008,0.129-0.016,0.193-0.021c0.236-0.024,0.477-0.054,0.715-0.082c0.049-0.006,0.098-0.013,0.146-0.021
		c0.287-0.033,0.576-0.072,0.867-0.11c0.041-0.005,0.08-0.013,0.119-0.019c0.252-0.033,0.504-0.068,0.758-0.106
		c0.066-0.011,0.133-0.021,0.201-0.029c0.286-0.043,0.573-0.086,0.862-0.133c0.002,0,0.005-0.002,0.008-0.002
		c0.298-0.048,0.597-0.101,0.897-0.147c0.063-0.013,0.127-0.021,0.191-0.033c0.246-0.043,0.494-0.088,0.742-0.133
		c0.059-0.013,0.117-0.021,0.176-0.031c0.301-0.058,0.604-0.111,0.906-0.172c0.023-0.004,0.049-0.011,0.072-0.015
		c0.275-0.055,0.551-0.108,0.826-0.166c0.07-0.015,0.139-0.026,0.207-0.041c0.277-0.058,0.555-0.114,0.832-0.174
		c0.023-0.006,0.047-0.011,0.07-0.017c0.305-0.063,0.607-0.133,0.914-0.198c0.061-0.015,0.121-0.027,0.18-0.041
		c0.252-0.058,0.504-0.113,0.756-0.173c0.063-0.016,0.125-0.028,0.188-0.043c0.305-0.069,0.609-0.145,0.914-0.217
		c0.01-0.004,0.02-0.006,0.029-0.008c0.135-0.033,0.27-0.064,0.402-0.1c0,0.002,0,0.002,0,0.002
		c9.082-2.227,17.799-5.449,21.688-7.688c0.746-0.433,1.447-0.908,2.109-1.422c-4.498-4.953-8.33-10.302-11.498-15.923
		c-1.008,0.438-2.057,0.804-3.137,1.091c-4.443,1.196-12.709,1.973-21.061,1.973c-1.713,0-3.674-0.035-5.764-0.129
		c-7.147,8.063-12.522,16.604-9.922,21.117c0.086,0.147,0.182,0.293,0.285,0.434c0.034,0.045,0.073,0.09,0.109,0.135
		c0.072,0.09,0.145,0.18,0.223,0.266c0.047,0.051,0.1,0.103,0.149,0.15c0.075,0.074,0.149,0.148,0.231,0.219
		c0.057,0.051,0.115,0.1,0.176,0.148c0.08,0.064,0.164,0.129,0.248,0.191c0.065,0.049,0.131,0.094,0.199,0.139
		c0.088,0.061,0.18,0.117,0.271,0.172c0.072,0.045,0.143,0.088,0.217,0.129c0.098,0.055,0.197,0.104,0.298,0.156
		c0.076,0.037,0.151,0.076,0.229,0.113c0.109,0.051,0.224,0.098,0.338,0.146c0.076,0.03,0.15,0.063,0.229,0.096
		c0.146,0.058,0.297,0.106,0.451,0.16c0.066,0.021,0.131,0.045,0.199,0.065c0.189,0.06,0.382,0.115,0.581,0.168
		c0.087,0.023,0.179,0.043,0.269,0.064c0.135,0.033,0.27,0.066,0.408,0.096c0.102,0.021,0.208,0.041,0.313,0.063
		c0.131,0.024,0.264,0.051,0.398,0.074c0.109,0.018,0.223,0.034,0.333,0.053c0.136,0.021,0.272,0.039,0.412,0.06
		c0.114,0.016,0.229,0.028,0.347,0.043c0.143,0.016,0.286,0.031,0.432,0.045c0.117,0.012,0.236,0.021,0.354,0.031
		c0.15,0.014,0.304,0.022,0.458,0.032c0.118,0.007,0.236,0.017,0.355,0.021c0.166,0.009,0.334,0.015,0.505,0.021
		c0.11,0.004,0.221,0.011,0.333,0.015c0.211,0.004,0.427,0.006,0.643,0.008c0.075,0,0.149,0.002,0.225,0.002
		C35.348,212.572,35.352,212.572,35.355,212.572z"/>
	<path d="M232.21,146.484c-0.847-0.229-1.692-0.394-2.539-0.498c-0.313,6.535-1.354,13.043-3.11,19.391
		c1.037,0.406,2.049,0.889,3.02,1.449c4.33,2.496,11.668,8.701,17.842,15.09c0.787,0.813,1.604,1.68,2.428,2.584
		c0.063-0.004,0.121-0.006,0.185-0.01c0.104-0.006,0.211-0.016,0.315-0.021c0.275-0.018,0.549-0.037,0.822-0.057
		c0.125-0.01,0.248-0.02,0.371-0.027c0.264-0.021,0.527-0.043,0.787-0.064c0.117-0.01,0.234-0.02,0.352-0.028
		c0.303-0.026,0.604-0.056,0.902-0.086c0.07-0.006,0.141-0.015,0.211-0.021c0.371-0.037,0.738-0.076,1.104-0.119
		c0.074-0.01,0.146-0.019,0.22-0.025c0.286-0.035,0.573-0.07,0.856-0.107c0.115-0.014,0.23-0.029,0.346-0.045
		c0.244-0.033,0.488-0.065,0.73-0.104c0.117-0.018,0.236-0.033,0.354-0.053c0.25-0.037,0.494-0.076,0.74-0.115
		c0.103-0.018,0.201-0.033,0.303-0.049c0.683-0.115,1.349-0.24,1.996-0.375c0.099-0.021,0.191-0.041,0.287-0.063
		c0.229-0.049,0.453-0.098,0.676-0.147c0.109-0.025,0.22-0.051,0.326-0.076c0.213-0.051,0.422-0.102,0.627-0.154
		c0.104-0.025,0.205-0.051,0.31-0.078c0.231-0.063,0.463-0.125,0.69-0.189c0.064-0.02,0.134-0.037,0.197-0.057
		c0.291-0.084,0.576-0.172,0.855-0.262c0.063-0.021,0.125-0.043,0.188-0.064c0.213-0.067,0.422-0.141,0.629-0.215
		c0.092-0.031,0.181-0.063,0.271-0.1c0.176-0.064,0.351-0.131,0.521-0.199c0.092-0.035,0.184-0.072,0.271-0.109
		c0.174-0.069,0.342-0.145,0.51-0.219c0.074-0.033,0.149-0.064,0.226-0.1c0.233-0.109,0.465-0.221,0.688-0.336
		c0.002,0,0.002-0.002,0.004-0.002c0.219-0.113,0.43-0.23,0.633-0.352c0.064-0.037,0.127-0.076,0.189-0.113
		c0.141-0.086,0.275-0.172,0.408-0.26c0.066-0.045,0.135-0.093,0.201-0.14c0.123-0.086,0.242-0.172,0.356-0.261
		c0.062-0.047,0.121-0.094,0.183-0.143c0.127-0.102,0.248-0.207,0.364-0.313c0.037-0.033,0.078-0.066,0.115-0.102
		c0.149-0.142,0.291-0.283,0.424-0.433c0.033-0.037,0.063-0.074,0.095-0.11c0.098-0.111,0.188-0.228,0.276-0.345
		c0.039-0.056,0.076-0.106,0.114-0.164c0.07-0.104,0.14-0.209,0.201-0.313c0.035-0.062,0.068-0.117,0.103-0.178
		c0.062-0.111,0.114-0.228,0.166-0.343c0.022-0.055,0.049-0.104,0.071-0.161c0.066-0.171,0.127-0.343,0.175-0.521
		C274.482,166.545,242.27,149.18,232.21,146.484z"/>
	<path d="M51.257,136.982c0.846,0.227,1.693,0.391,2.537,0.497c0.313-6.537,1.354-13.043,3.111-19.392
		c-1.039-0.405-2.051-0.887-3.021-1.447c-4.373-2.527-12.785-9.477-20.254-17.67c-0.062,0.004-0.125,0.007-0.187,0.011
		c-0.106,0.006-0.212,0.015-0.317,0.021c-0.274,0.019-0.547,0.037-0.82,0.057c-0.125,0.009-0.252,0.02-0.377,0.027
		c-0.262,0.021-0.521,0.043-0.781,0.063c-0.119,0.011-0.236,0.021-0.355,0.03c-0.299,0.027-0.598,0.055-0.894,0.084
		c-0.073,0.007-0.146,0.014-0.218,0.021c-0.371,0.037-0.739,0.077-1.105,0.119c-0.07,0.008-0.141,0.018-0.212,0.025
		c-0.291,0.035-0.58,0.07-0.866,0.107c-0.113,0.014-0.226,0.029-0.339,0.045c-0.247,0.032-0.491,0.067-0.735,0.103
		c-0.117,0.017-0.234,0.034-0.352,0.052c-0.25,0.038-0.499,0.077-0.746,0.117c-0.099,0.016-0.197,0.031-0.296,0.048
		c-0.685,0.115-1.353,0.239-2.002,0.374c-0.094,0.02-0.187,0.04-0.28,0.061c-0.229,0.049-0.457,0.099-0.683,0.15
		c-0.106,0.025-0.214,0.051-0.321,0.075c-0.214,0.051-0.426,0.103-0.635,0.155c-0.1,0.025-0.2,0.051-0.299,0.078
		c-0.238,0.062-0.473,0.125-0.704,0.191c-0.063,0.018-0.126,0.035-0.188,0.053c-0.291,0.086-0.578,0.172-0.857,0.264
		c-0.061,0.02-0.119,0.039-0.18,0.06c-0.215,0.071-0.43,0.144-0.639,0.218c-0.089,0.032-0.176,0.065-0.264,0.098
		c-0.18,0.066-0.354,0.133-0.527,0.201c-0.089,0.035-0.177,0.071-0.265,0.106c-0.175,0.073-0.347,0.147-0.515,0.222
		c-0.074,0.032-0.148,0.064-0.221,0.098c-0.471,0.218-0.914,0.447-1.326,0.688c-0.063,0.037-0.123,0.075-0.186,0.113
		c-0.141,0.085-0.279,0.172-0.412,0.261c-0.068,0.045-0.134,0.09-0.2,0.137c-0.124,0.086-0.243,0.174-0.36,0.262
		c-0.061,0.047-0.121,0.093-0.18,0.139c-0.128,0.104-0.25,0.208-0.369,0.314c-0.037,0.035-0.076,0.066-0.113,0.101
		c-0.149,0.142-0.291,0.285-0.424,0.433c-0.033,0.034-0.061,0.071-0.09,0.106c-0.099,0.114-0.193,0.229-0.281,0.347
		c-0.039,0.053-0.076,0.107-0.113,0.162c-0.072,0.104-0.141,0.209-0.204,0.316c-0.035,0.059-0.067,0.117-0.101,0.176
		c-0.062,0.113-0.115,0.227-0.168,0.343c-0.022,0.054-0.049,0.106-0.07,0.16c-0.068,0.17-0.129,0.342-0.176,0.519
		C8.991,116.924,41.197,134.289,51.257,136.982z"/>
	<path d="M55.567,113.727c0.75,0.432,1.518,0.806,2.297,1.125c3.725-11.684,9.939-22.738,18.648-32.321
		c-0.66-0.51-1.357-0.985-2.1-1.414c-3.893-2.243-12.617-5.47-21.701-7.696l0,0c-0.455-0.11-0.91-0.221-1.367-0.328
		c-0.033-0.008-0.066-0.016-0.1-0.022c-0.291-0.067-0.582-0.133-0.871-0.198c-0.029-0.007-0.059-0.013-0.088-0.02
		c-0.627-0.141-1.256-0.273-1.881-0.402c-0.047-0.009-0.092-0.02-0.139-0.027c-0.623-0.127-1.245-0.248-1.863-0.361
		c-0.036-0.006-0.07-0.014-0.105-0.02c-0.277-0.051-0.555-0.1-0.83-0.147c-0.043-0.007-0.084-0.015-0.125-0.021
		c-0.608-0.104-1.213-0.203-1.813-0.293c-0.053-0.008-0.104-0.016-0.157-0.023c-0.274-0.04-0.547-0.079-0.82-0.116
		c-0.021-0.003-0.045-0.006-0.066-0.009c-0.298-0.041-0.595-0.079-0.889-0.115c-0.04-0.005-0.079-0.01-0.119-0.014
		c-0.251-0.031-0.502-0.061-0.751-0.088c-0.056-0.006-0.11-0.012-0.167-0.019c-0.564-0.062-1.124-0.112-1.674-0.155
		c-0.061-0.006-0.122-0.01-0.184-0.015c-0.229-0.019-0.457-0.033-0.686-0.047c-0.047-0.003-0.092-0.007-0.139-0.009
		c-0.269-0.016-0.533-0.03-0.797-0.041c-0.043-0.002-0.086-0.004-0.129-0.006c-0.22-0.008-0.437-0.015-0.652-0.021
		c-0.063-0.002-0.127-0.003-0.191-0.004c-0.245-0.005-0.488-0.009-0.729-0.009c-0.008,0-0.018,0-0.025,0
		c-0.055,0-0.107,0.002-0.163,0.003c-0.237,0.001-0.476,0.003-0.708,0.009c-0.098,0.002-0.193,0.007-0.291,0.01
		c-0.186,0.006-0.371,0.014-0.553,0.022c-0.105,0.006-0.21,0.013-0.314,0.021c-0.17,0.01-0.338,0.021-0.504,0.035
		c-0.105,0.01-0.21,0.02-0.314,0.028c-0.162,0.016-0.321,0.032-0.479,0.05c-0.103,0.012-0.202,0.023-0.303,0.037
		c-0.157,0.021-0.312,0.043-0.464,0.066c-0.096,0.015-0.19,0.028-0.284,0.045c-0.158,0.025-0.312,0.056-0.466,0.086
		c-0.082,0.017-0.166,0.031-0.248,0.049c-0.172,0.035-0.336,0.076-0.502,0.117c-0.059,0.015-0.12,0.027-0.178,0.043
		c-0.443,0.117-0.862,0.25-1.256,0.404c-0.059,0.021-0.113,0.047-0.171,0.07c-0.135,0.055-0.268,0.111-0.396,0.171
		c-0.067,0.031-0.131,0.065-0.196,0.099c-0.112,0.056-0.224,0.113-0.331,0.172c-0.066,0.039-0.132,0.078-0.195,0.117
		c-0.101,0.06-0.197,0.121-0.291,0.185c-0.063,0.042-0.125,0.085-0.187,0.129c-0.091,0.065-0.177,0.133-0.261,0.203
		c-0.057,0.046-0.113,0.092-0.168,0.14c-0.082,0.074-0.161,0.15-0.238,0.229c-0.049,0.048-0.098,0.095-0.143,0.145
		c-0.082,0.088-0.154,0.178-0.228,0.27c-0.036,0.045-0.073,0.088-0.106,0.133c-0.104,0.139-0.199,0.283-0.287,0.433
		C19.94,83.41,46.563,108.521,55.567,113.727z"/>
	<path d="M227.896,169.742c-0.75-0.434-1.519-0.811-2.299-1.129c-3.724,11.678-9.937,22.725-18.64,32.305
		c0.666,0.514,1.371,0.994,2.121,1.426c3.879,2.244,12.592,5.471,21.668,7.697l0,0c0.092,0.02,0.183,0.045,0.271,0.066
		c0.064,0.016,0.127,0.029,0.191,0.047c0.281,0.066,0.563,0.135,0.844,0.199c0.1,0.021,0.195,0.045,0.295,0.067
		c0.205,0.047,0.412,0.095,0.619,0.142c0.096,0.021,0.189,0.043,0.285,0.063c0.281,0.063,0.564,0.125,0.846,0.185
		c0.072,0.018,0.146,0.03,0.219,0.049c0.224,0.047,0.443,0.094,0.664,0.139c0.104,0.02,0.205,0.041,0.308,0.063
		c0.221,0.045,0.438,0.09,0.659,0.133c0.074,0.015,0.148,0.027,0.226,0.043c0.277,0.056,0.558,0.105,0.834,0.156
		c0.097,0.021,0.188,0.035,0.285,0.053c0.203,0.037,0.403,0.072,0.604,0.107c0.099,0.018,0.195,0.035,0.295,0.051
		c0.275,0.049,0.554,0.097,0.828,0.142c0.058,0.008,0.113,0.019,0.17,0.024c0.229,0.037,0.459,0.072,0.687,0.105
		c0.101,0.016,0.199,0.029,0.297,0.045c0.205,0.029,0.41,0.059,0.613,0.088c0.08,0.012,0.162,0.021,0.241,0.033
		c0.271,0.037,0.537,0.07,0.804,0.104c0.086,0.012,0.17,0.021,0.256,0.029c0.197,0.025,0.396,0.047,0.591,0.068
		c0.092,0.012,0.188,0.021,0.278,0.031c0.248,0.024,0.496,0.053,0.739,0.074c0.052,0.004,0.101,0.01,0.15,0.016
		c0.234,0.02,0.467,0.041,0.697,0.059c0.09,0.008,0.18,0.014,0.27,0.021c0.191,0.014,0.383,0.027,0.57,0.039
		c0.078,0.006,0.154,0.012,0.232,0.016c0.25,0.014,0.5,0.027,0.746,0.037c0.07,0.004,0.141,0.006,0.211,0.008
		c0.188,0.008,0.375,0.014,0.563,0.02c0.082,0.002,0.164,0.004,0.246,0.006c0.213,0.004,0.424,0.007,0.633,0.009
		c0.037,0,0.074,0,0.111,0c0.012,0,0.023,0,0.037,0c0.279,0,0.555-0.005,0.828-0.011c0.084-0.002,0.168-0.008,0.252-0.01
		c0.197-0.008,0.395-0.014,0.588-0.022c0.1-0.007,0.199-0.013,0.297-0.021c0.176-0.012,0.348-0.021,0.52-0.037
		c0.104-0.008,0.203-0.018,0.308-0.026c0.162-0.017,0.323-0.031,0.483-0.052c0.103-0.012,0.199-0.022,0.299-0.035
		c0.158-0.02,0.313-0.043,0.47-0.065c0.094-0.016,0.188-0.028,0.28-0.045c0.156-0.026,0.312-0.058,0.464-0.086
		c0.084-0.019,0.168-0.032,0.252-0.051c0.168-0.035,0.33-0.074,0.491-0.115c0.063-0.017,0.125-0.028,0.188-0.045
		c0.224-0.062,0.438-0.121,0.647-0.188c0.005,0,0.007-0.002,0.009-0.002c0.205-0.064,0.401-0.138,0.596-0.213
		c0.062-0.021,0.117-0.05,0.177-0.072c0.135-0.055,0.266-0.109,0.391-0.168c0.066-0.031,0.135-0.066,0.199-0.101
		c0.111-0.058,0.223-0.112,0.326-0.172c0.067-0.037,0.133-0.076,0.198-0.117c0.099-0.06,0.195-0.118,0.287-0.182
		c0.063-0.043,0.127-0.089,0.188-0.134c0.09-0.063,0.176-0.133,0.26-0.198c0.057-0.048,0.113-0.095,0.168-0.144
		c0.084-0.072,0.16-0.147,0.236-0.227c0.049-0.049,0.1-0.096,0.145-0.146c0.08-0.086,0.154-0.178,0.227-0.268
		c0.035-0.045,0.074-0.088,0.107-0.135c0.104-0.139,0.199-0.283,0.285-0.434C263.532,200.059,236.913,174.939,227.896,169.742z"/>
	<path d="M100.626,61.008c0.219,0.814,0.488,1.602,0.803,2.358c11.082-5.717,23.316-9.018,36.045-9.62
		c-0.107-0.83-0.266-1.662-0.488-2.492c-1.162-4.332-5.049-12.78-9.898-20.777l0,0c-0.066-0.109-0.133-0.221-0.199-0.331
		c-0.039-0.063-0.08-0.128-0.119-0.192c-0.133-0.22-0.268-0.438-0.404-0.656c-0.049-0.08-0.098-0.156-0.146-0.234
		c-0.127-0.204-0.256-0.409-0.385-0.611c-0.053-0.085-0.107-0.168-0.16-0.252c-0.125-0.197-0.25-0.395-0.377-0.59
		c-0.057-0.087-0.113-0.174-0.17-0.261c-0.125-0.191-0.248-0.382-0.373-0.572c-0.061-0.089-0.119-0.179-0.18-0.269
		c-0.123-0.187-0.246-0.371-0.371-0.555c-0.063-0.092-0.123-0.183-0.186-0.273c-0.123-0.182-0.246-0.362-0.371-0.543
		c-0.063-0.09-0.125-0.182-0.188-0.271c-0.123-0.178-0.246-0.354-0.369-0.529c-0.064-0.092-0.129-0.184-0.195-0.274
		c-0.123-0.173-0.246-0.347-0.369-0.519c-0.064-0.09-0.131-0.181-0.195-0.271c-0.123-0.17-0.248-0.339-0.371-0.507
		c-0.066-0.09-0.131-0.178-0.197-0.266c-0.125-0.166-0.248-0.332-0.373-0.496c-0.066-0.088-0.133-0.176-0.201-0.264
		c-0.123-0.162-0.246-0.322-0.369-0.482c-0.068-0.086-0.135-0.172-0.201-0.258c-0.125-0.158-0.25-0.316-0.375-0.474
		c-0.066-0.082-0.133-0.165-0.197-0.247c-0.127-0.156-0.254-0.313-0.383-0.467c-0.064-0.079-0.129-0.157-0.193-0.234
		c-0.129-0.156-0.258-0.309-0.387-0.459c-0.063-0.074-0.125-0.148-0.188-0.223c-0.133-0.152-0.264-0.305-0.396-0.454
		c-0.061-0.067-0.119-0.137-0.18-0.205c-0.137-0.153-0.273-0.304-0.408-0.452c-0.057-0.062-0.111-0.123-0.168-0.184
		c-0.143-0.156-0.285-0.307-0.428-0.458c-0.049-0.052-0.098-0.103-0.146-0.153c-0.154-0.162-0.309-0.32-0.465-0.476
		c-0.035-0.036-0.072-0.074-0.107-0.11c-0.184-0.184-0.365-0.359-0.547-0.535c-0.008-0.008-0.016-0.017-0.023-0.023
		c-0.576-0.551-1.15-1.059-1.719-1.518c-0.039-0.031-0.076-0.06-0.115-0.091c-0.148-0.118-0.295-0.233-0.441-0.346
		c-0.057-0.042-0.113-0.082-0.168-0.124c-0.129-0.096-0.258-0.189-0.387-0.28c-0.064-0.046-0.129-0.088-0.195-0.132
		c-0.117-0.081-0.236-0.162-0.354-0.238c-0.07-0.045-0.141-0.087-0.211-0.131c-0.111-0.068-0.223-0.139-0.334-0.203
		c-0.072-0.043-0.146-0.082-0.221-0.125c-0.105-0.059-0.213-0.117-0.316-0.173c-0.076-0.04-0.152-0.077-0.229-0.114
		c-0.102-0.051-0.205-0.101-0.307-0.146c-0.078-0.035-0.154-0.068-0.23-0.102c-0.1-0.041-0.197-0.082-0.295-0.121
		c-0.078-0.031-0.156-0.059-0.232-0.086c-0.098-0.033-0.193-0.066-0.287-0.097c-0.08-0.024-0.158-0.046-0.234-0.067
		c-0.094-0.026-0.188-0.051-0.279-0.072c-0.078-0.02-0.156-0.035-0.234-0.051c-0.09-0.018-0.182-0.033-0.271-0.047
		c-0.078-0.013-0.156-0.022-0.232-0.031c-0.088-0.01-0.176-0.019-0.264-0.023c-0.078-0.005-0.154-0.008-0.23-0.01
		c-0.115-0.002-0.23-0.003-0.342,0.001c-0.021,0.001-0.043,0.001-0.064,0.002c-0.143,0.008-0.283,0.024-0.424,0.044
		c-0.033,0.005-0.064,0.01-0.098,0.016c-0.143,0.024-0.283,0.053-0.424,0.09C96.856,14.361,97.925,50.939,100.626,61.008z"/>
	<path d="M182.857,222.465c-0.221-0.822-0.491-1.615-0.813-2.381c-11.082,5.719-23.314,9.021-36.043,9.625
		c0.107,0.832,0.264,1.664,0.486,2.496c1.16,4.334,5.043,12.779,9.889,20.775l0,0c0.064,0.104,0.125,0.209,0.189,0.313
		c0.065,0.109,0.135,0.219,0.201,0.328c0.104,0.174,0.213,0.346,0.319,0.52c0.07,0.115,0.146,0.23,0.218,0.348
		c0.104,0.166,0.209,0.334,0.313,0.5c0.071,0.115,0.146,0.23,0.221,0.351c0.104,0.162,0.209,0.326,0.313,0.488
		c0.076,0.116,0.152,0.233,0.229,0.354c0.104,0.159,0.209,0.317,0.313,0.479c0.076,0.119,0.154,0.234,0.232,0.354
		c0.104,0.156,0.209,0.314,0.314,0.473c0.078,0.115,0.158,0.232,0.236,0.351c0.104,0.154,0.209,0.308,0.313,0.459
		c0.08,0.119,0.162,0.236,0.244,0.354c0.104,0.15,0.209,0.301,0.313,0.449c0.082,0.117,0.164,0.231,0.245,0.35
		c0.104,0.146,0.21,0.293,0.314,0.438c0.081,0.117,0.165,0.232,0.25,0.348c0.104,0.146,0.209,0.285,0.313,0.431
		c0.084,0.112,0.168,0.229,0.252,0.342c0.104,0.14,0.209,0.277,0.313,0.416c0.084,0.113,0.17,0.228,0.256,0.339
		c0.104,0.137,0.209,0.271,0.313,0.405c0.086,0.108,0.172,0.222,0.258,0.33c0.104,0.135,0.211,0.269,0.313,0.397
		c0.087,0.107,0.171,0.213,0.255,0.316c0.106,0.133,0.215,0.264,0.321,0.395c0.084,0.104,0.168,0.205,0.252,0.308
		c0.106,0.129,0.216,0.258,0.322,0.385c0.084,0.099,0.168,0.197,0.252,0.296c0.108,0.127,0.217,0.25,0.325,0.375
		c0.082,0.094,0.164,0.188,0.246,0.28c0.111,0.125,0.224,0.248,0.336,0.371c0.078,0.088,0.158,0.176,0.236,0.263
		c0.115,0.125,0.23,0.243,0.344,0.364c0.076,0.082,0.154,0.166,0.23,0.244c0.119,0.125,0.238,0.243,0.355,0.364
		c0.072,0.072,0.145,0.148,0.217,0.22c0.131,0.133,0.26,0.258,0.391,0.385c0.061,0.058,0.119,0.117,0.18,0.175
		c0.179,0.17,0.354,0.334,0.529,0.493c0.014,0.013,0.025,0.022,0.037,0.035c0.191,0.172,0.379,0.34,0.568,0.502
		c0.049,0.041,0.096,0.08,0.145,0.119c0.141,0.118,0.279,0.235,0.418,0.351c0.066,0.055,0.135,0.104,0.201,0.159
		c0.119,0.095,0.238,0.188,0.357,0.277c0.074,0.059,0.147,0.108,0.225,0.165c0.109,0.08,0.219,0.162,0.328,0.238
		c0.08,0.056,0.158,0.107,0.238,0.16c0.104,0.072,0.209,0.146,0.313,0.211c0.08,0.051,0.16,0.101,0.24,0.15
		c0.102,0.063,0.203,0.125,0.305,0.186c0.08,0.047,0.162,0.092,0.242,0.137c0.1,0.056,0.199,0.109,0.297,0.162
		c0.082,0.043,0.164,0.082,0.244,0.121c0.098,0.049,0.193,0.097,0.289,0.142c0.082,0.036,0.164,0.069,0.244,0.104
		c0.096,0.041,0.189,0.08,0.283,0.115c0.082,0.033,0.162,0.061,0.242,0.09c0.094,0.033,0.188,0.064,0.276,0.094
		c0.082,0.025,0.162,0.047,0.242,0.07c0.09,0.025,0.183,0.049,0.271,0.07c0.078,0.02,0.158,0.035,0.238,0.051
		c0.09,0.018,0.178,0.033,0.268,0.047c0.078,0.014,0.156,0.021,0.234,0.031c0.088,0.01,0.176,0.018,0.262,0.023
		c0.078,0.004,0.156,0.008,0.232,0.012c0.115,0.002,0.23,0.002,0.342-0.004c0.021,0,0.041,0,0.063-0.002
		c0.144-0.008,0.285-0.021,0.427-0.045c0.03-0.004,0.063-0.01,0.097-0.014c0.143-0.025,0.284-0.054,0.424-0.091
		C186.62,269.104,185.559,232.521,182.857,222.465z"/>
	<path d="M206.007,24.471c-0.103,0.006-0.202,0.012-0.307,0.021c-0.078,0.007-0.156,0.015-0.236,0.023
		c-0.104,0.011-0.209,0.024-0.313,0.04c-0.08,0.013-0.16,0.023-0.24,0.037c-0.109,0.019-0.221,0.041-0.328,0.063
		c-0.082,0.016-0.162,0.032-0.244,0.051c-0.115,0.025-0.232,0.055-0.35,0.084c-0.078,0.021-0.156,0.039-0.236,0.062
		c-0.129,0.034-0.26,0.075-0.391,0.114c-0.07,0.021-0.139,0.041-0.209,0.063c-0.199,0.064-0.4,0.132-0.605,0.207
		c-0.045,0.016-0.09,0.035-0.135,0.053c-0.162,0.059-0.326,0.121-0.49,0.188c-0.084,0.033-0.17,0.07-0.254,0.105
		c-0.127,0.053-0.254,0.106-0.381,0.162c-0.098,0.042-0.193,0.088-0.289,0.131c-0.119,0.055-0.238,0.108-0.359,0.166
		c-0.1,0.049-0.203,0.098-0.305,0.148c-0.117,0.059-0.234,0.115-0.354,0.176c-0.104,0.053-0.211,0.107-0.314,0.164
		c-0.117,0.063-0.234,0.124-0.354,0.188c-0.107,0.059-0.215,0.117-0.322,0.176c-0.117,0.066-0.236,0.133-0.354,0.201
		c-0.109,0.063-0.22,0.125-0.33,0.188c-0.117,0.069-0.236,0.14-0.354,0.211c-0.111,0.065-0.224,0.132-0.334,0.201
		c-0.121,0.073-0.242,0.149-0.363,0.226c-0.11,0.069-0.221,0.139-0.332,0.209c-0.125,0.078-0.25,0.16-0.373,0.24
		c-0.11,0.072-0.221,0.143-0.329,0.215c-0.134,0.088-0.269,0.18-0.398,0.27c-0.154,0.104-0.307,0.207-0.459,0.313
		c-0.18,0.123-0.357,0.248-0.537,0.373c-0.113,0.081-0.229,0.165-0.346,0.248c-0.121,0.09-0.244,0.178-0.369,0.268
		c-0.121,0.088-0.242,0.179-0.363,0.269c-0.119,0.088-0.236,0.175-0.355,0.265c-0.123,0.092-0.246,0.187-0.369,0.279
		c-0.117,0.09-0.233,0.18-0.354,0.27c-0.125,0.097-0.248,0.193-0.373,0.291c-0.117,0.09-0.232,0.182-0.35,0.273
		c-0.125,0.1-0.252,0.199-0.377,0.299c-0.117,0.094-0.232,0.188-0.353,0.281c-0.125,0.102-0.252,0.204-0.377,0.307
		c-0.114,0.094-0.229,0.188-0.346,0.285c-0.127,0.104-0.257,0.211-0.384,0.317c-0.112,0.095-0.229,0.19-0.344,0.288
		c-0.127,0.107-0.254,0.215-0.381,0.324c-0.115,0.098-0.229,0.197-0.344,0.295c-0.127,0.109-0.256,0.22-0.383,0.33
		c-0.113,0.099-0.227,0.197-0.338,0.297c-0.129,0.113-0.256,0.224-0.383,0.336c-0.119,0.105-0.24,0.214-0.359,0.322
		c-0.232,0.207-0.465,0.416-0.695,0.627c-0.117,0.106-0.234,0.213-0.352,0.319c-0.125,0.115-0.248,0.231-0.373,0.347
		c-0.113,0.104-0.227,0.207-0.338,0.313c-0.125,0.116-0.248,0.232-0.373,0.35c-0.113,0.106-0.227,0.213-0.338,0.318
		c-0.123,0.116-0.244,0.232-0.365,0.35c-0.023,0.022-0.047,0.045-0.07,0.067l0,0c-6.752,6.468-12.688,13.617-14.926,17.501
		c-0.424,0.734-0.787,1.486-1.102,2.249c11.877,3.796,22.856,10.115,32.283,18.69c0.514-0.664,0.983-1.369,1.414-2.113
		c5.211-9.014,15.719-44.066,6.717-49.271c-0.127-0.072-0.256-0.138-0.39-0.197c-0.034-0.016-0.069-0.031-0.104-0.047
		c-0.113-0.047-0.229-0.092-0.346-0.131c-0.021-0.009-0.045-0.018-0.068-0.025c-0.139-0.045-0.281-0.083-0.424-0.116
		c-0.035-0.008-0.07-0.015-0.105-0.021c-0.119-0.023-0.238-0.045-0.361-0.063c-0.035-0.005-0.07-0.012-0.106-0.016
		c-0.15-0.02-0.306-0.032-0.462-0.041c-0.026,0-0.055,0-0.081-0.002c-0.123-0.004-0.25-0.004-0.38-0.002
		C206.159,24.465,206.083,24.469,206.007,24.471z"/>
	<path d="M77.47,258.988c0.104-0.004,0.205-0.012,0.311-0.02c0.076-0.007,0.152-0.015,0.23-0.021
		c0.107-0.012,0.213-0.025,0.32-0.041c0.08-0.012,0.158-0.023,0.236-0.037c0.111-0.02,0.225-0.039,0.338-0.063
		c0.078-0.017,0.154-0.031,0.232-0.05c0.119-0.024,0.242-0.057,0.363-0.088c0.074-0.021,0.148-0.037,0.221-0.058
		c0.139-0.036,0.277-0.079,0.418-0.122c0.061-0.021,0.121-0.035,0.184-0.056c0.404-0.131,0.818-0.278,1.242-0.449
		c0.061-0.024,0.125-0.055,0.188-0.077c0.148-0.063,0.299-0.125,0.449-0.191c0.08-0.034,0.16-0.071,0.24-0.106
		c0.137-0.064,0.271-0.125,0.41-0.191c0.086-0.041,0.174-0.084,0.262-0.127c0.133-0.064,0.266-0.131,0.398-0.199
		c0.092-0.045,0.184-0.094,0.275-0.141c0.131-0.07,0.264-0.141,0.396-0.213c0.094-0.049,0.188-0.102,0.279-0.152
		c0.135-0.074,0.271-0.15,0.406-0.229c0.092-0.053,0.186-0.105,0.279-0.16c0.139-0.08,0.277-0.164,0.418-0.246
		c0.09-0.057,0.182-0.109,0.273-0.166c0.145-0.088,0.291-0.18,0.438-0.271c0.086-0.055,0.174-0.107,0.26-0.162
		c0.16-0.102,0.32-0.207,0.479-0.311c0.076-0.049,0.15-0.096,0.225-0.146c0.205-0.135,0.408-0.271,0.613-0.412
		c0.031-0.021,0.063-0.043,0.096-0.063c0.24-0.164,0.48-0.332,0.725-0.504c0.043-0.031,0.086-0.063,0.129-0.095
		c0.195-0.141,0.393-0.278,0.588-0.426c0.08-0.057,0.158-0.115,0.236-0.174c0.162-0.119,0.324-0.238,0.488-0.359
		c0.09-0.067,0.18-0.139,0.27-0.207c0.152-0.112,0.303-0.229,0.455-0.348c0.096-0.072,0.193-0.147,0.289-0.225
		c0.146-0.113,0.293-0.229,0.441-0.346c0.098-0.078,0.195-0.156,0.295-0.234c0.145-0.115,0.291-0.232,0.436-0.352
		c0.1-0.08,0.199-0.16,0.297-0.242c0.146-0.119,0.293-0.238,0.439-0.361c0.098-0.08,0.195-0.16,0.293-0.242
		c0.148-0.125,0.301-0.252,0.451-0.379c0.092-0.078,0.186-0.156,0.277-0.234c0.158-0.137,0.318-0.272,0.477-0.409
		c0.084-0.072,0.168-0.146,0.252-0.22c0.182-0.158,0.365-0.317,0.547-0.479c0.059-0.053,0.119-0.104,0.178-0.156
		c0.002-0.002,0.004-0.004,0.008-0.006c0.242-0.215,0.484-0.432,0.725-0.648c0.006-0.006,0.012-0.012,0.018-0.016
		c0.234-0.213,0.467-0.424,0.701-0.639c0.076-0.068,0.15-0.141,0.227-0.209c0.164-0.15,0.326-0.303,0.49-0.455
		c0.088-0.082,0.18-0.166,0.268-0.252c0.146-0.139,0.295-0.277,0.441-0.416c0.098-0.092,0.191-0.184,0.287-0.273
		c0.039-0.037,0.076-0.07,0.113-0.106l0,0c6.754-6.472,12.695-13.625,14.938-17.513c0.424-0.733,0.787-1.485,1.104-2.252
		c-11.881-3.793-22.865-10.106-32.295-18.682c-0.51,0.662-0.982,1.365-1.41,2.107c-5.221,9.018-15.715,44.074-6.711,49.264
		c0.125,0.072,0.256,0.137,0.387,0.197c0.035,0.016,0.072,0.031,0.107,0.047c0.111,0.049,0.227,0.092,0.344,0.133
		c0.023,0.008,0.047,0.016,0.07,0.023c0.139,0.045,0.281,0.084,0.426,0.117c0.033,0.008,0.066,0.014,0.102,0.021
		c0.119,0.022,0.24,0.047,0.363,0.063c0.037,0.006,0.072,0.012,0.109,0.018c0.15,0.018,0.305,0.031,0.461,0.039
		c0.025,0.002,0.051,0.002,0.076,0.002c0.127,0.006,0.256,0.006,0.387,0.004C77.319,258.994,77.394,258.992,77.47,258.988z"/>
	<path d="M261.768,100.576c-0.136-0.031-0.271-0.064-0.404-0.095c-0.188-0.043-0.377-0.084-0.566-0.125
		c-0.129-0.028-0.258-0.056-0.389-0.083c-0.252-0.053-0.51-0.102-0.766-0.15c-0.146-0.027-0.289-0.055-0.437-0.082
		c-0.244-0.043-0.488-0.088-0.735-0.129c-0.144-0.025-0.287-0.048-0.433-0.07c-0.197-0.032-0.396-0.063-0.597-0.094
		c-0.153-0.023-0.311-0.047-0.465-0.068c-0.197-0.029-0.396-0.057-0.598-0.084c-0.152-0.021-0.307-0.041-0.461-0.062
		c-0.223-0.028-0.445-0.056-0.67-0.083c-0.133-0.016-0.266-0.033-0.398-0.048c-0.342-0.039-0.688-0.077-1.035-0.112
		c-0.141-0.015-0.28-0.027-0.424-0.041c-0.225-0.021-0.449-0.043-0.676-0.063c-0.162-0.015-0.324-0.028-0.486-0.042
		c-0.211-0.018-0.426-0.036-0.639-0.053c-0.162-0.012-0.324-0.024-0.488-0.037c-0.225-0.016-0.447-0.03-0.674-0.045
		c-0.148-0.01-0.301-0.021-0.451-0.03c-0.315-0.021-0.637-0.038-0.955-0.054c-0.127-0.008-0.254-0.014-0.383-0.02
		c-0.295-0.015-0.592-0.027-0.889-0.041c-0.148-0.006-0.297-0.011-0.447-0.017c-0.232-0.009-0.469-0.017-0.703-0.024
		c-0.156-0.005-0.313-0.01-0.473-0.014c-0.232-0.006-0.465-0.012-0.699-0.018c-0.006,0-0.014,0-0.021,0l0,0
		c-0.918-0.02-1.836-0.029-2.747-0.029c-8.373,0-16.293,0.803-20.199,1.851c-0.83,0.222-1.629,0.501-2.399,0.824
		c5.811,11.312,9.018,23.624,9.61,36.042c0.847-0.107,1.695-0.271,2.541-0.499c10.062-2.692,42.274-20.049,39.574-30.099
		c-0.048-0.176-0.106-0.348-0.179-0.519c-0.02-0.054-0.047-0.106-0.069-0.159c-0.052-0.115-0.104-0.229-0.166-0.343
		c-0.031-0.06-0.065-0.118-0.103-0.177c-0.063-0.105-0.131-0.211-0.201-0.314c-0.036-0.056-0.073-0.111-0.114-0.164
		c-0.086-0.117-0.181-0.229-0.274-0.342c-0.033-0.037-0.063-0.076-0.097-0.113c-0.131-0.146-0.271-0.289-0.422-0.429
		c-0.039-0.036-0.084-0.073-0.125-0.11c-0.115-0.103-0.229-0.205-0.354-0.303c-0.062-0.05-0.125-0.099-0.189-0.146
		c-0.111-0.086-0.227-0.17-0.346-0.252c-0.068-0.049-0.142-0.098-0.213-0.146c-0.127-0.083-0.257-0.164-0.39-0.244
		c-0.069-0.043-0.14-0.086-0.209-0.127c-0.188-0.111-0.386-0.22-0.588-0.324c-0.039-0.021-0.078-0.041-0.117-0.061
		c-0.194-0.1-0.396-0.197-0.604-0.293c-0.088-0.041-0.178-0.079-0.268-0.118c-0.15-0.067-0.305-0.134-0.461-0.198
		c-0.102-0.043-0.205-0.084-0.309-0.125c-0.154-0.062-0.313-0.121-0.473-0.181c-0.104-0.039-0.207-0.078-0.314-0.116
		c-0.178-0.063-0.361-0.125-0.547-0.187c-0.09-0.03-0.178-0.062-0.271-0.091c-0.269-0.086-0.541-0.17-0.817-0.25
		c-0.104-0.03-0.207-0.059-0.312-0.086c-0.188-0.053-0.379-0.106-0.571-0.157c-0.129-0.033-0.259-0.066-0.388-0.099
		C262.124,100.662,261.945,100.619,261.768,100.576z"/>
	<path d="M13.782,179.555c0.061,0.049,0.124,0.098,0.188,0.146c0.113,0.086,0.23,0.172,0.351,0.256
		c0.069,0.049,0.138,0.097,0.209,0.144c0.128,0.086,0.263,0.17,0.397,0.252c0.066,0.041,0.132,0.082,0.199,0.121
		c0.199,0.116,0.406,0.229,0.619,0.342c0.021,0.012,0.045,0.021,0.066,0.033c0.205,0.104,0.416,0.207,0.632,0.309
		c0.081,0.037,0.166,0.072,0.248,0.109c0.159,0.069,0.319,0.141,0.483,0.207c0.096,0.039,0.193,0.077,0.289,0.116
		c0.164,0.063,0.328,0.127,0.496,0.188c0.099,0.035,0.194,0.072,0.293,0.107c0.193,0.068,0.392,0.135,0.59,0.201
		c0.076,0.025,0.15,0.051,0.227,0.076c0.273,0.088,0.553,0.174,0.838,0.256c0.086,0.025,0.174,0.049,0.26,0.072
		c0.207,0.059,0.416,0.115,0.629,0.174c0.113,0.029,0.229,0.059,0.345,0.088c0.192,0.049,0.387,0.096,0.584,0.143
		c0.12,0.029,0.239,0.06,0.36,0.086c0.209,0.047,0.418,0.095,0.631,0.14c0.109,0.022,0.218,0.049,0.328,0.069
		c0.313,0.064,0.627,0.127,0.947,0.188c0.045,0.009,0.09,0.017,0.135,0.024c0.295,0.054,0.592,0.105,0.892,0.154
		c0.119,0.021,0.239,0.039,0.358,0.062c0.226,0.036,0.451,0.069,0.679,0.104c0.133,0.021,0.267,0.039,0.401,0.062
		c0.224,0.032,0.449,0.063,0.676,0.094c0.131,0.019,0.261,0.035,0.392,0.054c0.265,0.034,0.53,0.065,0.797,0.1
		c0.093,0.012,0.185,0.021,0.276,0.033c0.355,0.041,0.716,0.08,1.078,0.117c0.102,0.01,0.205,0.02,0.308,0.028
		c0.267,0.024,0.534,0.052,0.804,0.076c0.133,0.012,0.267,0.021,0.4,0.032c0.245,0.021,0.489,0.041,0.734,0.062
		c0.137,0.011,0.273,0.021,0.41,0.031c0.262,0.019,0.522,0.037,0.785,0.053c0.116,0.009,0.232,0.017,0.35,0.022
		c0.377,0.021,0.755,0.046,1.135,0.064c0.02,0.002,0.039,0.002,0.059,0.004c0.361,0.02,0.723,0.034,1.086,0.049
		c0.119,0.006,0.236,0.01,0.354,0.016c0.269,0.01,0.535,0.02,0.802,0.025c0.135,0.004,0.268,0.01,0.401,0.014
		c1.172,0.031,2.345,0.049,3.509,0.049c8.371,0,16.281-0.803,20.186-1.855c0.832-0.223,1.633-0.502,2.408-0.822
		c-5.809-11.311-9.014-23.618-9.609-36.03c-0.844,0.104-1.691,0.271-2.537,0.496c-10.061,2.692-42.266,20.043-39.584,30.09
		c0.047,0.177,0.107,0.351,0.176,0.521c0.021,0.055,0.047,0.104,0.07,0.16c0.052,0.114,0.106,0.229,0.168,0.342
		c0.031,0.061,0.066,0.117,0.101,0.176c0.063,0.107,0.132,0.213,0.204,0.316c0.038,0.055,0.075,0.108,0.115,0.162
		c0.087,0.116,0.181,0.231,0.279,0.346c0.03,0.035,0.06,0.072,0.092,0.108c0.132,0.146,0.273,0.289,0.424,0.431
		c0.039,0.037,0.082,0.069,0.122,0.106C13.538,179.352,13.657,179.453,13.782,179.555z"/>
	<path d="M228.091,141.729c0-11.23-2.125-22.176-6.315-32.527c-4.34-10.721-10.717-20.33-18.949-28.564
		c-16.32-16.32-38.018-25.309-61.094-25.309c-23.074,0-44.771,8.99-61.096,25.313c-33.68,33.681-33.68,88.493,0,122.188
		c16.324,16.314,38.021,25.301,61.096,25.301c23.081,0,44.775-8.988,61.094-25.309c8.232-8.234,14.609-17.846,18.949-28.564
		C225.966,163.904,228.091,152.959,228.091,141.729z M201.229,195.318c-0.019,0.018-0.031,0.035-0.049,0.055
		c-0.396,0.438-0.8,0.871-1.205,1.301c-0.064,0.07-0.132,0.141-0.195,0.211c-0.471,0.494-0.945,0.982-1.43,1.465
		c-15.117,15.123-35.226,23.451-56.618,23.451c-21.396,0-41.504-8.326-56.617-23.447c-0.484-0.479-0.959-0.971-1.43-1.465
		c-0.064-0.066-0.127-0.139-0.191-0.207c-0.408-0.432-0.813-0.865-1.209-1.307c-0.014-0.014-0.025-0.027-0.037-0.041
		c-13.301-14.732-20.58-33.605-20.58-53.6c0-19.993,7.279-38.867,20.58-53.6c0.012-0.014,0.023-0.027,0.037-0.041
		c0.396-0.439,0.801-0.875,1.209-1.307c0.064-0.068,0.127-0.139,0.193-0.207c0.469-0.494,0.945-0.982,1.428-1.466
		c15.111-15.125,35.221-23.454,56.617-23.454c20.059,0,38.984,7.32,53.729,20.698c0.98,0.892,1.947,1.812,2.891,2.756
		c0.484,0.483,0.959,0.972,1.431,1.466c0.063,0.067,0.127,0.139,0.19,0.207c0.408,0.432,0.814,0.867,1.211,1.307
		c0.014,0.014,0.023,0.027,0.037,0.041c13.301,14.729,20.58,33.604,20.58,53.596C221.798,161.719,214.521,180.588,201.229,195.318z"
		/>
	<path d="M195.971,195.969c29.899-29.908,29.899-78.569,0-108.475c-14.48-14.488-33.742-22.468-54.237-22.468
		c-20.5,0-39.762,7.979-54.238,22.468c-29.9,29.908-29.9,78.572,0,108.479c14.479,14.484,33.742,22.461,54.238,22.461
		C162.225,218.434,181.486,210.455,195.971,195.969z M141.731,200.594c-15.729,0-30.512-6.121-41.621-17.232
		c-11.115-11.118-17.238-25.901-17.238-41.626c0-15.723,6.123-30.508,17.242-41.63c11.105-11.115,25.887-17.237,41.615-17.237
		s30.509,6.123,41.623,17.242c11.115,11.117,17.236,25.898,17.236,41.621c0,15.725-6.121,30.507-17.238,41.626
		C172.238,194.471,157.458,200.594,141.731,200.594z"/>
</g>
</svg>
