<?xml version="1.0" encoding="utf-8"?>
<!-- Generator: Adobe Illustrator 15.1.0, SVG Export Plug-In . SVG Version: 6.00 Build 0)  -->
<!DOCTYPE svg PUBLIC "-//W3C//DTD SVG 1.1//EN" "http://www.w3.org/Graphics/SVG/1.1/DTD/svg11.dtd">
<svg version="1.1"
	 id="Layer_1" xmlns:dc="http://purl.org/dc/elements/1.1/" xmlns:rdf="http://www.w3.org/1999/02/22-rdf-syntax-ns#" xmlns:cc="http://creativecommons.org/ns#"
	 xmlns="http://www.w3.org/2000/svg" xmlns:xlink="http://www.w3.org/1999/xlink" x="0px" y="0px" width="283.46px"
	 height="283.46px" viewBox="0 0 283.46 283.46" enable-background="new 0 0 283.46 283.46" xml:space="preserve">
<g transform="translate(-.095 .005)">
	<path fill="#040404" d="M251.662,269.652V13.015h-18.427V6.856h25.579v269.258h-25.579v-6.158L251.662,269.652z"/>
	<path fill="#040404" d="M92.884,94.634v12.958h0.37c3.239-4.745,7.514-8.667,12.537-11.527c4.881-2.718,10.518-4.081,16.745-4.081
		c6.058,0,11.611,1.178,16.576,3.534c5.007,2.348,8.834,6.488,11.443,12.453c2.844-4.207,6.698-7.917,11.611-11.107
		c4.881-3.223,10.687-4.83,17.334-4.83c5.065,0,9.761,0.623,14.052,1.851c4.325,1.245,8.028,3.223,11.106,5.949
		c3.08,2.718,5.495,6.277,7.229,10.687c1.725,4.392,2.591,9.676,2.591,15.903v64.201h-26.336v-54.356
		c0-3.223-0.126-6.252-0.37-9.088c-0.177-2.583-0.867-5.107-2.037-7.421c-1.119-2.112-2.826-3.854-4.913-5.015
		c-2.163-1.229-5.1-1.851-8.835-1.851c-3.703,0-6.697,0.715-9.004,2.128c-2.289,1.43-4.081,3.282-5.376,5.57
		c-1.338,2.415-2.222,5.065-2.592,7.8c-0.438,2.92-0.657,5.865-0.657,8.835v53.43h-26.336v-53.851c0-2.844-0.059-5.664-0.177-8.415
		c-0.096-2.642-0.63-5.242-1.582-7.707c-0.909-2.331-2.524-4.309-4.628-5.663c-2.171-1.414-5.352-2.128-9.592-2.128
		c-1.666,0.069-3.315,0.353-4.914,0.841c-2.171,0.626-4.19,1.699-5.932,3.147c-1.918,1.548-3.551,3.778-4.914,6.681
		c-1.354,2.912-2.037,6.715-2.037,11.443v55.704H67.91V94.786L92.884,94.634z"/>
	<path fill="#040404" d="M31.51,13.284V269.92h18.428v6.16h-25.58V6.822h25.495v6.159L31.51,13.284z"/>
</g>
</svg>
