<?xml version="1.0" encoding="UTF-8" standalone="no"?>

<svg
   version="1.1"
   id="Layer_3"
   x="0px"
   y="0px"
   width="283.46px"
   height="283.46px"
   viewBox="0 0 283.46 283.46"
   enable-background="new 0 0 283.46 283.46"
   xml:space="preserve"
   sodipodi:docname="playground.svg"
   inkscape:version="1.2.2 (b0a8486541, 2022-12-01)"
   xmlns:inkscape="http://www.inkscape.org/namespaces/inkscape"
   xmlns:sodipodi="http://sodipodi.sourceforge.net/DTD/sodipodi-0.dtd"
   xmlns="http://www.w3.org/2000/svg"
   xmlns:svg="http://www.w3.org/2000/svg"><defs
   id="defs15" /><sodipodi:namedview
   id="namedview13"
   pagecolor="#ffffff"
   bordercolor="#000000"
   borderopacity="0.25"
   inkscape:showpageshadow="2"
   inkscape:pageopacity="0.0"
   inkscape:pagecheckerboard="0"
   inkscape:deskcolor="#d1d1d1"
   showgrid="false"
   inkscape:zoom="2.095427"
   inkscape:cx="203.06124"
   inkscape:cy="125.98864"
   inkscape:window-width="1920"
   inkscape:window-height="1015"
   inkscape:window-x="0"
   inkscape:window-y="0"
   inkscape:window-maximized="1"
   inkscape:current-layer="Layer_3" />

<path
   id="path852"
   style="fill:#000000;stroke-width:0.489347"
   d="m 189.46811,17.553685 a 5.2128881,5.4345952 0 0 0 -5.21288,5.435527 5.2128881,5.4345952 0 0 0 0.56445,2.435538 v 3.742174 30.578016 24.359287 l -4.5156,4.912092 c -2.48342,2.701974 -6.49567,7.093441 -8.91794,9.757778 -2.42227,2.664333 -5.63903,6.179173 -7.14646,7.810523 -1.5074,1.63135 -3.76433,4.1288 -5.01561,5.55076 l -2.27538,2.58593 v 1.5 1.50194 l 1.66406,1.6621 1.66405,1.66406 h 28.72256 28.7245 l 1.59766,-0.75781 c 4.46307,-2.11787 3.69681,-4.96502 -3.3457,-12.45308 -1.3922,-1.48026 -6.87434,-7.46669 -12.18355,-13.30269 l -9.65231,-10.61129 v -6.621069 -0.04492 -6.576149 -0.140624 h -0.0234 V 59.74494 H 226.8098 V 29.166924 H 194.11656 V 25.42475 a 5.2128881,5.4345952 0 0 0 0.56445,-2.435538 5.2128881,5.4345952 0 0 0 -5.21287,-5.435527 z m -83.16573,25.779204 a 5.2128881,5.4345952 0 0 0 -5.21287,5.433574 5.2128881,5.4345952 0 0 0 0.56446,2.437491 v 19.337822 15.605413 1.96093 21.775321 4.57029 l -1.12305,1.21875 c -0.617473,0.6701 -6.894196,7.56753 -13.947207,15.32806 l -12.822219,14.10933 v 1.63476 c 0,1.04374 0.456305,2.17682 1.26562,3.13867 h 0.002 l 1.265621,1.50585 h 29.699115 29.69716 l 1.05078,-0.73438 c 0.57756,-0.40456 1.29395,-1.47455 1.59178,-2.37694 l 0.54102,-1.64062 -0.46289,-1.17187 c -0.41588,-1.05519 -10.71248,-12.58922 -22.88859,-25.63858 l -4.56639,-4.89452 -0.002,-6.97262 -0.004,-6.97264 V 86.147189 h 32.69324 V 55.569173 h -32.69315 v -4.365219 a 5.2128881,5.4345952 0 0 0 0.56445,-2.437491 5.2128881,5.4345952 0 0 0 -5.21288,-5.433574 z m 56.51934,82.120801 v 25.121 c 0,13.81586 0.15862,25.27769 0.35156,25.47061 0.19294,0.19319 12.79824,0.28383 28.01357,0.20313 l 27.66592,-0.14648 0.12695,-16.75971 0.12891,-16.76166 h -17.70502 -17.70696 l -0.89454,-0.80859 c -1.20382,-1.08945 -1.12928,-2.3972 0.19141,-3.32225 l 1.08789,-0.76172 h 17.50774 17.50776 v -6.11716 -6.11717 h -28.13858 z m -84.657899,30.82997 v 25.20108 25.20108 h 6.560524 6.55857 l 0.179687,-13.08979 0.18164,-13.0898 a 14.83638,16.747066 0 0 1 14.835878,-16.74798 14.83638,16.747066 0 0 1 14.83589,16.74798 14.83638,16.747066 0 0 1 -0.0879,0.49804 v 12.54683 13.13472 h 6.60544 6.60544 v -25.20108 -25.20108 h -28.13662 z m -4.89256,15.05659 -1.218746,0.79883 c -0.670376,0.43922 -3.270197,2.39117 -5.777322,4.33787 -2.507117,1.94664 -10.679716,8.27398 -18.162045,14.06049 -20.013191,15.47734 -31.82677,24.64018 -36.359245,28.20303 l -4.0195168,3.16014 -0.3242177,1.73437 -0.3261706,1.73436 0.9628871,1.30078 c 0.5296861,0.71595 1.56101,1.59525 2.291008,1.95312 l 1.326167,0.65039 1.513666,-0.52734 c 0.832486,-0.2902 2.418696,-1.26017 3.523426,-2.15429 1.104714,-0.89408 2.282706,-1.7876 2.61913,-1.98632 l 0.611327,-0.36133 v 12.91988 12.91988 l -5.095685,4.03513 c -2.931015,2.32085 -5.3435265,4.62957 -5.6757617,5.43162 l -0.578123,1.39454 0.5371075,1.62889 c 0.2956113,0.89572 1.1430532,2.00973 1.8828062,2.4746 l 1.345698,0.84375 14.927682,-0.11914 14.929633,-0.12109 4.443344,-3.66992 c 2.443945,-2.01854 9.43389,-7.83634 15.533147,-12.92768 l 11.089804,-9.25778 v -16.06635 c 0,-8.83668 -0.170153,-16.06634 -0.376952,-16.06634 -0.206779,0 -1.460103,0.8953 -2.785146,1.99022 -1.325003,1.09494 -3.027304,2.43243 -3.783189,2.97069 l -1.373043,0.97852 v -12.20113 -12.20113 l 4.138658,-3.12498 4.138657,-3.12499 0.01953,-5.80467 z m 66.550539,9.41011 v 8.31833 8.3203 h 50.89239 50.8924 v -8.3203 -8.31833 h -50.8924 z m -84.558287,16.23042 c 0.215512,-0.0897 0.390624,5.33599 0.390624,12.05659 v 12.21871 l -3.398426,2.74609 c -1.869622,1.51056 -3.520965,2.74608 -3.669908,2.74608 -0.148899,0 -0.271484,-5.55965 -0.271484,-12.35543 V 202.0374 l 3.279285,-2.44725 c 1.803025,-1.34571 3.454383,-2.51957 3.669909,-2.60937 z m 107.558207,5.30076 v 27.15811 27.16005 H 148.63036 134.439 V 242.89663 229.19551 H 106.30238 78.163821 v 13.70112 13.70307 h -7.7363 -7.738253 l -1.099605,1.02539 c -2.427981,2.26194 -2.415458,4.99425 0.0332,7.05466 l 1.457026,1.22656 79.029021,-0.12695 79.029,-0.12695 1.18164,-1.37304 1.18163,-1.37305 v -1.72264 -1.72461 l -1.43163,-1.42968 c -0.78671,-0.78673 -1.77675,-1.42969 -2.20116,-1.42969 h -0.77148 v -27.16005 -27.15811 h -28.13858 z m 62.09743,0 0.20899,10.88863 0.20703,10.88668 1.05077,3.91601 c 4.47312,16.67078 19.27677,28.91251 36.99596,30.59364 2.15313,0.20423 5.89803,0.34228 8.32028,0.30468 l 4.40429,-0.0684 0.13476,-7.70896 0.13476,-7.707 -6.00778,-0.008 c -14.75869,-0.0178 -24.86016,-6.85094 -27.99209,-18.93743 l -0.76953,-2.97265 v -9.59372 -9.59371 h -8.34372 z m -186.147766,7.24802 0.138672,11.91207 c 0.166791,14.41918 0.499533,13.17621 -4.56639,17.05072 -2.287356,1.74942 -4.374091,3.25589 -4.636702,3.34569 -0.302644,0.10339 -0.469259,-4.46595 -0.457029,-12.47847 l 0.02148,-12.64253 4.749983,-3.59374 z m 39.392437,2.04882 v 6.36326 6.36131 H 106.30238 134.439 v -6.36131 -6.36326 h -28.13662 z m 113.105059,2.88671 a 14.881516,15.074411 0 0 1 14.88081,15.07417 14.881516,15.074411 0 0 1 -14.88081,15.07416 14.881516,15.074411 0 0 1 -14.88276,-15.07416 14.881516,15.074411 0 0 1 14.88276,-15.07417 z" /></svg>
