<?xml version="1.0" encoding="UTF-8" standalone="no"?>
<!-- Generator: Adobe Illustrator 15.1.0, SVG Export Plug-In . SVG Version: 6.00 Build 0)  -->

<svg
   version="1.1"
   id="Layer_3"
   x="0px"
   y="0px"
   width="283.46px"
   height="283.46px"
   viewBox="0 0 283.46 283.46"
   enable-background="new 0 0 283.46 283.46"
   xml:space="preserve"
   sodipodi:docname="playground.svg"
   inkscape:version="1.2.2 (b0a8486541, 2022-12-01)"
   xmlns:inkscape="http://www.inkscape.org/namespaces/inkscape"
   xmlns:sodipodi="http://sodipodi.sourceforge.net/DTD/sodipodi-0.dtd"
   xmlns="http://www.w3.org/2000/svg"
   xmlns:svg="http://www.w3.org/2000/svg"><defs
   id="defs15" /><sodipodi:namedview
   id="namedview13"
   pagecolor="#ffffff"
   bordercolor="#000000"
   borderopacity="0.25"
   inkscape:showpageshadow="2"
   inkscape:pageopacity="0.0"
   inkscape:pagecheckerboard="0"
   inkscape:deskcolor="#d1d1d1"
   showgrid="false"
   inkscape:zoom="0.26192837"
   inkscape:cx="395.14621"
   inkscape:cy="817.01728"
   inkscape:window-width="1920"
   inkscape:window-height="1015"
   inkscape:window-x="0"
   inkscape:window-y="0"
   inkscape:window-maximized="1"
   inkscape:current-layer="Layer_3" />

<g
   style="fill:#000000"
   id="g249"
   transform="matrix(0.48507235,0,0,0.48507235,17.550567,28.017376)"><path
     id="path2"
     d="m 178.74695,-43.155169 a 4.0369687,4.0369687 0 0 0 -4.03627,4.036266 4.0369687,4.0369687 0 0 0 1.61001,3.220013 V 21.306333 L 150.18934,1.7075067 c -3.038,-2.2779955 -7.20206,-2.2779955 -10.24004,0 L 3.4162633,104.10916 c -2.93499404,2.20198 -4.13900922,6.03255 -2.97001156,9.52253 1.15199776,3.482 4.41203896,5.83753 8.09003156,5.83753 h 8.5325337 v 213.33333 c 0,4.71 3.814793,8.53253 8.533783,8.53253 h 8.532533 v 162.13314 c 0,4.70998 3.813542,8.53253 8.532534,8.53253 H 76.80155 c 4.71899,0 8.533783,-3.82255 8.533783,-8.53253 V 341.33633 332.80255 319.7225 309.91246 230.4034 c 0,-32.93894 26.802797,-59.73398 59.732737,-59.73398 32.92992,0 59.73273,26.79604 59.73273,59.73398 v 79.50906 9.81004 13.08005 8.53378 162.13314 c 0,4.70998 3.8148,8.53253 8.53378,8.53253 h 34.13264 c 4.71898,0 8.53253,-3.82255 8.53253,-8.53253 v -53.00896 h 62.8065 a 3.4568757,3.4568757 0 0 0 3.45751,-3.45626 v -17.79757 a 3.4568757,3.4568757 0 0 0 -3.45751,-3.45627 h -4.16127 v -95.41787 c 18.79743,13.22211 35.22139,33.09972 35.22139,62.20399 0,54.4939 23.68025,119.46672 136.53303,119.46672 h 17.06632 c 4.71898,0 8.53378,-3.8238 8.53378,-8.53378 v -34.13264 c 0.003,-4.71998 -3.81105,-8.53503 -8.53003,-8.53503 H 486.4019 c -23.95119,0 -43.70107,-2.42498 -58.18523,-10.34129 h 40.35016 a 3.4568757,3.4568757 0 0 0 3.45626,-3.45626 v -17.79757 a 3.4568757,3.4568757 0 0 0 -3.45626,-3.45627 h -4.16127 V 196.26827 H 511.9995 V 179.20195 H 323.40876 c -3.96422,-19.45116 -21.2012,-34.13388 -41.80641,-34.13388 h -8.53378 v -25.6001 h 8.53378 c 3.678,0 6.92903,-2.35553 8.09003,-5.83753 1.169,-3.48998 -0.034,-7.32155 -2.97001,-9.52253 L 181.17321,24.945097 V -6.2112743 H 218.2871 V -33.040129 h -37.11389 v -2.852511 a 4.0369687,4.0369687 0 0 0 1.61125,-3.226263 4.0369687,4.0369687 0 0 0 -4.03751,-4.036266 z M 145.06932,19.201325 256.00225,102.4004 H 34.136383 Z M 273.06857,162.13438 h 8.53378 c 11.12698,0 20.61611,7.12559 24.14009,17.06757 h -32.67387 z m -127.99925,25.6001 c -23.52596,0 -42.66767,19.13946 -42.66767,42.66642 v 79.51156 h 85.33283 V 230.4009 c 0.002,-23.52596 -19.13922,-42.66642 -42.66516,-42.66642 z m 127.99925,8.53379 h 34.45263 v 72.28403 c -12.22769,-5.50368 -24.1058,-9.61297 -34.45263,-12.26005 z m 41.57641,0 h 1.09125 81.38532 v 165.80814 c -11.69273,-43.854 -47.67495,-73.03119 -82.47657,-90.20535 z m 89.60035,0 h 53.03521 v 229.48214 h -50.84645 c -0.82705,-2.08161 -1.5496,-4.29611 -2.18876,-6.61752 z M 273.06607,310.34246 c 9.13698,2.88779 21.92825,7.78762 34.45513,15.36756 v 100.04039 h -51.52145 v -84.41408 h 8.53378 c 4.719,0 8.53254,-3.82378 8.53254,-8.53378 z m -170.66442,9.38004 v 13.0788 8.53253 42.66767 51.19895 51.2002 17.06757 c 0,4.70998 3.8148,8.53253 8.53378,8.53253 4.719,0 8.53254,-3.82255 8.53254,-8.53253 v -8.53379 h 51.2002 v 8.53379 c 0,4.70998 3.81353,8.53253 8.53253,8.53253 4.719,0 8.53378,-3.82255 8.53378,-8.53253 v -17.06757 -51.2002 -51.19895 -42.66767 -8.53253 -13.0788 z m -51.2002,21.61258 H 68.269017 V 494.93443 H 51.20145 Z m 170.66817,0 h 17.06631 v 153.59935 h -17.06631 z m -102.4004,10e-4 h 51.2002 v 34.13264 h -51.2002 z m 0,51.2002 h 51.2002 v 34.13264 h -51.2002 z m 0,51.19895 h 51.2002 v 34.13264 h -51.2002 z" /></g></svg>
