<?xml version="1.0" encoding="UTF-8" standalone="no"?>
<!-- Generator: Adobe Illustrator 15.1.0, SVG Export Plug-In . SVG Version: 6.00 Build 0)  -->

<svg
   version="1.1"
   id="Layer_3"
   x="0px"
   y="0px"
   width="283.46px"
   height="283.46px"
   viewBox="0 0 283.46 283.46"
   enable-background="new 0 0 283.46 283.46"
   xml:space="preserve"
   sodipodi:docname="playground-alt.svg"
   inkscape:version="1.2.2 (b0a8486541, 2022-12-01)"
   xmlns:inkscape="http://www.inkscape.org/namespaces/inkscape"
   xmlns:sodipodi="http://sodipodi.sourceforge.net/DTD/sodipodi-0.dtd"
   xmlns="http://www.w3.org/2000/svg"
   xmlns:svg="http://www.w3.org/2000/svg"><defs
   id="defs15" /><sodipodi:namedview
   id="namedview13"
   pagecolor="#ffffff"
   bordercolor="#000000"
   borderopacity="0.25"
   inkscape:showpageshadow="2"
   inkscape:pageopacity="0.0"
   inkscape:pagecheckerboard="0"
   inkscape:deskcolor="#d1d1d1"
   showgrid="false"
   inkscape:zoom="2.095427"
   inkscape:cx="155.8155"
   inkscape:cy="155.57689"
   inkscape:window-width="1920"
   inkscape:window-height="1015"
   inkscape:window-x="0"
   inkscape:window-y="0"
   inkscape:window-maximized="1"
   inkscape:current-layer="Layer_3" />

<path
   id="path606"
   style="fill:#000000"
   d="M 256.0014 -0.00027193097 C 253.14278 -0.00027193097 250.28592 0.73430123 247.72042 2.2017998 L 17.824879 133.56856 L 494.17792 133.56856 L 264.28238 2.2017998 C 261.71738 0.73430123 258.86002 -0.00027193097 256.0014 -0.00027193097 z M 5.5668041 166.95984 L 5.5668041 183.65548 C 5.5668041 205.39146 19.567103 223.74996 38.958083 230.66395 L 38.958083 305.16676 C 29.026093 310.95875 22.262444 321.61225 22.262444 333.91624 C 22.262444 352.32922 37.240742 367.30751 55.653723 367.30751 C 74.066705 367.30751 89.045002 352.32922 89.045002 333.91624 C 89.045002 321.61125 82.280353 310.95875 72.349363 305.16676 L 72.349363 230.67509 C 78.547357 228.4141 84.226007 225.06063 89.045002 220.71564 C 97.926994 228.72463 109.56129 233.7424 122.43628 233.7424 C 128.32528 233.7424 133.90693 232.58109 139.13192 230.67509 L 139.13192 305.16676 C 129.19993 310.95875 122.43628 321.61225 122.43628 333.91624 C 122.43628 352.32922 137.41458 367.30751 155.82756 367.30751 C 174.24054 367.30751 189.21884 352.32922 189.21884 333.91624 C 189.21884 321.61125 182.45419 310.95875 172.5232 305.16676 L 172.5232 230.67509 C 177.7492 232.58109 183.32985 233.7424 189.21884 233.7424 C 202.09283 233.7424 213.72813 228.72463 222.61012 220.71564 C 227.42912 225.06063 233.10777 228.4151 239.30576 230.67509 L 239.30576 411.82798 L 122.43628 411.82798 C 94.817309 411.82798 72.349363 434.29693 72.349363 461.9149 L 72.349363 495.30618 C 72.349363 504.52317 79.828012 512.00182 89.045002 512.00182 L 422.95408 512.00182 C 432.17107 512.00182 439.64972 504.52317 439.64972 495.30618 L 439.64972 461.9149 C 439.64972 434.29593 417.18078 411.82798 389.5628 411.82798 L 272.69704 411.82798 L 272.69704 230.67509 C 278.89503 228.4141 284.57368 225.06063 289.39268 220.71564 C 298.27467 228.72463 309.90626 233.7424 322.78024 233.7424 C 328.66924 233.7424 334.25089 232.58109 339.47588 230.67509 L 339.47588 305.16676 C 329.54389 310.95875 322.78024 321.60853 322.78024 333.91252 C 322.78024 352.3255 337.75854 367.3038 356.17152 367.3038 C 374.58451 367.3038 389.5628 352.3255 389.5628 333.91252 C 389.5628 321.60753 382.79815 310.95875 372.86716 305.16676 L 372.86716 230.67509 C 378.09316 232.58109 383.67381 233.7424 389.5628 233.7424 C 402.43679 233.7424 414.07209 228.72463 422.95408 220.71564 C 427.77308 225.06063 433.45173 228.4151 439.64972 230.67509 L 439.64972 305.16676 C 429.71773 310.95875 422.95408 321.60853 422.95408 333.91252 C 422.95408 352.3255 437.93238 367.3038 456.34536 367.3038 C 474.75834 367.3038 489.73664 352.3255 489.73664 333.91252 C 489.73664 321.60753 482.97199 310.95875 473.041 305.16676 L 473.041 230.66395 C 492.43198 223.74996 506.43228 205.39346 506.43228 183.65548 L 506.43228 166.95984 L 5.5668041 166.95984 z "
   transform="matrix(0.52596068,0,0,0.52596068,7.0837987,7.0841274)" /></svg>
