<?xml version="1.0" encoding="UTF-8" standalone="no"?>
<!-- Generator: Adobe Illustrator 15.1.0, SVG Export Plug-In . SVG Version: 6.00 Build 0)  -->

<svg
   version="1.1"
   id="Layer_2"
   x="0px"
   y="0px"
   width="283.46px"
   height="283.46px"
   viewBox="0 0 283.46 283.46"
   enable-background="new 0 0 283.46 283.46"
   xml:space="preserve"
   sodipodi:docname="plugin.svg"
   inkscape:version="1.2.2 (b0a8486541, 2022-12-01)"
   xmlns:inkscape="http://www.inkscape.org/namespaces/inkscape"
   xmlns:sodipodi="http://sodipodi.sourceforge.net/DTD/sodipodi-0.dtd"
   xmlns="http://www.w3.org/2000/svg"
   xmlns:svg="http://www.w3.org/2000/svg"><defs
   id="defs12650" /><sodipodi:namedview
   id="namedview12648"
   pagecolor="#ffffff"
   bordercolor="#000000"
   borderopacity="0.25"
   inkscape:showpageshadow="2"
   inkscape:pageopacity="0.0"
   inkscape:pagecheckerboard="0"
   inkscape:deskcolor="#d1d1d1"
   showgrid="false"
   inkscape:zoom="0.37042265"
   inkscape:cx="-101.23571"
   inkscape:cy="375.24704"
   inkscape:window-width="1920"
   inkscape:window-height="1015"
   inkscape:window-x="0"
   inkscape:window-y="0"
   inkscape:window-maximized="1"
   inkscape:current-layer="Layer_2" />

<g
   id="g12809"
   transform="matrix(8.9764333,0,0,8.9764333,-1.8929371,-1.8929371)"
   style="fill:#000000">
	<path
   d="M 18.3,17.3 15,20.6 11.4,17 14.7,13.7 c 0.4,-0.4 0.4,-1 0,-1.4 -0.4,-0.4 -1,-0.4 -1.4,0 L 10,15.6 8.7,14.3 c -0.4,-0.4 -1,-0.4 -1.4,0 -0.4,0.4 -0.4,1 0,1.4 L 7.6,16 4.8,18.8 C 3.6,19.9 3,21.4 3,23 c 0,1.3 0.4,2.4 1.1,3.5 l -2.8,2.8 c -0.4,0.4 -0.4,1 0,1.4 0.2,0.2 0.4,0.3 0.7,0.3 0.3,0 0.5,-0.1 0.7,-0.3 l 2.8,-2.8 c 1,0.7 2.2,1.1 3.5,1.1 1.6,0 3.1,-0.6 4.2,-1.7 l 2.8,-2.8 0.3,0.3 c 0.2,0.2 0.5,0.3 0.7,0.3 0.2,0 0.5,-0.1 0.7,-0.3 0.4,-0.4 0.4,-1 0,-1.4 L 16.4,22 19.7,18.7 c 0.4,-0.4 0.4,-1 0,-1.4 -0.4,-0.4 -1,-0.4 -1.4,0 z"
   id="path12805" />
	<path
   d="m 30.7,1.3 c -0.4,-0.4 -1,-0.4 -1.4,0 L 26.5,4.1 C 25.5,3.4 24.3,3 23,3 21.4,3 19.9,3.6 18.8,4.7 l -3.5,3.5 c -0.4,0.4 -0.4,1 0,1.4 l 7,7 c 0.2,0.2 0.5,0.3 0.7,0.3 0.2,0 0.5,-0.1 0.7,-0.3 l 3.5,-3.5 C 28.4,12.1 29,10.6 29,9 29,7.7 28.6,6.6 27.9,5.5 l 2.8,-2.8 c 0.4,-0.4 0.4,-1 0,-1.4 z"
   id="path12807" />
</g></svg>
