<?xml version="1.0" encoding="UTF-8" standalone="no"?>
<!-- Generator: Adobe Illustrator 15.1.0, SVG Export Plug-In . SVG Version: 6.00 Build 0)  -->

<svg
   version="1.1"
   id="Layer_2"
   x="0px"
   y="0px"
   width="283.465px"
   height="283.465px"
   viewBox="0 0 283.465 283.465"
   enable-background="new 0 0 283.465 283.465"
   xml:space="preserve"
   sodipodi:docname="produce-watermelon.svg"
   inkscape:version="1.2.2 (b0a8486541, 2022-12-01)"
   xmlns:inkscape="http://www.inkscape.org/namespaces/inkscape"
   xmlns:sodipodi="http://sodipodi.sourceforge.net/DTD/sodipodi-0.dtd"
   xmlns="http://www.w3.org/2000/svg"
   xmlns:svg="http://www.w3.org/2000/svg"><defs
   id="defs9" /><sodipodi:namedview
   id="namedview7"
   pagecolor="#ffffff"
   bordercolor="#000000"
   borderopacity="0.25"
   inkscape:showpageshadow="2"
   inkscape:pageopacity="0.0"
   inkscape:pagecheckerboard="0"
   inkscape:deskcolor="#d1d1d1"
   showgrid="false"
   inkscape:zoom="2.9633288"
   inkscape:cx="98.031645"
   inkscape:cy="141.7325"
   inkscape:window-width="1920"
   inkscape:window-height="1015"
   inkscape:window-x="0"
   inkscape:window-y="0"
   inkscape:window-maximized="1"
   inkscape:current-layer="Layer_2" />
<g
   id="g4"
   transform="matrix(0.99998653,0,0,0.92070008,0.00359796,11.241215)">
	<path
   d="m 276.143,145.484 c -0.074,-0.132 -0.168,-0.245 -0.268,-0.351 -0.029,-0.03 -0.063,-0.059 -0.094,-0.086 -0.08,-0.072 -0.164,-0.137 -0.254,-0.193 -0.033,-0.021 -0.064,-0.043 -0.1,-0.063 -0.123,-0.065 -0.252,-0.121 -0.389,-0.158 -0.014,-0.004 -0.023,-0.004 -0.035,-0.006 -0.125,-0.031 -0.252,-0.047 -0.383,-0.049 -0.018,-0.002 -0.033,-0.009 -0.053,-0.009 -0.023,0 -0.049,0.009 -0.072,0.011 -0.102,0.004 -0.199,0.016 -0.299,0.037 -0.041,0.01 -0.082,0.016 -0.123,0.027 -0.135,0.039 -0.27,0.088 -0.396,0.16 l -0.037,0.021 c -1.445,0.904 -3.039,1.549 -4.707,1.901 -0.203,0.043 -0.408,0.06 -0.611,0.063 -0.053,0 -0.105,0.002 -0.156,0 -0.121,-0.004 -0.242,-0.015 -0.361,-0.031 -0.051,-0.006 -0.104,-0.012 -0.154,-0.021 -0.168,-0.03 -0.336,-0.071 -0.498,-0.129 -0.188,-0.067 -0.357,-0.177 -0.496,-0.319 -0.125,-0.142 -0.229,-0.302 -0.307,-0.474 -0.244,-0.495 -0.551,-1.438 -0.939,-2.428 -0.82,-2.12 -2.037,-4.063 -3.586,-5.731 -0.748,-0.83 -1.557,-1.604 -2.416,-2.318 -0.896,-0.731 -1.85,-1.387 -2.854,-1.961 -1.061,-0.59 -2.178,-1.065 -3.338,-1.418 -0.332,-0.101 -0.666,-0.187 -1.004,-0.264 -0.107,-0.025 -0.217,-0.043 -0.324,-0.064 -0.232,-0.049 -0.465,-0.092 -0.699,-0.129 -0.125,-0.021 -0.252,-0.037 -0.379,-0.053 -0.219,-0.029 -0.439,-0.054 -0.658,-0.072 -0.129,-0.012 -0.26,-0.021 -0.393,-0.029 -0.223,-0.014 -0.443,-0.021 -0.668,-0.023 -0.082,-0.002 -0.166,-0.01 -0.248,-0.01 -0.031,0 -0.064,0.005 -0.094,0.005 -0.451,0.002 -0.9,0.026 -1.352,0.069 -0.088,0.009 -0.178,0.02 -0.268,0.029 -0.463,0.054 -0.926,0.121 -1.387,0.215 -0.697,0.15 -1.385,0.348 -2.063,0.568 -0.031,-0.25 -0.055,-0.504 -0.088,-0.754 -0.393,-2.955 -0.963,-5.919 -1.695,-8.82 -1.889,-7.36 -4.781,-14.422 -8.598,-20.982 -1.707,-2.948 -3.6,-5.825 -5.633,-8.566 -6.443,-8.586 -14.146,-16.095 -22.883,-22.306 -4.451,-3.188 -9.165,-6.099 -14.007,-8.647 -19.333,-10.201 -41.845,-15.592 -65.099,-15.592 -25.23,0 -49.322,6.27 -69.664,18.129 -4.955,2.877 -9.732,6.152 -14.19,9.726 -7.011,5.573 -13.254,12.062 -18.563,19.29 -2.251,3.082 -4.324,6.34 -6.156,9.677 -3.264,5.91 -5.787,12.22 -7.504,18.761 -1.667,6.402 -2.515,13.004 -2.517,19.617 -0.001,3.061 0.184,6.15 0.549,9.182 0.401,3.401 1.035,6.81 1.887,10.137 1.717,6.633 4.263,13.035 7.564,19.025 1.854,3.377 3.946,6.666 6.231,9.788 6.097,8.257 13.376,15.533 21.62,21.618 3.254,2.428 6.676,4.71 10.166,6.782 20.533,12.209 44.938,18.661 70.576,18.661 22.494,0 44.391,-5.072 63.322,-14.668 5.721,-2.896 11.248,-6.276 16.42,-10.036 8.209,-5.925 15.494,-13.005 21.662,-21.058 2.297,-3.031 4.426,-6.24 6.324,-9.533 3.73,-6.444 6.564,-13.366 8.432,-20.584 1.611,-6.305 2.434,-12.801 2.438,-19.312 0,-0.387 -0.012,-0.776 -0.018,-1.164 0.994,-0.719 2.084,-1.301 3.244,-1.708 0.289,-0.1 0.582,-0.176 0.879,-0.242 0.07,-0.016 0.141,-0.031 0.211,-0.045 0.295,-0.057 0.592,-0.102 0.889,-0.125 0.029,-0.002 0.059,-0.002 0.086,-0.003 0.273,-0.019 0.547,-0.021 0.82,-0.01 0.08,0.002 0.162,0.005 0.244,0.01 0.303,0.021 0.605,0.052 0.906,0.104 0.719,0.131 1.422,0.337 2.098,0.617 0.721,0.313 1.414,0.683 2.076,1.105 0.686,0.453 1.34,0.954 1.957,1.499 0.605,0.524 1.166,1.103 1.672,1.724 0.504,0.641 0.947,1.325 1.326,2.047 0.424,0.77 0.77,1.662 1.52,2.836 0.432,0.654 0.979,1.226 1.617,1.681 0.633,0.446 1.346,0.769 2.1,0.946 0.309,0.068 0.619,0.115 0.932,0.147 0.104,0.011 0.205,0.011 0.309,0.019 0.162,0.01 0.324,0.025 0.486,0.025 0.041,0 0.082,-0.008 0.123,-0.009 0.24,-0.004 0.479,-0.026 0.719,-0.052 0.117,-0.014 0.234,-0.018 0.352,-0.035 0.354,-0.055 0.703,-0.13 1.051,-0.232 2.084,-0.66 4.031,-1.687 5.754,-3.031 0.75,-0.536 0.971,-1.554 0.516,-2.356 z m -47.768,33.244 c -1.781,3.085 -3.775,6.089 -5.906,8.902 -1.096,1.43 -2.238,2.814 -3.406,4.179 -2.012,-0.14 -4.051,-0.296 -6.023,-0.528 -0.033,-0.004 -0.066,-0.009 -0.102,-0.014 -1.047,-0.161 -2.125,-0.072 -3.131,0.254 -3.846,1.232 -7.906,1.654 -11.9,1.248 -0.43,-0.042 -0.946,-0.063 -1.609,-0.063 -0.516,0 -1.041,0.012 -1.568,0.023 -0.57,0.012 -1.144,0.023 -1.705,0.023 h -0.282 c -1.661,-0.016 -3.312,-0.043 -4.954,-0.082 -0.598,-0.013 -1.23,-0.058 -1.859,-0.103 -1.076,-0.079 -2.117,-0.131 -2.619,-0.031 -2.83,0.509 -5.614,0.485 -8.336,-0.032 -0.867,-0.158 -1.808,-0.188 -2.715,-0.078 -1.298,0.346 -2.578,0.515 -3.908,0.515 -1.65,0 -3.187,-0.265 -4.672,-0.519 -1.017,-0.17 -2.156,-0.336 -3.275,-0.336 -0.979,0 -1.838,0.125 -2.629,0.383 -2.047,0.807 -4.196,1.343 -6.389,1.595 -0.053,0.006 -0.104,0.011 -0.154,0.013 -3.818,0.234 -7.707,0.28 -11.467,0.325 -1.263,0.015 -2.522,0.028 -3.78,0.051 -0.017,0.001 -0.034,0.001 -0.052,0.001 -1.139,0 -2.137,-0.658 -2.611,-1.631 -0.487,-0.006 -0.977,-0.016 -1.467,-0.021 -0.938,-0.016 -1.877,-0.03 -2.803,-0.03 -1.992,0 -3.436,0.073 -4.676,0.239 -0.023,0.004 -0.048,0.006 -0.072,0.01 -4.047,0.438 -8.188,0.402 -12.228,-0.102 l -0.063,-0.008 c -1.065,-0.104 -2.168,-0.209 -3.164,-0.209 -0.996,0 -1.772,0.105 -2.377,0.322 -0.162,0.059 -0.328,0.102 -0.496,0.13 -1.235,0.211 -2.52,0.163 -3.739,-0.138 -0.038,-0.008 -0.075,-0.018 -0.112,-0.028 -2.007,-0.58 -4.165,-0.585 -6.174,-0.019 -1.544,0.453 -3.216,0.679 -5.082,0.679 -1.953,0 -3.926,-0.247 -5.598,-0.489 -1.434,-0.207 -2.983,-0.259 -4.625,-0.313 -0.814,-0.026 -1.631,-0.055 -2.44,-0.1 -1.353,-0.008 -2.714,-0.107 -4.048,-0.3 -0.042,-0.006 -0.083,-0.013 -0.124,-0.021 -2.851,-0.537 -5.794,-0.699 -8.687,-0.482 -0.035,0.003 -0.068,0.005 -0.103,0.007 -2.126,0.086 -4.272,0.005 -6.385,-0.241 -1.435,-0.183 -2.89,-0.363 -4.142,-0.363 -0.723,0 -1.328,0.059 -1.85,0.182 -0.066,0.016 -0.135,0.027 -0.203,0.04 -0.826,0.132 -1.681,0.146 -2.512,0.032 l -1.609,-0.206 c -2.758,-0.354 -5.609,-0.722 -8.425,-1.179 -0.05,-0.01 -0.099,-0.02 -0.147,-0.029 -1.035,-0.223 -2.119,-0.205 -3.14,0.055 -1.611,0.482 -3.327,0.741 -5.183,0.79 -1.253,-1.498 -2.473,-3.024 -3.635,-4.599 -2.133,-2.914 -4.093,-5.992 -5.831,-9.16 -0.306,-0.555 -0.599,-1.116 -0.892,-1.68 0.912,0.238 1.879,0.519 2.804,0.797 2.524,0.762 3.845,1.103 5.002,1.102 0.91,0 1.97,-0.214 3.493,-0.583 2.561,-0.594 5.164,-0.493 7.614,0.257 0.735,0.221 1.511,0.396 2.286,0.52 0.771,0.102 1.443,0.213 2.045,0.314 0.803,0.133 1.436,0.238 1.875,0.238 0.271,0 0.508,0 1.109,-0.462 0.896,-0.677 2.041,-1.013 3.42,-1.013 0.934,0 1.974,0.156 3.009,0.453 0.043,0.012 0.086,0.024 0.128,0.039 0.842,0.282 1.764,0.285 2.604,0.004 3.25,-1.101 7.472,-1.131 12.521,-0.071 2.39,0.497 4.383,0.829 6.326,0.829 1.103,0 2.139,-0.106 3.173,-0.326 0.721,-0.153 1.592,-0.229 2.666,-0.229 1.186,0 2.448,0.09 3.563,0.168 l 0.17,0.012 c 0.592,0.043 1.088,0.064 1.522,0.064 1.007,0 1.729,-0.115 2.149,-0.343 1.799,-0.956 4.144,-1.155 6.859,-0.603 1.68,0.342 3.68,0.688 5.734,0.688 1.104,0 2.159,-0.097 3.223,-0.297 1.248,-0.237 3.01,-0.087 4.649,0.095 0.56,0.063 1.116,0.124 1.637,0.16 0.078,0.006 0.155,0.014 0.231,0.025 0.809,0.121 1.63,0.188 2.445,0.199 1.285,-0.137 2.594,-0.205 3.897,-0.205 5.137,0 9.67,1.047 13.517,2.025 2.693,0.691 5.084,0.584 6.342,-0.259 2.072,-1.394 6.096,-1.464 6.881,-1.464 0.775,0 1.492,0.044 2.131,0.133 0.811,0.125 1.477,0.118 2.177,0.008 1.106,-0.348 2.415,-0.523 3.894,-0.523 1.643,0 3.416,0.227 4.865,0.619 0.83,0.225 1.398,0.326 1.84,0.326 0.377,0 0.793,-0.068 1.604,-0.4 1.059,-0.452 2.221,-0.717 3.415,-0.766 0.073,-0.004 0.147,-0.004 0.221,-0.002 2.079,0.072 4.159,0.186 6.171,0.293 1.526,0.084 3.053,0.168 4.584,0.231 0.543,0.022 1.092,0.028 1.641,0.028 l 1.984,-0.008 c 0.258,0 0.514,0.002 0.771,0.006 1.181,-0.043 2.371,0.017 3.541,0.182 0.105,0.016 0.21,0.035 0.313,0.063 1.355,0.346 2.016,0.463 2.611,0.463 0.662,0 1.454,-0.162 2.82,-0.58 1.947,-0.592 4.277,-1.195 6.822,-1.195 0.879,0 1.76,0.072 2.616,0.214 1.649,0.299 3.249,0.72 4.792,1.258 1.697,0.572 2.639,0.779 3.563,0.779 0.965,0 2.135,-0.218 4.309,-0.802 2.615,-0.78 5.436,-0.824 8.074,-0.123 1.057,0.255 2.197,0.455 3.33,0.582 0.078,0.01 0.158,0.021 0.236,0.037 1.207,0.234 2.484,0.047 3.568,-0.525 1.008,-0.576 2.125,-0.928 3.271,-1.057 -0.32,0.593 -0.638,1.18 -0.974,1.761 z m -26.373,28.793 c -4.923,3.579 -10.181,6.793 -15.629,9.552 -3.415,1.73 -6.934,3.309 -10.537,4.729 -2.13,0.457 -4.354,0.49 -6.494,0.092 -0.966,-0.143 -1.959,-0.133 -2.92,0.029 -1.842,0.498 -3.806,0.521 -5.656,0.064 -0.067,-0.018 -0.135,-0.036 -0.201,-0.059 -1.948,-0.631 -4.135,-0.498 -5.991,0.365 -1.808,0.864 -3.854,1.33 -5.892,1.33 -1.354,0 -2.696,-0.199 -3.992,-0.594 -0.76,-0.119 -1.539,-0.154 -2.313,-0.107 -0.101,0.006 -0.201,0.008 -0.303,0.002 -1.208,-0.049 -2.416,-0.101 -3.632,-0.145 -1.24,-0.04 -2.511,-0.115 -3.737,-0.189 -1.813,-0.109 -3.523,-0.213 -5.197,-0.213 -0.791,0 -1.5,0.021 -2.166,0.07 -3.32,0.212 -6.604,0.133 -9.856,-0.229 l -0.435,-0.047 c -0.815,-0.09 -1.586,-0.172 -2.272,-0.172 -0.745,0 -1.106,0.101 -1.281,0.186 -0.241,0.119 -0.498,0.203 -0.762,0.251 -1.104,0.2 -2.251,0.121 -3.316,-0.229 -0.053,-0.017 -0.104,-0.035 -0.157,-0.056 -1.514,-0.599 -3.215,-0.614 -4.738,-0.052 -1.188,0.449 -2.477,0.671 -3.916,0.671 -1.801,0 -3.643,-0.354 -5.375,-0.722 -1.271,-0.291 -2.523,-0.434 -3.772,-0.434 l -0.228,0.002 c -0.217,0.01 -0.5,0.014 -0.783,0.014 -1.748,0 -3.499,-0.194 -5.203,-0.578 -1.301,-0.266 -2.693,-0.412 -4.079,-0.424 l -0.892,0.01 c -0.458,0.004 -0.915,0.009 -1.372,0.009 -1.966,0 -4.14,-0.084 -6.707,-0.688 -0.261,-0.049 -0.53,-0.053 -0.791,-0.013 -0.031,0.005 -0.063,0.011 -0.095,0.015 -0.051,0.006 -0.101,0.008 -0.15,0.015 -4.516,-1.986 -8.893,-4.214 -13.09,-6.71 -3.317,-1.971 -6.567,-4.139 -9.682,-6.461 -0.674,-0.498 -1.332,-1.016 -1.992,-1.528 0.6,-0.588 1.433,-0.899 2.299,-0.823 0.508,0.047 1.049,0.064 1.589,0.086 1.478,0.055 3.004,0.111 4.356,0.596 2.387,0.845 4.436,1.117 6.586,1.266 0.568,-0.568 1.539,-1.156 3.135,-1.156 0.895,0 1.947,0.172 3.216,0.526 0.741,0.202 1.106,0.246 1.278,0.246 0.007,-0.001 0.012,-0.001 0.015,-0.001 2.591,-1.12 5.899,-1.172 10.896,-0.148 0.549,0.114 1.088,0.242 1.625,0.369 0.871,0.206 1.692,0.4 2.467,0.51 0.037,0.004 0.072,0.01 0.109,0.016 0.873,0.156 1.777,0.186 2.664,0.089 2.469,-0.454 5.026,-0.513 7.512,-0.177 0.365,0.039 0.699,0.061 0.994,0.061 0.828,0 1.137,-0.156 1.211,-0.205 1.799,-1.137 4.271,-1.251 7.426,-0.363 1.964,0.562 4.023,0.668 6.014,0.319 0.502,-0.078 0.98,-0.11 1.52,-0.11 0.916,0 1.851,0.096 2.754,0.189 0.455,0.047 0.904,0.094 1.338,0.124 0.101,0.007 0.201,0.021 0.302,0.038 0.759,0.134 1.533,0.203 2.303,0.203 2.876,-0.33 5.812,-0.174 8.634,0.457 1.491,0.275 2.939,0.598 4.342,0.908 0.574,0.127 1.147,0.254 1.722,0.379 2.634,0.563 4.21,0.492 5.577,-0.258 0.047,-0.027 0.095,-0.052 0.143,-0.074 2.402,-1.153 5.184,-1.549 7.811,-1.112 0.313,0.048 0.761,0.054 1.154,-0.009 2.736,-0.6 5.612,-0.524 8.313,0.216 0.58,0.142 1.012,0.21 1.317,0.21 0.269,0 0.319,-0.044 0.377,-0.094 0.129,-0.111 0.266,-0.211 0.41,-0.297 0.838,-0.502 1.795,-0.775 2.77,-0.793 0.054,-0.002 0.107,0 0.158,0.002 3.216,0.123 6.445,0.287 9.183,0.432 0.128,0.007 0.257,0.021 0.382,0.046 0.533,0.101 1.077,0.166 1.62,0.196 0.937,-0.098 1.925,-0.188 2.919,-0.188 1.465,0 2.708,0.197 3.866,0.617 0.567,-0.073 1.674,-0.321 2.312,-0.466 0.428,-0.098 0.84,-0.188 1.209,-0.266 0.347,-0.072 0.771,-0.207 1.217,-0.353 0.926,-0.296 1.973,-0.632 3.101,-0.646 1.976,0.019 3.896,0.225 5.772,0.611 0.053,0.012 0.104,0.023 0.154,0.037 0.973,0.258 1.924,0.617 2.83,1.068 0.567,0.211 1.022,0.301 1.5,0.301 0.661,0 1.479,-0.18 2.568,-0.563 1.088,-0.397 2.262,-0.701 3.451,-0.887 0.232,-0.039 0.465,-0.037 0.693,-0.02 -0.504,0.382 -1,0.767 -1.51,1.135 z m 31.734,-44.19 c -1.9,0.391 -3.887,0.389 -5.781,-0.009 -0.66,-0.124 -1.621,-0.188 -2.549,-0.251 -0.416,-0.027 -0.83,-0.057 -1.234,-0.09 -0.451,-0.034 -0.926,-0.063 -1.402,-0.089 -1.084,-0.063 -2.205,-0.128 -3.271,-0.29 -0.029,-0.006 -0.059,-0.01 -0.084,-0.016 -1.066,-0.193 -2.176,-0.127 -3.211,0.193 -2.809,0.85 -5.852,1.26 -9.32,1.26 -1.119,0 -2.275,-0.041 -3.537,-0.125 -3.58,-0.23 -7.379,-0.287 -11.054,-0.342 -1.683,-0.023 -3.364,-0.049 -5.036,-0.089 -0.08,0 -0.171,0.006 -0.262,0.019 -1.139,0.224 -2.313,0.33 -3.585,0.33 -1.489,0 -2.905,-0.146 -4.274,-0.291 -0.373,-0.037 -0.748,-0.078 -1.125,-0.113 -1.437,-0.061 -2.884,-0.043 -4.32,0.051 -0.043,0.003 -0.086,0.005 -0.129,0.006 -0.519,0.012 -1.066,0.046 -1.614,0.08 -0.742,0.046 -1.511,0.095 -2.252,0.095 -0.763,0 -1.404,-0.053 -1.968,-0.159 -1.732,-0.334 -3.272,-0.496 -4.709,-0.496 -1.908,0 -3.729,0.295 -5.563,0.896 -2.228,0.701 -4.506,1.051 -6.806,1.051 -1.016,0 -2.037,-0.068 -3.043,-0.205 -1.418,-0.182 -2.971,-0.264 -4.613,-0.352 -0.604,-0.031 -1.206,-0.064 -1.805,-0.102 -0.452,-0.025 -0.916,-0.058 -1.381,-0.088 -1.168,-0.076 -2.27,-0.148 -3.375,-0.168 -1.373,-0.021 -2.76,-0.057 -4.146,-0.092 -2.189,-0.057 -4.456,-0.111 -6.646,-0.111 -1.597,0 -3.013,0.029 -4.328,0.092 -3.157,0.199 -6.498,0.221 -9.746,0.05 -0.77,-0.05 -1.525,-0.121 -2.289,-0.194 -1.25,-0.119 -2.43,-0.232 -3.561,-0.232 -1.291,0 -2.277,0.147 -3.104,0.469 -0.186,0.07 -0.376,0.123 -0.571,0.156 -1.034,0.172 -2.106,0.146 -3.129,-0.08 -0.044,-0.01 -0.089,-0.021 -0.133,-0.031 -2.74,-0.737 -5.671,-0.706 -8.394,0.092 -0.045,0.014 -0.092,0.025 -0.139,0.036 -3.223,0.772 -6.619,0.827 -9.865,0.159 -2.758,-0.547 -5.671,-0.67 -8.5,-0.352 -0.039,0.004 -0.078,0.008 -0.115,0.01 -1.668,0.121 -3.361,0.019 -5,-0.31 -2.429,-0.407 -4.926,-0.534 -7.385,-0.372 -0.025,0.001 -0.051,0.004 -0.076,0.004 -2.674,0.105 -5.623,0.092 -8.689,-0.044 -0.813,-0.038 -1.604,-0.11 -2.365,-0.18 -0.998,-0.093 -1.939,-0.179 -2.82,-0.179 -0.875,0 -1.56,0.086 -2.154,0.269 -0.191,0.06 -0.391,0.099 -0.59,0.117 -0.842,0.077 -1.692,0.043 -2.525,-0.099 -0.82,-0.103 -1.635,-0.217 -2.449,-0.334 -1.307,-0.188 -2.541,-0.362 -3.798,-0.478 l -0.809,-0.073 c -1.407,-0.129 -2.735,-0.25 -3.99,-0.25 -1.391,0 -2.462,0.15 -3.371,0.475 -0.037,0.013 -0.073,0.023 -0.109,0.035 -2.607,0.812 -5.369,1.084 -8.089,0.797 -0.439,-0.034 -0.883,-0.064 -1.323,-0.098 -0.383,-1.219 -0.741,-2.443 -1.062,-3.679 -0.786,-3.075 -1.374,-6.231 -1.748,-9.394 -0.093,-0.77 -0.17,-1.541 -0.236,-2.315 1.152,0.276 2.271,0.675 3.335,1.206 0.034,0.018 0.068,0.035 0.103,0.054 0.551,0.304 1.628,0.609 2.99,0.731 0.265,-0.846 0.907,-1.538 1.762,-1.856 0.276,-0.103 0.563,-0.204 0.837,-0.3 0.884,-0.303 1.857,-0.164 2.62,0.373 0.221,0.154 0.416,0.339 0.583,0.544 0.441,0.001 0.96,-0.021 1.498,-0.044 0.059,-0.002 0.186,-0.012 0.244,-0.005 1.557,0.026 3.125,0.181 4.662,0.452 2.103,0.267 4.017,0.533 5.851,0.816 0.053,0.008 0.105,0.02 0.16,0.029 1.017,0.217 2.099,0.029 2.984,-0.514 0.072,-0.045 0.147,-0.088 0.226,-0.125 1.749,-0.871 4.19,-0.973 6.964,-0.342 0.053,0.012 0.105,0.025 0.158,0.041 0.688,0.197 1.429,0.189 2.113,-0.021 2.105,-0.696 4.522,-1.059 7.127,-1.059 1.832,0 3.83,0.18 5.938,0.533 0.043,0.008 0.087,0.016 0.13,0.025 1.354,0.292 2.741,0.518 4.121,0.671 1.517,0.136 3.267,0.135 4.917,-0.028 2.686,-0.449 5.448,-0.574 8.164,-0.365 0.061,0.006 0.123,0.013 0.184,0.021 1.629,0.229 3.295,0.06 4.84,-0.494 2.055,-0.87 4.767,-0.979 7.844,-0.338 2.754,0.616 5.527,0.658 8.222,0.155 1.315,-0.256 2.726,-0.311 4.089,-0.153 0.078,0.009 0.156,0.021 0.234,0.037 1.622,0.323 3.309,0.369 4.891,0.369 0.498,0 0.997,-0.007 1.495,-0.011 1.095,-0.012 2.188,-0.02 3.279,0.016 4.358,0.21 8.696,0.714 12.94,1.501 2.08,0.353 3.64,0.513 5.012,0.513 1.777,0 3.256,-0.275 4.654,-0.869 2.232,-0.945 5.25,-1.254 8.686,-0.906 0.039,0.004 0.079,0.01 0.119,0.016 0.496,0.072 1.001,0.082 1.496,0.032 1.363,-0.322 2.748,-0.479 4.226,-0.479 2.034,0 3.955,0.307 5.567,0.605 0.928,0.173 1.801,0.336 2.479,0.336 0.384,0 0.64,-0.051 0.761,-0.148 0.225,-0.181 0.475,-0.326 0.74,-0.435 1.09,-0.438 2.247,-0.636 3.432,-0.577 3.412,0.139 6.881,0.335 10.235,0.523 l 1.022,0.059 c 0.089,0.005 0.175,0.016 0.261,0.027 0.88,0.129 1.772,0.209 2.659,0.234 1.042,-0.08 2.096,-0.156 3.119,-0.156 1.826,0 3.308,0.25 4.611,0.787 0.432,0.047 0.867,0.037 1.295,-0.035 1.278,-0.196 2.604,-0.469 3.979,-0.815 2.37,-0.612 4.236,-0.888 6.039,-0.888 1.822,0 3.643,0.279 5.896,0.904 0.629,0.176 1.23,0.359 1.832,0.545 0.342,0.105 0.682,0.211 1.023,0.313 0.037,0.012 0.076,0.023 0.113,0.036 2.309,0.789 4.84,0.808 7.158,0.052 3.012,-0.966 6.25,-1.011 9.268,-0.146 0.977,0.219 2.148,0.383 3.285,0.541 l 0.633,0.088 c 0.553,0.078 1.066,0.119 1.535,0.119 1.27,0 1.877,-0.285 2.125,-0.457 0.063,-0.041 0.123,-0.08 0.188,-0.116 1.797,-1.037 3.979,-1.33 5.994,-0.837 -0.359,3.679 -0.996,7.328 -1.91,10.906 -0.313,1.199 -0.66,2.389 -1.027,3.569 -0.492,0.045 -0.972,0.096 -1.453,0.17 z M 22.204,106.157 c 1.715,-3.121 3.651,-6.166 5.747,-9.033 0.685,-0.932 1.388,-1.847 2.104,-2.75 0.316,0.037 0.724,0.065 1.229,0.065 0.658,0 1.324,-0.05 1.917,-0.14 0.46,-0.588 1.144,-0.996 1.934,-1.094 0.369,-0.045 0.739,-0.095 1.109,-0.145 0.775,-0.104 1.578,-0.211 2.387,-0.286 1.023,-0.151 2.075,-0.159 3.098,-0.024 0.5,0.066 0.971,0.26 1.369,0.561 0.459,0.146 1.707,0.193 2.467,0.221 0.748,0.028 1.523,0.057 2.27,0.145 0.049,0.006 0.098,0.013 0.145,0.021 0.8,0.134 1.627,-0.032 2.31,-0.463 1.14,-0.802 2.64,-1.226 4.345,-1.226 1.012,0 1.868,0.145 2.407,0.266 0.779,0.168 1.693,0.113 2.494,-0.182 0.048,-0.018 0.097,-0.034 0.146,-0.049 4.166,-1.293 8.647,-1.498 12.916,-0.59 2.713,0.643 5.364,0.633 7.94,0.027 0.063,-0.016 0.126,-0.027 0.188,-0.038 2.061,-0.341 4.178,-0.451 6.267,-0.321 0.228,0.006 0.452,0.008 0.672,0.008 1.681,0 2.685,-0.164 3.465,-0.563 0.065,-0.033 0.132,-0.063 0.198,-0.092 2.092,-0.88 4.428,-1.078 6.641,-0.56 2.821,0.575 5.771,0.572 8.592,-0.008 1.15,-0.232 2.617,-0.121 3.975,0.02 0.535,0.056 1.039,0.107 1.488,0.127 0.043,0.002 0.084,0.006 0.125,0.01 1.115,0.098 2.244,0.125 3.363,0.082 0.955,-0.092 1.899,-0.135 2.885,-0.135 2.896,0 5.529,0.393 8.074,0.772 l 1.059,0.157 c 1.083,0.16 2.1,0.385 2.951,0.584 3.271,0.783 5.642,0.666 7.815,-0.369 0.044,-0.021 0.089,-0.041 0.134,-0.059 2.553,-1.063 5.369,-1.377 8.094,-0.908 0.455,0.07 1.059,0.08 1.6,0 2.926,-0.639 6,-0.566 8.893,0.21 0.81,0.181 1.401,0.267 1.858,0.267 0.505,0 0.731,-0.104 0.872,-0.195 0.152,-0.098 0.314,-0.18 0.482,-0.25 1.16,-0.469 2.398,-0.668 3.647,-0.59 2.128,0.123 4.287,0.291 6.375,0.453 1.272,0.1 2.548,0.199 3.823,0.289 0.686,0.051 1.387,0.063 2.13,0.074 0.567,0.01 1.134,0.02 1.7,0.045 0.263,0.012 0.566,0.012 0.874,0.012 1.213,0.006 2.358,0.01 3.341,0.416 0.71,0.301 1.361,0.438 2.072,0.438 0.877,0 1.779,-0.208 2.707,-0.439 2.771,-0.69 4.512,-1.041 6.332,-1.041 2.291,0 4.355,0.574 7.848,1.783 3.244,1.119 5.264,1.25 7.215,0.475 2.115,-0.842 4.727,-0.844 8.084,0.006 1.227,0.312 2.477,0.564 3.734,0.764 0.986,1.193 1.957,2.402 2.889,3.645 1.9,2.563 3.674,5.26 5.275,8.027 0.355,0.611 0.695,1.229 1.033,1.85 -0.768,0.045 -1.539,0.123 -2.299,0.271 -0.139,0.027 -0.279,0.044 -0.42,0.051 -0.361,0.021 -0.73,-0.004 -1.092,-0.063 -1.057,-0.131 -2.113,-0.258 -3.17,-0.383 -2.457,-0.291 -4.996,-0.592 -7.469,-0.963 -0.064,-0.01 -0.129,-0.021 -0.191,-0.035 -0.764,-0.168 -1.563,-0.143 -2.309,0.072 -3.938,1.182 -8.215,1.471 -12.326,0.816 -0.979,-0.137 -2.15,-0.145 -3.393,-0.154 -0.666,-0.006 -1.332,-0.012 -1.99,-0.037 -1.754,-0.074 -3.488,-0.162 -5.23,-0.256 -0.604,-0.033 -1.25,-0.094 -1.896,-0.154 -0.815,-0.08 -1.586,-0.152 -2.211,-0.152 -0.318,0 -0.504,0.02 -0.603,0.037 -0.028,0.005 -0.058,0.009 -0.086,0.013 -2.819,0.394 -5.724,0.31 -8.517,-0.246 -1.024,-0.179 -2.241,-0.216 -3.383,-0.067 -2.517,0.565 -5.166,0.506 -7.654,-0.166 -2.354,-0.582 -5.081,-0.519 -7.531,0.256 -2.768,0.865 -5.646,1.256 -8.527,1.166 -0.062,-0.002 -0.121,-0.006 -0.183,-0.01 -1.64,-0.156 -3.332,-0.242 -4.969,-0.326 -1.425,-0.072 -2.899,-0.147 -4.341,-0.269 -2.762,-0.226 -5.642,-0.327 -9.328,-0.327 -0.938,0 -1.879,0.006 -2.823,0.018 -0.04,0 -0.08,0 -0.12,-0.002 -1.759,-0.053 -3.533,-0.008 -5.281,0.134 -2.718,0.31 -5.496,0.362 -8.222,0.157 -0.688,-0.035 -1.449,-0.102 -2.215,-0.168 -1.17,-0.102 -2.276,-0.197 -3.361,-0.197 -1.459,0 -2.627,0.182 -3.677,0.57 -0.202,0.076 -0.411,0.127 -0.624,0.156 -1.078,0.146 -2.185,0.082 -3.237,-0.188 -2.128,-0.566 -4.31,-0.532 -6.367,0.063 -2.313,0.631 -4.619,0.932 -7.095,0.932 -1.515,0 -3.134,-0.108 -5.093,-0.342 -0.553,-0.066 -1.223,-0.1 -2.049,-0.1 -0.735,0 -1.493,0.023 -2.252,0.047 -0.797,0.024 -1.596,0.049 -2.372,0.051 -1.271,0.057 -2.558,0.026 -3.83,-0.092 -0.058,-0.006 -0.114,-0.013 -0.17,-0.021 -2.494,-0.383 -5.062,-0.436 -7.571,-0.152 l -0.451,0.043 c -1.804,0.17 -3.668,0.346 -5.543,0.346 -1.353,0 -2.568,-0.092 -3.717,-0.277 -1.477,-0.188 -2.992,-0.139 -4.453,0.145 -1.725,0.36 -3.617,0.422 -5.429,0.159 -0.878,-0.071 -1.742,-0.167 -2.604,-0.264 -1.57,-0.177 -3.054,-0.343 -4.584,-0.343 -1.959,0 -3.723,0.281 -5.548,0.883 -0.866,0.287 -1.861,0.354 -2.824,0.418 -0.347,0.023 -0.85,0.056 -1.092,0.094 -1.016,0.451 -1.998,0.661 -3.08,0.661 -0.465,0 -0.872,-0.038 -1.232,-0.072 -0.205,-0.019 -0.411,-0.041 -0.627,-0.047 -0.483,-0.013 -0.968,-0.032 -1.452,-0.05 0.327,-0.644 0.662,-1.277 1.009,-1.906 z M 45.465,78.929 c 4.235,-3.396 8.768,-6.502 13.48,-9.24 3.781,-2.205 7.703,-4.201 11.74,-5.996 0.769,-0.02 1.484,0.098 2.123,0.365 0.012,0.005 0.041,0.013 0.113,0.013 0.524,0 1.487,-0.339 1.893,-0.483 2.64,-1.025 5.503,-1.375 8.312,-1.01 0.091,0.01 0.181,0.026 0.269,0.047 1.053,0.237 2.127,0.422 3.197,0.545 1.213,0.107 2.45,0.057 3.651,-0.15 2.313,-0.557 4.694,-0.811 7.079,-0.75 0.136,0.005 0.225,0.007 0.314,0.007 0.701,0 1.392,-0.11 2.053,-0.332 2.508,-1.219 5.466,-1.464 8.141,-0.669 1.236,0.283 2.54,0.255 3.764,-0.082 1.393,-0.396 2.896,-0.547 4.383,-0.43 0.147,0.013 0.295,0.037 0.439,0.07 0.729,0.174 1.566,0.256 2.637,0.256 0.775,0 1.594,-0.043 2.459,-0.084 l 0.875,-0.043 c 0.342,-0.01 0.637,-0.015 0.933,-0.015 3.598,0 7.135,0.632 10.512,1.878 0.673,0.225 1.345,0.344 1.944,0.344 0.523,0 1.256,-0.09 1.777,-0.518 1.877,-1.548 5.182,-1.668 6.149,-1.668 0.928,0 1.778,0.087 2.533,0.258 0.081,0.016 0.366,0.031 0.579,-0.011 2.779,-0.966 5.857,-0.854 8.561,0.315 0.073,0.031 0.145,0.065 0.213,0.104 0.096,0.05 0.193,0.087 0.356,-0.002 0.995,-0.667 2.153,-1.061 3.354,-1.141 0.114,-0.008 0.232,-0.008 0.348,-0.002 2.045,0.109 4.107,0.313 6.104,0.51 0.726,0.072 1.451,0.143 2.181,0.21 0.478,0.044 0.957,0.083 1.438,0.122 0.756,0.062 1.514,0.123 2.271,0.203 1.225,0.033 2.445,0.209 3.633,0.521 0.152,0.04 0.302,0.094 0.445,0.157 0.549,0.246 1.17,0.297 1.75,0.146 0.026,-0.007 0.053,-0.016 0.077,-0.022 3.603,1.481 7.116,3.122 10.524,4.92 4.609,2.429 9.096,5.198 13.348,8.243 0.506,0.359 0.994,0.736 1.492,1.105 -0.047,0.004 -0.092,0.014 -0.139,0.016 -0.055,0.002 -0.109,0.002 -0.164,0 -0.193,0 -0.359,0.033 -0.518,0.096 -2.625,1.052 -5.986,1.324 -9.861,0.794 -0.817,-0.11 -1.676,-0.157 -2.584,-0.206 -0.588,-0.031 -1.174,-0.063 -1.76,-0.111 -0.947,-0.074 -1.91,-0.152 -2.873,-0.23 -1.199,-0.098 -2.397,-0.195 -3.595,-0.285 -0.083,-0.006 -0.165,-0.016 -0.247,-0.029 -0.865,-0.139 -1.752,-0.187 -2.63,-0.14 -0.856,0.165 -1.731,0.246 -2.665,0.246 -1.65,0 -3.281,-0.265 -4.68,-0.513 -0.025,-0.004 -0.051,-0.01 -0.073,-0.015 -0.897,-0.183 -1.828,-0.22 -2.737,-0.108 -2.281,0.447 -4.664,0.389 -6.922,-0.172 -1.119,-0.271 -2.302,-0.397 -3.477,-0.369 -1.229,0.132 -2.438,0.422 -3.592,0.865 -2.959,1.115 -6.201,1.188 -9.174,0.225 -0.423,-0.057 -0.853,-0.071 -1.281,-0.045 -0.092,0.006 -0.187,0.007 -0.277,0.004 -0.672,-0.021 -1.346,-0.038 -2.018,-0.053 -1.289,-0.029 -2.621,-0.061 -3.947,-0.141 -0.658,-0.037 -1.266,-0.167 -1.752,-0.271 -0.274,-0.06 -0.65,-0.139 -0.786,-0.139 -1.616,0.149 -3.251,0.178 -4.833,0.203 -2.346,0.04 -4.559,0.077 -6.702,0.499 -0.073,0.015 -0.146,0.026 -0.22,0.035 -1.418,0.169 -2.872,0.187 -4.299,0.051 -0.813,-0.036 -1.621,-0.09 -2.426,-0.144 -1.23,-0.079 -2.395,-0.155 -3.568,-0.176 -0.815,0.068 -1.637,0.186 -2.444,0.349 -1.077,0.224 -2.216,0.305 -3.339,0.231 -0.209,-0.014 -0.417,-0.049 -0.618,-0.107 -1.749,-0.503 -3.635,-0.436 -5.34,0.191 -0.046,0.017 -0.092,0.033 -0.14,0.047 -3.162,0.981 -6.541,1.22 -9.811,0.688 -1.732,-0.12 -3.492,-0.141 -5.23,-0.061 -1.586,0.113 -3.2,0.117 -4.787,0.014 -0.061,-0.004 -0.122,-0.01 -0.184,-0.018 -1.855,-0.24 -3.763,-0.23 -5.619,0.025 -0.039,0.006 -0.076,0.01 -0.115,0.014 -1.608,0.158 -3.162,0.207 -4.666,0.252 -0.959,0.031 -1.918,0.061 -2.883,0.119 -1.365,0.078 -2.734,0.213 -4.186,0.358 l -0.641,0.063 c -0.579,0.108 -1.168,0.188 -1.752,0.235 -0.125,0.011 -0.25,0.013 -0.375,0.007 L 59.361,78.84 c -2.212,-0.1 -4.497,-0.203 -6.608,-0.401 -0.033,-0.003 -0.068,-0.007 -0.101,-0.011 -0.812,-0.105 -1.638,-0.012 -2.403,0.271 -1.904,0.653 -3.811,1.118 -5.73,1.406 -0.146,0.021 -0.291,0.031 -0.434,0.031 -0.031,0 -0.063,-0.006 -0.093,-0.006 0.49,-0.398 0.975,-0.807 1.473,-1.201 z m -28.96,41.98 c 0.205,0.064 0.439,0.141 0.675,0.219 0.518,0.168 1.007,0.33 1.521,0.459 2.141,0.598 4.2,0.518 6.159,-0.146 0.051,-0.017 0.104,-0.033 0.155,-0.048 2.148,-0.596 3.626,-0.84 5.098,-0.84 1.509,0 2.918,0.258 4.569,0.644 1.432,0.33 2.914,0.519 4.396,0.558 0.905,0 1.784,-0.145 2.627,-0.426 2.37,-1.084 5.115,-1.343 7.646,-0.723 0.638,0.074 1.287,0.042 1.914,-0.091 4.477,-1.253 9.244,-1.437 13.803,-0.532 1.783,0.313 3.775,0.611 5.843,0.611 1.526,0 2.983,-0.164 4.452,-0.5 0.086,-0.02 0.173,-0.034 0.26,-0.047 1.786,-0.238 3.614,-0.289 5.409,-0.146 0.489,0.014 0.969,0.023 1.438,0.023 1.903,0 3.104,-0.18 4.017,-0.602 0.075,-0.035 0.151,-0.066 0.229,-0.095 2.152,-0.779 4.512,-0.906 6.737,-0.362 3.133,0.664 6.408,0.706 9.554,0.121 0.497,-0.086 0.997,-0.125 1.566,-0.125 0.852,0 1.734,0.087 2.59,0.171 0.615,0.062 1.195,0.118 1.721,0.14 1.211,0.047 2.521,0.07 4.234,0.07 1.693,-0.111 3.417,-0.123 5.113,-0.033 0.074,0.004 0.148,0.012 0.223,0.021 4.43,0.58 8.555,1.236 12.257,1.954 0.972,0.188 1.894,0.284 2.743,0.284 1.91,0 2.701,-0.479 2.896,-0.625 1.97,-1.469 8.18,-1.486 8.442,-1.486 0.644,0 1.2,0.025 1.656,0.077 0.88,0.093 1.854,0.06 2.769,-0.108 3.127,-0.564 6.348,-0.447 9.406,0.334 0.049,0.012 0.098,0.026 0.146,0.041 0.131,0.03 0.807,0.107 1.658,0.107 0.205,0 0.369,-0.006 0.494,-0.012 1.844,-0.971 3.948,-1.105 5.622,-1.105 0.65,0 1.313,0.021 1.974,0.044 0.593,0.021 1.182,0.041 1.756,0.041 h 0.111 c 0.006,0 0.082,0 0.088,0 1.588,0 3.187,0.14 4.75,0.415 0.031,0.005 0.061,0.012 0.09,0.018 2.236,0.469 4.559,0.588 6.828,0.348 0.067,-0.008 0.137,-0.012 0.205,-0.014 1.338,-0.049 2.67,0.149 3.94,0.582 0.976,0.334 2.006,0.389 2.993,0.164 0.031,-0.007 0.063,-0.014 0.094,-0.02 1.105,-0.215 2.129,-0.447 3.043,-0.694 3.639,-1.056 7.723,-1.054 11.457,0.062 0.654,0.179 1.244,0.371 1.816,0.559 0.422,0.139 0.844,0.277 1.285,0.404 1.939,0.566 3.043,0.775 4.092,0.775 0.959,0 2.014,-0.179 3.764,-0.635 2.775,-0.744 5.799,-0.753 8.615,-0.007 1.561,0.368 3.156,0.647 4.748,0.834 0.453,0.056 0.859,0.083 1.227,0.083 0.877,0 1.184,-0.154 1.186,-0.156 1.16,-0.849 2.592,-1.271 4.342,-1.271 0.068,0 0.143,0.005 0.213,0.007 0.395,1.267 0.77,2.539 1.1,3.825 0.68,2.685 1.207,5.43 1.57,8.164 0.012,0.101 0.021,0.203 0.033,0.304 0.016,0.134 0.031,0.269 0.049,0.401 0.082,0.668 0.283,1.305 0.58,1.892 -1.172,-0.043 -2.35,-0.015 -3.514,0.104 -2.049,0.348 -4.17,0.305 -6.203,-0.123 -1.209,-0.188 -2.439,-0.313 -3.66,-0.371 -0.035,-0.002 -0.068,-0.004 -0.104,-0.008 -0.488,-0.041 -0.99,-0.068 -1.494,-0.097 -1.137,-0.063 -2.311,-0.129 -3.418,-0.333 -1.193,-0.246 -2.164,-0.179 -3.162,0.125 -3.936,1.167 -8.064,1.484 -12.104,0.936 -0.877,-0.088 -1.771,-0.133 -2.66,-0.133 -0.037,0 -0.115,-0.002 -0.15,-0.002 -4.066,-0.152 -8.133,-0.306 -12.204,-0.436 -0.039,-0.001 -0.078,-0.003 -0.116,-0.006 -0.718,-0.053 -1.439,-0.039 -2.15,0.041 -2.979,0.447 -6.047,0.391 -9.008,-0.164 -1.127,-0.184 -2.465,-0.219 -3.717,-0.063 -2.6,0.482 -5.3,0.471 -7.895,-0.037 -1.44,-0.24 -2.909,-0.404 -4.364,-0.486 -1.849,-0.049 -3.673,0.264 -5.399,0.919 -0.047,0.018 -0.093,0.034 -0.14,0.049 -4.465,1.438 -7.542,1.435 -11.692,0.021 -0.072,-0.023 -0.147,-0.045 -0.227,-0.065 -3.232,0.663 -6.611,0.618 -9.827,-0.132 -0.626,-0.137 -1.31,-0.209 -1.992,-0.209 l -0.212,0.002 c -1.061,0.018 -2.121,0.021 -3.182,0.023 -2.762,0.006 -5.615,0.012 -8.086,0.313 -4.188,0.414 -8.283,0.428 -12.354,0.064 l -0.684,-0.043 c -1.07,-0.07 -2.177,-0.142 -3.224,-0.142 -1.483,0 -2.631,0.142 -3.615,0.446 -0.144,0.045 -0.289,0.078 -0.437,0.1 -1.185,0.174 -2.407,0.141 -3.581,-0.102 -2.625,-0.594 -5.205,-0.541 -7.695,0.104 -2.16,0.543 -4.36,0.815 -6.565,0.815 -1.771,0 -3.548,-0.178 -5.284,-0.525 -2.193,-0.402 -4.593,-0.463 -6.888,-0.15 -0.024,0.002 -0.05,0.006 -0.074,0.008 -1.589,0.175 -3.216,0.137 -4.795,-0.111 -2.949,-0.406 -6.103,-0.492 -9.157,-0.229 -0.027,0.002 -0.054,0.004 -0.08,0.004 l -0.47,0.029 c -1.667,0.098 -3.429,0.196 -5.112,0.127 -0.83,-0.037 -1.65,-0.094 -2.47,-0.15 -1.258,-0.088 -2.446,-0.172 -3.621,-0.172 -1.415,0 -2.583,0.123 -3.672,0.388 -0.079,0.019 -0.158,0.034 -0.237,0.047 -0.519,0.081 -1.054,0.09 -1.576,0.026 -1.006,-0.082 -2.021,-0.155 -3.035,-0.23 -2.645,-0.193 -5.376,-0.395 -7.956,-0.723 -1.301,-0.174 -2.546,-0.098 -3.765,0.205 -2.882,0.674 -5.798,1.063 -8.71,1.168 -0.035,0.002 -0.07,0.002 -0.105,0.002 -1.158,0 -2.317,-0.014 -3.473,-0.036 0.347,-4.054 1.028,-8.078 2.054,-12.015 0.249,-0.947 0.521,-1.887 0.806,-2.822 0.154,0.052 0.314,0.091 0.468,0.142 z"
   id="path2" />
</g>
</svg>
