<?xml version="1.0" encoding="UTF-8" standalone="no"?>
<!-- Generator: Adobe Illustrator 15.1.0, SVG Export Plug-In . SVG Version: 6.00 Build 0)  -->

<svg
   version="1.1"
   id="Layer_3"
   x="0px"
   y="0px"
   width="283.465px"
   height="283.465px"
   viewBox="0 0 283.465 283.465"
   enable-background="new 0 0 283.465 283.465"
   xml:space="preserve"
   sodipodi:docname="produce-pineapple.svg"
   inkscape:version="1.2.2 (b0a8486541, 2022-12-01)"
   xmlns:inkscape="http://www.inkscape.org/namespaces/inkscape"
   xmlns:sodipodi="http://sodipodi.sourceforge.net/DTD/sodipodi-0.dtd"
   xmlns="http://www.w3.org/2000/svg"
   xmlns:svg="http://www.w3.org/2000/svg"><defs
   id="defs29" /><sodipodi:namedview
   id="namedview27"
   pagecolor="#ffffff"
   bordercolor="#000000"
   borderopacity="0.25"
   inkscape:showpageshadow="2"
   inkscape:pageopacity="0.0"
   inkscape:pagecheckerboard="0"
   inkscape:deskcolor="#d1d1d1"
   showgrid="false"
   inkscape:zoom="2.9633288"
   inkscape:cx="98.031645"
   inkscape:cy="141.7325"
   inkscape:window-width="1920"
   inkscape:window-height="1015"
   inkscape:window-x="0"
   inkscape:window-y="0"
   inkscape:window-maximized="1"
   inkscape:current-layer="g24" />
<g
   id="g24">
	<path
   fill="none"
   d="M146.246,121.721l-4.427-0.698c0,0,0,0,0,0l-2.97,0.344c0.879,0.769,1.761,1.533,2.635,2.306   C143.067,123.015,144.659,122.373,146.246,121.721z"
   id="path2" />
	<path
   fill="none"
   d="M88.51,205.101c0,0.026-0.003,0.054-0.003,0.079c-0.053,2.053-0.021,4.039,0.077,5.973l0.003-0.779   L88.51,205.101z"
   id="path4" />
	<path
   fill="none"
   d="M129.443,125.456L129.443,125.456c-2.223,1.431-4.49,3.176-6.761,5.208l9.196-3.936L129.443,125.456z"
   id="path6" />
	<path
   fill="none"
   d="M95.321,207.185l-6.7-4.547l-0.035,7.735l0.021,1.438c-0.013-0.216-0.014-0.441-0.024-0.659l-0.007,1.503   C90.798,210.866,93.038,209.052,95.321,207.185z"
   id="path8" />
	<path
   d="M88.586,210.373l-0.003,0.779c0.011,0.218,0.011,0.443,0.024,0.659L88.586,210.373z"
   id="path10" />
	<path
   d="m 206.20225,203.85245 c -0.0743,-2.535 -0.25835,-4.957 -0.56127,-7.404 -0.003,-0.028 -0.007,-0.057 -0.0114,-0.085 -2.30908,-18.469 -11.34993,-38.354 -24.8146,-54.596 -12.96171,-15.635 -27.53291,-24.978 -38.97771,-24.993 -0.003,0 -0.007,0 -0.0103,0 -11.44594,0.015 -26.01715,9.358 -38.97885,24.993 -13.465819,16.243 -22.50552,36.131 -24.81117,54.573 0,0.004 -0.0023,0.008 -0.0023,0.012 -0.174896,1.114 -0.32007,2.149 -0.444669,3.165 -0.163465,1.366 -0.283491,2.754 -0.357793,4.13 -0.02172,0.398 0.07202,0.78 0.221763,1.145 -0.03429,1.979 -0.0069,3.917 0.114311,5.754 -0.05487,0.722 -0.0823,1.439 -0.0823,2.137 0,6.979 2.499978,14.829 7.227874,22.702 3.143548,5.66 7.338756,10.896 12.47017,15.563 13.084014,12.755 29.269294,20.583 44.416624,21.481 0.0766,0.005 0.15432,0.007 0.23205,0.007 0.0777,0 0.15432,-0.002 0.23205,-0.007 15.14733,-0.898 31.33374,-8.727 44.41662,-21.481 5.13027,-4.667 9.32662,-9.902 12.47017,-15.563 4.72904,-7.872 7.22673,-15.722 7.22673,-22.702 0,-0.705 -0.0263,-1.406 -0.0823,-2.136 0.13831,-2.14 0.17489,-4.391 0.10631,-6.695 z m -5.37604,-15.015 c -4.91194,2.402 -9.77815,4.94 -14.59293,7.612 -3.64537,-2.32 -7.30217,-4.625 -10.97155,-6.914 5.15428,-2.83 10.34513,-5.607 15.57257,-8.333 3.18584,1.908 6.3694,3.82 9.55295,5.734 0.15661,0.632 0.29607,1.267 0.43896,1.901 z m -58.53973,19.986 c 4.06261,2.387 8.10464,4.799 12.12724,7.236 -4.8525,3.257 -9.66841,6.606 -14.45918,10.009 l -12.70108,-7.542 c 4.95423,-3.302 9.96676,-6.536 15.03302,-9.703 z m -0.15775,-10.344 c -5.0914,-2.946 -10.21138,-5.855 -15.3588,-8.729 4.82849,-3.386 9.77357,-6.802 14.86041,-10.225 5.41947,3.19 10.81152,6.419 16.17041,9.687 -5.27202,3.025 -10.49945,6.114 -15.67202,9.267 z m 8.70935,5.1 c 5.13827,-3.091 10.32569,-6.119 15.55884,-9.086 3.71625,2.302 7.41649,4.622 11.10645,6.956 -5.0354,2.979 -9.99992,6.05 -14.89128,9.21 -3.90486,-2.385 -7.83029,-4.744 -11.77401,-7.08 z m -0.99794,-29.495 c 4.58958,-3.002 9.22832,-5.95 13.91392,-8.839 6.09505,3.509 12.15353,7.074 18.19943,10.665 -5.14513,2.718 -10.24225,5.484 -15.30394,8.302 -5.57265,-3.417 -11.17388,-6.791 -16.80941,-10.128 z m -8.59617,-5.042 c -4.72333,-2.74 -9.47523,-5.45 -14.25457,-8.132 4.69818,-2.798 9.42951,-5.557 14.19055,-8.275 4.61359,2.495 9.20203,5.03 13.76531,7.602 -4.6113,2.883 -9.17916,5.818 -13.70129,8.805 z m -8.20066,5.486 c -5.14285,3.487 -10.13709,6.961 -15.00559,10.391 -5.24229,-2.871 -10.50631,-5.711 -15.79204,-8.517 v 0 c 5.2903,-3.484 10.64577,-6.892 16.06296,-10.224 4.94051,2.749 9.85131,5.535 14.73467,8.35 z m -14.27285,20.884 c 4.96794,2.753 9.9096,5.542 14.82725,8.364 -5.00681,3.168 -9.95761,6.4 -14.8524,9.699 l -13.77332,-8.18 v 0 c 4.58958,-3.304 9.18945,-6.6 13.79847,-9.883 z m -8.09664,23.584 c -3.06239,2.134 -6.11106,4.315 -9.15173,6.524 -4.713034,-2.604 -9.512946,-5.105 -14.432884,-7.462 3.351593,-2.36 6.690613,-4.733 10.020488,-7.117 z m 8.46586,5.025 12.95256,7.691 c -3.03495,2.202 -6.06305,4.417 -9.082,6.65 -4.25693,-2.707 -8.56188,-5.37 -12.93998,-7.954 2.99951,-2.156 6.02189,-4.284 9.06942,-6.387 z m 21.38984,12.7 13.21662,7.852 c -3.37331,2.404 -6.75691,4.857 -10.13594,7.335 -4.14491,-2.78 -8.30354,-5.56 -12.50903,-8.317 3.13783,-2.315 6.28023,-4.602 9.42835,-6.87 z m 7.88859,-5.626 v 0 c 4.78963,-3.369 9.59068,-6.674 14.41003,-9.877 4.42269,2.741 8.83623,5.515 13.24863,8.348 -4.70961,2.9 -9.50152,6.08 -14.36545,9.422 z m 22.63698,-15.228 c -0.001,0.001 -0.001,0.001 0,0 v 0 c -0.001,0 -0.001,0 0,0 4.88107,-3.111 9.83988,-6.128 14.87298,-9.048 5.25716,3.375 8.61218,5.544 13.82133,8.974 -5.27545,2.497 -9.24661,5.594 -15.03188,8.743 -4.52671,-2.924 -9.08085,-5.815 -13.66243,-8.669 z m 26.663,-37.76 c 0.23663,0.676 0.46296,1.355 0.68816,2.035 -0.6973,-0.372 -1.39117,-0.756 -2.08961,-1.127 0.46411,-0.306 0.93621,-0.603 1.40145,-0.908 z m -12.74794,-25.281 c 3.49334,5.199 6.65632,10.813 9.32319,16.69 -1.02765,0.526 -2.05645,1.052 -3.07953,1.579 -6.23795,-3.72 -12.49989,-7.422 -18.80642,-11.077 4.14491,-2.453 8.3344,-4.849 12.56276,-7.192 z m -7.56852,-5.909 c -4.65702,2.612 -9.26489,5.29 -13.82475,8.029 -4.41812,-2.51 -8.86367,-4.992 -13.33665,-7.441 v -0.001 c 4.27523,-2.394 8.55845,-4.766 12.84625,-7.122 z m -20.53137,-22.043 c 0.007,0.004 0.0137,0.009 0.0194,0.013 l 0.16004,-0.059 c 2.32965,1.388 4.69589,3.033 7.06441,4.914 -0.1166,0.063 -0.24234,0.133 -0.37494,0.207 0.001,10e-4 0.002,0.002 0.003,0.003 -0.36466,0.2 -0.73159,0.399 -1.0951,0.599 l -9.43065,-4.307 z m -15.84577,17.671 c -4.35867,-2.313 -8.74592,-4.583 -13.16175,-6.81 l 13.77217,-5.156 11.4448,5.229 c -4.03174,2.229 -8.05091,4.476 -12.05522,6.737 z m 0.80703,-22.772 c 0,0 0,0 0,0 l 5.06055,0.698 c -1.81412,0.652 -3.63395,1.294 -5.44349,1.952 -0.99907,-0.773 -2.0073,-1.538 -3.01209,-2.306 z m -14.14596,4.433 v 0 l 2.78232,1.272 -10.51202,3.936 c 2.59714,-2.032 5.18857,-3.777 7.7297,-5.208 z m -22.67699,20.087 0.14403,-0.054 c 0,0 0,-0.001 10e-4,-0.001 l 11.44252,-4.283 c 5.16114,2.529 10.27998,5.118 15.35652,7.769 -4.67074,2.698 -9.31176,5.438 -13.92077,8.218 -5.14856,-2.821 -10.32685,-5.603 -15.53256,-8.343 0.009,-0.012 0.0194,-0.023 0.0286,-0.036 -0.0194,-0.01 -0.0389,-0.02 -0.0572,-0.03 0.83447,-1.103 1.67922,-2.185 2.5377,-3.24 z m -7.650822,10.557 c 4.018022,2.112 8.016622,4.251 11.995782,6.412 -5.43891,3.391 -10.812664,6.857 -16.118974,10.401 -1.299714,-0.678 -2.598285,-1.356 -3.904858,-2.036 2.329655,-5.161 5.037679,-10.124 8.02805,-14.777 z m -10.818378,21.654 c 0.371511,0.213 0.744164,0.424 1.115674,0.638 -0.613849,0.416 -1.205979,0.829 -1.815256,1.245 0.219477,-0.633 0.467531,-1.255 0.699582,-1.883 z m -3.967729,13.499 c 3.745966,-2.719 7.528512,-5.397 11.362498,-8.021 5.390899,2.842 10.760081,5.717 16.105251,8.624 -4.59758,3.284 -9.11629,6.532 -13.495535,9.686 l -14.302572,-8.492 c 0.110881,-0.6 0.205759,-1.2 0.330358,-1.797 z m -1.682655,13.927 c 0,-0.025 0.0034,-0.053 0.0034,-0.079 l 0.08802,5.272 0.04001,-7.735 7.658826,4.547 c -2.609716,1.867 -5.170279,3.682 -7.710266,5.471 l 0.008,-1.503 c -0.112025,-1.934 -0.148604,-3.921 -0.08802,-5.973 z m 7.606243,31.333 -0.720158,-1.232 c -1.542054,-2.563 -2.825764,-5.153 -3.873995,-7.732 3.293296,1.611 6.550011,3.279 9.765575,5.021 -1.727236,1.298 -3.451044,2.616 -5.171422,3.943 z m 11.200176,13.642 c -2.113607,-1.919 -4.127764,-4.011 -6.010464,-6.273 2.840625,-2.202 5.686964,-4.369 8.545879,-6.498 4.40782,2.568 8.76307,5.229 13.08288,7.956 -3.8237,2.86 -7.64054,5.732 -11.45281,8.605 -1.4346,-1.222 -2.82919,-2.485 -4.165485,-3.79 z m 25.369005,16.688 c -4.77362,-1.873 -9.39749,-4.337 -13.74016,-7.245 4.02717,-3.032 8.0532,-6.054 12.08037,-9.056 4.18835,2.729 8.35498,5.499 12.52161,8.282 -3.64995,2.698 -7.28046,5.388 -10.86182,8.019 z m 16.76711,3.843 c 0,0 0,0 0,0 -1.95585,-0.116 -3.91057,-0.362 -5.85614,-0.714 2.49998,-1.85 5.4069,-4.005 7.89088,-5.84 2.51026,1.683 5.03196,3.354 7.55709,5.021 -3.17099,0.805 -6.37969,1.342 -9.59183,1.533 z m 20.18844,-5.295 c -3.50248,-2.29 -6.99582,-4.591 -10.4663,-6.915 3.51506,-2.577 7.05755,-5.125 10.62291,-7.648 l 12.27813,7.289 c -3.92201,2.816 -8.09778,5.285 -12.43474,7.274 z m 21.94768,-15.236 c -0.70187,0.685 -1.43003,1.351 -2.16276,2.012 l -11.59798,-6.887 c 4.8685,-3.276 9.65813,-6.319 14.27057,-9.013 2.51712,1.657 5.01939,3.33 7.51937,5.005 -2.42682,3.291 -5.13256,6.252 -8.0292,8.883 z m 12.80853,-16.435 c -0.63785,-0.426 -1.27456,-0.85 -1.91242,-1.274 -0.54183,-0.321 -1.08481,-0.638 -1.63579,-0.93 h -0.001 c 0.0411,-0.027 0.0823,-0.053 0.12231,-0.08 -0.005,-0.003 -0.009,-0.006 -0.0137,-0.009 0.0377,-0.02 0.0743,-0.035 0.11316,-0.055 2.14105,-1.409 4.29924,-2.8 6.462,-4.184 z m -2.05302,-30.578 v 0 c 2.5297,-1.37 5.07312,-2.688 7.6211,-3.979 0.22177,2.059 0.37266,4.069 0.42981,6.018 0.032,1.091 0.0377,2.163 0.0229,3.221 -2.68974,-1.757 -5.37261,-3.518 -8.07378,-5.26 z"
   id="path12"
   style="stroke-width:1.06916" />
	<path
   d="M121.915,60.661c6.485-9.807,13.394-19.33,20.704-28.539c-0.732-2.708-1.534-5.188-2.461-7.435   c-3.338-8.098-8.208-14.081-18.334-19.942c0.353,20.935-0.548,32.523-4.274,53.074C119.026,58.749,120.483,59.697,121.915,60.661z"
   id="path14" />
	<path
   d="M141.638,111.854c4.01-0.025,7.997,1.185,11.978,3.279c12.887-10.738,28.935-21.984,44.144-29.376   c-17.919-3.417-35.031-0.286-53.085,18.004l-3.069,3.108l-3.108-3.068c-18.466-18.229-40.684-18.503-57.67-11.922h0   c15.688,5.943,33.537,14.492,47.833,23.986C132.962,113.364,137.277,111.882,141.638,111.854z"
   id="path16" />
	<path
   d="M141.355,77.424c4.796-6.65,12.021-13.711,20.05-20.233l13.56-48.487c-12.958,13.076-30.132,33.186-45.915,57.093   C133.882,69.535,138.138,73.443,141.355,77.424z"
   id="path18" />
	<path
   d="M162.242,68.009c-7.945,7.137-14.48,14.595-16.817,19.346l-3.397,6.907c7.339-6.686,14.82-11.256,22.348-14.15   l23.739-30.34c-0.193,0.097-0.371,0.167-0.565,0.268c-5.318,2.75-11.273,6.66-16.994,11.051   C167.696,63.286,164.891,65.629,162.242,68.009z"
   id="path20" />
	<path
   d="M141.235,94.532l-3.622-7.127c-3.012-5.928-14.396-15.907-26.712-23.433c-7.209-4.407-14.772-7.898-21.076-10.173l0,0   c7.353,9.326,15.392,18.136,23.675,26.821C122.981,82.578,132.483,86.953,141.235,94.532z"
   id="path22" />
</g>
</svg>
