<?xml version="1.0" encoding="utf-8"?>
<!-- Generator: Adobe Illustrator 15.1.0, SVG Export Plug-In . SVG Version: 6.00 Build 0)  -->
<!DOCTYPE svg PUBLIC "-//W3C//DTD SVG 1.1//EN" "http://www.w3.org/Graphics/SVG/1.1/DTD/svg11.dtd">
<svg version="1.1" id="Layer_4" xmlns="http://www.w3.org/2000/svg" xmlns:xlink="http://www.w3.org/1999/xlink" x="0px" y="0px"
	 width="283.465px" height="283.465px" viewBox="0 0 283.465 283.465" enable-background="new 0 0 283.465 283.465"
	 xml:space="preserve">
<g>
	<rect x="179.434" y="233.292" fill="none" width="10.771" height="10.771"/>
	<polygon fill="none" points="179.434,211.748 179.434,200.977 168.662,200.977 168.662,211.748 168.662,222.52 179.434,222.52 	"/>
	<rect x="233.292" y="222.52" fill="none" width="10.771" height="10.772"/>
	<rect x="233.292" y="200.977" fill="none" width="10.771" height="10.771"/>
	<rect x="190.205" y="168.662" fill="none" width="10.771" height="10.771"/>
	<rect x="147.119" y="168.662" fill="none" width="10.771" height="10.771"/>
	<polygon fill="none" points="147.119,93.26 157.891,93.26 157.891,82.488 157.891,71.716 147.119,71.716 147.119,82.488 	"/>
	<polygon fill="none" points="157.891,200.977 168.662,200.977 168.662,190.205 168.662,179.434 157.891,179.434 157.891,190.205 	
		"/>
	<path fill="none" d="M200.977,190.205h-10.771v10.771v10.771v10.771h10.771h10.771h10.771v-10.771v-10.771v-10.771h-10.771H200.977
		z M211.748,211.748h-10.771v-10.771h10.771V211.748z"/>
	<rect x="114.803" y="211.748" fill="none" width="10.772" height="10.771"/>
	<rect x="222.52" y="147.119" fill="none" width="10.772" height="10.771"/>
	<rect x="200.977" y="147.119" fill="none" width="10.771" height="10.771"/>
	<rect x="114.803" y="39.402" fill="none" width="10.772" height="10.771"/>
	<rect x="114.803" y="50.173" width="10.772" height="10.771"/>
	<polygon points="125.575,125.575 114.803,125.575 114.803,114.803 114.803,104.032 104.032,104.032 104.032,114.803 
		104.032,125.575 104.032,136.346 114.803,136.346 125.575,136.346 136.346,136.346 136.346,125.575 136.346,114.803 
		125.575,114.803 	"/>
	<rect x="125.575" y="136.347" width="10.771" height="10.772"/>
	<rect x="104.032" y="136.347" width="10.771" height="10.772"/>
	<polygon points="244.063,254.835 233.292,254.835 222.52,254.835 211.748,254.835 200.977,254.835 200.977,265.605 
		211.748,265.605 211.748,276.377 222.52,276.377 233.292,276.377 244.063,276.377 254.834,276.377 254.834,265.605 
		244.063,265.605 	"/>
	<polygon points="179.434,254.835 168.662,254.835 168.662,265.605 179.434,265.605 190.205,265.605 190.205,254.835 	"/>
	<polygon points="147.119,254.835 136.347,254.835 136.347,265.605 136.347,276.377 147.119,276.377 147.119,265.605 
		157.891,265.605 157.891,254.835 	"/>
	<polygon points="114.803,157.891 104.032,157.891 104.032,168.662 114.803,168.662 125.575,168.662 125.575,157.891 
		125.575,147.119 114.803,147.119 	"/>
	<polygon points="125.575,28.63 114.803,28.63 114.803,17.858 114.803,7.087 104.032,7.087 104.032,17.858 104.032,28.63 
		104.032,39.402 104.032,50.173 114.803,50.173 114.803,39.402 125.575,39.402 125.575,50.173 136.346,50.173 136.346,39.402 
		136.346,28.63 136.346,17.858 125.575,17.858 	"/>
	<rect x="157.891" y="265.605" width="10.771" height="10.771"/>
	<polygon points="82.488,93.26 71.716,93.26 71.716,104.031 82.488,104.031 93.26,104.031 104.031,104.031 104.031,93.26 
		93.26,93.26 	"/>
	<rect x="82.488" y="104.032" width="10.772" height="10.771"/>
	<polygon points="82.488,125.575 82.488,136.346 93.26,136.346 104.031,136.346 104.031,125.575 93.26,125.575 	"/>
	<polygon points="71.716,114.803 71.716,104.032 60.945,104.032 60.945,114.803 60.945,125.575 71.716,125.575 82.488,125.575 
		82.488,114.803 	"/>
	<rect x="93.26" y="17.858" width="10.771" height="10.772"/>
	<polygon points="104.032,265.605 104.032,276.377 114.803,276.377 125.575,276.377 125.575,265.605 114.803,265.605 	"/>
	<polygon points="93.26,71.716 93.26,82.488 104.031,82.488 104.031,71.716 104.031,60.945 93.26,60.945 	"/>
	<polygon points="125.575,190.205 114.803,190.205 114.803,200.977 114.803,211.748 125.575,211.748 125.575,222.52 114.803,222.52 
		114.803,211.748 104.032,211.748 104.032,222.52 104.032,233.292 104.032,244.063 104.032,254.834 114.803,254.834 
		125.575,254.834 125.575,244.063 114.803,244.063 114.803,233.292 125.575,233.292 136.346,233.292 136.346,222.52 
		136.346,211.748 136.346,200.977 125.575,200.977 	"/>
	<rect x="93.26" y="39.402" width="10.771" height="10.771"/>
	<polygon points="168.662,147.119 168.662,136.347 157.891,136.347 147.119,136.347 147.119,147.119 157.891,147.119 	"/>
	<polygon points="254.835,222.52 254.835,233.292 254.835,244.063 265.605,244.063 265.605,254.834 276.377,254.834 
		276.377,244.063 276.377,233.292 276.377,222.52 265.605,222.52 	"/>
	<polygon points="265.605,265.605 254.835,265.605 254.835,276.377 265.605,276.377 276.377,276.377 276.377,265.605 
		276.377,254.835 265.605,254.835 	"/>
	<polygon points="233.292,28.63 222.52,28.63 222.52,39.402 222.52,50.173 222.52,60.944 233.292,60.944 244.063,60.944 
		254.834,60.944 254.834,50.173 254.834,39.402 254.834,28.63 244.063,28.63 	"/>
	<polygon points="254.835,200.977 254.835,211.748 265.605,211.748 276.377,211.748 276.377,200.977 265.605,200.977 	"/>
	<rect x="244.063" y="179.434" width="10.771" height="10.771"/>
	<polygon points="265.605,71.716 254.835,71.716 254.835,82.488 265.605,82.488 276.377,82.488 276.377,71.716 276.377,60.945 
		265.605,60.945 	"/>
	<polygon points="254.835,136.347 254.835,147.119 254.835,157.891 254.835,168.662 265.605,168.662 265.605,179.434 
		276.377,179.434 276.377,168.662 276.377,157.891 265.605,157.891 265.605,147.119 276.377,147.119 276.377,136.347 
		265.605,136.347 	"/>
	<polygon points="265.605,7.087 254.835,7.087 254.835,17.858 265.605,17.858 265.605,28.63 265.605,39.402 265.605,50.173 
		265.605,60.944 276.377,60.944 276.377,50.173 276.377,39.402 276.377,28.63 276.377,17.858 276.377,7.087 	"/>
	<polygon points="265.605,104.032 254.835,104.032 254.835,114.803 254.835,125.575 265.605,125.575 265.605,136.346 
		276.377,136.346 276.377,125.575 276.377,114.803 265.605,114.803 	"/>
	<polygon points="233.292,7.087 222.52,7.087 211.748,7.087 200.977,7.087 200.977,17.858 200.977,28.63 200.977,39.402 
		200.977,50.173 200.977,60.944 211.748,60.944 211.748,50.173 211.748,39.402 211.748,28.63 211.748,17.858 222.52,17.858 
		233.292,17.858 244.063,17.858 254.834,17.858 254.834,7.087 244.063,7.087 	"/>
	<polygon points="82.488,147.119 82.488,157.891 93.26,157.891 104.031,157.891 104.031,147.119 93.26,147.119 	"/>
	<rect x="136.347" y="147.119" width="10.772" height="10.771"/>
	<rect x="222.52" y="136.347" width="10.772" height="10.772"/>
	<rect x="244.063" y="200.977" width="10.771" height="10.771"/>
	<path d="M233.292,157.891H222.52v-10.771h-10.771v10.771h-10.771v-10.771h10.771v-10.772h-10.771h-10.771v10.772h-10.771v10.771
		h-10.771h-10.771h-10.771v10.771h10.771v10.771h10.771v10.771v10.771h10.771v10.771v10.771h-10.771v10.772v10.771h-10.771v-10.771
		h-10.771h-10.772v10.771h10.772v10.771h10.771h10.771h10.771h10.771v-10.771h-10.771v-10.771h10.771v10.771h10.771h10.771v-10.771
		h10.771v10.771h10.772v10.771h10.771h10.771v-10.771v-10.771V222.52h-10.771v10.772h-10.771V222.52h10.771v-10.771h-10.771v-10.771
		h10.771v-10.771h-10.771v-10.771v-10.771h10.771v-10.771v-10.771h-10.771V157.891z M200.977,179.434h-10.771v-10.771h10.771
		V179.434z M222.52,200.977v10.771v10.771h-10.771h-10.771h-10.771v-10.771v-10.771v-10.771h10.771h10.771h10.771V200.977z"/>
	<rect x="244.063" y="136.347" width="10.771" height="10.772"/>
	<polygon points="168.662,200.977 157.891,200.977 157.891,190.205 157.891,179.434 147.119,179.434 147.119,168.662 
		136.347,168.662 136.347,179.434 136.347,190.205 147.119,190.205 147.119,200.977 136.347,200.977 136.347,211.748 
		147.119,211.748 157.891,211.748 157.891,222.52 168.662,222.52 168.662,211.748 	"/>
	<polygon points="233.292,71.716 222.52,71.716 211.748,71.716 211.748,60.945 200.977,60.945 200.977,71.716 200.977,82.488 
		211.748,82.488 222.52,82.488 233.292,82.488 244.063,82.488 254.834,82.488 254.834,71.716 244.063,71.716 	"/>
	<rect x="200.977" y="200.977" width="10.771" height="10.771"/>
	<rect x="190.205" y="265.605" width="10.771" height="10.771"/>
	<rect x="211.748" y="93.26" width="10.771" height="10.771"/>
	<rect x="233.292" y="93.26" width="10.771" height="10.771"/>
	<polygon points="17.858,114.803 17.858,104.032 7.087,104.032 7.087,114.803 7.087,125.575 17.858,125.575 	"/>
	<polygon points="190.205,136.346 200.977,136.346 211.748,136.346 211.748,125.575 200.977,125.575 190.205,125.575 
		179.434,125.575 179.434,136.346 	"/>
	<rect x="168.662" y="114.803" width="10.771" height="10.772"/>
	<polygon points="82.488,82.488 82.488,71.716 82.488,60.945 71.716,60.945 71.716,71.716 60.945,71.716 60.945,82.488 
		71.716,82.488 	"/>
	<polygon points="71.716,28.63 71.716,39.402 71.716,50.173 71.716,60.944 82.488,60.944 82.488,50.173 82.488,39.402 82.488,28.63 
		82.488,17.858 82.488,7.087 71.716,7.087 60.945,7.087 60.945,17.858 71.716,17.858 	"/>
	<polygon points="125.575,71.716 125.575,60.945 114.803,60.945 114.803,71.716 114.803,82.488 125.575,82.488 	"/>
	<polygon points="125.575,104.031 125.575,93.26 114.803,93.26 104.032,93.26 104.032,104.031 114.803,104.031 	"/>
	<polygon points="157.891,125.575 157.891,114.803 147.119,114.803 136.347,114.803 136.347,125.575 147.119,125.575 	"/>
	<rect x="190.205" y="93.26" width="10.771" height="10.771"/>
	<polygon points="157.891,28.63 168.662,28.63 179.434,28.63 190.205,28.63 190.205,17.858 179.434,17.858 168.662,17.858 
		157.891,17.858 157.891,7.087 147.119,7.087 147.119,17.858 136.347,17.858 136.347,28.63 147.119,28.63 	"/>
	<polygon points="157.891,60.944 157.891,50.173 168.662,50.173 179.434,50.173 179.434,60.944 190.205,60.944 190.205,50.173 
		190.205,39.402 179.434,39.402 168.662,39.402 157.891,39.402 147.119,39.402 147.119,50.173 136.347,50.173 136.347,60.944 
		147.119,60.944 	"/>
	<rect x="254.835" y="93.26" width="10.771" height="10.771"/>
	<polygon points="222.52,136.346 233.292,136.346 233.292,125.575 244.063,125.575 244.063,114.803 233.292,114.803 222.52,114.803 
		222.52,104.032 211.748,104.032 211.748,114.803 211.748,125.575 222.52,125.575 	"/>
	<rect x="157.891" y="104.032" width="10.771" height="10.771"/>
	<rect x="179.434" y="104.032" width="10.771" height="10.771"/>
	<polygon points="157.891,104.031 168.662,104.031 168.662,93.26 168.662,82.488 168.662,71.716 179.434,71.716 179.434,60.945 
		168.662,60.945 157.891,60.945 147.119,60.945 147.119,71.716 157.891,71.716 157.891,82.488 157.891,93.26 147.119,93.26 
		147.119,82.488 147.119,71.716 136.347,71.716 136.347,82.488 136.347,93.26 136.347,104.031 147.119,104.031 	"/>
	<rect x="179.434" y="71.716" width="10.771" height="10.772"/>
	<polygon points="39.402,222.52 28.63,222.52 28.63,233.292 28.63,244.063 28.63,254.834 39.402,254.834 50.173,254.834 
		60.944,254.834 60.944,244.063 60.944,233.292 60.944,222.52 50.173,222.52 	"/>
	<polygon points="60.945,200.977 60.945,211.748 71.716,211.748 71.716,222.52 71.716,233.292 71.716,244.063 71.716,254.834 
		82.488,254.834 82.488,244.063 82.488,233.292 82.488,222.52 82.488,211.748 82.488,200.977 71.716,200.977 	"/>
	<polygon points="39.402,7.087 28.63,7.087 17.858,7.087 7.087,7.087 7.087,17.858 7.087,28.63 7.087,39.402 7.087,50.173 
		7.087,60.944 17.858,60.944 17.858,50.173 17.858,39.402 17.858,28.63 17.858,17.858 28.63,17.858 39.402,17.858 50.173,17.858 
		60.944,17.858 60.944,7.087 50.173,7.087 	"/>
	<polygon points="71.716,265.605 60.945,265.605 60.945,276.377 71.716,276.377 82.488,276.377 82.488,265.605 82.488,254.835 
		71.716,254.835 	"/>
	<polygon points="39.402,28.63 28.63,28.63 28.63,39.402 28.63,50.173 28.63,60.944 39.402,60.944 50.173,60.944 60.944,60.944 
		60.944,50.173 60.944,39.402 60.944,28.63 50.173,28.63 	"/>
	<polygon points="93.26,233.292 93.26,244.063 93.26,254.834 104.031,254.834 104.031,244.063 104.031,233.292 104.031,222.52 
		93.26,222.52 	"/>
	<polygon points="93.26,265.605 93.26,276.377 104.031,276.377 104.031,265.605 104.031,254.835 93.26,254.835 	"/>
	<polygon points="93.26,211.748 104.031,211.748 104.031,200.977 104.031,190.205 93.26,190.205 93.26,200.977 	"/>
	<polygon points="60.945,157.891 60.945,168.662 60.945,179.434 60.945,190.205 71.716,190.205 82.488,190.205 93.26,190.205 
		93.26,179.434 82.488,179.434 71.716,179.434 71.716,168.662 82.488,168.662 82.488,157.891 71.716,157.891 	"/>
	<polygon points="39.402,71.716 28.63,71.716 17.858,71.716 17.858,60.945 7.087,60.945 7.087,71.716 7.087,82.488 17.858,82.488 
		28.63,82.488 39.402,82.488 50.173,82.488 60.944,82.488 60.944,71.716 50.173,71.716 	"/>
	<rect x="28.63" y="179.434" width="10.772" height="10.771"/>
	<polygon points="39.402,200.977 28.63,200.977 17.858,200.977 7.087,200.977 7.087,211.748 7.087,222.52 7.087,233.292 
		7.087,244.063 7.087,254.834 17.858,254.834 17.858,244.063 17.858,233.292 17.858,222.52 17.858,211.748 28.63,211.748 
		39.402,211.748 50.173,211.748 60.944,211.748 60.944,200.977 50.173,200.977 	"/>
	<polygon points="17.858,179.434 17.858,168.662 17.858,157.891 17.858,147.119 7.087,147.119 7.087,157.891 7.087,168.662 
		7.087,179.434 7.087,190.205 17.858,190.205 	"/>
	<polygon points="71.716,136.347 60.945,136.347 60.945,147.119 71.716,147.119 82.488,147.119 82.488,136.347 	"/>
	<polygon points="39.402,93.26 28.63,93.26 17.858,93.26 7.087,93.26 7.087,104.031 17.858,104.031 28.63,104.031 39.402,104.031 
		50.173,104.031 60.944,104.031 60.944,93.26 50.173,93.26 	"/>
	<polygon points="39.402,265.605 28.63,265.605 17.858,265.605 17.858,254.835 7.087,254.835 7.087,265.605 7.087,276.377 
		17.858,276.377 28.63,276.377 39.402,276.377 50.173,276.377 60.944,276.377 60.944,265.605 50.173,265.605 	"/>
	<rect x="28.63" y="104.032" width="10.772" height="10.771"/>
	<polygon points="50.173,125.575 39.402,125.575 39.402,136.346 50.173,136.346 60.944,136.346 60.944,125.575 60.944,114.803 
		50.173,114.803 	"/>
	<polygon points="39.402,136.347 28.63,136.347 28.63,147.119 28.63,157.891 39.402,157.891 39.402,168.662 39.402,179.434 
		50.173,179.434 50.173,190.205 60.944,190.205 60.944,179.434 60.944,168.662 60.944,157.891 50.173,157.891 50.173,147.119 
		39.402,147.119 	"/>
	<rect x="50.173" y="136.347" width="10.771" height="10.772"/>
</g>
</svg>
