<?xml version="1.0" encoding="UTF-8" standalone="no"?>
<!-- Generator: Adobe Illustrator 15.1.0, SVG Export Plug-In . SVG Version: 6.00 Build 0)  -->

<svg
   version="1.1"
   id="Layer_1"
   x="0px"
   y="0px"
   width="283.46px"
   height="283.46px"
   viewBox="0 0 283.46 283.46"
   style="enable-background:new 0 0 283.46 283.46;"
   xml:space="preserve"
   sodipodi:docname="realtime-alt.svg"
   inkscape:version="1.2.2 (b0a8486541, 2022-12-01)"
   xmlns:inkscape="http://www.inkscape.org/namespaces/inkscape"
   xmlns:sodipodi="http://sodipodi.sourceforge.net/DTD/sodipodi-0.dtd"
   xmlns="http://www.w3.org/2000/svg"
   xmlns:svg="http://www.w3.org/2000/svg"><path
   id="path456"
   style="display:inline;stroke-width:0.830222"
   d="m 252.37253,22.351487 c -1.03041,0 -2.06152,0.393422 -2.85064,1.180472 -17.07517,17.064373 -105.61866,105.615451 -122.68968,122.684801 -1.57576,1.57825 -4.12466,1.57825 -5.70291,0 -8.40433,-8.41347 -33.052281,-33.05888 -41.464092,-41.46571 -1.569119,-1.57825 -4.12308,-1.57825 -5.699671,0 -4.941478,4.93816 -15.036575,15.04057 -19.977224,19.98371 -1.578251,1.56995 -1.578251,4.12648 0,5.69643 11.595704,11.60815 55.219197,55.21979 67.029107,67.03883 0.78622,0.78705 1.84928,1.22587 2.95928,1.22587 1.11333,0 2.18284,-0.43965 2.9674,-1.22587 19.49775,-19.49776 129.11638,-129.124599 148.25631,-148.259544 1.56745,-1.577421 1.56745,-4.126362 0,-5.701292 -4.94896,-4.938158 -15.04564,-15.042388 -19.98048,-19.977225 -0.78788,-0.78705 -1.81699,-1.180472 -2.8474,-1.180472 z M 118.86889,37.535475 c -61.736872,0 -111.7848958,50.048817 -111.7848958,111.786515 0,61.73769 50.0480238,111.78651 111.7848958,111.78651 61.73852,0 111.78814,-50.04882 111.78814,-111.78651 0,-13.68455 -2.47079,-26.79039 -6.97095,-38.90856 -13.80216,13.8026 -19.12678,19.12608 -33.09538,33.09538 h 24.15752 c 0.22083,0 0.43012,0.088 0.58537,0.24323 0.15691,0.15525 0.24323,0.36699 0.24323,0.587 v 9.96266 c 0,0.45912 -0.37111,0.83023 -0.83022,0.83023 h -29.88314 c -0.45912,0 -0.83022,-0.37111 -0.83022,-0.83023 v -4.23543 c -21.34889,21.34999 -45.36811,45.36973 -52.24077,52.24238 l -0.005,0.005 c -2.07784,2.07964 -4.89516,3.23171 -7.8109,3.23171 -2.91592,0 -5.73439,-1.16199 -7.80441,-3.23333 -11.80135,-11.81048 -55.399522,-55.39844 -67.014509,-67.02586 -4.212905,-4.19075 -4.212905,-11.2154 0,-15.40613 0.793394,-0.7938 2.188649,-2.18969 3.204139,-3.20576 l -19.012415,-10.97775 -0.0016,-0.002 4.979713,-8.624903 21.324714,12.312263 c 3.558618,-3.56018 7.123311,-7.12813 9.468102,-9.471346 4.189363,-4.193777 11.213239,-4.201063 15.401271,0.01135 6.960285,6.956156 23.596595,23.593566 34.256395,34.258016 0.031,-1.9e-4 0.0597,-0.01 0.0908,-0.01 0.52469,0 1.04363,0.0264 1.55504,0.0778 2.35559,0.2401 4.52181,1.06271 6.43261,2.25717 C 139.41423,123.94829 167.004,96.360943 195.44393,67.921288 175.43718,49.093628 148.51009,37.535475 118.86889,37.535475 Z m -4.98133,15.078589 h 9.96267 c 0.45911,0 0.83022,0.371939 0.83022,0.830222 v 29.884761 c 0,0.458281 -0.37111,0.830222 -0.83022,0.830222 h -9.96267 c -0.45828,0 -0.83022,-0.371941 -0.83022,-0.830222 V 53.444286 c 0,-0.458283 0.37194,-0.830222 0.83022,-0.830222 z m -38.642637,11.183678 14.94238,25.879587 h -0.0016 L 81.560775,94.657041 66.620016,68.779076 Z m 87.252797,0.0049 8.62166,4.978091 0.006,0.0032 -14.94563,25.879587 -8.62815,-4.981334 0.002,-0.0016 z M 22.994427,143.51043 h 29.88314 c 0.458281,0 0.830221,0.37194 0.830222,0.83022 v 9.96267 c 0,0.22084 -0.08715,0.43008 -0.24323,0.58699 -0.156081,0.15443 -0.366985,0.24323 -0.586992,0.24323 h -29.88314 c -0.458283,0 -0.830222,-0.3711 -0.830222,-0.83022 v -9.96267 c 0,-0.22 0.08798,-0.43091 0.243229,-0.58699 0.07721,-0.078 0.169546,-0.13848 0.269173,-0.17999 0.05562,-0.0224 0.117801,-0.0241 0.176747,-0.0341 0.04732,-0.008 0.09209,-0.0292 0.141073,-0.0292 z m 155.522373,34.49477 25.87472,14.93914 0.005,0.003 -4.98133,8.62816 -25.87797,-14.94238 z m -119.28933,0.003 4.979712,8.62491 v 0.002 l -25.877965,14.94238 -4.981334,-8.62653 0.0032,-0.002 z m 96.94791,25.97688 14.94239,25.87796 -2.47446,1.43019 -6.15208,3.55115 -14.94237,-25.87959 0.006,-0.003 z m -74.606498,0.003 8.618421,4.97647 0.0081,0.005 -14.940762,25.87959 -8.62815,-4.98133 v -0.002 z m 32.320298,10.49615 h 9.96267 c 0.45911,0 0.83022,0.37111 0.83022,0.83022 v 29.88314 c 0,0.45911 -0.37111,0.83022 -0.83022,0.83022 h -9.96267 c -0.45828,0 -0.83022,-0.37111 -0.83022,-0.83022 v -29.88314 c 0,-0.45911 0.37194,-0.83022 0.83022,-0.83022 z" /><defs
   id="defs11" /><sodipodi:namedview
   id="namedview9"
   pagecolor="#ffffff"
   bordercolor="#000000"
   borderopacity="0.25"
   inkscape:showpageshadow="2"
   inkscape:pageopacity="0.0"
   inkscape:pagecheckerboard="0"
   inkscape:deskcolor="#d1d1d1"
   showgrid="false"
   inkscape:zoom="0.52385673"
   inkscape:cx="168.93932"
   inkscape:cy="217.61675"
   inkscape:window-width="1920"
   inkscape:window-height="1015"
   inkscape:window-x="0"
   inkscape:window-y="0"
   inkscape:window-maximized="1"
   inkscape:current-layer="Layer_1" />


</svg>
