<?xml version="1.0" encoding="UTF-8" standalone="no"?>
<!-- Generator: Adobe Illustrator 15.1.0, SVG Export Plug-In . SVG Version: 6.00 Build 0)  -->

<svg
   version="1.1"
   id="Layer_1"
   x="0px"
   y="0px"
   width="283.46px"
   height="283.46px"
   viewBox="0 0 283.46 283.46"
   style="enable-background:new 0 0 283.46 283.46;"
   xml:space="preserve"
   sodipodi:docname="realtime.svg"
   inkscape:version="1.2.2 (b0a8486541, 2022-12-01)"
   xmlns:inkscape="http://www.inkscape.org/namespaces/inkscape"
   xmlns:sodipodi="http://sodipodi.sourceforge.net/DTD/sodipodi-0.dtd"
   xmlns="http://www.w3.org/2000/svg"
   xmlns:svg="http://www.w3.org/2000/svg"><defs
   id="defs11" /><sodipodi:namedview
   id="namedview9"
   pagecolor="#ffffff"
   bordercolor="#000000"
   borderopacity="0.25"
   inkscape:showpageshadow="2"
   inkscape:pageopacity="0.0"
   inkscape:pagecheckerboard="0"
   inkscape:deskcolor="#d1d1d1"
   showgrid="false"
   inkscape:zoom="0.52385673"
   inkscape:cx="168.93932"
   inkscape:cy="217.61675"
   inkscape:window-width="1920"
   inkscape:window-height="1015"
   inkscape:window-x="0"
   inkscape:window-y="0"
   inkscape:window-maximized="1"
   inkscape:current-layer="Layer_1" />
<g
   id="Layer_3">
</g>
<g
   id="Layer_4">
	<g
   id="g5">
		<path
   d="M275.909,152.948c0.623-7.466,0.623-14.972,0-22.441l-28.936-3.959c-0.535-3.727-1.274-7.422-2.203-11.072l25.217-14.731    c-2.28-7.135-5.154-14.072-8.587-20.731l-28.248,7.414c-1.922-3.237-4.016-6.371-6.271-9.385l17.659-23.26    c-4.837-5.721-10.145-11.028-15.869-15.868l-23.258,17.662c-3.014-2.256-6.147-4.348-9.384-6.271l7.414-28.247    c-6.662-3.434-13.596-6.308-20.731-8.588L167.98,38.688c-3.649-0.929-7.344-1.666-11.073-2.202l-3.96-28.933    c-7.467-0.625-14.973-0.625-22.441,0l-3.959,28.934c-3.726,0.537-7.422,1.274-11.072,2.202l-14.731-25.217    c-7.139,2.279-14.074,5.154-20.732,8.587l7.415,28.247c-3.237,1.923-6.372,4.015-9.385,6.271L54.783,38.917    c-5.72,4.84-11.028,10.147-15.868,15.868l17.659,23.26c-2.255,3.015-4.348,6.147-6.269,9.385l-28.247-7.414    c-3.437,6.659-6.308,13.595-8.588,20.731l25.218,14.731c-0.931,3.65-1.666,7.346-2.202,11.072l-28.934,3.959    c-0.624,7.467-0.624,14.973,0,22.44l28.934,3.959c0.537,3.729,1.272,7.422,2.202,11.072L13.47,182.711    c2.28,7.137,5.153,14.072,8.588,20.732l28.247-7.414c1.921,3.236,4.014,6.37,6.269,9.384l-17.66,23.262    c4.84,5.72,10.147,11.027,15.868,15.867l23.262-17.66c3.013,2.256,6.147,4.349,9.385,6.271L80.014,261.4    c6.659,3.434,13.593,6.309,20.732,8.588l14.73-25.218c3.649,0.929,7.345,1.666,11.072,2.203l3.96,28.936    c7.468,0.623,14.973,0.623,22.44,0l3.959-28.936c3.729-0.537,7.422-1.274,11.072-2.203l14.733,25.218    c7.135-2.279,14.069-5.155,20.731-8.588l-7.413-28.247c3.235-1.922,6.37-4.015,9.383-6.271l23.26,17.66    c5.723-4.838,11.029-10.147,15.868-15.867l-17.659-23.262c2.255-3.014,4.348-6.147,6.27-9.384l28.248,7.414    c3.433-6.66,6.306-13.596,8.588-20.732l-25.216-14.731c0.928-3.649,1.667-7.347,2.203-11.073L275.909,152.948z M141.729,206.373    c-35.644,0-64.643-29-64.643-64.643c0-35.645,28.999-64.643,64.643-64.643s64.641,28.999,64.641,64.643    C206.37,177.375,177.373,206.373,141.729,206.373z"
   id="path3" />
	</g>
</g>
<g
   id="g368"
   transform="matrix(0.41722808,0,0,0.41722808,82.59626,82.59626)">
	<path
   d="M 141.729,7.084 C 67.367,7.084 7.084,67.367 7.084,141.73 c 0,74.363 60.283,134.646 134.645,134.646 74.364,0 134.647,-60.283 134.647,-134.646 0,-74.363 -60.283,-134.646 -134.647,-134.646 z m -7,19.163 c 0,-0.552 0.448,-1 1,-1 h 11.999 c 0.553,0 1,0.448 1,1 v 35.995 c 0,0.552 -0.447,1 -1,1 h -11.999 c -0.552,0 -1,-0.448 -1,-1 z M 44.716,78.792 75.888,96.79 v 10e-4 L 69.889,107.18 38.72,89.183 38.718,89.182 Z M 25.248,147.73 v -11.999 c 0,-0.265 0.106,-0.519 0.293,-0.707 0.093,-0.094 0.204,-0.167 0.324,-0.217 0.067,-0.027 0.142,-0.03 0.213,-0.042 0.057,-0.01 0.111,-0.034 0.17,-0.034 h 35.994 0.001 c 0.552,0 1,0.448 1,1 v 11.999 c 0,0.266 -0.105,0.518 -0.293,0.707 -0.188,0.186 -0.442,0.293 -0.707,0.293 H 62.242 26.248 c -0.552,0 -1,-0.447 -1,-1 z m 19.47,56.941 -5.999,-10.389 0.003,-0.002 31.168,-17.996 5.998,10.387 10e-4,0.002 z m 34.075,-159.955 10.391,-5.999 17.997,31.171 -0.002,10e-4 -10.388,5.998 -17.997,-31.17 z m 10.402,200.032 -10.392,-6 v -0.002 l 17.997,-31.17 10.381,5.994 0.01,0.006 z m 59.535,12.464 c 0,0.553 -0.447,1 -1,1 h -11.999 c -0.552,0 -1,-0.447 -1,-1 v -35.994 c 0,-0.553 0.448,-1 1,-1 h 11.999 c 0.553,0 1,0.447 1,1 z m -4.047,-97.498 c 0.643,0.236 1.045,0.549 1.045,0.896 v 31.328 c 0,0.74 -1.791,1.342 -4,1.342 -2.209,0 -4,-0.602 -4,-1.342 V 160.61 c 0,-0.346 0.402,-0.66 1.046,-0.896 -8.669,-1.414 -15.293,-8.918 -15.293,-17.987 0,-10.078 8.169,-18.247 18.247,-18.247 0.632,0 1.257,0.032 1.873,0.094 4.307,0.439 8.17,2.377 11.063,5.284 l 43.74,-24.311 c 1.314,-0.73 3.248,0.244 4.32,2.175 0.135,0.241 0.25,0.486 0.344,0.731 0.189,0.49 0.303,0.982 0.338,1.449 0.09,1.167 -0.295,2.181 -1.115,2.637 l -43.377,24.105 c 0.676,1.904 1.063,3.946 1.063,6.082 -0.001,9.07 -6.626,16.574 -15.294,17.988 z m 56.998,80.75 -7.41,4.279 -17.998,-31.172 0.008,-0.004 10.383,-5.994 17.998,31.17 z m -15.012,-164.57 -10.391,-6 0.002,-0.001 18,-31.171 10.385,5.997 0.006,0.003 z m 20.899,20.893 31.17,-17.991 5.996,10.39 0.002,0.002 -21.992,12.693 -9.178,5.297 -0.006,0.003 -5.998,-10.391 z m 31.178,107.882 -31.17,-17.998 5.998,-10.391 31.166,17.994 0.006,0.004 z m 18.466,-55.941 h -35.994 c -0.553,0 -1,-0.447 -1,-1 v -12 c 0,-0.265 0.105,-0.519 0.293,-0.707 0.188,-0.188 0.441,-0.293 0.707,-0.293 l 35.996,0.001 c 0.266,0 0.518,0.106 0.705,0.293 0.189,0.187 0.293,0.442 0.293,0.707 v 11.999 c 0,0.553 -0.447,1 -1,1 z"
   id="path366" />
</g></svg>
