<?xml version="1.0" encoding="UTF-8" standalone="no"?>
<!-- Generator: Adobe Illustrator 15.1.0, SVG Export Plug-In . SVG Version: 6.00 Build 0)  -->

<svg
   version="1.1"
   id="Layer_3"
   x="0px"
   y="0px"
   width="283.46px"
   height="283.46px"
   viewBox="0 0 283.46 283.46"
   style="enable-background:new 0 0 283.46 283.46;"
   xml:space="preserve"
   sodipodi:docname="realtime-alt-2.svg"
   inkscape:version="1.2.2 (b0a8486541, 2022-12-01)"
   xmlns:inkscape="http://www.inkscape.org/namespaces/inkscape"
   xmlns:sodipodi="http://sodipodi.sourceforge.net/DTD/sodipodi-0.dtd"
   xmlns="http://www.w3.org/2000/svg"
   xmlns:svg="http://www.w3.org/2000/svg"><defs
   id="defs1213" /><sodipodi:namedview
   id="namedview1211"
   pagecolor="#ffffff"
   bordercolor="#000000"
   borderopacity="0.25"
   inkscape:showpageshadow="2"
   inkscape:pageopacity="0.0"
   inkscape:pagecheckerboard="0"
   inkscape:deskcolor="#d1d1d1"
   showgrid="false"
   inkscape:zoom="0.74084529"
   inkscape:cx="-317.88013"
   inkscape:cy="314.50561"
   inkscape:window-width="1920"
   inkscape:window-height="1015"
   inkscape:window-x="0"
   inkscape:window-y="0"
   inkscape:window-maximized="1"
   inkscape:current-layer="Layer_3" />
<path
   id="path1332"
   style="fill:#000000;stroke-width:0.746094"
   d="m 178.54658,7.0839957 c -47.41654,0 -87.599089,11.2506553 -87.599089,28.9315983 v 37.676271 c 1.85711,-0.496228 3.72906,-0.952987 5.62488,-1.347894 V 44.052074 c 9.644019,10.447559 42.593859,20.092096 81.974209,20.092096 39.38012,0 72.33019,-8.035809 81.9742,-19.287657 v 40.987064 c -2.75458,9.64215 -26.79822,18.672423 -62.94589,21.064033 1.05468,1.2318 2.07996,2.48837 3.07764,3.76837 29.19437,-2.37056 52.09939,-9.33916 59.86825,-18.403159 v 39.379829 c -2.14122,7.49564 -17.17405,14.61554 -40.71899,18.54596 0.305,1.25247 0.60911,2.50472 0.86853,3.7742 19.39106,-3.37653 33.97019,-9.02864 39.85188,-15.89099 v 42.59445 c -1.60739,7.50205 -16.8436,14.62934 -40.6038,18.5576 -0.47713,2.00237 -1.00081,3.98609 -1.59134,5.94257 27.65286,-4.1738 47.82002,-12.78306 47.82002,-24.50166 V 36.014102 C 266.95137,19.138194 225.96289,7.0839957 178.54658,7.0839957 Z m 0,4.8219333 c 49.02339,0 81.9742,12.05487 81.9742,23.306718 7.5e-4,12.054646 -32.95081,23.305226 -81.9742,23.305226 -49.02362,0 -81.974209,-11.251401 -81.974209,-22.502279 0,-11.251849 32.950589,-24.109665 81.974209,-24.109665 z m 0,3.417187 c -22.23212,0 -42.94437,2.724885 -58.32361,7.672237 -6.68202,2.149497 -12.12322,4.665253 -15.73357,7.275837 -2.85978,2.067427 -4.499839,4.161192 -4.499839,5.744404 0,1.534716 1.613499,3.518506 4.427029,5.442683 3.57304,2.444205 9.00923,4.777914 15.72184,6.749841 15.13527,4.445006 35.87834,6.892568 58.40815,6.892568 22.66537,0 43.40239,-2.48039 58.3877,-6.98583 6.7141,-2.018931 12.13992,-4.426055 15.68835,-6.956807 2.88962,-2.062205 4.48096,-4.173428 4.48096,-5.945402 0,-1.559337 -1.62678,-3.597741 -4.46343,-5.592798 -3.5917,-2.527767 -9.02938,-4.953618 -15.72633,-7.013585 -15.26262,-4.696663 -35.99211,-7.283148 -58.36725,-7.283148 z M 99.990981,51.16474 v 20.551168 c 5.843409,-1.01521 11.840809,-1.575303 17.968929,-1.575303 30.26942,0 57.57924,12.926905 76.737,33.530525 15.21465,-0.85988 29.11894,-2.92991 40.18561,-6.047395 14.44811,-4.069944 20.89967,-8.959399 22.22249,-12.330999 V 52.181891 c -7.32045,4.770527 -17.46644,7.922552 -25.62946,9.863889 -15.18152,3.608112 -33.48352,5.515577 -52.92897,5.515577 -9.647,0 -19.2276,-0.570389 -28.47693,-1.694753 -8.71662,-1.0602 -16.96499,-2.588127 -24.51621,-4.542148 C 114.83728,58.551969 106.06568,55.045923 99.990981,51.16474 Z M 239.62574,69.789418 c 3.97743,0 7.21324,3.235811 7.21324,7.21324 0,3.976683 -3.23581,7.21324 -7.21324,7.21324 -3.97669,0 -7.21175,-3.236557 -7.21175,-7.21324 0,-3.977429 3.23506,-7.21324 7.21175,-7.21324 z m -121.8669,5.668601 c -55.481059,0 -100.457569,44.977181 -100.457569,100.458991 0,55.48174 44.97651,100.45899 100.457569,100.45899 55.48248,0 100.45899,-44.97725 100.45899,-100.45899 0,-55.48181 -44.97651,-100.458991 -100.45899,-100.458991 z m -4.47657,13.552132 h 8.95164 c 0.41259,0 0.7461,0.33425 0.7461,0.746094 v 26.854995 c 0,0.41184 -0.33351,0.74609 -0.7461,0.74609 h -8.95164 c -0.41184,0 -0.74609,-0.33425 -0.74609,-0.74609 V 89.756245 c 0,-0.411844 0.33425,-0.746094 0.74609,-0.746094 z m -34.726959,10.04892 13.42679,23.257179 h -0.001 l -7.75095,4.47507 -13.42679,-23.25568 z m 78.411379,0.0044 7.74797,4.473659 0.004,0.003 -13.43119,23.2571 -7.75237,-4.47657 0.002,-0.001 z m 100.13832,0.534801 c -7.32045,4.770528 -17.46644,7.921058 -25.62946,9.862398 -8.58448,2.04064 -18.1903,3.51582 -28.41276,4.43143 7.09685,9.85784 12.52006,20.98651 15.86465,32.97818 5.75537,-0.94716 11.14516,-2.08257 15.95508,-3.43755 14.44811,-4.06994 20.89967,-8.96082 22.22249,-12.33242 z m -17.47927,18.411888 c 3.97743,0 7.21324,3.23581 7.21324,7.21324 0,3.97669 -3.23581,7.21175 -7.21324,7.21175 -3.97669,0 -7.21175,-3.23506 -7.21175,-7.21175 0,-3.97743 3.23506,-7.21324 7.21175,-7.21324 z m -194.248269,10.94954 23.25718,13.4282 -4.47515,7.75095 -23.25569,-13.42679 -10e-4,-0.002 z m 144.758339,0.003 4.47366,7.75095 0.001,0.001 -16.40825,9.47047 -6.84743,3.95191 -0.004,0.003 -4.47508,-7.75237 0.004,-0.003 z m 66.9692,16.44466 c -7.32045,4.77053 -17.46644,7.92255 -25.62946,9.86389 -3.25498,0.77392 -6.67971,1.45384 -10.20194,2.06922 0.97664,5.7353 1.51405,11.61833 1.51405,17.62648 0,7.07021 -0.71513,13.97658 -2.05766,20.65897 5.18424,-0.89501 10.0631,-1.94111 14.45998,-3.1709 6.75738,-1.88985 12.38271,-4.15522 16.26837,-6.55018 3.12837,-1.92791 5.11619,-3.92304 5.64666,-5.65398 z m -96.25631,2.58947 c 0.85689,0.0421 1.81763,0.72058 2.41749,1.80115 0.10073,0.17981 0.18638,0.36215 0.25651,0.54494 0.14101,0.36559 0.22599,0.73289 0.2521,1.08132 0.0671,0.87062 -0.22032,1.62701 -0.83211,1.96723 l -32.36326,17.9849 c 0.50436,1.42056 0.79414,2.94416 0.79414,4.53782 -7.5e-4,6.76707 -4.94429,12.36599 -11.41144,13.42097 0.47974,0.176 0.7796,0.4099 0.7796,0.66879 v 23.37231 c 0,0.55211 -1.33626,1.0026 -2.98438,1.0026 -1.64812,0 -2.98438,-0.45049 -2.98438,-1.0026 v -23.3723 c 0,-0.25814 0.3006,-0.49279 0.78109,-0.66879 -6.46789,-1.05498 -11.41002,-6.65464 -11.41002,-13.42097 0,-7.51914 6.09417,-13.61331 13.61331,-13.61331 0.47153,0 0.93791,0.0237 1.39751,0.0699 3.21343,0.32753 6.09522,1.77287 8.25367,3.94176 l 32.63431,-18.13792 c 0.24509,-0.13617 0.52018,-0.19183 0.80586,-0.1778 z m 78.77704,18.23268 c 3.97743,0 7.21324,3.23581 7.21324,7.21324 0,3.97668 -3.23581,7.21317 -7.21324,7.21317 -3.97669,0 -7.21175,-3.23649 -7.21175,-7.21317 0,-3.97743 3.23506,-7.21324 7.21175,-7.21324 z m -62.56113,4.46343 h 26.85641 c 0.19846,0 0.38655,0.0791 0.52607,0.21861 0.14101,0.13952 0.21861,0.32977 0.21861,0.52749 v 8.95313 c 0,0.41259 -0.33351,0.7461 -0.7461,0.7461 h -26.85499 c -0.41259,0 -0.74609,-0.33351 -0.74609,-0.7461 v -8.95313 c 0,-0.19772 0.0783,-0.38722 0.21853,-0.52749 0.14026,-0.14027 0.3291,-0.21861 0.52756,-0.21861 z m -145.466609,0.002 h 26.85507 10e-4 c 0.41184,0 0.74609,0.33426 0.74609,0.7461 v 8.95313 c 0,0.19846 -0.0783,0.38648 -0.21853,0.52749 -0.14026,0.13877 -0.32985,0.21861 -0.52756,0.21861 h -10e-4 -26.85507 c -0.41184,0 -0.74609,-0.33351 -0.74609,-0.7461 v -8.95313 c 0,-0.19772 0.0791,-0.3873 0.21861,-0.52756 0.0694,-0.0701 0.15235,-0.12445 0.24188,-0.16176 0.05,-0.0201 0.10587,-0.0216 0.15884,-0.0306 0.0425,-0.007 0.0827,-0.0262 0.12676,-0.0262 z m 139.763019,31.00082 23.25277,13.42381 0.004,0.004 -4.47656,7.75237 -23.25569,-13.42821 z m -107.201519,0.003 4.47515,7.74946 10e-4,0.001 -23.25711,13.42828 -4.47515,-7.75095 10e-4,-0.001 z m 87.124039,23.34455 13.42821,23.25569 -2.22373,1.28388 -5.52864,3.19268 -13.42828,-23.2571 0.006,-0.004 z m -67.046489,0.001 7.74505,4.47217 0.007,0.004 -13.42678,23.25718 -7.75237,-4.47657 v -0.001 z m 29.046639,9.43258 h 8.95172 c 0.41259,0 0.74609,0.3335 0.74609,0.74609 v 26.85499 c 0,0.41259 -0.3335,0.7461 -0.74609,0.7461 h -8.95172 c -0.41184,0 -0.74609,-0.33351 -0.74609,-0.7461 v -26.85499 c 0,-0.41259 0.33425,-0.74609 0.74609,-0.74609 z" />
</svg>
