<?xml version="1.0" encoding="utf-8"?>
<!-- Generator: Adobe Illustrator 15.1.0, SVG Export Plug-In . SVG Version: 6.00 Build 0)  -->
<!DOCTYPE svg PUBLIC "-//W3C//DTD SVG 1.1//EN" "http://www.w3.org/Graphics/SVG/1.1/DTD/svg11.dtd">
<svg version="1.1" id="Layer_3" xmlns="http://www.w3.org/2000/svg" xmlns:xlink="http://www.w3.org/1999/xlink" x="0px" y="0px"
	 width="283.46px" height="283.46px" viewBox="0 0 283.46 283.46" enable-background="new 0 0 283.46 283.46" xml:space="preserve">
<g>
	<path fill="none" d="M37.294,99.531c0.324,0.325,1.271,1.271,1.595,1.595c0.063,0.062,0.159,0.062,0.219,0
		c0.004-0.003,0.01-0.01,0.014-0.014c-0.003,0.003-0.009,0.009-0.012,0.012c-0.061,0.062-0.157,0.062-0.219,0
		c-0.324-0.324-1.271-1.271-1.595-1.594c-0.061-0.059-0.159-0.059-0.219,0c0,0,0,0,0,0C37.137,99.473,37.235,99.473,37.294,99.531z"
		/>
	<path fill="none" d="M40.361,99.874c-0.35,0.35-0.661,0.661-0.898,0.897C39.701,100.534,40.012,100.223,40.361,99.874z"/>
	<path fill="none" d="M43.826,96.409c-0.165,0.164-0.501,0.5-0.924,0.923c0.422-0.421,0.757-0.757,0.922-0.921
		c0.06-0.059,0.158-0.059,0.217,0c0.188,0.19,0.577,0.578,0.768,0.77c0.06,0.059,0.06,0.158,0,0.217
		c-0.734,0.737-4.942,4.943-5.696,5.697c0.75-0.749,4.963-4.962,5.698-5.698c0.06-0.058,0.06-0.158,0.003-0.218
		c-0.192-0.194-0.58-0.581-0.768-0.77C43.983,96.35,43.887,96.35,43.826,96.409z"/>
	<path fill="none" d="M36.902,99.706c-0.198,0.199-0.452,0.452-0.595,0.592l0,0C36.451,100.156,36.705,99.904,36.902,99.706z"/>
	<path fill="none" d="M41.85,98.385c0.187-0.187,0.368-0.368,0.544-0.544C42.218,98.017,42.037,98.198,41.85,98.385z"/>
	<path fill="none" d="M38.889,121.293c0.032,0.03,0.071,0.045,0.111,0.045c-0.039,0-0.079-0.015-0.109-0.045
		c-0.324-0.324-1.271-1.27-1.595-1.594c-0.031-0.03-0.071-0.045-0.11-0.045c0.04,0,0.079,0.015,0.108,0.045
		C37.618,120.023,38.565,120.969,38.889,121.293z"/>
	<path fill="none" d="M40.559,153.023c-4.274,0-7.749,3.473-7.749,7.75c0,4.275,3.475,7.748,7.749,7.748
		c4.277,0,7.751-3.473,7.752-7.748C48.311,156.496,44.836,153.023,40.559,153.023z M40.559,166.335
		c-3.067,0-5.559-2.496-5.559-5.563c0-3.07,2.493-5.559,5.559-5.559c3.068,0,5.562,2.49,5.562,5.559
		C46.121,163.839,43.627,166.335,40.559,166.335z"/>
	<path fill="none" d="M40.559,112.171c-4.274,0-7.749,3.473-7.749,7.748c0,4.279,3.475,7.75,7.749,7.75
		c4.277,0,7.751-3.471,7.752-7.75C48.311,115.644,44.836,112.171,40.559,112.171z M40.559,125.483c-3.067,0-5.559-2.493-5.559-5.562
		s2.493-5.559,5.559-5.559c3.068,0,5.562,2.489,5.562,5.559C46.121,122.99,43.627,125.483,40.559,125.483z"/>
	<path fill="none" d="M40.559,92.006c-4.274,0-7.749,3.471-7.749,7.748c0,4.275,3.475,7.749,7.749,7.749
		c4.277,0,7.751-3.474,7.752-7.749C48.311,95.477,44.836,92.006,40.559,92.006z M40.559,105.313c-3.067,0-5.559-2.493-5.559-5.558
		c0-3.07,2.493-5.562,5.559-5.562c3.068,0,5.562,2.493,5.562,5.562C46.121,102.821,43.627,105.313,40.559,105.313z"/>
	<path fill="none" d="M43.934,116.533c0.039,0,0.078,0.015,0.107,0.045c0.188,0.188,0.577,0.577,0.768,0.766
		c0.06,0.064,0.06,0.159,0,0.222c-0.735,0.733-4.948,4.946-5.698,5.696c-0.03,0.028-0.069,0.048-0.113,0.048c0,0,0,0,0.001,0
		c0.044,0,0.084-0.019,0.114-0.049c0.75-0.75,4.963-4.963,5.698-5.696c0.06-0.062,0.06-0.158,0.003-0.221
		c-0.192-0.189-0.58-0.578-0.768-0.766C44.014,116.548,43.974,116.533,43.934,116.533z"/>
	<path fill="none" d="M40.559,132.668c-4.274,0-7.749,3.473-7.749,7.75s3.475,7.75,7.749,7.75c4.277,0,7.751-3.472,7.752-7.75
		C48.311,136.139,44.836,132.668,40.559,132.668z M40.559,145.978c-3.067,0-5.559-2.492-5.559-5.56c0-3.069,2.493-5.559,5.559-5.559
		c3.068,0,5.562,2.49,5.562,5.559S43.627,145.978,40.559,145.978z"/>
	<path fill="none" d="M44.046,76.061c-0.032-0.03-0.073-0.044-0.113-0.043c0.04,0,0.08,0.015,0.11,0.044
		c0.188,0.191,0.577,0.58,0.765,0.768c0.06,0.059,0.06,0.158,0,0.218c-0.735,0.736-4.948,4.949-5.698,5.699
		c-0.03,0.028-0.069,0.044-0.112,0.044c0,0,0.001,0,0.001,0c0.044,0,0.084-0.016,0.114-0.045c0.75-0.75,4.963-4.962,5.698-5.699
		c0.06-0.059,0.06-0.159,0.003-0.217C44.622,76.642,44.234,76.253,44.046,76.061z"/>
	<path fill="none" d="M40.559,71.656c-4.274,0-7.749,3.471-7.749,7.748c0,4.279,3.475,7.75,7.749,7.75
		c4.277,0,7.751-3.47,7.752-7.75C48.311,75.127,44.836,71.656,40.559,71.656z M40.559,84.964c-3.067,0-5.559-2.49-5.559-5.559
		c0-3.068,2.493-5.561,5.559-5.561c3.068,0,5.562,2.493,5.562,5.561C46.121,82.474,43.627,84.964,40.559,84.964z"/>
	<path fill="none" d="M38.888,80.778c0.032,0.03,0.072,0.044,0.112,0.044c-0.039,0-0.078-0.015-0.109-0.045
		c-0.324-0.323-1.271-1.27-1.595-1.594c-0.031-0.032-0.072-0.046-0.112-0.045c0.04,0,0.079,0.015,0.109,0.046
		C37.617,79.508,38.564,80.454,38.888,80.778z"/>
	<path fill="none" d="M265.514,46.859c-33.724,0-213.846,0-247.573,0c-1.444,0-2.83,0.573-3.849,1.595
		c-1.024,1.019-1.595,2.406-1.595,3.849v135.554c0,1.443,0.573,2.827,1.595,3.85c1.019,1.02,2.406,1.594,3.849,1.594
		c33.725,0,213.846,0,247.573,0c1.448,0,2.83-0.574,3.851-1.594c1.02-1.023,1.596-2.408,1.596-3.85c0-23.052,0-112.502,0-135.554
		c0-1.444-0.576-2.83-1.596-3.849C268.343,47.43,266.96,46.859,265.514,46.859z M109.156,174.805c0,3.043-2.467,5.507-5.508,5.507
		H26.467c-3.042,0-5.508-2.464-5.508-5.507V65.373c0-3.042,2.466-5.507,5.508-5.507h77.181c3.041,0,5.508,2.465,5.508,5.507V174.805
		z M262.501,174.803c0,3.038-2.467,5.504-5.51,5.504H117.788c-3.042,0-5.508-2.466-5.508-5.504v-54.715
		c0-3.039,2.467-5.504,5.508-5.504h139.204c3.043,0,5.508,2.465,5.51,5.504V174.803z M262.501,105.666
		c0,3.043-2.467,5.508-5.51,5.508H117.788c-3.042,0-5.508-2.466-5.508-5.508V65.384c0-3.043,2.467-5.508,5.508-5.508h139.204
		c3.043,0,5.508,2.466,5.51,5.509V105.666z"/>
	<path d="M40.559,73.844c-3.066,0-5.559,2.493-5.559,5.561c0,3.069,2.492,5.559,5.559,5.559c3.068,0,5.562-2.49,5.562-5.559
		C46.121,76.337,43.627,73.844,40.559,73.844z M44.811,77.048c-0.735,0.737-4.948,4.949-5.698,5.699
		c-0.03,0.029-0.07,0.045-0.114,0.045c0,0-0.001,0-0.001,0s-0.001,0-0.001,0c-0.042,0-0.083-0.015-0.115-0.045
		c-0.454-0.453-2.129-2.131-2.577-2.575c-0.06-0.063-0.06-0.16,0-0.222c0.192-0.188,0.581-0.577,0.77-0.766
		c0.03-0.031,0.07-0.046,0.11-0.046c0.04-0.001,0.081,0.014,0.112,0.045c0.324,0.324,1.271,1.271,1.595,1.594
		c0.031,0.03,0.07,0.044,0.109,0.045c0.039,0,0.077-0.015,0.107-0.044c0.657-0.656,4.059-4.058,4.716-4.716
		c0.031-0.03,0.07-0.044,0.11-0.044c0.041,0,0.081,0.013,0.113,0.043c0.188,0.192,0.576,0.581,0.768,0.77
		C44.871,76.889,44.871,76.989,44.811,77.048z"/>
	<path d="M40.559,94.193c-3.066,0-5.559,2.492-5.559,5.562c0,3.065,2.492,5.558,5.559,5.558c3.068,0,5.562-2.492,5.562-5.558
		C46.121,96.686,43.627,94.193,40.559,94.193z M44.811,97.397c-0.735,0.736-4.948,4.949-5.698,5.698c0,0-0.001,0.001-0.002,0.002
		c-0.031,0.029-0.07,0.046-0.114,0.046c-0.042,0-0.083-0.017-0.115-0.046c-0.454-0.455-2.129-2.13-2.577-2.578
		c-0.06-0.06-0.06-0.157,0-0.219c0,0,0.001-0.001,0.002-0.002l0,0c0.143-0.141,0.397-0.394,0.595-0.592
		c0.066-0.066,0.125-0.127,0.173-0.175c0,0,0.001,0,0.001,0s0,0,0,0c0.06-0.059,0.158-0.059,0.219,0
		c0.324,0.323,1.271,1.27,1.595,1.594c0.062,0.062,0.158,0.062,0.219,0c0.003-0.003,0.009-0.008,0.012-0.012
		c0.081-0.08,0.196-0.196,0.342-0.341c0.237-0.237,0.548-0.548,0.898-0.897c0.46-0.46,0.985-0.985,1.488-1.489
		c0.187-0.187,0.368-0.368,0.544-0.544c0.178-0.178,0.351-0.35,0.508-0.508c0.422-0.422,0.759-0.759,0.924-0.923
		c0.061-0.059,0.157-0.059,0.22,0c0.188,0.189,0.576,0.576,0.768,0.77C44.871,97.239,44.871,97.339,44.811,97.397z"/>
	<path d="M40.559,155.214c-3.066,0-5.559,2.488-5.559,5.559c0,3.066,2.492,5.563,5.559,5.563c3.068,0,5.562-2.496,5.562-5.563
		C46.121,157.705,43.627,155.214,40.559,155.214z"/>
	<path d="M40.559,134.859c-3.066,0-5.559,2.49-5.559,5.559c0,3.068,2.492,5.56,5.559,5.56c3.068,0,5.562-2.491,5.562-5.56
		S43.627,134.859,40.559,134.859z"/>
	<path d="M40.559,114.362c-3.066,0-5.559,2.49-5.559,5.559s2.492,5.562,5.559,5.562c3.068,0,5.562-2.493,5.562-5.562
		C46.121,116.851,43.627,114.362,40.559,114.362z M44.811,117.566c-0.735,0.733-4.948,4.946-5.698,5.696
		c-0.03,0.03-0.07,0.049-0.114,0.049c0,0,0,0-0.001,0s0,0-0.001,0c-0.042,0-0.083-0.019-0.115-0.049
		c-0.454-0.453-2.129-2.131-2.577-2.575c-0.06-0.06-0.06-0.159,0-0.219c0.192-0.191,0.581-0.58,0.77-0.769
		c0.03-0.03,0.07-0.045,0.11-0.045c0.04,0,0.08,0.015,0.11,0.045c0.324,0.324,1.271,1.27,1.595,1.594
		c0.031,0.03,0.07,0.044,0.109,0.045c0.039,0,0.078-0.015,0.107-0.045c0.657-0.655,4.059-4.058,4.716-4.714
		c0.03-0.031,0.07-0.046,0.11-0.046c0.04,0,0.08,0.015,0.112,0.046c0.188,0.188,0.576,0.577,0.768,0.766
		C44.871,117.408,44.871,117.504,44.811,117.566z"/>
	<path d="M256.992,59.876H117.788c-3.041,0-5.508,2.465-5.508,5.508v40.282c0,3.042,2.466,5.508,5.508,5.508h139.204
		c3.043,0,5.51-2.465,5.51-5.508V65.385C262.5,62.342,260.035,59.876,256.992,59.876z"/>
	<path d="M265.208,41.248c-43.598,0-202.084,0-246.491,0c-3.086,0-6.044,1.227-8.225,3.409c-2.183,2.182-3.409,5.141-3.409,8.228
		c0,29.179,0,105.206,0,134.388c0,6.428,5.211,11.635,11.636,11.635h89.481c0,0-3.838,21.816-5.267,29.947
		c-0.133,0.747,0.073,1.516,0.561,2.096c0.486,0.578,1.206,0.912,1.963,0.912c12.538,0,60.004,0,72.543,0
		c0.76,0,1.478-0.336,1.967-0.912c0.484-0.582,0.693-1.349,0.559-2.096c-1.429-8.131-5.267-29.947-5.267-29.947s63.645,0,89.944,0
		c2.965,0,5.806-1.175,7.897-3.271c2.097-2.094,3.272-4.932,3.272-7.896c0-28.979,0-106.342,0-135.325
		C276.375,46.248,271.375,41.251,265.208,41.248z M270.96,187.857c0,1.441-0.576,2.826-1.596,3.85
		c-1.021,1.02-2.402,1.594-3.851,1.594c-33.728,0-213.848,0-247.573,0c-1.443,0-2.83-0.574-3.849-1.594
		c-1.022-1.022-1.595-2.406-1.595-3.85V52.303c0-1.443,0.571-2.83,1.595-3.849c1.019-1.022,2.405-1.595,3.849-1.595
		c33.727,0,213.85,0,247.573,0c1.446,0,2.829,0.571,3.851,1.595c1.02,1.019,1.596,2.405,1.596,3.849
		C270.96,75.355,270.96,164.805,270.96,187.857z"/>
	<path d="M103.648,59.866H26.467c-3.042,0-5.508,2.465-5.508,5.507v109.432c0,3.043,2.466,5.507,5.508,5.507h77.181
		c3.041,0,5.508-2.464,5.508-5.507V65.373C109.156,62.331,106.689,59.866,103.648,59.866z M40.559,168.521
		c-4.274,0-7.749-3.473-7.749-7.748c0-4.277,3.475-7.75,7.749-7.75c4.277,0,7.752,3.473,7.752,7.75
		C48.31,165.048,44.836,168.521,40.559,168.521z M40.559,148.167c-4.274,0-7.749-3.473-7.749-7.75s3.475-7.75,7.749-7.75
		c4.277,0,7.752,3.471,7.752,7.75C48.31,144.696,44.836,148.167,40.559,148.167z M40.559,127.669c-4.274,0-7.749-3.471-7.749-7.75
		c0-4.275,3.475-7.748,7.749-7.748c4.277,0,7.752,3.473,7.752,7.748C48.31,124.198,44.836,127.669,40.559,127.669z M40.559,107.503
		c-4.274,0-7.749-3.474-7.749-7.749c0-4.277,3.475-7.748,7.749-7.748c4.277,0,7.752,3.471,7.752,7.748
		C48.31,104.029,44.836,107.503,40.559,107.503z M40.559,87.154c-4.274,0-7.749-3.471-7.749-7.75c0-4.277,3.475-7.748,7.749-7.748
		c4.277,0,7.752,3.471,7.752,7.748C48.31,83.684,44.836,87.154,40.559,87.154z M103.23,171.23H52.48V71.657h50.75V171.23z"/>
	<path d="M256.992,114.584H117.788c-3.041,0-5.508,2.465-5.508,5.504v54.715c0,3.038,2.466,5.504,5.508,5.504h139.204
		c3.043,0,5.51-2.466,5.51-5.504v-54.715C262.5,117.049,260.035,114.584,256.992,114.584z"/>
	<path fill="#FFFFFF" d="M44.809,117.566c0.06-0.063,0.06-0.158,0-0.222c-0.191-0.189-0.58-0.578-0.768-0.766
		c-0.029-0.03-0.068-0.045-0.107-0.045c-0.04,0-0.08,0.015-0.11,0.046c-0.657,0.656-4.059,4.059-4.716,4.714
		c-0.03,0.03-0.068,0.044-0.107,0.045c-0.04,0-0.08-0.015-0.111-0.045c-0.324-0.324-1.271-1.27-1.595-1.594
		c-0.029-0.03-0.069-0.044-0.108-0.045c-0.04,0-0.081,0.015-0.11,0.045c-0.189,0.189-0.578,0.578-0.77,0.769
		c-0.06,0.06-0.06,0.159,0,0.219c0.448,0.444,2.123,2.122,2.577,2.575c0.032,0.03,0.073,0.049,0.115,0.049c0,0,0,0,0.001,0
		c0.043,0,0.083-0.02,0.113-0.048C39.861,122.512,44.074,118.299,44.809,117.566z"/>
	<path fill="#FFFFFF" d="M44.809,97.398c0.06-0.059,0.06-0.158,0-0.217c-0.191-0.192-0.58-0.58-0.768-0.77
		c-0.059-0.059-0.157-0.059-0.217,0c-0.165,0.164-0.5,0.5-0.922,0.921c-0.158,0.158-0.331,0.331-0.508,0.508
		c-0.176,0.176-0.357,0.357-0.544,0.544c-0.503,0.503-1.028,1.028-1.488,1.489c-0.35,0.35-0.661,0.661-0.898,0.897
		c-0.146,0.146-0.261,0.261-0.342,0.341c-0.004,0.004-0.01,0.01-0.014,0.014c-0.06,0.062-0.156,0.062-0.219,0
		c-0.324-0.324-1.271-1.27-1.595-1.595c-0.059-0.058-0.157-0.058-0.217,0c0,0-0.001,0-0.001,0c-0.047,0.048-0.107,0.108-0.173,0.175
		c-0.198,0.198-0.451,0.45-0.595,0.592c0,0-0.001,0.001-0.002,0.002c-0.06,0.062-0.06,0.159,0,0.219
		c0.448,0.448,2.123,2.123,2.577,2.578c0.032,0.029,0.073,0.046,0.115,0.046c0.044,0,0.083-0.017,0.114-0.046
		c0,0,0.001-0.001,0.002-0.002C39.867,102.341,44.075,98.135,44.809,97.398z"/>
	<path fill="#FFFFFF" d="M44.808,77.048c0.06-0.06,0.06-0.159,0-0.218c-0.188-0.188-0.577-0.577-0.765-0.768
		c-0.031-0.029-0.071-0.044-0.11-0.044c-0.04,0-0.079,0.015-0.11,0.044c-0.657,0.658-4.059,4.06-4.716,4.716
		c-0.03,0.029-0.068,0.043-0.107,0.044c-0.04,0-0.08-0.014-0.112-0.044c-0.324-0.324-1.271-1.27-1.595-1.594
		c-0.03-0.031-0.069-0.046-0.109-0.046c-0.04,0-0.08,0.015-0.11,0.046c-0.189,0.189-0.578,0.578-0.77,0.766
		c-0.06,0.062-0.06,0.159,0,0.222c0.448,0.444,2.123,2.122,2.577,2.575c0.032,0.03,0.073,0.045,0.115,0.045c0,0,0.001,0,0.001,0
		c0.043,0,0.082-0.016,0.112-0.044C39.86,81.997,44.073,77.784,44.808,77.048z"/>
	<rect x="52.48" y="71.657" width="50.75" height="99.573"/>
</g>
</svg>
