<?xml version="1.0" encoding="UTF-8" standalone="no"?>
<!-- Generator: Adobe Illustrator 15.1.0, SVG Export Plug-In . SVG Version: 6.00 Build 0)  -->

<svg
   version="1.1"
   id="Layer_3"
   x="0px"
   y="0px"
   width="283.465px"
   height="283.465px"
   viewBox="0 0 283.465 283.465"
   enable-background="new 0 0 283.465 283.465"
   xml:space="preserve"
   xmlns="http://www.w3.org/2000/svg"
   xmlns:svg="http://www.w3.org/2000/svg"><defs
   id="defs1" />
<g
   id="g1">
	<path
   d="m 276.176,135.728 c 0.0911,-5.54843 -0.79322,-10.12145 -1.28,-15.092 -0.74261,-2.84206 -1.11035,-6.05898 -1.794,-8.96 -0.86468,-3.40166 -1.65432,-6.87835 -2.818,-9.981 -0.72275,-3.373914 -2.11185,-6.081479 -3.074,-9.216 -1.26898,-2.913018 -2.52169,-5.842314 -3.842,-8.704 -1.48094,-2.957062 -2.91431,-5.961692 -4.61,-8.704 -1.39172,-2.704284 -3.10911,-5.08289 -4.61,-7.678 -1.74255,-2.354117 -3.39321,-4.800124 -5.122,-7.168 -1.9409,-2.412763 -3.84712,-4.86021 -5.893,-7.168 -2.26622,-2.427782 -4.36138,-5.026622 -6.914,-7.168 -2.05069,-2.387977 -4.49696,-4.380377 -6.916,-6.4 -2.13909,-2.043243 -4.5258,-3.838862 -6.915,-5.632 -2.47859,-1.874072 -5.0657,-3.639628 -7.684,-5.374 -2.67338,-1.680618 -5.34626,-3.361741 -8.196,-4.866 -2.78445,-1.568213 -5.65267,-3.052661 -8.708,-4.35 -2.78436,-1.313311 -5.5882,-2.607132 -8.709,-3.584 -3.02516,-1.328502 -6.34495,-2.362379 -9.733,-3.328 -3.84201,-1.109655 -7.69125,-2.212079 -12.039,-2.816 -2.93533,-0.733 -6.13483,-1.2018398 -9.469,-1.536 -5.79828,-0.8465869 -12.03609,-1.2536375 -18.9106,-1.024 -5.49997,-0.1221674 -9.97816,0.7774416 -15.1094,1.024 -3.4264,0.8402655 -7.43967,1.0936648 -10.752,2.048 -3.89636,0.711309 -7.41331,1.802028 -11.007,2.816 -2.884012,0.955655 -5.937162,1.742172 -8.447,3.072 -3.102906,0.822428 -5.592306,2.25836 -8.448,3.328 -2.828835,1.437165 -5.736282,2.795718 -8.448,4.35 -2.783221,1.398445 -5.226487,3.136846 -7.935,4.61 -2.522753,1.82858 -5.14583,3.556836 -7.68,5.374 -2.336579,1.844755 -4.710245,3.652421 -6.912,5.632 -2.509306,2.013361 -4.757595,4.287738 -7.168,6.4 -1.826179,2.098821 -3.934668,3.915332 -5.631,6.144 -2.102068,1.908599 -3.658084,4.363249 -5.632,6.4 -1.5432,2.382134 -3.484629,4.366038 -4.864,6.912 -1.886004,2.12433 -3.183687,4.83698 -4.863,7.168 -1.410181,2.770486 -3.156781,5.204553 -4.352,8.19 -1.535902,2.389432 -2.61424,5.236426 -3.84,7.936 -1.293148,3.058852 -2.608312,6.095688 -3.584,9.472 -1.246221,2.59378 -1.838895,5.84111 -2.816,8.704 -0.796251,3.64008 -1.9190275,6.95364 -2.304,11.005 -0.7924932,3.21451 -1.2850779,6.72892 -1.535,10.486 -0.6126159,5.88286 -1.1722146,13.175 -0.512,19.444 0.019745,5.86559 0.6724345,11.09823 1.536,16.12 0.5133044,3.7547 1.460691,7.07531 2.048,10.756 0.958706,2.88196 1.807807,5.87353 2.559,8.963 1.173032,2.4123 1.71514,5.45553 3.072,7.684 0.835886,3.34611 2.546571,5.81743 3.584,8.962 1.569044,2.52862 2.712734,5.4826 4.352,7.941 1.521745,3.00226 3.335433,5.71257 5.119,8.453 1.652525,2.44414 3.339364,4.85397 5.12,7.17 1.864847,2.48915 3.837034,4.87097 5.888,7.174 2.304671,2.56 4.547879,5.18145 7.168,7.426 1.925186,2.42748 4.645223,4.06011 6.655,6.403 2.289967,1.29503 3.806735,3.36326 6.144,4.611 2.065399,1.94593 4.681986,3.34068 6.912,5.122 2.595849,1.50082 4.974176,3.21916 7.679,4.611 2.73509,1.70324 5.753494,3.12317 8.704,4.611 3.035052,1.31761 5.895558,2.80978 9.216,3.842 2.712368,1.21263 5.568135,2.28186 8.703,3.072 2.7531,1.08724 5.97826,1.7024 8.957,2.564 3.75126,0.7694 7.34834,1.693 11.514,2.048 2.88903,0.60797 6.01216,0.98184 9.468,1.023 5.6025,0.70971 12.49544,0.61784 18.412,0.256 4.53752,-0.32382 9.09866,-0.62401 13.047,-1.537 4.14011,-0.29855 7.38521,-1.49212 11.267,-2.049 2.82018,-1.10682 6.28957,-1.56443 8.964,-2.817 3.11367,-0.643 5.49659,-2.01675 8.454,-2.816 2.19306,-1.13694 4.60826,-2.05174 6.914,-3.076 2.86642,-1.40258 5.69266,-2.84534 8.453,-4.354 2.83449,-1.51984 5.43592,-3.27274 8.197,-4.866 2.26304,-1.66429 4.62315,-3.23151 6.916,-4.866 2.3162,-1.86746 4.75656,-3.61077 6.915,-5.636 2.51021,-2.01479 4.7864,-4.2636 7.172,-6.403 1.90779,-2.19021 4.11924,-4.07676 5.891,-6.403 1.92622,-2.00112 3.76265,-4.09201 5.378,-6.404 1.98639,-2.19694 3.59975,-4.76691 5.38,-7.17 1.76443,-2.6749 3.58647,-5.29219 5.122,-8.196 1.59818,-2.49982 2.99934,-5.19666 4.354,-7.94 1.50174,-2.76693 2.60485,-5.93248 4.098,-8.708 1.12473,-3.48561 2.5981,-6.62257 3.586,-10.245 1.08159,-3.18641 1.958,-6.578 2.818,-9.986 0.77514,-3.74919 1.65475,-7.39392 2.05,-11.523 0.82462,-3.35372 0.91883,-7.43784 1.28,-11.255 0.10851,-4.52034 0.65935,-9.93333 0.01,-14.328 z m -141.681,75.956 c 0,15.93933 0,31.87867 0,47.818 -4.78591,-0.10868 -9.07982,-0.93074 -13.514,-1.483 -3.66127,-0.86023 -7.45478,-1.58823 -11.00252,-2.562 -2.94205,-0.89877 -5.88934,-1.79231 -8.70548,-2.817 -2.996099,-1.2709 -6.233018,-2.30098 -8.961,-3.84 -3.087118,-1.26622 -5.87907,-2.8276 -8.703,-4.357 -2.721227,-1.54611 -5.287929,-3.24674 -7.936,-4.866 -2.452774,-1.89956 -5.117342,-3.58733 -7.424,-5.633 -2.587037,-1.85096 -4.828264,-4.04774 -7.167,-6.147 -2.584881,-2.28045 -4.936182,-4.79449 -7.168,-7.428 -1.943425,-1.98224 -3.676126,-4.17521 -5.375,-6.402 -1.810261,-2.28807 -3.601572,-4.59509 -5.121,-7.174 -1.725922,-2.28574 -3.13985,-4.88348 -4.607,-7.428 -1.678781,-2.84489 -3.063604,-5.98373 -4.608,-8.963 -1.156969,-3.1967 -2.746152,-5.96118 -3.584,-9.477 -1.25742,-1.98658 -1.493278,-4.99472 -2.56,-7.172 -0.574874,-3.35079 -1.721725,-6.12961 -2.048,-9.729 -0.829959,-2.92437 -1.218444,-6.29022 -1.535,-9.728 -0.153176,-2.15474 -0.915997,-5.05109 -0.256,-7.168 17.559667,0 35.119333,0 52.679,0 0.358814,4.50585 1.268159,8.46117 2.304,12.29 1.093798,3.08887 2.092213,6.27312 3.585,8.963 0.983821,2.43018 2.361887,4.46611 3.583,6.659 1.762948,2.41972 3.415468,4.94987 5.376,7.172 2.197149,2.41218 4.500478,4.71819 6.912,6.916 2.25335,1.92865 4.61117,3.75283 7.167,5.379 2.57062,1.52571 5.00095,3.19172 7.936,4.353 2.74004,1.27096 5.46,2.562 8.703,3.33 3.32823,1.2791 7.31728,1.89739 11.262,2.56 1.85946,-0.20492 0.1994,5.64553 0.768,6.934 z m 0,-62.922 c 0,14.327 0,28.654 0,42.981 -4.05803,-0.28924 -7.35216,-1.48002 -10.706,-2.529 -3.09501,-1.17233 -6.01792,-2.51675 -8.704,-4.098 -2.869,-1.65467 -5.39245,-3.65488 -7.936,-5.635 -2.18453,-1.99781 -4.29434,-4.07032 -6.144,-6.403 -1.892445,-2.37489 -3.689925,-4.84474 -5.12,-7.682 -1.631278,-2.63706 -2.854225,-5.68244 -3.839,-8.966 -0.992215,-2.76378 -1.567377,-5.94462 -2.048,-9.22 14.832,0 29.664,0 44.496,0 z m 0,-56.513 c 0,13.045 0,26.09 0,39.135 -14.59056,0.0522 -29.18132,0.0276 -43.772,0.033 0.833982,-3.60335 1.899802,-6.97486 3.328,-9.984 1.301686,-2.96498 2.896165,-5.63717 4.608,-8.192 1.67738,-2.50395 3.83366,-4.529 5.632,-6.912 2.3768,-1.8042 4.38484,-3.97716 6.911,-5.632 2.73452,-1.958483 5.7845,-3.601503 8.959,-5.12 3.02088,-1.15979 5.90449,-2.456846 9.472,-3.07 1.35836,-0.604306 3.30418,-0.621155 4.862,-1.026 v 0.762519 z m 0,-66.74 c 0,17.732 0,35.464 0,53.196 -4.21534,0.501951 -8.02151,1.245877 -11.569,2.347 -3.21269,0.883311 -5.99729,2.19471 -8.96,3.328 -2.35142,1.232576 -4.74955,2.418451 -6.912,3.84 -2.79969,1.552312 -5.14878,3.555219 -7.68,5.376 -2.448522,2.330145 -4.919354,4.637979 -7.168,7.168 -2.116655,2.23468 -3.893671,4.809 -5.632,7.422 -1.660846,2.43449 -3.059071,5.1316 -4.35,7.936 -1.465116,3.05755 -2.626106,6.41923 -3.584,9.984 -0.67263,1.63137 -0.505158,4.10284 -1.537,5.375 -17.644333,0 -35.288667,0 -52.933,0 0.365328,-4.241 0.79142,-8.42125 1.792,-12.027 0.435603,-4.25673 1.761358,-7.62331 2.561,-11.516 1.027019,-2.12898 1.401152,-4.91085 2.558,-6.91 0.790915,-3.219751 2.404227,-5.617106 3.328,-8.704 1.726529,-2.625471 2.756317,-5.947683 4.608,-8.448 1.208257,-2.717076 2.94217,-4.908497 4.352,-7.424 1.686269,-2.409731 3.500324,-4.691676 5.12,-7.168 1.88565,-2.039683 3.6327,-4.217967 5.376,-6.4 2.10613,-1.818536 3.663442,-4.185892 5.888,-5.886 1.837689,-1.916311 3.868439,-3.639561 5.886,-5.376 2.242323,-1.85401 4.46758,-3.725087 6.913,-5.376 2.472193,-1.965141 5.244416,-3.630251 7.936,-5.376 2.732456,-1.448544 5.142398,-3.219602 8.191,-4.352 2.59192,-1.674413 5.729039,-2.803628 8.703,-4.096 2.84745,-1.077216 5.53542,-2.313913 8.704,-3.07 3.25635,-1.181317 6.76216,-2.113174 10.495,-2.818 3.65296,-0.953044 7.74443,-1.467574 11.77,-2.048 2.18611,-0.03256 3.94313,-0.494206 6.144,-0.512 0,0.511667 0,1.023333 0,1.535 z m 15.747,52.082 c 0,-17.905 0,-35.81 0,-53.715 3.89856,0.539105 8.1091,0.766233 11.777,1.536 3.99388,0.701118 7.80394,1.586058 11.525,2.56 2.97043,1.042241 6.31463,1.710703 8.966,3.072 3.07997,0.846363 5.65695,2.19572 8.451,3.328 3.0052,1.518465 6.08106,2.966272 8.965,4.606 2.71675,1.551914 5.29379,3.24354 7.94,4.866 2.45538,1.897953 5.12101,3.585657 7.428,5.632 2.49175,1.775585 4.65064,3.884027 6.916,5.886 2.64537,2.390628 5.1554,4.916599 7.428,7.68 1.94359,1.982408 3.68034,4.171656 5.378,6.4 1.81193,2.284734 3.60213,4.591203 5.122,7.168 1.72742,2.283252 3.14092,4.880413 4.61,7.422 1.6796,2.844405 3.06671,5.981293 4.61,8.962 1.24648,2.850183 2.32454,5.868793 3.588,8.702 0.9185,3.09217 1.96198,6.05935 2.816,9.216 0.84984,3.50149 1.73774,6.96493 2.305,10.749 0.55705,3.07552 1.05423,6.31124 1.232,9.681 -17.38933,0 -34.77867,0 -52.168,0 -0.31418,-4.03715 -1.55682,-7.14585 -2.562,-10.492 -1.10462,-2.99204 -2.41374,-5.77959 -3.842,-8.448 -1.4206,-3.01674 -3.4147,-5.45997 -5.122,-8.19 -1.93132,-2.16602 -3.59772,-4.596949 -5.892,-6.4 -1.84168,-2.255316 -4.11835,-4.075652 -6.403,-5.888 -2.32969,-1.767307 -4.72589,-3.46811 -7.427,-4.864 -2.41255,-1.514117 -4.99773,-2.855601 -7.94,-3.84 -2.7111,-1.386903 -5.90972,-2.286278 -9.222,-3.072 -2.57625,-0.753088 -5.43048,-1.228188 -8.452,-1.536 z m 43.883,70.372 c -0.27702,4.24765 -1.52225,7.52708 -2.562,11.012 -1.16304,2.5083 -2.20129,5.14138 -3.586,7.428 -1.65455,2.86945 -3.65262,5.39538 -5.634,7.938 -1.95435,2.22965 -4.15931,4.20869 -6.404,6.148 -2.57345,1.95122 -5.1322,3.91713 -8.196,5.378 -2.56558,1.61842 -5.64105,2.72695 -8.708,3.844 -2.76541,0.82059 -5.60062,1.57138 -8.708,2.05 0.17408,-14.74392 -0.34565,-30.18165 0.256,-44.498 14.576,0 29.152,0 43.728,0 0.6869,1.13158 -0.5333,0.028 -0.186,0.7 z M 150.561,91.707 c 4.0723,0.281701 7.14592,1.562076 10.502,2.56 3.13061,1.308058 6.16048,2.716855 8.964,4.352 2.41547,1.59653 4.79468,3.22932 6.916,5.12 2.54763,2.31771 5.00966,4.72101 7.172,7.424 1.69119,2.57581 3.69841,4.83559 4.867,7.934 1.43328,2.32172 2.54654,4.96346 3.329,7.936 0.40923,1.175 1.23467,3.54813 0.981,4.323 -14.32133,0 -28.64267,0 -42.964,0 0,-13.30133 0,-26.60267 0,-39.904 h 0.256 z m 108.984,59.111 c -0.40346,3.31567 -0.76898,6.85985 -1.227,10.198 -0.77568,3.49299 -1.36918,7.16816 -2.304,10.502 -0.86599,3.06068 -1.57979,6.27355 -2.818,8.962 -0.956,3.39867 -2.41083,6.2985 -3.586,9.478 -1.56985,2.95481 -2.90138,6.14796 -4.61,8.964 -1.31715,2.61085 -2.93125,4.92475 -4.356,7.428 -1.70766,2.39 -3.40077,4.79456 -5.121,7.172 -1.71874,2.03726 -3.35316,4.15884 -5.122,6.146 -2.30541,2.56159 -4.55039,5.18361 -7.173,7.428 -1.76822,1.81744 -3.73537,3.43597 -5.634,5.123 -2.20152,1.72615 -4.30116,3.55417 -6.66,5.123 -2.47467,1.96466 -5.24644,3.63223 -7.94,5.378 -2.88631,1.55336 -5.48294,3.39639 -8.708,4.611 -2.30503,1.45164 -4.95931,2.55402 -7.684,3.586 -2.94341,1.23992 -5.87505,2.49161 -9.22,3.33 -3.09418,1.17382 -6.59132,1.94468 -9.987,2.817 -4.49137,0.80263 -8.73,1.858 -13.832,2.05 -3.02564,1.37047 -3.95396,-0.22638 -3.327,-3.57452 0,-16.88216 0,-33.76432 0,-50.64648 4.06003,-0.29263 7.40963,-1.2957 11.008,-2.05 2.75327,-1.00373 5.58279,-1.93121 8.197,-3.074 2.92132,-1.26234 5.6399,-2.72744 8.197,-4.354 2.89354,-1.63046 5.37694,-3.67106 7.939,-5.633 2.56013,-2.39221 5.07536,-4.8293 7.427,-7.43 1.93666,-2.332 3.81801,-4.71932 5.38,-7.426 1.78295,-2.31538 2.96458,-5.23209 4.354,-7.941 1.34838,-2.74962 2.18748,-6.00852 3.33,-8.964 0.81841,-3.45092 1.22215,-7.31652 2.05,-10.758 17.13267,0 34.26533,0 51.398,0 0.0251,1.18367 -0.0437,2.37439 0.029,3.555 z"
   id="path1" />
</g>
</svg>
