<?xml version="1.0" encoding="UTF-8" standalone="no"?>
<!-- Generator: Adobe Illustrator 15.1.0, SVG Export Plug-In . SVG Version: 6.00 Build 0)  -->

<svg
   version="1.1"
   id="Layer_2"
   x="0px"
   y="0px"
   width="283.465px"
   height="283.465px"
   viewBox="0 0 283.465 283.465"
   enable-background="new 0 0 283.465 283.465"
   xml:space="preserve"
   sodipodi:docname="report-alt-3.svg"
   inkscape:version="1.2.2 (b0a8486541, 2022-12-01)"
   xmlns:inkscape="http://www.inkscape.org/namespaces/inkscape"
   xmlns:sodipodi="http://sodipodi.sourceforge.net/DTD/sodipodi-0.dtd"
   xmlns="http://www.w3.org/2000/svg"
   xmlns:svg="http://www.w3.org/2000/svg"><defs
   id="defs1727" /><sodipodi:namedview
   id="namedview1725"
   pagecolor="#ffffff"
   bordercolor="#000000"
   borderopacity="0.25"
   inkscape:showpageshadow="2"
   inkscape:pageopacity="0.0"
   inkscape:pagecheckerboard="0"
   inkscape:deskcolor="#d1d1d1"
   showgrid="false"
   inkscape:zoom="1.0476949"
   inkscape:cx="-42.474197"
   inkscape:cy="232.89223"
   inkscape:window-width="1920"
   inkscape:window-height="1015"
   inkscape:window-x="0"
   inkscape:window-y="0"
   inkscape:window-maximized="1"
   inkscape:current-layer="Layer_2" />

<path
   id="rect1846"
   style="stroke-width:13.8;stroke-linecap:round;stroke-linejoin:round;paint-order:stroke fill markers"
   d="M 44.910156 7.0878906 C 39.937211 7.0878906 35.908203 11.120852 35.908203 16.091797 L 35.908203 267.37695 C 35.908203 272.34795 39.937211 276.37891 44.910156 276.37891 L 238.55664 276.37891 C 243.52964 276.37891 247.55664 272.34795 247.55664 267.37695 L 247.55664 67.146484 C 247.55664 64.760517 246.60673 62.470181 244.92773 60.783203 L 193.86719 9.7246094 C 192.17319 8.0376281 189.88409 7.0878906 187.49609 7.0878906 L 44.910156 7.0878906 z M 189.54102 21.759766 L 198.00586 29.839844 L 234.8418 65.001953 L 189.61523 65.001953 L 189.54102 21.759766 z M 150.45898 103.44727 L 175.50195 103.44727 C 176.65422 103.44727 177.69771 103.94732 178.45312 104.75586 C 179.20854 105.5644 179.67751 106.68066 179.67773 107.91406 L 179.67773 134.7207 C 179.67773 137.18751 177.80649 139.18945 175.50195 139.18945 C 174.63776 139.18945 173.83606 138.90751 173.16992 138.42578 C 172.94788 138.26521 172.74157 138.08298 172.55273 137.88086 C 171.79738 137.07237 171.33008 135.95434 171.33008 134.7207 L 171.33008 119.10547 L 134.24805 158.79688 C 134.04231 159.01727 133.81998 159.20833 133.58594 159.37305 C 133.53575 159.40825 133.48094 159.43026 133.42969 159.46289 C 132.99807 159.73877 132.53545 159.93297 132.05469 160.02734 C 132.05268 160.02773 132.05084 160.02891 132.04883 160.0293 C 130.74656 160.28284 129.35365 159.87458 128.34766 158.79688 L 106.25391 135.15039 L 71.640625 172.20117 C 70.825791 173.07339 69.757859 173.50977 68.689453 173.50977 C 67.621047 173.50977 66.552682 173.07339 65.738281 172.20117 C 64.108156 170.45722 64.108156 167.62676 65.738281 165.88281 L 103.30273 125.67383 C 104.93154 123.92893 107.57672 123.92893 109.20508 125.67383 L 131.23438 149.25391 L 131.29688 149.32031 L 165.80664 112.38281 L 150.45898 112.38281 C 149.88285 112.38281 149.33525 112.25737 148.83594 112.03125 C 148.58628 111.91819 148.349 111.77973 148.12695 111.61914 C 147.01672 110.81617 146.28516 109.45581 146.28516 107.91406 C 146.28516 106.98901 146.54801 106.12906 146.99805 105.41602 C 147.29807 104.94065 147.68091 104.53017 148.125 104.20898 C 148.79113 103.7272 149.59462 103.44727 150.45898 103.44727 z M 181.38477 148.9375 L 218.94922 148.9375 L 218.94922 242.76172 L 181.38477 242.76172 L 181.38477 148.9375 z M 131.29688 175.74414 L 168.86133 175.74414 L 168.86328 175.74414 L 168.86328 242.76172 L 168.86133 242.76172 L 131.29688 242.76172 L 131.29688 175.74414 z M 81.210938 202.55078 L 118.77539 202.55078 L 118.77539 242.76172 L 81.210938 242.76172 L 81.210938 202.55078 z " /><path
   id="polygon1718"
   style="display:inline;fill:#ffffff"
   d="m 189.616,65.001 h 45.225 l -45.3,-43.241 z" /></svg>
