<?xml version="1.0" encoding="UTF-8" standalone="no"?>
<!-- Generator: Adobe Illustrator 15.1.0, SVG Export Plug-In . SVG Version: 6.00 Build 0)  -->

<svg
   version="1.1"
   id="Layer_2"
   x="0px"
   y="0px"
   width="283.465px"
   height="283.465px"
   viewBox="0 0 283.465 283.465"
   enable-background="new 0 0 283.465 283.465"
   xml:space="preserve"
   sodipodi:docname="report.svg"
   inkscape:version="1.2.2 (b0a8486541, 2022-12-01)"
   xmlns:inkscape="http://www.inkscape.org/namespaces/inkscape"
   xmlns:sodipodi="http://sodipodi.sourceforge.net/DTD/sodipodi-0.dtd"
   xmlns="http://www.w3.org/2000/svg"
   xmlns:svg="http://www.w3.org/2000/svg"><defs
   id="defs1727">
	
	
	
	
</defs><sodipodi:namedview
   id="namedview1725"
   pagecolor="#ffffff"
   bordercolor="#000000"
   borderopacity="0.25"
   inkscape:showpageshadow="2"
   inkscape:pageopacity="0.0"
   inkscape:pagecheckerboard="0"
   inkscape:deskcolor="#d1d1d1"
   showgrid="false"
   inkscape:zoom="1.4816644"
   inkscape:cx="75.928125"
   inkscape:cy="202.475"
   inkscape:window-width="1920"
   inkscape:window-height="1015"
   inkscape:window-x="0"
   inkscape:window-y="0"
   inkscape:window-maximized="1"
   inkscape:current-layer="Layer_2" />
<g
   id="g1722"
   style="display:inline">
	<path
   id="rect1846"
   style="display:inline;stroke-width:13.8;stroke-linecap:round;stroke-linejoin:round;paint-order:stroke fill markers"
   d="m 44.910156,7.0878906 c -4.97297,0 -9.001953,4.0329364 -9.001953,9.0039064 V 267.37695 c 0,4.971 4.028983,9.00196 9.001953,9.00196 H 238.55664 c 4.973,0 9,-4.03096 9,-9.00196 V 67.146484 c 0,-2.385982 -0.94991,-4.676293 -2.62891,-6.363281 L 193.86719,9.7246094 c -1.694,-1.6869898 -3.9831,-2.6367188 -6.3711,-2.6367188 z M 189.54102,21.759766 234.8418,65.001953 h -12.25391 v 92.396487 a 2.4582492,2.4582492 0 0 0 0,0.002 2.4582492,2.4582492 0 0 0 0,0.002 c -0.007,5.87846 -4.83668,10.70704 -10.7168,10.70704 H 71.59375 c -5.880093,0 -10.710938,-4.83088 -10.710938,-10.71094 V 55.623047 c 0,-5.880085 4.830845,-10.710938 10.710938,-10.710938 H 189.58008 Z M 71.59375,49.828125 c -3.199022,0 -5.794922,2.595907 -5.794922,5.794922 V 157.39844 c 0,3.19898 2.595892,5.79492 5.794922,5.79492 h 140.27734 c 3.19904,0 5.79679,-2.59813 5.80079,-5.79883 V 65.001953 h -28.05665 l -0.0254,-15.173828 z m 52.40234,20.419922 a 12.974818,12.974818 0 0 1 12.97461,12.974609 12.974818,12.974818 0 0 1 -12.97461,12.97461 12.974818,12.974818 0 0 1 -12.97461,-12.97461 12.974818,12.974818 0 0 1 12.97461,-12.974609 z m 73.39258,0 a 12.974818,12.974818 0 0 1 12.97656,12.974609 12.974818,12.974818 0 0 1 -12.97656,12.97461 12.974818,12.974818 0 0 1 -12.97461,-12.97461 12.974818,12.974818 0 0 1 12.97461,-12.974609 z m -84.38476,22.955078 c 0.99569,1.095248 2.15439,2.040524 3.43359,2.800781 L 97.039062,119.82422 c -0.995912,-1.09446 -2.1544,-2.03734 -3.433593,-2.79688 z m 73.4082,0.01172 c 0.99738,1.094546 2.15478,2.037844 3.43555,2.796875 l -19.40625,23.835941 c -0.99639,-1.09708 -2.151,-2.0433 -3.43164,-2.80469 z m -51.75781,0.33789 17.68164,23.226566 c -1.3074,0.71834 -2.4915,1.63292 -3.52344,2.69531 L 131.13086,96.248047 c 1.30615,-0.719445 2.49274,-1.632329 3.52344,-2.695313 z M 86.052734,116.83594 a 12.974818,12.974818 0 0 1 12.97461,12.97461 12.974818,12.974818 0 0 1 -12.97461,12.97461 12.974818,12.974818 0 0 1 -12.976562,-12.97461 12.974818,12.974818 0 0 1 12.976562,-12.97461 z m 73.404296,0 a 12.974818,12.974818 0 0 1 12.97461,12.97461 12.974818,12.974818 0 0 1 -12.97461,12.97461 12.974818,12.974818 0 0 1 -12.97461,-12.97461 12.974818,12.974818 0 0 1 12.97461,-12.97461 z M 60.740234,186.37109 H 222.72461 v 5.90821 H 60.740234 Z m 0,23.11329 H 222.72461 v 5.9082 H 60.740234 Z m 0,11.58007 H 222.72461 v 5.90821 H 60.740234 Z m 0,11.58008 H 222.72461 v 5.9082 H 60.740234 Z" /><polygon
   fill="none"
   points="189.541,21.76 189.616,65.001 234.841,65.001 "
   id="polygon1718"
   style="display:inline" />
	
</g>
</svg>
