<?xml version="1.0" encoding="UTF-8" standalone="no"?>
<!-- Generator: Adobe Illustrator 15.1.0, SVG Export Plug-In . SVG Version: 6.00 Build 0)  -->

<svg
   version="1.1"
   id="Layer_2"
   x="0px"
   y="0px"
   width="283.465px"
   height="283.465px"
   viewBox="0 0 283.465 283.465"
   enable-background="new 0 0 283.465 283.465"
   xml:space="preserve"
   sodipodi:docname="report-alt-2.svg"
   inkscape:version="1.2.2 (b0a8486541, 2022-12-01)"
   xmlns:inkscape="http://www.inkscape.org/namespaces/inkscape"
   xmlns:sodipodi="http://sodipodi.sourceforge.net/DTD/sodipodi-0.dtd"
   xmlns="http://www.w3.org/2000/svg"
   xmlns:svg="http://www.w3.org/2000/svg"><defs
   id="defs1727" /><sodipodi:namedview
   id="namedview1725"
   pagecolor="#ffffff"
   bordercolor="#000000"
   borderopacity="0.25"
   inkscape:showpageshadow="2"
   inkscape:pageopacity="0.0"
   inkscape:pagecheckerboard="0"
   inkscape:deskcolor="#d1d1d1"
   showgrid="false"
   inkscape:zoom="1.0476949"
   inkscape:cx="163.69269"
   inkscape:cy="232.89222"
   inkscape:window-width="1920"
   inkscape:window-height="1015"
   inkscape:window-x="0"
   inkscape:window-y="0"
   inkscape:window-maximized="1"
   inkscape:current-layer="Layer_2" />

<path
   id="rect1846"
   style="stroke-width:13.8;stroke-linecap:round;stroke-linejoin:round;paint-order:stroke fill markers"
   d="M 44.910156 7.0878906 C 39.937191 7.0878906 35.908203 11.120832 35.908203 16.091797 L 35.908203 267.37695 C 35.908203 272.34795 39.937191 276.37891 44.910156 276.37891 L 238.55664 276.37891 C 243.52964 276.37891 247.55664 272.34795 247.55664 267.37695 L 247.55664 67.146484 C 247.55664 64.760505 246.60673 62.470189 244.92773 60.783203 L 193.86719 9.7246094 C 192.17319 8.0376213 189.88409 7.0878906 187.49609 7.0878906 L 44.910156 7.0878906 z M 189.54102 21.759766 L 198.00586 29.839844 L 234.8418 65.001953 L 189.61523 65.001953 L 189.54102 21.759766 z M 146.65039 51.066406 L 161.46289 51.066406 L 161.46289 154.60547 L 146.65039 154.60547 L 146.65039 51.066406 z M 171.36914 71.955078 L 186.18164 71.955078 L 186.18164 154.5957 L 171.36914 154.5957 L 171.36914 71.955078 z M 121.98438 91.578125 L 136.79688 91.578125 L 136.79688 154.60547 L 121.98438 154.60547 L 121.98438 91.578125 z M 196.04102 105.22852 L 210.85352 105.22852 L 210.85352 154.74609 L 196.04102 154.74609 L 196.04102 105.22852 z M 97.292969 114.08984 L 112.10547 114.08984 L 112.10547 154.60156 L 97.292969 154.60156 L 97.292969 114.08984 z M 72.611328 130.65625 L 87.423828 130.65625 L 87.423828 154.60547 L 72.611328 154.60547 L 72.611328 130.65625 z M 149.49805 164.81641 C 159.43902 165.36423 168.87541 169.27288 176.29297 175.91406 L 149.49805 202.70898 L 149.49805 164.81641 z M 139.08203 170.11328 L 139.08203 216.65234 L 185.5918 216.65234 C 185.57513 242.32575 164.75544 263.13281 139.08203 263.13281 C 113.39613 263.13281 92.572266 242.30895 92.572266 216.62305 C 92.572266 190.93714 113.39613 170.11328 139.08203 170.11328 z M 179.81836 179.45117 C 186.44927 186.87459 190.34708 196.30705 190.89258 206.24414 L 153.02539 206.24414 L 179.81836 179.45117 z " /><path
   id="polygon1718"
   style="display:inline;fill:#ffffff"
   d="m 189.616,65.001 h 45.225 l -45.3,-43.241 z" /></svg>
