<?xml version="1.0" encoding="UTF-8" standalone="no"?>
<!-- Generator: Adobe Illustrator 15.1.0, SVG Export Plug-In . SVG Version: 6.00 Build 0)  -->

<svg
   version="1.0"
   id="Layer_2"
   x="0px"
   y="0px"
   width="283.46px"
   height="283.46px"
   viewBox="0 0 283.46 283.46"
   enable-background="new 0 0 283.46 283.46"
   xml:space="preserve"
   sodipodi:docname="rick.svg"
   inkscape:version="1.2.2 (b0a8486541, 2022-12-01)"
   xmlns:inkscape="http://www.inkscape.org/namespaces/inkscape"
   xmlns:sodipodi="http://sodipodi.sourceforge.net/DTD/sodipodi-0.dtd"
   xmlns="http://www.w3.org/2000/svg"
   xmlns:svg="http://www.w3.org/2000/svg"><defs
   id="defs9" /><sodipodi:namedview
   id="namedview7"
   pagecolor="#ffffff"
   bordercolor="#000000"
   borderopacity="0.25"
   inkscape:showpageshadow="2"
   inkscape:pageopacity="0.0"
   inkscape:pagecheckerboard="0"
   inkscape:deskcolor="#d1d1d1"
   showgrid="false"
   inkscape:zoom="2.095427"
   inkscape:cx="118.11435"
   inkscape:cy="157.4858"
   inkscape:window-width="1920"
   inkscape:window-height="1015"
   inkscape:window-x="0"
   inkscape:window-y="0"
   inkscape:window-maximized="1"
   inkscape:current-layer="Layer_2" />

<g
   id="g2029"
   transform="matrix(4.4457479,0,0,4.4457479,-0.59743308,-0.656296)"
   style="stroke-width:2.81168"><path
     id="path1319"
     style="fill:#000000;stroke-width:2.81168"
     d="M 45.581406,2.6245312 C 44.554075,2.632832 42.671214,2.9375132 39.64,4 A 38,38 0 0 0 30.4,9.22 c 0,0 -1.00006,-1.7800216 -6,-3.61 a 27.67,27.67 0 0 0 -8.49,-2 c -0.2,0.059999 0.14,1.6600288 0.49,4.06 0.35,2.399976 0.76,6.84 0.76,7 0,0.16 -1.220036,0.18 -4,0.16 -2.779964,-0.02 -8.8800048,-0.29 -9.3,-0.13 -0.4199952,0.16 -0.3999772,2.410048 1.5,6.46 a 28,28 0 0 0 4.5,6.77 c 0,0 -1.780024,1.350024 -3.76,2.98 a 23.31,23.31 0 0 0 -4.36,5.35 c -0.1599976,0.33 1.2600324,1.24 4,1.55 a 22.44,22.44 0 0 1 5.54,1.53 c 0,0 -0.780012,0.880012 -2.19,2.3 -1.4099832,1.419988 -5.1200036,7.550012 -5.41,8.18 -0.2899964,0.629988 0.5000084,1.44 1.21,1.44 0.7099916,0 9.380001,-0.37 9.88,-0.41 0.499999,-0.04 -1.54,6.56 -1.61,6.78 -0.07,0.22 1.350036,0.53 4,0.22 a 9.38,9.38 0 0 0 4.84,-2.53 8.49,8.49 0 0 0 2.34,1.86 12.66,12.66 0 0 0 4.54,1.21 c 0,0 0.15,2.42 0.23,2.7 0.08,0.28 1.2,0.28 1.66,0.28 a 9.27,9.27 0 0 1 1.58,0 2.09,2.09 0 0 0 1,0 4.88,4.88 0 0 1 1.57,0 0.92,0.92 0 0 0 0.87,-0.21 c 0.11,-0.18 0.11,-3 0.11,-3 a 7.38,7.38 0 0 0 1.61,-0.43 c 0.869988,-0.34 4.55,-2.28 4.55,-2.28 a 7.89,7.89 0 0 0 1.21,1 22.33,22.33 0 0 0 5.75,1.91 c 2.199976,0.39 3.59,-0.490012 3.73,-1 0.14,-0.509988 0.09,-7.18 0,-7.51 -0.09,-0.33 0.160048,-0.330024 4.25,-2.77 a 11.58,11.58 0 0 0 5.3,-7.38 c 0.04,-0.669988 -1.520036,-0.620012 -4.61,-1.26 -3.089964,-0.639988 -3.21,-1.54 -3.09,-1.71 0.12,-0.17 1.530036,-0.390048 4.74,-4.65 a 15.4,15.4 0 0 0 2.57,-10.52 c -0.17,-0.499999 -0.910012,-0.409988 -2.32,0.18 a 28.33,28.33 0 0 1 -4.06,1.36 c -0.17,-0.08 0.280024,-0.670048 2.16,-5 1.879976,-4.329952 1.51,-7.85 1.06,-7.85 -0.45,0 -4.720036,2.110012 -7.45,3 a 22,22 0 0 1 -6.59,1.09 C 44.29,14.22 46.74,3.1199964 46.57,2.83 46.50625,2.7212512 46.197812,2.6195519 45.581406,2.6245312 Z M 40.351562,6.8520313 C 40.381977,6.851897 40.406875,6.8768756 40.46,6.93 c 0.2,0.1999988 0.47,0.8700006 0.34,1 a 19.73,19.73 0 0 0 -3,1.31 c -0.949994,0.6299964 -1,1 -1.23,0.92 C 36.34,10.08 36.12,9.6699988 36,9.5 A 15.63,15.63 0 0 1 39.26,7.36 C 40.141244,7.0442206 40.26748,6.8524019 40.351562,6.8520313 Z M 19.7,7.48 a 21.08,21.08 0 0 1 3.67,1.38 c 0,0.1699998 0,0.88 -0.12,0.88 A 16.26,16.26 0 0 0 21.09,9.3 c 0,0.1199999 0.34,2 0.3,2.07 -0.04,0.07 -0.78,0.74 -0.86,0.63 A 42.8,42.8 0 0 1 19.7,7.48 Z m 11.110313,15.067344 c 0.590427,-0.0013 1.216878,0.01203 1.879687,0.04266 6.059976,0.28 8.9,1.3 8.9,1.64 0,0.34 0.21,0.87 0,0.87 A 28.74,28.74 0 0 0 32.41,24 43.37,43.37 0 0 0 23.54,25.27 C 23.2,25.17 23.28,24.13 23.36,24 c 0.222656,-0.463125 2.642531,-1.44191 7.450313,-1.452656 z m -4.900157,5.799687 C 27.90446,28.336802 30.125781,29.483849 30.05,32.75 c -0.1,4.309972 -5.390014,4.909986 -7.17,2.51 -1.779986,-2.399986 -0.879986,-5.680007 1.27,-6.58 0.508587,-0.208281 1.122804,-0.3297 1.760156,-0.332969 z m 11.584375,0.17875 C 39.665975,28.513428 42.088516,29.761047 41.99,33.3 c -0.13,4.66996 -5.860016,5.329976 -7.79,2.7 -1.929984,-2.629976 -0.999984,-6.140008 1.38,-7.11 0.55218,-0.227656 1.220567,-0.360271 1.914531,-0.364219 z M 16.48,41.42 a 26.38,26.38 0 0 1 0.7,4.85 c -0.12,0 -2.36,-0.27001 -2.38,-1.89 a 3.74,3.74 0 0 1 1.68,-2.96 z m 32.24,3.13e-4 c 0.592835,7.07e-4 2.076406,0.371411 1.77,1.969687 -0.37,1.929994 -2.79,2.61 -2.84,2.35 a 24.06,24.06 0 0 1 0.65,-2.33 c 0.28,-1.169997 -0.06,-1.7 0.19,-1.95 0.02234,-0.02406 0.106958,-0.03984 0.23,-0.03969 z M 33.680469,58.322031 C 34.069582,58.322773 34.26,58.35875 34.26,58.43 c 0,0.12 0.14,1.83 0,1.87 a 2.94,2.94 0 0 1 -1.53,0.06 2.87,2.87 0 0 0 -1.5,-0.32 c -0.41,0.08 -0.66,0.38 -0.79,0.21 a 6.4,6.4 0 0 1 -0.21,-1.88 c 0.12,-0.12 1.250002,0.08 2.37,0 0.455,-0.0325 0.814232,-0.04848 1.080469,-0.04797 z" /><path
     d="m 25.51,31.85 a 1.07,1.07 0 1 1 -0.32,1.7 1.12,1.12 0 0 1 0.32,-1.7 z"
     id="path1347"
     style="fill:#1d1d1b;stroke-width:2.81168" /><path
     d="m 37.27,32.29 a 1.07,1.07 0 1 1 -0.33,1.7 1.12,1.12 0 0 1 0.33,-1.7 z"
     id="path1349"
     style="fill:#1d1d1b;stroke-width:2.81168" /></g></svg>
