<?xml version="1.0" encoding="UTF-8" standalone="no"?>
<svg
   version="1.1"
   id="Layer_3"
   x="0px"
   y="0px"
   width="283.46px"
   height="283.46px"
   viewBox="0 0 283.46 283.46"
   enable-background="new 0 0 283.46 283.46"
   xml:space="preserve"
   sodipodi:docname="route.svg"
   inkscape:version="1.2.2 (b0a8486541, 2022-12-01)"
   xmlns:inkscape="http://www.inkscape.org/namespaces/inkscape"
   xmlns:sodipodi="http://sodipodi.sourceforge.net/DTD/sodipodi-0.dtd"
   xmlns="http://www.w3.org/2000/svg"
   xmlns:svg="http://www.w3.org/2000/svg"><defs
   id="defs15" /><sodipodi:namedview
   id="namedview13"
   pagecolor="#ffffff"
   bordercolor="#000000"
   borderopacity="0.25"
   inkscape:showpageshadow="2"
   inkscape:pageopacity="0.0"
   inkscape:pagecheckerboard="0"
   inkscape:deskcolor="#d1d1d1"
   showgrid="false"
   inkscape:zoom="0.37042264"
   inkscape:cx="-398.1938"
   inkscape:cy="-107.98476"
   inkscape:window-width="1920"
   inkscape:window-height="1015"
   inkscape:window-x="0"
   inkscape:window-y="0"
   inkscape:window-maximized="1"
   inkscape:current-layer="Layer_3" />

<path
   id="path237"
   style="fill:#000000;stroke-width:0.525723"
   d="m 52.700296,7.0834957 c -24.7415,0 -44.8612003,20.1202503 -44.8612003,44.8612403 0,24.10172 29.3505003,74.425824 35.2385003,84.261554 2.0188,3.37619 5.6529,5.45122 9.6011,5.46226 h 0.022 c 3.9256,0 7.5704,-2.05229 9.5892,-5.41692 5.8991,-9.74635 35.272,-59.599014 35.272,-84.306894 0,-24.74099 -20.1203,-44.8612403 -44.8619,-44.8612403 z m 0.4758,20.9566203 c 9.8877,10e-6 18.0271,8.13937 18.0271,18.02704 0,9.88767 -8.1394,18.02638 -18.0271,18.02638 -9.8877,3e-5 -18.027,-8.13869 -18.027,-18.02638 0,-9.88769 8.1393,-18.02706 18.027,-18.02704 z m 66.817404,57.55089 c -6.2019,0 -11.215,5.02473 -11.215,11.21564 0,6.190904 5.0124,11.215644 11.2144,11.215644 h 44.8619 c 6.1909,0 11.215,5.03564 11.215,11.21498 0,6.17987 -5.0241,11.21564 -11.215,11.21564 H 125.601 c -15.4662,0 -28.038804,12.58346 -28.038804,28.03812 0,3.09545 -2.523,5.60815 -5.6074,5.60815 h -39.2545 c -18.5501,0 -33.6462,15.09615 -33.6462,33.64626 0,18.55012 15.0961,33.64626 33.6462,33.64626 H 153.6391 c 6.202,0 11.2157,-5.02473 11.2157,-11.21564 0,-6.1909 -5.0132,-11.21498 -11.2157,-11.21498 H 52.700296 c -6.1909,0 -11.2149,-5.0363 -11.2149,-11.21564 0,-6.17934 5.024,-11.21564 11.2149,-11.21564 h 39.2545 c 15.466204,0 28.038104,-12.58346 28.038104,-28.03812 0,-3.09545 2.5237,-5.60815 5.6081,-5.60815 h 39.2538 c 18.5501,0 33.6462,-15.09614 33.6462,-33.64626 0,-18.55011 -15.0961,-33.646264 -33.6462,-33.646264 z m 110.7659,56.200434 c -24.7415,0 -44.8613,20.12025 -44.8613,44.86125 0,24.10171 29.3505,74.42582 35.2386,84.26155 2.0188,3.37618 5.6528,5.45122 9.601,5.46226 h 0.022 c 3.9255,0 7.5704,-2.05229 9.5891,-5.41692 5.8992,-9.74635 35.2721,-59.59902 35.2721,-84.30689 0,-24.741 -20.1204,-44.86125 -44.8619,-44.86125 z m 0.4758,20.95663 c 9.8876,0 18.027,8.13937 18.027,18.02704 0,9.88766 -8.1394,18.02638 -18.027,18.02638 -9.8877,2e-5 -18.0271,-8.1387 -18.0271,-18.02638 0,-9.88769 8.1394,-18.02706 18.0271,-18.02704 z" /></svg>
