<?xml version="1.0" encoding="UTF-8" standalone="no"?>
<svg
   version="1.1"
   id="Layer_3"
   x="0px"
   y="0px"
   width="283.46px"
   height="283.46px"
   viewBox="0 0 283.46 283.46"
   enable-background="new 0 0 283.46 283.46"
   xml:space="preserve"
   sodipodi:docname="row.svg"
   inkscape:version="1.2.2 (b0a8486541, 2022-12-01)"
   xmlns:inkscape="http://www.inkscape.org/namespaces/inkscape"
   xmlns:sodipodi="http://sodipodi.sourceforge.net/DTD/sodipodi-0.dtd"
   xmlns="http://www.w3.org/2000/svg"
   xmlns:svg="http://www.w3.org/2000/svg"><defs
   id="defs15" /><sodipodi:namedview
   id="namedview13"
   pagecolor="#ffffff"
   bordercolor="#000000"
   borderopacity="0.25"
   inkscape:showpageshadow="2"
   inkscape:pageopacity="0.0"
   inkscape:pagecheckerboard="0"
   inkscape:deskcolor="#d1d1d1"
   showgrid="false"
   inkscape:zoom="0.37042264"
   inkscape:cx="-201.12161"
   inkscape:cy="467.03408"
   inkscape:window-width="1920"
   inkscape:window-height="1015"
   inkscape:window-x="0"
   inkscape:window-y="0"
   inkscape:window-maximized="1"
   inkscape:current-layer="Layer_3" />

<path
   id="path233"
   d="m 16.059696,92.359506 c -4.955,0 -8.9762003,4.021227 -8.9762003,8.976214 v 2.24454 c 0,4.95499 4.0212003,8.97622 8.9762003,8.97622 3.052,0 5.7447,-1.52581 7.3694,-3.85071 2.3249,-1.62473 3.8514,-4.31807 3.8514,-7.37005 0,-4.954987 -4.0219,-8.976214 -8.9769,-8.976214 z m 29.1732,0 c -4.955,0 -8.9762,4.021227 -8.9762,8.976214 0,4.95499 4.0212,8.97687 8.9762,8.97687 h 4.4884 c 4.955,0 8.9762,-4.02188 8.9762,-8.97687 0,-4.954987 -4.0212,-8.976214 -8.9762,-8.976214 z m 31.4177,0 c -4.955,0 -8.9762,4.021227 -8.9762,8.976214 0,4.95499 4.0212,8.97687 8.9762,8.97687 h 4.4885 c 4.9549,0 8.9762,-4.02188 8.9762,-8.97687 0,-4.954987 -4.0213,-8.976214 -8.9762,-8.976214 z m 31.417804,0 c -4.955,0 -8.976904,4.021227 -8.976904,8.976214 0,4.95499 4.021904,8.97687 8.976904,8.97687 h 4.4877 c 4.955,0 8.9769,-4.02188 8.9769,-8.97687 0,-4.954987 -4.0219,-8.976214 -8.9769,-8.976214 z m 31.417,0 c -4.955,0 -8.9762,4.021227 -8.9762,8.976214 0,4.95499 4.0212,8.97687 8.9762,8.97687 h 4.4885 c 4.955,0 8.9762,-4.02188 8.9762,-8.97687 0,-4.954987 -4.0212,-8.976214 -8.9762,-8.976214 z m 31.4178,0 c -4.955,0 -8.9762,4.021227 -8.9762,8.976214 0,4.95499 4.0212,8.97687 8.9762,8.97687 h 4.4884 c 4.955,0 8.9762,-4.02188 8.9762,-8.97687 0,-4.954987 -4.0212,-8.976214 -8.9762,-8.976214 z m 31.4177,0 c -4.955,0 -8.9769,4.021227 -8.9769,8.976214 0,4.95499 4.0219,8.97687 8.9769,8.97687 h 4.4878 c 4.955,0 8.9769,-4.02188 8.9769,-8.97687 0,-4.954987 -4.0219,-8.976214 -8.9769,-8.976214 z m 31.4171,0 c -4.955,0 -8.9762,4.021227 -8.9762,8.976214 0,4.95499 4.0212,8.97687 8.9762,8.97687 h 4.4884 c 4.955,0 8.9762,-4.02188 8.9762,-8.97687 0,-4.954987 -4.0212,-8.976214 -8.9762,-8.976214 z m 31.4177,0 c -4.955,0 -8.9762,4.021227 -8.9762,8.976214 0,3.05198 1.5258,5.74532 3.8507,7.37005 1.6247,2.3249 4.3174,3.85071 7.3694,3.85071 4.955,0 8.9769,-4.02123 8.9769,-8.97622 v -2.24454 c 0,-4.954987 -4.0219,-8.976214 -8.9769,-8.976214 z M 16.059696,117.4933 c -4.955,0 -8.9762003,4.02189 -8.9762003,8.97687 v 3.81455 c 0,4.95498 4.0212003,8.97687 8.9762003,8.97687 4.955,0 8.9762,-4.0174 8.9762,-8.97687 v -3.81455 c 0,-4.95498 -4.0212,-8.97687 -8.9762,-8.97687 z m 251.339904,0 c -4.955,0 -8.9762,4.02189 -8.9762,8.97687 v 3.80995 c 0,4.95498 4.0212,8.97686 8.9762,8.97686 4.955,0 8.9769,-4.01728 8.9769,-8.97226 v -3.81455 c 0,-4.95498 -4.0219,-8.97687 -8.9769,-8.97687 z m 0,26.7005 c -4.955,0 -8.9762,4.02123 -8.9762,8.97622 v 3.8152 c 0,4.95499 4.0212,8.97622 8.9762,8.97622 4.955,0 8.9769,-4.01675 8.9769,-8.97622 v -3.8152 c 0,-4.95499 -4.0219,-8.97622 -8.9769,-8.97622 z m -251.339904,0.005 c -4.955,0 -8.9762003,4.02123 -8.9762003,8.97622 v 3.8152 c 0,4.95499 4.0212003,8.97621 8.9762003,8.97621 4.955,0 8.9762,-4.01674 8.9762,-8.97621 v -3.8152 c 0,-4.95499 -4.0212,-8.97622 -8.9762,-8.97622 z m 0,26.70511 c -4.955,0 -8.9762003,4.02123 -8.9762003,8.97621 v 2.24389 c 0,4.95499 4.0212003,8.97688 8.9762003,8.97688 h 2.2439 c 4.955,0 8.9769,-4.02189 8.9769,-8.97688 0,-3.05198 -1.5265,-5.74466 -3.8514,-7.36939 -1.6247,-2.3249 -4.3174,-3.85071 -7.3694,-3.85071 z m 251.339904,0 c -3.052,0 -5.7447,1.52581 -7.3694,3.85071 -2.3249,1.62473 -3.8507,4.31741 -3.8507,7.36939 0,4.95499 4.0212,8.97688 8.9762,8.97688 h 2.2439 c 4.955,0 8.9769,-4.02189 8.9769,-8.97688 v -2.24389 c 0,-4.95498 -4.0219,-8.97621 -8.9769,-8.97621 z M 45.232896,173.1474 c -4.955,0 -8.9762,4.02123 -8.9762,8.97621 0,4.95499 4.0212,8.97688 8.9762,8.97688 h 4.4884 c 4.955,0 8.9762,-4.02189 8.9762,-8.97688 0,-4.95498 -4.0212,-8.97621 -8.9762,-8.97621 z m 31.4177,0 c -4.955,0 -8.9762,4.02123 -8.9762,8.97621 0,4.95499 4.0212,8.97688 8.9762,8.97688 h 4.4885 c 4.9549,0 8.9762,-4.02189 8.9762,-8.97688 0,-4.95498 -4.0213,-8.97621 -8.9762,-8.97621 z m 31.417804,0 c -4.955,0 -8.976904,4.02123 -8.976904,8.97621 0,4.95499 4.021904,8.97688 8.976904,8.97688 h 4.4877 c 4.955,0 8.9769,-4.02189 8.9769,-8.97688 0,-4.95498 -4.0219,-8.97621 -8.9769,-8.97621 z m 31.417,0 c -4.955,0 -8.9762,4.02123 -8.9762,8.97621 0,4.95499 4.0212,8.97688 8.9762,8.97688 h 4.4885 c 4.955,0 8.9762,-4.02189 8.9762,-8.97688 0,-4.95498 -4.0212,-8.97621 -8.9762,-8.97621 z m 31.4178,0 c -4.955,0 -8.9762,4.02123 -8.9762,8.97621 0,4.95499 4.0212,8.97688 8.9762,8.97688 h 4.4884 c 4.955,0 8.9762,-4.02189 8.9762,-8.97688 0,-4.95498 -4.0212,-8.97621 -8.9762,-8.97621 z m 31.4177,0 c -4.955,0 -8.9769,4.02123 -8.9769,8.97621 0,4.95499 4.0219,8.97688 8.9769,8.97688 h 4.4878 c 4.955,0 8.9769,-4.02189 8.9769,-8.97688 0,-4.95498 -4.0219,-8.97621 -8.9769,-8.97621 z m 31.4171,0 c -4.955,0 -8.9762,4.02123 -8.9762,8.97621 0,4.95499 4.0212,8.97688 8.9762,8.97688 h 4.4884 c 4.955,0 8.9762,-4.02189 8.9762,-8.97688 0,-4.95498 -4.0212,-8.97621 -8.9762,-8.97621 z"
   style="fill:#000000;stroke-width:4.48822" /></svg>
