<?xml version="1.0" encoding="UTF-8" standalone="no"?>
<!-- Generator: Adobe Illustrator 15.1.0, SVG Export Plug-In . SVG Version: 6.00 Build 0)  -->

<svg
   version="1.1"
   id="Layer_2"
   x="0px"
   y="0px"
   width="283.46px"
   height="283.46px"
   viewBox="0 0 283.46 283.46"
   enable-background="new 0 0 283.46 283.46"
   xml:space="preserve"
   sodipodi:docname="gps-signal-4.svg"
   inkscape:version="1.2.2 (b0a8486541, 2022-12-01)"
   xmlns:inkscape="http://www.inkscape.org/namespaces/inkscape"
   xmlns:sodipodi="http://sodipodi.sourceforge.net/DTD/sodipodi-0.dtd"
   xmlns="http://www.w3.org/2000/svg"
   xmlns:svg="http://www.w3.org/2000/svg"><defs
   id="defs10366" /><sodipodi:namedview
   id="namedview10364"
   pagecolor="#ffffff"
   bordercolor="#000000"
   borderopacity="0.25"
   inkscape:showpageshadow="2"
   inkscape:pageopacity="0.0"
   inkscape:pagecheckerboard="0"
   inkscape:deskcolor="#d1d1d1"
   showgrid="false"
   inkscape:zoom="0.52385673"
   inkscape:cx="-98.309322"
   inkscape:cy="343.6054"
   inkscape:window-width="1920"
   inkscape:window-height="1015"
   inkscape:window-x="0"
   inkscape:window-y="0"
   inkscape:window-maximized="1"
   inkscape:current-layer="Layer_2" />

<g
   id="g13599"
   transform="matrix(11.220542,0,0,11.220542,7.0834917,7.0834917)"><path
     d="M 1,9 H 0 A 15.018,15.018 0 0 0 15,24 V 23 A 14.015,14.015 0 0 1 1,9 Z M 5,9 H 4 A 11.007,11.007 0 0 0 15,20 V 19 A 10.016,10.016 0 0 1 5,9 Z M 9,9 H 8 a 7.008,7.008 0 0 0 7,7 V 15 A 6.005,6.005 0 0 1 9,9 Z m 15,5.29 -4.5,-4.5 -1,1 -1.29,-1.29 2,-2 -2.71,-2.71 -2,2 -1.29,-1.29 1,-1 L 9.71,0 H 9.29 l -2.5,2.5 4.71,4.71 1,-1 1.29,1.29 -2,2 2.71,2.71 2,-2 1.29,1.29 -1,1 4.71,4.71 2.5,-2.5 z"
     id="path13587" /><path
     fill="none"
     d="M 0,0 H 24 V 24 H 0 Z"
     id="path13589" /></g></svg>
