<?xml version="1.0" encoding="UTF-8" standalone="no"?>
<!-- Generator: Adobe Illustrator 15.1.0, SVG Export Plug-In . SVG Version: 6.00 Build 0)  -->

<svg
   version="1.1"
   id="Layer_1"
   x="0px"
   y="0px"
   width="283.464px"
   height="283.464px"
   viewBox="0 0 283.464 283.464"
   enable-background="new 0 0 283.464 283.464"
   xml:space="preserve"
   sodipodi:docname="scan.svg"
   inkscape:version="1.2.2 (b0a8486541, 2022-12-01)"
   xmlns:inkscape="http://www.inkscape.org/namespaces/inkscape"
   xmlns:sodipodi="http://sodipodi.sourceforge.net/DTD/sodipodi-0.dtd"
   xmlns="http://www.w3.org/2000/svg"
   xmlns:svg="http://www.w3.org/2000/svg"><defs
   id="defs19" /><sodipodi:namedview
   id="namedview17"
   pagecolor="#ffffff"
   bordercolor="#000000"
   borderopacity="0.25"
   inkscape:showpageshadow="2"
   inkscape:pageopacity="0.0"
   inkscape:pagecheckerboard="0"
   inkscape:deskcolor="#d1d1d1"
   showgrid="false"
   inkscape:zoom="0.092604356"
   inkscape:cx="1754.7771"
   inkscape:cy="928.68201"
   inkscape:window-width="1920"
   inkscape:window-height="1015"
   inkscape:window-x="0"
   inkscape:window-y="0"
   inkscape:window-maximized="1"
   inkscape:current-layer="Layer_1" />

<path
   id="path504"
   d="M 34.525391 9.3964844 C 30.025433 9.3964844 26.380859 13.046011 26.380859 17.542969 L 26.380859 244.89648 C 26.380859 249.39348 30.025433 253.04102 34.525391 253.04102 L 41.470703 253.04102 L 41.470703 30.367188 C 41.472703 22.881254 47.559998 16.791026 55.044922 16.791016 L 174.30664 16.791016 L 169.29688 11.78125 C 167.76488 10.255266 165.69225 9.3964844 163.53125 9.3964844 L 34.525391 9.3964844 z M 55.044922 22.21875 C 50.544964 22.21875 46.898438 25.87023 46.898438 30.367188 L 46.898438 257.7207 C 46.898438 262.21769 50.544964 265.86523 55.044922 265.86523 L 61.986328 265.86523 L 61.988281 43.189453 C 61.988281 35.703537 68.076623 29.613281 75.560547 29.613281 L 194.82227 29.613281 L 189.81445 24.605469 C 188.28046 23.079487 186.20983 22.21875 184.04883 22.21875 L 55.044922 22.21875 z M 75.560547 35.042969 C 71.060579 35.042969 67.416016 38.692503 67.416016 43.189453 L 67.416016 270.54297 C 67.416016 275.03887 71.060579 278.6875 75.560547 278.6875 L 250.76367 278.6875 C 255.26167 278.6875 258.90625 275.04087 258.90625 270.54297 L 258.90625 89.382812 C 258.90625 87.222836 258.04833 85.151974 256.52734 83.625 L 210.33008 37.427734 C 208.79908 35.90176 206.72632 35.042969 204.56641 35.042969 L 75.560547 35.042969 z M 206.41602 48.318359 L 247.40234 87.441406 L 206.48438 87.441406 L 206.41602 48.318359 z M 159.57227 124.64062 C 171.85685 124.64064 184.14153 129.31573 193.49023 138.66602 C 210.73381 155.90953 212.04291 183.10551 197.47461 201.91406 L 202.5332 206.9707 C 205.9437 206.33231 209.57711 207.24819 212.18945 209.85352 A 3.0141489 3.0141489 0 0 1 212.19141 209.85742 L 242.82031 240.49414 C 247.04403 244.69613 247.03767 251.62676 242.82617 255.8457 A 3.0141489 3.0141489 0 0 1 242.82227 255.84961 C 238.60529 260.05148 231.68887 260.05423 227.47852 255.84766 A 3.0141489 3.0141489 0 0 1 227.47656 255.8457 L 196.85156 225.20703 L 196.84961 225.20508 C 194.2338 222.59125 193.32395 218.95578 193.95898 215.54492 L 188.89648 210.48242 C 170.09206 225.05386 142.90847 223.73618 125.66211 206.49219 C 106.9544 187.81394 106.9553 157.36819 125.65039 138.66602 A 3.0141489 3.0141489 0 0 1 125.65039 138.66406 C 135.00234 129.31437 147.28763 124.64063 159.57227 124.64062 z M 159.57227 128.64453 C 148.32659 128.64454 137.07956 132.93429 128.49805 141.51367 C 111.3435 158.67474 111.34374 186.50645 128.50781 203.64258 A 1.0141015 1.0141015 0 0 1 128.50977 203.64258 C 144.96326 220.09561 171.20706 220.78038 188.46484 205.69141 A 1.0141015 1.0141015 0 0 1 189.84961 205.73828 L 197.97656 213.86719 A 1.0141015 1.0141015 0 0 1 198.19922 214.96289 C 197.1975 217.44204 197.69042 220.35307 199.69727 222.35742 L 230.32422 252.99805 C 232.98868 255.66 237.30272 255.66026 239.97656 252.99805 L 239.97852 252.99609 C 242.64507 250.32292 242.64231 245.99775 239.97852 243.34766 A 1.0141015 1.0141015 0 0 1 239.97656 243.34766 L 209.34375 212.70703 C 207.34619 210.71488 204.41785 210.21378 201.95703 211.21484 A 1.0141015 1.0141015 0 0 1 200.85742 210.99219 L 192.73047 202.86523 A 1.0141015 1.0141015 0 0 1 192.68359 201.48047 C 207.76748 184.21987 207.0914 157.9625 190.64258 141.51367 C 182.06437 132.93407 170.81815 128.64452 159.57227 128.64453 z M 159.57422 133.84961 C 169.9162 133.84961 179.65584 137.88289 186.96289 145.18945 C 187.39634 145.62314 187.77309 146.09018 188.18164 146.53906 C 188.27402 146.64031 188.36592 146.74176 188.45703 146.84375 C 189.22054 147.7006 189.93916 148.58031 190.61328 149.48633 C 190.73624 149.65113 190.85852 149.8161 190.97852 149.98242 C 191.59853 150.84415 192.17813 151.7239 192.71875 152.62305 C 192.8533 152.84613 192.98558 153.06972 193.11523 153.29492 C 193.58418 154.11201 194.02313 154.93882 194.42773 155.78125 C 194.60051 156.13972 194.76662 156.50069 194.92773 156.86328 C 195.25858 157.61068 195.56436 158.36397 195.8457 159.12695 C 196.01873 159.59411 196.18344 160.06289 196.33789 160.53516 C 196.54765 161.17961 196.74278 161.82587 196.91797 162.47852 C 197.08661 163.10311 197.23999 163.73051 197.37695 164.36133 C 197.48932 164.88249 197.59284 165.40316 197.68359 165.92773 C 197.81422 166.67619 197.9212 167.42798 198.00781 168.18164 C 198.05574 168.60426 198.10068 169.0255 198.13477 169.44922 C 198.20952 170.36093 198.25299 171.27333 198.26367 172.1875 C 198.26596 172.41237 198.27111 172.63645 198.26953 172.86133 C 198.2636 173.93339 198.21318 175.00557 198.11914 176.07422 C 198.109 176.18754 198.10293 176.30082 198.0918 176.41406 C 197.25631 185.04504 193.54535 193.44578 186.95508 200.03711 C 179.64808 207.34558 169.90852 211.37891 159.56641 211.37891 C 149.2243 211.37891 139.48223 207.34698 132.17383 200.03906 C 124.86522 192.73387 120.83252 182.99075 120.83203 172.64453 C 120.83203 171.3313 120.89892 170.02833 121.02734 168.73828 C 121.15073 167.4988 121.33118 166.27186 121.57031 165.06055 C 121.57246 165.04956 121.57401 165.03833 121.57617 165.02734 C 121.59348 164.93939 121.61686 164.85341 121.63477 164.76562 C 121.8568 163.68543 122.12333 162.61865 122.43555 161.56641 C 122.50009 161.3476 122.57028 161.13154 122.63867 160.91406 C 122.92045 160.02292 123.23444 159.14234 123.58008 158.27539 C 123.73216 157.89223 123.89422 157.51476 124.05859 157.13672 C 124.36578 156.43307 124.69368 155.73928 125.04297 155.05469 C 125.29674 154.55548 125.56401 154.06453 125.83984 153.57617 C 126.14948 153.0298 126.47363 152.4909 126.81055 151.95898 C 127.18538 151.36533 127.57803 150.78352 127.98633 150.20898 C 128.27282 149.80706 128.56646 149.4096 128.86914 149.01758 C 129.38217 148.35115 129.91945 147.70269 130.47852 147.06641 C 130.72433 146.7874 130.97396 146.51118 131.22852 146.23828 C 131.55122 145.89139 131.84497 145.52424 132.18164 145.1875 C 132.54635 144.82294 132.94372 144.50441 133.32031 144.15625 C 133.4906 143.99915 133.66134 143.84318 133.83398 143.68945 C 134.66817 142.94512 135.52757 142.24236 136.41406 141.57812 C 136.49202 141.51983 136.5701 141.46196 136.64844 141.4043 C 137.6173 140.68967 138.61234 140.0235 139.63672 139.40625 C 139.66648 139.38836 139.69676 139.37133 139.72656 139.35352 C 145.67017 135.79403 152.46962 133.84961 159.57422 133.84961 z " /><path
   d="m 135.39852,160.91776 c 0.33088,-0.009 0.66272,0.0485 0.96875,0.17578 0.13538,0.0238 0.2806,0.0754 0.39453,0.125 1.12545,0.4519 1.70171,1.65005 1.46289,2.82031 -0.021,0.0748 -0.0103,0.14344 -0.0312,0.21875 -0.28601,0.96243 -0.49365,1.92809 -0.6543,2.90625 -1.21936,7.41914 1.1531,15.11041 6.62305,20.57227 4.8784,4.88315 11.63036,7.37426 18.43359,6.90234 1.29754,-0.11964 2.45989,0.78399 2.67774,2.06055 0.0467,0.10916 0.0694,0.19662 0.0898,0.31055 0.0567,0.34226 0.0404,0.69557 -0.043,1.02734 -0.0257,0.0839 -0.0869,0.15159 -0.10742,0.24023 -0.093,0.23882 -0.17677,0.47696 -0.33789,0.67383 -0.2126,0.28506 -0.48313,0.51419 -0.77344,0.67578 -0.30651,0.17638 -0.64468,0.27909 -0.99218,0.31055 -8.37537,0.58156 -16.68553,-2.44834 -22.68555,-8.45312 -5.69828,-5.70355 -8.6655,-13.37749 -8.50391,-21.14649 0.0677,-2.59603 0.46487,-5.19216 1.22852,-7.73242 0.20736,-0.64353 0.67552,-1.17722 1.28711,-1.45703 0.30103,-0.1442 0.63201,-0.22112 0.96289,-0.23047 z"
   id="path372"
   style="fill:#000000;fill-opacity:1" /></svg>
