<?xml version="1.0" encoding="UTF-8" standalone="no"?>
<!-- Generator: Adobe Illustrator 15.1.0, SVG Export Plug-In . SVG Version: 6.00 Build 0)  -->

<svg
   version="1.1"
   id="Layer_1"
   x="0px"
   y="0px"
   width="283.464px"
   height="283.464px"
   viewBox="0 0 283.464 283.464"
   enable-background="new 0 0 283.464 283.464"
   xml:space="preserve"
   sodipodi:docname="scan.svg"
   inkscape:version="1.2.2 (b0a8486541, 2022-12-01)"
   xmlns:inkscape="http://www.inkscape.org/namespaces/inkscape"
   xmlns:sodipodi="http://sodipodi.sourceforge.net/DTD/sodipodi-0.dtd"
   xmlns="http://www.w3.org/2000/svg"
   xmlns:svg="http://www.w3.org/2000/svg"><defs
   id="defs19" /><sodipodi:namedview
   id="namedview17"
   pagecolor="#ffffff"
   bordercolor="#000000"
   borderopacity="0.25"
   inkscape:showpageshadow="2"
   inkscape:pageopacity="0.0"
   inkscape:pagecheckerboard="0"
   inkscape:deskcolor="#d1d1d1"
   showgrid="false"
   inkscape:zoom="1.4816697"
   inkscape:cx="214.28527"
   inkscape:cy="74.915482"
   inkscape:window-width="1920"
   inkscape:window-height="1015"
   inkscape:window-x="0"
   inkscape:window-y="0"
   inkscape:window-maximized="1"
   inkscape:current-layer="Layer_1" />

<path
   id="path504"
   d="M 34.525391 9.3964844 C 30.025429 9.3964844 26.380859 13.046007 26.380859 17.542969 L 26.380859 244.89648 C 26.380859 249.39348 30.025429 253.04102 34.525391 253.04102 L 41.470703 253.04102 L 41.470703 30.367188 C 41.472703 22.881247 47.559991 16.791026 55.044922 16.791016 L 174.30664 16.791016 L 169.29688 11.78125 C 167.76488 10.255264 165.69225 9.3964844 163.53125 9.3964844 L 34.525391 9.3964844 z M 55.044922 22.21875 C 50.54496 22.21875 46.898438 25.870226 46.898438 30.367188 L 46.898438 257.7207 C 46.898438 262.21769 50.54496 265.86523 55.044922 265.86523 L 61.986328 265.86523 L 61.988281 43.189453 C 61.988281 35.703529 68.076616 29.613281 75.560547 29.613281 L 194.82227 29.613281 L 189.81445 24.605469 C 188.28046 23.079486 186.20983 22.21875 184.04883 22.21875 L 55.044922 22.21875 z M 75.560547 35.042969 C 71.060575 35.042969 67.416016 38.692498 67.416016 43.189453 L 67.416016 270.54297 C 67.416016 275.03888 71.060575 278.6875 75.560547 278.6875 L 250.76367 278.6875 C 255.26167 278.6875 258.90625 275.04088 258.90625 270.54297 L 258.90625 89.382812 C 258.90625 87.222833 258.04833 85.151976 256.52734 83.625 L 210.33008 37.427734 C 208.79908 35.901758 206.72633 35.042969 204.56641 35.042969 L 75.560547 35.042969 z M 206.41602 48.318359 L 247.40234 87.441406 L 206.48438 87.441406 L 206.41602 48.318359 z M 159.57227 124.64062 C 171.85687 124.64064 184.14152 129.31573 193.49023 138.66602 C 210.73382 155.90955 212.04293 183.10549 197.47461 201.91406 L 202.5332 206.9707 C 205.9437 206.33231 209.5771 207.24819 212.18945 209.85352 A 3.0141489 3.0141489 0 0 1 212.19141 209.85742 L 242.82031 240.49414 C 247.04403 244.69613 247.03767 251.62675 242.82617 255.8457 A 3.0141489 3.0141489 0 0 1 242.82227 255.84961 C 238.60529 260.05148 231.68888 260.05424 227.47852 255.84766 A 3.0141489 3.0141489 0 0 1 227.47656 255.8457 L 196.85156 225.20703 L 196.84961 225.20508 C 194.2338 222.59125 193.32394 218.95578 193.95898 215.54492 L 188.89648 210.48242 C 170.09204 225.05387 142.90849 223.7362 125.66211 206.49219 C 106.95438 187.81392 106.95528 157.36821 125.65039 138.66602 A 3.0141489 3.0141489 0 0 1 125.65039 138.66406 C 135.00235 129.31436 147.28762 124.64063 159.57227 124.64062 z M 159.57227 128.64453 C 148.32658 128.64454 137.07957 132.93428 128.49805 141.51367 C 111.34349 158.67476 111.34372 186.50643 128.50781 203.64258 A 1.0141015 1.0141015 0 0 1 128.50977 203.64258 C 144.96328 220.09563 171.20704 220.7804 188.46484 205.69141 A 1.0141015 1.0141015 0 0 1 189.84961 205.73828 L 197.97656 213.86719 A 1.0141015 1.0141015 0 0 1 198.19922 214.96289 C 197.1975 217.44204 197.69042 220.35307 199.69727 222.35742 L 230.32422 252.99805 C 232.98868 255.66001 237.30271 255.66027 239.97656 252.99805 L 239.97852 252.99609 C 242.64508 250.32291 242.64232 245.99776 239.97852 243.34766 A 1.0141015 1.0141015 0 0 1 239.97656 243.34766 L 209.34375 212.70703 C 207.34619 210.71488 204.41785 210.21378 201.95703 211.21484 A 1.0141015 1.0141015 0 0 1 200.85742 210.99219 L 192.73047 202.86523 A 1.0141015 1.0141015 0 0 1 192.68359 201.48047 C 207.76749 184.21985 207.09142 157.96251 190.64258 141.51367 C 182.06436 132.93406 170.81817 128.64452 159.57227 128.64453 z M 159.57422 133.84961 C 169.91621 133.84961 179.65583 137.88288 186.96289 145.18945 C 202.05685 160.29172 202.05709 184.88189 186.96289 199.97852 C 179.65588 207.287 169.91634 211.32031 159.57422 211.32031 C 149.2321 211.32031 139.49005 207.28839 132.18164 199.98047 C 124.87302 192.67527 120.84033 182.93217 120.83984 172.58594 C 120.83984 162.24014 124.8732 152.49741 132.18164 145.1875 C 139.49008 137.88197 149.23176 133.84961 159.57422 133.84961 z M 159.57422 138.67773 C 150.5134 138.67773 141.99711 142.20256 135.5957 148.60156 C 129.19384 155.0044 125.66797 163.52131 125.66797 172.58594 C 125.66797 181.65009 129.19384 190.16738 135.5957 196.56641 C 141.99807 202.96827 150.51388 206.49219 159.57422 206.49219 C 168.63456 206.49219 177.14789 202.96827 183.54883 196.56641 C 196.76728 183.34508 196.76728 161.82766 183.54883 148.60156 C 177.14837 142.20208 168.63456 138.67773 159.57422 138.67773 z M 136.04297 160.53125 C 136.37385 160.5219 136.70569 160.57976 137.01172 160.70703 C 137.1471 160.73087 137.29232 160.78246 137.40625 160.83203 C 138.5317 161.28393 139.10796 162.48208 138.86914 163.65234 C 138.84817 163.72718 138.85886 163.79578 138.83789 163.87109 C 138.55188 164.83352 138.34424 165.79918 138.18359 166.77734 C 136.96423 174.19648 139.33669 181.88775 144.80664 187.34961 C 149.68504 192.23276 156.437 194.72387 163.24023 194.25195 C 164.53777 194.13231 165.70012 195.03594 165.91797 196.3125 C 165.96468 196.42166 165.98732 196.50912 166.00781 196.62305 C 166.06454 196.96531 166.04826 197.31862 165.96484 197.65039 C 165.9391 197.73429 165.87792 197.80198 165.85742 197.89062 C 165.76447 198.12944 165.68065 198.36758 165.51953 198.56445 C 165.30693 198.84951 165.0364 199.07864 164.74609 199.24023 C 164.43958 199.41661 164.10141 199.51932 163.75391 199.55078 C 155.37854 200.13234 147.06838 197.10244 141.06836 191.09766 C 135.37008 185.39411 132.40286 177.72017 132.56445 169.95117 C 132.63214 167.35514 133.02932 164.75901 133.79297 162.21875 C 134.00033 161.57522 134.46849 161.04153 135.08008 160.76172 C 135.38111 160.61752 135.71209 160.5406 136.04297 160.53125 z " /></svg>
