<?xml version="1.0" encoding="UTF-8" standalone="no"?>
<!-- Generator: Adobe Illustrator 15.1.0, SVG Export Plug-In . SVG Version: 6.00 Build 0)  -->

<svg
   version="1.1"
   id="Layer_2"
   x="0px"
   y="0px"
   width="283.46px"
   height="283.46px"
   viewBox="0 0 283.46 283.46"
   style="enable-background:new 0 0 283.46 283.46;"
   xml:space="preserve"
   sodipodi:docname="screenshot-view-port.svg"
   inkscape:version="1.2.2 (b0a8486541, 2022-12-01)"
   xmlns:inkscape="http://www.inkscape.org/namespaces/inkscape"
   xmlns:sodipodi="http://sodipodi.sourceforge.net/DTD/sodipodi-0.dtd"
   xmlns="http://www.w3.org/2000/svg"
   xmlns:svg="http://www.w3.org/2000/svg"><path
   id="rect529-3"
   style="enable-background:new 0 0 283.46 283.46;fill-rule:evenodd;stroke-width:13.0781;stroke-linecap:round;stroke-linejoin:round;paint-order:stroke fill markers"
   d="M 641.15168 -192.47001 L 641.15168 607.5299 L 1441.1516 607.5299 L 1441.1516 -192.47001 L 641.15168 -192.47001 z M 722.8877 -143.70227 L 910.38677 -143.70227 A 24.999999 24.999999 0 0 1 935.35957 -118.72947 A 24.999999 24.999999 0 0 1 910.38677 -93.721855 L 747.8605 -93.721855 L 747.8605 68.775407 A 24.999999 24.999999 0 0 1 722.8877 93.748206 A 24.999999 24.999999 0 0 1 697.88009 68.775407 L 697.88009 -118.72947 A 25.002498 25.002498 0 0 1 722.8877 -143.70227 z M 1193.3673 -143.70227 L 1380.8664 -143.70227 A 25.002498 25.002498 0 0 1 1405.874 -118.72947 L 1405.874 68.775407 A 24.999999 24.999999 0 0 1 1380.8664 93.777217 A 24.999999 24.999999 0 0 1 1355.8646 68.775407 L 1355.8646 -93.721855 L 1193.3673 -93.721855 A 24.999999 24.999999 0 0 1 1168.3597 -118.72947 A 24.999999 24.999999 0 0 1 1193.3673 -143.70227 z M 977.71585 1.4753376 L 1104.5874 1.4753376 C 1118.362 1.4753376 1130.2325 8.9774285 1135.8788 19.839396 L 1136.0819 19.578296 L 1178.3048 73.800138 L 1178.5833 73.800138 C 1231.8354 73.800138 1275.0047 107.62369 1275.0047 149.34518 L 1275.0047 338.03951 C 1275.0047 379.75925 1231.8296 413.58455 1178.5775 413.58455 L 903.72001 413.58455 C 850.46614 413.58455 807.29854 379.75925 807.29854 338.03951 L 807.29854 149.34518 C 807.29854 107.62369 850.46788 73.800138 903.72001 73.800138 L 904.30023 73.800138 L 946.52306 19.572494 L 946.54627 19.607307 C 952.23951 8.8721244 964.04199 1.4753376 977.71585 1.4753376 z M 1041.1516 139.14486 C 983.50191 139.14486 936.60125 186.04319 936.60125 243.68944 C 936.60125 301.33915 983.50191 348.23983 1041.1516 348.23983 C 1098.8031 348.23983 1145.7078 301.33915 1145.7078 243.68944 C 1145.7078 186.04319 1098.8031 139.14486 1041.1516 139.14486 z M 1041.1516 175.98902 A 67.704207 67.704207 0 0 1 1108.8579 243.68944 A 67.704207 67.704207 0 0 1 1041.1516 311.39567 A 67.704207 67.704207 0 0 1 973.44541 243.68944 A 67.704207 67.704207 0 0 1 1041.1516 175.98902 z M 1380.8664 333.3397 A 24.999999 24.999999 0 0 1 1405.874 358.34731 L 1405.874 545.84639 A 25.002498 25.002498 0 0 1 1380.8664 570.81918 L 1193.3673 570.81918 A 24.999999 24.999999 0 0 1 1168.3597 545.84639 A 24.999999 24.999999 0 0 1 1193.3673 520.83877 L 1355.8588 520.83877 L 1355.8588 358.34731 A 24.999999 24.999999 0 0 1 1380.8664 333.3397 z M 722.8877 333.36871 A 24.999999 24.999999 0 0 1 747.8605 358.34731 L 747.8605 520.83877 L 910.38677 520.83877 A 24.999999 24.999999 0 0 1 935.35957 545.84639 A 24.999999 24.999999 0 0 1 910.38677 570.81918 L 722.8877 570.81918 A 25.002498 25.002498 0 0 1 697.88009 545.84639 L 697.88009 358.34731 A 24.999999 24.999999 0 0 1 722.8877 333.36871 z "
   transform="matrix(0.33661625,0,0,0.33661625,-208.73809,71.872518)" /><defs
   id="defs196" /><sodipodi:namedview
   id="namedview194"
   pagecolor="#ffffff"
   bordercolor="#000000"
   borderopacity="0.25"
   inkscape:showpageshadow="2"
   inkscape:pageopacity="0.0"
   inkscape:pagecheckerboard="0"
   inkscape:deskcolor="#d1d1d1"
   showgrid="false"
   inkscape:zoom="1.4816906"
   inkscape:cx="116.75852"
   inkscape:cy="236.21665"
   inkscape:window-width="1920"
   inkscape:window-height="1015"
   inkscape:window-x="0"
   inkscape:window-y="0"
   inkscape:window-maximized="1"
   inkscape:current-layer="Layer_2" />

</svg>
