<?xml version="1.0" encoding="UTF-8" standalone="no"?>
<!-- Generator: Adobe Illustrator 15.1.0, SVG Export Plug-In . SVG Version: 6.00 Build 0)  -->

<svg
   version="1.1"
   id="Layer_2"
   x="0px"
   y="0px"
   width="283.46px"
   height="283.46px"
   viewBox="0 0 283.46 283.46"
   style="enable-background:new 0 0 283.46 283.46;"
   xml:space="preserve"
   sodipodi:docname="screenshot-all.svg"
   inkscape:version="1.2.2 (b0a8486541, 2022-12-01)"
   xmlns:inkscape="http://www.inkscape.org/namespaces/inkscape"
   xmlns:sodipodi="http://sodipodi.sourceforge.net/DTD/sodipodi-0.dtd"
   xmlns="http://www.w3.org/2000/svg"
   xmlns:svg="http://www.w3.org/2000/svg"><defs
   id="defs196" /><sodipodi:namedview
   id="namedview194"
   pagecolor="#ffffff"
   bordercolor="#000000"
   borderopacity="0.25"
   inkscape:showpageshadow="2"
   inkscape:pageopacity="0.0"
   inkscape:pagecheckerboard="0"
   inkscape:deskcolor="#d1d1d1"
   showgrid="false"
   inkscape:zoom="1.4816906"
   inkscape:cx="96.848831"
   inkscape:cy="161.30223"
   inkscape:window-width="1920"
   inkscape:window-height="1015"
   inkscape:window-x="0"
   inkscape:window-y="0"
   inkscape:window-maximized="1"
   inkscape:current-layer="Layer_2" />

<path
   id="rect529"
   style="enable-background:new 0 0 283.46 283.46;fill-rule:evenodd;stroke-width:16.0173;stroke-linecap:round;stroke-linejoin:round;paint-order:stroke fill markers"
   d="M -1345.5463 869.31486 L -1345.5463 2069.3125 L -545.54493 2069.3125 L -545.54493 869.31486 L -1345.5463 869.31486 z M -825.55714 905.33794 L -607.23413 905.33794 A 29.112695 29.112695 0 0 1 -578.12149 934.41576 L -578.12149 1152.7388 A 29.109786 29.109786 0 0 1 -607.23413 1181.8601 A 29.109786 29.109786 0 0 1 -636.35547 1152.7388 L -636.35547 963.5371 L -825.55714 963.5371 A 29.109786 29.109786 0 0 1 -854.67848 934.41576 A 29.109786 29.109786 0 0 1 -825.55714 905.33794 z M -1283.8484 905.37275 L -1065.5253 905.37275 A 29.109787 29.109787 0 0 1 -1036.4475 934.45928 A 29.109787 29.109787 0 0 1 -1065.5253 963.58062 L -1254.7705 963.58062 L -1254.7705 1152.7823 A 29.109787 29.109787 0 0 1 -1283.8484 1181.8601 A 29.109787 29.109787 0 0 1 -1312.9697 1152.7823 L -1312.9697 934.45928 A 29.112696 29.112696 0 0 1 -1283.8484 905.37275 z M -1014.8546 1244.1673 L -876.22792 1244.1673 C -861.1771 1244.1673 -848.21074 1252.3687 -842.04125 1264.2371 L -841.81496 1263.9412 L -795.68732 1323.1935 L -795.374 1323.1935 C -737.1879 1323.1935 -690.02019 1360.1487 -690.02019 1405.7359 L -690.02019 1611.9177 C -690.02019 1657.503 -737.19662 1694.4601 -795.3827 1694.4601 L -1095.7085 1694.4601 C -1153.8964 1694.4601 -1201.0623 1657.503 -1201.0623 1611.9177 L -1201.0623 1405.7359 C -1201.0623 1360.1487 -1153.8945 1323.1935 -1095.7085 1323.1935 L -1095.0731 1323.1935 L -1048.9368 1263.9412 L -1048.9107 1263.976 C -1042.6899 1252.2462 -1029.7952 1244.1673 -1014.8546 1244.1673 z M -945.54124 1394.5956 C -1008.5323 1394.5956 -1059.7811 1445.8395 -1059.7811 1508.8268 C -1059.7811 1571.8178 -1008.5323 1623.0667 -945.54124 1623.0667 C -882.54822 1623.0667 -831.30134 1571.8178 -831.30134 1508.8268 C -831.30134 1445.8395 -882.54822 1394.5956 -945.54124 1394.5956 z M -945.54124 1434.8485 A 73.977322 73.977322 0 0 1 -871.56294 1508.8268 A 73.977322 73.977322 0 0 1 -945.54124 1582.8051 A 73.977322 73.977322 0 0 1 -1019.5195 1508.8268 A 73.977322 73.977322 0 0 1 -945.54124 1434.8485 z M -1283.8484 1762.9553 A 29.109787 29.109787 0 0 1 -1254.7705 1792.0331 L -1254.7705 1981.2348 L -1065.5253 1981.2348 A 29.109787 29.109787 0 0 1 -1036.4475 2010.3561 A 29.109787 29.109787 0 0 1 -1065.5253 2039.4427 L -1283.8484 2039.4427 A 29.112696 29.112696 0 0 1 -1312.9697 2010.3561 L -1312.9697 1792.0331 A 29.109787 29.109787 0 0 1 -1283.8484 1762.9553 z M -607.23413 1762.9553 A 29.109786 29.109786 0 0 1 -578.12149 1792.0766 L -578.12149 2010.3997 A 29.112695 29.112695 0 0 1 -607.23413 2039.4775 L -825.55714 2039.4775 A 29.109786 29.109786 0 0 1 -854.67848 2010.3997 A 29.109786 29.109786 0 0 1 -825.55714 1981.2783 L -636.35547 1981.2783 L -636.35547 1792.0766 A 29.109786 29.109786 0 0 1 -607.23413 1762.9553 z "
   transform="matrix(0.22441125,0,0,0.22441125,353.92056,-188.00005)" /></svg>
