<?xml version="1.0" encoding="UTF-8" standalone="no"?>
<svg
   version="1.1"
   id="Layer_3"
   x="0px"
   y="0px"
   width="283.46px"
   height="283.46px"
   viewBox="0 0 283.46 283.46"
   enable-background="new 0 0 283.46 283.46"
   xml:space="preserve"
   sodipodi:docname="select.svg"
   inkscape:version="1.2.2 (b0a8486541, 2022-12-01)"
   xmlns:inkscape="http://www.inkscape.org/namespaces/inkscape"
   xmlns:sodipodi="http://sodipodi.sourceforge.net/DTD/sodipodi-0.dtd"
   xmlns="http://www.w3.org/2000/svg"
   xmlns:svg="http://www.w3.org/2000/svg"><defs
   id="defs15" /><sodipodi:namedview
   id="namedview13"
   pagecolor="#ffffff"
   bordercolor="#000000"
   borderopacity="0.25"
   inkscape:showpageshadow="2"
   inkscape:pageopacity="0.0"
   inkscape:pagecheckerboard="0"
   inkscape:deskcolor="#d1d1d1"
   showgrid="false"
   inkscape:zoom="1.0477135"
   inkscape:cx="32.928851"
   inkscape:cy="95.445944"
   inkscape:window-width="1920"
   inkscape:window-height="1015"
   inkscape:window-x="0"
   inkscape:window-y="0"
   inkscape:window-maximized="1"
   inkscape:current-layer="Layer_3" />

<path
   id="path291"
   style="color:#000000;clip-rule:evenodd;fill:#000000;fill-rule:evenodd;stroke-width:12.2406;stroke-linecap:round;stroke-linejoin:round;-inkscape-stroke:none;paint-order:markers fill stroke"
   d="M 64.009766 7.0839844 C 32.716687 7.0839844 7.0839844 32.714534 7.0839844 64.007812 L 7.0839844 219.45312 C 7.0839844 250.74608 32.716537 276.37695 64.009766 276.37695 L 219.45117 276.37695 C 250.74408 276.37695 276.37695 250.74624 276.37695 219.45312 L 276.37695 64.007812 C 276.37695 32.714384 250.74393 7.0839844 219.45117 7.0839844 L 64.009766 7.0839844 z M 141.73047 56.464844 L 193.66211 108.39648 L 176.35156 125.70703 L 141.73047 91.085938 L 107.10938 125.70703 L 89.796875 108.39648 L 141.73047 56.464844 z M 107.10938 157.75195 L 141.73047 192.37305 L 176.35156 157.75195 L 193.66211 175.0625 L 141.73047 226.99609 L 89.796875 175.0625 L 107.10938 157.75195 z " /></svg>
