<?xml version="1.0" encoding="UTF-8" standalone="no"?>
<svg
   version="1.1"
   id="Layer_3"
   x="0px"
   y="0px"
   width="283.46px"
   height="283.46px"
   viewBox="0 0 283.46 283.46"
   enable-background="new 0 0 283.46 283.46"
   xml:space="preserve"
   sodipodi:docname="service.svg"
   inkscape:version="1.2.2 (b0a8486541, 2022-12-01)"
   xmlns:inkscape="http://www.inkscape.org/namespaces/inkscape"
   xmlns:sodipodi="http://sodipodi.sourceforge.net/DTD/sodipodi-0.dtd"
   xmlns="http://www.w3.org/2000/svg"
   xmlns:svg="http://www.w3.org/2000/svg"><path
   id="path235"
   class="st0"
   d="m 141.73,43.816086 c -10.48664,0 -18.98726,8.50062 -18.98726,18.98726 0,5.93128 2.77958,11.15857 7.03936,14.64149 C 72.476386,83.416616 27.797886,131.86668 27.797886,190.74974 H 255.66145 c 5.3e-4,-58.88306 -44.67837,-107.333124 -101.98354,-113.304904 4.26029,-3.48345 7.03935,-8.71021 7.03935,-14.64149 0,-10.48664 -8.50009,-18.98726 -18.98726,-18.98726 z m -20.91294,56.326034 -26.998334,71.96421 h -37.0199 c 0,-37.16871 27.98139,-67.75599 64.018234,-71.96421 z M 25.726906,202.35709 c -10.29624,0 -18.6434103,8.34612 -18.6434103,18.6434 0,10.29677 8.3471703,18.64342 18.6434103,18.64342 H 257.73309 c 10.29676,0 18.64341,-8.34665 18.64341,-18.64342 0,-10.29728 -8.34665,-18.6434 -18.64341,-18.6434 z"
   style="stroke-width:0.525963" /><defs
   id="defs15" /><sodipodi:namedview
   id="namedview13"
   pagecolor="#ffffff"
   bordercolor="#000000"
   borderopacity="0.25"
   inkscape:showpageshadow="2"
   inkscape:pageopacity="0.0"
   inkscape:pagecheckerboard="0"
   inkscape:deskcolor="#d1d1d1"
   showgrid="false"
   inkscape:zoom="0.52385673"
   inkscape:cx="-56.313107"
   inkscape:cy="114.53513"
   inkscape:window-width="1920"
   inkscape:window-height="1015"
   inkscape:window-x="0"
   inkscape:window-y="0"
   inkscape:window-maximized="1"
   inkscape:current-layer="Layer_3" />

<style
   type="text/css"
   id="style233">
	.st0{fill:#000000;}
</style></svg>
