<?xml version="1.0" encoding="UTF-8" standalone="no"?>
<!-- Generator: Adobe Illustrator 15.1.0, SVG Export Plug-In . SVG Version: 6.00 Build 0)  -->

<svg
   class="w-6 h-6 text-gray-500"
   fill="none"
   viewBox="0 0 283.45999 283.45999"
   stroke="currentColor"
   version="1.1"
   id="svg4"
   sodipodi:docname="settings.svg"
   width="283.45999"
   height="283.45999"
   inkscape:version="1.2.2 (b0a8486541, 2022-12-01)"
   xmlns:inkscape="http://www.inkscape.org/namespaces/inkscape"
   xmlns:sodipodi="http://sodipodi.sourceforge.net/DTD/sodipodi-0.dtd"
   xmlns="http://www.w3.org/2000/svg"
   xmlns:svg="http://www.w3.org/2000/svg">
  <defs
     id="defs8" />
  <sodipodi:namedview
     id="namedview6"
     pagecolor="#ffffff"
     bordercolor="#000000"
     borderopacity="0.25"
     inkscape:showpageshadow="2"
     inkscape:pageopacity="0.0"
     inkscape:pagecheckerboard="0"
     inkscape:deskcolor="#d1d1d1"
     showgrid="false"
     inkscape:zoom="2.1875"
     inkscape:cx="100.34286"
     inkscape:cy="100.11429"
     inkscape:window-width="1920"
     inkscape:window-height="1015"
     inkscape:window-x="0"
     inkscape:window-y="0"
     inkscape:window-maximized="1"
     inkscape:current-layer="svg4" />
  <path
     style="color:#000000;fill:#000000;stroke:none;stroke-width:14.9607;stroke-linecap:round;stroke-linejoin:round;-inkscape-stroke:none"
     d="M 51.965996,7.0839957 A 14.960667,14.960667 0 0 0 37.005329,22.044663 V 159.75877 c -7.325083,2.45856 -13.977193,6.02693 -18.671613,11.30817 -7.72876,8.69485 -11.2497203,19.70082 -11.2497203,30.50573 0,10.8049 3.5209603,21.81087 11.2497203,30.50572 4.69442,5.28124 11.34653,8.84961 18.671613,11.30817 v 18.02877 A 14.960667,14.960667 0 0 0 51.965996,276.376 14.960667,14.960667 0 0 0 66.926663,261.41533 v -18.02877 c 7.325086,-2.45856 13.977193,-6.02693 18.671613,-11.30817 7.728762,-8.69485 11.24972,-19.70082 11.24972,-30.50572 0,-10.80491 -3.520958,-21.81088 -11.24972,-30.50573 -4.69442,-5.28124 -11.346527,-8.84961 -18.671613,-11.30817 V 22.044663 A 14.960667,14.960667 0 0 0 51.965996,7.0839957 Z m 89.764004,0 A 14.960667,14.960667 0 0 0 126.76933,22.044663 v 18.028771 c -7.32509,2.458556 -13.9772,6.026935 -18.67161,11.308161 -7.72877,8.69486 -11.249724,19.700821 -11.249724,30.505734 0,10.804914 3.520954,21.810871 11.249724,30.505751 4.69441,5.28122 11.34652,8.84959 18.67161,11.30815 v 137.7141 A 14.960667,14.960667 0 0 0 141.73,276.376 14.960667,14.960667 0 0 0 156.69066,261.41533 v -137.7141 c 7.32509,-2.45856 13.9772,-6.02693 18.67162,-11.30815 7.72875,-8.69488 11.24972,-19.700837 11.24972,-30.505751 0,-10.804913 -3.52097,-21.810874 -11.24972,-30.505734 -4.69442,-5.281226 -11.34653,-8.849605 -18.67162,-11.308161 V 22.044663 A 14.960667,14.960667 0 0 0 141.73,7.0839957 Z m 89.764,0 A 14.960667,14.960667 0 0 0 216.53333,22.044663 V 159.75877 c -7.32509,2.45856 -13.9772,6.02693 -18.67162,11.30817 -7.72875,8.69485 -11.24971,19.70082 -11.24971,30.50573 0,10.8049 3.52096,21.81087 11.24971,30.50572 4.69442,5.28124 11.34653,8.84961 18.67162,11.30817 v 18.02877 A 14.960667,14.960667 0 0 0 231.494,276.376 14.960667,14.960667 0 0 0 246.45467,261.41533 v -18.02877 c 7.32508,-2.45856 13.97719,-6.02693 18.67161,-11.30817 7.72876,-8.69485 11.24972,-19.70082 11.24972,-30.50572 0,-10.80491 -3.52096,-21.81088 -11.24972,-30.50573 -4.69442,-5.28124 -11.34653,-8.84961 -18.67161,-11.30817 V 22.044663 A 14.960667,14.960667 0 0 0 231.494,7.0839957 Z M 141.73,66.926663 c 6.2336,0 9.00472,1.798939 11.24971,4.324567 2.245,2.525629 3.71095,6.480361 3.71095,10.636099 0,4.155738 -1.46595,8.110471 -3.71095,10.636099 -2.24499,2.525629 -5.01611,4.324568 -11.24971,4.324568 -6.23361,0 -9.00472,-1.798939 -11.24972,-4.324568 -2.245,-2.525628 -3.71095,-6.480361 -3.71095,-10.636099 0,-4.155738 1.46595,-8.11047 3.71095,-10.636099 2.245,-2.525628 5.01611,-4.324567 11.24972,-4.324567 z M 51.965996,186.612 c 6.2336,0 9.004718,1.79895 11.24972,4.32458 2.245002,2.52561 3.710947,6.48034 3.710947,10.63609 0,4.15574 -1.465945,8.11047 -3.710947,10.63609 -2.245002,2.52563 -5.01612,4.32457 -11.24972,4.32457 -6.2336,0 -9.004718,-1.79894 -11.24972,-4.32457 -2.245002,-2.52562 -3.710947,-6.48035 -3.710947,-10.63609 0,-4.15575 1.465945,-8.11048 3.710947,-10.63609 2.245002,-2.52563 5.01612,-4.32458 11.24972,-4.32458 z m 179.528004,0 c 6.2336,0 9.00472,1.79895 11.24972,4.32458 2.245,2.52561 3.71095,6.48034 3.71095,10.63609 0,4.15574 -1.466,8.11047 -3.71095,10.63609 -2.245,2.52563 -5.01612,4.32457 -11.24972,4.32457 -6.23361,0 -9.00473,-1.79894 -11.24972,-4.32457 -2.245,-2.52562 -3.71095,-6.48035 -3.71095,-10.63609 0,-4.15575 1.46595,-8.11048 3.71095,-10.63609 2.24499,-2.52563 5.01611,-4.32458 11.24972,-4.32458 z"
     id="path2" />
</svg>
