<?xml version="1.0" encoding="UTF-8" standalone="no"?>
<!-- Generator: Adobe Illustrator 15.1.0, SVG Export Plug-In . SVG Version: 6.00 Build 0)  -->

<svg
   version="1.1"
   id="Layer_5"
   x="0px"
   y="0px"
   width="283.46px"
   height="283.46px"
   viewBox="0 0 283.46 283.46"
   enable-background="new 0 0 283.46 283.46"
   xml:space="preserve"
   sodipodi:docname="shopping-cart.svg"
   inkscape:version="1.2.2 (b0a8486541, 2022-12-01)"
   xmlns:inkscape="http://www.inkscape.org/namespaces/inkscape"
   xmlns:sodipodi="http://sodipodi.sourceforge.net/DTD/sodipodi-0.dtd"
   xmlns="http://www.w3.org/2000/svg"
   xmlns:svg="http://www.w3.org/2000/svg"><defs
   id="defs1151" /><sodipodi:namedview
   id="namedview1149"
   pagecolor="#ffffff"
   bordercolor="#000000"
   borderopacity="0.25"
   inkscape:showpageshadow="2"
   inkscape:pageopacity="0.0"
   inkscape:pagecheckerboard="0"
   inkscape:deskcolor="#d1d1d1"
   showgrid="false"
   inkscape:zoom="2.9633812"
   inkscape:cx="90.943414"
   inkscape:cy="141.73"
   inkscape:window-width="1920"
   inkscape:window-height="1015"
   inkscape:window-x="0"
   inkscape:window-y="0"
   inkscape:window-maximized="1"
   inkscape:current-layer="g1146" />
<g
   id="g1146"
   style="stroke:#000000;stroke-width:3;fill:#000000">
	
	
	
	
	
	<g
   id="g1878"><g
     id="path1134" /><g
     id="path1136" /><g
     id="path1138" /><g
     id="path1140" /><g
     id="path1142" /><g
     id="path1144"><path
       id="path1905"
       style="color:#000000;stroke:none;stroke-width:2.99765;-inkscape-stroke:none"
       d="m 5.4509879,21.122249 v 14.47499 H 25.841267 c 7.900169,0 14.752872,5.218669 16.893018,13.220114 l 29.271994,114.546997 -0.01756,-0.01 0.887977,3.44652 c -6.147787,4.8167 -10.204898,12.25661 -10.204898,20.75523 0,14.56264 12.141055,26.70369 26.705645,26.70369 H 245.45831 V 199.78504 H 89.377439 c -6.624848,0 -12.228702,-5.65611 -12.228702,-12.22675 0,-6.27073 4.995702,-11.64403 11.020664,-12.27554 l 0.569866,-0.0605 c 0.213048,-0.0124 0.426537,-0.0332 0.638172,-0.0332 H 249.46884 v -1.55738 l 17.89613,-63.91087 0.082,0.004 8.88951,-31.731002 1.67252,-5.962126 -32.61898,-0.0039 H 229.02196 83.436779 63.089436 l -6.578831,-26.323132 -0.002,-0.002 C 52.889181,31.341487 40.33,21.122249 25.841267,21.122249 Z M 66.709647,85.897685 H 258.56133 l -20.966,74.871045 H 85.981661 Z m 7.73808,80.989295 0.06831,0.26347 -0.485948,0.35909 z m 135.472013,61.78559 c -9.22502,0 -16.83252,7.60641 -16.83252,16.82861 0,9.22582 7.6075,16.83253 16.83252,16.83253 9.22231,0 16.82666,-7.60671 16.82666,-16.83253 0,-9.22273 -7.60176,-16.82861 -16.82666,-16.82861 z m -94.52363,0.006 c -9.22501,0 -16.830556,7.60653 -16.830556,16.82861 0,9.22568 7.605786,16.83056 16.830556,16.83056 9.2239,0 16.82667,-7.605 16.82667,-16.83056 0,-9.22286 -7.60265,-16.82861 -16.82667,-16.82861 z" /></g></g>
</g>
</svg>
