<?xml version="1.0" encoding="UTF-8" standalone="no"?>
<!-- Generator: Adobe Illustrator 15.1.0, SVG Export Plug-In . SVG Version: 6.00 Build 0)  -->

<svg
   version="1.1"
   id="Layer_2"
   x="0px"
   y="0px"
   width="283.465px"
   height="283.465px"
   viewBox="0 0 283.465 283.465"
   enable-background="new 0 0 283.465 283.465"
   xml:space="preserve"
   sodipodi:docname="snail.svg"
   inkscape:version="1.2.2 (b0a8486541, 2022-12-01)"
   xmlns:inkscape="http://www.inkscape.org/namespaces/inkscape"
   xmlns:sodipodi="http://sodipodi.sourceforge.net/DTD/sodipodi-0.dtd"
   xmlns="http://www.w3.org/2000/svg"
   xmlns:svg="http://www.w3.org/2000/svg"><defs
   id="defs2758" /><sodipodi:namedview
   id="namedview2756"
   pagecolor="#ffffff"
   bordercolor="#000000"
   borderopacity="0.25"
   inkscape:showpageshadow="2"
   inkscape:pageopacity="0.0"
   inkscape:pagecheckerboard="0"
   inkscape:deskcolor="#d1d1d1"
   showgrid="false"
   inkscape:zoom="0.26192374"
   inkscape:cx="-902.93457"
   inkscape:cy="-217.62059"
   inkscape:window-width="1920"
   inkscape:window-height="1015"
   inkscape:window-x="0"
   inkscape:window-y="0"
   inkscape:window-maximized="1"
   inkscape:current-layer="Layer_2" />

<path
   id="path3143"
   style="display:inline;fill:#000000;stroke-width:5.71686"
   d="m 41.539089,31.087672 c -7.49308,-0.46493 -10.43881,14.41328 -5.72574,14.41328 6.47591,0 9.93566,7.042972 8.25954,18.318534 -17.60371,3.228579 -36.9861603,20.090547 -36.9861603,31.481338 0,14.960556 7.4802003,14.961126 22.4407503,22.441406 14.96055,7.48028 -7.48027,59.84251 0,89.76363 5.44565,21.76759 22.44169,44.88214 59.843069,44.88214 H 261.41799 c 7.48029,0 14.96028,-1.9e-4 14.96028,-7.48047 0,-5.12993 -17.55806,-13.74473 -35.84155,-21.07719 h -6.5e-4 c -1.22009,1.01882 -2.47902,1.9947 -3.76654,2.9388 -0.22703,0.16726 -0.45334,0.33479 -0.68243,0.49966 -1.32429,0.94856 -2.67017,1.87208 -4.06173,2.73894 l -0.003,0.002 c -2.95464,1.84378 -6.00028,3.46409 -9.1175,4.85724 -4.67586,2.08972 -9.51248,3.66863 -14.44353,4.7251 -4.93105,1.05646 -9.95674,1.59037 -15.01024,1.59037 a 3.7404969,3.7404969 0 0 1 -0.006,0 c -1.55112,-0.003 -3.10056,-0.0539 -4.64619,-0.15385 -3.09129,-0.19994 -6.16708,-0.59422 -9.20891,-1.18012 -1.52092,-0.29295 -3.03342,-0.63381 -4.53509,-1.02233 a 3.7404969,3.7404969 0 0 1 -0.002,-6.6e-4 c -2.06464,-0.53553 -4.08927,-1.17228 -6.06827,-1.90595 -1.979,-0.73368 -3.91237,-1.56425 -5.79543,-2.48779 -1.88305,-0.92354 -3.71553,-1.94019 -5.49233,-3.04531 -1.77679,-1.10513 -3.49813,-2.29875 -5.15836,-3.57718 -1.65482,-1.27429 -3.24889,-2.63334 -4.77769,-4.07159 -0.005,-0.005 -0.0101,-0.009 -0.0151,-0.0138 -0.005,-0.004 -0.009,-0.009 -0.0131,-0.0131 -3.06138,-2.88363 -5.85997,-6.08748 -8.35355,-9.57971 -1.24863,-1.74868 -2.42064,-3.56927 -3.51144,-5.45815 -1.08779,-1.88417 -2.0799,-3.8121 -2.97497,-5.7757 -0.002,-0.004 -0.004,-0.007 -0.005,-0.0112 -0.001,-0.003 -0.003,-0.006 -0.004,-0.009 -0.89327,-1.96137 -1.69022,-3.95865 -2.38917,-5.98476 -10e-4,-0.003 -0.002,-0.007 -0.003,-0.01 -8.4e-4,-0.002 -0.002,-0.005 -0.003,-0.007 -0.69895,-2.02789 -1.29915,-4.08469 -1.80141,-6.16294 -5.8e-4,-0.002 -0.001,-0.005 -0.002,-0.007 -4.3e-4,-0.002 -8.9e-4,-0.004 -0.001,-0.005 -0.50264,-2.08149 -0.90649,-4.1842 -1.20972,-6.30165 -0.30349,-2.11925 -0.50645,-4.253 -0.60814,-6.39371 -0.10167,-2.14049 -0.10217,-4.28838 0,-6.43577 v -6.6e-4 c 0.10219,-2.14741 0.30725,-4.29472 0.61537,-6.43447 v -6.5e-4 c 0.30817,-2.13997 0.71978,-4.27201 1.23601,-6.38976 0.87958,-3.65226 2.09119,-7.16738 3.60808,-10.50671 v -6.6e-4 c 3.79253,-8.34873 9.49657,-15.60102 16.70976,-21.16595 1.44264,-1.11298 2.94534,-2.15818 4.50551,-3.13143 1.54057,-0.97358 3.12336,-1.86165 4.74086,-2.66333 1.61751,-0.80168 3.26957,-1.51699 4.94994,-2.1446 1.68038,-0.62762 3.38904,-1.16794 5.11826,-1.6193 1.7292,-0.45137 3.47915,-0.81382 5.24316,-1.08677 1.764,-0.27293 3.54189,-0.45596 5.32666,-0.54831 3.56953,-0.18469 7.16651,-0.006 10.73484,0.54437 1.78417,0.27537 3.56123,0.64399 5.32404,1.10649 h 6.5e-4 c 3.23075,0.84259 6.28575,2.11141 9.1241,3.75798 1.41916,0.82329 2.78424,1.74082 4.08999,2.74683 1.30588,1.0061 2.5521,2.10071 3.73431,3.27739 1.18201,1.17645 2.30022,2.43503 3.3484,3.76982 1.04827,1.33491 2.02668,2.7463 2.93092,4.2274 0.90422,1.4811 1.73388,3.03176 2.48384,4.64686 v 6.6e-4 c 0.74986,1.61492 1.42045,3.29408 2.00587,5.0308 l 0.001,0.003 c 1.48132,4.38362 2.09252,8.70444 1.9362,12.82027 v 6.6e-4 c -0.0313,0.82295 -0.0936,1.63771 -0.1854,2.44309 v 6.5e-4 c -0.36739,3.22215 -1.2126,6.29488 -2.4832,9.14448 -0.63533,1.42489 -1.3768,2.79423 -2.21823,4.09854 -0.84143,1.30431 -1.78281,2.5439 -2.81718,3.70934 -0.51718,0.58271 -1.05767,1.14639 -1.62061,1.69096 -0.56295,0.54456 -1.14832,1.0698 -1.75539,1.57393 a 3.7404969,3.7404969 0 0 0 -6.6e-4,0 c -5.79004,4.80623 -13.26896,6.35112 -19.09761,6.03539 -2.91432,-0.15786 -5.47827,-0.54589 -7.71583,-2.52921 -0.83896,-0.74362 -1.6003,-1.93834 -1.88031,-3.26029 v -6.6e-4 c -0.0933,-0.44073 -0.13318,-0.89527 -0.10453,-1.35238 0.11455,-1.82769 1.03802,-3.24119 2.1183,-4.36349 0.34168,-0.35518 0.66518,-0.73935 0.96908,-1.14791 v -6.6e-4 c 0.30399,-0.4087 0.58842,-0.84182 0.85206,-1.29517 0.52728,-0.90672 0.97151,-1.89354 1.32213,-2.92631 0.35061,-1.03278 0.60771,-2.11104 0.76132,-3.19981 0.15361,-1.08877 0.20378,-2.18823 0.14004,-3.26293 -0.0637,-1.07469 -0.22473,-2.10387 -0.4852,-3.07095 -0.13017,-0.48333 -0.28539,-0.95134 -0.46547,-1.40168 v -6.6e-4 c -0.9009,-2.25255 -2.42945,-4.0664 -4.61727,-5.18728 -2.1825,-1.11723 -4.9642,-0.98633 -7.84339,-0.0467 -1.7275,0.5638 -3.49019,1.41861 -5.17939,2.47004 -3.18413,2.00053 -5.67648,4.88258 -7.20104,8.25955 l -6.6e-4,6.5e-4 c -0.50802,1.12543 -0.90855,2.30629 -1.1913,3.52723 a 3.7404969,3.7404969 0 0 1 -0.01,0.0427 c -0.45089,1.8485 -0.71966,3.72206 -0.80933,5.59621 v 6.6e-4 c -0.26887,5.62225 1.07163,11.24676 3.92367,16.19102 a 3.7404969,3.7404969 0 0 1 0.0158,0.0276 c 1.81844,3.21587 4.2484,5.99446 7.11756,8.20235 1.43458,1.10394 2.97887,2.06506 4.61136,2.86714 0.81624,0.40103 1.65449,0.76217 2.51211,1.0815 0.8578,0.31943 1.73469,0.59683 2.62849,0.83036 a 3.7404969,3.7404969 0 0 1 0.004,6.6e-4 c 2.49354,0.65432 5.02663,1.0425 7.56001,1.17092 7.60017,0.38525 15.20236,-1.56855 21.74188,-5.69747 a 3.7404969,3.7404969 0 0 1 0.0178,-0.0112 c 6.68554,-4.16821 11.89628,-10.16519 15.15554,-17.35602 v -6.6e-4 c 1.08641,-2.39702 1.95577,-4.92638 2.591,-7.56528 0.44632,-1.8551 0.7969,-3.71151 1.05455,-5.56399 0.5153,-3.70498 0.6596,-7.39396 0.46022,-11.02084 -0.39876,-7.25356 -2.17361,-14.26079 -5.11102,-20.66103 v -6.5e-4 c -5.14073,-11.20067 -13.84254,-20.54241 -24.96207,-26.09223 -1.58831,-0.79274 -3.22617,-1.50828 -4.90983,-2.14065 h -6.6e-4 c -1.68385,-0.63243 -3.41341,-1.18157 -5.18597,-1.64231 -2.36921,-0.61505 -4.741,-1.09811 -7.10768,-1.45363 -2.36669,-0.35551 -4.7284,-0.58351 -7.07811,-0.68835 -3.52456,-0.15726 -7.02154,-0.0373 -10.46727,0.34451 -3.44571,0.38181 -6.84013,1.02549 -10.15826,1.91646 -2.21208,0.59399 -4.3905,1.29794 -6.52782,2.10713 -2.1373,0.8092 -4.23383,1.7234 -6.28193,2.73894 -2.0481,1.01554 -4.04757,2.13208 -5.992,3.34511 -1.94444,1.21302 -3.83366,2.52268 -5.65999,3.92432 -1.82632,1.40163 -3.59016,2.89519 -5.28393,4.47657 -1.69376,1.58139 -3.31771,3.25093 -4.86447,5.0032 -1.54676,1.75227 -3.01632,3.58725 -4.40163,5.50154 -1.3853,1.91429 -2.68598,3.90746 -3.89538,5.97491 -2.41881,4.13489 -4.47131,8.5671 -6.09983,13.26142 v 6.6e-4 c -0.40706,1.17339 -0.78817,2.36306 -1.14134,3.56864 v 6.5e-4 c -0.35315,1.20559 -0.67885,2.42732 -0.97631,3.66397 a 3.7404969,3.7404969 0 0 1 -6.5e-4,0.003 c -0.59919,2.48005 -1.66943,4.73139 -3.08936,6.67378 -0.70997,0.97119 -1.50689,1.8654 -2.37668,2.67188 -0.86979,0.80647 -1.812522,1.52569 -2.811922,2.14723 -0.99938,0.62153 -2.05569,1.1457 -3.15444,1.5621 -3.29623,1.2492 -6.97162,1.52948 -10.61782,0.56869 -2.43141,-0.63363 -4.61822,-1.74565 -6.49364,-3.2123 -0.9377,-0.73332 -1.7977,-1.5552 -2.57128,-2.45031 -0.77358,-0.89512 -1.46117,-1.86357 -2.05388,-2.8895 -0.592709,-1.02593 -1.090749,-2.10954 -1.485829,-3.23531 -0.39508,-1.12577 -0.68713,-2.29379 -0.86784,-3.48843 -0.1807,-1.19463 -0.24962,-2.41566 -0.1992,-3.64819 0.0504,-1.23252 0.22043,-2.47646 0.51872,-3.71591 0.46597,-1.93721 0.99472,-3.84094 1.552899,-5.72836 0.0626,-0.20957 0.12887,-0.41695 0.19263,-0.62589 0.55166,-1.82688 1.14637,-3.62896 1.7817,-5.40687 1.6e-4,-6.4e-4 5e-4,-10e-4 6.5e-4,-0.002 4.75961,-19.07635 11.29746,-46.901198 -3.324069,-64.257857 2.706019,-16.681602 7.327239,-31.810731 -1.51081,-40.395041 -11.60145,-11.26835 -17.4021,11.26869 -11.60137,11.26869 7.43092,0 10.89379,9.266822 7.17081,23.574842 -1.80827,-1.338818 -3.79018,-2.584752 -6.01304,-3.696185 -2.36563,-1.182817 -4.95814,-1.836113 -7.68362,-2.044669 -0.27826,-0.02129 -0.5698,0.0062 -0.85074,-0.0059 2.12594,-12.046587 3.28563,-22.505688 -3.50026,-29.096768 -2.17528,-2.11281 -4.14648,-3.03729 -5.87563,-3.14459 z M 174.44525,73.827848 C 130.11184,74.152724 89.755538,105.49045 78.472648,152.39773 a 3.7404969,3.7404969 0 0 0 0,6.6e-4 c -1.47289,6.11994 2.09067,12.17477 7.77041,13.65261 a 3.7404969,3.7404969 0 0 1 0.0125,0.003 c 5.63945,1.4881 11.39861,-2.03092 12.87617,-8.14646 10.438832,-43.38961 53.121842,-70.06743 95.087652,-59.173143 a 3.7404969,3.7404969 0 0 0 6.6e-4,6.58e-4 c 32.42329,8.427025 52.10596,42.614695 44.04718,76.111025 a 3.7404969,3.7404969 0 0 0 0,6.6e-4 c -2.97852,12.37418 -10.46292,22.90606 -21.0509,29.51162 -10.46804,6.60659 -23.21335,8.57504 -35.18672,5.43316 -9.09758,-2.37816 -16.84766,-8.34155 -21.4789,-16.52501 -4.75246,-8.24914 -6.14808,-18.01433 -3.89605,-27.26445 1.58193,-6.79894 5.78852,-12.70081 11.7013,-16.41258 a 3.7404969,3.7404969 0 0 1 0.0118,-0.007 c 5.6071,-3.492 13.30917,-6.36196 20.39278,-2.73499 a 3.7404969,3.7404969 0 0 0 6.6e-4,6.6e-4 c 6.20892,3.18098 9.25103,9.5796 9.62441,15.87478 0.33896,5.71477 -1.32709,11.60631 -4.97098,16.11673 0.42938,0.0906 0.90962,0.16684 1.44639,0.19592 3.97592,0.21537 10.10704,-1.16088 13.91428,-4.32076 7.49079,-6.22062 10.72575,-15.82587 6.8355,-27.3348 a 3.7404969,3.7404969 0 0 1 -0.001,-0.003 c -4.00863,-11.89477 -12.20886,-19.92378 -22.51833,-22.61233 a 3.7404969,3.7404969 0 0 1 -0.006,-0.001 c -12.10555,-3.17752 -24.98216,-1.18384 -35.56016,5.50548 a 3.7404969,3.7404969 0 0 1 -0.0197,0.0125 c -10.80741,6.73988 -18.43748,17.42543 -21.51702,30.21838 a 3.7404969,3.7404969 0 0 1 -0.003,0.0105 c -3.67593,15.07534 -1.39816,30.98434 6.36017,44.42258 7.77466,13.46292 20.01328,22.87176 34.58319,26.65172 5.39874,1.39678 10.95178,2.10845 16.5283,2.11764 12.07357,-0.001 23.94278,-3.38422 34.60751,-10.03992 a 3.7404969,3.7404969 0 0 1 0.003,-0.002 c 15.50387,-9.6571 26.45496,-24.99449 30.86597,-43.31478 10.98654,-45.6911 -15.83722,-92.035511 -59.60837,-103.409005 a 3.7404969,3.7404969 0 0 0 -6.6e-4,0 c -8.32332,-2.165497 -16.66935,-3.169096 -24.87922,-3.108934 z M 42.224809,75.180223 a 4.3370412,4.9639507 0 0 1 4.33719,4.963748 4.3370412,4.9639507 0 0 1 -4.33719,4.963748 4.3370412,4.9639507 0 0 1 -4.33655,-4.963748 4.3370412,4.9639507 0 0 1 4.33655,-4.963748 z" /></svg>
