<?xml version="1.0" encoding="utf-8"?>
<!-- Generator: Adobe Illustrator 15.1.0, SVG Export Plug-In . SVG Version: 6.00 Build 0)  -->
<!DOCTYPE svg PUBLIC "-//W3C//DTD SVG 1.1//EN" "http://www.w3.org/Graphics/SVG/1.1/DTD/svg11.dtd">
<svg version="1.1"
	 id="svg2" xmlns:sodipodi="http://sodipodi.sourceforge.net/DTD/sodipodi-0.dtd" sodipodi:docname="Twitter_bird_logo_2012.svg" inkscape:version="0.48.4 r9939" xmlns:svg="http://www.w3.org/2000/svg" xmlns:cc="http://creativecommons.org/ns#" xmlns:inkscape="http://www.inkscape.org/namespaces/inkscape" xmlns:rdf="http://www.w3.org/1999/02/22-rdf-syntax-ns#" xmlns:dc="http://purl.org/dc/elements/1.1/"
	 xmlns="http://www.w3.org/2000/svg" xmlns:xlink="http://www.w3.org/1999/xlink" x="0px" y="0px" width="283.465px"
	 height="283.465px" viewBox="0 0 283.465 283.465" enable-background="new 0 0 283.465 283.465" xml:space="preserve">
<sodipodi:namedview  id="base" inkscape:zoom="3.7200571" bordercolor="#666666" borderopacity="1.0" inkscape:cx="101.29413" pagecolor="#ffffff" fit-margin-top="0" showgrid="false" inkscape:cy="50.181142" fit-margin-left="0" inkscape:window-width="1280" inkscape:window-x="-8" inkscape:document-units="px" inkscape:pageshadow="2" inkscape:window-height="962" inkscape:pageopacity="0.0" fit-margin-bottom="0" inkscape:current-layer="layer1" fit-margin-right="0" inkscape:window-y="-8" inkscape:window-maximized="1">
	</sodipodi:namedview>
<g id="layer1" transform="translate(-282.32053,-396.30734)" inkscape:label="Layer 1" inkscape:groupmode="layer">
	<path id="path5" inkscape:connector-curvature="0" fill="#231F20" d="M555.719,454.523c-9.906,4.395-20.557,7.363-31.73,8.7
		c11.405-6.839,20.168-17.665,24.291-30.566c-10.676,6.331-22.498,10.928-35.084,13.406c-10.076-10.738-24.437-17.446-40.326-17.446
		c-30.512,0-55.249,24.736-55.249,55.247c0,4.331,0.488,8.547,1.431,12.59c-45.917-2.303-86.625-24.299-113.875-57.725
		c-4.756,8.159-7.481,17.649-7.481,27.773c0,19.169,9.753,36.079,24.578,45.987c-9.056-0.288-17.575-2.774-25.024-6.911
		c-0.006,0.229-0.006,0.461-0.006,0.694c0,26.768,19.044,49.097,44.319,54.175c-4.635,1.265-9.516,1.938-14.555,1.938
		c-3.561,0-7.021-0.348-10.395-0.992c7.03,21.949,27.433,37.922,51.611,38.367c-18.91,14.819-42.73,23.65-68.616,23.65
		c-4.459,0-8.857-0.263-13.179-0.771c24.451,15.676,53.491,24.822,84.69,24.822c101.622,0,157.194-84.185,157.194-157.196
		c0-2.395-0.054-4.776-0.158-7.148C538.946,475.332,548.311,465.603,555.719,454.523L555.719,454.523z"/>
</g>
</svg>
