<?xml version="1.0" encoding="UTF-8" standalone="no"?>
<svg
   version="1.1"
   id="Layer_3"
   x="0px"
   y="0px"
   width="283.46px"
   height="283.46px"
   viewBox="0 0 283.46 283.46"
   enable-background="new 0 0 283.46 283.46"
   xml:space="preserve"
   sodipodi:docname="social-bluesky.svg"
   inkscape:version="1.2.2 (b0a8486541, 2022-12-01)"
   xmlns:inkscape="http://www.inkscape.org/namespaces/inkscape"
   xmlns:sodipodi="http://sodipodi.sourceforge.net/DTD/sodipodi-0.dtd"
   xmlns="http://www.w3.org/2000/svg"
   xmlns:svg="http://www.w3.org/2000/svg"><defs
   id="defs15" /><sodipodi:namedview
   id="namedview13"
   pagecolor="#ffffff"
   bordercolor="#000000"
   borderopacity="0.25"
   inkscape:showpageshadow="2"
   inkscape:pageopacity="0.0"
   inkscape:pagecheckerboard="0"
   inkscape:deskcolor="#d1d1d1"
   showgrid="false"
   inkscape:zoom="0.74084529"
   inkscape:cx="126.20719"
   inkscape:cy="114.73381"
   inkscape:window-width="1920"
   inkscape:window-height="1015"
   inkscape:window-x="0"
   inkscape:window-y="0"
   inkscape:window-maximized="1"
   inkscape:current-layer="Layer_3" />

<path
   fill="#0085ff"
   d="M 65.456993,38.803558 C 96.328893,62.059528 129.5403,109.20685 141.73,134.50776 v 66.82675 c 0,-1.42221 -0.547,0.18514 -1.7251,3.64807 -6.3621,18.74953 -31.2128,91.92569 -88.037807,33.42599 -29.921,-30.80038 -16.0693,-61.60077 38.3953,-70.89978 -31.1581,5.31853 -66.1872,-3.47136 -75.7976,-37.93246 -2.7687,-9.91334 -7.4813005,-70.975532 -7.4813005,-79.222632 0,-41.3112299 36.0979005,-28.32625 58.3735005,-11.55014 z m 152.546007,0 c -30.8719,23.25597 -64.0833,70.403292 -76.273,95.704202 v 66.82675 c 0,-1.42221 0.547,0.18514 1.7252,3.64807 6.362,18.74953 31.2127,91.92569 88.0377,33.42599 29.921,-30.80038 16.0693,-61.60077 -38.3953,-70.89978 31.1581,5.31853 66.1872,-3.47136 75.7976,-37.93246 2.7687,-9.91334 7.4813,-70.975532 7.4813,-79.222632 0,-41.3112299 -36.0937,-28.32625 -58.3735,-11.55014 z"
   id="path233"
   style="fill:#000000;stroke-width:4.2077" /></svg>
