<?xml version="1.0" encoding="UTF-8" standalone="no"?>
<svg
   fill="none"
   viewBox="0 0 283.45999 283.45999"
   stroke="currentColor"
   version="1.1"
   id="svg4"
   sodipodi:docname="social-at.svg"
   width="283.45999"
   height="283.45999"
   inkscape:version="1.2.2 (b0a8486541, 2022-12-01)"
   xmlns:inkscape="http://www.inkscape.org/namespaces/inkscape"
   xmlns:sodipodi="http://sodipodi.sourceforge.net/DTD/sodipodi-0.dtd"
   xmlns="http://www.w3.org/2000/svg"
   xmlns:svg="http://www.w3.org/2000/svg">
  <sodipodi:namedview
     id="namedview1393"
     pagecolor="#ffffff"
     bordercolor="#000000"
     borderopacity="0.25"
     inkscape:showpageshadow="2"
     inkscape:pageopacity="0.0"
     inkscape:pagecheckerboard="0"
     inkscape:deskcolor="#d1d1d1"
     showgrid="false"
     inkscape:zoom="0.74083485"
     inkscape:cx="-174.80279"
     inkscape:cy="329.35816"
     inkscape:window-width="1400"
     inkscape:window-height="1043"
     inkscape:window-x="16"
     inkscape:window-y="0"
     inkscape:window-maximized="0"
     inkscape:current-layer="svg4" />
  <path
     id="path2027"
     style="color:#000000;fill:#000000;fill-opacity:1;stroke:none;stroke-width:0;stroke-linecap:round;stroke-linejoin:round;stroke-dasharray:none"
     d="M 144.69052,7.1151688 C 108.64144,6.3393558 72.967798,20.060546 46.512939,46.51395 8.0331122,84.991639 -3.5012498,142.9731 17.32319,193.24688 c 20.802038,50.21976 69.877419,83.03898 124.22705,83.10965 0.0383,0.006 0.0771,0.014 0.11566,0.0174 a 0.49354926,0.49352197 0 0 0 0.0424,0.002 c 23.65316,0.0234 46.89418,-6.20903 67.36082,-18.06572 7.20362,-4.17247 9.67379,-13.44632 5.49982,-20.64875 -4.17337,-7.20108 -13.44428,-9.66827 -20.64603,-5.49566 -15.82339,9.1668 -33.78555,13.98897 -52.07195,13.99071 -0.0388,-0.003 -0.0767,-0.007 -0.11566,-0.008 a 0.49354926,0.49352197 0 0 0 -0.0115,0 c -42.284932,0 -80.302415,-25.40459 -96.483096,-64.46757 C 29.060044,142.61855 37.981522,97.778389 67.881916,67.879656 97.782312,37.980906 142.62648,29.056078 181.69151,45.235815 c 39.06506,16.179756 64.46727,54.200878 64.46727,96.483535 v 19.92203 c 0,10.20754 -7.88947,18.09657 -18.09757,18.09657 -10.20809,0 -18.09756,-7.88903 -18.09756,-18.09657 v -19.92203 c 0.005,-37.51952 -30.71831,-68.243796 -68.23987,-68.243796 -37.5215,0 -68.244966,30.724266 -68.239866,68.243796 0,37.51599 30.721936,68.23415 68.239866,68.23415 18.52844,0 35.31637,-7.58405 47.63625,-19.67914 8.82934,11.87179 22.88967,19.67914 38.70118,19.67914 26.51835,0 48.31479,-21.79523 48.31479,-48.31212 V 141.71935 C 276.376,87.30274 243.53072,38.145163 193.25404,17.321842 177.54263,10.814563 161.07651,7.4676944 144.69057,7.1150508 Z m -0.0212,0.9869461 c 16.26582,0.3500576 32.61012,3.6718371 48.20683,10.1316141 49.90976,20.671342 82.51282,69.466239 82.51282,123.485741 v 19.92203 c 0,25.97611 -21.35027,47.32518 -47.32781,47.32518 -15.67887,0 -29.61973,-7.81865 -38.2501,-19.6965 a 0.49354926,0.49352197 0 0 0 -0.74795,-0.0597 c -12.18001,12.14385 -28.88864,19.75625 -47.33938,19.75625 -36.97922,0 -67.252865,-30.26993 -67.252865,-67.24721 -0.005,-36.98077 30.270125,-67.25686 67.252865,-67.25686 36.98281,0 67.25776,30.27609 67.25286,67.25686 v 19.92203 c 0,10.7186 8.3654,19.08352 19.08457,19.08352 10.71919,0 19.08458,-8.36492 19.08458,-19.08352 v -19.92203 c 0,-42.677965 -25.64605,-81.064236 -65.07645,-97.395311 C 142.63897,27.993128 97.363921,37.00373 67.184032,67.181969 37.004111,97.360201 27.996878,142.63123 44.328818,182.05893 c 16.330477,39.42465 54.707679,65.07205 97.383352,65.07671 0.0248,5.6e-4 0.0506,9.8e-4 0.0752,0.004 a 0.49354926,0.49352197 0 0 0 0.054,0.004 c 18.4632,-6e-5 36.59844,-4.86813 52.57508,-14.12372 6.73833,-3.90411 15.39377,-1.6005 19.29856,5.13713 3.90534,6.73889 1.60055,15.39551 -5.13935,19.2994 -20.30928,11.76554 -43.37301,17.95183 -66.84416,17.93272 -0.0203,-0.002 -0.0397,-0.006 -0.0598,-0.01 a 0.49354926,0.49352197 0 0 0 -0.0906,-0.008 C 87.61576,275.31357 38.889147,242.73154 18.234997,192.86883 -2.4374552,142.96194 9.0117426,85.408407 47.210765,47.211507 73.472604,20.951125 108.88451,7.3317519 144.66931,8.1018779 Z m -0.008,0.3450456 C 108.96905,7.6790236 73.649713,21.263691 47.455397,47.456556 9.3545802,85.555267 -2.066416,142.95751 18.552883,192.73606 c 20.601228,49.73497 69.202775,82.23533 123.029927,82.29235 9.9e-4,0 0.003,0 0.004,0 a 0.49354926,0.49352197 0 0 0 0.12337,0.0154 c 23.41829,0.0232 46.42668,-6.14756 66.68995,-17.88646 6.57942,-3.81091 8.82828,-12.24878 5.01598,-18.82713 -3.81176,-6.57712 -12.24851,-8.8229 -18.82627,-5.01184 -16.03322,9.28837 -34.23331,14.17235 -52.76207,14.16998 -0.0152,-0.002 -0.031,-0.004 -0.0463,-0.006 a 0.49354926,0.49352197 0 0 0 -0.0578,-0.002 c -42.818859,0 -81.329928,-25.73252 -97.71492,-65.28874 C 27.623729,142.63603 36.661223,97.213102 66.939069,66.93694 97.216914,36.660768 142.64194,27.621849 182.20023,44.00589 c 39.55842,16.384085 65.29043,54.896875 65.29043,97.71336 v 19.92203 c 0,10.90214 -8.52689,19.42857 -19.42964,19.42857 -10.90272,0 -19.42963,-8.52643 -19.42963,-19.42857 v -19.92203 c 0.005,-36.79238 -30.11339,-66.911801 -66.9078,-66.911801 -36.79434,0 -66.912817,30.119421 -66.907796,66.911801 0,36.78892 30.116946,66.90217 66.907796,66.90217 18.69701,0 35.61702,-7.8313 47.78661,-20.30755 8.5147,12.22625 22.64673,20.30755 38.55082,20.30755 25.78833,0 46.98274,-21.19323 46.98274,-46.98014 v -19.92203 c 0,-53.880582 -32.51934,-102.547566 -82.30077,-123.16576 C 177.18637,12.110321 160.88526,8.7960962 144.66147,8.4469435 Z m -0.0212,0.9869452 c 16.10365,0.3465676 32.28291,3.6356803 47.72491,10.0313703 49.41452,20.466245 81.69158,68.77047 81.69158,122.253994 v 19.92203 c 0,25.24618 -20.74815,45.99319 -45.99573,45.99319 -15.77149,0 -29.78405,-8.09808 -38.08431,-20.33069 a 0.49354926,0.49352197 0 0 0 -0.76531,-0.0655 c -12.02067,12.53111 -28.86482,20.39622 -47.48781,20.39622 -36.25234,0 -65.920796,-29.66484 -65.920796,-65.91522 -0.005,-36.2538 29.665016,-65.924865 65.920796,-65.924865 36.25582,0 65.92569,29.671065 65.9208,65.924865 v 19.92203 c 0,11.41868 8.99735,20.4155 20.41663,20.4155 11.41932,0 20.41664,-8.99682 20.41664,-20.4155 v -19.92206 c 0,-43.211933 -25.97576,-82.089702 -65.8996,-98.625137 C 142.6543,26.558958 96.798602,35.683593 66.241152,66.239362 35.683694,96.795113 26.560484,142.64867 43.096774,182.56975 c 16.531389,39.90964 55.389375,65.88038 98.588186,65.89595 0.0195,0.002 0.0383,0.005 0.0578,0.008 a 0.49354926,0.49352197 0 0 0 0.0617,0.004 c 18.71044,0.007 37.08822,-4.92546 53.2787,-14.30492 6.11624,-3.54368 13.93447,-1.46236 17.47877,4.65329 3.54482,6.11679 1.4623,13.93426 -4.65549,17.47779 -20.09925,11.64388 -42.92191,17.76635 -66.15017,17.75153 a 0.49354926,0.49352197 0 0 0 -0.0983,-0.0115 C 88.19762,274.01719 39.923681,241.75009 19.46469,192.35854 -1.0026318,142.94685 10.333171,85.972625 48.153234,48.154654 74.154529,22.154794 109.21211,8.6719527 144.64019,9.4344017 Z m -0.008,0.3450446 C 109.29674,9.0186933 74.331569,22.466896 48.397857,48.399173 10.676108,86.118824 -0.62962268,142.94394 19.784496,192.22717 c 20.400588,49.25057 68.527671,81.42652 121.832814,81.46924 9.8e-4,1.1e-4 0.003,-1.1e-4 0.004,0 0.0189,0.002 0.037,0.005 0.0559,0.008 a 0.49354926,0.49352197 0 0 0 0.0771,0.006 c 23.16859,0.0154 45.93101,-6.0913 65.97861,-17.70526 5.95498,-3.44922 7.98064,-11.05155 4.53019,-17.00552 -3.44997,-5.95285 -11.05107,-7.97738 -17.00456,-4.528 -16.24313,9.40998 -34.68294,14.35806 -53.45412,14.35119 a 0.49354926,0.49352197 0 0 0 -0.002,0 c -0.0348,1e-4 -0.0695,-0.002 -0.1041,-0.006 -0.0184,-0.002 -0.0399,-0.005 -0.0482,-0.006 a 0.49354926,0.49352197 0 0 0 -0.0443,-0.002 C 98.300269,248.76162 59.352779,222.71393 42.778558,182.70084 26.189315,142.65196 35.340925,96.648094 65.99619,65.994553 96.651415,35.341014 142.65937,26.186051 182.71086,42.774365 222.76249,59.362719 248.8225,98.369227 248.8225,141.71948 v 19.92203 c 0,11.59705 -9.16401,20.76055 -20.76171,20.76055 -11.59765,0 -20.7617,-9.1635 -20.7617,-20.76055 v -19.92203 c 0.005,-36.06517 -29.50853,-65.579816 -65.57573,-65.579816 -36.06713,0 -65.580708,29.514646 -65.575728,65.579816 0,36.06176 29.512008,65.57018 65.575728,65.57017 18.52567,0 35.28022,-7.82347 47.23914,-20.2902 0.37725,-0.393 0.99374,-0.34113 1.29928,0.10987 8.23853,12.14162 22.14576,20.18034 37.79901,20.18033 25.05827,0 45.65067,-20.59127 45.65067,-45.64814 v -19.92203 c 0,-53.344475 -32.19154,-101.522902 -81.4776,-121.935931 C 176.83197,13.40447 160.69387,10.124822 144.63232,9.7791603 Z m -0.0212,0.9869457 c 15.94147,0.343078 31.95768,3.597629 47.24489,9.929213 48.91922,20.261078 80.86846,68.076705 80.86846,121.024161 v 19.92203 c 0,24.5162 -20.14612,44.6612 -44.66367,44.6612 -15.31538,0 -28.9192,-7.86448 -36.98166,-19.74662 -0.64569,-0.95307 -2.03266,-1.07143 -2.82991,-0.24094 -11.78298,12.28334 -28.27802,19.98756 -46.52586,19.98756 -35.52538,0 -64.588737,-29.05983 -64.588737,-64.58323 -0.005,-35.52676 29.060007,-64.59287 64.588737,-64.59287 35.52878,0 64.59352,29.0661 64.58872,64.59287 v 19.92203 c 0,12.11842 9.62964,21.7475 21.74871,21.7475 12.11909,0 21.74871,-9.62908 21.74871,-21.7475 v -19.92203 c 0,-43.745801 -26.30363,-83.117128 -66.72082,-99.85689 C 142.67162,25.122884 96.233223,34.363514 65.298274,65.296746 34.363325,96.229966 25.126041,142.66428 41.86668,183.07864 c 16.71979,40.36451 56.011857,66.64974 99.69471,66.7152 0.003,1e-5 0.005,0 0.008,0 a 0.49354926,0.49352197 0 0 0 0.01,0.002 c 0.0754,0.009 0.15154,0.0137 0.22747,0.0135 18.94419,0.007 37.55261,-4.98735 53.9457,-14.48421 5.49439,-3.18337 12.47305,-1.32446 15.65706,4.16947 3.18447,5.49498 1.32614,12.47291 -4.16969,15.65619 -19.8909,11.52316 -42.4765,17.58381 -65.46391,17.57225 -0.0256,-0.003 -0.0514,-0.008 -0.0771,-0.01 a 0.49354926,0.49352197 0 0 0 -0.0405,-0.002 C 88.733697,272.68504 40.950663,240.7456 20.696753,191.84914 0.43457198,142.93273 11.655119,86.535713 49.096132,49.09676 74.836845,23.357485 109.54022,10.011118 144.61152,10.765889 Z m -2.88775,89.274204 c -23.13897,0 -41.67686,18.53955 -41.67376,41.67724 v 0.002 c 0,23.13544 18.53719,41.66953 41.67376,41.66953 23.13661,0 41.67375,-18.53409 41.67375,-41.66953 v -0.002 c 0.003,-23.13769 -18.53477,-41.67724 -41.67375,-41.67724 z m 0,0.98695 c 22.61231,0 40.68968,18.07925 40.68675,40.69029 v 0.002 c 0,22.60883 -18.07672,40.68258 -40.68675,40.68258 -22.61,0 -40.68676,-18.07375 -40.68676,-40.68258 v -0.002 c -0.003,-22.61104 18.07446,-40.69029 40.68676,-40.69029 z m 0,0.34505 c -22.4294,0 -40.34469,17.91708 -40.34169,40.34524 v 0.002 c 0,22.42596 17.91454,40.33753 40.34169,40.33753 22.42717,0 40.3417,-17.91157 40.3417,-40.33753 v -0.002 c 0.003,-22.42816 -17.91229,-40.34524 -40.3417,-40.34524 z m 0,0.98695 c 21.90438,0 39.3577,17.45512 39.35471,39.35829 v 0.002 c 0,21.90102 -17.45245,39.35059 -39.35471,39.35059 -21.90224,0 -39.35468,-17.44957 -39.35468,-39.35059 v -0.002 c -0.003,-21.90318 17.4503,-39.35829 39.35468,-39.35829 z m 0,0.34502 c -21.7197,0 -39.01262,17.29475 -39.00962,39.01327 v 0.002 c 0,21.71639 17.29202,39.00555 39.00962,39.00555 21.71764,0 39.00963,-17.28916 39.00963,-39.00555 v -0.002 c 0.003,-21.71852 -17.2899,-39.01327 -39.00963,-39.01327 z m 0,0.98695 c 21.19647,0 38.02552,16.831 38.02263,38.02632 v 0.002 c 0,21.19323 -16.82813,38.0186 -38.02263,38.0186 -21.19447,0 -38.02262,-16.82537 -38.02262,-38.0186 v -0.002 c -0.003,-21.19532 16.82617,-38.02632 38.02262,-38.02632 z M 144.67902,7.6080108 C 108.76203,6.8350409 73.220291,20.505302 46.861918,46.862219 8.5224574,85.199558 -2.9702726,142.96695 17.778193,193.05734 38.508288,243.10342 87.41743,275.80637 141.58115,275.86436 a 1.332583,1.3325094 0 0 0 0.12722,0.0174 c 23.56618,0.0233 46.72274,-6.18519 67.11406,-17.99826 6.97178,-4.03818 9.35829,-13.0034 5.31863,-19.97407 -4.03908,-6.96936 -13.00129,-9.35476 -19.97134,-5.3164 -15.90142,9.21202 -33.95184,14.0562 -52.32833,14.05626 a 1.332583,1.3325094 0 0 0 -0.1176,-0.008 c -42.482672,0 -80.683625,-25.52649 -96.93997,-64.77213 C 28.527525,142.62412 37.492826,97.56858 67.533019,67.530067 97.573181,37.491548 142.63272,28.524805 181.88043,44.780207 c 39.24777,16.255436 64.77185,54.458107 64.77185,96.938473 v 19.92202 c 0,10.46308 -8.1274,18.59004 -18.59106,18.59004 -10.46364,0 -18.59108,-8.12696 -18.59108,-18.59004 v -19.92202 c 0.005,-37.25018 -30.49414,-67.750338 -67.74635,-67.750338 -37.25216,0 -67.751441,30.500148 -67.746371,67.750338 0,37.24666 30.497751,67.74067 67.746371,67.74067 18.5865,0 35.42144,-7.66848 47.68829,-19.8989 8.71843,11.99904 22.8062,19.8989 38.64914,19.8989 26.24798,0 47.8213,-21.57212 47.8213,-47.81865 v -19.92202 c 0,-54.218111 -32.72413,-103.193327 -82.8174,-123.940672 -15.65407,-6.483534 -32.06021,-9.8188145 -48.3861,-10.1701642 z m -0.0578,2.6639812 c 16.00153,0.34437 32.07962,3.612428 47.42418,9.967763 49.10268,20.337072 81.17304,68.33308 81.17304,121.479095 v 19.92202 c 0,24.78655 -20.36926,45.15467 -45.15718,45.15467 -15.48434,0 -29.23984,-7.95062 -37.39034,-19.96251 a 1.332583,1.3325094 0 0 0 -2.0646,-0.17541 c -11.87096,12.37506 -28.49572,20.13792 -46.88249,20.13792 -35.79459,0 -65.082243,-29.28408 -65.082243,-65.07669 -0.005,-35.79602 29.284283,-65.086358 65.082243,-65.086358 35.79801,0 65.08707,29.290338 65.08223,65.086358 v 19.92202 c 0,11.85775 9.39682,21.25402 21.2552,21.25402 11.8584,0 21.2552,-9.39627 21.2552,-21.25402 v -19.92202 c 0,-43.548082 -26.18177,-82.735979 -66.41623,-99.400054 C 142.6659,25.654778 96.442804,34.851598 65.647683,65.645015 34.85255,96.438435 25.657158,142.65744 42.322104,182.88911 c 16.649885,40.19571 55.780935,66.36515 99.284096,66.41254 0.0112,9.9e-4 0.0216,0.002 0.0328,0.004 a 1.332583,1.3325094 0 0 0 0.16579,0.01 c 18.85803,0.007 37.38247,-4.96315 53.70087,-14.41674 5.72395,-3.31637 13.01286,-1.37466 16.32986,4.34874 3.31745,5.72448 1.37642,13.01461 -4.349,16.33085 -19.97233,11.57035 -42.65017,17.65315 -65.73186,17.63779 a 1.332583,1.3325094 0 0 0 -0.0963,-0.0115 C 88.535298,273.17829 40.569814,241.1178 20.23995,192.03796 -0.09821539,142.93809 11.165854,86.327113 48.747274,48.747771 74.584512,22.911969 109.41777,9.5147133 144.62122,10.272328 Z m -2.89739,90.261158 c -22.87566,0 -41.18331,18.30937 -41.18026,41.18376 v 0.002 c 0,22.87215 18.30695,41.17604 41.18026,41.17604 22.87334,0 41.18026,-18.30389 41.18026,-41.17604 v -0.002 c 0.003,-22.87439 -18.30459,-41.18376 -41.18026,-41.18376 z m 0,2.66398 c 21.45812,0 38.51905,17.06284 38.51613,38.51978 v 0.002 c 0,21.45483 -17.06004,38.51206 -38.51613,38.51206 -21.45605,0 -38.51611,-17.05723 -38.51611,-38.51206 v -0.002 c -0.003,-21.45694 17.05801,-38.51978 38.51611,-38.51978 z M 144.65034,8.9400136 C 109.09009,8.1747196 73.902646,21.708458 47.804815,47.804835 9.8443354,85.763216 -1.535009,142.95135 19.008326,192.54653 c 20.534955,49.57496 68.991305,81.96318 122.650164,81.9897 a 13.282698,13.281964 0 0 0 0.052,0.0135 c 23.3313,0.0231 46.25523,-6.12372 66.44321,-17.81898 a 13.282698,13.281964 0 0 0 4.83476,-18.15248 13.282698,13.281964 0 0 0 -18.15155,-4.83256 c -16.11524,9.33588 -34.40831,14.24394 -53.03195,14.23745 a 13.282698,13.281964 0 0 0 -0.0809,-0.01 c -43.016659,0 -81.711118,-25.85437 -98.171792,-65.59331 C 27.091592,142.64158 36.172899,97.003433 66.59059,66.587431 97.008262,36.17144 142.64854,27.090625 182.38957,43.550352 c 39.74116,16.459775 65.59502,55.154024 65.59502,98.168288 v 19.92203 c 0,11.16042 -8.7621,19.92203 -19.92313,19.92203 -11.16101,0 -19.92314,-8.76161 -19.92314,-19.92203 v -19.92203 c 0.005,-36.52314 -29.88915,-66.418333 -66.41429,-66.418333 -36.52511,0 -66.419281,29.895193 -66.414301,66.418333 0,36.51968 29.892651,66.40869 66.414301,66.40869 18.76195,0 35.73567,-7.92364 47.84443,-20.54658 8.38836,12.36246 22.55255,20.54658 38.493,20.54658 25.51797,0 46.48923,-20.9701 46.48923,-46.48666 v -19.92203 c 0,-53.682113 -32.39815,-102.166676 -81.99617,-122.708905 C 177.05518,12.590292 160.81408,9.2876662 144.65034,8.9398056 Z m -2.92631,92.9251264 c 22.16691,0 39.85121,17.68609 39.84819,39.85178 a 13.284026,13.283292 0 0 0 0,0.002 c 0,22.16351 -17.68346,39.84406 -39.84819,39.84406 -22.16472,0 -39.84818,-17.68055 -39.84818,-39.84406 a 13.284026,13.283292 0 0 0 0,-0.002 c -0.003,-22.16569 17.68127,-39.85178 39.84818,-39.85178 z" />
</svg>
