<?xml version="1.0" encoding="UTF-8" standalone="no"?>
<svg
   version="1.1"
   id="Layer_3"
   x="0px"
   y="0px"
   width="283.46px"
   height="283.46px"
   viewBox="0 0 283.46 283.46"
   enable-background="new 0 0 283.46 283.46"
   xml:space="preserve"
   sodipodi:docname="socket-io.svg"
   inkscape:version="1.2.2 (b0a8486541, 2022-12-01)"
   xmlns:inkscape="http://www.inkscape.org/namespaces/inkscape"
   xmlns:sodipodi="http://sodipodi.sourceforge.net/DTD/sodipodi-0.dtd"
   xmlns="http://www.w3.org/2000/svg"
   xmlns:svg="http://www.w3.org/2000/svg"><defs
   id="defs15" /><sodipodi:namedview
   id="namedview13"
   pagecolor="#ffffff"
   bordercolor="#000000"
   borderopacity="0.25"
   inkscape:showpageshadow="2"
   inkscape:pageopacity="0.0"
   inkscape:pagecheckerboard="0"
   inkscape:deskcolor="#d1d1d1"
   showgrid="false"
   inkscape:zoom="0.74084529"
   inkscape:cx="66.81557"
   inkscape:cy="441.3877"
   inkscape:window-width="1920"
   inkscape:window-height="1015"
   inkscape:window-x="0"
   inkscape:window-y="0"
   inkscape:window-maximized="1"
   inkscape:current-layer="Layer_3" />

<path
   id="path233"
   d="m 141.01878,7.2229145 c -11.2549,0.042 -22.5011,1.453 -33.3893,4.2454005 v 10e-4 c -52.521898,13.0495 -94.181098,60.6207 -99.515398,114.557195 -6.6224,51.0437 19.157,104.2083 63.3212,130.5665 43.329498,27.1291 102.022798,26.0352 144.451798,-2.5074 38.1215,-24.7503 61.844,-69.88 60.4295,-115.394 -0.6425,-45.064695 -25.908,-88.843695 -64.6084,-111.987195 -21.1256,-13.0382 -45.9286,-19.5737005 -70.6894,-19.4815005 z m -0.7092,19.0323005 c 55.4928,-0.074 109.8346,42.8058 115.3707,100.157895 10.608,63.5143 -42.1074,128.058 -106.4586,129.9229 -61.200298,6.1074 -120.343898,-45.7734 -122.079098,-107.2296 -4.5644,-49.757595 28.222,-99.129995 75.150498,-115.587295 12.343,-4.9422 25.2104,-7.2468 38.0165,-7.2639 z m 57.1278,36.192 c -30.15,23.4002 -59.0141,48.343495 -88.5216,72.450995 13.5004,0.1933 27.0635,0.1933 40.6277,0.1285 15.8149,-24.3 32.079,-48.278395 47.8939,-72.579495 z m -88.5216,72.450995 c -4e-4,0 -9e-4,0 0,0 v 0 c 4e-4,-3e-4 9e-4,-7e-4 0,0 z m 24.9423,13.4361 c -15.8149,24.3012 -32.079,48.3432 -47.893898,72.6443 30.215198,-23.3368 58.951198,-48.4727 88.651398,-72.451 -13.5646,-0.1933 -27.1292,-0.1933 -40.7575,-0.1933 z"
   style="stroke-width:1.07981" /></svg>
