<?xml version="1.0" encoding="utf-8"?>
<!-- Generator: Adobe Illustrator 15.1.0, SVG Export Plug-In . SVG Version: 6.00 Build 0)  -->
<!DOCTYPE svg PUBLIC "-//W3C//DTD SVG 1.1//EN" "http://www.w3.org/Graphics/SVG/1.1/DTD/svg11.dtd">
<svg version="1.1" id="Layer_3" xmlns="http://www.w3.org/2000/svg" xmlns:xlink="http://www.w3.org/1999/xlink" x="0px" y="0px"
	 width="283.465px" height="283.465px" viewBox="0 0 283.465 283.465" enable-background="new 0 0 283.465 283.465"
	 xml:space="preserve">
<g>
	<polygon fill="none" points="22.292,97.853 22.292,126.802 22.292,126.803 86.002,126.803 86.002,126.802 86.002,97.853 
		22.292,97.852 	"/>
	<rect x="22.292" y="190.514" fill="none" width="63.71" height="28.949"/>
	<polygon fill="none" points="103.373,190.514 103.372,190.514 103.372,219.463 103.373,219.463 120.743,219.463 120.743,190.514 
		120.742,190.514 	"/>
	<polygon fill="none" points="22.292,51.523 22.292,80.472 22.292,80.473 86.002,80.473 86.002,80.472 86.002,51.523 22.292,51.522 
			"/>
	<rect x="22.292" y="144.184" fill="none" width="63.71" height="28.949"/>
	<polygon fill="none" points="248.152,80.472 248.152,51.523 248.152,51.522 184.452,51.522 184.452,51.523 184.452,80.472 
		248.152,80.473 	"/>
	<polygon fill="none" points="120.742,126.802 120.742,115.223 167.072,115.223 167.072,97.853 103.372,97.853 103.372,126.803 
		120.742,126.803 	"/>
	<polygon fill="none" points="167.072,80.472 167.072,51.523 167.072,51.522 103.372,51.523 103.372,80.473 167.072,80.473 	"/>
	<rect x="184.452" y="97.853" fill="none" width="63.7" height="17.37"/>
	<polygon fill="none" points="233.673,228.152 256.843,228.152 256.844,228.152 256.844,181.822 233.673,181.822 	"/>
	<rect x="187.343" y="135.492" fill="none" width="23.171" height="92.66"/>
	<path fill="none" d="M253.943,121.012h-5.791h-63.699h-5.79h-5.8h-5.791h-40.529v0.001v5.789v5.8v5.79v5.79v28.95v5.8v5.791v5.789
		v28.95v5.8v8.68v8.69h144.779V121.013l-8.69-0.001H253.943z M169.973,176.032v2.899v5.791v2.889v34.75v2.9v0.002v8.678v0.002
		h-34.75v-8.68v-5.802v-28.948v-5.791v-5.789v-5.802v-20.271h31.851h2.898V176.032z M216.303,132.601L216.303,132.601v5.79v0.001
		v5.79v0.002v28.947v0.001v5.8v0.002v5.789v5.789v0.002v28.947v0.001v5.8v0.002v8.678v0.002h-34.75v-0.002v-8.678v-0.002v-2.898
		v-0.002v-34.748v-0.002v-2.889v-5.789v-0.002v-2.898v-0.001v-34.749v-0.001v-2.889v-0.001v-5.79v-2.9h34.75V132.601z
		 M262.633,233.941h-34.75v-8.68v-5.801v-28.949v-5.789v-5.791v-2.9h23.17v0.001h2.891h8.689V233.941z"/>
	<polygon fill="none" points="141.014,158.662 141.013,158.662 141.013,228.152 141.014,228.152 164.182,228.152 164.184,228.152 
		164.184,158.662 164.182,158.662 	"/>
	<polygon fill="none" points="103.373,144.184 103.372,144.184 103.372,173.133 103.373,173.133 120.743,173.133 120.743,144.184 
		120.742,144.184 	"/>
	<path d="M262.632,115.222l0.001-78.18H7.822v196.899h112.92v0.002v14.479h156.369v-133.2H262.632z M184.452,51.523L184.452,51.523
		l63.7-0.001v0.001v28.949v0.001l-63.7-0.001V51.523z M184.452,97.853h63.7v17.37h-63.7V97.853z M103.372,51.523l63.7-0.001v0.001
		v28.949v0.001h-63.7V51.523z M103.372,97.853h63.7v17.37h-46.33v11.579v0.001h-17.37V97.853z M86.002,219.463h-63.71v-28.949h63.71
		V219.463z M86.002,173.133h-63.71v-28.949h63.71V173.133z M86.002,126.802L86.002,126.802l-63.71,0.001v-0.001V97.853v-0.001
		l63.71,0.001V126.802z M86.002,80.472L86.002,80.472l-63.71,0.001v-0.001V51.523v-0.001l63.71,0.001V80.472z M120.743,219.463
		h-17.37h-0.001v-28.949h0.001h17.369h0.001V219.463z M120.743,173.133h-17.37h-0.001v-28.949h0.001h17.369h0.001V173.133z
		 M271.322,242.632H126.543v-8.69v-8.68v-5.8v-28.95v-5.789v-5.791v-5.8v-28.95v-5.79v-5.79v-5.8v-5.789v-0.001h40.529h5.791h5.8
		h5.79h63.699h5.791h8.688l8.69,0.001V242.632z"/>
	<path d="M251.053,176.032L251.053,176.032l-23.17-0.001v2.9v5.791v5.789v28.949v5.801v8.68h34.75v-57.909h-8.689H251.053z
		 M256.844,228.152L256.844,228.152h-23.171v-46.33h23.171V228.152z"/>
	<path d="M181.553,132.602v5.79v0.001v2.889v0.001v34.749v0.001v2.898v0.002v5.789v2.889v0.002v34.748v0.002v2.898v0.002v8.678
		v0.002h34.75v-0.002v-8.678v-0.002v-5.8v-0.001v-28.947v-0.002v-5.789v-5.789v-0.002v-5.8v-0.001v-28.947v-0.002v-5.79v-0.001
		v-5.789v-0.001v-2.899h-34.75V132.602z M187.343,135.492h23.171v92.66h-23.171V135.492z"/>
	<path d="M135.223,152.861v20.271v5.802v5.789v5.791v28.948v5.802v8.68h34.75v-0.002v-8.678v-0.002v-2.9v-34.75v-2.889v-5.791
		v-2.899v-23.171h-2.898H135.223z M164.184,228.152h-0.002h-23.167h-0.001v-69.49h0.001h23.167h0.002V228.152z"/>
</g>
</svg>
