<?xml version="1.0" encoding="utf-8"?>
<!-- Generator: Adobe Illustrator 15.1.0, SVG Export Plug-In . SVG Version: 6.00 Build 0)  -->
<!DOCTYPE svg PUBLIC "-//W3C//DTD SVG 1.1//EN" "http://www.w3.org/Graphics/SVG/1.1/DTD/svg11.dtd">
<svg version="1.1" id="Layer_2" xmlns="http://www.w3.org/2000/svg" xmlns:xlink="http://www.w3.org/1999/xlink" x="0px" y="0px"
	 width="283.465px" height="283.465px" viewBox="0 0 283.465 283.465" enable-background="new 0 0 283.465 283.465"
	 xml:space="preserve">
<g>
	<path d="M148.992,215.813c-0.079-1.009-0.136-1.752-0.159-2.08c-0.255-1.678-2.388-15.443-5.313-26.693
		c-1.879-7.251-3.333-10.563-4.222-12.064c-1.202-2.036-2.034-5.278,2.036-20.293l3.021-11.157l0.183,0.313
		c0.817-2.593,1.715-5.327,2.682-8.18l1.712-5.048c7.153-36.485,29.041-81.636,51.607-106.773H43.147
		c-8.699,0-15.778,7.079-15.778,15.779v186.345c0,8.699,7.079,15.775,15.778,15.775h106.117
		C148.735,233.096,148.641,224.235,148.992,215.813z"/>
	<path d="M251.532,12.926c-11.573-10.32-25.584-6.175-39.413,6.098c-2.053,1.824-4.101,3.847-6.139,6.007
		c-23.656,25.096-45.615,71.582-52.438,107.083c2.658,5.39,4.732,12.266,6.101,17.52c0.351,1.349,0.667,2.612,0.919,3.689
		c0.601,2.548,0.924,4.199,0.924,4.199s-0.212-0.803-1.083-3.326c-0.166-0.484-0.35-1.014-0.568-1.636
		c-0.094-0.255-0.223-0.568-0.365-0.902c-1.544-3.587-5.813-11.158-7.691-14.454c-1.606,4.739-3.026,9.175-4.215,13.185
		c5.424,9.923,8.729,26.929,8.729,26.929s-0.286-1.103-1.649-4.948c-1.211-3.401-7.235-13.961-8.663-16.429
		c-2.442,9.015-3.413,15.101-2.537,16.583c1.698,2.87,3.316,7.824,4.736,13.303c3.21,12.345,5.44,27.369,5.44,27.369
		s0.073,0.996,0.194,2.529c-0.446,10.365-0.18,21.111,0.623,30.826c1.063,12.858,3.064,23.902,5.617,29.816l1.731-0.945
		c-3.746-11.648-5.269-26.911-4.603-44.515c1.009-26.905,7.2-59.355,18.642-93.175c19.329-51.053,46.146-92.016,70.69-111.579
		c-22.371,20.204-52.648,85.6-61.711,109.817c-10.148,27.119-17.341,52.568-21.674,76.95c7.478-22.858,31.655-32.684,31.655-32.684
		s11.86-14.625,25.719-35.52c-8.302,1.893-21.933,5.134-26.5,7.052c-6.734,2.825-8.549,3.79-8.549,3.79s21.815-13.286,40.533-19.302
		C251.729,95.716,279.773,38.12,251.532,12.926z"/>
</g>
</svg>
