<?xml version="1.0" encoding="utf-8"?>
<!-- Generator: Adobe Illustrator 15.1.0, SVG Export Plug-In . SVG Version: 6.00 Build 0)  -->
<!DOCTYPE svg PUBLIC "-//W3C//DTD SVG 1.1//EN" "http://www.w3.org/Graphics/SVG/1.1/DTD/svg11.dtd">
<svg version="1.1" id="Layer_3" xmlns="http://www.w3.org/2000/svg" xmlns:xlink="http://www.w3.org/1999/xlink" x="0px" y="0px"
	 width="283.465px" height="283.465px" viewBox="0 0 283.465 283.465" enable-background="new 0 0 283.465 283.465"
	 xml:space="preserve">
<g>
	<path d="M159.118,12.098c-3.195-3.091-7.653-4.836-12.098-4.732H46.372c-8.735,0-12.661,7.331-12.624,12.62V263.99
		c0.003,8.81,3.812,12.619,12.624,12.619h193.57c8.813,0,12.621-3.81,12.624-12.619V112.877c0.099-4.443-1.643-8.901-4.736-12.095
		L159.118,12.098z M239.937,264.108H46.366V20.038h103.36l1.052,1.051l87.844,88.371l1.314,1.315V264.108z"/>
	<path d="M244.119,7.419h-50.698c-0.874-0.135-1.769-0.135-2.64,0c-5.604,1.793-7.489,10.323-3.17,14.333l50.698,50.963
		c4.683,4.464,14.013,0.645,14.259-5.839V15.913C252.568,11.467,248.543,7.42,244.119,7.419z"/>
</g>
</svg>
