<?xml version="1.0" encoding="utf-8"?>
<!-- Generator: Adobe Illustrator 15.1.0, SVG Export Plug-In . SVG Version: 6.00 Build 0)  -->
<!DOCTYPE svg PUBLIC "-//W3C//DTD SVG 1.1//EN" "http://www.w3.org/Graphics/SVG/1.1/DTD/svg11.dtd">
<svg version="1.1" id="Layer_1" xmlns="http://www.w3.org/2000/svg" xmlns:xlink="http://www.w3.org/1999/xlink" x="0px" y="0px"
	 width="283.465px" height="283.465px" viewBox="0 0 283.465 283.465" enable-background="new 0 0 283.465 283.465"
	 xml:space="preserve">
<g>
	<path d="M276.465,66.287c0-10.863-8.842-19.705-19.705-19.705h-7.691c-2.791-7.867-10.23-13.127-18.58-13.135h-65.682V7.173
		L7.174,40.013v203.612l157.633,32.84v-26.271h65.682c8.35-0.008,15.789-5.268,18.58-13.137h7.691
		c10.863,0,19.705-8.84,19.705-19.703v-32.842c0-5.043-1.904-9.646-5.031-13.135c3.242-3.605,5.035-8.287,5.031-13.137V125.4
		c0-5.045-1.904-9.65-5.031-13.137c3.242-3.605,5.035-8.285,5.031-13.137V66.287z M128.682,199.291l-23.592-1.34l-38.803-81.09
		c0.078,1.01,0,78.553,0,78.553l-19.705-1.096V90.916l19.705-1.641c0,0,40.578,74.534,41.049,75.534V87.632l21.346-3.285V199.291z
		 M263.328,217.354c0,3.627-2.941,6.566-6.568,6.566h-6.568v-45.977h6.568c3.627,0,6.568,2.941,6.568,6.568V217.354z
		 M263.328,158.24c0,3.629-2.941,6.568-6.568,6.568h-6.568v-45.977h6.568c3.627,0,6.568,2.939,6.568,6.566V158.24z M263.328,99.126
		c0,3.627-2.941,6.568-6.568,6.568h-19.703v124.793c0,3.629-2.939,6.568-6.568,6.568h-65.682v-26.271h45.979v-13.137h-45.979
		v-13.137h45.979v-13.137h-45.979v-13.137h45.979v-13.137h-45.979v-13.135h45.979V118.83h-45.979v-13.135h45.979V92.558h-45.979
		V79.421h45.979V66.287h-45.979V46.582h65.682c3.629,0,6.568,2.941,6.568,6.568v6.566h19.703c3.627,0,6.568,2.941,6.568,6.568
		V99.126z"/>
</g>
</svg>
