<?xml version="1.0" encoding="utf-8"?>
<!-- Generator: Adobe Illustrator 15.1.0, SVG Export Plug-In . SVG Version: 6.00 Build 0)  -->
<!DOCTYPE svg PUBLIC "-//W3C//DTD SVG 1.1//EN" "http://www.w3.org/Graphics/SVG/1.1/DTD/svg11.dtd">
<svg version="1.1" id="Layer_3" xmlns:svg="http://www.w3.org/2000/svg"
	 xmlns="http://www.w3.org/2000/svg" xmlns:xlink="http://www.w3.org/1999/xlink" x="0px" y="0px" width="283.465px"
	 height="283.465px" viewBox="0 0 283.465 283.465" enable-background="new 0 0 283.465 283.465" xml:space="preserve">
<g>
	<polygon fill="none" points="189.195,96.199 193.237,102.171 199.869,103.799 193.356,99.347 	"/>
	<path fill="none" d="M182.55,91.768l-7.188-7.469l-7.93-9.872l-3.077-4.132l0.011,0.035l-0.025-0.035l0.155,0.506l2.153,7.715
		c0.138,0.239,0.301,0.449,0.456,0.671l0.563,1.81l3.648,6.418l3.236,9.803l0.941,4.812l3.344,1.063l5.107-1.122
		c2.141-0.202,4.287,0.035,6.417,0.06l-5.414-7.779L182.55,91.768z"/>
	<path fill="none" d="M208.409,86.339l2.516-6.016l-9.647,3.712l-5.497,4.866l-8.402,3.409c0.374,0.301,0.738,0.599,1.127,0.904
		c2.93,2.122,7.869,5.576,12.783,8.984l1.114-2.813l2.239-6.797L208.409,86.339z"/>
	<polygon fill="none" points="220.042,97.719 217.78,92.178 214.65,86.617 212.2,80.104 210.446,86.433 207.625,92.534 
		205.327,99.552 203.534,103.742 216.431,106.271 222.818,106.601 219.714,103.644 	"/>
	<polygon fill="none" points="215.763,84.742 216.968,86.544 221.96,94.041 222.635,102.266 222.646,102.396 222.913,102.59 
		226.359,105.132 227.002,105.001 226.998,104.997 234.741,103.568 240.9,103.46 236.781,101.111 236.537,100.958 236.564,100.987 
		236.532,100.969 236.475,100.893 236.537,100.956 230.438,93.041 221.452,85.647 214.391,80.081 215.589,84.147 	"/>
	<polygon fill="none" points="168.576,88.571 165.618,83.03 164.928,76.812 162.477,70.295 160.724,76.626 157.904,82.729 
		155.953,92.609 151.957,102.184 151.957,102.2 157.288,102.2 162.456,99.021 167.13,100.749 172.051,99.436 171.506,94.94 	"/>
	<path fill="none" d="M242.407,56.373h-19.071c0,0.001,0,0.001,0,0.003h-2.938c-0.002-0.039-0.003-0.074-0.003-0.111h-89.516v49.289
		v7.051v10.578h0.003h66.917h7.435h18.587h0.012h1.699h2.004h14.867h0.006V107.09v-1.521V78.646v-1.377v-0.128v-2.674
		c0.001,0,0.003,0,0.004,0V56.373H242.407z M223.398,57.77h17.544v16.639v2.682c-10.95-0.683-19.704-8.954-20.483-19.32H223.398z
		 M203.766,121.789l-2.252-2.135l-11.151-3.522h-14.868l-3.72,3.522l15.744,2.135h-55.17v-9.045l11.115,0.361l0.763,0.029
		l20.517-0.029l18.189-1.784l18.615,1.685l8.282,1.532l10.201,2.252l3.343,3.044l0.268,1.955H203.766z M240.944,105.569h-3.35
		l-21.19,3.523c0,0-21.009-5.308-24.163-5.308c-3.099,0-13.043,1.784-14.905,1.784c-1.302,0-9.302-3.524-11.186-3.524
		c-3.039,0-6.51,3.521-15.272,5.134l-0.326,0.174c0.163,0.052,0.719,0.143,2.663-0.131c2.593-0.37,11.823-4.082,14.034-3.959
		c2.2,0.123,8.79,3.689,10.086,3.567c1.296-0.126,13.763-1.842,16.098-1.348c2.332,0.489,23.756,5.045,23.756,5.045l20.455-3.567
		l3.3,0.091v14.738h-11.937l2.255-2.135l-3.727-3.523l-7.428-3.526l-18.592-3.523l-18.587-1.766l-16.723,1.766h-22.312h-11.546v-5.1
		c2.949-3.192,9.644-10.601,13.406-16.058c4.923-7.141,14.872-21.154,14.872-21.154c1.623,0.386,1.536,0.622,3.714,0
		c6.276,8.93,11.261,15.391,19.353,22.455c0.37,0.324,0.741,0.648,1.126,0.976c9.325-5.331,19.005-9.496,27.849-12.852
		c7.062,3.347,19.056,14.575,28.276,23.299V105.569z"/>
	<path fill="none" d="M15.894,260.603h251.68V22.862H15.894V260.603z M119.728,45.11h78.073v-0.121h55.766v0.121v89.105v0.121
		H119.728V45.11z M52.808,56.265h33.46h22.307v11.151H86.268h-33.46V56.265z M30.502,78.569h55.766h22.307v11.154H86.268H30.502
		V78.569z M30.502,100.877h55.766h22.307v11.153H86.268H30.502V100.877z M30.502,123.183h55.766h22.307v11.154H86.268H30.502
		V123.183z M30.502,145.49h55.766h111.533h55.766v11.154h-55.766H86.268H30.502V145.49z M30.502,167.796h55.766h111.533h55.766
		v11.153h-55.766H86.268H30.502V167.796z M30.502,190.104h55.766h111.533h55.766v11.153h-55.766H86.268H30.502V190.104z
		 M30.502,212.41h55.766h111.533h55.766v11.153h-55.766H86.268H30.502V212.41z M30.502,234.716h55.766h89.227v11.153H86.268H30.502
		V234.716z"/>
	<path fill="none" d="M153.646,89.507l1.996-5.868l0.955-2.81l3.942-10.302l0.087-0.23l-5.941,8.341l-4.792,8.283l-6.278,7.043
		l-5.298,8.066l4.097-1.064l3.408-1.271l0.079-0.03c1.225,0.377,2.581,0.404,3.648,1.146l2.006-4.383l0.664-1.449L153.646,89.507z"
		/>
	<polygon points="197.801,223.563 253.566,223.563 253.566,212.41 197.801,212.41 86.268,212.41 30.502,212.41 30.502,223.563 
		86.268,223.563 	"/>
	<polygon points="197.801,178.949 253.566,178.949 253.566,167.796 197.801,167.796 86.268,167.796 30.502,167.796 30.502,178.949 
		86.268,178.949 	"/>
	<polygon points="175.494,245.869 175.494,234.716 86.268,234.716 30.502,234.716 30.502,245.869 86.268,245.869 	"/>
	<polygon points="108.574,134.337 108.574,123.183 86.268,123.183 30.502,123.183 30.502,134.337 86.268,134.337 	"/>
	<polygon points="197.801,201.257 253.566,201.257 253.566,190.104 197.801,190.104 86.268,190.104 30.502,190.104 30.502,201.257 
		86.268,201.257 	"/>
	<polygon points="108.574,89.724 108.574,78.569 86.268,78.569 30.502,78.569 30.502,89.724 86.268,89.724 	"/>
	<polygon points="108.574,67.416 108.574,56.265 86.268,56.265 52.808,56.265 52.808,67.416 86.268,67.416 	"/>
	<polygon points="197.801,156.645 253.566,156.645 253.566,145.49 197.801,145.49 86.268,145.49 30.502,145.49 30.502,156.645 
		86.268,156.645 	"/>
	<polygon points="108.574,112.03 108.574,100.877 86.268,100.877 30.502,100.877 30.502,112.03 86.268,112.03 	"/>
	<path d="M253.566,134.216V45.11v-0.121h-55.766v0.121h-78.073v89.227h133.839V134.216z M242.408,74.467v2.674v0.128v1.377v26.923
		v1.521v16.093h-0.006h-14.867h-2.004h-1.699h-0.012h-18.587h-7.435h-66.917h-0.003v-10.578v-7.051V56.265h89.516
		c0,0.037,0.001,0.072,0.003,0.111h2.938c0-0.002,0-0.002,0-0.003h19.071h0.005v18.094
		C242.411,74.467,242.409,74.467,242.408,74.467z"/>
	<path d="M184.819,90.2c-0.385-0.327-0.756-0.651-1.126-0.976c-8.092-7.064-13.076-13.525-19.353-22.455
		c-2.178,0.622-2.091,0.386-3.714,0c0,0-9.949,14.014-14.872,21.154c-3.763,5.457-10.457,12.865-13.406,16.058v5.1h11.546h22.312
		l16.723-1.766l18.587,1.766l18.592,3.523l7.428,3.526l3.727,3.523l-2.255,2.135h11.937v-14.738l-3.3-0.091l-20.455,3.567
		c0,0-21.424-4.556-23.756-5.045c-2.335-0.494-14.802,1.222-16.098,1.348c-1.296,0.122-7.886-3.444-10.086-3.567
		c-2.211-0.123-11.441,3.589-14.034,3.959c-1.944,0.273-2.5,0.183-2.663,0.131l0.326-0.174c8.763-1.612,12.233-5.134,15.272-5.134
		c1.884,0,9.884,3.524,11.186,3.524c1.862,0,11.807-1.784,14.905-1.784c3.154,0,24.163,5.308,24.163,5.308l21.19-3.523h3.35v-4.922
		c-9.221-8.724-21.215-19.952-28.276-23.299C203.824,80.704,194.145,84.869,184.819,90.2z M149.55,100.812
		c-1.067-0.742-2.424-0.77-3.648-1.146l-0.079,0.03l-3.408,1.271l-4.097,1.064l5.298-8.066l6.278-7.043l4.792-8.283l5.941-8.341
		l-0.087,0.23l-3.942,10.302l-0.955,2.81l-1.996,5.868l-1.427,5.473l-0.664,1.449L149.55,100.812z M167.13,100.749l-4.674-1.729
		l-5.168,3.18h-5.331v-0.017l3.996-9.574l1.951-9.881l2.819-6.103l1.753-6.331l2.451,6.517l0.69,6.219l2.958,5.541l2.93,6.369
		l0.545,4.495L167.13,100.749z M183.945,101.969l-5.107,1.122l-3.344-1.063l-0.941-4.812l-3.236-9.803l-3.648-6.418l-0.563-1.81
		c-0.155-0.222-0.318-0.432-0.456-0.671l-2.153-7.715l-0.155-0.506l0.025,0.035l-0.011-0.035l3.077,4.132l7.93,9.872l7.188,7.469
		l2.398,2.481l5.414,7.779C188.232,102.004,186.086,101.767,183.945,101.969z M193.237,102.171l-4.042-5.972l4.161,3.147
		l6.513,4.452L193.237,102.171z M201.288,102.199c-4.914-3.408-9.854-6.862-12.783-8.984c-0.389-0.306-0.753-0.604-1.127-0.904
		l8.402-3.409l5.497-4.866l9.647-3.712l-2.516,6.016l-3.768,6.251l-2.239,6.797L201.288,102.199z M216.431,106.271l-12.896-2.529
		l1.793-4.19l2.298-7.018l2.821-6.102l1.754-6.329l2.45,6.514l3.13,5.561l2.262,5.541l-0.328,5.925l3.104,2.957L216.431,106.271z
		 M221.452,85.647l8.985,7.394l6.1,7.915l-0.063-0.063l0.058,0.076l0.032,0.019l-0.027-0.029l0.244,0.153l4.119,2.349l-6.159,0.108
		l-7.743,1.429l0.004,0.004l-0.643,0.131l-3.446-2.542l-0.268-0.194l-0.011-0.13l-0.675-8.225l-4.992-7.497l-1.205-1.802
		l-0.174-0.595l-1.198-4.066L221.452,85.647z"/>
	<polygon points="220.031,116.79 209.83,114.538 201.548,113.006 182.933,111.321 164.743,113.105 144.227,113.135 143.464,113.105 
		132.349,112.744 132.349,121.789 187.519,121.789 171.774,119.654 175.494,116.132 190.362,116.132 201.514,119.654 
		203.766,121.789 223.642,121.789 223.374,119.834 	"/>
	<path d="M240.942,77.09v-2.682V57.77h-17.544h-2.939C221.238,68.136,229.992,76.407,240.942,77.09z"/>
	<path d="M7.087,14.057v255.352h269.292V14.057H7.087z M267.573,260.603H15.894V22.862h251.68V260.603z"/>
</g>
</svg>
