<?xml version="1.0" encoding="utf-8"?>
<!-- Generator: Adobe Illustrator 15.1.0, SVG Export Plug-In . SVG Version: 6.00 Build 0)  -->
<!DOCTYPE svg PUBLIC "-//W3C//DTD SVG 1.1//EN" "http://www.w3.org/Graphics/SVG/1.1/DTD/svg11.dtd">
<svg version="1.1" id="Layer_3" xmlns="http://www.w3.org/2000/svg" xmlns:xlink="http://www.w3.org/1999/xlink" x="0px" y="0px"
	 width="283.465px" height="283.465px" viewBox="0 0 283.465 283.465" enable-background="new 0 0 283.465 283.465"
	 xml:space="preserve">
<path fill="none" d="M144.479,139.315c-2.413,0-4.188,1.874-4.643,4.434h8.604C148.348,141.463,147.12,139.315,144.479,139.315z"/>
<path fill="none" d="M103.625,139.316c-3.277,0-5.006,2.559-5.006,6.398v1.007c0,3.93,1.957,6.397,5.097,6.397
	c3.596,0,5.371-2.741,5.371-6.946C109.087,141.921,107.266,139.316,103.625,139.316z"/>
<path fill="none" d="M258.65,137.716c-3.644,0-5.781,2.559-6.328,6.444h11.516C263.838,140.504,262.018,137.716,258.65,137.716z"/>
<path fill="none" d="M172.848,129.033c-6.096,0-10.74,4.57-10.74,12.843c0,8.272,4.644,12.843,10.74,12.843
	c6.101,0,10.742-4.572,10.742-12.843C183.59,133.603,178.949,129.033,172.848,129.033z"/>
<path fill="none" d="M274.45,128.227c-0.142-0.101-0.384-0.152-0.729-0.152h-0.588v1.314h0.588c0.348,0,0.592-0.05,0.729-0.147
	c0.139-0.099,0.209-0.267,0.209-0.505C274.659,128.495,274.589,128.325,274.45,128.227z"/>
<path fill="none" d="M276.006,127.488c-0.297-0.299-0.627-0.523-0.99-0.672c-0.356-0.149-0.748-0.224-1.168-0.224
	c-0.414,0-0.803,0.075-1.162,0.224c-0.354,0.149-0.684,0.373-0.983,0.672c-0.3,0.298-0.524,0.631-0.679,0.996
	c-0.151,0.361-0.229,0.749-0.229,1.162c0,0.409,0.078,0.795,0.229,1.157c0.156,0.359,0.379,0.687,0.679,0.986
	c0.299,0.298,0.629,0.524,0.983,0.676c0.359,0.149,0.748,0.224,1.162,0.224c0.42,0,0.812-0.075,1.168-0.224
	c0.361-0.152,0.693-0.378,0.99-0.676c0.295-0.295,0.516-0.622,0.662-0.981c0.15-0.359,0.225-0.746,0.225-1.162
	c0-0.422-0.074-0.813-0.225-1.172C276.52,128.112,276.299,127.783,276.006,127.488z M274.947,131.566l-0.613-0.996
	c-0.188-0.306-0.34-0.497-0.457-0.577c-0.115-0.082-0.258-0.124-0.428-0.124h-0.316v1.696h-0.736v-3.982h1.355
	c0.561,0,0.979,0.096,1.254,0.286c0.275,0.187,0.414,0.473,0.414,0.857c0,0.273-0.084,0.498-0.252,0.676
	c-0.166,0.178-0.4,0.294-0.705,0.348c0.076,0.026,0.166,0.1,0.271,0.224c0.106,0.121,0.233,0.297,0.381,0.53l0.652,1.062H274.947z"
	/>
<path d="M172.848,125.925c-8.188,0-14.928,5.987-14.928,15.951c0,9.962,6.734,15.95,14.928,15.95c8.194,0,14.93-5.987,14.93-15.95
	C187.777,131.912,181.041,125.925,172.848,125.925z M172.848,154.719c-6.098,0-10.74-4.57-10.74-12.843
	c0-8.273,4.646-12.843,10.74-12.843c6.103,0,10.742,4.57,10.742,12.843C183.59,150.146,178.947,154.719,172.848,154.719z"/>
<path d="M206.316,133.832v1.417h-3.242h-0.354h-5.291v-2.011c0-3.976,1.684-6.307,4.731-6.307c1.409,0,2.317,0.229,3.188,0.549
	l0.362-2.834c-0.817-0.319-2.364-0.64-3.597-0.64c-5.418,0-8.514,3.519-8.514,9.826v1.417h-3.596v2.925h3.596v19.195h3.822v-19.196
	h5.293h0.354h3.242v19.196h3.822v-19.196h5.645v-2.925h-5.645v-2.011c0-3.976,1.686-6.307,4.732-6.307
	c1.412,0,2.322,0.229,3.188,0.549l0.363-2.834c-0.818-0.319-2.367-0.64-3.596-0.64C209.412,124.005,206.316,127.524,206.316,133.832
	z"/>
<rect x="220.213" y="135.249" width="3.824" height="22.12"/>
<path d="M222.125,127.25c-1.32,0-2.367,1.051-2.367,2.376s1.047,2.376,2.367,2.376s2.365-1.051,2.365-2.376
	S223.445,127.25,222.125,127.25z"/>
<path d="M239.633,137.716c2.275,0,4.277,0.548,5.918,1.325l0.363-2.924c-1.365-0.686-3.549-1.326-5.963-1.326
	c-6.826,0-11.971,4.159-11.971,11.928c0,7.313,4.645,11.106,10.787,11.106c2.729,0,4.688-0.32,6.92-1.28l-0.365-2.925
	c-1.91,0.868-3.959,1.278-5.871,1.278c-4.414,0-7.465-2.787-7.465-8.685C231.986,140.642,235.309,137.716,239.633,137.716z"/>
<path d="M258.969,134.791c-6.145,0-10.65,5.118-10.65,11.93c0,7.494,4.509,11.104,10.65,11.104c2.73,0,4.779-0.411,6.918-1.28
	l-0.365-2.925c-1.684,0.823-4.096,1.28-6.006,1.28c-4.416,0-7.283-2.696-7.375-7.727h15.338c0.092-0.82,0.14-1.508,0.14-2.191
	C267.615,139.315,264.658,134.791,258.969,134.791z M252.322,144.16c0.547-3.885,2.686-6.444,6.328-6.444
	c3.367,0,5.188,2.788,5.188,6.444H252.322z"/>
<polygon points="64.421,126.382 58.322,126.382 58.322,157.369 78.303,157.369 78.303,152.662 64.421,152.662 "/>
<rect x="81.989" y="135.065" width="6.099" height="22.303"/>
<path d="M85.038,126.108c-1.957,0-3.505,1.6-3.505,3.519c0,1.965,1.548,3.519,3.505,3.519c1.912,0,3.505-1.554,3.505-3.519
	C88.543,127.708,86.95,126.108,85.038,126.108z"/>
<path d="M105.946,134.609c-3.232,0-5.144,0.959-7.237,3.062h-0.09v-13.208h-6.1v32.907h5.963l0.137-2.604h0.09
	c1.912,2.147,3.824,3.063,6.964,3.063c5.917,0,9.832-5.349,9.832-12.021C115.504,139.361,112,134.609,105.946,134.609z
	 M103.716,153.118c-3.14,0-5.097-2.468-5.097-6.397v-1.007c0-3.839,1.729-6.398,5.006-6.398c3.641,0,5.462,2.605,5.462,6.856
	C109.087,150.377,107.312,153.118,103.716,153.118z"/>
<path d="M124.906,139.041h-0.091l-0.136-3.976h-5.962v22.303h6.099v-8.409c0-4.479,0.82-6.079,2.23-7.084
	c1.229-0.868,2.686-1.234,4.688-1.326l0.136-5.941C128.957,134.791,126.18,136.574,124.906,139.041z"/>
<path d="M145.115,134.609c-7.008,0-11.515,4.844-11.515,12.204c0,7.174,4.643,11.017,11.515,11.017c3.232,0,5.508-0.503,7.646-1.466
	l-0.64-4.567c-2.002,0.823-4.052,1.325-6.231,1.325c-3.688,0-6.057-1.688-6.284-5.164h14.429c0.185-0.822,0.271-2.104,0.271-3.063
	C154.311,139.361,150.941,134.609,145.115,134.609z M139.836,143.749c0.455-2.56,2.23-4.434,4.643-4.434
	c2.643,0,3.869,2.148,3.961,4.434H139.836z"/>
<path d="M277.121,128.288c-0.172-0.417-0.43-0.797-0.777-1.143c-0.346-0.346-0.729-0.606-1.148-0.781
	c-0.414-0.175-0.86-0.262-1.348-0.262c-0.479,0-0.934,0.087-1.352,0.262c-0.416,0.175-0.799,0.435-1.143,0.781
	c-0.351,0.346-0.605,0.727-0.777,1.143s-0.258,0.869-0.258,1.357c0,0.482,0.086,0.932,0.258,1.348
	c0.172,0.413,0.43,0.792,0.777,1.138c0.344,0.346,0.727,0.607,1.143,0.781c0.418,0.175,0.869,0.262,1.352,0.262
	c0.484,0,0.934-0.087,1.348-0.262c0.423-0.175,0.806-0.435,1.148-0.781c0.346-0.345,0.605-0.725,0.777-1.138
	c0.172-0.416,0.256-0.865,0.256-1.348C277.377,129.157,277.293,128.704,277.121,128.288z M276.668,130.808
	c-0.146,0.359-0.367,0.686-0.662,0.981c-0.297,0.298-0.629,0.524-0.99,0.676c-0.356,0.149-0.748,0.224-1.168,0.224
	c-0.414,0-0.803-0.075-1.162-0.224c-0.354-0.152-0.686-0.378-0.983-0.676c-0.3-0.299-0.521-0.627-0.679-0.986
	c-0.149-0.362-0.229-0.748-0.229-1.157c0-0.413,0.076-0.801,0.229-1.162c0.152-0.365,0.379-0.698,0.679-0.996
	c0.301-0.299,0.629-0.523,0.983-0.672c0.359-0.149,0.748-0.224,1.162-0.224c0.42,0,0.812,0.075,1.168,0.224
	c0.363,0.149,0.693,0.373,0.99,0.672c0.293,0.295,0.514,0.624,0.662,0.986c0.15,0.359,0.225,0.75,0.225,1.172
	C276.893,130.062,276.818,130.449,276.668,130.808z"/>
<path d="M274.734,129.974c-0.105-0.124-0.195-0.198-0.271-0.224c0.305-0.054,0.539-0.17,0.705-0.348
	c0.168-0.178,0.252-0.403,0.252-0.676c0-0.384-0.139-0.67-0.414-0.857c-0.275-0.19-0.693-0.286-1.254-0.286h-1.355v3.982h0.736
	v-1.696h0.316c0.17,0,0.313,0.042,0.428,0.124c0.117,0.08,0.27,0.271,0.457,0.577l0.613,0.996h0.82l-0.652-1.062
	C274.969,130.271,274.842,130.095,274.734,129.974z M273.721,129.389h-0.588v-1.314h0.588c0.346,0,0.588,0.051,0.729,0.152
	c0.139,0.098,0.209,0.268,0.209,0.51c0,0.238-0.07,0.406-0.209,0.505C274.313,129.339,274.068,129.389,273.721,129.389z"/>
<g>
	<g id="XMLID_1_">
		<g>
			<path d="M48.052,110.032v9.31c-0.05,1.1-1.53,1.78-2.43,1.21c-0.04-0.03-0.07-0.06-0.11-0.09c-0.02-0.02-0.05-0.04-0.07-0.06
				l-2.5-2.51l-0.1-0.1l-6.3-6.34l-0.36-0.35c-0.78-0.74-0.44-2.29,0.58-2.62c0.16-0.02,0.33-0.02,0.49,0h9.25
				C47.313,108.482,48.052,109.223,48.052,110.032z"/>
			<polygon points="36.542,111.453 42.842,117.792 36.522,111.473 			"/>
		</g>
		<g>
		</g>
	</g>
</g>
<linearGradient id="SVGID_1_" gradientUnits="userSpaceOnUse" x1="3843.8037" y1="945.4863" x2="3876.3486" y2="945.4863" gradientTransform="matrix(0.2851 0.2851 0.5439 -0.5439 -1573.7639 -470.3278)">
	<stop  offset="0" style="stop-color:#000000;stop-opacity:0"/>
	<stop  offset="0.4931" style="stop-color:#000000"/>
	<stop  offset="1" style="stop-color:#000000;stop-opacity:0"/>
</linearGradient>
<path opacity="0.25" fill="url(#SVGID_1_)" enable-background="new    " d="M45.613,120.563l0.013-0.013
	c-0.041-0.027-0.079-0.059-0.117-0.091L45.613,120.563z"/>
<path d="M30.983,109.337c-0.583-0.564-1.398-0.883-2.209-0.864H10.392c-1.595,0-2.313,1.339-2.305,2.305v44.564
	c0,1.608,0.696,2.305,2.305,2.305h35.353c1.609,0,2.305-0.693,2.305-2.305v-27.599c0.018-0.812-0.3-1.626-0.865-2.209
	L30.983,109.337z M45.936,155.361L45.936,155.361L45.936,155.361z"/>
<line fill="none" x1="45.937" y1="155.361" x2="45.936" y2="155.361"/>
</svg>
