<?xml version="1.0" encoding="utf-8"?>
<!-- Generator: Adobe Illustrator 15.1.0, SVG Export Plug-In . SVG Version: 6.00 Build 0)  -->
<!DOCTYPE svg PUBLIC "-//W3C//DTD SVG 1.1//EN" "http://www.w3.org/Graphics/SVG/1.1/DTD/svg11.dtd">
<svg version="1.1" id="Layer_3" xmlns:svg="http://www.w3.org/2000/svg"
	 xmlns="http://www.w3.org/2000/svg" xmlns:xlink="http://www.w3.org/1999/xlink" x="0px" y="0px" width="283.465px"
	 height="283.465px" viewBox="0 0 283.465 283.465" enable-background="new 0 0 283.465 283.465" xml:space="preserve">
<g>
	<path fill="none" d="M224.061,255.682v-26.134h-13.013h-11.075l10.678,17.519c0.115,0.09,0.224,0.192,0.313,0.301
		c0.038,0.199,0.038,0.396,0,0.6c0.038,0.193,0.038,0.398,0,0.59c-0.063,0.217-0.177,0.42-0.313,0.6
		c-0.092,0.107-0.195,0.203-0.316,0.293c-0.096,0.115-0.197,0.217-0.313,0.307c-0.381,0.217-0.83,0.319-1.275,0.293h-10.818v5.633
		h13.122H224.061z"/>
	<polygon fill="none" points="197.928,236.275 197.928,242.654 201.818,242.654 	"/>
	<polygon fill="none" points="54.249,242.654 54.249,235.961 50.166,242.654 	"/>
	<path fill="none" d="M96.562,156.807c-3.344,0.537-6.771,0.825-10.265,0.825c-35.742,0-64.721-29.247-64.721-65.328
		c0-36.08,28.979-65.328,64.721-65.328c11.051,0,21.447,2.802,30.545,7.73c10.628,5.757,19.48,14.419,25.512,24.938h6.938
		c-10.69-20.332-31.016-34.839-54.872-37.38c-2.468-0.263-4.974-0.398-7.51-0.398c-38.844,0-70.445,31.602-70.445,70.444
		c0,38.842,31.602,70.444,70.445,70.444c2.077,0,4.128-0.107,6.159-0.285L96.562,156.807z"/>
	<path fill="none" d="M42.005,249.758c-0.115-0.09-0.23-0.191-0.319-0.307c-0.115-0.09-0.223-0.186-0.319-0.293
		c-0.139-0.18-0.242-0.383-0.318-0.6c0-0.001,0-0.001,0-0.002c-0.026-0.192-0.026-0.396,0-0.594c0-0.001,0-0.001,0-0.002
		c-0.026-0.196-0.026-0.4,0-0.592c0.101-0.114,0.204-0.21,0.318-0.301l10.681-17.519h-0.001H28.115v26.132v0.002h26.134v-0.002
		v-5.631H43.268C42.827,250.077,42.375,249.975,42.005,249.758z"/>
	<polygon fill="none" points="121.931,125.016 130.06,125.016 125.995,118.354 	"/>
	<polygon fill="none" points="139.177,66.177 139.175,66.177 139.175,86.68 132.643,86.68 132.641,86.68 129.951,86.68 
		129.949,86.68 106.517,86.68 106.515,86.68 100.848,86.68 100.846,86.68 100.846,92.349 100.846,131.549 100.846,137.218 
		100.848,137.218 106.515,137.218 106.517,137.218 108.644,137.218 108.646,137.218 112.144,131.549 112.142,131.549 
		106.517,131.549 106.517,92.349 145.716,92.349 145.716,131.549 139.875,131.549 139.874,131.549 143.373,137.218 145.71,137.218 
		145.717,137.218 148.065,137.218 151.387,137.218 151.387,131.549 151.387,92.349 151.387,86.68 145.717,86.68 145.71,86.68 
		145.71,72.71 204.512,72.71 263.311,72.71 263.311,131.511 263.311,131.512 263.311,183.777 263.311,190.311 176.055,190.311 
		180.037,196.844 269.844,196.844 269.846,196.844 269.846,66.177 269.844,66.177 	"/>
	<polygon fill="none" points="134.045,131.549 134.044,131.549 127.804,131.549 127.803,131.549 158.637,182.617 191.168,236.484 
		186.71,236.484 186.709,236.484 126.11,236.484 126.109,236.484 61.057,236.484 93.583,182.617 124.416,131.549 124.415,131.549 
		117.945,131.549 88.084,180.498 60.782,225.252 60.782,242.654 125.995,242.654 125.996,242.654 191.395,242.654 191.395,225.564 
		163.906,180.498 	"/>
	<path fill="none" d="M139.183,125.015V98.883H113.05v26.132h3.124h0.001l7.932-12.857c0.282-0.434,0.753-0.766,1.27-0.894
		c0.095-0.114,0.198-0.21,0.319-0.3c0.109-0.006,0.21-0.006,0.31,0c0.23,0.071,0.447,0.166,0.638,0.3
		c0.524,0.128,0.984,0.46,1.264,0.894l7.935,12.857H139.183z"/>
	<path opacity="0.15" enable-background="new    " d="M188.003,209.911h83.5c1.206,0,2.183-1.021,2.183-2.277v-4.254h-89.663
		L188.003,209.911z"/>
	<path d="M274.195,59.644h-2.692h-111.79c-12.51-27.766-40.428-47.157-72.803-47.157c-44.012,0-79.824,35.814-79.824,79.824
		c0,44.01,35.812,79.823,79.824,79.823c0.067,0,0.132-0.005,0.199-0.005l-4.525,7.335L56.03,223.018H21.582v39.199h39.2v-6.568v-5.6
		h65.225h65.388v5.635v6.533h39.201v-39.199h-34.604l-7.989-13.105l-3.981-6.532h0.001h89.663h0.51c1.205,0,2.184-0.978,2.184-2.183
		V61.826C276.378,60.621,275.4,59.644,274.195,59.644z M54.249,255.682v0.002H28.115v-0.002V229.55h23.932h0.001l-10.681,17.519
		c-0.114,0.091-0.217,0.187-0.318,0.301c-0.026,0.191-0.026,0.396,0,0.592c0,0.001,0,0.001,0,0.002
		c-0.026,0.197-0.026,0.401,0,0.594c0,0.001,0,0.001,0,0.002c0.076,0.217,0.179,0.42,0.318,0.6c0.096,0.107,0.204,0.203,0.319,0.293
		c0.089,0.115,0.204,0.217,0.319,0.307c0.37,0.217,0.822,0.319,1.263,0.293h10.981V255.682z M54.249,242.654h-4.083l4.083-6.693
		V242.654z M197.928,236.275l3.891,6.379h-3.891V236.275z M197.928,250.049h10.818c0.445,0.026,0.895-0.076,1.275-0.293
		c0.115-0.09,0.217-0.191,0.313-0.307c0.121-0.09,0.225-0.186,0.316-0.293c0.137-0.18,0.25-0.383,0.313-0.6
		c0.038-0.191,0.038-0.396,0-0.59c0.038-0.203,0.038-0.4,0-0.6c-0.09-0.108-0.198-0.211-0.313-0.301l-10.678-17.519h11.075h13.013
		v26.134H211.05h-13.122V250.049z M86.91,162.754c-38.843,0-70.445-31.602-70.445-70.444c0-38.842,31.601-70.444,70.445-70.444
		c2.537,0,5.042,0.135,7.51,0.398c23.856,2.541,44.182,17.049,54.872,37.38h-6.938c-6.031-10.519-14.884-19.181-25.512-24.938
		c-9.098-4.928-19.494-7.729-30.545-7.73c-35.742,0-64.721,29.248-64.721,65.328c0,36.081,28.979,65.328,64.721,65.328
		c3.494,0,6.921-0.288,10.265-0.825l-3.493,5.662C91.038,162.646,88.987,162.754,86.91,162.754z M191.395,225.564v17.09h-65.398
		h-0.001H60.782v-17.402l27.302-44.754l29.861-48.949h6.47h0.001l-30.833,51.068l-32.526,53.867h65.052h0.001h60.599h0.001h4.458
		l-32.531-53.867l-30.833-51.068h0.001h6.24h0.001l29.861,48.949L191.395,225.564z M127.908,112.158
		c-0.28-0.434-0.74-0.766-1.264-0.894c-0.191-0.134-0.408-0.229-0.638-0.3c-0.1-0.006-0.201-0.006-0.31,0
		c-0.121,0.09-0.224,0.186-0.319,0.3c-0.517,0.128-0.988,0.46-1.27,0.894l-7.932,12.857h-0.001h-3.124V98.883h26.133v26.132h-3.34
		L127.908,112.158z M130.06,125.016h-8.129l4.064-6.662L130.06,125.016z M269.846,196.844h-0.002h-89.807l-3.982-6.533h87.256
		v-6.533v-52.265v-0.001V72.71h-58.799H145.71v13.97h0.007h5.67v5.669v39.2v5.669h-3.321v6.014h-5.416v-6.014h0.724l-3.499-5.669
		h0.001h5.841v-39.2h-39.199v39.2h5.625h0.002l-3.498,5.669h-0.002h-2.127h-0.002h-5.667h-0.002v-5.669v-39.2V86.68h0.002h5.667
		h0.002h23.432h0.002h2.69h0.002h6.532V66.177h0.002h130.667h0.002V196.844z"/>
	<polygon points="145.71,137.218 143.373,137.218 142.649,137.218 142.649,143.232 148.065,143.232 148.065,137.218 
		145.717,137.218 	"/>
</g>
</svg>
