<?xml version="1.0" encoding="utf-8"?>
<!-- Generator: Adobe Illustrator 15.1.0, SVG Export Plug-In . SVG Version: 6.00 Build 0)  -->
<!DOCTYPE svg PUBLIC "-//W3C//DTD SVG 1.1//EN" "http://www.w3.org/Graphics/SVG/1.1/DTD/svg11.dtd">
<svg version="1.1" id="Layer_2" xmlns="http://www.w3.org/2000/svg" xmlns:xlink="http://www.w3.org/1999/xlink" x="0px" y="0px"
	 width="283.465px" height="283.465px" viewBox="0 0 283.465 283.465" enable-background="new 0 0 283.465 283.465"
	 xml:space="preserve">
<g>
	<path fill="none" d="M268.775,167.117c-0.161-0.768-0.65-1.475-1.455-2.11c-0.814-0.639-1.623-0.961-2.46-0.961
		c-1.913,0-3.483,1.145-4.688,3.398c-1.215,2.256-1.692,4.753-1.478,7.501C266.218,173.493,269.56,170.887,268.775,167.117z"/>
	<path fill="none" d="M164.793,181.392c3.159-3.912,4.734-9.114,4.734-15.611c0-6.856-1.553-12.27-4.688-16.221
		c-3.136-3.95-7.193-5.907-12.166-5.907c-5.273,0-9.486,1.972-12.634,5.931c-3.148,3.963-4.711,9.267-4.711,15.893
		c0,6.447,1.544,11.69,4.665,15.729c3.123,4.039,7.193,6.048,12.212,6.048C157.43,187.252,161.634,185.303,164.793,181.392z"/>
	<path d="M219.033,154.764c0.615,0.51,1.279,0.773,1.993,0.773c0.689,0,1.216-0.265,1.594-0.773s0.493-1.114,0.352-1.805
		c-0.146-0.711-0.521-1.297-1.102-1.781c-0.588-0.485-1.233-0.728-1.923-0.728c-0.714,0-1.258,0.242-1.665,0.728
		c-0.416,0.484-0.544,1.07-0.398,1.781C218.025,153.649,218.415,154.255,219.033,154.764z"/>
	<path d="M243.062,185.61c-1.303,0-2.11-0.748-2.415-2.227c-0.083-0.359-0.117-0.778-0.117-1.266l0.047-17.885h7.196l-0.07-2.134
		H240.6v-6.798h-1.359c-1.213,4.664-3.841,7.188-7.876,7.595l0.047,1.335h4.712l-0.094,15.8c0.007,2.7,0.089,4.5,0.281,5.415
		c0.463,2.19,1.894,3.305,4.289,3.305c3.464,0,7.099-2.11,10.9-6.33l-1.148-0.984C247.605,184.218,245.179,185.61,243.062,185.61z"
		/>
	<path d="M275.784,179.563c-2.009,3.696-6.063,5.556-9.118,5.556c-4.203,0-6.776-2.306-7.736-6.893
		c-0.125-0.584-0.218-1.213-0.281-1.875c4.999-0.792,8.788-2.193,11.346-4.219c2.554-2.026,5.119-4.176,4.642-6.446
		c-0.286-1.349-0.986-2.409-2.063-3.212c-1.091-0.801-3.925-1.219-5.508-1.219c-4.026,0-7.3,1.954-9.845,5.837
		c-2.533,3.89-3.317,8.198-2.321,12.939c0.586,2.776,1.752,4.929,3.54,6.445c1.782,1.517,4.045,2.274,6.751,2.274
		c2.517,0,6.023-0.639,7.5-1.923c1.479-1.284,2.843-3.362,4.103-6.211L275.784,179.563z M260.172,167.446
		c1.205-2.255,2.775-3.399,4.688-3.399c0.837,0,1.646,0.323,2.46,0.961c0.803,0.635,1.294,1.342,1.455,2.11
		c0.784,3.769-2.558,6.376-10.081,7.829C258.479,172.197,258.957,169.7,260.172,167.446z"/>
	<path d="M225.854,186.079c-0.543-0.292-0.917-0.825-1.078-1.641c-0.124-0.587-0.179-1.601-0.188-3l0.047-20.019h-1.57l-8.674,1.993
		v1.547l3-0.375c1.454,0,2.31,0.658,2.579,1.969c0.091,0.438,0.148,1.055,0.164,1.828l-0.094,14.182
		c-0.023,1.962-0.241,3.104-0.68,3.445c-0.441,0.345-1.605,0.517-3.492,0.517l-0.047,1.336h13.76l-0.022-1.336
		C227.647,186.525,226.407,186.375,225.854,186.079z"/>
	<path d="M206.282,185.142c-1.396,0.801-3.865,1.196-7.431,1.196h-2.766c-3.209,0-5.065-1.159-5.556-3.492
		c-0.102-0.461-0.137-0.956-0.142-1.5l0.117-31.973c-0.001-2.358,0.297-3.938,0.914-4.711c0.624-0.771,1.748-1.203,3.376-1.313
		l-0.07-1.431h-15.259l0.07,1.431c2.934,0,4.578,0.863,4.945,2.602c0.138,0.621,0.201,1.769,0.211,3.422l-0.023,31.621
		c-0.023,2.362-0.36,3.869-1.008,4.524c-0.647,0.648-1.742,1.056-3.328,1.219l-0.071,1.43h29.253l0.751-7.174h-1.336
		C208.549,182.947,207.675,184.348,206.282,185.142z"/>
	<path d="M173.278,200.941c-1.938,0-3.896-0.64-5.861-1.923c-1.959-1.286-4.411-3.739-7.336-7.36
		c-1.374-1.734-2.324-2.829-2.86-3.258c5.604-1.095,10.212-3.811,13.806-8.157c3.594-4.345,5.392-9.304,5.392-14.861
		c0-6.6-2.348-12.146-7.008-16.667c-4.666-4.521-10.401-6.798-17.206-6.798c-4.407,0-8.409,1.04-12.025,3.117
		c-3.621,2.076-6.487,4.956-8.603,8.626c-2.114,3.67-3.165,7.566-3.165,11.72c0,5.58,1.827,10.552,5.509,14.908
		c3.683,4.355,8.099,7.069,13.22,8.111c1.172,0.61,2.847,2.185,5.04,4.735c2.471,2.878,4.563,4.953,6.281,6.188
		c1.719,1.235,3.573,2.142,5.532,2.742c1.962,0.597,4.082,0.891,6.376,0.891c2.777,0,5.265-0.483,7.455-1.477l-0.492-1.219
		C176.062,200.72,174.706,200.941,173.278,200.941z M152.205,187.252c-5.019,0-9.089-2.009-12.212-6.048
		c-3.12-4.038-4.665-9.281-4.665-15.729c0-6.625,1.563-11.929,4.711-15.893c3.147-3.959,7.361-5.931,12.634-5.931
		c4.973,0,9.03,1.957,12.166,5.907c3.135,3.951,4.688,9.364,4.688,16.221c0,6.496-1.575,11.699-4.734,15.611
		C161.634,185.303,157.43,187.252,152.205,187.252z"/>
	<path d="M110.176,161.539c-4.077-2.451-6.724-4.446-7.946-6.001c-1.224-1.555-1.852-3.271-1.852-5.157
		c0-2.039,0.75-3.677,2.227-4.898c1.479-1.224,3.415-1.829,5.836-1.829c2.727,0,5,0.81,6.798,2.438
		c1.797,1.632,2.835,3.892,3.141,6.799h1.336v-10.501h-1.242c-0.151,0.534-0.292,0.877-0.422,1.031
		c-0.125,0.152-0.367,0.234-0.727,0.234c-0.432,0-1.203-0.182-2.297-0.539c-2.344-0.79-4.505-1.196-6.493-1.196
		c-3.617,0-6.558,1.07-8.813,3.212c-2.255,2.142-3.398,4.951-3.398,8.392c0,1.783,0.284,3.409,0.844,4.898
		c0.56,1.493,1.431,2.876,2.602,4.126c1.171,1.25,3.516,2.95,7.009,5.11c4.287,2.617,7.092,4.74,8.438,6.398
		c1.348,1.657,2.017,3.394,2.017,5.204c0,2.424-0.797,4.36-2.438,5.813c-1.642,1.455-3.839,2.18-6.563,2.18
		c-2.873,0-5.375-1.014-7.524-3.023c-2.148-2.014-3.233-4.678-3.258-8.017h-1.336v12.118h1.336c0.408-1.147,0.973-1.735,1.71-1.735
		c0.356,0,1.188,0.245,2.485,0.704c3.155,1.122,5.746,1.664,7.782,1.664c3.51,0,6.505-1.229,9.001-3.727
		c2.492-2.498,3.75-5.509,3.75-9.024c0-2.727-0.831-5.152-2.461-7.267C118.086,166.828,114.916,164.366,110.176,161.539z"/>
	<path d="M61.224,174.7c-0.035-0.445-0.06-0.773-0.07-0.918c-0.113-0.741-1.054-6.822-2.347-11.791
		c-0.829-3.203-1.471-4.666-1.864-5.329c-0.531-0.899-0.899-2.331,0.898-8.963l1.335-4.929l0.079,0.14
		c0.362-1.146,0.758-2.354,1.186-3.614l0.756-2.23c3.16-16.116,12.829-36.061,22.797-47.163H14.47c-3.843,0-6.97,3.126-6.97,6.97
		v82.311c0,3.843,3.126,6.969,6.97,6.969h46.875C61.111,182.335,61.069,178.42,61.224,174.7z"/>
	<path d="M106.518,85.081c-5.112-4.559-11.301-2.728-17.409,2.693c-0.907,0.806-1.812,1.699-2.711,2.654
		c-10.45,11.086-20.149,31.62-23.163,47.301c1.174,2.381,2.09,5.418,2.695,7.739c0.154,0.596,0.295,1.153,0.406,1.631
		c0.266,1.125,0.408,1.854,0.408,1.854s-0.094-0.354-0.479-1.47c-0.073-0.214-0.154-0.448-0.251-0.722
		c-0.041-0.113-0.098-0.252-0.161-0.398c-0.682-1.585-2.567-4.93-3.397-6.385c-0.709,2.093-1.336,4.052-1.862,5.824
		c2.396,4.383,3.856,11.895,3.856,11.895s-0.127-0.486-0.729-2.186c-0.535-1.502-3.196-6.167-3.827-7.257
		c-1.079,3.982-1.507,6.671-1.12,7.325c0.75,1.268,1.465,3.456,2.092,5.876c1.418,5.453,2.403,12.09,2.403,12.09
		s0.032,0.439,0.085,1.116c-0.197,4.578-0.079,9.326,0.275,13.616c0.47,5.68,1.354,10.558,2.481,13.172l0.765-0.419
		c-1.654-5.144-2.327-11.888-2.033-19.662c0.446-11.886,3.181-26.219,8.235-41.158c8.539-22.551,20.384-40.646,31.225-49.287
		c-9.881,8.924-23.255,37.812-27.259,48.508c-4.483,11.979-7.66,23.221-9.574,33.99c3.303-10.097,13.983-14.437,13.983-14.437
		s5.238-6.46,11.361-15.69c-3.667,0.837-9.688,2.268-11.705,3.115c-2.975,1.248-3.776,1.674-3.776,1.674s9.637-5.869,17.904-8.526
		C106.606,121.651,118.993,96.21,106.518,85.081z"/>
</g>
</svg>
