<?xml version="1.0" encoding="utf-8"?>
<!-- Generator: Adobe Illustrator 15.1.0, SVG Export Plug-In . SVG Version: 6.00 Build 0)  -->
<!DOCTYPE svg PUBLIC "-//W3C//DTD SVG 1.1//EN" "http://www.w3.org/Graphics/SVG/1.1/DTD/svg11.dtd">
<svg version="1.1" id="Layer_3" xmlns="http://www.w3.org/2000/svg" xmlns:xlink="http://www.w3.org/1999/xlink" x="0px" y="0px"
	 width="283.465px" height="283.465px" viewBox="0 0 283.465 283.465" enable-background="new 0 0 283.465 283.465"
	 xml:space="preserve">
<g>
	<polygon fill="none" points="32.719,122.079 32.72,122.079 31.863,119.188 	"/>
	<rect x="124.901" y="88.516" fill="none" width="0.001" height="4.208"/>
	<path fill="none" d="M15.495,189.501c0,2.333,1.876,4.207,4.208,4.207C17.372,193.708,15.495,191.834,15.495,189.501z"/>
	<path fill="none" d="M99.509,236.977c1.597,0,2.8-0.656,3.616-1.965c0.828-1.318,1.241-3.259,1.241-5.816
		c0-2.559-0.411-4.486-1.241-5.795c-0.817-1.32-2.019-1.979-3.616-1.979c-1.597,0-2.808,0.655-3.625,1.964
		c-0.804,1.307-1.208,3.239-1.208,5.811c0,2.568,0.405,4.509,1.208,5.816C96.702,236.32,97.912,236.977,99.509,236.977z"/>
	<path fill="none" d="M15.494,248.408h252.462v-42.076H15.494V248.408z M204.271,241.563h1.226c1.694,0,2.796-0.269,3.313-0.795
		c0.516-0.529,0.771-1.638,0.771-3.328v-4.463c0-1.873,0.271-3.242,0.813-4.095c0.543-0.853,1.48-1.442,2.813-1.767
		c-1.322-0.299-2.258-0.873-2.813-1.725c-0.539-0.852-0.813-2.226-0.813-4.111v-4.463c0-1.692-0.255-2.799-0.771-3.326
		c-0.517-0.53-1.619-0.797-3.313-0.797h-1.226v-2.572h1.119c2.989,0,4.982,0.441,5.991,1.331c1.011,0.877,1.511,2.64,1.511,5.293
		v4.321c0,1.801,0.326,3.045,0.963,3.731c0.648,0.683,1.817,1.026,3.51,1.026h1.15v2.572h-1.15c-1.693,0-2.862,0.35-3.51,1.043
		c-0.637,0.699-0.963,1.953-0.963,3.766v4.307c0,2.654-0.5,4.42-1.511,5.309c-1.009,0.89-3.002,1.33-5.991,1.332h-1.119V241.563z
		 M180.57,219.021h3.675l5.351,7.297l5.309-7.297h3.73l-7.224,9.656l7.921,10.52h-3.837l-5.899-8.088l-5.894,8.088h-3.839
		l7.932-10.52L180.57,219.021z M161.866,225.825h1.118c1.693,0,2.855-0.343,3.494-1.027c0.635-0.685,0.951-1.93,0.951-3.731v-4.321
		c0-2.653,0.514-4.416,1.521-5.293c1.021-0.89,3.021-1.331,6.009-1.331h1.157v2.572h-1.267c-1.681,0-2.779,0.269-3.295,0.798
		c-0.505,0.515-0.755,1.62-0.755,3.325v4.463c0,1.885-0.28,3.259-0.829,4.111c-0.541,0.852-1.467,1.424-2.787,1.726
		c1.332,0.325,2.271,0.913,2.812,1.766s0.806,2.222,0.806,4.095v4.463c0,1.715,0.252,2.834,0.756,3.353
		c0.516,0.515,1.613,0.771,3.295,0.771h1.266v2.59h-1.157c-2.989,0-4.987-0.441-6.009-1.33c-1.008-0.891-1.52-2.656-1.52-5.309
		v-4.308c0-1.813-0.322-3.067-0.971-3.767c-0.635-0.694-1.795-1.041-3.477-1.043h-1.118V225.825z M136.745,219.547h5.391v-5.729
		h3.311v5.729h7.527v2.579h-7.527v10.948c0,1.486,0.283,2.525,0.847,3.113c0.563,0.59,1.546,0.879,2.952,0.879h3.729v2.654h-4.051
		c-2.486,0-4.238-0.498-5.26-1.494c-1.02-0.996-1.528-2.715-1.528-5.152v-10.948h-5.391V219.547z M117.144,219.416h3.329v3.943
		c0.553-1.428,1.399-2.522,2.54-3.277c1.152-0.768,2.519-1.15,4.092-1.15c0.816,0,1.576,0.096,2.285,0.305
		c0.707,0.203,1.39,0.527,2.038,0.961v3.377c-0.709-0.553-1.429-0.946-2.162-1.198c-0.732-0.254-1.54-0.379-2.416-0.379
		c-2.065,0-3.641,0.642-4.734,1.938c-1.092,1.297-1.643,3.172-1.643,5.621v10.026h-3.329V219.416z M93.253,221.436
		c1.393-1.887,3.303-2.826,5.728-2.826c1.201,0,2.259,0.262,3.172,0.787c0.924,0.518,1.658,1.274,2.211,2.269v-2.571h3.336v27.844
		h-3.336v-10.25c-0.54,0.998-1.269,1.764-2.194,2.304c-0.912,0.528-1.976,0.796-3.188,0.796c-2.413,0-4.323-0.932-5.729-2.795
		c-1.392-1.873-2.087-4.447-2.087-7.725C91.166,225.93,91.86,223.32,93.253,221.436z M70.22,235.029
		c1.237,0.636,2.414,1.113,3.542,1.438c1.129,0.313,2.205,0.471,3.214,0.471c1.465,0,2.598-0.295,3.402-0.881
		c0.804-0.602,1.208-1.44,1.208-2.507c0-1.538-1.472-2.592-4.413-3.181l-0.148-0.051l-1.241-0.244
		c-1.908-0.375-3.299-0.998-4.175-1.874c-0.876-0.892-1.315-2.101-1.315-3.625c0-1.935,0.656-3.418,1.964-4.462
		c1.309-1.057,3.171-1.588,5.597-1.588c1.079,0,2.117,0.099,3.114,0.305c0.997,0.193,1.974,0.492,2.934,0.887v3.247
		c-0.948-0.553-1.899-0.965-2.859-1.241c-0.961-0.275-1.937-0.416-2.935-0.416c-1.5,0-2.625,0.248-3.369,0.737
		c-0.733,0.479-1.101,1.224-1.101,2.22c0,0.9,0.28,1.57,0.83,2.014c0.551,0.443,1.928,0.877,4.125,1.299l1.332,0.254
		c1.644,0.311,2.889,0.929,3.731,1.867c0.851,0.934,1.273,2.154,1.273,3.654c0,1.994-0.704,3.558-2.121,4.686
		c-1.417,1.117-3.388,1.676-5.909,1.676c-0.996,0-2.046-0.113-3.138-0.326c-1.093-0.207-2.269-0.509-3.542-0.93V235.029z"/>
	<rect x="108.071" y="176.878" fill="none" width="0.001" height="4.209"/>
	<rect x="246.925" y="181.087" fill="none" width="0.001" height="4.208"/>
	<polygon fill="none" points="180.178,133.651 143.283,92.724 143.282,92.724 180.176,133.651 180.176,134.226 142.152,176.656 
		180.178,134.226 	"/>
	<polygon fill="none" points="238.51,88.516 242.718,88.516 246.926,88.516 247.664,88.516 255.34,88.516 255.34,88.515 
		247.663,88.515 246.925,88.515 242.717,88.515 238.509,88.515 226.789,88.515 225.887,88.515 225.887,88.516 226.79,88.516 	"/>
	<rect x="246.925" y="172.67" fill="none" width="0.001" height="4.208"/>
	<rect x="137.524" y="92.724" fill="none" width="0.001" height="8.417"/>
	<polygon fill="none" points="225.887,89.369 192.719,120.708 192.721,120.708 	"/>
	<polygon fill="none" points="53.659,97.393 80.155,147.539 103.431,92.724 103.431,92.724 80.155,147.538 53.659,97.392 
		32.085,105.348 28.125,105.348 28.125,105.349 32.085,105.349 	"/>
	<polygon fill="none" points="85.737,176.878 135.439,59.03 135.438,59.03 	"/>
	<rect x="251.375" y="54.678" fill="none" width="0.001" height="0.355"/>
	<rect x="91.24" y="88.515" fill="none" width="12.624" height="0.001"/>
	<rect x="246.924" y="38.025" fill="none" width="0.002" height="4.175"/>
	<rect x="137.524" y="38.025" fill="none" width="0.001" height="4.175"/>
	<polygon fill="none" points="124.886,42.2 103.864,91.703 103.864,91.704 	"/>
	<rect x="142.152" y="59.03" fill="none" width="0.001" height="8.449"/>
	<path d="M7.087,25.402v231.422h269.291V25.402H7.087z M267.956,248.408H15.494v-42.076h252.462V248.408z M267.956,189.501
		c0,2.333-1.878,4.207-4.208,4.207H19.703c-2.332,0-4.208-1.874-4.208-4.207V38.025c0-2.331,1.877-4.208,4.208-4.208h244.045
		c2.33,0,4.208,1.877,4.208,4.208V189.501z"/>
	<polygon points="32.752,172.67 28.125,172.67 28.125,176.878 23.918,176.878 23.918,181.087 28.125,181.087 28.125,185.295 
		32.752,185.295 32.752,181.087 36.541,181.087 36.541,176.878 32.752,176.878 	"/>
	<rect x="175.395" y="88.516" width="12.623" height="4.208"/>
	<polygon points="108.072,176.878 108.072,181.087 120.694,181.087 120.695,181.087 120.695,176.878 120.694,176.878 	"/>
	<rect x="192.227" y="88.516" width="12.621" height="4.208"/>
	<rect x="192.227" y="176.878" width="12.621" height="4.209"/>
	<rect x="175.395" y="176.878" width="12.623" height="4.209"/>
	<rect x="40.749" y="176.878" width="12.623" height="4.209"/>
	<rect x="57.58" y="176.878" width="12.623" height="4.209"/>
	<rect x="91.24" y="176.878" width="12.624" height="4.209"/>
	<rect x="209.057" y="88.516" width="12.623" height="4.208"/>
	<rect x="28.125" y="122.178" width="4.627" height="12.623"/>
	<rect x="209.057" y="176.878" width="12.623" height="4.209"/>
	<rect x="137.525" y="105.349" width="4.627" height="12.621"/>
	<rect x="246.926" y="122.178" width="4.627" height="12.623"/>
	<rect x="246.926" y="105.349" width="4.627" height="12.621"/>
	<rect x="246.926" y="155.841" width="4.627" height="12.621"/>
	<rect x="137.525" y="155.841" width="4.627" height="12.621"/>
	<polygon points="142.152,71.687 137.525,71.687 137.525,84.309 137.525,84.31 142.152,84.31 	"/>
	<rect x="137.525" y="122.178" width="4.627" height="12.623"/>
	<rect x="246.926" y="139.009" width="4.627" height="12.623"/>
	<rect x="137.525" y="139.009" width="4.627" height="12.623"/>
	<rect x="74.41" y="42.232" width="12.623" height="4.208"/>
	<rect x="74.41" y="88.516" width="12.623" height="4.208"/>
	<rect x="57.58" y="42.232" width="12.623" height="4.208"/>
	<rect x="57.58" y="88.516" width="12.623" height="4.208"/>
	<rect x="108.072" y="42.232" width="12.623" height="4.208"/>
	<polygon points="251.553,42.232 251.553,38.025 251.55,38.025 246.926,38.025 246.926,42.2 246.924,42.2 142.152,42.2 
		142.152,38.025 142.151,38.025 137.525,38.025 137.525,42.2 137.524,42.2 124.895,42.2 124.894,42.2 124.886,42.2 103.864,91.704 
		103.864,91.703 103.864,88.516 91.24,88.516 91.24,92.723 91.24,92.724 103.431,92.724 103.431,92.724 80.155,147.539 
		53.659,97.393 32.085,105.349 28.125,105.349 28.125,117.969 28.125,117.97 31.502,117.97 31.863,119.188 32.72,122.079 
		32.72,122.08 44.989,115.843 74.488,176.878 74.41,176.878 74.41,181.087 87.033,181.087 87.033,176.878 85.737,176.878 
		135.438,59.03 135.439,59.03 137.525,59.03 137.525,67.479 137.526,67.479 142.152,67.479 142.152,59.03 142.153,59.03 
		238.566,59.03 238.566,67.445 246.926,67.445 246.926,67.478 246.926,67.479 251.553,67.479 251.553,67.478 251.553,54.856 
		251.197,54.856 251.197,54.855 251.197,50.647 251.553,50.647 251.553,46.44 255.339,46.44 255.341,46.44 255.341,42.232 
		255.339,42.232 	"/>
	<rect x="91.24" y="42.232" width="12.624" height="4.208"/>
	<rect x="40.749" y="42.232" width="12.623" height="4.208"/>
	<polygon points="28.125,50.647 32.752,50.647 32.752,46.44 36.541,46.44 36.541,42.232 32.752,42.232 32.752,38.025 28.125,38.025 
		28.125,42.232 23.918,42.232 23.918,46.44 28.125,46.44 	"/>
	<rect x="28.125" y="71.687" width="4.627" height="12.623"/>
	<polygon points="28.125,101.141 32.752,101.141 32.752,92.724 36.541,92.724 36.541,88.516 28.125,88.516 23.918,88.516 
		23.918,92.724 28.125,92.724 	"/>
	<rect x="28.125" y="139.009" width="4.627" height="12.623"/>
	<polygon points="251.553,71.687 246.926,71.687 246.926,84.309 246.926,84.31 251.553,84.31 	"/>
	<rect x="28.125" y="54.856" width="4.627" height="12.623"/>
	<rect x="28.125" y="155.841" width="4.627" height="12.621"/>
	<rect x="40.749" y="88.516" width="12.623" height="4.208"/>
	<path d="M120.473,229.557c0-2.449,0.551-4.324,1.643-5.621c1.093-1.297,2.669-1.938,4.734-1.938c0.876,0,1.684,0.125,2.416,0.379
		c0.733,0.252,1.453,0.646,2.162,1.198v-3.377c-0.648-0.434-1.331-0.758-2.038-0.961c-0.709-0.209-1.469-0.305-2.285-0.305
		c-1.573,0-2.94,0.383-4.092,1.15c-1.141,0.755-1.987,1.85-2.54,3.277v-3.943h-3.329v20.167h3.329V229.557z"/>
	<path d="M76.9,239.713c2.521,0,4.492-0.559,5.909-1.676c1.417-1.128,2.121-2.691,2.121-4.686c0-1.5-0.422-2.721-1.273-3.654
		c-0.842-0.938-2.087-1.557-3.731-1.867l-1.332-0.254c-2.197-0.422-3.574-0.855-4.125-1.299c-0.55-0.443-0.83-1.113-0.83-2.014
		c0-0.996,0.368-1.74,1.101-2.22c0.744-0.489,1.869-0.737,3.369-0.737c0.998,0,1.974,0.141,2.935,0.416
		c0.96,0.276,1.911,0.688,2.859,1.241v-3.247c-0.96-0.395-1.937-0.693-2.934-0.887c-0.997-0.206-2.035-0.305-3.114-0.305
		c-2.426,0-4.288,0.531-5.597,1.588c-1.308,1.044-1.964,2.527-1.964,4.462c0,1.524,0.439,2.733,1.315,3.625
		c0.876,0.876,2.267,1.499,4.175,1.874l1.241,0.244l0.148,0.051c2.941,0.589,4.413,1.643,4.413,3.181
		c0,1.066-0.404,1.905-1.208,2.507c-0.804,0.586-1.937,0.881-3.402,0.881c-1.009,0-2.085-0.158-3.214-0.471
		c-1.128-0.324-2.305-0.802-3.542-1.438v3.428c1.273,0.421,2.449,0.723,3.542,0.93C74.854,239.6,75.904,239.713,76.9,239.713z"/>
	<path d="M98.982,239.787c1.212,0,2.276-0.268,3.188-0.796c0.925-0.54,1.654-1.306,2.194-2.304v10.25h3.336v-27.844h-3.336v2.571
		c-0.553-0.994-1.287-1.751-2.211-2.269c-0.913-0.525-1.971-0.787-3.172-0.787c-2.425,0-4.335,0.939-5.728,2.826
		c-1.393,1.885-2.087,4.494-2.087,7.832c0,3.277,0.695,5.852,2.087,7.725C94.659,238.855,96.569,239.787,98.982,239.787z
		 M95.884,223.385c0.817-1.309,2.028-1.964,3.625-1.964c1.597,0,2.799,0.659,3.616,1.979c0.83,1.309,1.241,3.236,1.241,5.795
		c0,2.558-0.413,4.498-1.241,5.816c-0.816,1.309-2.019,1.965-3.616,1.965c-1.597,0-2.807-0.656-3.625-1.965
		c-0.803-1.308-1.208-3.248-1.208-5.816C94.676,226.624,95.08,224.691,95.884,223.385z"/>
	<polygon points="183.702,239.197 189.596,231.109 195.495,239.197 199.332,239.197 191.411,228.678 198.635,219.021 
		194.904,219.021 189.596,226.318 184.245,219.021 180.57,219.021 187.795,228.678 179.863,239.197 	"/>
	<path d="M211.382,242.82c1.011-0.889,1.511-2.654,1.511-5.309v-4.307c0-1.813,0.326-3.066,0.963-3.766
		c0.647-0.693,1.816-1.043,3.51-1.043h1.15v-2.572h-1.15c-1.692,0-2.861-0.344-3.51-1.026c-0.637-0.687-0.963-1.931-0.963-3.731
		v-4.321c0-2.653-0.5-4.416-1.511-5.293c-1.009-0.89-3.002-1.331-5.991-1.331h-1.119v2.572h1.226c1.694,0,2.797,0.267,3.313,0.797
		c0.517,0.527,0.771,1.634,0.771,3.326v4.463c0,1.886,0.273,3.26,0.813,4.111c0.555,0.852,1.49,1.426,2.813,1.725
		c-1.332,0.324-2.27,0.914-2.813,1.767c-0.541,0.853-0.813,2.222-0.813,4.095v4.463c0,1.69-0.256,2.799-0.771,3.328
		c-0.518,0.526-1.619,0.795-3.313,0.795h-1.226v2.59h1.119C208.38,244.15,210.373,243.71,211.382,242.82z"/>
	<path d="M142.136,233.074c0,2.438,0.508,4.156,1.528,5.152c1.021,0.996,2.773,1.494,5.26,1.494h4.051v-2.654h-3.729
		c-1.406,0-2.389-0.289-2.952-0.879c-0.563-0.588-0.847-1.627-0.847-3.113v-10.948h7.527v-2.579h-7.527v-5.729h-3.311v5.729h-5.391
		v2.579h5.391V233.074z"/>
	<path d="M166.461,229.439c0.648,0.699,0.971,1.953,0.971,3.767v4.308c0,2.652,0.512,4.418,1.52,5.309
		c1.021,0.889,3.02,1.33,6.009,1.33h1.157v-2.59h-1.266c-1.682,0-2.779-0.256-3.295-0.771c-0.504-0.519-0.756-1.638-0.756-3.353
		v-4.463c0-1.873-0.266-3.242-0.806-4.095s-1.479-1.44-2.812-1.766c1.32-0.302,2.246-0.874,2.787-1.726
		c0.549-0.853,0.829-2.227,0.829-4.111v-4.463c0-1.705,0.25-2.811,0.755-3.325c0.516-0.529,1.614-0.798,3.295-0.798h1.267v-2.572
		h-1.157c-2.988,0-4.988,0.441-6.009,1.331c-1.007,0.877-1.521,2.64-1.521,5.293v4.321c0,1.802-0.316,3.047-0.951,3.731
		c-0.639,0.685-1.801,1.027-3.494,1.027h-1.118v2.571h1.118C164.666,228.398,165.826,228.745,166.461,229.439z"/>
	<polygon points="247.664,88.516 246.926,88.516 242.718,88.516 238.51,88.516 226.79,88.516 225.887,88.516 225.887,89.369 
		192.721,120.708 192.719,120.708 192.07,120.708 166.021,92.724 171.186,92.724 171.188,92.724 171.188,88.516 171.186,88.516 
		162.105,88.516 158.563,88.516 154.355,88.516 139.49,88.516 139.489,88.516 124.902,88.516 124.902,92.724 137.524,92.724 
		137.525,92.724 137.525,101.141 142.151,101.141 142.152,101.141 142.152,92.724 143.282,92.724 143.283,92.724 180.178,133.651 
		180.178,134.226 142.152,176.656 142.152,172.67 137.525,172.67 137.525,176.878 124.902,176.878 124.902,181.087 137.525,181.087 
		137.525,185.295 142.152,185.295 142.152,181.087 154.355,181.087 158.563,181.087 159.057,181.087 171.186,181.087 
		171.188,181.087 171.188,176.878 171.186,176.878 162.988,176.878 191.632,146.216 192.281,146.216 225.887,178.936 
		225.887,181.087 228.096,181.087 228.098,181.087 238.509,181.087 238.51,181.087 242.717,181.087 242.718,181.087 
		246.925,181.087 246.926,181.087 246.926,185.295 251.551,185.295 251.553,185.295 251.553,181.087 255.34,181.087 
		255.341,181.087 255.341,176.878 255.34,176.878 251.553,176.878 251.553,172.67 251.551,172.67 246.926,172.67 246.926,176.878 
		246.925,176.878 246.633,176.878 204.609,133.461 204.609,132.886 243.58,92.724 246.926,92.724 246.926,101.141 251.553,101.141 
		251.553,92.724 255.34,92.724 255.341,92.724 255.341,88.516 255.34,88.516 	"/>
</g>
</svg>
