<?xml version="1.0" encoding="utf-8"?>
<!-- Generator: Adobe Illustrator 15.1.0, SVG Export Plug-In . SVG Version: 6.00 Build 0)  -->
<!DOCTYPE svg PUBLIC "-//W3C//DTD SVG 1.1//EN" "http://www.w3.org/Graphics/SVG/1.1/DTD/svg11.dtd">
<svg version="1.1" id="Layer_3" xmlns="http://www.w3.org/2000/svg" xmlns:xlink="http://www.w3.org/1999/xlink" x="0px" y="0px"
	 width="283.465px" height="283.465px" viewBox="0 0 283.465 283.465" enable-background="new 0 0 283.465 283.465"
	 xml:space="preserve">
<g>
	<path fill="none" d="M164.055,170.998c-0.324,0.257-0.665,0.481-1.033,0.638C163.39,171.479,163.73,171.255,164.055,170.998z"/>
	<path fill="none" d="M231.512,130.953c0.86,0.925,1.264,2.111,1.22,3.282C232.775,133.064,232.372,131.877,231.512,130.953
		c-1.51-1.626-3.913-1.906-5.731-0.801C227.6,129.048,230.001,129.328,231.512,130.953z"/>
	<path fill="none" d="M200.931,165.55c0.141-0.103,0.276-0.214,0.405-0.334l13.814-12.826l-13.816,12.827
		C201.205,165.336,201.07,165.447,200.931,165.55z"/>
	<path fill="none" d="M183.1,137.401c1.002-1.07,2.461-1.618,3.904-1.413c1.454,0.182,2.73,1.046,3.439,2.327l8.951,16.208
		l0.003-0.002l-8.95-16.208c-0.709-1.281-1.987-2.145-3.441-2.327c-1.445-0.205-2.904,0.343-3.906,1.413l-25.209,26.895
		c-0.432,0.462-0.75,0.989-0.955,1.547c0.205-0.558,0.523-1.084,0.955-1.545L183.1,137.401z"/>
	<path fill="none" d="M260.088,45.13h-3.984H24.588c-0.731,0-1.407,0.196-1.996,0.514c-1.188,0.643-1.997,1.825-1.997,3.193v151.937
		c0,2.049,1.788,3.707,3.993,3.707h1.994h51.893h127.728h51.891h1.994c2.205,0,3.993-1.658,3.993-3.707V48.837
		C264.081,46.79,262.293,45.13,260.088,45.13z M45.536,60.575v-2.021h195.465v2.021v8.083H45.536V60.575z M204.343,82.198v2.19
		v8.755H82.193v-8.755v-2.19H204.343z M51.442,180.421c-4.231,0-7.658-3.272-7.658-7.301c0-4.029,3.427-7.294,7.658-7.294
		c4.228,0,7.658,3.265,7.658,7.294C59.1,177.148,55.67,180.421,51.442,180.421z M51.442,156.01c-4.229,0-7.658-3.267-7.658-7.297
		c0-4.029,3.428-7.297,7.658-7.297s7.658,3.268,7.658,7.297C59.1,152.743,55.671,156.01,51.442,156.01z M51.442,131.6
		c-4.229,0-7.658-3.268-7.658-7.298c0-4.031,3.428-7.298,7.658-7.298s7.658,3.268,7.658,7.298
		C59.1,128.333,55.671,131.6,51.442,131.6z M117.731,170.759L117.731,170.759v8.071H69.95v-8.07v-0.001v-2.692h8.525h39.256V170.759
		z M117.731,145.182v1.168v8.069H69.95v-8.069v-2.693h47.781V145.182z M117.731,121.939v8.07H69.95v-8.07v-2.693h47.781V121.939z
		 M246.585,180.291v5.105v0.098H137.686v-40.313v-25.936v-6.041v-0.001v0.001h108.899V180.291z"/>
	<path d="M275.273,33.035H10.19c-1.162,0-2.104,0.891-2.104,1.987v179.003c0,1.097,0.942,1.992,2.104,1.992h121.122v10.459
		l-45.685,30.125h3.807h18.574h0.02l6.469-2.115l28.188-22.266l28.416,22.713l5.871,1.668h19.059l-41.873-27.891v-12.693h121.115
		c1.164,0,2.104-0.896,2.104-1.992V35.022C277.378,33.926,276.436,33.035,275.273,33.035z M264.081,200.773
		c0,2.049-1.788,3.707-3.993,3.707h-1.994h-51.891H78.475H26.582h-1.994c-2.205,0-3.993-1.658-3.993-3.707V48.837
		c0-1.368,0.809-2.55,1.997-3.193V45.13h1.996h231.516h3.984c2.205,0,3.993,1.66,3.993,3.707V200.773z"/>
	<polygon points="82.193,93.143 204.343,93.143 204.343,84.388 204.343,82.198 82.193,82.198 82.193,84.388 	"/>
	<path d="M22.592,45.13v0.514c0.589-0.318,1.265-0.514,1.996-0.514H22.592z"/>
	
		<linearGradient id="SVGID_1_" gradientUnits="userSpaceOnUse" x1="2720.543" y1="2176.1289" x2="3702.9229" y2="2176.1289" gradientTransform="matrix(0.2377 0 0 0.3036 -624.0815 -615.2853)">
		<stop  offset="0" style="stop-color:#FFFFFF;stop-opacity:0"/>
		<stop  offset="0.4931" style="stop-color:#FFFFFF"/>
		<stop  offset="1" style="stop-color:#FFFFFF;stop-opacity:0"/>
	</linearGradient>
	<path fill="url(#SVGID_1_)" d="M22.592,45.13v0.514c0.589-0.318,1.265-0.514,1.996-0.514H22.592z"/>
	<polygon points="241.001,60.575 241.001,58.554 45.536,58.554 45.536,60.575 45.536,68.658 241.001,68.658 	"/>
	<ellipse cx="51.442" cy="124.302" rx="7.658" ry="7.298"/>
	<polygon points="69.95,121.939 69.95,130.009 117.731,130.009 117.731,121.939 117.731,119.246 69.95,119.246 	"/>
	<ellipse cx="51.442" cy="148.713" rx="7.658" ry="7.297"/>
	<polygon points="69.95,146.35 69.95,154.419 117.731,154.419 117.731,146.35 117.731,145.182 117.731,143.656 69.95,143.656 	"/>
	<polygon points="69.95,168.066 69.95,170.759 69.95,170.76 69.95,178.83 117.731,178.83 117.731,170.76 117.731,170.759 
		117.731,168.066 78.475,168.066 	"/>
	<path d="M51.442,165.826c-4.231,0-7.658,3.265-7.658,7.294c0,4.028,3.427,7.301,7.658,7.301c4.228,0,7.658-3.272,7.658-7.301
		C59.1,169.091,55.67,165.826,51.442,165.826z"/>
	<path d="M158.104,170.768c0.881,0.821,2.006,1.232,3.129,1.232c0.609,0,1.219-0.122,1.789-0.364
		c0.368-0.156,0.709-0.381,1.033-0.638c0.178-0.14,0.357-0.277,0.518-0.447l20.902-22.304l8.737,15.828
		c0.685,1.231,1.894,2.084,3.284,2.307c1.205,0.19,2.452-0.112,3.435-0.832c0.14-0.103,0.274-0.214,0.403-0.333l13.816-12.827
		l16.121-14.968c0.927-0.861,1.417-2.016,1.46-3.187c0.044-1.17-0.359-2.357-1.22-3.282c-1.511-1.625-3.912-1.905-5.731-0.801
		c-0.26,0.158-0.508,0.344-0.739,0.559l-25.644,23.811l-0.003,0.002l-8.951-16.208c-0.709-1.281-1.985-2.145-3.439-2.327
		c-1.443-0.205-2.902,0.343-3.904,1.413l-25.209,26.895c-0.432,0.461-0.75,0.987-0.955,1.545
		C156.318,167.516,156.717,169.47,158.104,170.768z"/>
	
		<line fill="none" stroke="#000000" stroke-width="0" stroke-linecap="round" stroke-linejoin="round" x1="137.686" y1="113.205" x2="137.686" y2="113.204"/>
	<path d="M137.686,119.246v25.936v40.313h108.899v-0.098v-5.105v-67.086H137.686V119.246z M143.207,118.763h96.9v53.657v5.588v2.037
		h-96.584v-0.125h-0.316V118.763z"/>
</g>
</svg>
