<?xml version="1.0" encoding="utf-8"?>
<!-- Generator: Adobe Illustrator 15.1.0, SVG Export Plug-In . SVG Version: 6.00 Build 0)  -->
<!DOCTYPE svg PUBLIC "-//W3C//DTD SVG 1.1//EN" "http://www.w3.org/Graphics/SVG/1.1/DTD/svg11.dtd">
<svg version="1.1" id="Layer_1" xmlns="http://www.w3.org/2000/svg" xmlns:xlink="http://www.w3.org/1999/xlink" x="0px" y="0px"
	 width="283.465px" height="283.465px" viewBox="-114.732 -114.732 283.465 283.465"
	 enable-background="new -114.732 -114.732 283.465 283.465" xml:space="preserve">
<g>
	<path d="M-10.694-91.489c0-8.922,7.234-16.156,16.156-16.156c59.495,0,107.717,48.225,107.717,107.717
		c0,8.922-7.237,16.156-16.159,16.156S80.862,8.993,80.862,0.071c0-41.643-33.754-75.402-75.4-75.402
		C-3.459-75.331-10.694-82.565-10.694-91.489z"/>
	<path d="M64.693,145.487c0,8.922-7.236,16.158-16.158,16.158c-59.489,0-107.715-48.223-107.715-107.715
		c0-8.921,7.235-16.158,16.156-16.158c8.924,0,16.159,7.237,16.159,16.158c0,41.639,33.759,75.397,75.4,75.397
		C57.457,129.328,64.693,136.565,64.693,145.487z"/>
	<path d="M-91.487,64.703c-8.924,0-16.159-7.236-16.159-16.158c0-59.492,48.225-107.717,107.717-107.717
		c8.922,0,16.156,7.234,16.156,16.156c0,8.924-7.234,16.159-16.156,16.159c-41.643,0-75.402,33.756-75.402,75.402
		C-75.331,57.467-82.565,64.703-91.487,64.703z"/>
	<path d="M145.487-10.701c8.922,0,16.158,7.234,16.158,16.156c0,59.492-48.223,107.715-107.715,107.715
		c-8.921,0-16.158-7.232-16.158-16.154c0-8.927,7.237-16.158,16.158-16.158c41.639,0,75.397-33.759,75.397-75.402
		C129.328-3.467,136.565-10.701,145.487-10.701z"/>
</g>
</svg>
