<?xml version="1.0" encoding="UTF-8" standalone="no"?>
<!-- Generator: Adobe Illustrator 15.1.0, SVG Export Plug-In . SVG Version: 6.00 Build 0)  -->

<svg
   version="1.1"
   id="Layer_2"
   x="0px"
   y="0px"
   width="283.465px"
   height="283.465px"
   viewBox="0 0 283.465 283.465"
   enable-background="new 0 0 283.465 283.465"
   xml:space="preserve"
   sodipodi:docname="software-sqlite-alt.svg"
   inkscape:version="1.2.2 (b0a8486541, 2022-12-01)"
   xmlns:inkscape="http://www.inkscape.org/namespaces/inkscape"
   xmlns:sodipodi="http://sodipodi.sourceforge.net/DTD/sodipodi-0.dtd"
   xmlns="http://www.w3.org/2000/svg"
   xmlns:svg="http://www.w3.org/2000/svg"><defs
   id="defs975" /><sodipodi:namedview
   id="namedview973"
   pagecolor="#ffffff"
   bordercolor="#000000"
   borderopacity="0.25"
   inkscape:showpageshadow="2"
   inkscape:pageopacity="0.0"
   inkscape:pagecheckerboard="0"
   inkscape:deskcolor="#d1d1d1"
   showgrid="false"
   inkscape:zoom="1.047695"
   inkscape:cx="59.654768"
   inkscape:cy="177.53259"
   inkscape:window-width="1920"
   inkscape:window-height="1015"
   inkscape:window-x="0"
   inkscape:window-y="0"
   inkscape:window-maximized="1"
   inkscape:current-layer="Layer_2" />
<path
   d="m 257.532,12.926 c -11.573,-10.32 -25.584,-6.175 -39.413,6.098 -2.053,1.824 -4.101,3.847 -6.139,6.007 -23.656,25.096 -45.615,71.582 -52.438,107.083 2.658,5.39 4.732,12.266 6.101,17.52 0.351,1.349 0.667,2.612 0.919,3.689 0.601,2.548 0.924,4.199 0.924,4.199 0,0 -0.212,-0.803 -1.083,-3.326 -0.166,-0.484 -0.35,-1.014 -0.568,-1.636 -0.094,-0.255 -0.223,-0.568 -0.365,-0.902 -1.544,-3.587 -5.813,-11.158 -7.691,-14.454 -1.606,4.739 -3.026,9.175 -4.215,13.185 5.424,9.923 8.729,26.929 8.729,26.929 0,0 -0.286,-1.103 -1.649,-4.948 -1.211,-3.401 -7.235,-13.961 -8.663,-16.429 -2.442,9.015 -3.413,15.101 -2.537,16.583 1.698,2.87 3.316,7.824 4.736,13.303 3.21,12.345 5.44,27.369 5.44,27.369 0,0 0.073,0.996 0.194,2.529 -0.446,10.365 -0.18,21.111 0.623,30.826 1.063,12.858 3.064,23.902 5.617,29.816 l 1.731,-0.945 c -3.746,-11.648 -5.269,-26.911 -4.603,-44.515 1.009,-26.905 7.2,-59.355 18.642,-93.175 19.329,-51.053 46.146,-92.016 70.69,-111.579 -22.371,20.204 -52.648,85.6 -61.711,109.817 -10.148,27.119 -17.341,52.568 -21.674,76.95 7.478,-22.858 31.655,-32.684 31.655,-32.684 0,0 11.86,-14.625 25.719,-35.52 -8.302,1.893 -21.933,5.134 -26.5,7.052 -6.734,2.825 -8.549,3.79 -8.549,3.79 0,0 21.815,-13.286 40.533,-19.302 25.742,-40.54 53.786,-98.136 25.545,-123.33 z"
   id="path968"
   style="stroke-width:0.999992"
   transform="matrix(1.0000077,0,0,1.0000077,-6.6206833,0.00986946)" /><path
   d="m 148.992,215.813 c -0.079,-1.009 -0.136,-1.752 -0.159,-2.08 -0.255,-1.678 -2.388,-15.443 -5.313,-26.693 -1.879,-7.251 -3.333,-10.563 -4.222,-12.064 -1.202,-2.036 -2.034,-5.278 2.036,-20.293 l 3.021,-11.157 0.183,0.313 c 0.817,-2.593 1.715,-5.327 2.682,-8.18 l 1.712,-5.048 C 156.085,94.126 177.973,48.975 200.539,23.838 H 43.147 c -8.699,0 -15.778,7.079 -15.778,15.779 v 186.345 c 0,8.699 7.079,15.775 15.778,15.775 h 106.117 c -0.529,-8.641 -0.623,-17.502 -0.272,-25.924 z"
   id="path966"
   style="stroke-width:0.999992"
   transform="matrix(1.0000077,0,0,1.0000077,-6.6206833,0.00986946)" />
</svg>
