<?xml version="1.0" encoding="utf-8"?>
<!-- Generator: Adobe Illustrator 15.1.0, SVG Export Plug-In . SVG Version: 6.00 Build 0)  -->
<!DOCTYPE svg PUBLIC "-//W3C//DTD SVG 1.1//EN" "http://www.w3.org/Graphics/SVG/1.1/DTD/svg11.dtd">
<svg version="1.1" id="Layer_3" xmlns="http://www.w3.org/2000/svg" xmlns:xlink="http://www.w3.org/1999/xlink" x="0px" y="0px"
	 width="283.465px" height="283.465px" viewBox="0 0 283.465 283.465" enable-background="new 0 0 283.465 283.465"
	 xml:space="preserve">
<g>
	<path d="M272.271,104.502V82.024c2.744-4.036,4.244-8.439,4.244-13.227c0-32.779-69.803-47.704-134.648-47.704
		c-64.846,0-134.632,14.926-134.632,47.704c0,4.786,1.497,9.188,4.239,13.221v22.445c-2.749,4.038-4.25,8.445-4.25,13.237
		s1.501,9.198,4.25,13.236v41.073v48.896c0,28.228,67.181,43.466,130.393,43.466c63.217,0,130.404-15.238,130.404-43.466V172.01
		v-41.112c2.731-4.027,4.224-8.421,4.224-13.198C276.495,112.923,275.004,108.529,272.271,104.502z M141.868,253.505
		c-74.057,0-119.527-18.983-119.527-32.599v-30.674c21.523,16.5,71.658,25.24,119.527,25.24c47.874,0,98.013-8.74,119.538-25.24
		v30.674C261.404,234.521,215.925,253.505,141.868,253.505z M141.868,204.607c-74.057,0-119.527-18.983-119.527-32.599v-36.104
		c21.523,16.5,71.658,25.238,119.527,25.238c47.874,0,98.013-8.738,119.538-25.239v36.105
		C261.404,185.624,215.925,204.607,141.868,204.607z M141.868,40.438c76.073,0,115.293,19.88,115.293,28.359
		c0,8.484-39.22,28.364-115.293,28.364c-76.063,0-115.288-19.88-115.288-28.364C26.58,60.319,65.805,40.438,141.868,40.438z
		 M141.868,116.506c46.476,0,95.493-7.67,119.538-24.083v25.255c0,13.615-45.48,32.599-119.538,32.599
		c-74.058,0-119.527-18.984-119.527-32.598V92.422C46.38,108.835,95.391,116.506,141.868,116.506z"/>
</g>
</svg>
