<?xml version="1.0" encoding="UTF-8" standalone="no"?>
<!-- Generator: Adobe Illustrator 15.1.0, SVG Export Plug-In . SVG Version: 6.00 Build 0)  -->

<svg
   version="1.1"
   id="Layer_1"
   x="0px"
   y="0px"
   width="283.465px"
   height="283.465px"
   viewBox="1108.268 1085.767 283.465 283.465"
   enable-background="new 1108.268 1085.767 283.465 283.465"
   xml:space="preserve"
   sodipodi:docname="software-visual-studio-code.svg"
   inkscape:version="1.2.2 (b0a8486541, 2022-12-01)"
   xmlns:inkscape="http://www.inkscape.org/namespaces/inkscape"
   xmlns:sodipodi="http://sodipodi.sourceforge.net/DTD/sodipodi-0.dtd"
   xmlns="http://www.w3.org/2000/svg"
   xmlns:svg="http://www.w3.org/2000/svg"><defs
   id="defs1969">
	
	
	
	
	
</defs><sodipodi:namedview
   id="namedview1967"
   pagecolor="#ffffff"
   bordercolor="#000000"
   borderopacity="0.25"
   inkscape:showpageshadow="2"
   inkscape:pageopacity="0.0"
   inkscape:pagecheckerboard="0"
   inkscape:deskcolor="#d1d1d1"
   showgrid="false"
   inkscape:zoom="1.4816644"
   inkscape:cx="-36.108041"
   inkscape:cy="96.513082"
   inkscape:window-width="1920"
   inkscape:window-height="1015"
   inkscape:window-x="0"
   inkscape:window-y="0"
   inkscape:window-maximized="1"
   inkscape:current-layer="layer3" />
<g
   id="g2835"><g
     inkscape:groupmode="layer"
     id="layer3"
     inkscape:label="Layer 2"><g
       id="g3043"
       transform="translate(1.6815562e-4,-2.4507454)"><path
         id="path2927"
         style="display:inline"
         d="m 1312.393,1096.4643 c -6.1342,0.1724 -9.7988,4.25 -9.7988,4.25 0,0 0.5242,-0.316 1.2363,-0.6797 0.4671,-0.2388 0.9239,-0.4512 1.3613,-0.6192 0.2506,-0.089 0.5192,-0.1687 0.795,-0.2441 0.013,0 0.022,0 0.035,0.01 1.2642,-0.3439 2.7506,-0.4663 4.2988,-0.076 -0.1151,-0.038 -0.2311,-0.086 -0.3457,-0.1192 0.3811,0.077 0.7654,0.1978 1.1504,0.3438 0.1401,0.053 0.2779,0.1201 0.418,0.1836 0.4465,0.2015 0.8917,0.4434 1.332,0.7598 0.057,0.041 0.1147,0.08 0.1719,0.123 0.4611,0.3495 0.9112,0.7923 1.3535,1.291 0.1,0.1129 0.2002,0.2187 0.2988,0.3399 0.4503,0.5517 0.8848,1.1943 1.3008,1.9316 0.074,0.1308 0.1444,0.2751 0.2168,0.4121 0.4311,0.8147 0.8455,1.7049 1.2227,2.7559 -0.3767,-1.0496 -0.7922,-1.9413 -1.2227,-2.7559 -0.072,-0.1367 -0.1431,-0.2816 -0.2168,-0.4121 -0.4159,-0.7381 -0.8506,-1.3787 -1.3008,-1.9316 -0.098,-0.1205 -0.1992,-0.2276 -0.2988,-0.3399 -0.442,-0.4993 -0.8928,-0.9406 -1.3535,-1.291 -0.057,-0.043 -0.1147,-0.082 -0.1719,-0.123 -0.4403,-0.3175 -0.8855,-0.5575 -1.332,-0.7598 -0.1393,-0.063 -0.2787,-0.1308 -0.418,-0.1836 -0.2697,-0.1026 -0.5364,-0.157 -0.8047,-0.2246 0.1826,0.059 0.3646,0.112 0.5489,0.1875 2.654,1.0873 4.9447,3.6544 6.3808,7.6348 a 3.2141421,3.1968811 0 0 1 0.1895,1.08 v 38.3457 h -0.016 v 22.42 l 0.016,-0.012 v 115.0567 66.3672 c 0,1.671 -0.3564,3.3129 -1.0684,4.7929 -1.424,2.876 -4.5204,5.5586 -11.9414,4.4356 l 0.5215,0.5762 c 3.244,3.3199 6.9658,3.568 8.9258,3.414 0.853,-0.067 1.3711,-0.2109 1.3711,-0.2109 l 62.4707,-30.7813 c 7.996,-5.451 6.873,-12.2148 6.873,-12.2148 v -183.8223 c 0,-8.08 -8.2715,-10.873 -8.2715,-10.873 l -54.1445,-26.0996 c -3.6972,-2.285 -6.9949,-3.012 -9.7832,-2.9336 z m -6.3711,2.7129 c -0.2821,0.077 -0.5742,0.1474 -0.8301,0.2382 -0.5644,0.2005 -0.9588,0.4136 -1.3613,0.6192 -0.365,0.1866 -0.7348,0.386 -1.1172,0.6152 l -2.3594,2.1699 c -0.015,-0.01 -0.031,-0.014 -0.047,-0.021 l -100.793,91.7343 -3.5898,3.2676 41.875,31.7695 3.9785,-3.039 69.1699,-52.8164 v -40.3653 h 0.062 v -24.625 c -0.049,-0.1233 -0.098,-0.2247 -0.1465,-0.3398 v -4.8633 c -0.01,-0.06 -0.1193,-1.1317 -0.7187,-2.1152 -0.3024,-0.4942 -1.1458,-1.85 -4.1231,-2.2285 z m -110.0979,161.7222 -34.863,-31.659 -3.514,3.194 -40.196,36.544 c 0,0 -4.492,3.342 0,9.312 l 20.293,18.459 c 0,0 4.82,5.176 11.941,-0.712 l 42.508,-32.233 z m 116.139,92.266 c 0.545,-0.883 0.649,-1.845 0.654,-1.899 v -59.18 l -167.832,-127.067 -0.118,-0.103 c -0.943,-0.818 -1.547,-0.818 -1.746,-0.818 -1.139,0 -2.404,1.056 -2.556,1.215 l -0.132,0.139 -0.143,0.128 -18.471,16.517 -0.099,0.079 c -1.672,1.342 -2.114,2.286 -2.114,2.597 0,0.263 0.374,0.742 0.647,0.979 l 0.279,0.181 0.094,0.127 186.341,169.202 c 3.913,-0.016 4.877,-1.582 5.196,-2.097 z m -9.467,-252.452 c 0.916,-0.558 1.78,-0.985 2.596,-1.298 -1.563,0.555 -2.596,1.298 -2.596,1.298 z" /></g></g></g>
</svg>
