<?xml version="1.0" encoding="UTF-8" standalone="no"?>
<!-- Generator: Adobe Illustrator 15.1.0, SVG Export Plug-In . SVG Version: 6.00 Build 0)  -->

<svg
   version="1.1"
   id="Layer_1"
   x="0px"
   y="0px"
   width="283.464px"
   height="283.464px"
   viewBox="0 0 283.464 283.464"
   enable-background="new 0 0 283.464 283.464"
   xml:space="preserve"
   sodipodi:docname="software-bindle-stick.svg"
   inkscape:version="1.2.2 (b0a8486541, 2022-12-01)"
   xmlns:inkscape="http://www.inkscape.org/namespaces/inkscape"
   xmlns:sodipodi="http://sodipodi.sourceforge.net/DTD/sodipodi-0.dtd"
   xmlns="http://www.w3.org/2000/svg"
   xmlns:svg="http://www.w3.org/2000/svg"><defs
   id="defs19" /><sodipodi:namedview
   id="namedview17"
   pagecolor="#ffffff"
   bordercolor="#000000"
   borderopacity="0.25"
   inkscape:showpageshadow="2"
   inkscape:pageopacity="0.0"
   inkscape:pagecheckerboard="0"
   inkscape:deskcolor="#d1d1d1"
   showgrid="false"
   inkscape:zoom="0.52384934"
   inkscape:cx="-88.76598"
   inkscape:cy="479.1454"
   inkscape:window-width="1400"
   inkscape:window-height="1043"
   inkscape:window-x="516"
   inkscape:window-y="0"
   inkscape:window-maximized="0"
   inkscape:current-layer="Layer_1" />

<g
   id="g1576"
   transform="matrix(0.5910942,0,0,0.5910942,160.51269,17.760367)"><g
     id="g1566"><g
       id="g1554"><g
         id="g1126"><g
           id="g1382"><path
             id="ellipse1089-6"
             style="stroke-width:0;stroke-linecap:round;stroke-linejoin:round;paint-order:markers stroke fill"
             d="m 95.717754,185.7712 c -0.604241,3.87792 -6.234719,26.80053 4.303806,37.32846 1.32765,1.32632 4.78694,2.09703 7.82904,1.78722 3.40241,-0.3465 7.22533,-9.64455 3.71387,-6.3356 -9.44745,8.90261 -11.713143,-2.84376 -12.609385,-14.70853 -0.619794,-8.20507 -0.115507,-11.0878 0.31759,-15.22264 0.434489,-4.14812 2.883995,-19.37826 -0.308167,-17.19259 -3.192082,2.18568 -2.108426,7.03809 -3.246726,14.34368 z M 74.496406,148.84139 c -9.353238,9.33897 -10.683879,18.74118 -9.323986,27.99103 0.757133,5.14994 -4.132269,5.48507 -3.335365,12.8449 0.562458,5.19459 0.881689,12.60018 -2.449742,10.61176 -3.367537,-2.00996 -7.052841,-23.58198 -2.019279,-34.16886 5.651474,-11.88651 11.406955,-18.22874 14.721435,-22.26015 8.307418,-10.10434 9.03441,-28.99018 13.418415,-27.56212 1.686531,0.54938 -2.422634,7.20282 -3.377394,13.39135 -1.455523,9.43435 -6.1822,18.40506 -7.634084,19.15209 z m 18.01678,108.69053 c -9.513898,-2.71876 -18.707259,-6.95442 -28.985713,-6.82765 -8.657415,0.004 -17.082101,-3.65569 -21.754268,-10.09398 -5.937326,-8.17362 -12.404153,-16.10658 -17.566732,-24.68395 -8.78224,-15.72431 -8.837309,-34.94493 -0.690975,-50.86295 8.453636,-15.88598 23.493233,-28.16786 32.757762,-43.60825 2.47513,-5.40799 4.301034,-11.42456 3.368826,-17.2588 C 57.460007,98.583711 49.442738,92.59607 42.652131,96.609224 35.674329,99.949847 33.096523,107.84436 25.563605,110.35718 18.072729,110.87024 13.47108,103.55368 14.056094,97.744105 14.593338,82.326304 33.196533,71.700242 47.907565,71.483104 c 2.08945,0.223811 4.423641,0.534762 5.922936,1.434553 25.528047,15.324765 -9.667243,-11.024491 -9.230543,-15.098067 -1.841625,-7.490878 6.437827,-13.245603 13.474598,-15.815922 11.554516,-3.244183 23.851299,-4.961257 35.995869,-4.469526 8.143985,1.156224 4.459362,10.218465 1.873912,14.430628 -18.356199,23.264895 8.338213,1.252618 11.759893,2.016853 7.95816,-1.17261 15.26107,2.547484 21.52169,6.349756 4.54578,4.379654 -1.36112,11.395657 -5.93897,13.881515 -6.26801,3.100396 -11.21137,8.088385 -15.52196,13.076359 -4.61307,7.915674 1.03861,17.115757 7.33336,22.998277 11.38499,9.89696 26.81547,15.09842 38.87608,24.29088 15.17984,10.64094 28.65941,23.97551 34.89797,40.32697 4.82827,10.96001 10.527,23.48362 4.56452,35.01503 -3.58252,8.21356 -10.48587,15.30736 -19.78706,18.91629 -8.11149,3.94419 -6.90779,14.1368 -15.10725,18.0942 -9.35287,5.05957 -20.35024,7.04463 -30.46114,10.65438 -11.44435,2.63843 -24.13934,2.61405 -35.568284,-0.049 z m 25.419014,-9.67928 c 4.7132,-4.08812 2.20367,-11.48019 7.74509,-14.85401 7.08653,-0.24787 7.45527,10.85156 14.49147,9.67517 7.96642,-5.07965 14.8142,-12.22851 17.55673,-20.61331 2.04561,-6.36961 -4.73514,-11.27749 -5.19482,-17.43712 -0.96409,-2.1134 -1.15066,-8.25742 1.78987,-3.40867 4.78598,5.66326 8.07115,13.21421 15.97357,16.10475 8.11317,1.65387 13.83016,-6.02604 11.98135,-12.41148 0.66697,-5.73941 -2.35619,-10.71859 -4.63713,-15.88447 -5.34558,-11.71515 -13.87139,-22.41593 -25.26095,-30.27368 -15.50196,-11.38672 -30.92988,-23.18742 -43.19575,-37.34164 -4.43369,-5.62107 -6.4802,-12.33787 -10.53623,-18.09839 -4.008976,-5.215012 -7.797309,0.8375 -4.679844,4.51261 7.409704,18.33621 17.519684,36.11056 31.773034,51.17396 4.55736,5.37199 9.57458,10.94222 11.18721,17.61019 -1.15731,4.05551 -4.81936,-5.55263 -7.20665,-6.92982 -1.27342,-5.47655 -6.03197,-9.44385 -11.1202,-12.33962 -7.56237,-6.97561 -13.53688,-15.08714 -19.2181,-23.24252 -5.883437,-3.8377 -4.994658,8.08164 -6.672236,10.95433 -2.931385,14.20012 -7.271124,28.27522 -8.168745,42.72691 -0.493748,3.7215 1.380729,11.03987 -0.47281,12.35931 -1.463768,-12.42803 0.05602,-24.98157 0.266401,-37.44982 0.626732,-7.37552 -0.450787,-15.05572 2.529741,-22.10734 -0.414899,-5.63926 4.317107,-9.93479 3.364176,-15.63998 -0.240172,-7.12501 0.0694,-14.59845 -2.77981,-21.3707 -4.573402,-6.765605 -10.907644,2.42031 -10.199834,6.98534 -0.767757,10.91393 -7.260157,20.6856 -12.403517,30.42416 -3.809355,6.35429 -7.069729,13.0025 -11.589765,19.00567 -6.452251,2.14129 4.678436,-4.88907 -0.591365,-6.35456 -5.191338,-2.77146 -6.851477,6.77173 -10.253893,9.23945 -2.145509,0.42802 2.890042,-7.7984 5.148604,-9.97722 14.984354,-11.70822 15.380105,-41.64099 22.363443,-42.21547 -0.571453,6.07199 -2.274873,12.19102 -4.278305,18.05651 -3.202542,3.03588 0.669502,7.27601 1.867639,2.03173 2.100546,-6.79851 3.923428,-13.83169 3.731166,-20.92623 -6.628244,-2.709 -8.347953,7.903 -10.13556,11.63876 -1.362334,5.56042 -4.776535,8.97906 -7.444262,13.95183 -10.92152,14.29817 -26.216812,27.28447 -29.144793,45.02312 -1.264577,10.65911 -1.782046,22.24139 4.188801,31.97136 1.188142,3.589 5.931784,4.01758 4.579438,-0.52595 -2.323666,-13.64876 -2.123459,-28.43963 5.790264,-40.7755 4.716689,-4.91214 6.976293,-12.49058 13.058454,-15.92631 -0.573924,2.67557 -5.280737,4.90999 -0.241634,7.8704 -1.492037,4.79161 -3.659484,10.27954 -8.062525,13.53108 -4.517066,2.33367 -2.200889,9.79141 -4.077913,14.11411 -2.846745,16.3124 2.361978,33.76486 14.298035,46.6027 5.153443,5.64822 16.327301,8.00151 22.142726,1.82992 5.281495,-5.10141 2.648802,-13.36343 8.440465,-18.1814 2.312588,3.55571 0.221567,9.2202 1.368365,13.55514 0.579136,6.82536 5.37724,13.62969 13.336719,15.34277 5.95224,1.51035 13.79871,2.11141 18.59388,-2.00607 z m -16.02463,0.6908 c -7.069507,-1.39937 -12.115733,-6.44543 -13.838085,-12.45096 -2.866015,-5.18806 3.268639,-11.19604 -0.584277,-16.02421 -6.634821,-3.79355 -9.030166,6.25834 -10.008181,10.32756 0.952218,5.77211 -4.366294,10.66352 -11.008333,10.32081 -9.548619,-0.0423 -14.804389,-8.39341 -18.045162,-15.10431 -4.27388,-6.53658 -5.592528,-14.03881 -7.589749,-21.2438 -1.009376,-5.63309 -0.0056,-10.70514 0.879109,-16.71493 3.477633,-6.76534 -1.893244,-9.90835 2.919781,-9.23558 3.253135,5.78418 -2.154956,13.43996 -1.044518,20.225 0.83346,4.78154 1.199858,12.88849 8.029541,13.6652 3.790602,-1.51467 3.455859,-10.43233 6.769997,-9.10321 1.843236,5.5273 3.294329,11.62158 9.00336,15.27272 6.142262,3.45808 9.972189,-4.88376 11.683619,-8.87398 2.970749,-6.56786 -0.157207,-13.48846 0.175604,-20.25585 0.03507,-6.37238 -0.855151,-12.76447 -1.207012,-19.06453 1.010455,-5.80626 2.408243,-11.6199 4.880341,-17.09907 -2.136583,10.62688 -1.527846,21.52708 -1.866393,32.28185 0.289167,5.44043 -0.632989,11.09998 1.194426,16.36848 2.462349,2.23806 7.23262,2.13662 6.248334,6.86266 1.756412,8.30379 5.143503,17.65596 14.009738,22.1268 6.64798,3.41197 11.13425,-3.19753 12.64907,-7.99284 2.29124,-3.76034 3.39343,-14.88013 10.19646,-10.34767 3.34928,4.72177 8.83271,10.78111 16.10191,8.73958 6.76238,-2.17359 8.45734,-8.81483 7.06856,-14.38533 0.0634,-6.93575 -2.60248,-13.52307 -6.61301,-19.43156 -5.0714,-5.41476 -2.54191,-12.47443 -5.61774,-18.33082 -4.55047,-8.23198 -12.37471,-14.46382 -18.31413,-21.84553 -8.9856,-13.20604 -16.4663,-27.14769 -23.290879,-41.27706 -1.102054,-6.346004 5.745649,-0.28245 5.078916,3.10929 2.218623,4.69704 4.202293,9.38378 7.616403,13.60948 2.29883,4.74057 10.09441,7.10493 7.87497,12.82382 1.68872,6.93164 8.17322,11.93422 12.98428,17.35695 8.05469,7.68277 15.00463,16.15358 21.18138,25.04364 6.21231,6.73232 8.56878,15.74456 16.324,21.48208 3.36714,4.531 13.67864,6.61207 12.77491,-1.23485 2.70748,4.42847 2.72105,10.4133 -0.0841,14.80933 -4.72171,5.29004 -13.13664,1.27301 -15.60382,-3.7739 -3.33044,-3.3733 -5.64022,-12.42182 -11.87602,-10.0895 -3.23196,6.52738 2.32476,12.87039 4.57908,18.87196 0.8415,6.82473 -4.99301,12.55728 -9.49898,17.61023 -2.76059,3.53996 -8.25469,8.09217 -10.84552,1.8452 -1.93701,-5.24189 -10.4342,-9.3683 -14.00596,-2.90507 -3.37366,4.11339 -0.85264,11.79158 -7.74475,13.63265 -3.68054,1.05441 -7.80119,1.43886 -11.54155,0.39927 z M 87.462368,192.92579 c -0.805859,-9.55173 1.808601,-19.0584 3.407865,-28.47104 2.005529,-8.99629 3.637635,-18.09329 6.449439,-26.92659 3.031538,-1.84115 4.708758,6.48133 7.722148,8.07102 4.67546,5.12328 9.02587,10.83811 15.26732,14.585 3.75016,0.52423 11.07538,9.8018 3.66144,4.61721 -3.7306,-3.11135 -14.35817,-9.28084 -12.99498,-0.33681 -1.30789,3.45296 -5.45473,-4.90021 -8.37933,-5.55921 -7.766588,-3.25459 -8.961801,5.83016 -10.12236,10.32962 -2.348534,8.36656 -3.584866,16.94634 -4.038758,25.52546 -0.703932,0.2446 -0.641608,-1.66109 -0.972784,-1.83466 z m 103.689182,-0.50202 c -2.0236,-8.13784 -4.96827,-16.21024 -9.05549,-23.7482 -6.36354,-9.63074 -14.69822,-18.37907 -24.53709,-25.44831 -3.6714,0.21605 2.83195,10.40796 2.7689,11.46881 3.82761,2.59471 5.06254,10.36949 8.55584,14.51476 2.98928,5.44806 6.25382,10.7776 10.67823,15.43969 2.4493,2.83868 8.08171,11.74913 11.58961,7.77335 z M 151.2268,154.77 c -1.38104,-1.64601 -8.10411,-7.04562 -3.61149,-2.48098 0.9511,2.32961 2.55203,3.29139 3.61149,2.48098 z m -8.80863,-7.5007 c -23.14411,-24.30018 -7.60922,-3.85593 -3.04907,-0.41943 1.34583,1.82105 7.56228,3.96233 3.04907,0.41943 z M 28.467139,102.65719 c -0.0358,-5.182161 6.414125,-8.942051 11.790952,-11.749338 4.829259,-3.742846 11.013919,-4.870905 17.314135,-5.508025 9.527966,-1.934601 -0.563757,-8.328285 -5.541775,-8.955626 -5.968516,-1.76991 -12.306497,0.804833 -17.719519,2.956409 -7.483572,3.673196 -12.10738,10.998456 -13.317188,18.236486 -0.408867,3.642554 3.25512,10.855744 7.473395,5.020094 z m 50.547096,-4.970684 c 3.556111,-1.66569 13.898723,-1.944275 13.609363,-2.707842 -6.608206,-0.651207 -13.08906,0.75474 -19.087653,3.085204 -7.312645,0.582137 2.202577,-6.47702 2.649471,-7.373734 -3.003547,0.503838 -15.84048,9.230007 -11.183358,3.049064 3.261294,-2.822326 12.21114,-10.62943 15.118451,-6.600212 2.602972,-1.698947 12.457795,-4.039799 14.254107,-0.706354 -2.944864,-0.326882 -12.038691,2.500763 -6.370398,3.006994 5.951085,-2.635739 10.603912,2.12352 13.843682,4.323824 -0.28033,-6.369283 -8.199299,-11.393383 -14.873812,-12.619386 -6.78066,0.353392 -13.787345,1.877508 -19.492551,5.170993 -6.090817,4.106225 -6.674116,13.219311 0.133,16.990303 4.069489,-0.9042 7.21669,-4.437461 11.399742,-5.618854 z m 10.832139,-4.607135 c -8.882336,-3.211561 -1.825438,1.854475 0,0 z M 111.8888,78.767666 c 6.08778,-2.64686 7.13612,-9.012189 13.83922,-10.495736 6.47857,-6.172251 -4.66397,-7.843186 -9.59494,-9.495531 -7.06713,-1.398918 -12.79688,2.852551 -19.020739,4.73957 -3.702589,3.598537 -11.581826,8.490678 -9.431527,13.497797 6.167747,2.516218 9.753609,-5.626303 15.084136,-4.428801 -2.830896,2.578512 -8.397185,8.356746 -0.18198,8.197057 3.21972,0.129582 6.57296,-0.488309 9.30688,-2.014356 z M 73.917379,72.942592 c -2.158769,-3.076124 2.340168,-8.893198 4.335281,-4.22521 -2.981226,3.507503 3.301718,12.506392 4.723075,4.922128 1.412961,-6.600687 0.717989,-13.808001 5.359184,-19.584878 4.604772,-4.494167 4.05882,-13.689377 -5.185765,-10.627359 -8.203933,1.723516 -16.690023,3.363769 -24.107856,6.964996 -7.435202,4.153198 -2.208713,11.414395 3.88207,13.730579 1.878562,5.183878 3.92307,10.80551 8.18668,14.865255 4.106952,1.099335 2.697543,-4.196089 2.807331,-6.045511 z" /></g></g><path
         id="path1089"
         style="fill:#000000;stroke-width:0.377764"
         d="m 143.86202,36.976554 c -9.14033,-0.435404 -17.73648,11.753512 -24.49256,17.295069 -0.76193,0.525843 -1.50646,1.07357 -2.25568,1.615405 0.52032,0.290529 1.00917,0.633676 1.48622,0.993738 0.0476,0.02905 0.0962,0.05641 0.14366,0.08578 0.30459,0.191806 0.60422,0.391395 0.90123,0.594795 3.76064,-3.154606 7.52464,-6.307405 11.28097,-9.460921 1.70336,-9.137055 22.6937,-3.714421 12.74186,1.539441 -6.90851,3.141151 -13.34608,7.102928 -19.4598,11.526945 0.36481,0.305996 0.71885,0.624352 1.05213,0.965316 7.33956,-5.616283 14.89582,-10.80386 24.34322,-12.030274 -2.41653,3.895514 -13.94992,10.438988 -21.63589,16.316834 0.0141,0.044 0.0284,0.08791 0.0429,0.131775 0.10237,0.07919 0.2013,0.154861 0.33642,0.271301 0.68647,0.766572 -2.13317,5.153565 0.9126,2.34301 0.002,0.004 0.004,0.0079 0.006,0.01188 -0.53074,-0.0907 -3.83192,2.504835 -2.03065,1.814702 0.36888,-0.511693 6.44806,-4.969595 8.70932,-6.567383 6.9776,-6.689312 26.55351,-11.443027 15.6962,-23.68951 -2.6163,-2.524424 -5.2185,-3.635994 -7.77782,-3.757911 z m -0.66508,3.338298 c 3.2341,0.02179 9.58079,1.998908 8.72299,6.648173 -2.11343,1.436937 -4.02063,-2.706483 -5.76606,-3.488159 -6.10439,-2.011268 -5.47222,-3.176962 -2.95693,-3.160014 z m 3.22978,1.297078 c 0.005,3.92788 7.28205,3.660365 0,0 z m -8.55865,5.652369 c -0.11284,0.0341 -0.50198,0.280015 -1.32498,0.869197 -2.88932,2.818919 1.81394,-1.016975 1.32498,-0.869197 z m -7.8264,4.595068 c -0.72358,0.35539 -4.9633,4.199483 -8.24394,7.349422 0.129,0.105012 0.25841,0.20934 0.38706,0.31471 l 4.08916,-3.353284 c 2.78711,-2.879724 3.86706,-4.120993 3.87314,-4.310848 0.001,-0.0356 -0.0352,-0.03446 -0.10542,0 z m -12.77854,24.884269 c -0.67746,0.279373 -1.3558,0.555751 -2.02934,0.844393 -1.06805,0.859543 -2.15382,1.695563 -3.25044,2.517159 0.93584,-0.371857 1.87989,-0.731093 2.77244,-1.196826 0.91443,-0.551929 1.72382,-1.25126 2.55953,-1.913578 -0.019,-0.08287 -0.0366,-0.166694 -0.0522,-0.251148 z M 61.662903,97.795064 c -0.0885,0.06216 -0.177416,0.123731 -0.2651,0.187069 6.07e-4,0.0028 0.0015,0.0055 0.0021,0.0083 0.04315,0.231844 0.08981,0.463051 0.129191,0.695565 0.09083,0.536212 0.117361,0.860222 0.230994,1.389062 0.01426,0.0664 0.03158,0.13223 0.04702,0.19844 0.142922,0.11304 0.292498,0.21602 0.427881,0.34054 0.288537,0.31361 0.569727,0.63263 0.838192,0.96119 0.02185,-0.0158 0.04429,-0.0307 0.06615,-0.0465 -0.115169,-0.13348 -0.229486,-0.26669 -0.343649,-0.39584 -0.556036,-0.78415 -0.889342,-1.510978 -1.079004,-2.452566 -0.0661,-0.328142 -0.08016,-0.624325 -0.05374,-0.885218 z m -3.740857,2.741436 c -10.265826,7.66922 -20.047899,16.02468 -29.939258,24.15615 -23.5756028,19.52443 -50.730912,34.44229 -73.04412,55.49842 -20.34694,23.2853 -42.182442,45.86124 -68.729658,62.15073 -22.56664,12.18539 -43.29881,27.40427 -62.51918,44.34871 -24.47017,22.89203 -53.00794,41.14416 -76.11318,65.5252 -13.73835,7.74585 -5.32718,23.80056 6.21977,28.62151 l 5.2e-4,5.2e-4 c 2.90818,1.47926 6.47335,2.3003 9.62577,1.04799 15.20449,-13.06523 28.82764,-27.80817 42.95913,-41.99123 23.47771,-24.56765 49.87435,-46.11029 77.70172,-65.55104 21.415527,-13.98371 40.550064,-31.06757 58.110149,-49.60627 27.322886,-29.45828 58.10075663,-55.40906 90.130933,-79.57447 8.891034,-6.49085 17.373386,-13.52173 25.890409,-20.50108 0.06121,-0.40322 0.122612,-0.8064 0.204639,-1.20716 0.124512,-0.58332 0.240681,-1.16829 0.361218,-1.75235 -0.164169,-0.44614 -0.151205,-0.89804 -0.03514,-1.33893 -6.547696,5.36593 -13.069828,10.76631 -19.770369,15.90032 -13.077151,11.32809 -27.915449,20.32349 -43.7265302,27.31254 -14.4866828,5.69099 -26.2102398,15.96494 -38.9604128,24.58661 -12.160823,8.21977 5.547821,-1.81561 9.493478,-4.84208 12.84453,-10.98359 28.2975846,-18.04226 43.7120601,-24.6357 -20.0537031,16.16311 -38.8182311,33.97327 -60.0469811,48.64354 -11.258463,6.25506 -22.080676,13.37643 -31.715893,22.01003 -9.173553,6.69023 0.960567,2.27182 5.143355,-1.74047 11.618307,-10.66934 26.006727,-17.38573 38.429696,-27.02884 -7.87075,8.22023 -15.783519,16.40122 -23.776327,24.5029 -12.706374,9.75683 -25.684894,19.433 -39.346954,27.90321 -18.69331,8.98783 -35.24681,21.67542 -50.49821,35.62986 -12.36269,13.39099 -30.54174,19.4429 -42.51937,33.20159 -10.12989,15.41456 -24.28934,27.51906 -39.43325,37.83335 0.6918,-0.29754 1.44255,-0.49778 2.26911,-0.5488 16.39952,-8.62175 28.06041,-23.32764 39.69319,-37.33105 8.0943,-10.75764 21.27997,-14.88924 31.25235,-23.34948 16.52611,-14.2896 32.02952,-30.28169 51.96996,-39.91488 14.127844,-6.73873 26.051339,-16.88962 38.801765,-25.76019 -15.285616,16.1243 -33.702985,28.73603 -51.533805,41.81554 -40.00814,27.04874 -73.39903,62.21336 -107.01414,96.54088 -1.30078,1.14925 -2.25701,2.54234 -3.283,3.93051 -7.16508,5.24744 -9.3953,-4.96908 -6.17172,-11.35383 -6.00002,5.93908 -21.45364,-2.25514 -12.32586,-10.01696 24.95455,-23.11951 52.51471,-43.25169 78.12236,-65.64354 17.8187,-17.15486 39.15545,-29.78176 60.09401,-42.662 26.660785,-15.88862 47.835917,-38.88316 68.438196,-61.70424 20.855961,-20.18786 46.2196954,-34.89264 69.069686,-52.6402 11.318471,-9.23171 22.775311,-18.29353 34.547762,-26.92962 -0.170788,-0.74995 -0.349878,-1.49838 -0.534851,-2.24586 -0.03294,-0.16811 -0.06464,-0.33689 -0.09715,-0.50539 -0.30511,-0.19889 -0.614144,-0.39246 -0.900721,-0.61909 -0.06896,-0.0544 -0.137042,-0.11001 -0.205155,-0.16536 z M -238.28623,363.66876 c 0.57847,-0.57259 1.06179,-1.28534 1.43402,-2.13372 -0.55923,0.63147 -1.03931,1.35192 -1.43402,2.13372 z m 1.43402,-2.13372 c 0.11461,-0.12941 0.23604,-0.25025 0.3576,-0.37156 -0.0896,0.0597 -0.17698,0.12341 -0.26665,0.18294 -0.0271,0.0668 -0.0624,0.12354 -0.091,0.18862 z m 0.3576,-0.37156 c 0.74721,-0.49722 1.48191,-1.01753 2.22467,-1.52342 -0.83979,0.3612 -1.58125,0.8815 -2.22467,1.52342 z M 71.039075,101.91988 v 5.1e-4 c 0.0074,0.004 0.01614,0.006 0.02377,0.0103 4.5e-5,-5.1e-4 -4.5e-5,-0.001 0,-0.002 -0.0081,-0.003 -0.01553,-0.006 -0.02377,-0.009 z m 0.0186,0.0723 c -0.09681,0.0177 -0.195803,0.0311 -0.295589,0.0413 0.09204,0.0924 0.181098,0.20124 0.270785,0.30592 0.0088,-0.11573 0.01485,-0.23161 0.0248,-0.34727 z m -2.765722,2.04691 c -0.05409,0.0404 -0.108477,0.0803 -0.162781,0.1204 -0.02697,0.0259 -0.05143,0.0512 -0.07752,0.077 0.06111,0.0257 0.104524,0.0894 0.159164,0.13023 0.01101,-0.0475 0.02149,-0.0951 0.03256,-0.14263 0.01484,-0.0637 0.03118,-0.1251 0.04858,-0.185 z m -7.749915,4.54959 c -4.233241,3.66583 -8.285559,7.60237 -12.715503,10.84275 -8.681626,6.08261 -17.970406,13.06468 -26.790096,17.86093 12.511222,-4.12017 22.427443,-13.82381 33.295125,-21.08761 1.957675,-2.26467 4.09447,-4.32332 6.36602,-6.20789 -0.05581,-0.46515 -0.108784,-0.93048 -0.153479,-1.39578 -6.44e-4,-0.004 -0.0014,-0.008 -0.0021,-0.0124 z m 9.046476,6.90294 c -0.634605,0.28021 -0.979725,0.43342 -1.25212,0.55294 0.0513,0.10125 0.104369,0.20165 0.158647,0.30127 0.362746,-0.28713 0.7299,-0.56821 1.093473,-0.85421 z M 43.529643,129.8975 c -2.155108,0.56122 -18.655822,12.66652 -26.033553,18.22472 7.377814,-3.87299 18.097165,-11.8101 26.033553,-18.22472 z m -31.324186,16.42845 c -0.112838,0.0341 -0.501994,0.28 -1.324984,0.8692 -2.8892822,2.81895 1.813935,-1.01698 1.324984,-0.8692 z m -8.0537724,4.85242 c -1.1370736,0.28676 -11.2102367,6.28667 -13.7138916,8.15764 l 9.13277585,-4.72478 c 3.32501725,-2.23721 4.63905185,-3.22671 4.68446855,-3.41116 0.00852,-0.0346 -0.027547,-0.0408 -0.1033528,-0.0217 z m -45.4421876,40.91791 c -1.052636,0.51697 -9.658701,8.48077 -11.718664,10.83139 l 7.950935,-6.52054 c 2.787198,-2.87964 3.86707,-4.12099 3.873149,-4.31085 0.0011,-0.0356 -0.03524,-0.0345 -0.10542,0 z m -62.942927,52.20302 c -0.52902,-0.24191 -12.99538,9.28716 -17.77204,12.6013 -35.08673,26.88602 -74.54913,48.89014 -104.11458,82.33141 l -6.95203,12.06024 c 2.35149,-3.35318 4.9584,-6.52216 7.72149,-9.54308 36.31126,-37.30299 82.84127,-62.34714 121.13059,-97.39561 0.008,-0.0287 0.004,-0.0465 -0.0134,-0.0543 z m -73.92004,69.56785 c -1.05273,0.51696 -9.65917,8.48076 -11.71918,10.83138 l 7.95145,-6.52054 c 2.78722,-2.87963 3.86708,-4.12099 3.87315,-4.31084 10e-4,-0.0356 -0.0352,-0.0345 -0.10542,0 z m -31.92466,19.52542 c -1.05274,0.51697 -9.6593,8.48078 -11.71918,10.83138 l 7.95145,-6.52053 c 2.78722,-2.87975 3.86707,-4.121 3.87315,-4.31085 0.001,-0.0356 -0.0352,-0.0345 -0.10542,0 z m -2.27893,17.96221 c -2.15515,0.56122 -18.65571,12.66637 -26.03356,18.22473 7.37792,-3.87308 18.09705,-11.8101 26.03356,-18.22473 z m -34.5767,5.15007 c -0.11284,0.0341 -0.50199,0.28052 -1.32499,0.86972 -2.88932,2.81896 1.81382,-1.01749 1.32499,-0.86972 z m -5.94745,7.50497 c 5.4369,0.308 13.87842,8.82458 13.64207,14.62133 -7.8562,0.46413 -13.65117,-6.57204 -17.24598,-12.7093 0.79475,-1.44081 2.0817,-1.99827 3.60391,-1.91203 z m 0.84233,2.7833 c -1.09017,0.0959 -1.20197,1.15992 1.10639,4.15736 6.89099,4.96733 3.89241,2.14279 0.41652,-2.67735 l 1.92856,0.65009 c 8.50901,3.70351 -0.66549,-2.37512 -3.45147,-2.1301 z"
         sodipodi:nodetypes="sccccccccccccccccccsssccsccscsccccccsccccsscccsscccccsccsccccccccccccccccccccccccccccccccccccccccccccccccsscccsccssccccccccccccccscccssscccccccccccccccscscccsccccccscccccsscccccccccccccscssccsscccs" /><path
         style="fill:#000000;stroke-width:0;stroke-linecap:round;stroke-linejoin:round;paint-order:markers stroke fill"
         d="m 129.08729,69.189596 c -0.90702,0.07397 -1.80885,0.0884 -2.72909,0.0884"
         id="path1544" /></g></g></g></svg>
