<?xml version="1.0" encoding="UTF-8" standalone="no"?>
<svg
   version="1.1"
   id="Layer_3"
   x="0px"
   y="0px"
   width="283.46px"
   height="283.46px"
   viewBox="0 0 283.46 283.46"
   enable-background="new 0 0 283.46 283.46"
   xml:space="preserve"
   sodipodi:docname="star-shimmer-alt.svg"
   inkscape:version="1.2.2 (b0a8486541, 2022-12-01)"
   xmlns:inkscape="http://www.inkscape.org/namespaces/inkscape"
   xmlns:sodipodi="http://sodipodi.sourceforge.net/DTD/sodipodi-0.dtd"
   xmlns="http://www.w3.org/2000/svg"
   xmlns:svg="http://www.w3.org/2000/svg"><defs
   id="defs15" /><sodipodi:namedview
   id="namedview13"
   pagecolor="#ffffff"
   bordercolor="#000000"
   borderopacity="0.25"
   inkscape:showpageshadow="2"
   inkscape:pageopacity="0.0"
   inkscape:pagecheckerboard="0"
   inkscape:deskcolor="#d1d1d1"
   showgrid="false"
   inkscape:zoom="0.74084528"
   inkscape:cx="137.00566"
   inkscape:cy="228.11781"
   inkscape:window-width="1920"
   inkscape:window-height="1015"
   inkscape:window-x="0"
   inkscape:window-y="0"
   inkscape:window-maximized="1"
   inkscape:current-layer="Layer_3" />

<path
   style="color:#000000;fill:#000000;stroke-linecap:round;stroke-linejoin:round;-inkscape-stroke:none;stroke:none"
   d="m 12,2 a 1.0001,1.0001 0 0 0 -0.964844,0.7402344 l -1.4316404,5.3125 C 9.4969004,8.4487622 9.4255138,8.7063692 9.3730469,8.8457031 9.3396459,8.9344038 9.317616,8.9719924 9.296875,9.0039063 9.2206006,9.1212099 9.1212099,9.2206006 9.0039063,9.296875 8.9218699,9.3501912 8.7008762,9.4290286 8.0527344,9.6035156 l -5.3125,1.4316404 a 1.0001,1.0001 0 0 0 0,1.929688 l 5.3125,1.43164 c 0.6481418,0.174487 0.8691355,0.253325 0.9511719,0.306641 0.1171688,0.07617 0.2166877,0.175625 0.2929687,0.292969 0.053234,0.08189 0.1321533,0.303019 0.3066406,0.951172 l 1.4316404,5.3125 a 1.0001,1.0001 0 0 0 1.929688,0 l 1.43164,-5.3125 c 0.174488,-0.648153 0.253407,-0.869281 0.306641,-0.951172 0.07617,-0.117209 0.17576,-0.216796 0.292969,-0.292969 0.08189,-0.05323 0.303019,-0.132153 0.951172,-0.306641 l 5.3125,-1.43164 a 1.0001,1.0001 0 0 0 0,-1.929688 l -5.3125,-1.4316404 C 15.299113,9.4290283 15.077985,9.3501091 14.996094,9.296875 14.87875,9.220594 14.779292,9.1210751 14.703125,9.0039063 14.649809,8.9218699 14.570971,8.7008762 14.396484,8.0527344 l -1.43164,-5.3125 A 1.0001,1.0001 0 0 0 12,2 Z m 0,4.8457031 0.464844,1.7265625 c 0.174512,0.6482369 0.269463,1.0736013 0.560547,1.5214844 0.228633,0.351711 0.529203,0.652261 0.880859,0.880859 0.447908,0.291166 0.873239,0.386035 1.521484,0.560547 L 17.154297,12 15.427734,12.464844 c -0.648245,0.174512 -1.073576,0.269381 -1.521484,0.560547 -0.35179,0.228626 -0.652233,0.529069 -0.880859,0.880859 -0.291166,0.447908 -0.386035,0.873239 -0.560547,1.521484 L 12,17.154297 11.535156,15.427734 C 11.360644,14.779489 11.265775,14.354158 10.974609,13.90625 10.746011,13.554594 10.445461,13.254024 10.09375,13.025391 9.6458669,12.734307 9.2205025,12.639356 8.5722656,12.464844 L 6.8457031,12 8.5722656,11.535156 c 0.6482369,-0.174512 1.0736013,-0.269463 1.5214844,-0.560547 0.351576,-0.228605 0.652254,-0.529283 0.880859,-0.880859 0.113223,-0.1742145 0.200093,-0.3585647 0.269532,-0.5429687 0.109075,-0.2896653 0.184385,-0.5824307 0.291015,-0.9785157 z"
   id="path944"
   transform="matrix(13.465033,0,0,13.465033,-19.8504,-19.8504)" /></svg>
