<?xml version="1.0" encoding="UTF-8" standalone="no"?>
<!-- Generator: Adobe Illustrator 15.1.0, SVG Export Plug-In . SVG Version: 6.00 Build 0)  -->

<svg
   version="1.1"
   id="Layer_1"
   x="0px"
   y="0px"
   width="283.46px"
   height="283.46px"
   viewBox="0 0 283.46 283.46"
   style="enable-background:new 0 0 283.46 283.46;"
   xml:space="preserve"
   sodipodi:docname="star-shimmer.svg"
   inkscape:version="1.2.2 (b0a8486541, 2022-12-01)"
   xmlns:inkscape="http://www.inkscape.org/namespaces/inkscape"
   xmlns:sodipodi="http://sodipodi.sourceforge.net/DTD/sodipodi-0.dtd"
   xmlns="http://www.w3.org/2000/svg"
   xmlns:svg="http://www.w3.org/2000/svg"><defs
   id="defs7311" /><sodipodi:namedview
   id="namedview7309"
   pagecolor="#ffffff"
   bordercolor="#000000"
   borderopacity="0.25"
   inkscape:showpageshadow="2"
   inkscape:pageopacity="0.0"
   inkscape:pagecheckerboard="0"
   inkscape:deskcolor="#d1d1d1"
   showgrid="false"
   inkscape:zoom="1.0477135"
   inkscape:cx="-181.82452"
   inkscape:cy="178.48391"
   inkscape:window-width="1920"
   inkscape:window-height="1015"
   inkscape:window-x="0"
   inkscape:window-y="0"
   inkscape:window-maximized="1"
   inkscape:current-layer="Layer_1" />

<path
   id="path795"
   style="enable-background:new 0 0 283.46 283.46;fill:#000000;color:#000000;stroke-linecap:round;stroke-linejoin:round;-inkscape-stroke:none;stroke:none"
   d="M 12.000035 1.9999935 A 1.0001 1.0001 0 0 0 11.035148 2.7401947 L 9.6034832 8.0527304 C 9.5144198 8.3835609 9.4505542 8.6021118 9.4020057 8.7486907 L 9.0038375 9.2968429 C 8.9218013 9.3501589 8.700871 9.4289964 8.0527304 9.6034832 L 2.7401947 11.035148 A 1.0001 1.0001 0 0 0 2.7401947 12.964777 L 8.0527304 14.396442 C 8.700871 14.570929 8.9218013 14.649766 9.0038375 14.703082 L 9.1834121 14.852921 C 9.2252824 14.89701 9.2634232 14.944678 9.2968429 14.996088 C 9.3500767 15.077978 9.4289961 15.299042 9.6034832 15.947195 L 11.035148 21.25973 A 1.0001 1.0001 0 0 0 12.964777 21.25973 L 13.68061 18.603535 L 14.996088 14.703082 C 15.077978 14.649852 15.299042 14.57093 15.947195 14.396442 L 21.25973 12.964777 A 1.0001 1.0001 0 0 0 21.25973 11.035148 L 15.947195 9.6034832 C 15.299042 9.4289961 15.077979 9.3500768 14.996088 9.2968429 L 14.59821 8.7489808 C 14.549647 8.6024014 14.485574 8.3838175 14.396442 8.0527304 L 12.964777 2.7401947 A 1.0001 1.0001 0 0 0 12.000035 1.9999935 z "
   transform="matrix(13.464983,0,0,13.464983,-19.8498,-19.8498)" /></svg>
