<?xml version="1.0" encoding="UTF-8" standalone="no"?>
<!-- Generator: Adobe Illustrator 15.1.0, SVG Export Plug-In . SVG Version: 6.00 Build 0)  -->

<svg
   version="1.0"
   id="Layer_1"
   x="0px"
   y="0px"
   width="283.46px"
   height="283.46px"
   viewBox="0 0 283.46 283.46"
   enable-background="new 0 0 283.46 283.46"
   xml:space="preserve"
   sodipodi:docname="stick.svg"
   inkscape:version="1.2.2 (b0a8486541, 2022-12-01)"
   xmlns:inkscape="http://www.inkscape.org/namespaces/inkscape"
   xmlns:sodipodi="http://sodipodi.sourceforge.net/DTD/sodipodi-0.dtd"
   xmlns="http://www.w3.org/2000/svg"
   xmlns:svg="http://www.w3.org/2000/svg"><defs
   id="defs249" /><sodipodi:namedview
   id="namedview247"
   pagecolor="#ffffff"
   bordercolor="#000000"
   borderopacity="0.25"
   inkscape:showpageshadow="2"
   inkscape:pageopacity="0.0"
   inkscape:pagecheckerboard="0"
   inkscape:deskcolor="#d1d1d1"
   showgrid="false"
   inkscape:zoom="0.52385673"
   inkscape:cx="-406.59972"
   inkscape:cy="456.23161"
   inkscape:window-width="1400"
   inkscape:window-height="1043"
   inkscape:window-x="460"
   inkscape:window-y="0"
   inkscape:window-maximized="0"
   inkscape:current-layer="Layer_1" />
<g
   id="Layer_3">
</g>

<g
   id="g1068"
   transform="matrix(-1.2745023,0,0,1.2745023,453.88352,-304.41393)" /><path
   id="path1089"
   style="fill:#000000;stroke-width:0.254245"
   d="m 22.924207,12.928992 c 2.24552,-5.0047698 2.64092,-0.11954 0,0 z M 106.6985,114.32591 c -1.8946,-2.31539 -9.858463,-14.678598 -3.44726,-6.00088 M 37.929277,31.201082 c -2.33458,-1.8709 -12.69488,-12.30814 -4.61958,-5.15302 M 237.29775,251.55194 c -2.33457,-1.87091 -12.69487,-12.30812 -4.61958,-5.15302 m -9.45435,-15.73412 c -2.33458,-1.8709 -12.69487,-12.30813 -4.61957,-5.15301 m -81.30917,-83.26436 c -2.33458,-1.87091 -12.69489,-12.30814 -4.61959,-5.15302 m 121.64285,133.0553 c 3.1381,-2.47993 4.94855,-4.57987 1.81271,0.20059 -6.92311,5.83445 1.68153,-9.6293 -1.43255,-1.51658 z m -7.39479,-1.19503 c -2.24284,-2.85821 2.43811,2.28828 0,0 z M 27.601837,19.381412 c -2.24284,-2.85822 2.43811,2.28828 0,0 z m 70.32813,81.558808 c -2.24284,-2.858218 2.438113,2.28828 0,0 z M 57.101737,47.936382 c -3.95578,-4.79607 -12.58347,-15.5321 -13.02466,-16.96455 4.54818,5.14634 10.20198,12.11852 13.02466,16.96455 z m 41.25546,48.52815 c -3.95579,-4.79608 -12.58348,-15.5321 -13.02466,-16.96455 4.54817,5.14634 10.20198,12.11851 13.02466,16.96455 z M 254.83749,261.95801 c -3.95578,-4.79608 -12.58346,-15.53212 -13.02464,-16.96456 4.54816,5.14634 10.20199,12.11852 13.02464,16.96456 z m -20.76809,-7.35168 c -23.36094,-18.88899 -39.32428,-44.7703 -58.44114,-67.56579 -2.44625,-3.21409 -9.58766,-11.74124 -8.96269,-11.58687 24.69993,24.7072 42.91618,55.25048 69.07342,78.56082 2.11311,1.76845 4.32101,3.42755 6.64532,4.90932 m 20.25404,7.95408 c -2.89953,7.90676 -13.44513,14.03765 -19.06021,5.02964 -17.07764,-14.81364 -30.19475,-33.46051 -46.31165,-49.23597 -11.96241,-12.42167 -22.80878,-25.91051 -31.67045,-40.72317 -11.73893,-17.3675 -27.56457,-31.38011 -43.82377,-44.37149 -14.81861,-14.37948 -25.653063,-32.19573 -39.479183,-47.469378 -9.75646,-10.85663 -19.96782,-21.45689 -27.63692,-33.95901 -6.92958,-8.94025 -15.5859,-16.37829 -22.41882,-25.40199 -5.02546,-5.60461 -17.46289,-12.91321 -10.05764,-21.2967798 7.91281,-7.66294 11.68869,5.3585298 16.39311,9.8520898 7.5144,9.69903 17.71421,17.0157 24.24133,27.49369 9.55977,14.45297 22.32818,26.30043 33.11399,39.78611 17.197063,20.820918 35.556833,40.746358 56.173273,58.245428 12.98517,11.25811 25.03831,23.61737 35.075,37.60269 13.89577,18.13498 29.16182,35.24517 46.37596,50.30361 9.95503,9.08181 20.27087,17.80484 29.50606,27.64122 0.93538,2.08252 0.48877,4.50388 -0.41984,6.50309 z m -1.68929,-4.6173 c -4.998,0.0163 -12.57127,9.72437 -8.03503,11.97214 4.02017,-2.59882 8.57976,-6.70358 8.03503,-11.97214 z m -5.37748,-6.77465 c -24.07675,-21.58563 -48.70876,-42.99474 -68.08077,-69.09454 -9.32248,-11.60185 -18.3477,-23.61155 -29.64206,-33.41185 6.34195,8.31049 13.52018,16.02687 18.4696,25.32665 7.06774,13.12236 18.2795,23.07261 28.37699,33.76127 5.98387,6.45472 9.15204,15.19786 16.62501,20.32177 9.76023,7.40696 19.99335,14.81179 26.27616,25.58317 0.74666,7.0403 15.91342,6.08396 10.71497,-0.39544 -0.96376,-0.64881 -1.92865,-1.25044 -2.7399,-2.09103 z m -6.31782,5.62042 c -7.65428,-10.4969 -16.5768,-20.31446 -27.82704,-27.01818 -9.60588,-7.64609 -14.21322,-19.68967 -23.58321,-27.60556 -9.83445,-9.84151 -18.85543,-20.5959 -25.45231,-32.89882 -6.09975,-8.93531 -12.98977,-17.37486 -19.92642,-25.62948 -5.68418,-5.13431 -11.41912,-10.21214 -17.17937,-15.26086 6.85177,8.06742 11.79351,17.54274 19.31147,25.03874 2.82164,2.69361 6.0929,9.37654 1.32281,3.40652 -6.09038,-6.22289 -11.19921,-13.28837 -15.73846,-20.67316 -10.49271,-13.83941 -23.02307,-25.92826 -34.48481,-38.93337 4.88986,10.16918 10.09324,20.35025 17.85881,28.66143 2.15178,2.56337 9.42366,14.17301 3.53674,6.2397 -6.17468,-8.31769 -13.42969,-15.89584 -17.68519,-25.46793 -5.16761,-10.42415 -11.655173,-20.134378 -19.659283,-28.591778 -10.15683,-12.1125 -21.75555,-23.15422 -30.07628,-36.68931 -5.74471,-7.08759 2.01164,4.85877 2.78683,7.99796 2.91252,7.27548 7.14527,14.05819 13.34799,18.96006 5.20584,7.09214 12.024,13.47212 15.16481,21.76244 -3.48607,-5.78818 -8.45565,-11.82667 -12.80264,-17.48391 -5.22114,-6.51563 -12.85103,-11.57481 -15.24463,-20.08367 -4.77022,-11.33552 -11.70357,-21.74006 -20.80724,-30.04288 -4.56295,-4.57308 -10.45387,-14.50009 -13.57778,-16.25249 1.93123,11.04451 11.79962,17.8617 17.29342,26.96303 -6.74586,-6.86417 -13.03061,-14.31672 -17.42854,-22.95844 -3.82734,-6.5358598 -6.8517,7.73806 -0.65759,8.61277 9.9218,10.81396 19.91971,21.61004 29.42023,32.77546 9.07465,12.57551 19.14412,24.35387 29.45433,35.91613 12.60981,14.838378 23.247893,31.456548 37.439543,44.881898 15.95462,13.17681 32.04209,26.73284 43.51496,44.18863 9.28053,13.69729 18.40223,27.6695 30.46462,39.14251 15.81426,16.55509 30.16646,34.48901 46.45065,50.58341 6.05907,6.52073 11.58573,-7.11173 4.76358,-9.54085 z M 26.359307,9.0769122 c -5.60266,-0.78059 -4.85231,13.4983698 -2.17446,3.9804498 0.47391,-1.19674 3.20322,-2.60199 2.17446,-3.9804498 z" /></svg>
