<?xml version="1.0" encoding="utf-8"?>
<!-- Generator: Adobe Illustrator 15.1.0, SVG Export Plug-In . SVG Version: 6.00 Build 0)  -->
<!DOCTYPE svg PUBLIC "-//W3C//DTD SVG 1.1//EN" "http://www.w3.org/Graphics/SVG/1.1/DTD/svg11.dtd">
<svg version="1.1" id="Layer_1" xmlns="http://www.w3.org/2000/svg" xmlns:xlink="http://www.w3.org/1999/xlink" x="0px" y="0px"
	 width="283.465px" height="283.465px" viewBox="0 0 283.465 283.465" enable-background="new 0 0 283.465 283.465"
	 xml:space="preserve">
<g>
	<path fill="none" d="M200.419,31.732h-49.635h-10h-16.292h-15H74.523H61.122H60.53v1.097v1.219v7.188v181.427v7.819v20.32v0.284
		v8.646h18.424h8.118h125.933h0.169h11.801v-29.25V31.732h-17.52H200.419z M113.676,250.49l-9.106-5.258l9.106-5.258V250.49z
		 M143.732,249.961c-2.611,0-4.729-2.117-4.729-4.729c0-2.612,2.117-4.729,4.729-4.729c2.612,0,4.729,2.117,4.729,4.729
		C148.462,247.844,146.345,249.961,143.732,249.961z M173.789,250.49v-10.516l9.105,5.258L173.789,250.49z"/>
	<circle cx="143.732" cy="245.232" r="4.729"/>
	<polygon points="113.676,250.49 113.676,239.975 104.57,245.232 	"/>
	<polygon points="173.789,250.49 182.895,245.232 173.789,239.975 	"/>
	<path d="M226.342,7.086c-0.004,0.001-0.004,0.001-0.004,0.001h-11.845H203.02h-46.828h-0.772h-44.595h-5.207H74.531H61.148h-2.014
		c-6.673,0.007-12.08,5.414-12.087,12.087v245.125c0.021,6.666,5.422,12.063,12.087,12.08h20.922h7.706h132.227h4.353h2.007
		c6.664-0.02,12.061-5.424,12.069-12.09V19.183C238.428,12.508,233.018,7.091,226.342,7.086z M143.732,15.435
		c2.086,0,3.779,1.692,3.779,3.78c0,2.087-1.693,3.78-3.779,3.78c-2.088,0-3.78-1.692-3.78-3.78
		C139.952,17.127,141.645,15.435,143.732,15.435z M224.975,230.482v29.25h-11.801h-0.169H87.072h-8.118H60.53v-8.646v-0.284v-20.32
		v-7.819V41.236v-7.188v-1.219v-1.097h0.592h13.402h34.969h15h16.292h10h49.635h7.036h17.52V230.482z"/>
</g>
</svg>
