<?xml version="1.0" encoding="UTF-8" standalone="no"?>
<!-- Generator: Adobe Illustrator 15.1.0, SVG Export Plug-In . SVG Version: 6.00 Build 0)  -->

<svg
   version="1.1"
   id="Layer_3"
   x="0px"
   y="0px"
   width="283.46px"
   height="283.46px"
   viewBox="0 0 283.46 283.46"
   enable-background="new 0 0 283.46 283.46"
   xml:space="preserve"
   sodipodi:docname="tables.svg"
   inkscape:version="1.2.2 (b0a8486541, 2022-12-01)"
   xmlns:inkscape="http://www.inkscape.org/namespaces/inkscape"
   xmlns:sodipodi="http://sodipodi.sourceforge.net/DTD/sodipodi-0.dtd"
   xmlns="http://www.w3.org/2000/svg"
   xmlns:svg="http://www.w3.org/2000/svg"><defs
   id="defs886" /><sodipodi:namedview
   id="namedview884"
   pagecolor="#ffffff"
   bordercolor="#000000"
   borderopacity="0.25"
   inkscape:showpageshadow="2"
   inkscape:pageopacity="0.0"
   inkscape:pagecheckerboard="0"
   inkscape:deskcolor="#d1d1d1"
   showgrid="false"
   inkscape:zoom="2.0954269"
   inkscape:cx="30.304087"
   inkscape:cy="191.84635"
   inkscape:window-width="1920"
   inkscape:window-height="1015"
   inkscape:window-x="0"
   inkscape:window-y="0"
   inkscape:window-maximized="1"
   inkscape:current-layer="Layer_3" />

<path
   id="path74-0"
   style="stroke-width:3.51303"
   d="m 32.818705,22.316622 c 0.0019,0.01146 0.0027,0.02314 0.0046,0.03459 H 12.3541 c -2.8104118,0 -5.2701038,2.457386 -5.2701038,5.267798 v 17.565472 c 0,2.810409 2.459692,5.270104 5.2701038,5.270104 h 27.386084 c 8.5e-5,-0.01158 -8.7e-5,-0.02308 0,-0.0346 h 142.705626 9.76065 21.68007 c 2.81041,0 5.27011,-2.459692 5.27011,-5.270103 V 27.584419 c 0,-2.810409 -2.4597,-5.267797 -5.27011,-5.267797 h -14.57869 -13.74608 z m 37.03372,42.156212 c -0.24597,0 -0.48966,0.01892 -0.72882,0.05535 -2.64298,0.215208 -4.87802,2.57289 -4.87802,5.251652 V 80.32004 c 0,2.81041 2.45968,5.2678 5.27011,5.2678 H 101.134 c 0.24576,0 0.48752,-0.0193 0.72652,-0.0553 2.64336,-0.21476 4.87802,-2.5726 4.87802,-5.25166 V 69.740685 c 0,-2.810415 -2.45969,-5.267798 -5.2701,-5.267798 z m 56.209055,0 c -2.81041,0 -5.2701,2.457382 -5.2701,5.267797 V 80.28084 c 0,2.81041 2.45969,5.2701 5.2701,5.2701 h 31.61601 c 2.8104,0 5.2701,-2.45969 5.2701,-5.2701 V 69.740631 c 0,-2.810415 -2.4597,-5.267797 -5.2701,-5.267797 z m 56.20674,0 c -2.81041,0 -5.26779,2.457382 -5.26779,5.267797 V 80.28084 c 0,2.81041 2.45738,5.2701 5.26779,5.2701 h 31.61831 c 2.81041,0 5.27011,-2.45969 5.27011,-5.2701 V 69.740631 c 0,-2.810415 -2.4597,-5.267797 -5.27011,-5.267797 z M 13.306638,64.50974 c -2.810414,0 -5.2677958,2.459684 -5.2677958,5.270103 V 80.32005 c 0,2.81041 2.4573818,5.26779 5.2677958,5.26779 H 44.92495 c 2.810416,0 5.270104,-2.45738 5.270104,-5.26779 V 69.779843 c 0,-2.810419 -2.459688,-5.270103 -5.270104,-5.270103 z m 76.731317,27.9696 c 0.002,0.0118 0.002,0.0232 0.005,0.0346 h -20.46949 c -2.81041,0 -5.2701,2.45971 -5.2701,5.27012 v 17.56315 c 0,2.81041 2.45969,5.27011 5.2701,5.27011 h 27.38609 c 8e-5,-0.0118 -10e-5,-0.023 0,-0.0346 h 142.705625 9.76065 21.68007 c 2.8104,0 5.2701,-2.45739 5.2701,-5.26781 V 97.74944 c 0,-2.81042 -2.4597,-5.27009 -5.2701,-5.27009 h -14.57869 -13.74609 z m -76.731317,7.16134 c -2.810414,0 -5.2677958,2.45968 -5.2677958,5.2701 v 10.5379 c 0,2.81042 2.4573818,5.27011 5.2677958,5.27011 H 44.92495 c 2.810416,0 5.270104,-2.45969 5.270104,-5.27011 v -10.5379 c 0,-2.81042 -2.459688,-5.2701 -5.270104,-5.2701 z m 113.765042,34.99487 c -0.24596,0 -0.48965,0.019 -0.72882,0.0554 -2.64298,0.21521 -4.87802,2.57291 -4.87802,5.25167 v 10.5402 c 0,2.81042 2.45969,5.2701 5.2701,5.2701 h 31.61601 c 0.24578,0 0.48983,-0.0215 0.72882,-0.0576 2.64336,-0.21475 4.87801,-2.57258 4.87801,-5.25164 v -10.5379 c 0,-2.81042 -2.45968,-5.27011 -5.2701,-5.27011 z m 56.20905,0 c -2.81042,0 -5.27011,2.45969 -5.27011,5.27011 v 10.5379 c 0,2.81041 2.45969,5.2701 5.27011,5.2701 h 31.616 c 2.81043,0 5.27011,-2.45969 5.27011,-5.2701 v -10.5379 c 0,-2.81042 -2.45968,-5.27011 -5.27011,-5.27011 z m 56.20674,0 c -2.81042,0 -5.27011,2.45969 -5.27011,5.27011 v 10.5379 c 0,2.81041 2.45969,5.2701 5.27011,5.2701 h 31.61832 c 2.8104,0 5.27009,-2.45969 5.27009,-5.2701 v -10.5379 c 0,-2.81042 -2.45969,-5.27011 -5.27009,-5.27011 z m -168.961585,0.0392 c -2.81042,0 -5.26779,2.45737 -5.26779,5.2678 v 10.5402 c 0,2.81042 2.45737,5.27011 5.26779,5.27011 h 31.618325 c 2.81042,0 5.27009,-2.45969 5.27009,-5.27011 v -10.5402 c 0,-2.81043 -2.45967,-5.2678 -5.27009,-5.2678 z m -57.219247,0.0969 c -2.810414,0 -5.2677958,2.45969 -5.2677958,5.27011 v 10.5379 c 0,2.81042 2.4573818,5.2701 5.2677958,5.2701 H 44.92495 c 2.810416,0 5.270104,-2.45968 5.270104,-5.2701 v -10.5379 c 0,-2.81042 -2.459688,-5.27011 -5.270104,-5.27011 z m 113.765042,34.99488 c -0.24459,0 -0.48633,0.0197 -0.72421,0.0554 -2.64472,0.21313 -4.88263,2.57153 -4.88263,5.25165 v 10.53791 c 0,2.8104 2.45969,5.27011 5.2701,5.27011 h 31.61601 c 0.2444,0 0.4865,-0.0197 0.7242,-0.0554 2.64512,-0.2127 4.88263,-2.57125 4.88263,-5.25166 v -10.5379 c 0,-2.81042 -2.45968,-5.2701 -5.2701,-5.2701 z m 56.20905,0 c -2.81042,0 -5.27011,2.45969 -5.27011,5.2701 v 10.5379 c 0,2.81041 2.45969,5.27011 5.27011,5.27011 h 31.616 c 2.81043,0 5.27011,-2.4597 5.27011,-5.27011 v -10.5379 c 0,-2.81041 -2.45968,-5.2701 -5.27011,-5.2701 z m 56.20674,0 c -2.81042,0 -5.27011,2.45969 -5.27011,5.2701 v 10.5379 c 0,2.81041 2.45969,5.27011 5.27011,5.27011 h 31.61832 c 2.8104,0 5.27009,-2.4597 5.27009,-5.27011 v -10.5379 c 0,-2.81041 -2.45969,-5.2701 -5.27009,-5.2701 z m -168.961585,0.0369 c -2.81042,0 -5.26779,2.45967 -5.26779,5.2701 v 10.5402 c 0,2.81042 2.45737,5.26781 5.26779,5.26781 h 31.618325 c 2.81042,0 5.27009,-2.45739 5.27009,-5.26781 v -10.5402 c 0,-2.81043 -2.45967,-5.2701 -5.27009,-5.2701 z m -57.219247,0.0991 c -2.810414,0 -5.2677958,2.45739 -5.2677958,5.26779 v 10.54021 c 0,2.81042 2.4573818,5.2678 5.2677958,5.2678 H 44.92495 c 2.810416,0 5.270104,-2.45738 5.270104,-5.2678 v -10.54014 c 0,-2.8104 -2.459688,-5.26779 -5.270104,-5.26779 z m 113.765042,34.99256 c -0.24459,0 -0.48633,0.0197 -0.72421,0.0554 -2.64472,0.21315 -4.88263,2.57385 -4.88263,5.25397 v 10.5379 c 0,2.8104 2.45969,5.2701 5.2701,5.2701 h 31.61601 c 0.24718,0 0.49312,-0.021 0.73343,-0.0576 2.6416,-0.21682 4.8734,-2.57166 4.8734,-5.24934 V 210.1653 c 0,-2.81041 -2.45968,-5.2701 -5.2701,-5.2701 z m 56.20905,0 c -2.81042,0 -5.27011,2.45969 -5.27011,5.2701 v 10.54022 c 0,2.81041 2.45969,5.26778 5.27011,5.26778 h 31.616 c 2.81043,0 5.27011,-2.45737 5.27011,-5.26778 v -10.54022 c 0,-2.81041 -2.45968,-5.2701 -5.27011,-5.2701 z m 56.20674,0 c -2.81042,0 -5.27011,2.45969 -5.27011,5.2701 v 10.54022 c 0,2.81041 2.45969,5.26778 5.27011,5.26778 h 31.61832 c 2.8104,0 5.27009,-2.45737 5.27009,-5.26778 v -10.54022 c 0,-2.81041 -2.45969,-5.2701 -5.27009,-5.2701 z m -168.961585,0.0392 c -2.81042,0 -5.26779,2.45968 -5.26779,5.2701 v 10.53791 c 0,2.81039 2.45737,5.27009 5.26779,5.27009 h 31.618325 c 2.81042,0 5.27009,-2.4597 5.27009,-5.27009 v -10.53791 c 0,-2.81042 -2.45967,-5.2701 -5.27009,-5.2701 z m 56.545795,35.09172 c -0.24596,0 -0.48965,0.019 -0.72882,0.0554 -2.64298,0.21522 -4.87802,2.5729 -4.87802,5.25165 v 10.54021 c 0,2.81041 2.45969,5.2701 5.2701,5.2701 h 31.61601 c 0.24578,0 0.48983,-0.0194 0.72882,-0.0554 2.64336,-0.21475 4.87801,-2.57491 4.87801,-5.25397 v -10.5379 c 0,-2.8104 -2.45968,-5.2701 -5.2701,-5.2701 z m 56.20905,0 c -2.81042,0 -5.27011,2.45971 -5.27011,5.2701 v 10.5379 c 0,2.81042 2.45969,5.27011 5.27011,5.27011 h 31.616 c 2.81043,0 5.27011,-2.45969 5.27011,-5.27011 v -10.5379 c 0,-2.81039 -2.45968,-5.2701 -5.27011,-5.2701 z m 56.20674,0 c -2.81042,0 -5.27011,2.45971 -5.27011,5.2701 v 10.5379 c 0,2.81042 2.45969,5.27011 5.27011,5.27011 h 31.61832 c 2.8104,0 5.27009,-2.45969 5.27009,-5.27011 v -10.5379 c 0,-2.81039 -2.45969,-5.2701 -5.27009,-5.2701 z m -168.961585,0.0392 c -2.81042,0 -5.26779,2.45737 -5.26779,5.26778 v 10.54022 c 0,2.8104 2.45737,5.27009 5.26779,5.27009 h 31.618325 c 2.81042,0 5.27009,-2.45969 5.27009,-5.27009 v -10.54022 c 0,-2.81041 -2.45967,-5.26778 -5.27009,-5.26778 z" /></svg>
