<?xml version="1.0" encoding="UTF-8" standalone="no"?>
<!-- Generator: Adobe Illustrator 15.1.0, SVG Export Plug-In . SVG Version: 6.00 Build 0)  -->

<svg
   version="1.1"
   id="Layer_3"
   x="0px"
   y="0px"
   width="283.46px"
   height="283.46px"
   viewBox="0 0 283.46 283.46"
   enable-background="new 0 0 283.46 283.46"
   xml:space="preserve"
   sodipodi:docname="table.svg"
   inkscape:version="1.2.2 (b0a8486541, 2022-12-01)"
   xmlns:inkscape="http://www.inkscape.org/namespaces/inkscape"
   xmlns:sodipodi="http://sodipodi.sourceforge.net/DTD/sodipodi-0.dtd"
   xmlns="http://www.w3.org/2000/svg"
   xmlns:svg="http://www.w3.org/2000/svg"><defs
   id="defs886" /><sodipodi:namedview
   id="namedview884"
   pagecolor="#ffffff"
   bordercolor="#000000"
   borderopacity="0.25"
   inkscape:showpageshadow="2"
   inkscape:pageopacity="0.0"
   inkscape:pagecheckerboard="0"
   inkscape:deskcolor="#d1d1d1"
   showgrid="false"
   inkscape:zoom="1.4816906"
   inkscape:cx="179.18721"
   inkscape:cy="197.40964"
   inkscape:window-width="1920"
   inkscape:window-height="1052"
   inkscape:window-x="1920"
   inkscape:window-y="0"
   inkscape:window-maximized="1"
   inkscape:current-layer="Layer_3" />

<g
   id="g864"
   transform="matrix(4.4608971,0,0,4.4608971,62.25311,25.722307)"><path
     id="path74"
     d="m -5.0419434,2.0000195 c 5.416e-4,0.00325 9.828e-4,0.00652 0.00152,0.00978 h -5.8268936 c -0.799998,0 -1.499952,0.6999536 -1.499952,1.4999512 v 5.0000488 c 0,0.7999976 0.699954,1.4999515 1.499952,1.4999515 h 7.7956826 c 2.42e-5,-0.0033 -2.43e-5,-0.0065 0,-0.00978 h 40.6219524 2.778242 6.171446 c 0.799997,0 1.499951,-0.6999536 1.499951,-1.4999512 V 3.4999707 c 0,-0.7999976 -0.699953,-1.4999512 -1.499951,-1.4999512 h -4.149717 -3.91333 z M 5.4999902,14.00001 c -0.070015,0 -0.1392339,0.0055 -0.2073144,0.01587 -0.7523369,0.06126 -1.3883594,0.732477 -1.3883594,1.495 v 3.000029 c 0,0.799999 0.699952,1.500078 1.4999512,1.500078 h 8.9999614 c 0.06996,0 0.139154,-0.0057 0.207187,-0.016 0.752447,-0.06113 1.388613,-0.732392 1.388613,-1.495 v -3.000029 c 0,-0.799999 -0.700079,-1.499951 -1.500078,-1.499951 z m 16.0000298,0 c -0.8,0 -1.500079,0.699952 -1.500079,1.499951 v 3.000029 c 0,0.799999 0.700079,1.499951 1.500079,1.499951 h 8.99996 c 0.8,0 1.500079,-0.699952 1.500079,-1.499951 v -3.000029 c 0,-0.799999 -0.700079,-1.499951 -1.500079,-1.499951 z m 16.000029,0 c -0.799999,0 -1.500078,0.699952 -1.500078,1.499951 v 3.000029 c 0,0.799999 0.700079,1.499951 1.500078,1.499951 h 8.999961 c 0.799999,0 1.499951,-0.699952 1.499951,-1.499951 v -3.000029 c 0,-0.799999 -0.699952,-1.499951 -1.499951,-1.499951 z m -48.095811,0.01092 c -0.799999,0 -1.499951,0.699951 -1.499951,1.499951 v 3.000029 c 0,0.799999 0.699952,1.500078 1.499951,1.500078 h 9.0000882 c 0.79999917,0 1.49995114,-0.700079 1.49995114,-1.500078 v -3.000029 c 0,-0.8 -0.69995197,-1.499951 -1.49995114,-1.499951 z m 16.0957522,9.98905 c -0.069626,0 -0.1384564,0.0057 -0.2061718,0.01587 -0.7528344,0.06067 -1.389502,0.732219 -1.389502,1.495127 v 2.999902 c 0,0.799999 0.699952,1.500078 1.4999512,1.500078 h 8.9999614 c 0.06957,0 0.138378,-0.0057 0.206044,-0.01587 0.752945,-0.06054 1.389756,-0.732135 1.389756,-1.495127 v -2.999902 c 0,-0.8 -0.700079,-1.500079 -1.500078,-1.500079 z m 16.0000298,0 c -0.8,0 -1.500079,0.700079 -1.500079,1.500079 v 2.999902 c 0,0.799999 0.700079,1.500078 1.500079,1.500078 h 8.99996 c 0.8,0 1.500079,-0.700079 1.500079,-1.500078 v -2.999902 c 0,-0.8 -0.700079,-1.500079 -1.500079,-1.500079 z m 16.000029,0 c -0.799999,0 -1.500078,0.700079 -1.500078,1.500079 v 2.999902 c 0,0.799999 0.700079,1.500078 1.500078,1.500078 h 8.999961 c 0.799999,0 1.499951,-0.700079 1.499951,-1.500078 v -2.999902 c 0,-0.8 -0.699952,-1.500079 -1.499951,-1.500079 z m -48.095811,0.01092 c -0.799999,0 -1.499951,0.700079 -1.499951,1.500079 v 2.999902 c 0,0.799999 0.699952,1.500078 1.499951,1.500078 h 9.0000882 c 0.79999917,0 1.49995114,-0.700079 1.49995114,-1.500078 v -2.999902 c 0,-0.8 -0.69995197,-1.500079 -1.49995114,-1.500079 z m 16.0957522,9.989053 c -0.069626,0 -0.1384564,0.0057 -0.2061718,0.01587 -0.7528344,0.06067 -1.389502,0.73222 -1.389502,1.495127 v 3.00003 c 0,0.799999 0.699952,1.499951 1.4999512,1.499951 h 8.9999614 c 0.07036,0 0.139926,-0.0057 0.20833,-0.01612 0.751944,-0.06172 1.38747,-0.732528 1.38747,-1.494746 v -3.00003 c 0,-0.799999 -0.700079,-1.500078 -1.500078,-1.500078 z m 16.0000298,0 c -0.8,0 -1.500079,0.700079 -1.500079,1.500078 v 3.00003 c 0,0.799999 0.700079,1.499951 1.500079,1.499951 h 8.99996 c 0.8,0 1.500079,-0.699952 1.500079,-1.499951 v -3.00003 c 0,-0.799999 -0.700079,-1.500078 -1.500079,-1.500078 z m 16.000029,0 c -0.799999,0 -1.500078,0.700079 -1.500078,1.500078 v 3.00003 c 0,0.799999 0.700079,1.499951 1.500078,1.499951 h 8.999961 c 0.799999,0 1.499951,-0.699952 1.499951,-1.499951 v -3.00003 c 0,-0.799999 -0.699952,-1.500078 -1.499951,-1.500078 z m -48.095811,0.01092 c -0.799999,0 -1.499951,0.700079 -1.499951,1.500078 v 3.00003 c 0,0.799999 0.699952,1.499951 1.499951,1.499951 h 9.0000882 c 0.79999917,0 1.49995114,-0.699952 1.49995114,-1.499951 v -3.00003 c 0,-0.799999 -0.69995197,-1.500078 -1.49995114,-1.500078 z m 16.0957522,9.98918 c -0.070015,0 -0.1392339,0.0055 -0.2073144,0.01587 -0.7523369,0.06126 -1.3883594,0.732478 -1.3883594,1.495 v 3.000029 c 0,0.799999 0.699952,1.499951 1.4999512,1.499951 h 8.9999614 c 0.06996,0 0.139154,-0.0056 0.207187,-0.01587 0.752447,-0.06113 1.388613,-0.732392 1.388613,-1.495 V 45.5 c 0,-0.799999 -0.700079,-1.499951 -1.500078,-1.499951 z m 16.0000298,0 c -0.8,0 -1.500079,0.699952 -1.500079,1.499951 v 3.000029 c 0,0.799999 0.700079,1.499951 1.500079,1.499951 h 8.99996 c 0.8,0 1.500079,-0.699952 1.500079,-1.499951 V 45.5 c 0,-0.799999 -0.700079,-1.499951 -1.500079,-1.499951 z m 16.000029,0 c -0.799999,0 -1.500078,0.699952 -1.500078,1.499951 v 3.000029 c 0,0.799999 0.700079,1.499951 1.500078,1.499951 h 8.999961 c 0.799999,0 1.499951,-0.699952 1.499951,-1.499951 V 45.5 c 0,-0.799999 -0.699952,-1.499951 -1.499951,-1.499951 z m -48.095811,0.01092 c -0.799999,0 -1.499951,0.699952 -1.499951,1.499951 v 3.000029 c 0,0.799999 0.699952,1.499951 1.499951,1.499951 h 9.0000882 c 0.79999917,0 1.49995114,-0.699952 1.49995114,-1.499951 v -3.000029 c 0,-0.799999 -0.69995197,-1.499951 -1.49995114,-1.499951 z" /></g></svg>
