<?xml version="1.0" encoding="utf-8"?>
<!-- Generator: Adobe Illustrator 15.1.0, SVG Export Plug-In . SVG Version: 6.00 Build 0)  -->
<!DOCTYPE svg PUBLIC "-//W3C//DTD SVG 1.1//EN" "http://www.w3.org/Graphics/SVG/1.1/DTD/svg11.dtd">
<svg version="1.1" id="Layer_1" xmlns="http://www.w3.org/2000/svg" xmlns:xlink="http://www.w3.org/1999/xlink" x="0px" y="0px"
	 width="283.465px" height="283.465px" viewBox="0 0 283.465 283.465" enable-background="new 0 0 283.465 283.465"
	 xml:space="preserve">
<path d="M141.733,60.967c-35.908,0-58.348,17.947-67.326,53.84c13.467-17.947,29.176-24.676,47.127-20.189
	c10.244,2.559,17.564,9.99,25.67,18.213c13.199,13.396,28.479,28.9,61.854,28.9c35.902,0,58.348-17.949,67.32-53.846
	c-13.463,17.949-29.172,24.68-47.127,20.193c-10.24-2.559-17.561-9.99-25.666-18.213C190.386,76.469,175.104,60.967,141.733,60.967
	L141.733,60.967z M74.407,141.73c-35.902,0-58.346,17.947-67.32,53.846c13.463-17.949,29.172-24.68,47.125-20.191
	c10.24,2.563,17.563,9.99,25.668,18.211c13.199,13.396,28.48,28.902,61.854,28.902c35.906,0,58.346-17.949,67.324-53.846
	c-13.467,17.949-29.176,24.68-47.127,20.191c-10.244-2.557-17.564-9.99-25.67-18.211C123.06,157.236,107.782,141.73,74.407,141.73
	L74.407,141.73z"/>
</svg>
