<?xml version="1.0" encoding="UTF-8" standalone="no"?>
<svg
   version="1.1"
   id="Layer_3"
   x="0px"
   y="0px"
   width="283.46px"
   height="283.46px"
   viewBox="0 0 283.46 283.46"
   enable-background="new 0 0 283.46 283.46"
   xml:space="preserve"
   sodipodi:docname="telescope.svg"
   inkscape:version="1.2.2 (b0a8486541, 2022-12-01)"
   xmlns:inkscape="http://www.inkscape.org/namespaces/inkscape"
   xmlns:sodipodi="http://sodipodi.sourceforge.net/DTD/sodipodi-0.dtd"
   xmlns="http://www.w3.org/2000/svg"
   xmlns:svg="http://www.w3.org/2000/svg"><defs
   id="defs15" /><sodipodi:namedview
   id="namedview13"
   pagecolor="#ffffff"
   bordercolor="#000000"
   borderopacity="0.25"
   inkscape:showpageshadow="2"
   inkscape:pageopacity="0.0"
   inkscape:pagecheckerboard="0"
   inkscape:deskcolor="#d1d1d1"
   showgrid="false"
   inkscape:zoom="0.52385673"
   inkscape:cx="-115.48959"
   inkscape:cy="219.52567"
   inkscape:window-width="1920"
   inkscape:window-height="1015"
   inkscape:window-x="0"
   inkscape:window-y="0"
   inkscape:window-maximized="1"
   inkscape:current-layer="Layer_3" />

<style
   type="text/css"
   id="style233">
	.st0{fill:#000000;}
</style><path
   id="polygon235"
   class="st0"
   d="M 77.451715 0.022768594 C 75.624467 -0.086731297 73.771538 0.17280308 72.011539 0.80630244 C 68.500543 2.0733012 65.663346 4.7334715 64.161347 8.1514681 L 29.826968 86.456578 C 28.32497 89.874575 28.295561 93.769677 29.741559 97.210673 C 31.188558 100.65167 33.988066 103.34996 37.484062 104.67096 L 117.71273 134.99854 L 159.40713 39.927293 L 82.750781 1.4487259 C 81.080782 0.61222677 79.278963 0.13226848 77.451715 0.022768594 z M 329.87216 40.959627 L 312.28535 81.049823 L 344.59962 95.220275 L 346.57145 90.715883 L 416.64018 121.45566 L 414.66092 125.96005 L 446.9789 140.1305 L 464.562 100.03288 L 432.24401 85.869856 L 430.26475 90.374248 L 360.20346 59.638183 L 362.18272 55.133792 L 329.87216 40.959627 z M 171.81741 55.349171 L 137.01514 134.72004 L 404.23732 246.29377 L 433.99675 178.43825 L 171.81741 55.349171 z M 369.10455 108.26927 L 351.88166 130.5907 L 372.88111 140.27904 L 388.08018 116.59849 L 369.10455 108.26927 z M 448.29346 180.32468 L 414.63864 257.06272 L 441.51273 268.84172 C 448.40273 271.86972 456.43232 268.7329 459.45232 261.8419 L 482.1748 210.05069 C 485.1948 203.16069 482.05855 195.12967 475.16756 192.10368 L 448.29346 180.32468 z M 251.4445 200.7374 C 240.02552 200.7374 230.77926 209.99851 230.77926 221.4175 C 230.77926 232.83549 240.02552 242.07903 251.4445 242.07903 C 262.86349 242.07903 272.10603 232.83549 272.10603 221.4175 C 272.10603 209.99851 262.86349 200.7374 251.4445 200.7374 z M 193.33303 255.64047 L 193.33303 280.30137 L 231.16546 280.30137 L 133.36855 476.86067 C 130.74056 481.95967 132.7511 488.24016 137.85809 490.87516 C 142.97309 493.50316 149.25672 491.48576 151.88372 486.37077 L 238.18013 315.84632 L 241.04319 501.58841 C 241.04319 507.3364 245.70351 512.00087 251.4445 512.00087 C 257.1855 512.00087 261.84582 507.3364 261.84582 501.58841 L 264.70888 315.84632 L 351.00529 486.37077 C 353.63329 491.48476 359.91592 493.50216 365.03092 490.87516 C 370.13791 488.23916 372.14845 481.95967 369.52046 476.86067 L 271.72355 280.30137 L 309.55598 280.30137 L 309.55598 255.64047 L 251.4445 255.64047 L 193.33303 255.64047 z "
   transform="matrix(0.52596244,0,0,0.52596244,7.0836194,7.0837277)" /></svg>
