<?xml version="1.0" encoding="UTF-8" standalone="no"?>
<!-- Generator: Adobe Illustrator 15.1.0, SVG Export Plug-In . SVG Version: 6.00 Build 0)  -->

<svg
   version="1.1"
   id="Layer_3"
   x="0px"
   y="0px"
   width="283.46px"
   height="283.46px"
   viewBox="0 0 283.46 283.46"
   enable-background="new 0 0 283.46 283.46"
   xml:space="preserve"
   sodipodi:docname="tent.svg"
   inkscape:version="1.2.2 (b0a8486541, 2022-12-01)"
   xmlns:inkscape="http://www.inkscape.org/namespaces/inkscape"
   xmlns:sodipodi="http://sodipodi.sourceforge.net/DTD/sodipodi-0.dtd"
   xmlns="http://www.w3.org/2000/svg"
   xmlns:svg="http://www.w3.org/2000/svg"><defs
   id="defs15" /><sodipodi:namedview
   id="namedview13"
   pagecolor="#ffffff"
   bordercolor="#000000"
   borderopacity="0.25"
   inkscape:showpageshadow="2"
   inkscape:pageopacity="0.0"
   inkscape:pagecheckerboard="0"
   inkscape:deskcolor="#d1d1d1"
   showgrid="false"
   inkscape:zoom="2.0954269"
   inkscape:cx="235.51287"
   inkscape:cy="83.037971"
   inkscape:window-width="1920"
   inkscape:window-height="1015"
   inkscape:window-x="0"
   inkscape:window-y="0"
   inkscape:window-maximized="1"
   inkscape:current-layer="Layer_3" />

<style
   type="text/css"
   id="style244">
	.st0{fill:#000000;}
</style><path
   id="path1416"
   style="fill:#000000"
   d="M 37.511124 43.984456 C 36.643491 43.982456 36.028475 44.072796 35.739725 44.290297 C 34.419741 45.280289 31.229867 56.660344 23.499923 72.240216 C 18.287454 82.746086 13.328366 92.974891 9.984608 99.893135 L 10.763352 111.09874 C 13.106378 112.14626 16.488683 113.52575 21.689631 115.39995 C 29.387585 118.17395 36.227333 120.07706 41.131708 121.30815 L 40.489974 111.47264 A 0.97209724 0.97209724 0 0 1 40.833823 110.66561 C 40.833823 110.66561 42.234224 109.48821 44.32005 109.48821 C 46.375913 109.48821 47.89025 110.52153 47.89025 110.52153 A 0.97209724 0.97209724 0 0 1 48.322493 111.32414 L 48.379064 119.62514 C 48.70567 118.96331 48.975347 118.40139 49.39647 117.57442 C 50.837634 114.74434 52.775188 111.05063 54.800828 107.23065 C 58.852107 99.590751 63.254717 91.441004 64.728265 88.693721 C 66.007612 86.305919 70.166093 77.403169 74.187217 68.773436 C 76.197777 64.458573 78.180534 60.202947 79.763942 56.839475 C 81.347356 53.475996 82.513096 51.037815 82.964659 50.234737 C 83.44948 49.372507 84.11225 48.789746 84.835058 48.430633 C 81.7871 48.217296 65.333205 47.061589 57.109657 46.359581 C 49.780971 45.733956 41.27088 43.993248 37.511124 43.984456 z M 86.830092 48.980438 C 85.728251 48.951928 84.583887 49.394744 83.836216 50.724435 C 83.452783 51.406349 82.250084 53.905307 80.668204 57.26553 C 79.086331 60.625746 77.104786 64.880005 75.094131 69.195072 C 71.072822 77.825201 66.951939 86.663579 65.611312 89.16574 C 64.134879 91.918413 59.732534 100.06412 55.683876 107.69914 C 53.659549 111.51658 51.723781 115.20653 50.287473 118.02699 C 49.569317 119.43726 48.975401 120.63062 48.56027 121.50968 C 48.48883 121.66095 48.455426 121.74448 48.394975 121.87652 L 48.401163 122.79138 C 48.442233 122.79738 48.455534 122.80563 48.505466 122.81083 C 49.132841 122.87833 50.081993 122.905 51.226208 122.8948 C 52.729871 122.8814 54.613959 122.7956 56.580182 122.68796 C 56.584282 122.66576 56.585206 122.63725 56.589906 122.61725 C 56.657096 122.33109 56.764264 122.12951 56.886907 121.91629 C 57.13219 121.48984 57.470112 121.0398 57.90608 120.49581 C 58.778009 119.40786 60.032402 117.98106 61.492191 116.25206 C 64.411776 112.79406 68.137244 108.14434 71.02893 102.91972 L 71.027162 102.91972 C 76.902349 92.286696 80.37921 84.832688 81.156135 82.167653 A 1.0761076 1.0761076 0 0 1 81.157903 82.165885 C 81.565243 80.784669 82.224733 77.816997 82.853284 75.051119 C 83.167557 73.668182 83.476868 72.327296 83.75401 71.228115 C 84.031147 70.128926 84.230701 69.341063 84.503584 68.755758 C 84.976097 67.742255 85.944013 67.038475 86.952959 67.152306 C 87.961908 67.266137 88.710793 68.075362 89.017823 69.060714 A 1.0761076 1.0761076 0 0 0 89.017823 69.061598 A 1.0761076 1.0761076 0 0 0 89.017823 69.062482 C 89.286461 69.930854 90.478965 74.407699 91.853476 79.351447 C 93.227985 84.29519 94.770294 89.635811 95.49439 91.524954 C 96.187605 93.333529 98.164191 96.49771 100.18542 99.443214 C 102.20657 102.38875 104.2731 105.16418 105.24769 106.53677 C 105.97913 107.5669 108.86486 110.1518 111.47676 112.35746 C 112.78271 113.46026 114.03836 114.50392 114.99039 115.3257 C 115.46641 115.73659 115.86447 116.08993 116.16955 116.38288 C 116.32209 116.52936 116.45065 116.65955 116.56644 116.79302 C 116.65394 116.89382 116.74936 116.92934 116.84399 117.15544 L 117.59799 117.02727 L 117.83842 110.69478 C 114.52457 103.82352 108.99419 92.435312 105.26537 85.2402 C 102.48293 79.871243 98.710076 71.524579 95.513837 64.304278 C 93.91572 60.694125 92.462228 57.366607 91.353171 54.838253 C 90.244107 52.309906 89.445793 50.524286 89.269744 50.197612 C 88.941547 49.588623 87.931928 49.00895 86.830092 48.980438 z M 81.899521 86.253185 C 80.241419 90.149799 77.251251 96.108666 72.912588 103.96099 C 69.904299 109.3963 66.087579 114.14622 63.137188 117.64072 C 61.661989 119.38793 60.400746 120.82595 59.586434 121.84204 C 59.365968 122.11713 59.281501 122.25784 59.134745 122.46256 C 59.219015 122.47546 59.256997 122.48996 59.351308 122.50146 C 59.403708 122.50746 59.479955 122.51048 59.535166 122.51648 C 59.586986 122.51348 59.635377 122.51164 59.687202 122.50764 C 65.704096 122.10886 71.433813 121.56619 71.742262 121.53709 L 78.029668 103.02314 L 81.899521 86.253185 z M 92.241522 88.485113 L 94.173797 97.021241 L 110.61139 118.21704 L 114.17098 117.61066 C 114.20018 117.59716 114.2409 117.58153 114.2691 117.56823 C 114.0552 117.37451 113.87354 117.20465 113.58405 116.95478 C 112.6586 116.15594 111.40215 115.11124 110.0881 114.00157 C 107.46002 111.78224 104.67075 109.44296 103.4922 107.78311 C 102.55682 106.46571 100.46357 103.6516 98.412249 100.66216 C 96.360932 97.672688 94.351113 94.556273 93.48433 92.294858 C 93.159754 91.448046 92.719062 90.058142 92.241522 88.485113 z M 92.043521 92.14017 C 92.718161 96.293652 93.494226 101.15664 94.359422 106.48815 C 94.914086 109.90607 95.444793 113.11036 95.86741 115.50602 C 96.078714 116.70385 96.263145 117.70086 96.408376 118.41239 C 96.480666 118.76656 96.544274 119.04878 96.592234 119.24063 C 96.748912 119.30003 96.997545 119.37511 97.322361 119.4457 C 98.010129 119.59518 98.973961 119.72923 100.01393 119.82403 C 102.09389 120.01369 104.5286 120.04775 105.83993 119.90004 C 107.09071 119.75618 108.57346 119.43189 109.99264 119.04882 L 93.314615 97.54718 A 0.50005001 0.50005001 0 0 1 93.222686 97.34918 L 92.043521 92.14017 z M 80.882116 95.108413 L 78.998458 103.27152 A 0.50005001 0.50005001 0 0 1 78.984315 103.32014 L 72.583765 122.16998 A 0.50005001 0.50005001 0 0 1 72.543988 122.22567 C 73.446006 122.1026 74.351878 121.95776 75.178105 121.78105 C 76.203057 121.56185 77.114707 121.30164 77.713221 121.05446 C 77.993472 120.93872 78.182293 120.82669 78.283357 120.75569 C 78.424129 119.81331 78.670905 116.68289 78.945422 112.9824 C 79.226698 109.19079 79.552135 104.8311 79.900068 101.50808 A 1.0761076 1.0761076 0 0 1 79.900068 101.50543 C 80.05404 100.05589 80.427934 97.731553 80.882116 95.108413 z M 6.2800503 98.500943 C 5.3407723 98.500943 4.7749349 98.782434 4.4264456 98.995944 L 5.1998858 110.85566 C 5.7163077 110.99126 6.4412663 111.20834 6.9695171 111.20834 C 7.020439 111.20834 7.0825757 111.20133 7.1489552 111.19243 C 7.2417151 111.20143 7.3384916 111.20746 7.4397687 111.20746 C 8.0947826 111.20746 8.5195324 110.85145 8.7851127 110.66826 L 8.3838077 104.89354 L 8.3431469 98.998596 C 7.9376556 98.791446 7.2675325 98.500943 6.2800503 98.500943 z M 121.36795 105.66521 C 121.31445 105.66533 121.26236 105.66763 121.21238 105.66963 C 121.0359 105.67904 120.88044 105.70309 120.7439 105.73769 C 120.1768 105.83561 119.75592 106.02128 119.47015 106.16728 L 119.38883 117.95628 C 119.44639 117.98306 119.47359 117.99711 119.50551 118.01285 L 119.50021 118.14632 C 119.86565 118.305 120.37839 118.58829 121.26984 118.58829 C 121.81309 118.58829 122.13344 118.43877 122.33409 118.30897 C 122.39449 118.26997 122.36839 118.28083 122.40039 118.25593 L 122.41099 118.07826 C 122.47861 118.06009 122.55115 118.04069 122.61341 118.02434 L 123.38685 106.16375 C 123.03836 105.95024 122.47253 105.66963 121.53325 105.66963 C 121.47625 105.66663 121.42142 105.66421 121.36795 105.66521 z M 44.32005 111.43198 C 43.380772 111.43198 42.814935 111.71259 42.466445 111.9261 L 43.239885 123.78669 C 43.756308 123.9223 44.481265 124.1385 45.009517 124.1385 C 45.286512 124.1385 45.827569 123.99194 46.247905 123.82028 C 46.374892 123.76838 46.364848 123.76498 46.464468 123.71863 L 46.383147 111.92963 C 45.977655 111.72246 45.307532 111.43198 44.32005 111.43198 z "
   transform="matrix(2.2095882,0,0,2.2095882,-0.04624702,-46.158239)" /></svg>
