<?xml version="1.0" encoding="UTF-8" standalone="no"?>
<!-- Generator: Adobe Illustrator 15.1.0, SVG Export Plug-In . SVG Version: 6.00 Build 0)  -->

<svg
   version="1.1"
   id="Layer_1"
   x="0px"
   y="0px"
   width="283.464px"
   height="283.464px"
   viewBox="0 0 283.464 283.464"
   enable-background="new 0 0 283.464 283.464"
   xml:space="preserve"
   sodipodi:docname="tiles-alt.svg"
   inkscape:version="1.2.2 (b0a8486541, 2022-12-01)"
   xmlns:inkscape="http://www.inkscape.org/namespaces/inkscape"
   xmlns:sodipodi="http://sodipodi.sourceforge.net/DTD/sodipodi-0.dtd"
   xmlns="http://www.w3.org/2000/svg"
   xmlns:svg="http://www.w3.org/2000/svg"><defs
   id="defs447" /><sodipodi:namedview
   id="namedview445"
   pagecolor="#ffffff"
   bordercolor="#000000"
   borderopacity="0.25"
   inkscape:showpageshadow="2"
   inkscape:pageopacity="0.0"
   inkscape:pagecheckerboard="0"
   inkscape:deskcolor="#d1d1d1"
   showgrid="false"
   inkscape:zoom="1.4816697"
   inkscape:cx="47.581455"
   inkscape:cy="226.09628"
   inkscape:window-width="1920"
   inkscape:window-height="1015"
   inkscape:window-x="0"
   inkscape:window-y="0"
   inkscape:window-maximized="1"
   inkscape:current-layer="Layer_1" />

<path
   d="m 186.688,135.438 64,45.714 c 1.591,1.134 3.447,1.71 5.312,1.71 1.865,0 3.721,-0.576 5.312,-1.71 l 64,-45.714 c 2.405,-1.71 3.831,-4.48 3.831,-7.433 0,-2.962 -1.426,-5.723 -3.831,-7.442 l -64,-45.714 c -3.182,-2.267 -7.442,-2.267 -10.624,0 l -64,45.714 c -2.405,1.719 -3.831,4.48 -3.831,7.442 0,2.953 1.426,5.723 3.831,7.433 z"
   id="path900"
   style="fill:#000000"
   transform="matrix(0.52595991,0,0,0.52595991,7.0859947,7.0857975)" /><path
   style="color:#000000;fill:#000000;-inkscape-stroke:none;paint-order:fill markers stroke"
   d="m 347.42969,133.99023 c -2.50898,0 -5.0183,0.76393 -7.15235,2.29102 l -63.99804,45.71289 c -3.2347,2.30274 -5.1543,6.03732 -5.1543,10.00586 0,3.97089 1.92198,7.70736 5.16016,10.00977 l 63.99609,45.71093 v 0.002 c 2.12534,1.51485 4.63242,2.29687 7.14844,2.29687 2.51601,0 5.02115,-0.78202 7.14648,-2.29687 l 0.002,-0.002 63.99415,-45.71093 0.006,-0.004 c 3.2347,-2.30274 5.15626,-6.03732 5.15625,-10.00586 10e-6,-3.96854 -1.92155,-7.70312 -5.15625,-10.00586 l -0.006,-0.004 -63.99219,-45.70898 c -2.13404,-1.52709 -4.64142,-2.29102 -7.15039,-2.29102 z m 0,6.3086 c 1.21202,0 2.42275,0.37509 3.4707,1.125 l 0.002,0.002 64.00391,45.7168 0.002,0.002 c 1.57182,1.1176 2.50196,2.92037 2.50196,4.85547 0,1.9351 -0.93014,3.73787 -2.50196,4.85547 l -0.002,0.002 -64,45.71485 c -1.05666,0.75314 -2.26258,1.12304 -3.47656,1.12304 -1.21314,0 -2.41848,-0.36901 -3.47461,-1.12109 l -0.002,-0.002 -64.00195,-45.71485 -0.002,-0.002 c -1.57182,-1.1176 -2.50195,-2.92037 -2.50195,-4.85547 0,-1.9351 0.93013,-3.73787 2.50195,-4.85547 l 0.002,-0.002 64.00391,-45.7168 0.002,-0.002 c 1.04796,-0.74991 2.26064,-1.125 3.47266,-1.125 z"
   id="path902"
   transform="matrix(0.52595991,0,0,0.52595991,7.0859947,7.0857975)" /><path
   style="color:#000000;fill:#000000;-inkscape-stroke:none;paint-order:fill markers stroke"
   d="m 164.57031,133.99414 c -2.50628,0 -5.01241,0.75889 -7.14648,2.2793 l -0.002,0.002 -64.001948,45.71484 c -3.226999,2.30654 -5.154297,6.03883 -5.154297,10.01563 0.0013,3.97022 1.923185,7.70531 5.160156,10.00781 l 63.996089,45.71289 h 0.002 c 2.12533,1.51486 4.63047,2.29688 7.14648,2.29688 2.51602,0 5.0231,-0.78202 7.14844,-2.29688 l 63.99609,-45.71094 0.006,-0.004 c 3.2347,-2.30274 5.1543,-6.03732 5.1543,-10.00586 0,-3.9768 -1.9273,-7.70909 -5.1543,-10.01563 l -64.00195,-45.71484 -0.002,-0.002 c -2.13408,-1.52041 -4.64021,-2.2793 -7.14649,-2.2793 z m 0,6.31055 c 1.2133,0 2.42752,0.37234 3.47461,1.11718 l 64,45.71485 c 1.58224,1.13151 2.50781,2.92246 2.50781,4.86914 0,1.9351 -0.93013,3.73787 -2.50195,4.85547 l -0.002,0.002 -64.00391,45.71484 c -1.05631,0.75244 -2.26119,1.1211 -3.47461,1.1211 -1.21398,0 -2.4199,-0.36795 -3.47656,-1.1211 h 0.004 l -64.00391,-45.71484 -0.002,-0.002 c -1.570494,-1.11712 -2.500671,-2.92044 -2.501953,-4.85547 v -0.002 c 6.22e-4,-1.94593 0.926107,-3.73606 2.507812,-4.86719 l 63.996094,-45.71289 0.004,-0.002 c 1.04709,-0.74484 2.25935,-1.11718 3.47265,-1.11718 z"
   id="path904"
   transform="matrix(0.52595991,0,0,0.52595991,7.0859947,7.0857975)" /><path
   d="m 261.313,202.848 c -3.182,-2.267 -7.442,-2.267 -10.624,0 l -64,45.714 c -2.405,1.71 -3.831,4.48 -3.831,7.433 0,2.962 1.426,5.723 3.831,7.442 l 64,45.714 c 1.591,1.134 3.447,1.701 5.312,1.701 1.865,0 3.721,-0.567 5.312,-1.701 l 64,-45.714 c 2.405,-1.719 3.831,-4.48 3.831,-7.442 0,-2.953 -1.426,-5.723 -3.831,-7.433 z"
   id="path906"
   style="fill:#000000"
   transform="matrix(0.52595991,0,0,0.52595991,7.0859947,7.0857975)" /><path
   d="m 325.313,376.563 -64,-45.714 c -3.182,-2.267 -7.442,-2.267 -10.624,0 l -64,45.714 c -2.405,1.71 -3.831,4.48 -3.831,7.433 0,2.962 1.426,5.723 3.831,7.442 l 64,45.714 c 1.591,1.134 3.447,1.701 5.312,1.701 1.865,0 3.721,-0.567 5.312,-1.701 l 64,-45.714 c 2.405,-1.719 3.831,-4.48 3.831,-7.442 0,-2.953 -1.427,-5.724 -3.831,-7.433 z"
   id="path908"
   style="fill:#000000"
   transform="matrix(0.52595991,0,0,0.52595991,7.0859947,7.0857975)" /><path
   d="m 508.17,248.563 -64,-45.714 c -3.182,-2.267 -7.442,-2.267 -10.624,0 l -64,45.714 c -2.405,1.71 -3.831,4.48 -3.831,7.433 0,2.962 1.426,5.723 3.831,7.442 l 64,45.714 c 1.591,1.134 3.447,1.701 5.312,1.701 1.865,0 3.721,-0.567 5.312,-1.701 l 64,-45.714 c 2.405,-1.719 3.831,-4.48 3.831,-7.442 0,-2.953 -1.426,-5.724 -3.831,-7.433 z"
   id="path910"
   style="fill:#000000"
   transform="matrix(0.52595991,0,0,0.52595991,7.0859947,7.0857975)" /><path
   style="color:#000000;fill:#000000;-inkscape-stroke:none;paint-order:fill markers stroke"
   d="m 347.42969,261.99414 c -2.50628,0 -5.01241,0.75889 -7.14649,2.2793 l -0.002,0.002 -64.00195,45.71484 c -3.2347,2.30274 -5.1543,6.03732 -5.1543,10.00586 0,3.97681 1.9273,7.70714 5.1543,10.01368 l 64.00195,45.71679 c 2.13178,1.51945 4.6426,2.28907 7.14844,2.28906 2.50584,0 5.01471,-0.76961 7.14648,-2.28906 h 0.002 l 64.00196,-45.71679 c 3.227,-2.30654 5.1543,-6.03687 5.15429,-10.01368 0,-3.96854 -1.9203,-7.70358 -5.15625,-10.00586 l -64,-45.71484 -0.002,-0.002 c -2.13407,-1.52041 -4.6402,-2.2793 -7.14648,-2.2793 z m 0,6.31055 c 1.2133,0 2.42556,0.37234 3.47265,1.11718 l 64.00391,45.7168 0.004,0.002 c 1.57057,1.11606 2.5,2.92037 2.5,4.85547 0,1.9472 -0.92482,3.73768 -2.50782,4.86914 l -64,45.71289 h 0.004 c -1.05022,0.74856 -2.25241,1.11329 -3.47656,1.11329 -1.22358,0 -2.42474,-0.36544 -3.47461,-1.11329 h -0.002 l -63.99804,-45.71289 c -1.583,-1.13146 -2.50781,-2.92194 -2.50781,-4.86914 0,-1.9351 0.93013,-3.73787 2.50195,-4.85547 l 0.002,-0.002 64,-45.71484 0.004,-0.002 c 1.04709,-0.74484 2.26131,-1.11718 3.47461,-1.11718 z"
   id="path912"
   transform="matrix(0.52595991,0,0,0.52595991,7.0859947,7.0857975)" /><path
   d="m 146.286,256 c 0,-2.953 -1.426,-5.723 -3.831,-7.433 l -64,-45.714 c -3.182,-2.277 -7.442,-2.277 -10.624,0 l -64,45.714 C 1.426,250.277 0,253.047 0,256 c 0,2.953 1.426,5.723 3.831,7.433 l 64,45.714 c 1.591,1.134 3.447,1.71 5.312,1.71 1.865,0 3.721,-0.576 5.312,-1.71 l 64,-45.714 c 2.404,-1.709 3.831,-4.479 3.831,-7.433 z"
   id="path914"
   style="fill:#000000"
   transform="matrix(0.52595991,0,0,0.52595991,7.0859947,7.0857975)" /><path
   style="color:#000000;fill:#000000;-inkscape-stroke:none;paint-order:fill markers stroke"
   d="m 164.57031,261.99023 c -2.50897,0 -5.01635,0.76393 -7.15039,2.29102 l -63.998045,45.71289 c -3.234698,2.30274 -5.15625,6.03732 -5.15625,10.00586 0,3.97089 1.923935,7.70736 5.162109,10.00977 l 63.994136,45.71093 0.002,0.002 c 2.12533,1.51485 4.63047,2.29687 7.14648,2.29687 2.51602,0 5.0231,-0.78202 7.14844,-2.29687 v -0.002 l 63.99609,-45.71093 0.006,-0.004 c 3.23547,-2.30194 5.1543,-6.03666 5.1543,-10.00586 0,-3.96854 -1.9196,-7.70312 -5.1543,-10.00586 l -0.006,-0.004 -63.99218,-45.70898 c -2.13405,-1.52709 -4.64337,-2.29102 -7.15235,-2.29102 z m 0,6.3086 c 1.21202,0 2.4247,0.37509 3.47266,1.125 l 0.002,0.002 64.00391,45.7168 0.002,0.002 c 1.57182,1.1176 2.50195,2.92037 2.50195,4.85547 0,1.93644 -0.9309,3.73908 -2.50195,4.85547 l -0.002,0.002 -64.00196,45.71485 c -1.05666,0.75314 -2.26258,1.12304 -3.47656,1.12304 -1.21257,0 -2.41687,-0.36971 -3.47265,-1.12109 l -0.004,-0.002 -64,-45.71485 -0.002,-0.002 C 95.519976,323.73787 94.589844,321.9351 94.589844,320 c 0,-1.9351 0.930132,-3.73787 2.501953,-4.85547 l 0.002,-0.002 64.00391,-45.7168 0.002,-0.002 c 1.04795,-0.74991 2.25868,-1.125 3.4707,-1.125 z"
   id="path916"
   transform="matrix(0.52595991,0,0,0.52595991,7.0859947,7.0857975)" /></svg>
