<?xml version="1.0" encoding="UTF-8" standalone="no"?>
<!-- Generator: Adobe Illustrator 15.1.0, SVG Export Plug-In . SVG Version: 6.00 Build 0)  -->

<svg
   version="1.1"
   id="Layer_1"
   x="0px"
   y="0px"
   width="283.465px"
   height="283.465px"
   viewBox="0 0 283.465 283.465"
   enable-background="new 0 0 283.465 283.465"
   xml:space="preserve"
   sodipodi:docname="tiles-alt-2.svg"
   inkscape:version="1.2.2 (b0a8486541, 2022-12-01)"
   xmlns:inkscape="http://www.inkscape.org/namespaces/inkscape"
   xmlns:sodipodi="http://sodipodi.sourceforge.net/DTD/sodipodi-0.dtd"
   xmlns="http://www.w3.org/2000/svg"
   xmlns:svg="http://www.w3.org/2000/svg"><defs
   id="defs314" /><sodipodi:namedview
   id="namedview312"
   pagecolor="#ffffff"
   bordercolor="#000000"
   borderopacity="0.25"
   inkscape:showpageshadow="2"
   inkscape:pageopacity="0.0"
   inkscape:pagecheckerboard="0"
   inkscape:deskcolor="#d1d1d1"
   showgrid="false"
   inkscape:zoom="1.4816644"
   inkscape:cx="219.68537"
   inkscape:cy="159.28033"
   inkscape:window-width="1920"
   inkscape:window-height="1015"
   inkscape:window-x="0"
   inkscape:window-y="0"
   inkscape:window-maximized="1"
   inkscape:current-layer="Layer_1" />

<path
   id="path787"
   style="stroke-width:12.3962"
   d="m 162.05554,7.0859987 a 5.9329462,5.9329462 0 0 0 -5.93173,5.9317353 V 121.50871 a 5.9329462,5.9329462 0 0 0 5.93173,5.93174 h 106.64824 a 5.9329462,5.9329462 0 0 0 5.93173,-5.93174 V 13.017734 A 5.9329462,5.9329462 0 0 0 268.70378,7.0859987 Z M 14.478548,7.2413587 A 5.9329462,5.9329462 0 0 0 8.5468137,13.173095 V 121.66408 a 5.9329462,5.9329462 0 0 0 5.9317343,5.93389 H 121.12678 a 5.9329462,5.9329462 0 0 0 5.93174,-5.93389 V 13.173095 A 5.9329462,5.9329462 0 0 0 121.12678,7.2413587 Z M 238.62649,18.949469 h 24.14555 v 51.094054 l -1.31408,0.491974 c -1.71682,0.637673 -36.36518,14.184652 -45.71472,45.041483 H 167.98728 V 91.653678 c 49.06564,-8.126844 66.01259,-55.169176 70.63921,-72.704209 z M 28.95509,19.106988 H 41.351531 V 42.210329 H 66.144414 V 19.106988 h 12.394284 v 10.7069 H 115.19504 V 42.210329 H 78.538698 V 54.606771 H 53.747973 V 67.003212 H 115.19504 V 79.397496 H 78.538698 V 104.19038 H 20.410284 V 91.793938 h 45.73413 V 79.397496 H 41.351531 V 54.606771 H 28.95509 Z M 162.33821,155.86488 a 5.9329462,5.9329462 0 0 0 -5.93389,5.93173 v 108.49098 a 5.9329462,5.9329462 0 0 0 5.93389,5.9339 h 106.64823 a 5.9329462,5.9329462 0 0 0 5.93174,-5.9339 V 161.79661 a 5.9329462,5.9329462 0 0 0 -5.93174,-5.93173 z M 14.523862,156.0224 a 5.9329462,5.9329462 0 0 0 -5.9317353,5.93173 V 270.44511 A 5.9329462,5.9329462 0 0 0 14.523862,276.379 H 121.1721 a 5.9329462,5.9329462 0 0 0 5.93173,-5.93389 V 161.95413 a 5.9329462,5.9329462 0 0 0 -5.93173,-5.93173 z m 5.931736,34.94307 h 94.784762 v 12.39645 H 53.747973 v 24.79072 h 24.790725 v 12.39644 H 53.747973 v 23.9643 H 41.351531 V 203.36192 H 20.455598 Z m 204.216532,0.27619 a 31.461718,31.461718 0 0 1 24.78641,13.19699 c 3.79327,5.61549 -0.12279,15.4724 6.19931,25.26544 a 14.86312,14.86312 0 0 0 7.39686,2.30019 v 13.08045 a 50.52717,50.52717 0 0 1 -14.84767,-4.53565 30.246883,30.246883 0 0 1 -7.43787,-17.51469 c -1.54953,-15.12343 -4.46243,-19.77326 -20.4536,-19.66169 a 24.495017,24.495017 0 0 0 -22.31358,12.43528 c -12.52021,10.89631 -19.23826,15.89056 -28.41149,12.98984 a 38.713532,38.713532 0 0 0 -1.32056,-0.30641 v -12.77837 a 112.96715,112.96715 0 0 1 5.05137,1.26015 c 6.21052,1.97101 9.48264,-3.06304 18.94099,-12.27345 a 33.94097,33.94097 0 0 1 27.56993,-13.21424 31.461718,31.461718 0 0 1 4.8399,-0.24384 z" /></svg>
