<?xml version="1.0" encoding="UTF-8" standalone="no"?>
<!-- Generator: Adobe Illustrator 15.1.0, SVG Export Plug-In . SVG Version: 6.00 Build 0)  -->

<svg
   version="1.1"
   id="Layer_1"
   x="0px"
   y="0px"
   width="283.464px"
   height="283.464px"
   viewBox="0 0 283.464 283.464"
   enable-background="new 0 0 283.464 283.464"
   xml:space="preserve"
   sodipodi:docname="tiles.svg"
   inkscape:version="1.2.2 (b0a8486541, 2022-12-01)"
   xmlns:inkscape="http://www.inkscape.org/namespaces/inkscape"
   xmlns:sodipodi="http://sodipodi.sourceforge.net/DTD/sodipodi-0.dtd"
   xmlns="http://www.w3.org/2000/svg"
   xmlns:svg="http://www.w3.org/2000/svg"><defs
   id="defs447" /><sodipodi:namedview
   id="namedview445"
   pagecolor="#ffffff"
   bordercolor="#000000"
   borderopacity="0.25"
   inkscape:showpageshadow="2"
   inkscape:pageopacity="0.0"
   inkscape:pagecheckerboard="0"
   inkscape:deskcolor="#d1d1d1"
   showgrid="false"
   inkscape:zoom="1.4816697"
   inkscape:cx="47.581455"
   inkscape:cy="226.09628"
   inkscape:window-width="1920"
   inkscape:window-height="1015"
   inkscape:window-x="0"
   inkscape:window-y="0"
   inkscape:window-maximized="1"
   inkscape:current-layer="Layer_1" />

<g
   style="fill:#000000"
   id="g941"
   transform="matrix(0.52595991,0,0,0.52595991,7.0859947,7.0857975)"><g
     id="g922">
	<g
   id="g920">
		<g
   id="g918">
			<path
   d="m 186.688,135.438 64,45.714 c 1.591,1.134 3.447,1.71 5.312,1.71 1.865,0 3.721,-0.576 5.312,-1.71 l 64,-45.714 c 2.405,-1.71 3.831,-4.48 3.831,-7.433 0,-2.962 -1.426,-5.723 -3.831,-7.442 l -64,-45.714 c -3.182,-2.267 -7.442,-2.267 -10.624,0 l -64,45.714 c -2.405,1.719 -3.831,4.48 -3.831,7.442 0,2.953 1.426,5.723 3.831,7.433 z"
   id="path900" />
			<path
   d="m 274.286,192 c 0,2.953 1.426,5.723 3.831,7.433 l 64,45.714 c 1.591,1.134 3.447,1.71 5.312,1.71 1.865,0 3.721,-0.576 5.312,-1.71 l 64,-45.714 c 2.405,-1.71 3.831,-4.48 3.831,-7.433 0,-2.953 -1.426,-5.723 -3.831,-7.433 l -64,-45.714 c -3.182,-2.277 -7.442,-2.277 -10.624,0 l -64,45.714 c -2.405,1.71 -3.831,4.48 -3.831,7.433 z"
   id="path902" />
			<path
   d="m 95.259,199.438 64,45.714 c 1.591,1.134 3.447,1.71 5.312,1.71 1.865,0 3.721,-0.576 5.312,-1.71 l 64,-45.714 c 2.405,-1.71 3.831,-4.48 3.831,-7.433 0,-2.962 -1.426,-5.723 -3.831,-7.442 l -64,-45.714 c -3.182,-2.267 -7.442,-2.267 -10.624,0 l -64,45.714 c -2.405,1.719 -3.831,4.48 -3.831,7.442 0.001,2.953 1.427,5.723 3.831,7.433 z"
   id="path904" />
			<path
   d="m 261.313,202.848 c -3.182,-2.267 -7.442,-2.267 -10.624,0 l -64,45.714 c -2.405,1.71 -3.831,4.48 -3.831,7.433 0,2.962 1.426,5.723 3.831,7.442 l 64,45.714 c 1.591,1.134 3.447,1.701 5.312,1.701 1.865,0 3.721,-0.567 5.312,-1.701 l 64,-45.714 c 2.405,-1.719 3.831,-4.48 3.831,-7.442 0,-2.953 -1.426,-5.723 -3.831,-7.433 z"
   id="path906" />
			<path
   d="m 325.313,376.563 -64,-45.714 c -3.182,-2.267 -7.442,-2.267 -10.624,0 l -64,45.714 c -2.405,1.71 -3.831,4.48 -3.831,7.433 0,2.962 1.426,5.723 3.831,7.442 l 64,45.714 c 1.591,1.134 3.447,1.701 5.312,1.701 1.865,0 3.721,-0.567 5.312,-1.701 l 64,-45.714 c 2.405,-1.719 3.831,-4.48 3.831,-7.442 0,-2.953 -1.427,-5.724 -3.831,-7.433 z"
   id="path908" />
			<path
   d="m 508.17,248.563 -64,-45.714 c -3.182,-2.267 -7.442,-2.267 -10.624,0 l -64,45.714 c -2.405,1.71 -3.831,4.48 -3.831,7.433 0,2.962 1.426,5.723 3.831,7.442 l 64,45.714 c 1.591,1.134 3.447,1.701 5.312,1.701 1.865,0 3.721,-0.567 5.312,-1.701 l 64,-45.714 c 2.405,-1.719 3.831,-4.48 3.831,-7.442 0,-2.953 -1.426,-5.724 -3.831,-7.433 z"
   id="path910" />
			<path
   d="m 416.741,312.563 -64,-45.714 c -3.182,-2.267 -7.442,-2.267 -10.624,0 l -64,45.714 c -2.405,1.71 -3.831,4.48 -3.831,7.433 0,2.962 1.426,5.723 3.831,7.442 l 64,45.714 c 1.591,1.134 3.447,1.701 5.312,1.701 1.865,0 3.721,-0.567 5.312,-1.701 l 64,-45.714 c 2.405,-1.719 3.831,-4.48 3.831,-7.442 0,-2.953 -1.426,-5.724 -3.831,-7.433 z"
   id="path912" />
			<path
   d="m 146.286,256 c 0,-2.953 -1.426,-5.723 -3.831,-7.433 l -64,-45.714 c -3.182,-2.277 -7.442,-2.277 -10.624,0 l -64,45.714 C 1.426,250.277 0,253.047 0,256 c 0,2.953 1.426,5.723 3.831,7.433 l 64,45.714 c 1.591,1.134 3.447,1.71 5.312,1.71 1.865,0 3.721,-0.576 5.312,-1.71 l 64,-45.714 c 2.404,-1.709 3.831,-4.479 3.831,-7.433 z"
   id="path914" />
			<path
   d="m 237.714,320 c 0,-2.953 -1.426,-5.723 -3.831,-7.433 l -64,-45.714 c -3.182,-2.277 -7.442,-2.277 -10.624,0 l -64,45.714 c -2.405,1.71 -3.831,4.48 -3.831,7.433 0,2.953 1.426,5.723 3.831,7.433 l 64,45.714 c 1.591,1.134 3.447,1.71 5.312,1.71 1.865,0 3.721,-0.576 5.312,-1.71 l 64,-45.714 c 2.405,-1.709 3.831,-4.479 3.831,-7.433 z"
   id="path916" />
		</g>
	</g>
</g></g></svg>
