<?xml version="1.0" encoding="UTF-8" standalone="no"?>
<!-- Generator: Adobe Illustrator 15.1.0, SVG Export Plug-In . SVG Version: 6.00 Build 0)  -->

<svg
   version="1.1"
   id="Layer_3"
   x="0px"
   y="0px"
   width="283.46px"
   height="283.46px"
   viewBox="0 0 283.46 283.46"
   enable-background="new 0 0 283.46 283.46"
   xml:space="preserve"
   sodipodi:docname="toggle-alt-2-off.svg"
   inkscape:version="1.2.2 (b0a8486541, 2022-12-01)"
   xmlns:inkscape="http://www.inkscape.org/namespaces/inkscape"
   xmlns:sodipodi="http://sodipodi.sourceforge.net/DTD/sodipodi-0.dtd"
   xmlns="http://www.w3.org/2000/svg"
   xmlns:svg="http://www.w3.org/2000/svg"><defs
   id="defs8" /><sodipodi:namedview
   id="namedview6"
   pagecolor="#ffffff"
   bordercolor="#000000"
   borderopacity="0.25"
   inkscape:showpageshadow="2"
   inkscape:pageopacity="0.0"
   inkscape:pagecheckerboard="0"
   inkscape:deskcolor="#d1d1d1"
   showgrid="false"
   inkscape:zoom="1.0477135"
   inkscape:cx="-197.5731"
   inkscape:cy="310.19931"
   inkscape:window-width="1920"
   inkscape:window-height="1015"
   inkscape:window-x="0"
   inkscape:window-y="0"
   inkscape:window-maximized="1"
   inkscape:current-layer="Layer_3" />

<path
   id="path304"
   style="fill:#000000;stroke-width:8.82478"
   d="M 10.999984 3.0000465 C 13.761381 3.0000465 15.999966 5.2386109 15.999966 8.0000281 C 15.999966 10.761425 13.761381 13.00001 10.999984 13.00001 L 4.9999596 13.00001 C 2.2385424 13.00001 -2.1945705e-05 10.761425 -2.1945705e-05 8.0000281 C -2.1945705e-05 5.2386109 2.2385424 3.0000465 4.9999596 3.0000465 L 10.999984 3.0000465 z M 10.999984 5.0000159 C 9.3431356 5.0000159 7.9999718 6.3431798 7.9999718 8.0000281 C 7.9999718 9.6568764 9.3431356 11.00004 10.999984 11.00004 C 12.656882 11.00004 13.999996 9.6568764 13.999996 8.0000281 C 13.999996 6.3431798 12.656882 5.0000159 10.999984 5.0000159 z "
   transform="matrix(-16.831312,0,0,16.831312,276.38049,7.0794997)" /></svg>
