<?xml version="1.0" encoding="UTF-8" standalone="no"?>
<!-- Generator: Adobe Illustrator 15.1.0, SVG Export Plug-In . SVG Version: 6.00 Build 0)  -->

<svg
   version="1.1"
   id="Layer_3"
   x="0px"
   y="0px"
   width="283.46px"
   height="283.46px"
   viewBox="0 0 283.46 283.46"
   enable-background="new 0 0 283.46 283.46"
   xml:space="preserve"
   sodipodi:docname="toggle-on.svg"
   inkscape:version="1.2.2 (b0a8486541, 2022-12-01)"
   xmlns:inkscape="http://www.inkscape.org/namespaces/inkscape"
   xmlns:sodipodi="http://sodipodi.sourceforge.net/DTD/sodipodi-0.dtd"
   xmlns="http://www.w3.org/2000/svg"
   xmlns:svg="http://www.w3.org/2000/svg"><defs
   id="defs8" /><sodipodi:namedview
   id="namedview6"
   pagecolor="#ffffff"
   bordercolor="#000000"
   borderopacity="0.25"
   inkscape:showpageshadow="2"
   inkscape:pageopacity="0.0"
   inkscape:pagecheckerboard="0"
   inkscape:deskcolor="#d1d1d1"
   showgrid="false"
   inkscape:zoom="1.4816906"
   inkscape:cx="226.43053"
   inkscape:cy="147.46668"
   inkscape:window-width="1920"
   inkscape:window-height="1052"
   inkscape:window-x="1920"
   inkscape:window-y="0"
   inkscape:window-maximized="1"
   inkscape:current-layer="Layer_3" />

<g
   id="g430"
   transform="matrix(3.068527,0,0,3.068527,-5.5562358,-5.5593003)"
   style="stroke-width:0.32589">
	<path
   d="m 27.969,41.763 c -3.045,0 -4.557,2.813 -4.557,5.899 0,3.044 1.639,5.753 4.535,5.753 2.896,0 4.535,-2.666 4.535,-5.879 0,-2.834 -1.47,-5.773 -4.513,-5.773 z"
   id="path426"
   style="stroke-width:0.32589" />
	<path
   d="M 88.841,38.717 C 86.331,34.696 81.88,31.999 76.82,31.999 H 19.791 c -2.65,0 -5.128,0.751 -7.255,2.029 -5.003,2.666 -8.418,7.932 -8.418,13.982 0.002,6.051 3.427,11.313 8.44,13.971 2.124,1.272 4.592,2.02 7.233,2.02 H 76.82 c 5.039,0 9.476,-2.675 11.986,-6.666 1.926,-2.617 3.074,-5.835 3.074,-9.322 0.002,-3.475 -1.136,-6.682 -3.039,-9.296 z M 27.842,54.903 c -3.758,0 -6.361,-2.918 -6.361,-7.199 0,-4.493 2.771,-7.434 6.551,-7.434 3.885,0 6.383,2.959 6.383,7.182 -10e-4,4.85 -2.961,7.451 -6.573,7.451 z m 19.572,-0.229 h -1.848 l -4.493,-7.182 c -0.987,-1.574 -1.933,-3.19 -2.625,-4.724 l -0.063,0.021 c 0.105,1.783 0.127,3.484 0.127,5.837 v 6.047 H 36.789 V 40.524 h 2.016 l 4.515,7.158 c 1.028,1.658 1.869,3.149 2.521,4.6 l 0.063,-0.021 c -0.168,-1.891 -0.21,-3.611 -0.21,-5.816 v -5.92 h 1.722 v 14.149 z m 28.429,7.468 c -7.811,0 -14.143,-6.33 -14.143,-14.143 0,-7.813 6.334,-14.143 14.143,-14.143 7.812,0 14.144,6.33 14.144,14.143 0,7.813 -6.335,14.143 -14.144,14.143 z"
   id="path428"
   style="stroke-width:0.32589" />
</g></svg>
