<?xml version="1.0" encoding="UTF-8" standalone="no"?>
<!-- Generator: Adobe Illustrator 15.1.0, SVG Export Plug-In . SVG Version: 6.00 Build 0)  -->

<svg
   version="1.1"
   id="Layer_3"
   x="0px"
   y="0px"
   width="283.46px"
   height="283.46px"
   viewBox="0 0 283.46 283.46"
   enable-background="new 0 0 283.46 283.46"
   xml:space="preserve"
   sodipodi:docname="toggle-off.svg"
   inkscape:version="1.2.2 (b0a8486541, 2022-12-01)"
   xmlns:inkscape="http://www.inkscape.org/namespaces/inkscape"
   xmlns:sodipodi="http://sodipodi.sourceforge.net/DTD/sodipodi-0.dtd"
   xmlns="http://www.w3.org/2000/svg"
   xmlns:svg="http://www.w3.org/2000/svg"><defs
   id="defs8" /><sodipodi:namedview
   id="namedview6"
   pagecolor="#ffffff"
   bordercolor="#000000"
   borderopacity="0.25"
   inkscape:showpageshadow="2"
   inkscape:pageopacity="0.0"
   inkscape:pagecheckerboard="0"
   inkscape:deskcolor="#d1d1d1"
   showgrid="false"
   inkscape:zoom="0.74084532"
   inkscape:cx="342.17669"
   inkscape:cy="243.6406"
   inkscape:window-width="1920"
   inkscape:window-height="1052"
   inkscape:window-x="1920"
   inkscape:window-y="0"
   inkscape:window-maximized="1"
   inkscape:current-layer="Layer_3" />

<g
   id="g637"
   transform="matrix(3.0684332,0,0,3.0684332,-5.5563321,-5.5547979)"
   style="stroke-width:0.325899">
	<path
   d="m 51.232,42.229 c -3.045,0 -4.558,2.813 -4.558,5.899 0,3.043 1.639,5.752 4.535,5.752 2.896,0 4.535,-2.666 4.535,-5.879 0.002,-2.832 -1.469,-5.772 -4.512,-5.772 z"
   id="path633"
   style="stroke-width:0.325899" />
	<path
   d="M 83.443,34.017 C 81.32,32.746 78.851,31.999 76.211,31.999 h -57.03 c -5.04,0 -9.474,2.674 -11.989,6.666 -1.922,2.615 -3.074,5.834 -3.074,9.32 0,3.477 1.139,6.684 3.043,9.297 2.507,4.02 6.958,6.719 12.02,6.719 h 57.03 c 2.65,0 5.127,-0.752 7.254,-2.031 5.004,-2.666 8.418,-7.93 8.418,-13.982 0,-6.05 -3.424,-11.313 -8.44,-13.971 z M 20.158,62.144 c -7.811,0 -14.143,-6.332 -14.143,-14.143 0,-7.813 6.332,-14.143 14.143,-14.143 7.809,0 14.141,6.33 14.141,14.143 0,7.811 -6.332,14.143 -14.141,14.143 z m 30.949,-6.772 c -3.76,0 -6.363,-2.918 -6.363,-7.201 0,-4.492 2.771,-7.434 6.553,-7.434 3.883,0 6.381,2.961 6.381,7.182 0,4.852 -2.959,7.453 -6.571,7.453 z m 16.547,-12.85 h -5.773 v 4.703 h 5.334 v 1.512 h -5.334 v 6.404 H 60.033 V 40.989 h 7.621 z m 10.227,0 h -5.773 v 4.703 h 5.332 v 1.512 h -5.332 v 6.404 H 70.26 V 40.989 h 7.621 z"
   id="path635"
   style="stroke-width:0.325899" />
</g></svg>
