<?xml version="1.0" encoding="UTF-8" standalone="no"?>
<!-- Generator: Adobe Illustrator 15.1.0, SVG Export Plug-In . SVG Version: 6.00 Build 0)  -->

<svg
   version="1.1"
   id="Layer_3"
   x="0px"
   y="0px"
   width="283.46px"
   height="283.46px"
   viewBox="0 0 283.46 283.46"
   enable-background="new 0 0 283.46 283.46"
   xml:space="preserve"
   sodipodi:docname="toggle-off-alt-1.svg"
   inkscape:version="1.2.2 (b0a8486541, 2022-12-01)"
   xmlns:inkscape="http://www.inkscape.org/namespaces/inkscape"
   xmlns:sodipodi="http://sodipodi.sourceforge.net/DTD/sodipodi-0.dtd"
   xmlns="http://www.w3.org/2000/svg"
   xmlns:svg="http://www.w3.org/2000/svg"><defs
   id="defs8" /><sodipodi:namedview
   id="namedview6"
   pagecolor="#ffffff"
   bordercolor="#000000"
   borderopacity="0.25"
   inkscape:showpageshadow="2"
   inkscape:pageopacity="0.0"
   inkscape:pagecheckerboard="0"
   inkscape:deskcolor="#d1d1d1"
   showgrid="false"
   inkscape:zoom="1.4816906"
   inkscape:cx="76.264233"
   inkscape:cy="165.35166"
   inkscape:window-width="1920"
   inkscape:window-height="1015"
   inkscape:window-x="0"
   inkscape:window-y="0"
   inkscape:window-maximized="1"
   inkscape:current-layer="g190" />

<g
   style="fill:none;stroke-width:2.97065"
   id="g190"
   transform="matrix(-16.831312,0,0,16.831312,276.38049,7.0794997)"><path
     style="display:inline;fill:#000000;stroke-width:8.82478"
     d="m 11,5 c 1.6569,0 3,1.34315 3,3 0,1.65685 -1.3431,3 -3,3 C 9.34315,11 8,9.65685 8,8 8,6.34315 9.34315,5 11,5 Z"
     id="path877" /><path
     style="color:#000000;fill:#000000;stroke-width:2.97065;stroke-linecap:round;stroke-linejoin:round;-inkscape-stroke:none;paint-order:stroke fill markers"
     d="M 5.1234486,3.0000034 C 2.3049896,3.0000034 -3.4263841e-7,5.2338824 -3.4263841e-7,7.9989824 -3.4263841e-7,10.764066 2.3049886,12.999997 5.1234486,12.999997 H 10.876551 C 13.694995,12.999997 16,10.764068 16,7.9989824 16,5.2338804 13.694993,3.0000034 10.876551,3.0000034 Z m 0,0.669379 h 5.7531024 c 2.476932,0 4.465723,1.941114 4.465723,4.3296 0,2.3884666 -1.988793,4.3316346 -4.465723,4.3316346 H 5.1234486 c -2.476949,0 -4.46371696,-1.943166 -4.46371696,-4.3316346 0,-2.388487 1.98676696,-4.3296 4.46371696,-4.3296 z"
     id="path181" /></g></svg>
