<?xml version="1.0" encoding="UTF-8" standalone="no"?>
<!-- Generator: Adobe Illustrator 15.1.0, SVG Export Plug-In . SVG Version: 6.00 Build 0)  -->

<svg
   version="1.1"
   id="Layer_3"
   x="0px"
   y="0px"
   width="283.46px"
   height="283.46px"
   viewBox="0 0 283.46 283.46"
   enable-background="new 0 0 283.46 283.46"
   xml:space="preserve"
   sodipodi:docname="toggle-alt-2-on.svg"
   inkscape:version="1.2.2 (b0a8486541, 2022-12-01)"
   xmlns:inkscape="http://www.inkscape.org/namespaces/inkscape"
   xmlns:sodipodi="http://sodipodi.sourceforge.net/DTD/sodipodi-0.dtd"
   xmlns="http://www.w3.org/2000/svg"
   xmlns:svg="http://www.w3.org/2000/svg"><defs
   id="defs8" /><sodipodi:namedview
   id="namedview6"
   pagecolor="#ffffff"
   bordercolor="#000000"
   borderopacity="0.25"
   inkscape:showpageshadow="2"
   inkscape:pageopacity="0.0"
   inkscape:pagecheckerboard="0"
   inkscape:deskcolor="#d1d1d1"
   showgrid="false"
   inkscape:zoom="1.0477135"
   inkscape:cx="323.56175"
   inkscape:cy="165.12148"
   inkscape:window-width="1400"
   inkscape:window-height="1043"
   inkscape:window-x="516"
   inkscape:window-y="0"
   inkscape:window-maximized="0"
   inkscape:current-layer="Layer_3" />

<path
   id="path181"
   style="fill:#000000;stroke-width:8.82478"
   d="M 5.0000159 3.0000465 C 2.2385987 3.0000465 3.4366008e-05 5.2386109 3.4366008e-05 8.0000281 C 3.4366008e-05 10.761425 2.2385987 13.00001 5.0000159 13.00001 L 11.00004 13.00001 C 13.761438 13.00001 16.000022 10.761425 16.000022 8.0000281 C 16.000022 5.2386109 13.761438 3.0000465 11.00004 3.0000465 L 5.0000159 3.0000465 z M 11.00004 5.0000159 C 12.656939 5.0000159 14.000052 6.3431798 14.000052 8.0000281 C 14.000052 9.6568764 12.656939 11.00004 11.00004 11.00004 C 9.3431919 11.00004 8.0000281 9.6568764 8.0000281 8.0000281 C 8.0000281 6.3431798 9.3431919 5.0000159 11.00004 5.0000159 z "
   transform="matrix(16.831312,0,0,16.831312,7.0794997,7.0794997)" /></svg>
