<?xml version="1.0" encoding="UTF-8" standalone="no"?>
<!-- Generator: Adobe Illustrator 15.1.0, SVG Export Plug-In . SVG Version: 6.00 Build 0)  -->

<svg
   version="1.1"
   id="Layer_3"
   x="0px"
   y="0px"
   width="283.46px"
   height="283.46px"
   viewBox="0 0 283.46 283.46"
   enable-background="new 0 0 283.46 283.46"
   xml:space="preserve"
   sodipodi:docname="token.svg"
   inkscape:version="1.2.2 (b0a8486541, 2022-12-01)"
   xmlns:inkscape="http://www.inkscape.org/namespaces/inkscape"
   xmlns:sodipodi="http://sodipodi.sourceforge.net/DTD/sodipodi-0.dtd"
   xmlns="http://www.w3.org/2000/svg"
   xmlns:svg="http://www.w3.org/2000/svg"><defs
   id="defs8" /><sodipodi:namedview
   id="namedview6"
   pagecolor="#ffffff"
   bordercolor="#000000"
   borderopacity="0.25"
   inkscape:showpageshadow="2"
   inkscape:pageopacity="0.0"
   inkscape:pagecheckerboard="0"
   inkscape:deskcolor="#d1d1d1"
   showgrid="false"
   inkscape:zoom="1.0477135"
   inkscape:cx="-107.37669"
   inkscape:cy="207.1177"
   inkscape:window-width="1920"
   inkscape:window-height="1015"
   inkscape:window-x="0"
   inkscape:window-y="0"
   inkscape:window-maximized="1"
   inkscape:current-layer="Layer_3" />
<path
   id="path566"
   d="M 141.4668 7.0820312 C 125.03705 7.0945215 108.34485 10.13536 92.166016 16.541016 C 23.136304 43.871811 -10.789783 122.26911 16.541016 191.29883 C 43.871806 260.32852 122.26821 294.25419 191.29688 266.92383 C 260.32658 239.59304 294.25268 161.19572 266.92188 92.166016 C 245.99675 39.315144 195.13724 7.04123 141.4668 7.0820312 z M 105.375 22.585938 L 113.06445 42.007812 L 93.644531 49.695312 L 85.955078 30.273438 L 105.375 22.585938 z M 181.45898 23.632812 L 200.62891 31.927734 L 192.33203 51.097656 L 173.16406 42.802734 L 181.45898 23.632812 z M 141.54688 47.695312 C 179.02985 47.666814 214.5504 70.205296 229.16406 107.11523 C 248.25175 155.32524 224.55656 210.07485 176.34766 229.16211 C 128.13873 248.24937 73.389996 224.55658 54.302734 176.34766 C 35.215476 128.13873 58.907399 73.387614 107.11523 54.300781 C 118.4142 49.827207 130.07249 47.704037 141.54688 47.695312 z M 143.44922 65.123047 C 133.49885 64.886433 123.34475 66.595843 113.52344 70.484375 C 74.238179 86.038506 54.932198 130.65421 70.486328 169.93945 C 86.040461 209.2247 130.65616 228.53264 169.94141 212.97852 C 209.22667 197.42437 228.53459 152.80868 212.98047 113.52344 C 201.31487 84.059487 173.30033 65.832885 143.44922 65.123047 z M 144.4043 81.451172 C 146.90429 81.451172 148.87305 82.263673 150.31055 83.888672 C 150.93555 84.576171 152.0293 86.451175 153.5918 89.513672 L 153.68555 91.388672 C 153.81055 95.763667 152.62304 101.10743 150.12305 107.41992 C 146.81055 115.60741 144.9043 120.76367 144.4043 122.88867 C 146.0293 123.01367 147.87305 123.07617 149.93555 123.07617 C 151.99804 123.07617 155.06055 122.98242 159.12305 122.79492 C 163.24804 122.60742 166.3418 122.51367 168.4043 122.51367 C 173.52929 122.51367 177.81055 123.04492 181.24805 124.10742 C 180.56055 128.23242 176.34179 130.85742 168.5918 131.98242 C 158.52931 133.41992 151.71679 135.41992 148.1543 137.98242 C 141.0293 143.10742 137.4668 152.79494 137.4668 167.04492 C 137.4668 176.48241 138.0918 183.60743 139.3418 188.41992 C 139.7168 189.91992 140.49805 190.66992 141.68555 190.66992 C 144.81054 190.66992 150.1543 186.95116 157.7168 179.51367 C 163.46679 173.95118 168.24805 168.66992 172.06055 163.66992 C 174.18554 164.54492 175.24805 166.32617 175.24805 169.01367 C 175.24805 169.95117 175.0918 171.35742 174.7793 173.23242 C 174.4668 175.10742 174.31055 176.51367 174.31055 177.45117 C 161.62306 193.82616 150.56054 202.01367 141.12305 202.01367 C 133.56055 202.01367 128.56054 196.01366 126.12305 184.01367 C 124.87305 178.07618 124.24805 169.16991 124.24805 157.29492 C 124.24805 151.79493 124.43555 146.85742 124.81055 142.48242 C 123.12305 141.48242 121.12304 140.98242 118.81055 140.98242 C 116.49805 140.98242 113.09179 141.66992 108.5918 143.04492 C 104.0918 144.35742 100.71679 145.01367 98.466797 145.01367 C 93.591802 145.01367 90.841796 141.88867 90.216797 135.63867 C 94.591792 133.38867 100.84181 131.45117 108.9668 129.82617 C 118.65429 127.88867 125.0918 126.35742 128.2793 125.23242 C 130.65429 121.54493 132.93555 114.20116 135.12305 103.20117 C 137.18554 93.201185 140.2793 85.951167 144.4043 81.451172 z M 31.929688 82.835938 L 51.099609 91.130859 L 42.804688 110.30078 L 23.634766 102.00391 L 31.929688 82.835938 z M 252.97266 86.457031 L 260.66211 105.87695 L 241.24023 113.56641 L 233.55078 94.146484 L 252.97266 86.457031 z M 41.505859 170.18359 L 49.193359 189.60352 L 29.773438 197.29102 L 22.085938 177.87109 L 41.505859 170.18359 z M 240.66211 173.16406 L 259.83203 181.45898 L 251.53711 200.62891 L 232.36719 192.33203 L 240.66211 173.16406 z M 91.132812 232.36523 L 110.30273 240.66211 L 102.00781 259.83008 L 82.837891 251.53516 L 91.132812 232.36523 z M 189.10156 234.05273 L 196.78906 253.47266 L 177.36914 261.16211 L 169.68164 241.74219 L 189.10156 234.05273 z " />
</svg>
