<?xml version="1.0" encoding="UTF-8" standalone="no"?>
<!-- Generator: Adobe Illustrator 15.1.0, SVG Export Plug-In . SVG Version: 6.00 Build 0)  -->

<svg
   version="1.1"
   id="Layer_3"
   x="0px"
   y="0px"
   width="283.46px"
   height="283.46px"
   viewBox="0 0 283.46 283.46"
   enable-background="new 0 0 283.46 283.46"
   xml:space="preserve"
   sodipodi:docname="token-shimmer.svg"
   inkscape:version="1.2.2 (b0a8486541, 2022-12-01)"
   xmlns:inkscape="http://www.inkscape.org/namespaces/inkscape"
   xmlns:sodipodi="http://sodipodi.sourceforge.net/DTD/sodipodi-0.dtd"
   xmlns="http://www.w3.org/2000/svg"
   xmlns:svg="http://www.w3.org/2000/svg"><defs
   id="defs8" /><sodipodi:namedview
   id="namedview6"
   pagecolor="#ffffff"
   bordercolor="#000000"
   borderopacity="0.25"
   inkscape:showpageshadow="2"
   inkscape:pageopacity="0.0"
   inkscape:pagecheckerboard="0"
   inkscape:deskcolor="#d1d1d1"
   showgrid="false"
   inkscape:zoom="1.0477135"
   inkscape:cx="299.22302"
   inkscape:cy="201.39093"
   inkscape:window-width="1920"
   inkscape:window-height="1015"
   inkscape:window-x="0"
   inkscape:window-y="0"
   inkscape:window-maximized="1"
   inkscape:current-layer="Layer_3" />
<path
   id="path566"
   d="M 141.4668 7.0820312 C 125.03706 7.0945215 108.34483 10.135366 92.166016 16.541016 C 23.136373 43.871783 -10.789756 122.26918 16.541016 191.29883 C 43.871778 260.32845 122.26827 294.25416 191.29688 266.92383 C 260.32651 239.59307 294.25265 161.19565 266.92188 92.166016 C 245.99677 39.315196 195.13718 7.0412301 141.4668 7.0820312 z M 105.375 22.585938 L 113.06445 42.007812 L 93.644531 49.695312 L 85.955078 30.273438 L 105.375 22.585938 z M 181.45898 23.632812 L 200.62891 31.927734 L 192.33203 51.097656 L 173.16406 42.802734 L 181.45898 23.632812 z M 141.54688 47.695312 C 179.02981 47.666815 214.55042 70.205337 229.16406 107.11523 C 248.25173 155.3252 224.55651 210.07487 176.34766 229.16211 C 128.13877 248.24935 73.389977 224.55653 54.302734 176.34766 C 35.215495 128.13877 58.907452 73.387595 107.11523 54.300781 C 118.41419 49.827212 130.0725 47.704037 141.54688 47.695312 z M 143.44922 65.123047 C 133.49886 64.886433 123.34474 66.595847 113.52344 70.484375 C 74.238216 86.03849 54.932214 130.65425 70.486328 169.93945 C 86.040446 209.22466 130.6562 228.53262 169.94141 212.97852 C 209.22663 197.42438 228.53457 152.80864 212.98047 113.52344 C 201.31488 84.059514 173.3003 65.832884 143.44922 65.123047 z M 174.86328 79.363281 A 1.2132671 1.2132671 0 0 1 176.03516 80.261719 L 177.77148 86.707031 C 177.87961 87.108688 177.95663 87.372958 178.01562 87.550781 L 178.49805 88.214844 C 178.59739 88.279426 178.86604 88.376213 179.65234 88.587891 L 186.09766 90.324219 A 1.2132671 1.2132671 0 0 1 186.09766 92.666016 L 179.65234 94.402344 C 178.86604 94.61402 178.59735 94.708878 178.49805 94.773438 L 176.90234 99.505859 L 176.03516 102.72852 A 1.2132671 1.2132671 0 0 1 173.69336 102.72852 L 171.95703 96.283203 C 171.74536 95.496892 171.64858 95.228246 171.58398 95.128906 C 171.54348 95.066535 171.49807 95.008548 171.44727 94.955078 L 171.22852 94.773438 C 171.12899 94.708757 170.86246 94.61402 170.07617 94.402344 L 163.63086 92.666016 A 1.2132671 1.2132671 0 0 1 163.63086 90.324219 L 170.07617 88.587891 C 170.86246 88.376213 171.12902 88.279524 171.22852 88.214844 L 171.71289 87.550781 C 171.77179 87.372959 171.84899 87.108378 171.95703 86.707031 L 173.69336 80.261719 A 1.2132671 1.2132671 0 0 1 174.86328 79.363281 z M 144.4043 81.451172 C 146.90428 81.451172 148.87305 82.263674 150.31055 83.888672 C 150.93555 84.57617 152.0293 86.451178 153.5918 89.513672 L 153.68555 91.388672 C 153.81055 95.763663 152.62303 101.10744 150.12305 107.41992 C 146.81055 115.6074 144.9043 120.76367 144.4043 122.88867 C 146.0293 123.01367 147.87305 123.07617 149.93555 123.07617 C 151.99803 123.07617 155.06055 122.98242 159.12305 122.79492 C 163.24803 122.60742 166.3418 122.51367 168.4043 122.51367 C 173.52928 122.51367 177.81055 123.04492 181.24805 124.10742 C 180.56055 128.23242 176.34178 130.85742 168.5918 131.98242 C 158.52932 133.41992 151.71678 135.41992 148.1543 137.98242 C 141.0293 143.10742 137.4668 152.79496 137.4668 167.04492 C 137.4668 176.4824 138.0918 183.60744 139.3418 188.41992 C 139.7168 189.91992 140.49805 190.66992 141.68555 190.66992 C 144.81053 190.66992 150.1543 186.95115 157.7168 179.51367 C 163.46678 173.95119 168.24805 168.66992 172.06055 163.66992 C 174.18553 164.54492 175.24805 166.32617 175.24805 169.01367 C 175.24805 169.95117 175.0918 171.35742 174.7793 173.23242 C 174.4668 175.10742 174.31055 176.51367 174.31055 177.45117 C 161.62307 193.82615 150.56053 202.01367 141.12305 202.01367 C 133.56055 202.01367 128.56053 196.01365 126.12305 184.01367 C 124.87305 178.07619 124.24805 169.1699 124.24805 157.29492 C 124.24805 151.79494 124.43555 146.85742 124.81055 142.48242 C 123.12305 141.48242 121.12303 140.98242 118.81055 140.98242 C 116.49805 140.98242 113.09178 141.66992 108.5918 143.04492 C 104.0918 144.35742 100.71679 145.01367 98.466797 145.01367 C 93.591807 145.01367 90.841795 141.88867 90.216797 135.63867 C 94.591788 133.38867 100.84181 131.45117 108.9668 129.82617 C 118.65428 127.88867 125.0918 126.35742 128.2793 125.23242 C 130.65428 121.54494 132.93555 114.20115 135.12305 103.20117 C 137.18553 93.201197 140.2793 85.951162 144.4043 81.451172 z M 31.929688 82.835938 L 51.099609 91.130859 L 42.804688 110.30078 L 23.634766 102.00391 L 31.929688 82.835938 z M 252.97266 86.457031 L 260.66211 105.87695 L 241.24023 113.56641 L 233.55078 94.146484 L 252.97266 86.457031 z M 41.505859 170.18359 L 49.193359 189.60352 L 29.773438 197.29102 L 22.085938 177.87109 L 41.505859 170.18359 z M 240.66211 173.16406 L 259.83203 181.45898 L 251.53711 200.62891 L 232.36719 192.33203 L 240.66211 173.16406 z M 91.132812 232.36523 L 110.30273 240.66211 L 102.00781 259.83008 L 82.837891 251.53516 L 91.132812 232.36523 z M 189.10156 234.05273 L 196.78906 253.47266 L 177.36914 261.16211 L 169.68164 241.74219 L 189.10156 234.05273 z " />
</svg>
