<?xml version="1.0" encoding="UTF-8" standalone="no"?>
<!-- Generator: Adobe Illustrator 15.1.0, SVG Export Plug-In . SVG Version: 6.00 Build 0)  -->

<svg
   version="1.0"
   id="Layer_2"
   x="0px"
   y="0px"
   width="283.46px"
   height="283.46px"
   viewBox="0 0 283.46 283.46"
   enable-background="new 0 0 283.46 283.46"
   xml:space="preserve"
   sodipodi:docname="ufo.svg"
   inkscape:version="1.2.2 (b0a8486541, 2022-12-01)"
   xmlns:inkscape="http://www.inkscape.org/namespaces/inkscape"
   xmlns:sodipodi="http://sodipodi.sourceforge.net/DTD/sodipodi-0.dtd"
   xmlns="http://www.w3.org/2000/svg"
   xmlns:svg="http://www.w3.org/2000/svg"><defs
   id="defs9" /><sodipodi:namedview
   id="namedview7"
   pagecolor="#ffffff"
   bordercolor="#000000"
   borderopacity="0.25"
   inkscape:showpageshadow="2"
   inkscape:pageopacity="0.0"
   inkscape:pagecheckerboard="0"
   inkscape:deskcolor="#d1d1d1"
   showgrid="false"
   inkscape:zoom="2.9633812"
   inkscape:cx="92.968126"
   inkscape:cy="181.54937"
   inkscape:window-width="1920"
   inkscape:window-height="1015"
   inkscape:window-x="0"
   inkscape:window-y="0"
   inkscape:window-maximized="1"
   inkscape:current-layer="Layer_2" />

<path
   id="path528"
   style="fill:#000000;stroke-width:13.4646"
   d="M 56.560547 118.75195 C 26.360978 129.05734 7.0839844 144.73071 7.0839844 162.28125 C 7.0839844 193.31845 67.367617 218.47656 141.73047 218.47656 C 216.09263 218.47656 276.375 193.31845 276.375 162.28125 C 276.375 144.73071 257.09814 129.05734 226.89844 118.75195 C 225.22075 122.66046 222.4327 126.61606 217.89648 129.77148 C 207.28235 137.15371 186.18107 144.42383 141.73047 144.42383 C 97.279851 144.42383 76.178312 137.15371 65.564453 129.77148 C 61.027833 126.61606 58.238099 122.66046 56.560547 118.75195 z M 74.40625 151.15625 C 81.842461 151.15625 87.871094 157.18462 87.871094 164.62109 C 87.871094 172.05759 81.842461 178.08594 74.40625 178.08594 C 66.970039 178.08594 60.943359 172.05759 60.943359 164.62109 C 60.943359 157.18462 66.970039 151.15625 74.40625 151.15625 z M 209.05273 151.15625 C 216.48922 151.15625 222.51758 157.18462 222.51758 164.62109 C 222.51758 172.05759 216.48922 178.08594 209.05273 178.08594 C 201.61625 178.08594 195.58789 172.05759 195.58789 164.62109 C 195.58789 157.18462 201.61625 151.15625 209.05273 151.15625 z M 141.73047 164.62109 C 149.16694 164.62109 155.19531 170.64944 155.19531 178.08594 C 155.19531 185.52241 149.16694 191.54883 141.73047 191.54883 C 134.29399 191.54883 128.26562 185.52241 128.26562 178.08594 C 128.26563 170.64944 134.29399 164.62109 141.73047 164.62109 z " /><path
   d="M 75.147319,118.91357 C 79.835421,88.372376 106.22521,64.982494 138.0784,64.982494 h 7.30319 c 31.85319,0 58.24244,23.389882 62.93081,53.931076 -0.42952,0.92704 -1.0637,1.74043 -1.94832,2.35617 -5.57569,3.87794 -21.68473,11.03571 -64.63408,11.03571 -42.949898,0 -59.058397,-7.15777 -64.633816,-11.03571 -0.885297,-0.61574 -1.519479,-1.42913 -1.948865,-2.35617 z"
   fill="#1c274c"
   id="path530"
   style="fill:#000000;stroke-width:13.4646" /></svg>
