<?xml version="1.0" encoding="utf-8"?>
<!-- Generator: Adobe Illustrator 15.1.0, SVG Export Plug-In . SVG Version: 6.00 Build 0)  -->
<!DOCTYPE svg PUBLIC "-//W3C//DTD SVG 1.1//EN" "http://www.w3.org/Graphics/SVG/1.1/DTD/svg11.dtd">
<svg version="1.1" id="Layer_5" xmlns="http://www.w3.org/2000/svg" xmlns:xlink="http://www.w3.org/1999/xlink" x="0px" y="0px"
	 width="283.46px" height="283.46px" viewBox="0 0 283.46 283.46" enable-background="new 0 0 283.46 283.46" xml:space="preserve">
<g>
	<path d="M7.084,133.975c3.984,0,7.385-0.704,10.209-2.117c2.82-1.409,5.185-3.236,7.096-5.477c1.906-2.241,3.317-4.812,4.233-7.718
		c0.909-2.903,1.368-5.852,1.368-8.839V65.008c0-6.804,0.746-12.859,2.241-18.173c1.495-5.312,4.066-9.75,7.718-13.321
		c3.649-3.568,8.504-6.307,14.566-8.217c6.056-1.906,13.57-2.863,22.531-2.863h0.997v18.176c-9.461,0-16.226,1.705-20.292,5.104
		c-4.07,3.405-6.101,9.92-6.101,19.546V103.6c0,10.956-1.454,19.419-4.355,25.396c-2.908,5.977-7.015,10.624-12.326,13.943
		c5.312,3.321,9.418,7.966,12.326,13.942c2.901,5.976,4.355,14.44,4.355,25.396v38.342c0,9.625,2.031,16.141,6.101,19.545
		c4.066,3.399,10.831,5.104,20.292,5.104v18.176h-0.997c-8.961,0-16.475-0.915-22.531-2.738c-6.062-1.829-10.917-4.567-14.566-8.217
		c-3.652-3.652-6.223-8.134-7.718-13.445c-1.495-5.314-2.241-11.371-2.241-18.176v-44.814c0-2.988-0.459-5.932-1.368-8.84
		c-0.916-2.9-2.327-5.477-4.233-7.717c-1.911-2.241-4.276-4.066-7.096-5.477c-2.824-1.41-6.225-2.117-10.209-2.117V133.975z"/>
	<path d="M141.185,133.864l29.176-48.021h26.26l-43.037,65.041l44.373,66.499h-26.016l-30.393-49.236l-30.394,49.236H85.017
		l44.374-66.499L86.355,85.843h26.015L141.185,133.864z"/>
	<path d="M276.375,151.902c-3.981,0-7.387,0.707-10.207,2.117c-2.824,1.41-5.189,3.235-7.096,5.477
		c-1.91,2.24-3.321,4.816-4.232,7.717c-0.914,2.908-1.368,5.852-1.368,8.84v44.814c0,6.805-0.749,12.861-2.241,18.176
		c-1.494,5.312-4.07,9.793-7.72,13.445c-3.652,3.649-8.506,6.388-14.564,8.217c-6.063,1.823-13.569,2.738-22.533,2.738h-0.994
		v-18.176c9.461,0,16.222-1.704,20.291-5.104c4.064-3.404,6.1-9.92,6.1-19.545v-38.342c0-10.955,1.451-19.42,4.357-25.396
		c2.9-5.977,7.01-10.621,12.323-13.942c-5.313-3.32-9.423-7.967-12.323-13.943c-2.906-5.976-4.357-14.44-4.357-25.396V65.259
		c0-9.626-2.035-16.141-6.1-19.546c-4.069-3.399-10.83-5.104-20.291-5.104V22.434h0.994c8.964,0,16.471,0.957,22.533,2.863
		c6.059,1.911,10.912,4.649,14.564,8.217c3.649,3.57,6.226,8.009,7.72,13.321c1.492,5.314,2.241,11.37,2.241,18.173v44.817
		c0,2.987,0.454,5.936,1.368,8.839c0.911,2.906,2.322,5.477,4.232,7.718c1.906,2.241,4.271,4.068,7.096,5.477
		c2.82,1.413,6.226,2.117,10.207,2.117V151.902z"/>
</g>
</svg>
