<?xml version="1.0" encoding="UTF-8" standalone="no"?>
<svg
   version="1.1"
   id="Layer_3"
   x="0px"
   y="0px"
   width="283.46px"
   height="283.46px"
   viewBox="0 0 283.46 283.46"
   enable-background="new 0 0 283.46 283.46"
   xml:space="preserve"
   sodipodi:docname="wagon.svg"
   inkscape:version="1.2.2 (b0a8486541, 2022-12-01)"
   xmlns:inkscape="http://www.inkscape.org/namespaces/inkscape"
   xmlns:sodipodi="http://sodipodi.sourceforge.net/DTD/sodipodi-0.dtd"
   xmlns="http://www.w3.org/2000/svg"
   xmlns:svg="http://www.w3.org/2000/svg"><defs
   id="defs15" /><sodipodi:namedview
   id="namedview13"
   pagecolor="#ffffff"
   bordercolor="#000000"
   borderopacity="0.25"
   inkscape:showpageshadow="2"
   inkscape:pageopacity="0.0"
   inkscape:pagecheckerboard="0"
   inkscape:deskcolor="#d1d1d1"
   showgrid="false"
   inkscape:zoom="0.52385673"
   inkscape:cx="-151.75905"
   inkscape:cy="519.22594"
   inkscape:window-width="1920"
   inkscape:window-height="1015"
   inkscape:window-x="0"
   inkscape:window-y="0"
   inkscape:window-maximized="1"
   inkscape:current-layer="Layer_3" />

<g
   style="fill:#000000"
   id="g242"
   transform="matrix(5.3774231,0,0,5.3774231,7.5046153,-7.9483384)"><path
     id="path300"
     d="m 0.99997414,24.999958 c -0.5507722,0 -1.000040301535,0.449275 -1.000040301535,1.00004 v 4.000161 c 0,0.265625 0.09397976154,0.531064 0.281476701535,0.718564 l 2.46872486,2.43753 C 1.0587566,34.94919 -6.6161535e-5,37.347541 -6.6161535e-5,39.999837 c 0,5.515529 4.484503361535,10.00004 10.000040361535,10.00004 5.1757008,0 9.4337608,-3.953205 9.9376508,-9 h 10.124819 c 0.50389,5.046795 4.76195,9 9.937651,9 5.515545,0 10.00004,-4.484511 10.00004,-10.00004 0,-2.589796 -1.007904,-4.941115 -2.62506,-6.718443 l 2.374778,-2.62506 c 0.164063,-0.183594 0.250282,-0.410081 0.250282,-0.656175 v -4.000161 c 0,-0.550765 -0.445352,-1.00004 -1.00004,-1.00004 z m 9.00000006,6.999919 c 0.8359218,0 1.6485398,0.13678 2.4063358,0.375061 l -2.187611,5.156174 c -0.07422,-0.0078 -0.1406,-0.03119 -0.2187248,-0.03119 -0.078125,0 -0.1445074,0.02338 -0.2187248,0.03119 L 7.687585,32.374938 C 8.4219488,32.152282 9.1953,31.999877 9.9999742,31.999877 Z m 30.0001208,0 c 0.835923,0 1.648539,0.13678 2.406336,0.375061 l -2.187611,5.156174 c -0.07422,-0.0078 -0.1406,-0.03119 -0.218725,-0.03119 -0.07813,0 -0.144506,0.02338 -0.218725,0.03119 l -2.125221,-5.156174 c 0.742173,-0.226562 1.527555,-0.375061 2.343946,-0.375061 z m -33.7188054,0.906457 2.124859,5.156174 C 8.2928677,38.156258 8.1875899,38.261899 8.09384,38.37518 L 2.9688602,36.218763 c 0.7578122,-1.406248 1.8983689,-2.570242 3.3124294,-3.312429 z m 30.0001214,0 2.124859,5.156174 c -0.113281,0.09375 -0.218922,0.203297 -0.312672,0.312672 l -5.12498,-2.156417 c 0.757813,-1.406222 1.898745,-2.570255 3.312793,-3.312429 z m -22.5,0.06239 c 1.406246,0.757811 2.570244,1.898371 3.312429,3.312429 l -5.156174,2.125222 c -0.09375,-0.113281 -0.199391,-0.215015 -0.312672,-0.312671 z m 29.999758,0 c 1.406244,0.75781 2.570245,1.898373 3.312429,3.312429 l -5.156174,2.125222 c -0.09375,-0.113281 -0.202934,-0.218921 -0.312309,-0.312671 z m -41.4060941,4.625141 5.1561744,2.187248 c -0.00781,0.07422 -0.031194,0.1406 -0.031194,0.218725 0,0.07813 0.023383,0.144869 0.031194,0.219088 L 2.3750749,42.312589 C 2.1524197,41.578218 2.0000144,40.804521 2.0000144,39.999837 c 0,-0.835933 0.1367803,-1.648164 0.3750605,-2.405973 z m 29.9997581,0 5.156537,2.187248 c -0.0078,0.07422 -0.03119,0.1406 -0.03119,0.218725 0,0.07813 0.02338,0.144869 0.03119,0.219088 l -5.156537,2.124858 c -0.226562,-0.742182 -0.374698,-1.527545 -0.374698,-2.343946 0,-0.835932 0.136417,-1.648165 0.374698,-2.405973 z m 15.250161,0.06239 c 0.226563,0.742182 0.375061,1.527184 0.375061,2.343584 0,0.835932 -0.13678,1.648524 -0.375061,2.406336 l -5.156174,-2.18725 c 0.0078,-0.07422 0.03119,-0.140963 0.03119,-0.219088 0,-0.07813 -0.02338,-0.144506 -0.03119,-0.218725 z m -30.000121,0.0312 c 0.222656,0.734368 0.375061,1.507709 0.375061,2.312389 0,0.835931 -0.13678,1.648524 -0.375061,2.406336 l -5.156174,-2.187248 c 0.0078,-0.07422 0.03119,-0.140963 0.03119,-0.219088 0,-0.07813 -0.02338,-0.144506 -0.03119,-0.218725 z M 8.09384,41.593663 c 0.089843,0.109367 0.1717398,0.218921 0.281114,0.312671 l -2.1560535,5.12498 C 4.8126617,46.273502 3.6482899,45.132939 2.9061083,43.718884 Z m 29.968564,0 c 0.09375,0.113272 0.203296,0.218921 0.312671,0.312671 l -2.156416,5.12498 c -1.406241,-0.757812 -2.570242,-1.898376 -3.31243,-3.31243 z m -26.156296,0.03119 5.12498,2.156416 c -0.757802,1.40624 -1.898386,2.570253 -3.312429,3.31243 L 11.5938,41.937528 c 0.113281,-0.09374 0.218558,-0.19939 0.312308,-0.312671 z m 30.000121,0 5.12498,2.156416 c -0.757801,1.406239 -1.898388,2.570254 -3.312429,3.31243 l -2.124859,-5.156175 c 0.113281,-0.09374 0.218558,-0.203296 0.312308,-0.312671 z M 9.7812494,42.468925 c 0.074218,0.0078 0.1405998,0.03119 0.2187248,0.03119 0.07813,0 0.1445058,-0.02338 0.2187248,-0.03119 l 2.093664,5.156174 c -0.734363,0.222656 -1.507713,0.37506 -2.3123888,0.37506 -0.8359274,0 -1.6485311,-0.136779 -2.4063357,-0.37506 z m 30.0001206,0 c 0.07422,0.0078 0.1406,0.03119 0.218725,0.03119 0.07813,0 0.144506,-0.02338 0.218725,-0.03119 l 2.124859,5.156174 c -0.742174,0.226563 -1.527191,0.37506 -2.343584,0.37506 -0.835924,0 -1.648523,-0.136779 -2.406336,-0.37506 z" /><path
     d="m 15.646526,5.6692907 c 0.105469,0.176006 0.160156,0.29739 0.1875,0.339873 0.113281,0.200283 2.78125,5.0040203 2.78125,14.1532733 0,0.427875 -0.449219,0.776852 -1,0.776852 -0.550781,0 -1,-0.348977 -1,-0.776852 0,-8.821519 -2.566406,-13.4765623 -2.59375,-13.5220813 -0.08203,-0.145659 -0.21875,-0.373253 -0.375,-0.631192 -2.675781,1.195624 -11.3515622,5.0738153 -13.18750013,5.8506673 -0.234375,0.100141 -0.425781,0.264008 -0.5,0.461256 -0.0742188,0.197247 -0.0351563,0.400564 0.09375,0.582639 0.035156,0.05159 3.25390593,4.736976 3.78124993,10.511779 H 46.021526 c 0.527344,-5.774803 3.746094,-10.460192 3.78125,-10.511779 0.128906,-0.182075 0.167969,-0.385392 0.09375,-0.582639 -0.07422,-0.197248 -0.265625,-0.361115 -0.5,-0.461256 -1.839844,-0.779886 -10.527344,-4.6611123 -13.1875,-5.8506673 l -0.375,0.631192 c -0.02734,0.04855 -2.59375,4.7369773 -2.59375,13.5220813 0,0.427875 -0.445312,0.776852 -1,0.776852 -0.554687,0 -1,-0.348977 -1,-0.776852 0,-9.149253 2.667969,-13.9529903 2.78125,-14.1532733 l 0.1875,-0.339873 c -2.585937,0.485533 -5.09375,0.655469 -9.28125,0.655469 -4.195312,0 -6.695312,-0.166902 -9.28125,-0.655469 z"
     id="path233"
     style="stroke-width:0.881392" /></g></svg>
