<?xml version="1.0" encoding="UTF-8" standalone="no"?>
<!-- Generator: Adobe Illustrator 15.1.0, SVG Export Plug-In . SVG Version: 6.00 Build 0)  -->

<svg
   version="1.1"
   id="Layer_1"
   x="0px"
   y="0px"
   width="283.46px"
   height="283.46px"
   viewBox="0 0 283.46 283.46"
   enable-background="new 0 0 283.46 283.46"
   xml:space="preserve"
   sodipodi:docname="wand.svg"
   inkscape:version="1.2.2 (b0a8486541, 2022-12-01)"
   xmlns:inkscape="http://www.inkscape.org/namespaces/inkscape"
   xmlns:sodipodi="http://sodipodi.sourceforge.net/DTD/sodipodi-0.dtd"
   xmlns="http://www.w3.org/2000/svg"
   xmlns:svg="http://www.w3.org/2000/svg"><defs
   id="defs9">
	
</defs><sodipodi:namedview
   id="namedview7"
   pagecolor="#ffffff"
   bordercolor="#000000"
   borderopacity="0.25"
   inkscape:showpageshadow="2"
   inkscape:pageopacity="0.0"
   inkscape:pagecheckerboard="0"
   inkscape:deskcolor="#d1d1d1"
   showgrid="false"
   inkscape:zoom="0.18521132"
   inkscape:cx="-720.79826"
   inkscape:cy="-70.190093"
   inkscape:window-width="1920"
   inkscape:window-height="1015"
   inkscape:window-x="0"
   inkscape:window-y="0"
   inkscape:window-maximized="1"
   inkscape:current-layer="Layer_1" />

<path
   id="path2"
   style="stroke:none;fill:#000000;fill-opacity:1"
   d="m 148.31635,2226.6981 c 31.55771,-15.3228 44.6761,-53.2261 29.35329,-84.7838 L 66.819981,1913.6653 c -15.322817,-31.5577 -53.200968,-44.6874 -84.758679,-29.3646 -31.55771,15.3228 -44.676104,53.226 -29.353287,84.7838 l 110.824553,228.2603 c 15.322817,31.5577 53.226072,44.6761 84.783782,29.3533 z m -458.70607,89.9695 c 23.38956,-7.9949 40.93976,-29.3641 42.83978,-55.5153 l 18.12927,-253.1493 c 2.535,-35.0101 -23.80463,-65.3254 -58.72992,-67.831 -11.4809,-0.8428 -22.49607,1.4856 -32.19736,6.1961 -19.74497,9.5871 -33.93175,29.1716 -35.6223,52.5589 l -18.10417,253.138 c -2.56271,34.953 23.7933,65.3003 58.71858,67.8059 8.73133,0.6264 17.1696,-0.5383 24.96612,-3.2033 z m 802.22202,-389.154 c 11.34049,-4.5382 21.47687,-12.3925 28.81679,-23.2552 19.63018,-28.995 12.08794,-68.5059 -16.96412,-88.1083 l -210.1562,-142.3135 c -19.42401,-13.1352 -43.57436,-14.0899 -63.31933,-4.5028 -9.70128,4.7105 -18.32593,11.9123 -24.76387,21.4556 -19.63018,28.995 -12.11566,68.4488 16.96412,88.1083 l 210.13109,142.3248 c 18.14022,12.2159 40.39071,13.8548 59.29152,6.2911 z m -1233.36815,237.4912 c 11.34037,-4.5427 21.47128,-12.3989 28.76902,-23.294 l 142.31348,-210.1562 c 19.63017,-28.995 12.04221,-68.4531 -16.95279,-88.0833 -19.42401,-13.1351 -43.58569,-14.115 -63.33066,-4.5278 -9.70129,4.7104 -18.3397,11.9487 -24.77765,21.492 l -142.32481,210.1311 c -19.63018,28.995 -12.06285,68.4945 16.98922,88.0969 18.15754,12.2516 40.41357,13.9125 59.31419,6.3413 z M 639.01424,1494.341 c 23.39582,-7.9616 40.95165,-29.408 42.83088,-55.6019 2.56271,-34.953 -23.7933,-65.3003 -58.71859,-67.8059 l -253.17446,-18.118 c -11.4809,-0.8428 -22.48231,1.4493 -32.1836,6.1598 -19.74496,9.5871 -33.93174,29.1715 -35.6223,52.5588 -2.50564,34.9253 23.82974,65.3141 58.75503,67.8197 l 253.14936,18.1293 c 8.73091,0.6618 17.16508,-0.4879 24.96368,-3.1418 z m -820.05845,156.7458 c 10.82275,-5.7544 19.42273,-15.646 23.29732,-28.3182 L -13.191037,1150.045 -364.12989,1042.7662 -508.66064,1515.4784 c -7.74909,25.3439 6.46341,52.0816 31.81588,59.8257 l 259.27218,79.2804 c 12.67201,3.8743 25.70562,2.2567 36.52837,-3.4977 z m -857.48689,164.6086 228.24906,-110.8496 c 31.55771,-15.3229 44.68743,-53.201 29.36462,-84.7587 -15.32282,-31.5577 -53.22607,-44.6761 -84.78379,-29.3533 l -228.26039,110.8246 c -31.5577,15.3228 -44.6761,53.226 -29.3533,84.7837 15.3229,31.5577 53.2261,44.6761 84.7838,29.3533 z M 331.05867,1150.6752 559.31904,1039.8507 c 31.55771,-15.3228 44.6761,-53.22609 29.35328,-84.7838 -15.32281,-31.55771 -53.22607,-44.67611 -84.78378,-29.35329 L 275.63951,1036.5633 c -31.55771,15.3228 -44.68744,53.2009 -29.36462,84.7586 15.32281,31.5578 53.22607,44.6761 84.78378,29.3533 z m -337.4535136,-123.4609 -0.056669,-0.1255 C 67.424413,827.19901 147.13886,602.82404 192.04082,449.26519 281.79273,142.5875 835.9875,-1969.8143 859.55948,-2059.5723 c 37.59996,-143.0238 23.07719,-266.6547 -33.04876,-283.1697 -56.12494,-16.212 -134.97516,80.009 -180.41912,220.8028 -28.55797,88.504 -700.721465,2170.374439 -789.22338,2473.27714 -44.22495,151.50784 -97.76172,382.15758 -143.19667,590.39137 z M -879.65359,1385.4019 c 23.38803,-7.9777 40.98564,-29.3327 42.86488,-55.5267 2.50564,-34.9253 -23.80464,-65.3254 -58.72992,-67.831 L -1148.6567,1243.94 c -11.4809,-0.8428 -22.5074,1.4606 -32.2087,6.1711 -19.7449,9.5871 -33.9317,29.1715 -35.6223,52.5588 -2.5627,34.953 23.8184,65.289 58.7437,67.7946 l 253.1494,18.1293 c 8.71705,0.6333 17.145,-0.5327 24.94101,-3.1919 z m 110.7738,-311.5384 c 11.33875,-4.5461 21.47317,-12.3915 28.79169,-23.2439 19.63017,-28.995 12.09927,-68.48069 -16.95279,-88.08316 L -967.17198,820.21162 c -19.42401,-13.13516 -43.61082,-14.10368 -63.35572,-4.51653 -9.7013,4.71045 -18.3146,11.93737 -24.7526,21.48065 -19.6302,28.995 -12.0993,68.48074 16.9528,88.08321 l 210.15619,142.31345 c 18.15754,12.2516 40.39361,13.8679 59.29152,6.2911 z m 252.17595,-216.75514 c 31.55771,-15.32282 44.6761,-53.22607 29.35329,-84.78378 L -598.17511,544.06421 c -15.32281,-31.55771 -53.22607,-44.6761 -84.78378,-29.35329 -31.55771,15.32282 -44.6761,53.22607 -29.35328,84.78378 l 110.84965,228.24904 c 15.32282,31.55771 53.20097,44.68744 84.75868,29.36462 z"
   transform="matrix(-0.06297301,-0.02843188,0.02843188,-0.06297301,140.93474,151.52405)" /></svg>
