<?xml version="1.0" encoding="UTF-8" standalone="no"?>
<!-- Generator: Adobe Illustrator 15.1.0, SVG Export Plug-In . SVG Version: 6.00 Build 0)  -->

<svg
   version="1.1"
   id="Layer_3"
   x="0px"
   y="0px"
   width="283.46px"
   height="283.46px"
   viewBox="0 0 283.46 283.46"
   style="enable-background:new 0 0 283.46 283.46;"
   xml:space="preserve"
   sodipodi:docname="watch.svg"
   inkscape:version="1.2.2 (b0a8486541, 2022-12-01)"
   xmlns:inkscape="http://www.inkscape.org/namespaces/inkscape"
   xmlns:sodipodi="http://sodipodi.sourceforge.net/DTD/sodipodi-0.dtd"
   xmlns="http://www.w3.org/2000/svg"
   xmlns:svg="http://www.w3.org/2000/svg"><defs
   id="defs9701" /><sodipodi:namedview
   id="namedview9699"
   pagecolor="#ffffff"
   bordercolor="#000000"
   borderopacity="0.25"
   inkscape:showpageshadow="2"
   inkscape:pageopacity="0.0"
   inkscape:pagecheckerboard="0"
   inkscape:deskcolor="#d1d1d1"
   showgrid="false"
   inkscape:zoom="1.0477135"
   inkscape:cx="-151.28182"
   inkscape:cy="316.88053"
   inkscape:window-width="1920"
   inkscape:window-height="1015"
   inkscape:window-x="0"
   inkscape:window-y="0"
   inkscape:window-maximized="1"
   inkscape:current-layer="Layer_3" />

<path
   id="path9892"
   style="display:inline;fill:#000000"
   transform="matrix(13.369605,0,0,10.074616,-17.357742,20.83473)"
   d="m 12,10 c -1.1046,0 -2,0.8954 -2,2 0,1.1046 0.8954,2 2,2 1.1046,0 2,-0.8954 2,-2 0,-1.1046 -0.8954,-2 -2,-2 z M 11.899245,3.9999621 c -2.0473739,0 -4.0948333,0.7811608 -5.6569251,2.3432578 L 4.1209911,8.4645011 c -0.01557,0.01556 -0.030986,0.031068 -0.046456,0.046528 -0.6268786,0.6267988 -1.1670043,1.1669347 -1.5413635,1.6575541 -0.4011992,0.525898 -0.7050157,1.110653 -0.7050157,1.831451 0,0.7208 0.3038165,1.305554 0.7050157,1.831452 0.3743592,0.4906 0.9144849,1.030756 1.5413635,1.657554 l 2.1677845,2.167809 c 3.1241838,3.124094 8.1896111,3.124094 11.3137051,0 l 2.16793,-2.167809 c 0.6269,-0.626798 1.166964,-1.166954 1.541364,-1.657554 0.401198,-0.525898 0.705016,-1.110652 0.705016,-1.831452 0,-0.720798 -0.303818,-1.305553 -0.705016,-1.831451 -0.3744,-0.4906194 -0.914464,-1.0307453 -1.541364,-1.6575541 l -2.16793,-2.167809 C 15.993977,4.7811229 13.94662,3.9999621 11.899245,3.9999621 Z m 8.77e-4,3.9162861 a 4.0999323,4.0836813 0 0 1 4.099931,4.0837858 4.0999323,4.0836813 0 0 1 -4.099931,4.083593 4.0999323,4.0836813 0 0 1 -4.0999307,-4.083593 4.0999323,4.0836813 0 0 1 4.0999307,-4.0837858 z" /></svg>
