<?xml version="1.0" encoding="UTF-8" standalone="no"?>
<!-- Generator: Adobe Illustrator 15.1.0, SVG Export Plug-In . SVG Version: 6.00 Build 0)  -->

<svg
   version="1.1"
   id="Layer_3"
   x="0px"
   y="0px"
   width="283.46px"
   height="283.46px"
   viewBox="0 0 283.46 283.46"
   style="enable-background:new 0 0 283.46 283.46;"
   xml:space="preserve"
   sodipodi:docname="watch-stop.svg"
   inkscape:version="1.2.2 (b0a8486541, 2022-12-01)"
   xmlns:inkscape="http://www.inkscape.org/namespaces/inkscape"
   xmlns:sodipodi="http://sodipodi.sourceforge.net/DTD/sodipodi-0.dtd"
   xmlns="http://www.w3.org/2000/svg"
   xmlns:svg="http://www.w3.org/2000/svg"><defs
   id="defs9701" /><sodipodi:namedview
   id="namedview9699"
   pagecolor="#ffffff"
   bordercolor="#000000"
   borderopacity="0.25"
   inkscape:showpageshadow="2"
   inkscape:pageopacity="0.0"
   inkscape:pagecheckerboard="0"
   inkscape:deskcolor="#d1d1d1"
   showgrid="false"
   inkscape:zoom="1.0477135"
   inkscape:cx="-55.358647"
   inkscape:cy="235.75148"
   inkscape:window-width="1920"
   inkscape:window-height="1015"
   inkscape:window-x="0"
   inkscape:window-y="0"
   inkscape:window-maximized="1"
   inkscape:current-layer="Layer_3" />

<path
   id="path2995"
   style="display:inline;fill:#000000"
   d="M 11.930463 4.0002262 C 10.78806 3.9958691 9.6449738 4.2345711 8.5857494 4.7162733 C 8.0830099 4.944903 7.8607859 5.5379369 8.0894057 6.0406764 C 8.3180354 6.5434159 8.9110363 6.7654578 9.4137758 6.5368381 C 11.627054 5.5303291 14.323661 5.9390923 16.141859 7.7572705 L 19.143676 10.759107 C 19.692076 11.307507 19.800724 11.431575 19.853224 11.530175 C 20.009423 11.823874 20.009423 12.175932 19.853224 12.469632 C 19.800724 12.568231 19.692076 12.692495 19.143676 13.240895 L 19.09174 13.292978 C 18.701141 13.683478 18.701141 14.316459 19.09174 14.707058 C 19.48224 15.097558 20.115466 15.097558 20.505966 14.707058 L 20.557902 14.654975 C 20.588102 14.624875 20.617862 14.595094 20.647462 14.565494 C 21.054562 14.159494 21.406155 13.808688 21.618755 13.409088 C 22.087455 12.528189 22.087455 11.471717 21.618755 10.590718 C 21.406155 10.191118 21.054562 9.8403822 20.647462 9.4343126 C 20.617862 9.4048026 20.588102 9.3749812 20.557902 9.3448312 L 17.556085 6.3431901 C 16.001417 4.7885037 13.966919 4.0079931 11.930463 4.0002262 z M 3.1910363 4.1300428 C 2.8865945 4.1242822 2.5833657 4.2571233 2.3820433 4.515968 C 2.0429739 4.9519172 2.1215261 5.5802099 2.5574751 5.9192793 L 4.8686308 7.7169353 L 4.0745399 8.5111073 C 3.4476611 9.1379159 2.9074893 9.6778704 2.5331301 10.168569 C 2.1319309 10.694369 1.8281568 11.279105 1.8281568 11.999903 C 1.8281568 12.017372 1.8285406 12.034676 1.8288945 12.051986 C 1.8288713 12.056454 1.8281568 12.060627 1.8281568 12.065105 C 1.8281568 12.08702 1.8309999 12.10766 1.8315503 12.129328 C 1.8316874 12.132008 1.8318475 12.13468 1.831993 12.137356 C 1.8518423 12.831789 2.1487298 13.401687 2.5402123 13.914844 C 2.9183055 14.410343 3.4638326 14.955896 4.0969669 15.588949 L 6.2863973 17.778405 C 9.4417647 20.933681 14.557797 20.933681 17.713073 17.778405 L 17.753206 17.738265 L 20.557459 19.919301 C 20.993459 20.258401 21.621766 20.179763 21.960766 19.743863 C 22.299866 19.307863 22.221334 18.67955 21.785334 18.340552 L 4.0979997 4.5837155 L 3.7853504 4.3405297 C 3.608246 4.2027827 3.3993387 4.1339842 3.1910363 4.1300428 z M 8.2785592 10.386301 L 10.098978 11.806647 C 10.088086 11.891366 10.081568 11.977377 10.081568 12.065105 C 10.081568 13.180731 10.985849 14.084996 12.101468 14.084996 C 12.362174 14.084996 12.6108 14.034802 12.839344 13.944802 L 14.562235 15.289177 C 13.844574 15.858605 12.946452 16.185435 12.000694 16.189474 C 10.870207 16.189473 9.8465935 15.736954 9.0993559 15.00546 A 4.065078 4.1988309 0 0 1 7.9346302 12.065105 A 4.065078 4.1988309 0 0 1 8.2785592 10.386301 z M 16.512494 12.145188 C 16.514511 12.139744 16.501203 12.158794 16.496559 12.163985 C 16.497481 12.166441 16.498146 12.168568 16.499067 12.171034 C 16.502935 12.163345 16.511068 12.149036 16.512494 12.145188 z "
   transform="matrix(13.237425,0,0,9.9750122,-17.116104,21.380898)" /></svg>
