<?xml version="1.0" encoding="UTF-8" standalone="no"?>
<svg
   version="1.1"
   id="Layer_3"
   x="0px"
   y="0px"
   width="283.46px"
   height="283.46px"
   viewBox="0 0 283.46 283.46"
   enable-background="new 0 0 283.46 283.46"
   xml:space="preserve"
   sodipodi:docname="web-crawler.svg"
   inkscape:version="1.2.2 (b0a8486541, 2022-12-01)"
   xmlns:inkscape="http://www.inkscape.org/namespaces/inkscape"
   xmlns:sodipodi="http://sodipodi.sourceforge.net/DTD/sodipodi-0.dtd"
   xmlns="http://www.w3.org/2000/svg"
   xmlns:svg="http://www.w3.org/2000/svg"><path
   id="path6547"
   style="stroke:none;stroke-width:2.16408;stroke-dasharray:none;stroke-opacity:1"
   d="M 20.988281 43.277344 C 13.860302 43.277344 8.0585937 49.079052 8.0585938 56.207031 L 8.0585938 227.25977 C 8.0605935 234.38674 13.859396 240.18359 20.984375 240.18359 L 262.45508 240.18359 C 269.58005 240.18359 275.38086 234.38674 275.38086 227.25977 L 275.40039 227.25977 L 275.40039 56.207031 C 275.39939 49.079052 269.59972 43.277344 262.46875 43.277344 L 20.988281 43.277344 z M 24.34375 52.851562 L 259.12305 52.851562 C 262.82602 52.849565 265.83008 55.848793 265.83008 59.550781 L 265.83008 59.554688 L 265.83008 197.06641 C 265.83008 200.77038 262.82802 203.77344 259.12305 203.77344 L 24.34375 203.77344 C 20.639762 203.77344 17.634766 200.77038 17.634766 197.06641 L 17.634766 59.558594 C 17.634766 55.854603 20.638762 52.851563 24.34375 52.851562 z M 194.99219 58.597656 C 193.87511 58.597656 192.77891 58.825233 191.83008 59.255859 L 171.36523 68.535156 L 32.650391 68.535156 A 8.2053158 8.2053158 0 0 0 24.445312 76.740234 L 24.445312 79.710938 C 24.427316 79.897076 24.365134 80.074437 24.365234 80.263672 L 24.365234 189.63086 C 24.365234 194.25046 29.817129 198.00977 36.521484 198.00977 L 247.89258 198.00977 C 254.59694 198.00977 260.05078 194.24978 260.05078 189.63086 L 260.05078 80.261719 C 260.05078 79.94431 260.01965 79.63219 259.96875 79.324219 L 259.96875 70.376953 C 259.96875 63.883201 252.29965 58.597656 242.875 58.597656 L 194.99219 58.597656 z M 212.99219 62.832031 A 2.7684681 2.7262513 0 0 1 215.76172 65.556641 A 2.7684681 2.7262513 0 0 1 212.99219 68.285156 A 2.7684681 2.7262513 0 0 1 210.22461 65.556641 A 2.7684681 2.7262513 0 0 1 212.99219 62.832031 z M 222.64844 62.832031 A 2.7684681 2.7262513 0 0 1 225.41797 65.556641 A 2.7684681 2.7262513 0 0 1 222.64844 68.285156 A 2.7684681 2.7262513 0 0 1 219.88281 65.556641 A 2.7684681 2.7262513 0 0 1 222.64844 62.832031 z M 232.30664 62.832031 A 2.7684681 2.7262513 0 0 1 235.07422 65.556641 A 2.7684681 2.7262513 0 0 1 232.30664 68.285156 A 2.7684681 2.7262513 0 0 1 229.53906 65.556641 A 2.7684681 2.7262513 0 0 1 232.30664 62.832031 z M 107.70898 82.214844 L 107.70898 82.216797 C 112.19236 82.217143 115.93206 85.200946 115.93164 89.011719 A 0.51902051 0.51902051 0 0 0 115.93164 89.013672 C 115.93068 89.959108 115.67142 90.886551 115.21484 91.744141 L 115.21484 106 A 0.51902051 0.51902051 0 0 1 114.69531 106.51953 L 110.68945 106.51953 C 110.81009 114.2856 113.61259 121.32604 117.77148 126.39648 L 128.71094 113.99023 A 0.51902051 0.51902051 0 0 1 129.09961 113.81445 L 154.88281 113.81445 A 0.51902051 0.51902051 0 0 1 155.27148 113.99023 L 166.95703 127.13281 C 171.14825 121.39229 173.93565 115.01483 174.05664 107.27344 L 170.04883 107.27344 A 0.51902051 0.51902051 0 0 1 169.5293 106.75391 L 169.5293 91.9375 C 169.18925 91.189551 168.99428 90.396443 168.98828 89.591797 A 0.51902051 0.51902051 0 0 1 168.98828 89.587891 C 168.98861 85.777203 172.72961 82.792843 177.21289 82.792969 C 181.69575 82.793324 185.43523 85.77755 185.43555 89.587891 C 185.43531 90.833716 184.98882 92.040028 184.2207 93.091797 L 184.2207 106.75391 A 0.51902051 0.51902051 0 0 1 183.70117 107.27344 L 179.63477 107.27344 C 179.50375 116.98537 175.74244 125.95155 169.04102 132.73438 L 169.04102 135.69141 C 176.53335 134.31165 182.0659 132.88672 185.67969 130.94727 L 184.16211 129.9375 A 0.51902051 0.51902051 0 0 1 183.99414 129.25586 L 191.09961 116.33984 C 191.08256 115.0182 191.43057 113.76185 192.16992 112.73828 C 194.40209 109.65009 199.18081 109.42128 202.81445 112.04688 C 206.44784 114.67257 207.73116 119.28038 205.5 122.36914 A 0.51902051 0.51902051 0 0 0 205.49805 122.37109 C 205.11618 122.89332 204.6211 123.32303 204.08008 123.69336 L 196.26953 137.35352 A 0.51902051 0.51902051 0 0 1 195.5332 137.52734 L 191.23242 134.66016 C 185.92748 137.63367 177.83837 140.55455 168.28711 142.07422 L 168.28711 149.79688 C 172.73776 154.28326 176.41931 160.20916 177.99805 166.90625 L 182.92578 166.90625 A 0.51902051 0.51902051 0 0 1 183.44531 167.42578 L 183.44531 182.35742 C 184.05333 183.31534 184.40511 184.38024 184.41211 185.47461 A 0.51902051 0.51902051 0 0 0 184.41211 185.47656 C 184.41178 189.2869 180.67232 192.27113 176.18945 192.27148 C 171.70618 192.27161 167.96713 189.28725 167.9668 185.47656 A 0.51902051 0.51902051 0 0 0 167.9668 185.47461 C 167.9711 184.48272 168.25841 183.51275 168.76172 182.62305 L 168.76172 167.42578 A 0.51902051 0.51902051 0 0 1 169.28125 166.90625 L 171.58789 166.90625 C 170.15431 162.83665 168.12161 158.81184 165.48242 155.37891 L 155.29102 167.75391 A 0.51902051 0.51902051 0 0 1 154.89062 167.94336 L 129.10547 167.94336 A 0.51902051 0.51902051 0 0 1 128.70703 167.75391 L 118.51953 155.37891 C 115.87894 158.82047 113.8416 162.83853 112.41602 166.90625 L 114.69922 166.90625 A 0.51902051 0.51902051 0 0 1 115.21875 167.42578 L 115.21875 182.15039 C 115.68186 183.01227 115.94527 183.94673 115.94727 184.89844 C 115.94771 188.70956 112.20645 191.69544 107.72266 191.69531 C 103.23928 191.69496 99.49957 188.70921 99.5 184.89844 A 0.51902051 0.51902051 0 0 0 99.5 184.89648 C 99.50656 183.76083 99.883881 182.65611 100.53516 181.67188 L 100.53516 166.66016 A 0.51902051 0.51902051 0 0 1 101.05469 166.14062 L 105.97852 166.14062 C 107.56113 159.46498 111.2503 153.53234 115.69727 149.02734 L 115.69727 141.31836 C 106.17837 139.82444 98.09206 137.60724 92.734375 133.91016 L 88.449219 136.76758 A 0.51902051 0.51902051 0 0 1 87.708984 136.59375 L 80.357422 123.72656 C 79.396837 123.30155 78.563771 122.67709 77.962891 121.85547 A 0.51902051 0.51902051 0 0 0 77.960938 121.85352 C 75.728958 118.76468 77.012391 114.15513 80.646484 111.5293 C 84.28042 108.903 89.060841 109.13188 91.292969 112.2207 C 91.748468 112.85312 92.056756 113.57977 92.228516 114.35547 L 100.74414 129.25391 A 0.51902051 0.51902051 0 0 1 100.58008 129.94336 L 99.105469 130.92578 C 103.34185 132.88341 108.8879 134.29888 115.69727 135.67578 L 115.69727 132.74219 C 108.99883 125.96557 105.23844 116.99149 105.10742 107.2793 L 101.05078 107.2793 A 0.51902051 0.51902051 0 0 1 100.53125 106.75977 L 100.53125 92.253906 C 99.873035 91.265567 99.490375 90.155884 99.484375 89.013672 A 0.51902051 0.51902051 0 0 0 99.484375 89.011719 C 99.483945 85.200599 103.22519 82.214718 107.70898 82.214844 z M 141.72461 210.48242 C 147.28558 210.48242 151.78897 214.98795 151.79297 220.54492 C 151.79697 226.10192 147.29435 230.61328 141.73438 230.61328 C 136.17538 230.61328 131.66606 226.10678 131.66406 220.55078 C 131.66206 214.99381 136.16661 210.48742 141.72461 210.48242 z " /><defs
   id="defs15" /><sodipodi:namedview
   id="namedview13"
   pagecolor="#ffffff"
   bordercolor="#000000"
   borderopacity="0.25"
   inkscape:showpageshadow="2"
   inkscape:pageopacity="0.0"
   inkscape:pagecheckerboard="0"
   inkscape:deskcolor="#d1d1d1"
   showgrid="false"
   inkscape:zoom="0.52385674"
   inkscape:cx="48.677431"
   inkscape:cy="-137.44216"
   inkscape:window-width="1920"
   inkscape:window-height="1015"
   inkscape:window-x="0"
   inkscape:window-y="0"
   inkscape:window-maximized="1"
   inkscape:current-layer="Layer_3" />

</svg>
