<?xml version="1.0" encoding="UTF-8" standalone="no"?>
<svg
   version="1.1"
   id="Layer_3"
   x="0px"
   y="0px"
   width="283.46px"
   height="283.46px"
   viewBox="0 0 283.46 283.46"
   enable-background="new 0 0 283.46 283.46"
   xml:space="preserve"
   sodipodi:docname="web-crawler-alt-1.svg"
   inkscape:version="1.2.2 (b0a8486541, 2022-12-01)"
   xmlns:inkscape="http://www.inkscape.org/namespaces/inkscape"
   xmlns:sodipodi="http://sodipodi.sourceforge.net/DTD/sodipodi-0.dtd"
   xmlns="http://www.w3.org/2000/svg"
   xmlns:svg="http://www.w3.org/2000/svg"><defs
   id="defs15" /><sodipodi:namedview
   id="namedview13"
   pagecolor="#ffffff"
   bordercolor="#000000"
   borderopacity="0.25"
   inkscape:showpageshadow="2"
   inkscape:pageopacity="0.0"
   inkscape:pagecheckerboard="0"
   inkscape:deskcolor="#d1d1d1"
   showgrid="false"
   inkscape:zoom="0.37042265"
   inkscape:cx="352.30027"
   inkscape:cy="404.94284"
   inkscape:window-width="1920"
   inkscape:window-height="1015"
   inkscape:window-x="0"
   inkscape:window-y="0"
   inkscape:window-maximized="1"
   inkscape:current-layer="Layer_3" />

<path
   id="path9309"
   style="color:#000000;fill:#000000;stroke-width:2;stroke-linecap:round;stroke-linejoin:round;-inkscape-stroke:none"
   d="M 75.673828 36.716797 C 67.034007 36.716541 59.827304 42.468846 59.828125 49.8125 A 1.0001 1.0001 0 0 0 59.828125 49.818359 C 59.840595 52.01928 60.575442 54.158091 61.84375 56.0625 L 61.84375 84.013672 A 1.0001 1.0001 0 0 0 62.84375 85.013672 L 70.660156 85.013672 C 70.912621 103.7281 78.15918 121.01832 91.066406 134.07617 L 91.066406 139.73242 C 77.945438 137.07927 67.258795 134.34833 59.095703 130.57617 L 61.9375 128.68555 A 1.0001 1.0001 0 0 0 62.251953 127.35742 L 45.845703 98.648438 C 45.514749 97.153738 44.918717 95.753753 44.041016 94.535156 A 1.0001 1.0001 0 0 0 44.041016 94.533203 C 39.739934 88.581282 30.529569 88.140562 23.527344 93.201172 C 16.524816 98.260914 14.052709 107.14382 18.353516 113.0957 A 1.0001 1.0001 0 0 0 18.357422 113.09961 C 19.515245 114.68277 21.117807 115.88614 22.96875 116.70508 L 37.136719 141.49805 A 1.0001 1.0001 0 0 0 38.560547 141.83398 L 46.818359 136.32812 C 57.142089 143.45206 72.724431 147.72488 91.066406 150.60352 L 91.066406 165.45898 C 82.497554 174.13966 75.389398 185.57029 72.339844 198.43359 L 62.851562 198.43359 A 1.0001 1.0001 0 0 0 61.851562 199.43359 L 61.851562 228.36133 C 60.59663 230.25785 59.870062 232.38397 59.857422 234.57227 A 1.0001 1.0001 0 0 0 59.857422 234.57812 C 59.856595 241.92111 67.062148 247.67316 75.701172 247.67383 C 84.340996 247.67408 91.547702 241.92179 91.546875 234.57812 A 1.0001 1.0001 0 0 0 91.546875 234.57617 C 91.543475 232.74232 91.036905 230.94395 90.144531 229.2832 L 90.144531 200.9082 A 1.0001 1.0001 0 0 0 89.144531 199.9082 L 84.744141 199.9082 C 87.491124 192.07011 91.415747 184.32686 96.503906 177.69531 L 116.13281 201.54297 A 1.0001 1.0001 0 0 0 116.9043 201.9082 L 166.58789 201.9082 A 1.0001 1.0001 0 0 0 167.35938 201.54297 L 186.99609 177.69531 C 192.08155 184.31023 195.99934 192.06648 198.76172 199.9082 L 194.31641 199.9082 A 1.0001 1.0001 0 0 0 193.31641 200.9082 L 193.31641 230.19141 C 192.34659 231.90577 191.79148 233.77624 191.7832 235.6875 A 1.0001 1.0001 0 0 0 191.7832 235.69141 C 191.78384 243.03423 198.99006 248.78542 207.62891 248.78516 C 216.26694 248.78449 223.47202 243.03355 223.47266 235.69141 A 1.0001 1.0001 0 0 0 223.47266 235.68945 A 1.0001 1.0001 0 0 0 223.47266 235.6875 A 1.0001 1.0001 0 0 0 223.47266 235.68555 C 223.45936 233.57682 222.78097 231.52355 221.60938 229.67773 L 221.60938 200.9082 A 1.0001 1.0001 0 0 0 220.60938 199.9082 L 211.11523 199.9082 C 208.07318 187.00357 200.97636 175.58426 192.40039 166.93945 L 192.40039 152.05664 C 210.80473 149.1284 226.39117 143.50115 236.61328 137.77148 L 244.90039 143.29688 A 1.0001 1.0001 0 0 0 246.32227 142.96094 L 261.37109 116.63867 C 262.41357 115.92509 263.36573 115.10003 264.10156 114.09375 A 1.0001 1.0001 0 0 0 264.10547 114.08984 C 268.40468 108.13813 265.93282 99.256706 258.93164 94.197266 C 251.92997 89.137984 242.72109 89.578672 238.41992 95.529297 C 236.99526 97.501616 236.32458 99.924005 236.35742 102.4707 L 222.66797 127.35742 A 1.0001 1.0001 0 0 0 222.99023 128.67188 L 225.91602 130.61914 C 218.95263 134.35629 208.29245 137.10111 193.85547 139.75977 L 193.85547 134.0625 C 206.76852 120.99268 214.01512 103.71393 214.26758 85 L 222.10352 85 A 1.0001 1.0001 0 0 0 223.10352 84 L 223.10352 57.673828 C 224.58362 55.647161 225.4429 53.324403 225.44336 50.923828 C 225.44273 43.581685 218.23765 37.830748 209.59961 37.830078 C 200.96077 37.829824 193.75454 43.581008 193.75391 50.923828 A 1.0001 1.0001 0 0 0 193.75391 50.931641 C 193.76661 52.482105 194.14164 54.009935 194.79688 55.451172 L 194.79688 84 A 1.0001 1.0001 0 0 0 195.79688 85 L 203.51758 85 C 203.28446 99.916893 197.91393 112.20616 189.83789 123.26758 L 167.32227 97.941406 A 1.0001 1.0001 0 0 0 166.57422 97.605469 L 116.89062 97.605469 A 1.0001 1.0001 0 0 0 116.14062 97.943359 L 95.064453 121.84961 C 87.050678 112.07939 81.648489 98.511319 81.416016 83.546875 L 89.136719 83.546875 A 1.0001 1.0001 0 0 0 90.136719 82.546875 L 90.136719 55.076172 C 91.016498 53.423706 91.51575 51.636204 91.517578 49.814453 A 1.0001 1.0001 0 0 0 91.517578 49.8125 C 91.518399 42.469525 84.312849 36.717467 75.673828 36.716797 z " /></svg>
