<?xml version="1.0" encoding="UTF-8" standalone="no"?>
<svg
   version="1.1"
   id="Layer_3"
   x="0px"
   y="0px"
   width="283.46px"
   height="283.46px"
   viewBox="0 0 283.46 283.46"
   enable-background="new 0 0 283.46 283.46"
   xml:space="preserve"
   sodipodi:docname="workflow.svg"
   inkscape:version="1.2.2 (b0a8486541, 2022-12-01)"
   xmlns:inkscape="http://www.inkscape.org/namespaces/inkscape"
   xmlns:sodipodi="http://sodipodi.sourceforge.net/DTD/sodipodi-0.dtd"
   xmlns="http://www.w3.org/2000/svg"
   xmlns:svg="http://www.w3.org/2000/svg"><defs
   id="defs15" /><sodipodi:namedview
   id="namedview13"
   pagecolor="#ffffff"
   bordercolor="#000000"
   borderopacity="0.25"
   inkscape:showpageshadow="2"
   inkscape:pageopacity="0.0"
   inkscape:pagecheckerboard="0"
   inkscape:deskcolor="#d1d1d1"
   showgrid="false"
   inkscape:zoom="0.74084529"
   inkscape:cx="-205.84595"
   inkscape:cy="328.00371"
   inkscape:window-width="1920"
   inkscape:window-height="1015"
   inkscape:window-x="0"
   inkscape:window-y="0"
   inkscape:window-maximized="1"
   inkscape:current-layer="Layer_3" />

<path
   d="M 2,5 A 3,3 0 1 1 5.965,7.827 0.915,0.915 0 0 1 6,8 v 5 A 1,1 0 0 1 4,13 V 8 A 0.915,0.915 0 0 1 4.035,7.827 2.989,2.989 0 0 1 2,5 Z M 19.965,16.173 A 0.915,0.915 0 0 0 20,16 v -4 a 1,1 0 0 0 -2,0 v 4 a 0.915,0.915 0 0 0 0.035,0.173 3,3 0 1 0 1.93,0 z M 21,2 h -4 a 1,1 0 0 0 -1,1 v 1 h -4 a 1,1 0 0 0 0,2 h 4 v 1 a 1,1 0 0 0 1,1 h 4 A 1,1 0 0 0 22,7 V 3 A 1,1 0 0 0 21,2 Z M 12,18 H 8 V 17 A 1,1 0 0 0 7,16 H 3 a 1,1 0 0 0 -1,1 v 4 a 1,1 0 0 0 1,1 h 4 a 1,1 0 0 0 1,-1 v -1 h 4 a 1,1 0 0 0 0,-2 z"
   id="path233"
   style="fill:#000000"
   transform="matrix(13.446425,0,0,13.446425,-19.626899,-19.627174)" /></svg>
