<?xml version="1.0" encoding="UTF-8" standalone="no"?>
<!-- Generator: Adobe Illustrator 15.1.0, SVG Export Plug-In . SVG Version: 6.00 Build 0)  -->

<svg
   version="1.1"
   id="Layer_1"
   x="0px"
   y="0px"
   width="283.465px"
   height="283.465px"
   viewBox="0 0 283.465 283.465"
   enable-background="new 0 0 283.465 283.465"
   xml:space="preserve"
   sodipodi:docname="wx-rain.svg"
   inkscape:version="1.2.2 (b0a8486541, 2022-12-01)"
   xmlns:inkscape="http://www.inkscape.org/namespaces/inkscape"
   xmlns:sodipodi="http://sodipodi.sourceforge.net/DTD/sodipodi-0.dtd"
   xmlns="http://www.w3.org/2000/svg"
   xmlns:svg="http://www.w3.org/2000/svg"><defs
   id="defs21" /><sodipodi:namedview
   id="namedview19"
   pagecolor="#ffffff"
   bordercolor="#000000"
   borderopacity="0.25"
   inkscape:showpageshadow="2"
   inkscape:pageopacity="0.0"
   inkscape:pagecheckerboard="0"
   inkscape:deskcolor="#d1d1d1"
   showgrid="false"
   inkscape:zoom="2.9633288"
   inkscape:cx="58.54902"
   inkscape:cy="114.73583"
   inkscape:window-width="1920"
   inkscape:window-height="1015"
   inkscape:window-x="0"
   inkscape:window-y="0"
   inkscape:window-maximized="1"
   inkscape:current-layer="g16" />
<g
   id="g16">
	<path
   id="path2"
   d="M 132.60938 8.0859375 C 106.6414 8.0859375 85.272388 27.952713 82.900391 53.304688 C 57.548416 55.681685 37.677734 77.045698 37.677734 103.01367 C 37.677734 130.57364 60.050449 152.94727 87.607422 152.94727 L 102.32617 152.94727 L 108.33398 133.81055 C 109.34441 130.5723 112.22544 128.38607 115.42578 128.07031 C 115.69232 128.04402 115.96031 128.03112 116.23047 128.03125 C 117.04095 128.03163 117.86437 128.15266 118.67383 128.4082 L 118.67578 128.4082 C 122.98627 129.76647 125.42408 134.43393 124.08398 138.74414 L 124.08203 138.74805 L 119.62109 152.94727 L 137.41016 152.94727 L 140.06836 144.47266 C 141.08355 141.2403 143.96523 139.05356 147.16602 138.73633 C 147.43275 138.70989 147.70238 138.69731 147.97266 138.69727 C 148.78349 138.69714 149.60557 138.81709 150.41602 139.07227 L 150.41797 139.07227 L 150.41992 139.07227 C 154.72382 140.43219 157.15867 145.09632 155.81641 149.41016 L 155.81445 149.41406 L 154.70508 152.94727 L 172.43359 152.94727 L 178.44141 133.81055 C 179.45183 130.5723 182.33481 128.38607 185.53516 128.07031 C 185.80185 128.044 186.07165 128.03116 186.3418 128.03125 C 187.15222 128.03151 187.97329 128.15229 188.7832 128.4082 C 193.09384 129.76598 195.53185 134.43276 194.19141 138.74414 L 194.19141 138.74805 L 189.73047 152.94727 L 197.85352 152.94727 C 225.41449 152.94727 247.78711 130.57364 247.78711 103.01367 C 247.78611 75.457699 225.41349 53.087891 197.85352 53.087891 L 182.29297 53.087891 C 179.81797 27.836916 158.50535 8.0859375 132.60938 8.0859375 z M 115.96484 133.92969 C 115.05607 134.01238 114.25792 134.62911 113.96484 135.56836 L 113.96484 135.57031 L 108.50977 152.94727 L 113.4375 152.94727 L 118.44922 136.99219 L 118.44922 136.99023 C 118.84514 135.71316 118.18142 134.43712 116.90234 134.03516 L 116.90039 134.03516 L 116.89648 134.0332 C 116.58388 133.93443 116.26777 133.90212 115.96484 133.92969 z M 186.07422 133.92969 C 185.16544 134.01238 184.36729 134.62911 184.07422 135.56836 L 184.07422 135.57031 L 178.61914 152.94727 L 183.54688 152.94727 L 188.55859 136.99219 L 188.55859 136.99023 C 188.95433 135.71377 188.28772 134.43692 187.00977 134.03516 L 187.00781 134.03516 L 187.00586 134.0332 C 186.69325 133.93443 186.37715 133.90212 186.07422 133.92969 z M 147.70312 144.5957 C 146.79026 144.67758 145.99469 145.29342 145.69727 146.23828 L 145.69727 146.24023 L 143.59375 152.94727 L 148.52148 152.94727 L 150.18164 147.6582 L 150.18164 147.65625 C 150.57799 146.37877 149.90604 145.09906 148.64062 144.69922 C 148.32419 144.60017 148.00742 144.56841 147.70312 144.5957 z " /><path
   style="color:#000000;clip-rule:evenodd;fill:#000000;fill-rule:evenodd;stroke-width:5.9;-inkscape-stroke:none;paint-order:stroke markers fill"
   d="m 183.03813,164.40805 8.337,-26.54 c 0.869,-2.795 -0.684,-5.768 -3.48,-6.647 -2.785,-0.88 -5.768,0.684 -6.637,3.469 l -8.335,26.55 c -0.871,2.786 0.683,5.768 3.468,6.637 2.795,0.88 5.777,-0.674 6.647,-3.469 z"
   id="path862" /><path
   style="color:#000000;clip-rule:evenodd;fill:#000000;fill-rule:evenodd;stroke-width:5.9;-inkscape-stroke:none;paint-order:stroke markers fill"
   d="m 144.66913,175.07305 8.33,-26.539 c 0.87,-2.796 -0.684,-5.768 -3.469,-6.648 -2.795,-0.88 -5.772,0.684 -6.647,3.47 l -8.33,26.549 c -0.875,2.785 0.678,5.768 3.469,6.647 2.795,0.87 5.772,-0.684 6.647,-3.479 z"
   id="path868" /><path
   fill-rule="evenodd"
   clip-rule="evenodd"
   d="m 162.34913,230.36705 10.158,-32.39 c 0.881,-2.795 -0.683,-5.768 -3.468,-6.647 -2.796,-0.869 -5.769,0.683 -6.649,3.479 l -10.157,32.379 c -0.881,2.796 0.673,5.769 3.469,6.647 2.796,0.871 5.767,-0.682 6.647,-3.468 z"
   id="path8" /><path
   fill-rule="evenodd"
   clip-rule="evenodd"
   d="m 123.97513,241.02205 10.158,-32.378 c 0.88,-2.786 -0.678,-5.769 -3.469,-6.649 -2.791,-0.869 -5.768,0.685 -6.648,3.479 l -10.158,32.38 c -0.875,2.785 0.678,5.767 3.469,6.648 2.796,0.87 5.773,-0.684 6.648,-3.48 z"
   id="path10" /><path
   style="color:#000000;clip-rule:evenodd;fill:#000000;fill-rule:evenodd;stroke-width:5.9;-inkscape-stroke:none;paint-order:stroke markers fill"
   d="m 112.93013,164.40805 8.336,-26.54 c 0.869,-2.795 -0.683,-5.768 -3.48,-6.647 -2.785,-0.88 -5.768,0.684 -6.637,3.469 l -8.334,26.55 c -0.871,2.786 0.683,5.768 3.468,6.637 2.795,0.88 5.778,-0.674 6.647,-3.469 z"
   id="path874" />
	
	
	
	
	
	<path
   fill-rule="evenodd"
   clip-rule="evenodd"
   d="m 92.241135,230.36705 10.157995,-32.39 c 0.881,-2.795 -0.683,-5.768 -3.467995,-6.647 -2.795,-0.869 -5.769,0.683 -6.649,3.479 l -10.157,32.379 c -0.881,2.796 0.673,5.769 3.468,6.647 2.798,0.871 5.769,-0.682 6.648,-3.468 z"
   id="path14" />
</g>
</svg>
