<?xml version="1.0" encoding="UTF-8" standalone="no"?>
<!-- Generator: Adobe Illustrator 15.1.0, SVG Export Plug-In . SVG Version: 6.00 Build 0)  -->

<svg
   version="1.1"
   id="Layer_1"
   x="0px"
   y="0px"
   width="283.465px"
   height="283.465px"
   viewBox="0 0 283.465 283.465"
   enable-background="new 0 0 283.465 283.465"
   xml:space="preserve"
   sodipodi:docname="wx-rain-hail-mix.svg"
   inkscape:version="1.2.2 (b0a8486541, 2022-12-01)"
   xmlns:inkscape="http://www.inkscape.org/namespaces/inkscape"
   xmlns:sodipodi="http://sodipodi.sourceforge.net/DTD/sodipodi-0.dtd"
   xmlns="http://www.w3.org/2000/svg"
   xmlns:svg="http://www.w3.org/2000/svg"><defs
   id="defs11" /><sodipodi:namedview
   id="namedview9"
   pagecolor="#ffffff"
   bordercolor="#000000"
   borderopacity="0.25"
   inkscape:showpageshadow="2"
   inkscape:pageopacity="0.0"
   inkscape:pagecheckerboard="0"
   inkscape:deskcolor="#d1d1d1"
   showgrid="false"
   inkscape:zoom="2.0953899"
   inkscape:cx="31.259099"
   inkscape:cy="177.05535"
   inkscape:window-width="1920"
   inkscape:window-height="1015"
   inkscape:window-x="0"
   inkscape:window-y="0"
   inkscape:window-maximized="1"
   inkscape:current-layer="g6" />
<g
   id="g6">
	<path
   id="path4"
   d="m 130.64266,22.529373 c -28.44796,0 -51.857089,21.764165 -54.455083,49.537109 -27.773946,2.602996 -49.542969,26.007133 -49.542969,54.455078 0,30.19194 24.510327,54.70312 54.697265,54.70312 h 20.560547 c 0.1302,-0.49169 0.29262,-0.98033 0.52344,-1.45508 l 9.65625,-19.83398 c 1.48172,-3.04886 4.65635,-4.78097 7.86719,-4.61914 1.06903,0.0539 2.14203,0.31965 3.1582,0.81445 4.0684,1.97873 5.78131,6.9613 3.80469,11.02539 l -6.84571,14.06836 h 12.54102 l 1.75781,-3.60937 v -0.002 c 1.48837,-3.04727 4.65995,-4.77582 7.86719,-4.61914 1.06908,0.0522 2.14175,0.31474 3.1582,0.80664 l 0.004,0.002 0.006,0.002 c 2.90192,1.4179 4.57665,4.36853 4.58984,7.41992 h 13.47461 l 8.29297,-17.02929 0.002,-0.002 c 1.48593,-3.04226 4.65632,-4.77296 7.86328,-4.61133 1.06838,0.0539 2.14081,0.31878 3.15625,0.81446 h 0.002 c 4.05717,1.9811 5.7807,6.9498 3.8125,11.01367 l -0.002,0.002 -4.77539,9.8125 h 20.30078 c 30.19194,0 54.70313,-24.51118 54.70313,-54.70312 10e-4,-30.186941 -24.51119,-54.691406 -54.70313,-54.691406 h -17.0452 C 182.36236,44.16721 159.0116,22.529373 130.64266,22.529373 Z M 119.78523,158.15437 c -2.10187,-0.11161 -4.16292,1.0196 -5.13867,3.02734 l -9.6582,19.83399 c -1.302,2.678 -0.18386,5.91494 2.49414,7.21094 2.679,1.30799 5.9098,0.18871 7.2168,-2.48829 l 9.65039,-19.83007 c 1.302,-2.677 0.18871,-5.91285 -2.48828,-7.21485 -0.67075,-0.327 -1.37555,-0.50186 -2.07618,-0.53906 z m 59.67188,4.26367 c -2.09784,-0.11184 -4.15572,1.01885 -5.13672,3.02735 l -9.6582,19.82812 c -1.307,2.688 -0.18872,5.91371 2.48828,7.2207 2.678,1.308 5.91566,0.19167 7.22265,-2.48632 l 9.65625,-19.83985 c 1.297,-2.678 0.178,-5.90394 -2.5,-7.21094 -0.66949,-0.327 -1.37298,-0.50178 -2.07226,-0.53906 z m -37.38281,13.41602 c -2.10122,-0.10735 -4.16744,1.0208 -5.14844,3.02929 l -9.6543,19.83204 c -1.302,2.67699 -0.18495,5.91198 2.49805,7.20898 2.678,1.307 5.91294,0.19067 7.21094,-2.48633 l 9.65429,-19.83008 c 1.308,-2.67799 0.19067,-5.91465 -2.48632,-7.22265 -0.6695,-0.324 -1.37382,-0.49547 -2.07422,-0.53125 z m -38.89258,15.91601 c -2.994,0 -5.42969,2.40029 -5.42969,5.36328 0,2.962 2.43569,5.36719 5.42969,5.36719 2.994,0 5.42969,-2.40519 5.42969,-5.36719 0,-2.96299 -2.43569,-5.36328 -5.42969,-5.36328 z m 59.67969,4.25586 c -3.004,0 -5.42969,2.40519 -5.42969,5.36719 0,2.962 2.42569,5.36523 5.42969,5.36523 2.99399,0 5.42773,-2.40323 5.42773,-5.36523 0,-2.963 -2.43374,-5.36719 -5.42773,-5.36719 z m -66.185552,9.625 c -2.099765,-0.11165 -4.162337,1.0184 -5.142578,3.02539 l -6.435547,13.23243 c -1.301999,2.67699 -0.18981,5.90198 2.492187,7.20898 2.678002,1.308 5.909798,0.19167 7.216797,-2.48633 l 6.435543,-13.23047 c 1.302,-2.67799 0.18386,-5.90294 -2.494137,-7.21094 -0.6695,-0.32699 -1.372344,-0.50184 -2.072265,-0.53906 z m 28.791012,3.79492 c -2.99399,0 -5.42773,2.40619 -5.42773,5.36719 0,2.963 2.43374,5.36524 5.42773,5.36524 2.994,0 5.42969,-2.40224 5.42969,-5.36524 0,-2.962 -2.43569,-5.36719 -5.42969,-5.36719 z m 30.88282,0.46875 c -2.10042,-0.1071 -4.16397,1.02351 -5.13672,3.03125 l -6.44141,13.22071 c -1.307,2.67799 -0.18967,5.9137 2.48633,7.2207 2.677,1.297 5.91466,0.17895 7.22266,-2.49805 l 6.42968,-13.2207 c 1.308,-2.677 0.18972,-5.9137 -2.48828,-7.2207 -0.6695,-0.324 -1.37212,-0.4975 -2.07226,-0.53321 z m -37.38867,13.41602 c -2.10117,-0.11189 -4.16683,1.0196 -5.14258,3.02734 l -6.43555,13.22852 c -1.307,2.679 -0.18972,5.91394 2.48828,7.21094 2.678,1.306 5.91285,0.19067 7.21485,-2.48633 l 6.4375,-13.23047 c 1.30699,-2.678 0.18971,-5.90394 -2.48829,-7.21094 -0.6695,-0.327 -1.37383,-0.50176 -2.07421,-0.53906 z m -35.730475,9.21484 c -2.961997,0 -5.365234,2.40324 -5.365234,5.36524 0,2.963 2.402237,5.36523 5.365234,5.36523 2.962997,0 5.367188,-2.40223 5.367188,-5.36523 0,-2.962 -2.405191,-5.36524 -5.367188,-5.36524 z m 59.673825,4.25782 c -2.96099,0 -5.36523,2.41519 -5.36523,5.36718 0,2.962 2.40324,5.36524 5.36523,5.36524 2.962,0 5.36524,-2.40324 5.36524,-5.36524 0,-2.95199 -2.40324,-5.36718 -5.36524,-5.36718 z m -37.38671,13.42187 c -2.963,0 -5.36719,2.40224 -5.36719,5.36524 0,2.96199 2.40519,5.36523 5.36719,5.36523 2.96199,0 5.36523,-2.40324 5.36523,-5.36523 0,-2.963 -2.40324,-5.36524 -5.36523,-5.36524 z" />
	
</g>
</svg>
