<?xml version="1.0" encoding="UTF-8" standalone="no"?>
<!-- Generator: Adobe Illustrator 15.1.0, SVG Export Plug-In . SVG Version: 6.00 Build 0)  -->

<svg
   version="1.1"
   id="Layer_1"
   x="0px"
   y="0px"
   width="283.68px"
   height="283.92px"
   viewBox="0 0 283.68 283.92"
   enable-background="new 0 0 283.68 283.92"
   xml:space="preserve"
   sodipodi:docname="wx-tornado.svg"
   inkscape:version="1.2.2 (b0a8486541, 2022-12-01)"
   xmlns:inkscape="http://www.inkscape.org/namespaces/inkscape"
   xmlns:sodipodi="http://sodipodi.sourceforge.net/DTD/sodipodi-0.dtd"
   xmlns="http://www.w3.org/2000/svg"
   xmlns:svg="http://www.w3.org/2000/svg"><defs
   id="defs39" /><sodipodi:namedview
   id="namedview37"
   pagecolor="#ffffff"
   bordercolor="#000000"
   borderopacity="0.25"
   inkscape:showpageshadow="2"
   inkscape:pageopacity="0.0"
   inkscape:pagecheckerboard="0"
   inkscape:deskcolor="#d1d1d1"
   showgrid="false"
   inkscape:zoom="2.0920318"
   inkscape:cx="123.08608"
   inkscape:cy="132.88517"
   inkscape:window-width="1920"
   inkscape:window-height="1015"
   inkscape:window-x="0"
   inkscape:window-y="0"
   inkscape:window-maximized="1"
   inkscape:current-layer="Layer_1" />

<path
   id="path1227"
   style="fill:#000000;fill-rule:evenodd;stroke:none;stroke-width:5.7;stroke-linecap:round;stroke-linejoin:round;paint-order:stroke markers fill"
   d="m 136.17823,27.358215 c -4.54615,-0.0014 -9.03866,0.06262 -13.4672,0.187251 C 60.711567,29.290221 11.369947,43.146967 7.4440977,61.348952 2.9574177,82.151208 59.490497,100.75165 133.71442,102.89373 c 26.57955,0.76763 51.68029,-0.75376 73.34272,-3.882959 -0.34083,0.16471 -0.68034,0.33331 -0.98799,0.56421 -2.39563,1.795969 -3.06999,5.100379 -1.57191,7.692019 0.007,0.0139 0.0144,0.0265 0.0222,0.0394 0.83193,1.47649 1.23683,2.8836 1.23683,4.3018 0,7.16447 -10.9389,15.13478 -28.18107,20.72559 -0.17182,0.0558 -0.34674,0.11025 -0.51986,0.16507 -0.40064,0.12779 -0.80262,0.25671 -1.20973,0.38189 -0.60873,0.18693 -1.22242,0.37102 -1.8454,0.55189 -2.54846,0.74128 -4.21576,3.04739 -4.26239,5.56822 -0.0112,0.58196 0.0631,1.1761 0.23406,1.76408 0.0535,0.18177 0.11657,0.35501 0.18479,0.52726 0.0211,0.0553 0.0461,0.10861 0.069,0.16262 0.0505,0.11656 0.10069,0.23064 0.15768,0.34246 0.0298,0.0587 0.0621,0.11555 0.0936,0.17247 0.0587,0.10533 0.12089,0.20941 0.18478,0.31045 0.0328,0.0527 0.0661,0.10634 0.10102,0.15768 0.0751,0.1105 0.15493,0.21581 0.23653,0.32029 0.0281,0.0354 0.0524,0.0734 0.0813,0.10836 0.11355,0.13858 0.23249,0.27018 0.35725,0.39667 0.0177,0.0177 0.0365,0.0341 0.0542,0.0517 0.10836,0.10659 0.21894,0.2104 0.33508,0.30797 0.0414,0.0358 0.0862,0.0674 0.12812,0.10105 0.0971,0.0777 0.19377,0.1534 0.29565,0.2242 0.0475,0.0333 0.097,0.0641 0.14537,0.0961 0.10404,0.0691 0.20947,0.13494 0.31783,0.19711 0.0453,0.0259 0.0893,0.0513 0.13551,0.0764 0.13426,0.0729 0.27201,0.14073 0.41146,0.20204 0.0207,0.009 0.0404,0.0206 0.0616,0.0295 0.16448,0.0704 0.33208,0.13156 0.50261,0.18725 0.0345,0.0114 0.0694,0.0212 0.10348,0.032 0.13427,0.0406 0.26924,0.0769 0.40653,0.10836 0.0544,0.0126 0.11025,0.0237 0.16508,0.0344 0.12131,0.0242 0.24406,0.0452 0.3671,0.0616 0.0592,0.009 0.11825,0.0162 0.1774,0.0222 0.12606,0.013 0.25207,0.0199 0.37943,0.0246 0.054,0.001 0.10617,0.008 0.16014,0.008 0.0212,0 0.0429,0.003 0.0641,0.003 0.0388,0 0.0794,-0.009 0.11827,-0.0101 0.196,-0.004 0.39198,-0.0182 0.58885,-0.0419 0.0686,-0.008 0.13788,-0.0163 0.20696,-0.0271 0.24738,-0.0392 0.49509,-0.086 0.7416,-0.15769 0.74171,-0.21585 1.47009,-0.43752 2.1928,-0.66029 0.22233,-0.0677 0.44215,-0.13789 0.66276,-0.20697 0.48526,-0.15282 0.96717,-0.3053 1.44379,-0.46072 0.2789,-0.0911 0.55647,-0.18356 0.83277,-0.27595 0.40021,-0.1334 0.79629,-0.2685 1.19002,-0.40406 0.31084,-0.1071 0.62437,-0.21194 0.93132,-0.3203 0.25299,-0.0893 0.50064,-0.18036 0.75147,-0.27102 6.75862,-2.43621 12.52247,-5.20407 17.22696,-8.25377 5.23681,3.27679 8.17246,6.78302 8.17246,9.8651 0,6.32217 -12.69622,15.21159 -36.96209,19.96919 -2.33605,0.4585 -4.17018,2.27152 -4.65414,4.6024 -0.48353,2.33087 0.47872,4.72372 2.43918,6.07329 2.72072,1.87195 3.69078,3.47789 3.69078,4.35603 0,1.89136 -4.60911,6.93386 -18.85554,10.44162 -2.25403,0.55476 -3.97512,2.37654 -4.40037,4.65907 -0.42481,2.28209 0.52339,4.60315 2.42686,5.93285 0.95929,0.6709 1.43953,1.20874 1.63597,1.498 -0.84705,1.39231 -5.53619,4.54354 -15.71665,6.33692 -3.21677,0.56643 -5.36593,3.63508 -4.79951,6.85186 0.50598,2.8701 3.00296,4.8882 5.81953,4.8882 0.34063,0 0.68523,-0.0303 1.03233,-0.0912 16.2492,-2.86233 25.56943,-9.42356 25.56943,-18.00062 0,-0.91092 -0.11243,-1.95481 -0.43363,-3.07729 12.68317,-4.58707 19.55034,-11.34134 19.55034,-19.437 0,-1.61552 -0.29695,-3.57566 -1.25408,-5.68895 8.84472,-2.38613 16.44681,-5.43897 22.32213,-8.9929 11.91686,-7.2085 14.41822,-15.03032 14.41822,-20.32152 0,-4.796 -2.03272,-11.40818 -10.67323,-17.81582 3.76722,-4.44027 5.72343,-9.27009 5.72343,-14.38126 0,-1.42944 -0.16035,-2.84697 -0.47551,-4.25008 8.99336,-4.48901 14.58604,-9.244402 18.06466,-13.814582 23.46025,-6.07201 38.93817,-14.60163 41.0594,-24.43361 4.48527,-20.802092 -52.04994,-39.40434 -126.27276,-41.549712 -4.63909,-0.133869 -9.23888,-0.200648 -13.78503,-0.202033 z m -1.73453,17.283634 c 2.92625,0.0015 5.88576,0.04429 8.87219,0.130583 47.78549,1.378684 84.18002,13.35393 81.29097,26.747136 -0.61125,2.83393 -2.94549,5.50023 -6.67692,7.93593 -0.1071,-0.10849 -0.28954,-0.20976 -0.4016,-0.31783 -0.14147,-1.66098 -0.94386,-3.20169 -2.28396,-4.21805 -3.55006,-2.69093 -10.33956,-6.67076 -22.53401,-10.35293 -16.45125,-4.967407 -37.36515,-7.704337 -58.89001,-7.704337 -21.52486,0 -42.44123,2.736499 -58.892483,7.704337 -10.772914,3.25304 -17.1645,6.68676 -20.99412,9.31075 -2.05804,-2.36056 -2.91215,-4.83146 -2.36773,-7.35448 2.52667,-11.718895 34.294682,-20.640684 74.207523,-21.762846 2.85092,-0.08015 5.74391,-0.119814 8.67015,-0.118263 z m 17.86017,20.141659 c 4.65822,-0.0257 10.42454,0.56222 16.78594,1.81829 16.96168,3.3526 31.72632,10.19499 32.98058,15.28549 0.31419,1.27513 -0.25537,2.31898 -1.54235,3.11178 -2.78767,-4.78344 -16.36894,-10.44579 -31.61562,-13.01384 -12.57513,-2.12147 -22.5858,-1.5115 -25.76407,1.1777 -1.36552,-1.18459 -2.2432,-2.33845 -2.51063,-3.41238 -0.78184,-3.18031 3.90244,-4.92421 11.66615,-4.96704 z M 25.151507,105.69508 c -3.26598,0 -5.91241,2.64632 -5.91068,5.91315 0,11.95139 11.0657,22.66877 31.15981,30.1743 1.47996,0.5526 3.00052,1.08205 4.55559,1.59408 -0.004,0.1429 -0.0101,0.28537 -0.0101,0.4287 0,11.73122 11.677941,21.75034 32.882018,28.21064 0.575055,0.17528 1.153498,0.2587 1.724667,0.2587 2.535079,0 4.880241,-1.64076 5.65691,-4.19094 0.952813,-3.12438 -0.808294,-6.4292 -3.932241,-7.38158 -14.205429,-4.32845 -21.211854,-9.59572 -23.563893,-13.76532 2.805348,0.65579 5.688769,1.25315 8.643059,1.79366 0.0825,0.0151 0.165946,0.0288 0.248838,0.0443 1.827488,0.33244 3.680363,0.64379 5.558358,0.93133 0.31775,0.0492 0.636483,0.0954 0.95596,0.1429 0.584984,0.0872 1.171891,0.17174 1.761624,0.25377 0.361785,0.051 0.723462,0.10357 1.08654,0.15275 0.787033,0.10572 1.577847,0.20752 2.372651,0.30552 0.48137,0.0595 0.964759,0.11543 1.44872,0.17247 0.407548,0.0479 0.815674,0.0951 1.224514,0.14044 0.5185,0.0579 1.038072,0.11555 1.559592,0.16999 0.367397,0.0385 0.737128,0.0742 1.106253,0.11089 0.924319,0.0923 1.853184,0.17711 2.786569,0.2587 0.378622,0.0333 0.755902,0.067 1.135816,0.0985 0.534043,0.044 1.06731,0.0872 1.603943,0.12812 0.42266,0.0328 0.847375,0.0609 1.271335,0.0912 0.7417,0.0522 1.48619,0.10168 2.23221,0.14783 0.58023,0.0358 1.16112,0.0715 1.74438,0.10344 0.44424,0.0246 0.88984,0.0469 1.33538,0.069 0.5716,0.0285 1.14352,0.0522 1.71728,0.0764 0.38553,0.016 0.77116,0.0346 1.15799,0.0493 0.91784,0.0346 1.83601,0.0637 2.75947,0.0887 0.27544,0.008 0.554,0.0132 0.8303,0.0197 0.75293,0.0177 1.5054,0.0332 2.26178,0.0444 0.29746,0.005 0.59647,0.009 0.89436,0.0126 0.99901,0.0114 1.99963,0.0197 3.00339,0.0197 3.26599,0 5.91561,-2.64875 5.91561,-5.9156 0,-3.26686 -2.64962,-5.91561 -5.91561,-5.91561 h -0.002 c -1.4031,0 -2.79864,-0.0141 -4.19094,-0.037 -0.42482,-0.008 -0.84781,-0.0201 -1.27133,-0.0295 -0.98044,-0.022 -1.9584,-0.0455 -2.93194,-0.0788 -0.47403,-0.016 -0.94481,-0.0352 -1.41669,-0.0542 -0.93943,-0.0371 -1.87665,-0.0777 -2.80874,-0.12564 -0.4559,-0.0237 -0.91281,-0.0481 -1.36741,-0.0739 -0.99513,-0.0565 -1.98531,-0.1211 -2.97136,-0.18971 -0.37301,-0.0259 -0.74643,-0.0512 -1.11857,-0.0788 -1.343098,-0.10017 -2.681205,-0.20754 -4.006163,-0.33016 -0.174417,-0.0164 -0.345881,-0.0378 -0.519864,-0.0542 -1.119891,-0.10622 -2.23239,-0.22072 -3.338465,-0.34246 -0.580235,-0.0643 -1.156139,-0.13339 -1.732059,-0.20204 -0.673055,-0.0798 -1.343457,-0.16046 -2.01047,-0.24638 -0.700254,-0.0907 -1.397995,-0.18621 -2.091775,-0.28334 -0.498639,-0.0695 -0.992956,-0.13892 -1.488141,-0.21189 -0.800848,-0.11782 -1.601012,-0.23814 -2.392361,-0.36464 -0.28796,-0.0462 -0.573207,-0.0962 -0.85987,-0.1429 -5.38748,-0.88676 -10.559436,-1.97074 -15.453023,-3.25469 l -0.01728,-0.005 c -0.985626,-0.25903 -1.961802,-0.52616 -2.924545,-0.80073 -3.130007,-0.89584 -6.132107,-1.86683 -8.963347,-2.92455 -14.69629,-5.48893 -23.47026,-12.62701 -23.47026,-19.09207 0,-3.26683 -2.64962,-5.91315 -5.9156,-5.91315 z m 78.538903,6.95288 c -11.826132,9.2e-4 -22.109845,0.74731 -30.814884,1.4709 -11.345959,0.9431 -20.836209,1.67687 -20.846299,2.08192 -0.0216,0.90228 15.718482,5.91576 55.376613,9.58915 11.14272,1.03211 36.67834,-0.17453 48.08127,-0.83276 20.46139,-1.18122 40.71569,-4.76463 40.72926,-5.34401 0.0101,-0.42978 -5.0906,-2.45576 -16.49768,-3.34586 -12.54044,-0.97857 -32.34637,-0.87936 -53.08034,-2.65106 -8.20074,-0.70075 -15.85225,-0.96882 -22.94794,-0.96828 z m 24.88696,43.40496 c -8.71957,0.009 -16.12426,0.73809 -22.20633,1.41177 -6.606025,0.73171 -12.134871,1.31319 -12.134273,1.54973 0.0019,0.52688 9.268793,3.20099 32.470573,4.71081 6.51899,0.42421 21.40174,-0.68769 28.04556,-1.25408 11.92165,-1.01635 23.68353,-3.43377 23.68215,-3.7721 -9.6e-4,-0.25097 -3.00933,-1.35058 -9.68032,-1.68771 -7.33379,-0.37062 -18.89146,0.003 -31.01938,-0.69973 -3.1979,-0.18523 -6.25146,-0.26181 -9.15798,-0.25869 z m -7.0736,23.45055 c -4.06123,-0.0153 -7.59171,0.22613 -10.58207,0.4632 -3.89757,0.30899 -7.15826,0.54832 -7.1623,0.6874 -0.009,0.30983 5.38915,2.05447 19.00338,3.36803 3.82518,0.36907 12.59816,-0.0131 16.51492,-0.2242 7.02822,-0.37877 13.98656,-1.58239 13.99198,-1.78134 0.004,-0.14759 -1.74322,-0.84966 -5.65937,-1.17032 -4.30525,-0.35251 -11.10686,-0.34494 -18.22481,-0.98059 -2.81531,-0.25142 -5.44499,-0.35305 -7.88173,-0.36218 z m -24.712032,8.3474 c -1.134113,-0.1071 -2.309962,0.11025 -3.385275,0.69725 -7.726983,4.22053 -9.350163,9.27662 -9.350163,12.77485 0,4.41611 2.44878,8.29422 7.085921,11.41732 -4.015459,3.28237 -4.856173,6.82709 -4.856173,9.21711 0,11.70833 18.509582,17.04217 35.705552,17.04217 3.26599,0 5.91315,-2.64919 5.91315,-5.9156 0,-3.26686 -2.64716,-5.91315 -5.91315,-5.91315 -13.1654,0 -21.19258,-3.28179 -23.443165,-5.19865 1.07758,-0.9053 3.731285,-2.4467 8.921465,-3.67107 2.65855,-0.62643 4.54251,-2.99277 4.55805,-5.72343 0.0155,-2.73066 -1.84364,-5.11809 -4.49399,-5.77518 -8.036105,-1.99066 -10.953509,-4.5613 -11.56267,-5.46965 0.253422,-0.37215 1.023801,-1.2642 3.106865,-2.40222 2.866215,-1.56629 3.918375,-5.16045 2.352945,-8.02709 -0.97893,-1.79166 -2.749172,-2.87417 -4.639362,-3.05266 z m 27.333522,13.49675 c -2.93688,0.003 -5.4316,0.24861 -7.48013,0.47552 -2.225,0.24645 -4.0852,0.4426 -4.085,0.52232 6.2e-4,0.17746 3.12216,1.07815 10.93686,1.58669 2.19569,0.14288 7.20852,-0.233 9.44625,-0.42376 4.01539,-0.34233 7.97582,-1.15496 7.97536,-1.26887 -3.2e-4,-0.0845 -1.01274,-0.45563 -3.25962,-0.56914 -2.47013,-0.12476 -6.36417,7e-5 -10.44903,-0.23652 -1.0771,-0.0624 -2.10573,-0.0873 -3.08469,-0.0863 z m -0.19957,16.46565 c -1.19995,0.001 -2.2206,0.10192 -3.05759,0.19464 -0.90909,0.10067 -1.66808,0.17935 -1.668,0.21189 2.6e-4,0.0725 1.27396,0.4402 4.46689,0.64798 0.89712,0.0584 2.9465,-0.0945 3.8608,-0.17247 1.6406,-0.13987 3.25981,-0.47085 3.25962,-0.5174 -1.4e-4,-0.0346 -0.41489,-0.18517 -1.33292,-0.2316 -1.00925,-0.051 -2.60079,-0.003 -4.26979,-0.0985 -0.44008,-0.0255 -0.85902,-0.0349 -1.25901,-0.0344 z m -21.58052,27.58975 c -1.35834,0.74464 -2.31236,1.56521 -2.752075,2.44164 -2.070258,4.15604 8.031465,8.02293 22.561115,8.63565 14.52862,0.60962 27.98514,-2.26609 30.0585,-6.42315 0.51937,-1.04134 0.27032,-2.06323 -0.61596,-3.01817 -3.26094,3.57254 -15.50902,5.66759 -28.47672,4.73298 -10.69618,-0.76789 -18.73687,-3.37601 -20.77486,-6.36895 z" /></svg>
