<?xml version="1.0" encoding="UTF-8" standalone="no"?>
<!-- Generator: Adobe Illustrator 15.1.0, SVG Export Plug-In . SVG Version: 6.00 Build 0)  -->

<svg
   version="1.1"
   id="Layer_1"
   x="0px"
   y="0px"
   width="283.46px"
   height="283.46px"
   viewBox="0 0 283.46 283.46"
   enable-background="new 0 0 283.46 283.46"
   xml:space="preserve"
   xmlns="http://www.w3.org/2000/svg"
   xmlns:svg="http://www.w3.org/2000/svg"><defs
   id="defs247" />
<g
   id="g247">
	<path
   d="M 213.966,7.98 C 145.71791,7.8620623 77.463473,8.2568223 9.221,7.693 5.8175523,14.195393 8.4805551,24.275337 7.744,32.348541 c 0,81.544819 0,163.089639 0,244.634459 89.5628,-0.0987 179.22051,0.19736 268.724,-0.148 0.65397,-24.327 0.0929,-49.0325 0.28,-73.50491 0,-65.11636 0,-130.232726 0,-195.34909 -21.0613,-0.00101 -42.1226,-9.991e-4 -63.18391,-10e-4 5.78593,0 10.99589,0 2.22627,0 z m 58.492,264.718 c -21.31024,0.25295 -42.8138,-0.15321 -64.21049,-0.002 -65.59584,0 -131.191673,0 -196.78751,0 -0.415493,-86.90364 -0.514924,-173.809445 10e-4,-260.713 86.999878,0.188874 174.00138,-0.376868 261,0.287 -0.002,86.787382 0.004,173.783 -0.003,260.428 z"
   id="path1" />
	<path
   d="m 267.601,193.223 c 3.04108,-5.99999 -9.832,-25.92084 -6.60925,-10.45613 2.34012,10.66726 5.5166,21.47457 3.18425,32.75113 1.67764,8.51361 -10.79093,21.2384 -4.001,25.442 4.01092,-9.67998 7.8306,-19.51571 7.67577,-30.12198 1.65265,-5.41875 -0.008,-12.40198 -0.24977,-17.61502 z"
   id="path2" />
	<path
   d="m 267.886,166.923 c 1.06997,-10.23036 -6.20737,10.45719 -12.43962,7.71925 -5.35712,5.82601 -19.0727,-9.69708 -10.43063,1.17038 7.56772,4.9512 20.34506,-0.73183 22.73539,-9.10127 -0.27551,0.2698 -0.48822,2.36241 0.13486,0.21164 z"
   id="path3" />
	<path
   d="m 265.361,255.442 c -10.38062,-2.45765 2.83849,16.29989 -10.055,12.108 -6.33729,-2.67234 4.41402,-16.02944 -8.292,-10.573 2.59742,-9.23689 -7.08971,3.23875 -6.862,-3.146 -6.79028,2.5705 -16.13336,8.01309 -20.7065,1.45087 -4.23916,9.42654 11.68843,4.33787 11.8485,10.84513 5.85235,0.78042 11.12821,-5.90355 2.855,-1.365 1.25685,-3.66836 9.56119,-6.9902 11.146,-3.784 -6.37849,6.84116 2.99308,9.44221 6.58566,6.49333 3.60799,4.87514 16.6169,3.53611 13.44534,-4.16233 -6.07087,-6.96661 3.9926,-5.1789 0.035,-7.867 z"
   id="path4" />
	<path
   d="m 265.361,255.442 c 0.0799,0.044 0.0799,0.044 0,0 z"
   id="path5" />
	<path
   d="m 263.948,83.816 c -5.32632,-2.578809 -9.16459,17.19045 -10.80422,5.689187 6.40656,-5.746483 1.73709,-16.839984 -0.90653,-17.703062 4.14723,9.241402 -14.11444,17.221336 -4.86825,26.377 8.26843,5.787705 19.91474,-8.374284 18.61887,-13.687625 0.29129,-0.07096 -2.67519,-0.87799 -2.03987,-0.6755 z m -11.894,13.448 c -0.49928,-1.212934 -4.52243,0.674896 -1.606,-3.713322 0.24721,-3.752161 3.53247,4.01704 1.606,3.713322 z"
   id="path6" />
	<path
   d="m 243.585,170.357 c 4.82061,8.57898 18.75191,2.60534 22.08366,-4.89846 8.99299,-10.72595 -19.5361,-16.26867 -9.19153,-4.99429 9.84785,4.94471 -9.25101,12.87387 -8.13651,2.43687 -4.70423,-6.51129 -4.97798,7.31096 -4.75562,7.45588 z"
   id="path7" />
	<path
   d="m 260.455,116.326 c -5.11874,4.29092 -12.79692,1.58306 -2.16648,-1.03911 9.30766,-2.79751 0.35048,-8.23775 7.89114,-12.23384 -4.21153,-13.478808 -7.44418,10.77971 -16.86966,8.98295 -6.33467,3.80182 -4.87456,8.69377 -2.286,12.863 -5.14143,0.2906 -9.164,1.7744 -14.292,2.001 -10.64671,1.37475 -21.30692,-1.35335 -32.09847,-0.572 -3.86498,-1.88211 -11.57672,3.02276 -3.83492,2.287 16.36969,-0.1489 33.03065,2.23066 49.10164,-0.344 5.08198,1.23849 -2.19211,11.62802 7.95937,10.7915 8.39031,-0.46377 5.18172,16.48852 10.60438,5.94118 0.13362,-5.57987 -7.15964,-7.00183 1.144,-7.81468 2.24826,-7.50667 -19.84769,-2.69365 -9.438,-6.861 4.26417,0.0637 11.213,0.009 6.002,-4.574 9.73883,-5.42853 5.06499,-7.84075 -1.717,-9.428 z m -4.92,7.788 c -3.93407,6.78159 -8.72952,-1.69204 0,0 z m 6.92,-4.358 c 1.99688,-0.18021 0.95224,2.95546 0,0 z"
   id="path8" />
	<path
   d="m 263.888,48.286 c -0.40544,-11.034237 -7.55507,-5.635183 -3.09537,1.948375 4.39859,10.114937 -0.13124,21.445778 -0.54851,30.993375 4.6485,-2.076687 4.95653,-12.18149 5.64188,-17.787716 -0.0634,-5.621545 -0.0862,-10.617321 -2.20387,-15.658034 z"
   id="path9" />
	<path
   d="m 259.597,32.277 c 0.0127,-5.755672 -8.6924,-17.858163 1.96825,-11.401125 0.58044,6.114575 2.77257,9.32767 2.88475,0.510125 0.89914,-11.6445338 -21.75805,-6.276449 -10.55925,4.384625 1.68185,2.358956 3.90441,4.249204 5.70625,6.506375 z"
   id="path10" />
	<path
   d="m 258.738,250.972 c 8.9417,-5.63606 -10.86998,-0.21694 -16.44429,-2.24938 -12.89489,-0.52974 -26.38031,-0.63148 -38.86362,0.43074 -5.71844,-3.4458 -12.43823,1.03901 -3.48945,2.38664 19.25938,-1.12993 39.61988,-0.13861 59.23319,-0.79912 -0.50827,-0.53148 -4.19886,0.63825 -0.43583,0.23112 z"
   id="path11" />
	<path
   d="m 245.333,251.003 c -0.567,-0.002 -0.567,-0.002 0,0 z"
   id="path12" />
	<path
   d="m 257.882,179.509 c -1.45799,6.03977 0.45123,9.36546 1.40362,14.78275 3.05872,7.98968 -11.86849,22.24953 -12.26962,6.94025 8.20832,-2.64427 11.00703,-18.90867 -0.857,-15.722 11.77834,8.09117 -8.04587,13.48957 -1.56663,22.4355 3.91829,3.98928 4.97106,3.95223 3.27863,9.5755 9.60164,-2.02555 14.5785,-11.89691 13.436,-20.879 -1.78814,-5.10684 -1.85863,-15.8733 -3.425,-17.133 z"
   id="path13" />
	<path
   d="m 261.312,215.809 c -5.26592,-3.44362 -11.35213,16.31163 -3.142,5.432 2.62574,-1.38389 2.72703,-6.23102 3.142,-5.432 z"
   id="path14" />
	<path
   d="m 259.037,57.348 c 1.43768,-9.704782 -15.37603,-5.415672 -8.303,-1.626 12.3629,-4.239691 5.63747,32.379183 9.04287,10.386125 0.91955,-3.094638 -1.26728,-6.76406 -0.73987,-8.760125 z"
   id="path15" />
	<path
   d="m 259.594,36.567 c -11.58927,2.930389 -24.35529,9.950182 -24.04762,23.69225 -0.35778,6.91259 -0.52376,14.473602 0.0677,21.361672 4.69317,-4.510509 0.27881,-14.481173 2.31275,-20.950875 -0.79484,-10.453378 9.01346,-18.555874 19.04117,-19.651203 4.31137,-2.222596 0.77866,-2.503228 2.62597,-4.451844 z"
   id="path16" />
	<path
   d="m 258.148,230.821 c -0.0391,-7.91702 -9.22962,5.05032 0,0 l -0.37687,0.9795 z"
   id="path17" />
	<path
   d="m 198.705,21.702 c 9.65035,-3.728745 19.78997,-6.341128 30.02,-4.001 10.08808,-0.276844 19.1609,15.49065 26.93677,12.942281 -7.30331,-6.53942 -14.81665,-14.434979 -25.28065,-15.315031 -9.37637,-1.292557 -17.58539,-1.526071 -26.8437,1.116531 -10.16345,2.291837 -2.68291,4.979281 -4.83242,5.257219 z"
   id="path18" />
	<path
   d="m 248.731,160.351 c 5.11737,10.14886 9.1712,0.46038 1.55825,-4.23987 -3.78037,-6.03023 -13.50628,-6.55975 -5.76056,0.42529 1.92027,1.15572 4.55424,4.27675 4.20231,3.81458 z"
   id="path19" />
	<path
   d="m 245.871,146.058 c -13.03401,0.35626 17.75364,6.5473 7.148,-3.719 -1.50222,1.47131 -6.37639,5.81243 -7.148,3.719 z"
   id="path20" />
	<path
   d="m 253.02,142.339 c 3.28228,1.45712 0.5462,-0.76526 0,0 z"
   id="path21" />
	<path
   d="m 251.369,220.746 c -10.61118,-1.56759 0.23627,6.57518 0,0 z"
   id="path22" />
	<path
   d="m 249.85,231.198 c 4.04772,-11.43462 -7.94311,-0.25924 0,0 z"
   id="path23" />
	<path
   d="m 247.875,230.673 c -0.58963,-0.59103 -0.0443,1.03786 0,0 z"
   id="path24" />
	<path
   d="m 250.449,94.314 c -0.64611,2.000329 1.04678,-0.135272 0,0 z"
   id="path25" />
	<path
   d="m 243.587,97.172 c -5.10093,9.95394 15.42611,6.67304 2.34222,2.517 -1.03695,-1.643239 -2.3469,-1.890742 -2.34222,-2.517 z"
   id="path26" />
	<path
   d="m 252.21,64.948 c 7.88102,6.02502 1.06447,-10.697545 -3.47138,-0.105375 -0.41143,5.857243 -6.03633,19.216617 -2.29462,5.172375 3.55167,-5.41359 -5.45046,-25.276022 -4.287,-12.865 3.64002,9.576339 1.59158,20.420227 -6.71591,27.657234 C 230.62097,93.346283 213.04584,91.034437 211,95.457 c 9.08727,0.570931 19.37781,-1.437132 26.60062,-7.398625 4.74497,-3.126454 9.12782,-16.88051 5.42338,-4.331375 5.9884,-4.559377 4.94112,-14.979009 9.186,-18.779 z"
   id="path27" />
	<path
   d="m 237.464,179.386 c 1.47687,16.33714 -0.96004,33.20494 2.88225,49.21115 1.63039,5.88101 7.35387,10.74106 2.95812,1.35697 -3.1032,-8.03882 -2.8142,-16.36662 -2.82081,-25.11962 -1.46849,-19.39198 -0.69537,-39.00374 -0.90356,-58.5045 -0.93471,-3.91588 -0.57213,-21.87922 -1.78105,-8.31583 0.41709,11.55779 -1.02388,34.16344 -0.47107,39.47058 z"
   id="path28" />
	<path
   d="m 241.013,107.75 c -0.60783,-0.97009 0.66483,1.47747 0,0 z"
   id="path29" />
	<path
   d="m 243.585,106.321 c -1.19407,-10.427455 -5.27139,6.43639 0.22388,-0.027 l -0.18352,0.26803 z"
   id="path30" />
	<path
   d="m 232.724,20.844 c -7.07208,-1.415387 -16.46246,-3.046367 -23.9885,0.758875 -14.40504,8.464731 3.76395,22.652867 11.42525,9.550125 1.10899,-7.469554 13.28863,-2.015418 10.72025,-5.664125 -6.99436,-5.508187 -20.48004,17.408608 -19.82362,0.61025 3.76836,-5.47262 10.55084,-4.968807 16.93987,-4.330625 5.89883,-0.378374 19.15648,11.764484 18.77825,8.115334 C 238.98893,22.037662 236.22285,22.146732 232.724,20.844 Z"
   id="path31" />
	<path
   d="m 238.726,123.758 c -0.003,0.002 -0.003,0.002 0,0 z"
   id="path32" />
	<path
   d="m 239.012,109.751 c -1.63497,-3.77308 1.17714,-22.638868 -3.79988,-16.35275 1.14515,10.3724 1.29121,20.84147 1.22288,31.21975 6.1893,1.431 0.8482,-18.67873 2.41317,-13.26416 z"
   id="path33" />
	<path
   d="m 225.689,264.775 c -4.93404,-1.00232 -9.28822,1.30407 -14.115,1.35 -6.87875,1.74564 -14.28897,-0.67087 -21.0353,-4.11781 -8.9262,-1.59159 -22.39885,-22.19606 -7.02593,-21.41875 4.98989,3.33838 -1.80208,17.82135 8.62123,12.09956 -7.05315,-3.7696 3.10156,-16.72043 -10.85878,-16.77233 -9.63924,-2.50637 -9.8068,14.8209 -16.4391,4.62295 -9.4442,2.70054 9.16761,12.45104 2.77388,16.07725 -7.787,2.01174 -16.01614,-18.74359 -18.87941,-13.61868 -5.06568,4.83765 -9.62557,-11.67999 -16.91959,-5.74619 7.30451,6.52864 -14.45606,1.35488 -14.51129,9.83473 -5.19296,14.1229 9.28985,-4.61002 15.93726,-0.68473 6.60926,2.25917 14.80844,8.5904 21.546,12.2025 9.56997,5.85869 21.39059,9.92713 32.48203,10.6615 7.50318,1.78542 16.21643,0.92291 24.298,1.142 3.70678,-1.51148 17.43983,-0.91305 14.126,-5.632 z m -77.012,-12.66 c 7.1261,1.59626 8.00387,9.2396 0,0 z m 25.156,-8.862 c 4.44882,2.16695 -0.90001,11.55066 -0.84203,1.53998 1.49599,-2.7049 -0.47205,-0.22499 0.84203,-1.53998 z m -6.576,17.153 c 1.57632,-0.94943 3.20166,-6.94072 4.58036,-3.75448 3.97166,4.6037 -5.37428,3.57946 -4.58036,3.75448 z m 11.151,4.002 c -7.03199,3.76314 -7.17265,-8.07387 -2.47887,-4.74887 0.6362,2.75796 4.20868,-2.34054 2.47887,4.74887 z m 3.144,0.858 c -7.42456,1.08661 1.21668,-4.59884 0,0 z m 4.573,1.713 c -6.70947,0.51442 1.26861,-5.25985 0,0 z m 5.433,0.574 c -1.39187,5.97003 -5.955,-3.73377 0,0 z"
   id="path34" />
	<path
   d="m 191.558,267.553 c 0,-0.095 -0.119,0.166 0,0 z"
   id="path35" />
	<path
   d="m 181.3,265.435 c 0.71217,-0.0342 -0.16152,-0.50252 0,0 z"
   id="path36" />
	<path
   d="m 167.257,260.406 c 1.73261,0.49876 0.22349,-0.80342 0,0 z"
   id="path37" />
	<path
   d="m 185.882,267.178 c 0.68984,-0.0242 -0.18933,-0.6475 0,0 z"
   id="path38" />
	<path
   d="m 207.28,263.55 c 4.92043,1.15097 14.34477,0.13291 3.49755,-0.49308 -8.65066,0.1601 -4.62096,-6.58989 -2.21143,-8.51529 -7.63224,-4.27999 -12.31008,7.85203 -3.29012,8.42737 -0.10167,1.21764 2.17432,0.35808 2.004,0.581 z"
   id="path39" />
	<path
   d="m 201.28,40.569 c -12.47654,-2.918962 -2.44276,5.920776 4.003,5.718 -3.40614,4.26663 -5.191,22.216831 2.28336,9.935531 -0.14757,-7.766406 1.23556,-12.678753 7.13764,-17.654531 -5.88083,2.46618 -10.78573,6.49551 -13.424,2.001 z"
   id="path40" />
	<path
   d="m 214.142,172.644 c -1.98913,-0.29663 -9.48012,5.19183 -12.291,3.145 5.69912,4.9165 14.76041,5.43035 12.291,-3.145 z"
   id="path41" />
	<path
   d="m 187.21,195.554 c -2.08012,-1.51779 0.24668,0.98787 0,0 z"
   id="path42" />
	<path
   d="m 204.421,205.232 c 0.23085,2.45231 1.59042,0.41714 0,0 z"
   id="path43" />
	<path
   d="m 188.126,215.236 c 0.63856,-4.51378 -1.12561,-0.88127 0,0 z"
   id="path44" />
	<path
   d="m 190.416,194.083 c 0.041,0.0479 0.041,0.0479 0,0 z"
   id="path45" />
	<path
   d="m 198.425,210.951 c 7.76731,-5.48057 5.44947,6.81952 2.283,10.287 5.49113,0.12705 -1.4647,8.82417 0.856,13.1399 1.98025,3.50723 9.7644,-14.69609 9.17725,-13.98928 -2.55975,1.37826 0.37622,-12.11715 3.11175,-11.91594 -1.70506,-4.92251 -8.71676,-3.72559 -2.31447,-9.8192 4.76067,-14.22694 -13.77307,-23.8021 -25.80115,-20.26723 -13.96537,-1.27896 -22.70354,13.19288 -29.50524,23.24212 -3.37367,5.56528 -4.40902,10.58512 -4.72601,17.29075 0.25345,7.80291 2.22023,15.52507 5.45837,23.04213 5.62978,5.65917 -0.58467,-8.12185 -0.15222,-11.92217 -3.67405,-10.13418 -0.67525,-23.21993 2.7141,-30.88696 7.18906,-6.0486 14.29405,-16.02611 25.16862,-18.50212 9.95159,-3.73628 29.60987,9.36872 15.151,18.009 0.1426,-12.96898 -16.72302,-15.32403 -24.871,-6.859 -5.85834,1.9271 -14.78278,10.39108 -3.82087,7.39925 -1.2918,8.56165 17.61036,-10.05158 14.67587,2.90575 -7.94935,-0.95948 -12.70704,6.91553 -6.73275,8.3955 -3.58936,5.41643 3.31597,11.29554 0.16875,16.4615 7.33553,-1.65694 15.05084,-3.36246 17.02319,-10.45842 0.157,-4.70069 2.67333,-6.59976 2.13581,-5.55258 z m 5.996,-5.719 c 4.35901,-0.15295 0.69929,4.6265 1.20881,3.84363 -9.77147,-3.94781 1.21601,-1.32557 -1.20881,-3.84363 z m -14.005,-11.149 c 6.95738,-0.79766 2.38366,12.44504 0,0 z m -4.002,1.143 c 8.12084,3.09854 2.01367,8.80764 0.53662,0.40725 z m 1.712,20.01 c -11.37778,1.86264 11.21873,-17.46793 5.5042,-8.10239 -4.37765,3.36205 -6.82631,7.86637 -5.5042,8.10239 z"
   id="path46" />
	<path
   d="m 212.328,159.236 c 1.59554,-2.67455 -13.72074,-7.709 -3.95709,0.0655 9.58019,5.74917 -11.43485,11.24606 0.91509,10.48248 4.56236,-0.95864 4.11582,-7.87392 3.042,-10.548 z"
   id="path47" />
	<path
   d="m 211.849,135.479 c -9.99799,-4.81484 -22.49693,-2.42409 -33.446,-2.287 -7.18169,-1.87478 -13.87879,5.11644 -3.33436,3.715 12.16736,-1.12877 25.73748,-0.78278 37.35436,2.289 0.67,-0.37373 -0.6542,-4.77183 -0.574,-3.717 z"
   id="path48" />
	<path
   d="m 212.14,135.765 c 0.0671,0.064 0.0671,0.064 0,0 z"
   id="path49" />
	<path
   d="m 198.014,123.138 c 4.29026,0.0649 21.02855,-4.05266 10.69223,-5.66906 -7.4936,2.10532 -14.41996,3.6331 -22.29423,3.43306 -4.82966,1.49822 -18.93566,1.1379 -17.34236,5.717 6.69781,-0.66307 13.55244,-1.74393 20.06374,-2.6425 3.06445,0.0623 7.06032,-0.90323 8.88062,-0.8385 z"
   id="path50" />
	<path
   d="m 194.989,114.896 c 8.71531,-3.89363 10.61535,-20.63373 16.81033,-27.928109 2.21101,-12.659981 -5.81479,4.363094 -8.04155,9.214968 -2.18,4.786321 -8.1955,16.128921 -7.60455,17.473531 2.67822,-5.31238 -0.85771,-0.75287 -1.16423,1.23961 z"
   id="path51" />
	<path
   d="m 194.128,116.901 c -4.78634,0.32439 -20.85257,4.87292 -7.46056,2.89691 9.11152,-0.80912 28.05265,-1.10078 24.04156,-15.47991 -9.56511,-3.95446 3.57026,12.14482 -10.77869,11.30735 -1.91427,0.51269 -3.87212,0.86855 -5.80231,1.27565 z"
   id="path52" />
	<path
   d="m 210.425,149.773 c -0.32422,-13.29891 -26.84724,-9.54741 -18.584,0 3.26188,-13.42841 16.85222,-2.44981 18.87,3.712 -0.61588,-0.92457 -0.16384,-3.06485 -0.286,-3.712 z"
   id="path53" />
	<path
   d="m 177.768,175.845 c -5.52083,5.75942 7.03363,-1.93777 10.35497,-0.632 3.86346,-1.354 9.11926,-1.92722 12.67503,-5.811 6.06517,-3.15721 8.72533,-12.19335 2.29,-4.522 -7.50189,5.4786 -16.96767,8.09118 -25.32,10.965 l -0.0832,0.21488 z"
   id="path54" />
	<path
   d="m 177.815,175.638 c 0.007,-0.047 -0.01,0.058 0,0 z"
   id="path55" />
	<path
   d="m 196.445,58.437 c 5.14267,5.019392 8.20079,-17.793115 4.1862,-9.578813 0.32418,4.421455 -5.75952,7.322803 -4.1862,9.578813 z"
   id="path56" />
	<path
   d="m 202.701,152.545 c 6.7e-4,0.004 6.7e-4,0.004 0,0 z"
   id="path57" />
	<path
   d="m 202.703,152.573 c -1.88855,-8.06349 -1.65796,3.88058 -5.422,6.351 3.864,6.5262 7.01712,-4.5636 5.422,-6.351 z"
   id="path58" />
	<path
   d="m 196.992,64.297 c 13.04351,-5.189345 -5.53593,-7.086194 0,0 z"
   id="path59" />
	<path
   d="m 196.13,47.145 c -1.70877,8.866528 8.36195,-1.453186 0.40312,-0.04913 z"
   id="path60" />
	<path
   d="m 199.628,164.417 c -3.04188,-4.97942 -11.16588,-12.566 -6.542,-2.44833 -0.36232,3.19513 6.20574,5.832 6.542,2.44833 z"
   id="path61" />
	<path
   d="m 197.561,221.527 c 3.89158,-11.39295 -6.45895,6.66075 0.28497,5.142 -1.4602,7.6076 2.31097,14.60249 1.05703,3.483 0.6322,-4.56251 0.49752,-6.34222 -1.342,-8.625 z"
   id="path62" />
	<path
   d="m 197.561,221.527 c 0.11337,0.0697 0.11337,0.0697 0,0 z"
   id="path63" />
	<path
   d="m 183.207,153.513 c -7.45211,2.82474 -6.65952,18.20873 3.206,14.846 7.46517,0.35299 7.40897,-7.83507 -0.65538,-2.43763 -12.89453,-0.95576 2.85229,-14.64539 9.56513,-12.40837 8.49599,-2.16587 -10.67147,-3.28888 -12.11575,0 l -0.834,0.4545 z"
   id="path64" />
	<path
   d="m 186.701,73.16 c -9.14879,-5.077591 11.04906,16.444679 11.05537,1.409125 2.25549,-6.950761 -10.2332,-6.638736 -4.26512,0.453441 -1.49944,2.104061 -7.13163,-1.502351 -6.79025,-1.862566 z"
   id="path65" />
	<path
   d="m 196.228,26.708 c -0.0745,-0.12575 -0.0745,-0.12575 0,0 z"
   id="path66" />
	<path
   d="m 196.228,26.708 c 6.58023,-0.552351 -9.60406,-14.157983 -5.94361,-6.088703 3.10384,1.147961 5.99552,4.013545 5.94361,6.088703 z"
   id="path67" />
	<path
   d="m 192.416,53.72 c -4.79357,4.10349 5.9845,9.058012 2.857,-0.285 L 193.78725,53.368625 192.417,53.72 Z"
   id="path68" />
	<path
   d="m 193.561,53.416 c -0.097,-10e-4 -0.183,-10e-4 0,0 z"
   id="path69" />
	<path
   d="m 189.557,60.867 c 1.85902,8.456886 10.41427,-4.150801 0,0 l 0.23887,0.165 z"
   id="path70" />
	<path
   d="m 183.267,25.99 c 0.1115,0.281375 0.1115,0.281375 0,0 z"
   id="path71" />
	<path
   d="m 184.871,41.988 c -1.19746,0.03352 0.94314,1.300974 0,0 z"
   id="path72" />
	<path
   d="m 152.384,27.986 c 2.18023,8.265777 14.61596,6.088621 12.8965,11.13575 9.11782,5.208747 12.75539,-14.826583 18.8335,-8.5495 -9.69016,0.649017 -8.62678,21.472064 -0.636,15.683 -0.77665,2.238933 11.45066,7.889379 8.64237,1.179625 -3.77978,-2.279194 -7.5888,-8.301716 -3.42237,-12.581875 6.12889,-3.473332 -5.35445,9.562723 3.43,0 9.52155,-15.894619 -15.60408,-16.053367 -21.57488,-5.486125 -6.74959,9.356463 -23.90692,-7.483262 -10.53137,-7.0125 4.19745,10.483547 20.83824,-5.787563 7.99412,-0.55975 C 160.76041,15.301157 147.84345,14.721826 152.384,27.986 Z m 32.6,14.585 c -7.26555,4.183839 -6.30551,-6.73162 -6.291,-1.143 1.04934,2.66188 6.59768,-0.939723 6.291,1.143 z m 1.714,-18.582 c 1.6043,-1.652301 6.6391,7.991554 -0.123,1.138 0.85334,-3.599876 -0.49395,0.751032 0.123,-1.138 z m -3.431,2.001 c 9.04358,7.827596 -1.17496,1.426171 0,0 z"
   id="path73" />
	<path
   d="m 191.558,82.593 c -5.5842,0.9567 -15.78065,-21.879275 -11.721,-7.434 2.20417,4.276444 8.26326,16.440255 13.73297,10.944406 2.72682,-3.958311 -7.80399,-3.522608 -2.01197,-3.510406 z"
   id="path74" />
	<path
   d="m 186.98,233.248 c 5.13722,-0.87017 7.86759,-10.81535 3.21609,-5.77355 0.94713,-6.6292 -11.02981,2.65668 -13.14184,3.27868 -1.0093,6.70076 12.03911,-6.158 9.98538,2.15062 z"
   id="path75" />
	<path
   d="m 190.733,125.799 c -9.22128,5.17615 1.11401,7.80907 0,0 z"
   id="path76" />
	<path
   d="m 168.115,72.014 c 4.31242,6.820199 10.83365,-5.908 6.5,-11.09125 -3.18693,-7.892734 3.61338,-9.883012 2.083,-0.91175 -1.77868,7.700421 14.38768,12.312325 9.77425,3.801625 C 182.02835,56.637264 184.51903,46.875742 175.55,50.577 c -6.44629,3.305807 2.83081,-3.177249 1.56333,-3.170016 -2.19576,-12.528883 -8.65268,-1.509854 -7.7923,5.251735 -1.93746,5.206876 0.97005,11.153384 0.1556,15.879541 -0.97876,-0.06821 0.16272,3.826377 -1.36163,3.47574 z M 181.152,58.9 c 4.65783,3.327114 1.67034,10.205674 0,0 z m -1.706,-7.144 c 2.22753,2.302861 -1.26839,8.328995 0,0 l -0.17025,0.53925 z"
   id="path77" />
	<path
   d="m 179.55,51.433 c -0.0347,0.107667 -0.0347,0.107667 0,0 z"
   id="path78" />
	<path
   d="m 184.412,131.191 c -0.3095,0.10712 -0.3095,0.10712 0,0 z"
   id="path79" />
	<path
   d="m 185.27,130.334 c 6.2989,-10.15323 -25.49467,2.22151 -6.39625,1.17838 1.44861,-0.17724 6.49173,0.42998 6.39625,-1.17838 z"
   id="path80" />
	<path
   d="m 173.548,101.746 c -9.21188,-3.479889 4.12109,11.26314 9.3065,3.08487 8.7965,-7.038837 -1.67907,-25.940607 -4.79609,-25.048011 1.58018,6.633778 7.36329,11.787321 4.63259,18.534141 0.70616,-0.148612 -7.86972,5.51997 -9.143,3.429 z"
   id="path81" />
	<path
   d="m 138.832,231.802 c 10.29137,-18.20924 19.2959,-38.23821 28.90746,-57.24121 5.46911,-11.94303 12.38569,-23.45915 16.95554,-35.64879 -9.11001,7.01216 -12.3602,24.63183 -19.68858,35.27001 -8.51191,18.63577 -18.30733,37.02684 -27.76642,55.35099 -4.07986,1.99774 0.56202,2.71158 1.592,2.269 z"
   id="path82" />
	<path
   d="m 177.438,225.103 c 4.40355,-8.13074 -5.17172,-4.42314 0,0 z"
   id="path83" />
	<path
   d="m 166.632,88.172 c 1.44781,0.580217 7.00216,-3.13307 3.197,2.424 6.71743,12.26137 10.32891,-21.73344 -0.837,-7.550375 -1.82803,0.847266 -2.2936,5.172989 -2.36,5.126375 z"
   id="path84" />
	<path
   d="m 175.826,217.164 c -2.84626,1.81239 0.29724,4.64543 0,0 z"
   id="path85" />
	<path
   d="m 171.546,218.098 c -2.7745,-6.24576 8.24513,-15.29155 -3.32819,-14.19236 -0.87857,-4.19182 -14.77541,-5.03011 -5.10172,1.35303 3.4947,1.89906 3.15497,6.45986 7.17791,3.48433 -0.55649,7.58486 3.08565,16.75926 -1.57839,24.2584 -1.28498,4.47825 9.00649,1.12989 4.83239,-3.7564 5.27921,-2.64554 -2.79186,-11.88812 -2.002,-11.147 z"
   id="path86" />
	<path
   d="m 174.33,228.705 c 0.203,-0.14067 0.203,-0.14067 0,0 z"
   id="path87" />
	<path
   d="m 173.646,229.176 c -0.0327,0.0223 -0.0327,0.0223 0,0 z"
   id="path88" />
	<path
   d="m 173.646,229.176 c 0.228,-0.15733 0.228,-0.15733 0,0 z"
   id="path89" />
	<path
   d="m 168.688,131.763 c 0.13012,0.0349 0.13012,0.0349 0,0 z"
   id="path90" />
	<path
   d="m 168.687,131.763 c 6.74776,-6.59742 -15.90924,2.40277 -2.004,0.28088 0.0334,0.43105 3.40869,-0.44162 2.004,-0.28088 z"
   id="path91" />
	<path
   d="m 156.63,140.325 c -0.008,0.0244 -0.008,0.0244 0,0 z"
   id="path92" />
	<path
   d="m 166.684,136.908 c -4.72043,-4.23001 -10.70315,1.41285 -10.009,-4.287 -4.6674,-3.05136 -15.22219,7.23237 -10.54725,1.4575 9.16967,-3.84768 29.38182,-6.25261 23.65987,-21.88088 -6.65263,-10.50353 -2.8703,12.08521 -12.48254,12.1676 -7.74926,6.32245 -17.98527,7.61917 -25.77708,14.54078 -7.67734,3.46613 -12.54606,15.92886 -2.473,18.38962 5.97027,-2.01432 12.59129,-4.94387 18.901,0.0317 3.57782,4.19826 3.85097,13.35547 7.42686,2.86265 -0.57335,-6.56476 3.17368,-10.44673 -6.98786,-12.41902 -6.60272,1.64939 -12.9938,-0.98255 -3.19108,-1.69519 7.97301,1.54488 12.45125,1.13127 15.33508,-2.56594 5.60824,-0.34492 4.71081,-7.41701 6.145,-6.60187 z m -17.149,2.573 c -5.47086,3.13473 -17.7368,4.6722 -14.864,13.148 -7.18756,-7.91604 6.97832,-13.45341 13.352,-13.667 5.35032,-3.35711 -0.58087,2.94148 1.512,0.519 z m 7.095,0.844 c -5.5692,4.62639 1.50218,-7.36202 0,0 z m 4.054,0.872 c -4.97995,-2.30187 2.11457,-3.72757 0.0134,-0.24947 z"
   id="path93" />
	<path
   d="m 158.973,138.265 c -0.8808,-0.0959 0.47338,0.54039 0,0 z"
   id="path94" />
	<path
   d="m 164.969,223.242 c 5.94731,7.83174 3.03341,-14.55569 -6.1478,-5.07673 -2.71202,3.64357 0.6679,22.46522 3.72605,17.90848 -2.68126,-4.31731 -4.68427,-17.63342 2.42175,-12.83175 z"
   id="path95" />
	<path
   d="m 162.113,91.741 c 0.21167,13.83778 -6.02335,-7.157563 -9.721,4.86 -3.16466,16.64488 21.51886,8.58471 12.77638,-3.1985 -3.57465,-3.054717 -2.01021,0.506267 -3.05538,-1.6615 z"
   id="path96" />
	<path
   d="m 164.498,45.384 c -2.56587,7.702646 4.90412,0.746296 0,0 z"
   id="path97" />
	<path
   d="m 155.539,86.023 c 0.0135,0.1415 0.0135,0.1415 0,0 z"
   id="path98" />
	<path
   d="m 140.717,66.706 c 8.21833,6.54593 8.70789,30.153455 23.395,21.319 2.71816,-9.87325 -6.20984,-25.966565 -7.737,-30.297125 -5.56597,8.547061 1.20348,19.562659 1.734,26.294125 -1.48306,-7.067299 -12.3092,-21.179278 -17.392,-17.316 z m 14.822,19.317 c 4.11478,0.259926 7.03381,1.420922 0.97662,1.738375 C 151.84689,86.536281 156.3837,86.405132 155.539,86.023 Z"
   id="path99" />
	<path
   fill="none"
   stroke="#000000"
   stroke-width="0"
   stroke-linecap="round"
   stroke-linejoin="round"
   d="m 140.661,65.867 0.003,-0.049"
   id="path100" />
	<path
   d="m 161.257,46.573 c -0.9697,-8.667555 -6.19488,2.286586 0,0 z"
   id="path101" />
	<path
   d="m 127.522,135.765 c -6.11092,3.16194 -10.39822,13.73071 -1.56514,5.15112 7.64889,-6.91312 17.39409,-11.42735 24.77071,-19.14169 5.39898,-3.19505 11.23763,-18.26011 2.58731,-7.24268 -5.38719,10.12425 -17.2836,14.20306 -25.15119,21.35825 -3.35083,-0.76271 -0.89215,3.71094 -0.64169,-0.125 z"
   id="path102" />
	<path
   d="m 155.251,265.266 c -0.0816,-0.34862 -0.0816,-0.34862 0,0 z"
   id="path103" />
	<path
   d="m 155.251,265.266 c -4.70391,-13.00811 -19.31278,-6.36491 -27.33525,-1.31662 -3.65559,1.00253 -15.0214,-8.12205 -9.19168,1.924 8.20817,7.95684 18.92451,0.58534 25.33993,-5.14638 5.29822,-3.24027 11.14579,6.12495 4.329,7.971 -2.92836,0.65404 -13.64851,-5.12702 -6.75397,1.89197 7.64386,2.74988 15.06773,-0.97761 13.61197,-5.32397 z"
   id="path104" />
	<path
   d="m 151.82,49.432 c 6.69131,2.777425 2.03746,-9.659659 -0.80588,-1.97125 L 151.253,49.435 Z"
   id="path105" />
	<path
   d="m 141.645,33.289 c -7.04584,-5.518753 -26.65959,3.997087 -18.692,10.428 0.23795,-12.078946 19.4673,-14.107376 16.87138,-1.080375 6.70098,10.9739 -0.16438,-9.11195 8.15349,-4.713 14.71012,-0.330443 -6.72553,-8.102139 -6.33287,-4.634625 z"
   id="path106" />
	<path
   d="m 142.675,234.679 c 0.0785,-0.0284 0.0785,-0.0284 0,0 z"
   id="path107" />
	<path
   d="m 145.531,233.821 c 3.92551,-0.4716 8.70188,11.17644 5.2472,0.97136 -4.05428,-10.784 -13.84508,2.75851 -5.81814,-1.12717 z"
   id="path108" />
	<path
   d="m 146.104,54.578 c 8.09185,8.384572 6.08534,-9.806384 0,0 0.19774,0.814687 0.77736,-0.272138 0,0 z"
   id="path109" />
	<path
   d="m 145.972,63.615 c 6.27955,5.694401 7.00905,-7.799541 0.232,-3.462 -0.87582,0.55015 -0.0278,4.195099 -0.232,3.462 z"
   id="path110" />
	<path
   d="m 149.293,94.11 c 6.98435,-2.265257 -8.90455,-0.461236 0.809,-4.083 4.10522,-2.537496 -13.52679,-4.316996 -8.33122,3.181094 -2.17195,6.793446 5.38689,9.805456 6.94122,2.494031 l -0.039,-1.675125 0.62,0.083 z"
   id="path111" />
	<path
   d="m 150.742,41.64 c -5.79847,-4.24456 -2.99137,5.083913 -0.0169,0.717375 z"
   id="path112" />
	<path
   d="m 136.114,112.879 c -2.47159,1.20052 -10.84732,16.35642 -15.82989,22.60775 -2.88718,8.59097 7.55096,-7.83577 9.79495,-11.45815 3.76194,-7.11932 12.88208,-14.90097 19.16994,-9.32192 1.47041,-11.79516 -15.1345,-3.44224 -13.135,-1.82768 z"
   id="path113" />
	<path
   d="m 136.114,112.879 c -0.0479,0.05 -0.003,0.006 0,0 z"
   id="path114" />
	<path
   d="m 120.09,36.281 c 11.79565,-2.796909 -1.89214,-17.490549 10.8197,-16.896281 2.90219,4.770263 14.28064,16.033159 15.1933,4.601281 -10.17375,5.889667 -14.54161,-20.9278994 -24.869,-5.433 3.61705,9.781432 -3.1731,5.332504 -7.49788,6.651 -4.28073,7.04893 7.19116,10.538259 6.35388,11.077 z"
   id="path115" />
	<path
   d="m 146.582,178.594 c 0.47953,-4.87706 0.27115,-13.37879 -3.49575,-13.93863 -5.60158,-4.30497 -17.41345,4.85389 -5.84025,4.27263 11.78253,1.6951 -2.52411,22.23576 7.66725,11.99838 l 1.66875,-2.33238 -0.18638,0.38587 z"
   id="path116" />
	<path
   d="m 142.675,182.078 c -0.12973,1.4084 1.61425,-0.48817 0,0 z"
   id="path117" />
	<path
   d="m 132.756,127.714 c -3.2939,7.95143 20.60801,-13.02273 5.877,-10.26462 4.38302,4.62895 -5.36606,8.94399 -5.877,10.26462 z"
   id="path118" />
	<path
   d="m 128.952,170.925 c 3.4134,4.61908 8.7912,22.30998 11.72,18.301 -11.69827,-23.41587 -24.32699,-46.05949 -35.97267,-69.4342 -1.19803,-5.64865 -8.855815,-11.33262 -3.92262,-2.19756 8.50971,16.62285 17.30356,32.66947 25.78907,49.12795 0.26433,0.70306 2.43002,4.01885 2.38622,4.20281 z"
   id="path119" />
	<path
   d="m 121.002,156.033 c 0.069,0.17 0.057,0.14 0,0 z"
   id="path120" />
	<path
   d="m 120.257,154.188 c 0.10267,0.25433 0.10267,0.25433 0,0 z"
   id="path121" />
	<path
   d="m 134.669,62.582 c -11.25165,-0.217673 1.901,15.761569 -0.48212,23.991625 -0.26299,10.227259 -2.74802,18.171375 -6.41913,27.711505 -0.66257,7.4635 -16.83333,17.46527 -10.25075,22.05187 7.15252,-10.43312 17.48208,-20.19784 18.296,-33.733 2.08729,-6.994897 1.98409,-15.358628 1.43,-23.534644 0.74642,-5.717367 -2.0492,-12.960374 -2.574,-16.487356 z"
   id="path122" />
	<path
   d="m 135.813,68.299 c 0.0849,0.094 0.0849,0.094 0,0 z"
   id="path123" />
	<path
   d="m 134.097,53.72 c -3.52686,3.461207 -16.18517,7.694536 -4.5598,7.707518 8.42155,-0.907115 6.44059,-10.430044 4.5598,-7.707518 z"
   id="path124" />
	<path
   d="m 112.372,34.853 c -1.27212,-6.52431 -4.38352,-0.815878 -4.00275,0.9905 -5.22122,-5.252993 -17.671855,3.606652 -9.43425,6.7285 6.4264,-3.759235 16.30733,6.183822 18.01,12.578 12.39312,8.991641 26.05533,-14.48531 12.86095,-17.800641 -6.61453,0.89598 0.78995,14.716037 -9.14495,9.794641 -4.13595,-6.137542 -2.14071,-9.033034 -6.288,-6.862 -0.60935,-3.305933 -5.83805,-5.808792 -2.001,-5.429 z m 11.037,15.284 c 3.35364,1.857029 7.97097,-10.841299 7.63325,-1.28675 3.6245,4.914304 -5.64295,4.719 -5.786,3.222125 -2.49708,1.05827 -1.49579,-2.316159 -1.84725,-1.935375 z"
   id="path125" />
	<path
   d="m 113.8,260.975 c 4.83523,-8.60719 14.72711,-0.76598 18.905,-2.758 -4.80252,-8.30073 -23.92715,-4.53226 -20.11,6.11062 2.8165,9.76382 0.67486,-4.3312 1.205,-3.35262 z"
   id="path126" />
	<path
   d="m 126.824,97.04 c 7.12897,3.15106 -0.45465,-9.332629 -0.20625,-0.218625 z"
   id="path127" />
	<path
   d="m 123.52,99.459 c 0.28279,3.93544 2.12996,18.41129 3.146,7.148 1.36278,-4.23548 -1.70907,-9.559032 -3.146,-7.148 z"
   id="path128" />
	<path
   d="m 93.218,56.864 c -0.738161,-0.813896 -0.06699,1.157632 0,0 z"
   id="path129" />
	<path
   d="m 76.204,90.466 c -0.377427,0.0098 0.137306,0.610202 0,0 z"
   id="path130" />
	<path
   d="m 89.443,55.032 c 0.764147,2.10905 1.048862,-0.724891 0,0 z"
   id="path131" />
	<path
   d="m 80.75,104.367 c -0.126723,-0.21989 -0.426232,0.32468 0,0 z"
   id="path132" />
	<path
   d="m 115.802,90.025 c -0.0629,0.11975 -0.0629,0.11975 0,0 z"
   id="path133" />
	<path
   d="m 120.662,77.447 c -0.005,0.417 -0.005,0.417 0,0 z"
   id="path134" />
	<path
   d="m 96.154,46.281 c -7.28577,-1.948836 -5.637596,-19.83101 -12.6495,-7.562625 -5.773871,4.189542 1.891123,14.848524 -2.951,16.249125 -6.03145,0.04646 1.877234,10.98535 4.774797,7.428062 4.172011,2.237498 4.870302,6.405071 -0.685297,3.042438 3.80002,3.713726 11.549891,7.704359 2.002,6.861 3.378429,9.490659 8.928535,21.045556 -2.288,28.301 C 78.75103,100.5716 90.403802,87.148989 81.776156,88.244422 82.567853,79.838571 73.300545,74.000995 72.636,85.45 c 2.457752,8.699173 -4.979776,10.23303 -9.172563,17.65034 -4.437983,5.06965 -5.609855,22.4853 6.313563,15.79666 17.521769,-0.78968 37.35998,-7.93666 47.16006,-24.217368 5.45264,-6.606533 -0.0949,-8.835973 7.56289,-14.18396 3.54863,-7.731802 2.40491,-17.176389 -7.55095,-9.625672 -4.66258,-12.349994 -6.01851,13.182567 -11.15,10.864 -0.29728,-9.875019 8.56846,-20.163278 0.8748,-29.766375 -3.83318,-7.660392 -5.30527,7.261551 -8.2663,-3.8405 L 96.154,46.281 l 0.38925,0.2085 z m 24.508,31.166 c 1.18366,9.607253 -4.87026,8.117474 0,0 z M 105.796,57.15 c 5.26861,-1.698422 1.11119,16.508452 1.11178,3.958312 C 104.60784,58.971177 105.9654,56.620324 105.796,57.15 Z m -10.577,4.003 c 3.519087,0.409097 0.23724,3.14308 0,0 z m -2.001,-4.289 c 3.748215,3.217547 -2.741546,3.151921 0,0 z m -3.145,-1.143 c -3.32757,-5.851684 6.308485,-1.477276 0.03563,-0.498375 z m -9.539,48.704 c 4.150535,2.55453 -2.375089,2.83461 0,0 z m -1.61,4.182 c -5.756818,-2.71875 2.159571,-0.99855 -0.61575,-0.11663 z m -2.72,-18.141 c 7.435785,-0.202617 -2.143335,5.050479 0,0 z m -0.996,-8.159 c 2.159206,10.102921 -4.058037,2.185058 0,0 z m -8.291,26.3 c -5.025177,2.74889 8.588766,-10.641071 8.005,-10.291 0.908239,5.7256 -7.576839,11.57764 -8.005,10.291 z m 6.861,1.43 c 3.249307,-2.20148 3.638445,3.57624 0,0 z m 44.31,-31.447 c -3.85404,4.950122 -2.55904,-3.24563 0,0 z m -2.286,11.435 c 0.95094,6.776275 -15.58329,15.08004 -6.004,8.292 1.47008,-2.872455 4.86218,-6.805875 6.004,-8.292 z m -10.707,5.962 c 1.1426,-5.811365 14.8468,-19.786825 6.134,-7.678 -4.2038,10.185614 -12.706547,20.3009 -22.866966,23.727 0.843761,-2.00049 17.431846,-13.232249 16.732966,-16.049 z m -3.873,-7.963 c 4.04925,0.172111 -1.683344,7.888309 -1.144,2.286 1.8053,0.754909 0.27146,-2.232721 1.144,-2.286 z m -1.147,-15.438 c -0.622654,5.210058 -1.078002,15.450399 -4.002,21.631322 -0.957654,7.007048 -5.700102,11.208748 -10.050484,16.775878 -4.642932,4.96026 -16.179997,7.29557 -5.201672,1.0155 C 90.089009,106.49062 96.118184,95.295074 96.0265,84.996578 95.834636,78.889515 93.918407,69.868162 100.075,72.586 Z m -0.568,-5.43 c 1.00262,4.345959 -7.680925,-1.4132 0,0 l -0.990375,0.3615 z"
   id="path135" />
	<path
   d="m 99.646,49.935 c 0.05567,0.126333 0.05567,0.126333 0,0 z"
   id="path136" />
	<path
   d="m 99.646,49.935 c -0.084,-0.191 -0.062,-0.14 0,0 z"
   id="path137" />
	<path
   d="m 99.812,50.313 c 0.02967,0.06733 0.02967,0.06733 0,0 z"
   id="path138" />
	<path
   fill="none"
   stroke="#000000"
   stroke-width="0"
   stroke-linecap="round"
   stroke-linejoin="round"
   d="m 99.906,50.529 0.011,0.024"
   id="path139" />
	
		<line
   fill="none"
   stroke="#000000"
   stroke-width="0"
   stroke-linecap="round"
   stroke-linejoin="round"
   x1="99.9"
   y1="50.515"
   x2="99.906"
   y2="50.529"
   id="line139" />
	<path
   d="m 75.208,82.307 c -1.002688,1.455222 1.065282,1.504749 0,0 z"
   id="path140" />
	<path
   d="m 73.903,109.776 c -0.651462,0.54994 0.940027,0.12849 0,0 z"
   id="path141" />
	<path
   d="m 125.619,235.076 c -0.0653,0.0497 -0.0653,0.0497 0,0 z"
   id="path142" />
	<path
   d="m 126.378,231.535 c -4.84997,-6.19492 -8.52033,7.85602 -0.751,3.534 1.45256,-0.43703 0.45408,-3.70544 0.751,-3.534 z"
   id="path143" />
	<path
   d="m 125.423,235.225 c -0.101,0.078 -0.157,0.121 0,0 z"
   id="path144" />
	<path
   fill="none"
   stroke="#000000"
   stroke-width="0"
   stroke-linecap="round"
   stroke-linejoin="round"
   d="m 125.667,235.038 -0.037,0.027"
   id="path145" />
	<path
   d="m 121.805,90.883 c 2.57165,10.54459 4.01995,-6.528528 0.429,0.3795 l -0.10725,-0.4515 z"
   id="path146" />
	<path
   d="m 122.091,227.531 c 7.08785,-8.19434 -11.46358,-2.08268 0,0 z"
   id="path147" />
	<path
   d="m 116.659,104.891 c -10.6167,-4.47189 -11.37071,18.536 -4.383,5.62425 8.68983,-0.87411 7.95498,14.02513 1.82727,19.12362 3.1876,1.76279 13.54629,-16.82004 5.98473,-23.31687 -1.04924,0.24775 -3.11293,-2.11329 -3.429,-1.431 z"
   id="path148" />
	<path
   d="m 116.374,234.96 c -0.97446,-1.81278 -12.62526,-5.49429 -5.91909,-13.03985 13.44418,-1.04547 14.47102,-21.56107 0.38222,-22.15665 -6.61565,-1.24459 -7.28129,10.33808 -12.75813,2.5995 -6.914103,7.87413 -7.648063,17.87755 -3.431,26.72812 5.51349,4.06543 -4.843942,15.55907 1.197,11.059 2.943601,0.31103 0.817418,8.92229 -3.595781,5.03121 -2.797341,-4.0509 -6.172768,-10.56174 -6.317469,-18.36783 1.427386,-7.31377 -1.10066,-8.86784 -4.613625,-7.214 1.547545,-6.62852 -6.777766,-15.06103 -3.50625,-3.26572 0.08386,7.64563 1.410004,14.84078 3.636,21.95572 2.03527,11.27287 21.322365,17.86279 23.409565,3.5805 1.40273,-9.29949 -4.71893,8.73768 -3.34744,-1.487 0.343,-5.05308 -0.14505,-11.62763 2.857,-6.19032 -0.0626,-5.30381 -2.34451,-10.27197 -1.428,-15.7149 -2.51815,-9.56875 15.69947,-17.44054 14.61092,-5.51108 -10.31027,2.02286 -16.73067,16.82297 -5.74892,22.2733 1.20496,0.14466 4.6296,-0.0285 4.573,-0.28 z M 96.447,212.271 c -2.665087,2.38925 -1.781498,12.05064 -2.9785,1.9305 -1.225095,-3.25714 4.298394,-8.07721 2.9785,-1.9305 z"
   id="path149" />
	<path
   d="m 116.374,234.96 c -0.11625,0.0745 -0.11625,0.0745 0,0 z"
   id="path150" />
	<path
   d="m 96.363,212.378 c 0.028,-0.0357 0.028,-0.0357 0,0 z"
   id="path151" />
	<path
   d="m 120.662,101.747 c 0.7639,-12.303068 -5.10868,1.78955 0,0 z"
   id="path152" />
	<path
   d="m 117.125,236.69 c -9.75264,7.36536 8.79437,4.40481 0,0 z"
   id="path153" />
	<path
   d="m 31.679,28.272 c -0.686479,7.480277 12.24167,-4.936456 16.666625,-5.845875 5.266248,-1.628268 10.124132,-5.296412 16.357203,-4.416672 9.83317,-0.415818 19.246446,-0.311373 27.944172,3.693547 4.292859,2.357972 25.96078,13.178563 14.3594,2.287221 C 100.04761,19.262246 91.027253,16.649732 83.4675,15.158375 69.822994,13.28654 55.502827,13.815141 43.1015,20.82725 38.54143,20.050944 31.169966,28.751213 31.679,28.272 Z"
   id="path154" />
	<path
   d="m 31.679,28.272 c 0.276,-0.349375 0.276,-0.349375 0,0 z"
   id="path155" />
	<path
   d="m 108.587,21.969 c 2.81049,3.093723 -3.6255,-6.969611 3.784,-6.842 -8.76538,-5.2415793 -7.92299,6.686223 -3.784,6.842 z"
   id="path156" />
	<path
   d="m 103.795,192.367 c 4.09123,-5.6651 4.94598,-13.46941 -0.35088,-3.71512 -2.48058,6.51138 -2.55717,15.28855 -0.008,4.77262 0.23507,-1.09791 0.57322,-1.5644 0.35887,-1.0575 z"
   id="path157" />
	<path
   d="m 107.225,260.406 c -1.08537,-6.89966 -20.402878,-0.31451 -7.890562,4.95967 4.985672,3.72364 9.963392,0.0549 7.890562,-4.95967 z"
   id="path158" />
	<path
   d="m 98.935,256.404 c 8.7207,0.2913 9.27947,-14.3442 0.510938,-4.34998 -5.624408,1.86135 -15.667419,-1.13977 -5.97436,4.02457 3.413024,1.00309 6.972412,-0.34582 5.463422,0.32541 z"
   id="path159" />
	<path
   d="m 104.938,175.216 c -6.341122,-4.1131 -9.942532,13.72893 -7.103125,17.708 2.756555,4.37932 4.158965,-10.26716 7.233455,-15.58172 -0.92485,-6.99997 0.59039,4.95542 -0.13033,-2.12628 z"
   id="path160" />
	<path
   d="m 94.361,26.276 c 1.56154,-0.357185 -1.673101,-0.630605 0,0 z"
   id="path161" />
	<path
   d="M 82.926,25.418 C 74.241269,23.297347 69.172383,44.003593 77.325,31.851 82.513182,22.791642 91.422747,28.977387 98.934,27.993 95.989527,24.415945 79.379131,25.910085 82.926,25.418 Z"
   id="path162" />
	<path
   d="m 98.078,165.21 c -3.363821,7.80022 2.00196,4.52879 1.09375,0.19113 -2.59786,-0.80945 0.157787,1.29612 -1.09375,-0.19113 z"
   id="path163" />
	<path
   d="m 96.077,194.369 c -8.469983,2.17288 1.590084,-12.10336 -0.464937,-16.8205 1.617842,-8.22066 -5.562715,-12.26381 -6.057891,-2.28016 -4.206565,3.32352 -1.585793,9.68256 -5.774844,14.02641 -4.520819,-5.96799 1.545012,-13.07365 4.737703,-19.14483 5.132881,-4.76002 3.595353,-26.26606 -3.531656,-17.24715 -3.212209,-2.51726 -15.615797,-13.68542 -22.350344,-4.42664 -7.46194,11.3702 17.933084,15.86825 7.777969,24.60987 -7.308128,6.58009 10.862758,-1.89039 4.221,-8.736 -4.030982,-4.10055 -13.004069,-9.80254 -6.862,-14.577 14.14289,-1.2879 13.708703,18.3208 10.850781,28.13925 1.281923,6.96081 -6.033709,15.9135 1.234969,21.36925 5.98953,9.64371 6.18202,-14.65338 7.06725,0.5195 -4.101463,4.01803 5.391172,16.06115 6.650875,4.93763 3.003608,-2.51093 2.524602,-9.27185 2.501125,-10.36963 z m -8.291,-30.014 c 2.050275,-12.0063 0.81193,8.94111 -0.549266,0.49436 1.743375,-0.99993 -1.034027,-1.79955 0.549266,-0.49436 z m -5.849,32.844 c -5.665741,-3.08489 4.673241,-0.69258 0,0 z m 1.585,-3.991 c -7.014622,-4.31116 3.320674,-0.64892 -0.834,-0.087 z m 5.407,-0.841 c -5.157331,1.2673 0.316027,-3.95337 0,0 z m 1.144,-4.002 c -6.882771,-0.80721 2.114893,-4.02385 0,0 z"
   id="path164" />
	<path
   d="m 90.073,188.365 c -0.05962,-0.14738 -0.05962,-0.14738 0,0 z"
   id="path165" />
	<path
   d="m 81.497,197.227 c 0.146667,-0.009 0.146667,-0.009 0,0 z"
   id="path166" />
	<path
   d="M 91.461,223.814 C 87.762893,214.46537 83.068214,201.84088 72.532214,196.74097 64.996965,197.38859 59.528671,180.01345 60.628,193.796 c 4.546046,4.77502 13.910681,6.79768 2.708766,8.89925 -6.495737,2.6758 -2.099421,17.76945 0.546359,5.30525 9.428862,-9.38921 20.349386,2.77615 24.187875,11.8115 2.739874,4.92696 1.734343,9.20709 1.717,14.28793 2.063447,4.74966 1.21523,-9.79205 1.673,-10.28593 z"
   id="path167" />
	<path
   d="m 88.715,258.537 c -8.234299,-7.4979 -17.985667,2.56459 -23.51,8.728 5.315242,-1.49472 15.962791,-11.20295 18.579,-3.712 3.089478,3.6235 -9.07545,8.56817 2.571,6.576 4.294886,-1.60918 4.230259,-8.87128 2.36,-11.592 z"
   id="path168" />
	<path
   d="m 87.786,86.881 c -2.304142,7.521512 2.952507,7.895435 0,0 z"
   id="path169" />
	<path
   d="M 65.774,50.29 C 70.65475,61.666436 77.080308,72.820133 83.78125,83.56025 89.00551,85.699534 78.516506,70.596555 76.484455,65.967907 71.479249,55.770203 65.07201,46.206433 60.628,35.711 c -8.589113,-5.690293 4.110147,11.180786 5.512375,14.67725 z"
   id="path170" />
	<path
   d="m 77.606,124.928 c 0.32525,0.32062 0.32525,0.32062 0,0 z"
   id="path171" />
	<path
   d="m 71.206,122.329 c -15.235769,-2.40255 12.028567,3.42892 5.321625,12.10925 -5.49545,7.83167 -8.605975,-10.01431 -8.182625,2.17868 -0.226937,6.04875 13.517102,8.05357 14.2805,4.99619 3.512535,-7.8877 -6.603798,-21.03342 -11.4195,-19.28412 z"
   id="path172" />
	<path
   d="m 82.069,36.567 c -1.222043,-7.009171 -8.40485,4.889005 -0.205875,-0.2055 z"
   id="path173" />
	<path
   d="m 80.639,37.139 c -0.633571,0.56794 0.967352,0.164341 0,0 z"
   id="path174" />
	<path
   d="m 66.631,19.987 c -8.30476,-2.822783 -23.784524,10.055142 -7.756984,10.169766 5.366715,0.67936 16.919035,-6.778555 5.410656,-2.985188 C 49.962937,31.578104 64.00684,15.676963 72.431955,21.010223 90.491222,21.426085 70.450039,18.46451 66.631,19.987 Z"
   id="path175" />
	<path
   d="m 75.779,19.987 c 0.129667,0.0083 0.129667,0.0083 0,0 z"
   id="path176" />
	<path
   d="m 75.283,249.789 c 10.635715,-3.0637 -11.39142,-0.3311 -14.690125,-1.35525 -11.755059,-1.61876 -23.071869,0.19984 -34.447375,-2.5e-4 -9.396549,-0.83557 6.411683,4.10916 11.033344,1.46325 12.637763,-1.01692 25.423283,0.20728 38.104156,-0.10775 l -1.6785,-0.0101 z"
   id="path177" />
	<path
   d="m 72.635,41.141 c -1.863195,12.241597 9.273674,-3.907758 0.129375,0.02287 z"
   id="path178" />
	<path
   d="m 65.759,212.009 c -4.010203,5.80464 10.705727,23.51368 7.447,14.949 -6.471401,-4.69357 -6.452223,-15.22013 0.920375,-12.35688 1.23549,-4.25545 -7.834075,-7.53781 -8.367375,-2.59212 z"
   id="path179" />
	<path
   d="m 58.913,219.524 c 0.44727,0.68399 0.06084,-0.51765 0,0 z"
   id="path180" />
	<path
   d="m 59.126,219.698 c -10.346187,-4.34425 -26.974843,1.07664 -26.283,14.444 1.079306,8.35283 5.390177,-7.72923 7.820109,-10.18942 6.122997,-5.34745 16.274976,-3.83036 22.213891,0.88962 5.537025,2.36519 12.300281,24.68396 10.017328,9.22608 C 70.800266,227.62652 64.779147,221.20021 59.126,219.698 Z"
   id="path181" />
	<path
   d="m 68.633,182.363 c -2.751715,11.78729 8.263092,-1.59174 0.857625,-1.55537 L 68.633,182.363 l -0.07162,0.0975 z"
   id="path182" />
	<path
   d="m 70.634,180.933 c -0.08038,-0.20088 -0.08038,-0.20088 0,0 z"
   id="path183" />
	<path
   d="m 68.58,261.026 c 8.094113,-8.52492 -1.148749,-9.7978 -3.376,-0.624 -10.835682,7.66617 -25.977045,9.99216 -37.199604,1.64476 -8.372729,-7.58709 -12.983757,-19.11235 -11.975662,-30.30974 2.727697,-9.34073 6.854649,-20.96068 16.555891,-25.50864 7.730028,-0.87574 12.366532,-8.75332 1.394234,-4.59427 -8.288544,4.47217 -15.440229,12.43724 -18.515859,21.03789 -2.251815,10.07751 -2.019515,21.18636 2.168,30.515 6.727442,11.04756 19.341444,18.4637 32.219541,16.939 6.74418,-0.16706 17.319333,-4.96536 18.729459,-9.1 z"
   id="path184" />
	<path
   d="m 68.58,261.026 c -0.21175,0.282 -0.21175,0.282 0,0 z"
   id="path185" />
	<path
   d="m 69.776,35.424 c -8.12664,-3.246146 1.16675,6.03896 0,0 z"
   id="path186" />
	<path
   d="m 68.196,237.188 c 5.411717,4.52054 -5.09942,-15.16618 -5.567,-3.654 3.551653,-0.67599 4.956991,3.16215 5.567,3.654 z"
   id="path187" />
	<path
   d="m 68.196,237.188 c -0.045,-0.0747 -0.045,-0.0747 0,0 z"
   id="path188" />
	<path
   d="m 66.06,168.355 c -11.897842,-1.47741 2.884664,8.69666 0,0 z"
   id="path189" />
	<path
   d="m 64.916,134.052 c 0.120244,-8.28835 -7.063802,-8.77794 -2.400125,-0.76275 1.965004,11.83006 -19.064011,13.83888 -17.896875,20.48275 9.016681,-3.94811 20.778054,-8.61718 20.868,-19.723 -0.141914,0.87071 -1.065805,-0.72526 -0.571,0.003 z"
   id="path190" />
	<path
   d="m 65.493,134.341 c -0.048,0.165 -0.012,0.042 0,0 z"
   id="path191" />
	<path
   d="m 63.676,176.263 c -8.669827,2.55322 6.978829,6.31498 0.478678,-0.19 -0.170468,-0.54772 -0.795865,0.66532 -0.478678,0.19 z"
   id="path192" />
	<path
   d="m 62.916,199.514 c -3.455529,-3.49461 -2.960797,2.26321 0,0 z"
   id="path193" />
	<path
   d="m 56.902,259.135 c 0.250168,4.69651 8.908675,-2.65244 0.777,-1.29273 -1.466526,4.49854 -0.319869,-2.37939 -0.777,1.29273 z"
   id="path194" />
	<path
   d="m 56.442,125.984 c -0.034,-0.26533 -0.034,-0.26533 0,0 z"
   id="path195" />
	<path
   d="m 56.34,125.188 c 0.289176,6.06344 0.272875,23.71738 2.002,8.861 -0.0091,-15.71041 0.165849,-31.20142 0.571,-46.883 -5.187292,2.413528 -0.357209,19.548 -2.859,27.443 0.190733,3.34665 -0.380717,8.234 0.286,10.579 z"
   id="path196" />
	<path
   d="m 57.198,149.484 c 0.05225,-0.064 0.05225,-0.064 0,0 z"
   id="path197" />
	<path
   d="m 56.34,216.951 c 1.758594,-9.53381 1.288608,-20.78623 1.387,-31.01 1.115987,-11.72666 -0.0616,-23.7433 1.186,-35.309 -6.528397,0.87114 -1.70351,20.44258 -3.127944,28.00257 0.210815,12.65297 -0.187517,25.36886 -0.110931,37.98005 2.781162,0.16111 -0.164338,0.42713 0.665875,0.33638 z"
   id="path198" />
	<path
   d="m 55.769,224.386 c -0.885966,7.26994 6.624938,13.40878 1.701688,2.13591 -3.845121,-4.01681 0.22641,-0.63946 -1.701688,-2.13591 z"
   id="path199" />
	<path
   d="m 56.054,254.402 c -8.114252,-1.39534 2.292981,8.35491 0,0 z"
   id="path200" />
	<path
   d="m 56.054,254.402 c 0.006,0.003 0.006,0.003 0,0 z"
   id="path201" />
	<path
   d="m 44.625,264.123 c 5.095376,2.2573 13.35624,-6.42396 3.999125,-2.139 1.444869,-0.439 -5.51445,2.35828 -3.999125,2.139 z"
   id="path202" />
	<path
   d="m 49.193,258.976 c 3.695605,-6.00339 -8.496626,-0.14132 -0.112125,-0.30863 z"
   id="path203" />
	<path
   d="m 42.333,126.331 c 0.02825,-0.0431 0.02825,-0.0431 0,0 z"
   id="path204" />
	<path
   d="m 42.333,126.331 c 0.412292,-7.08871 -14.990429,4.80992 -16.95225,9.20625 -2.230514,10.61039 12.207728,-9.798 16.95225,-9.20625 z"
   id="path205" />
	<path
   d="m 33.185,102.155 c 0.09533,-0.0413 0.09533,-0.0413 0,0 z"
   id="path206" />
	<path
   d="m 31.184,103.176 c 3.292255,7.00308 17.588322,12.64982 9.28175,1.7985 -3.986204,-5.215002 -9.720926,-1.80007 -8.617156,-1.55241 z"
   id="path207" />
	<path
   d="m 39.522,257.376 c -3.051635,5.54421 -17.553726,-4.23027 -6.625,3.313 4.603927,2.65963 12.425331,0.85161 10.291,-5.99893 -6.344071,-4.12413 -8.251971,-2.59382 -3.666,2.68593 z"
   id="path208" />
	<path
   d="m 14.031,79.734 c 1.670674,8.104836 4.585332,16.886986 6.858578,25.20328 -0.754952,6.1921 -8.065964,16.32457 3.399328,11.98911 C 34.531356,111.32556 20.377155,96.785874 31.468,98.414678 32.850562,87.714136 23.948192,82.269731 19.367375,74.337125 24.662656,67.649496 26.015869,86.910854 34.899,83.74 34.75723,80.662147 46.448456,79.454512 42.033125,71.031875 36.659673,77.116225 23.395358,73.035185 23.75,61.348356 19.402976,55.421786 32.149976,38.53106 19.134275,42.9439 13.584913,54.479942 14.139746,67.296781 14.031,79.734 c 0.948472,-0.895721 -0.587689,-4.14161 0,0 z m 13.648,7.576 c 2.555978,1.316908 3.105014,13.26683 -0.279125,1.863 L 27.679,87.31 27.511,87.6835 Z m -2.784,-2.716 c 2.407742,6.032743 -5.884504,0.202358 0,0 z M 21.178,67.441 c 1.876543,8.743869 -9.281274,0.176272 0,0 z m -3.717,-8.29 c 5.288403,3.151206 -3.26809,2.46596 0,0 z m 0,4.002 c 8.3901,-1.37958 -3.215202,6.834914 0,0 l -0.107625,0.625875 z"
   id="path209" />
	<path
   d="m 17.885,59.251 c -0.941454,-0.716399 -0.03783,0.820906 0,0 z"
   id="path210" />
	<path
   d="m 21.269,67.75 c -0.03033,-0.103 -0.03033,-0.103 0,0 z"
   id="path211" />
	<path
   d="m 42.333,94.313 c 0.326207,-7.109324 -2.743133,0.11376 0,0 z"
   id="path212" />
	<path
   d="m 41.761,141.769 c 3.032422,-7.32335 -7.363543,-9.82475 -1.110516,-1.19875 -2.363952,3.17454 -11.469096,7.37439 -1.483765,4.32094 1.195102,0.0434 3.339491,-3.23191 2.594281,-3.12219 z"
   id="path213" />
	<path
   d="m 41.761,141.769 c 0.1235,0.0727 0.1235,0.0727 0,0 z"
   id="path214" />
	<path
   d="m 40.617,169.782 c 0.480989,-6.32915 4.411395,-21.79633 -1.714,-22.866 1.367694,8.20127 0.972724,16.60338 -2.291047,24.91942 -1.442879,4.27947 -5.274602,16.24856 0.581922,6.65721 0.84057,-2.32883 3.819684,-8.53594 3.423125,-8.71063 z"
   id="path215" />
	<path
   d="m 41.761,192.367 c -2.536521,-8.00042 -15.899076,-10.89683 -18.868,-20.295 -1.791076,8.53268 9.037032,15.26904 15.797381,19.20137 3.481956,2.57585 -0.500433,-3.22782 3.070619,1.09363 z"
   id="path216" />
	<path
   d="m 39.158,101.053 c 5.223321,3.22191 1.176761,-4.41368 -0.02887,-0.51188 z"
   id="path217" />
	<path
   d="m 38.616,205.514 c -0.73675,0.25025 -0.73675,0.25025 0,0 z"
   id="path218" />
	<path
   d="m 23.281,217.701 c -7.464691,6.42618 -1.588246,24.80806 6.761,13.271 -0.927145,-5.83396 9.859293,-15.38027 6.29,-18.013 -5.691418,3.66608 -5.936188,22.78234 -14.388375,13.46287 0.479254,-9.45387 10.551274,-16.30842 19.18375,-18.81404 C 39.911342,198.91193 20.190768,219.10418 23.281,217.701 Z"
   id="path219" />
	<path
   d="m 40.903,59.437 c 0.02075,-0.36025 0.02075,-0.36025 0,0 z"
   id="path220" />
	<path
   d="M 37.472,53.434 C 40.695816,62.259482 25.052997,62.360863 27.449906,52.352313 28.398533,39.380987 21.931044,71.957007 36.639188,64.845562 44.190689,65.476533 39.994645,53.611737 37.472,53.434 Z"
   id="path221" />
	<path
   d="m 28.324,118.327 c 1.151978,12.85768 19.259522,1.46145 8.21975,-6.7625 -8.873107,-10.01185 4.763647,14.87498 -5.405125,7.73187 -5.593887,-2.96145 -0.162356,1.99204 -2.814625,-0.96937 z m 7.151,1.053 c 1.35086,0.8852 -6.149452,3.73032 0,0 z"
   id="path222" />
	<path
   d="m 34.9,92.027 c 3.821623,8.89431 4.387055,-1.22362 0,0 z"
   id="path223" />
	<path
   d="m 38.33,140.625 c -1.617226,-11.4345 -8.944734,-5.11142 0,0 z"
   id="path224" />
	<path
   d="m 33.756,41.999 c 1.12099,5.153925 8.172874,2.495271 0,0 l 0.6435,0.53625 z"
   id="path225" />
	<path
   d="m 38.353,86.902 c -5.163993,4.555066 4.745177,2.453072 0.316875,0.04125 z"
   id="path226" />
	<path
   d="m 15.747,190.082 c 3.643544,9.91705 21.198991,-5.79961 9.498484,-1.22308 -8.29432,5.2453 -11.719892,-8.91397 -6.113609,-14.45717 2.436261,-9.76265 16.850367,-11.9718 18.054125,-20.62775 -7.98719,4.50785 -16.624508,10.77203 -20.459141,19.16017 -4.163227,4.37639 -2.873574,15.91342 -0.979859,17.14783 z"
   id="path227" />
	<path
   d="m 16.604,27.419 c -1.355154,-0.05016 2.815105,0.719847 0,0 z"
   id="path228" />
	<path
   d="M 16.604,27.419 C 21.242388,29.487962 39.235854,21.685155 30.039,21.7 26.083729,26.817103 11.086741,20.513738 20.294844,16.791531 24.881425,21.014187 37.939361,16.454925 25.752,16.554 16.155981,8.0225744 8.5979955,20.701374 16.604,27.419 Z"
   id="path229" />
	<path
   d="m 15.714,205.528 c 10e-4,0.0277 10e-4,0.0277 0,0 z"
   id="path230" />
	<path
   d="m 16.331,205.684 c 5.436905,2.40945 16.569055,-6.32162 16.2275,-6.55213 -6.029421,0.8815 -13.135384,8.10495 -17.1005,-0.47487 -1.430406,1.60687 -1.100466,6.93081 0.873,7.027 z"
   id="path231" />
	<path
   d="m 33.185,140.911 c -0.646573,0.91568 0.664613,-0.0336 0,0 z"
   id="path232" />
	<path
   d="m 33.185,138.91 c -6.868302,4.4771 -0.580613,18.46591 -1.010875,4.56837 3.14107,-3.25522 -0.686228,-4.33139 1.010875,-4.56837 z"
   id="path233" />
	<path
   d="m 26.61,40.855 c 13.931859,3.382814 -1.004532,-3.136068 -6.862,-3.717 1.411701,3.23622 8.202228,3.457831 6.862,3.717 z"
   id="path234" />
	<path
   d="M 27.753,142.339 C 17.139763,140.99178 12.723399,119.48925 26.259625,127.51313 38.668185,127.14529 11.493337,116.14622 14.606,129.7655 c -4.477146,8.4884 16.683038,18.27927 11.3725,11.71812 l 1.109062,0.72249 z"
   id="path235" />
	<path
   d="m 23.478,265.794 c -1.373035,-6.5965 -10.86815,-11.91354 -2.885719,-2.94098 2.237858,6.06093 -11.0097842,2.45327 -2.081959,7.26798 3.538254,0.70296 5.973823,-0.87726 4.967678,-4.327 z"
   id="path236" />
	<path
   d="m 23.477,265.82 c -0.002,0.061 -0.001,0.047 0,0 z"
   id="path237" />
	<path
   d="m 21.75,144.628 c -5.560979,-0.4515 -6.580961,14.71209 -4.289266,19.02559 3.53246,3.79353 1.074469,-13.10943 4.289266,-16.73759 0.637639,-0.60052 0.117125,-2.35734 0,-2.288 z"
   id="path238" />
	<path
   d="m 21.581,148.735 c -0.02412,0.13375 -0.02412,0.13375 0,0 z"
   id="path239" />
	<path
   d="m 258.583,242.664 c 0.0559,0.0234 0.0559,0.0234 0,0 z"
   id="path240" />
	<path
   d="m 255.307,241.824 c -13.90737,1.507 -19.51498,-13.69426 -19.15896,-25.07922 -2.46727,-25.98005 1.24905,-52.05915 -1.48643,-78.01733 3.58074,-10.89839 -15.35784,-6.16998 -19.65134,-5.42359 1.08043,22.73939 1.3413,45.53157 1.46173,68.27614 2.14146,12.461 3.59893,27.9374 -5.89225,37.845 -3.48484,2.79939 -22.43483,5.25834 -8.45975,7.925 16.31008,0.75731 32.62517,-1.62242 48.95661,-0.0713 6.98406,1.79038 15.53853,-3.36579 4.23039,-5.45472 z"
   id="path241" />
	<path
   d="M 248.025,34.362 C 237.20656,35.917411 219.48619,28.542601 216.0872,42.950423 203.9273,67.98574 191.1028,92.73338 179.55,118.041 c 15.06463,1.15397 17.45226,-11.25393 23.29297,-22.898453 2.89666,-8.374581 13.82494,-26.483036 11.3043,-6.91225 4.78038,4.113371 24.6656,1.212164 19.46103,-11.311875 -1.01643,-13.46357 -2.67838,-32.770923 13.98358,-37.450797 7.56251,-0.762104 15.49555,-6.997249 2.82739,-5.124422 2.7783,0.0232 -5.19275,0.01817 -2.39427,0.0188 z"
   id="path242" />
	<path
   d="m 215.369,123.925 c 7.63875,1.89995 24.01236,4.4018 18.98772,-8.90179 -1.65453,-7.36483 4.45641,-29.404783 -9.16497,-18.63271 -16.34944,-3.258089 -9.00823,14.53368 -10.42398,24.35978 0.81848,4.24274 -0.0179,1.09585 0.60123,3.17472 z"
   id="path243" />
	<path
   d="m 135.515,228.531 c 6.20352,-8.73471 9.98235,-19.41632 15.38638,-28.421 4.22692,-9.6845 9.7686,-19.14363 14.04295,-28.56192 4.80514,-10.47273 9.67621,-20.41397 14.45859,-30.48954 -9.57402,-7.55023 -17.04522,9.14009 -20.72192,17.85646 -4.52091,12.20654 -10.23666,22.51541 -16.37106,33.50908 -6.04075,7.90858 -9.09235,-13.53514 -13.62338,-17.045 C 117.9954,155.03458 107.5623,134.55567 97.222,114.031 c -4.939252,3.66312 -19.659183,2.97886 -17.275973,8.87785 10.376793,18.43391 19.183367,36.91774 29.000563,55.8817 7.65042,16.26286 16.97273,31.71425 24.29641,48.16345 l 2.272,1.577 -0.30675,-0.13425 z"
   id="path244" />
	<path
   d="m 78.638,244.683 c -10.918311,-2.48205 -25.271871,-6.98013 -26.014,-21.442 -13.921131,-1.14149 -11.810148,20.72823 -27.444373,19.7138 -2.083858,6.87852 16.875597,1.26002 22.724947,2.70845 8.230429,-0.19842 28.131382,4.91377 30.050926,-1.11787 l 0.507,0.40804 z"
   id="path245" />
	<path
   d="m 21.178,32.564 c -0.476132,7.181214 18.633791,4.823019 21.269,15.406 6.48273,13.382681 1.20234,28.904597 2.770508,43.191691 C 45.263372,109.84054 45.48355,128.5317 44.618,147.197 60.784535,146.83237 52.922474,128.87575 54.601889,118.70514 56.208485,106.2016 53.744985,93.578881 55.195,81.16 c 7.788249,2.297353 9.906676,24.01436 13.672375,7.526375 C 75.227588,79.097617 76.620731,68.776595 68.02726,59.348918 63.378129,50.60879 59.791763,41.260964 54.051,33.133 44.350035,33.382111 27.983948,32.860702 22.368812,32.910641 28.057117,33.524413 23.49519,32.482385 21.178,32.564 Z"
   id="path246" />
	<path
   d="m 44.188,215.557 c 14.239928,7.35577 8.241247,-16.02005 9.215812,-25.35925 -0.89262,-12.3735 2.555416,-25.94043 -0.208812,-37.56675 -14.862732,1.81024 -7.863727,19.77227 -9.470232,30.22504 -0.145681,10.51166 -0.223791,30.87264 0.463232,32.70096 z"
   id="path247" />
</g>
</svg>
