<?xml version="1.0" encoding="UTF-8" standalone="no"?>
<!-- Generator: Adobe Illustrator 15.1.0, SVG Export Plug-In . SVG Version: 6.00 Build 0)  -->

<svg
   version="1.1"
   id="Layer_2"
   x="0px"
   y="0px"
   width="283.46px"
   height="283.46px"
   viewBox="0 0 283.46 283.46"
   enable-background="new 0 0 283.46 283.46"
   xml:space="preserve"
   xmlns="http://www.w3.org/2000/svg"
   xmlns:svg="http://www.w3.org/2000/svg"><defs
   id="defs140" />
<g
   id="g140">
	<path
   d="m 276.481,276.503 c 0.063,-0.0564 0.063,-0.0564 0,0 z"
   id="path1" />
	<path
   d="m 276.075,276.868 c 0.0447,-0.04 0.0447,-0.04 0,0 z"
   id="path2" />
	<path
   d="m 199.981,158.874 c -0.0729,-0.0534 -0.0729,-0.0534 0,0 z"
   id="path3" />
	<path
   d="m 200.811,144.258 c 0.286,0.12567 0.286,0.12567 0,0 z"
   id="path4" />
	<path
   d="m 149.805,138.47 c -5.44249,0.75649 -18.37205,3.5084 -16.4205,11.3195 2.76884,6.57174 -0.31566,-9.0776 7.721,-6.40163 2.2379,-2.10156 8.78843,-2.64698 8.6995,-4.91787 z"
   id="path5" />
	<path
   d="m 186.472,151.428 c -3.09108,0.77857 0.28295,-0.0437 0,0 z"
   id="path6" />
	<path
   d="m 160.006,138.746 c -5.4822,-1.78828 1.735,6.40087 0,0 z"
   id="path7" />
	<path
   d="m 127.75,107.592 c -0.0834,-0.24125 -0.0834,-0.24125 0,0 z"
   id="path8" />
	<path
   d="m 160.006,138.78 c 0.0619,0.0747 0.0619,0.0747 0,0 z"
   id="path9" />
	<path
   d="m 211.509,176.373 c 0.2738,-0.80255 -0.52054,-0.55044 0,0 z"
   id="path10" />
	<path
   d="m 155.341,138.729 c -4.79559,2.84414 4.62755,3.23311 0,0 z"
   id="path11" />
	<path
   d="m 130.231,99.321 c 0.21308,-1.424425 -0.86253,0.08888 0,0 z"
   id="path12" />
	<path
   d="m 156.147,89.12 c -5.17429,-2.423303 5.60977,4.062644 3.07225,-1.202125 -1.57371,1.220413 -2.90971,0.732369 -3.07225,1.202125 z"
   id="path13" />
	<path
   d="m 181.236,63.481 c 0.0577,0.02367 0.0577,0.02367 0,0 z"
   id="path14" />
	<path
   d="m 97.699,74.784 c -0.56968,9.157858 1.31855,19.116376 -4.221125,27.67977 -1.432977,5.94537 -23.823568,18.40002 -9.440969,12.42393 6.853452,-4.33593 11.22523,-10.9415 13.660094,-18.0477 2.50719,-6.214945 2.58253,-15.274387 3.95637,-20.996125 0.46344,-2.036648 -4.166696,-0.0731 -3.95437,-1.059875 z"
   id="path15" />
	<path
   d="m 102.386,92.153 c -3.278439,4.291132 5.10617,-0.97686 0.274,-2.207 -0.61793,0.657683 -0.10962,1.461123 -0.274,2.207 z"
   id="path16" />
	<path
   d="m 180.535,65.131 c 4.74833,5.784493 -3.60543,-9.466874 0,0 l -0.22387,-0.426375 z"
   id="path17" />
	<path
   d="m 137.399,75.335 c -1.29039,-0.655007 0.51165,2.535004 0,0 z"
   id="path18" />
	<path
   d="m 247.125,103.732 c -1.22984,-1.3297 -0.67914,0.69987 0,0 z"
   id="path19" />
	<path
   d="m 247.952,67.892 c 0.066,-0.062 0.066,-0.062 0,0 z"
   id="path20" />
	<path
   d="m 178.478,59.621 c 1.61662,-7.820144 -2.23225,-3.748511 0.075,-0.198 z"
   id="path21" />
	<path
   d="m 69.578,38.117 c 0.08612,0.04013 0.08612,0.04013 0,0 z"
   id="path22" />
	<path
   d="m 65.364,218.404 c -0.341333,-0.17767 -0.341333,-0.17767 0,0 z"
   id="path23" />
	<path
   d="m 58.826,152.807 c -0.06874,10.17357 0.198912,8.77334 0.13725,-0.29738 z"
   id="path24" />
	<path
   d="m 60.755,200.225 c 0.135124,-1.48951 -0.221671,0.8232 0,0 z"
   id="path25" />
	<path
   d="m 26.569,175.413 c 2.894817,4.7325 2.747976,1.92832 0,0 z"
   id="path26" />
	<path
   d="m 141.81,98.218 c -0.0463,0.952487 0.87204,-0.09333 0,0 z"
   id="path27" />
	<path
   d="m 45.868,127.442 c -0.44225,0.171 -0.44225,0.171 0,0 z"
   id="path28" />
	<path
   d="m 75.643,44.182 c 0.127875,0.05888 0.127875,0.05888 0,0 z"
   id="path29" />
	<path
   d="m 42.03,88.865 c -0.735737,-0.24522 -0.438082,0.952969 0,0 z"
   id="path30" />
	<path
   d="m 21.607,139.297 c 3.407351,1.70691 0.793379,-1.01902 0,0 z"
   id="path31" />
	<path
   d="m 46.144,113.106 c -0.08637,-0.24688 -0.08637,-0.24688 0,0 z"
   id="path32" />
	<path
   d="m 188.128,130.751 c 0.47029,-1.86717 -0.96344,-0.0414 0,0 z"
   id="path33" />
	<path
   d="m 185.094,128.545 c -0.11775,-0.0144 -0.11775,-0.0144 0,0 z"
   id="path34" />
	<path
   d="m 98.25,106.213 c -5.157481,3.2968 -12.982738,10.32283 -3.236359,4.55145 9.365379,-4.23531 19.166719,-21.155375 19.584609,-25.453481 -6.50118,5.695128 -7.54031,14.848531 -15.00941,19.932031 -4.558464,3.59443 2.45947,-0.88081 -1.33884,0.97 z"
   id="path35" />
	<path
   d="m 198.605,50.247 c -0.36457,2.625716 1.10277,0.387096 0,0 z"
   id="path36" />
	<path
   d="m 195.02,67.064 c 0.82895,-0.270922 -0.58297,-0.582418 0,0 z"
   id="path37" />
	<path
   d="m 68.475,53.556 c 0.11775,0.03163 0.11775,0.03163 0,0 z"
   id="path38" />
	<path
   d="m 185.093,75.611 c 0.0577,0.149375 0.0577,0.149375 0,0 z"
   id="path39" />
	<path
   d="m 85.017,140.4 c 0.758088,-0.99352 -0.6971,0.225 0,0 z"
   id="path40" />
	<path
   d="m 151.184,59.345 c -0.0373,-0.06025 -0.0373,-0.06025 0,0 z"
   id="path41" />
	<path
   d="m 44.49,143.984 c -0.737272,-1.69092 -2.21536,1.49807 0,0 z"
   id="path42" />
	<path
   d="m 105.143,190.576 c 0.4024,-0.70208 -0.51417,0.35293 0,0 z"
   id="path43" />
	<path
   d="m 92.46,231.655 c 0.08967,-0.29633 0.08967,-0.29633 0,0 z"
   id="path44" />
	<path
   d="m 115.619,237.169 c 0.15363,-0.0603 0.15363,-0.0603 0,0 z"
   id="path45" />
	<path
   d="m 164.142,220.351 c 0.056,0.087 0.056,0.087 0,0 z"
   id="path46" />
	<polygon
   points="165.792,222.556 165.792,222.558 165.792,222.556  "
   id="polygon46" />
	<path
   d="m 24.088,45.009 c -2.117912,3.618923 2.505119,0.371207 0,0 z"
   id="path47" />
	<path
   d="m 28.499,202.431 c 1.286732,-0.66798 1.682517,-1.3726 0,0 z"
   id="path48" />
	<path
   d="M 33.556,95.926 C 35.82156,95.020746 28.960758,83.633972 32.584625,94.285 L 33.556,95.926 33.2845,95.54425 Z"
   id="path49" />
	<path
   d="m 22.158,169.899 c -1.608192,2.33549 0.943878,0.66386 0,0 z"
   id="path50" />
	<path
   d="m 191.164,219.528 c -0.0127,0.003 -0.0127,0.003 0,0 z"
   id="path51" />
	<path
   d="m 250.662,247.119 c 11.92503,-0.31088 -10.01577,-0.33475 0,0 z"
   id="path52" />
	<path
   d="m 204.393,207.946 c -1.09311,-5.1892 0.92839,-5.20813 -5.515,-2.758 3.3264,-1.71545 5.50823,3.17971 5.515,2.758 z"
   id="path53" />
	<path
   d="m 27.223,89.183 c 7.814386,0.254466 -2.443738,-5.778328 0,0 z"
   id="path54" />
	<path
   d="m 263.341,165.875 c -2.87841,4.22971 0.61668,1.42525 0,0 z"
   id="path55" />
	<path
   d="m 187.852,198.02 c 5.50723,1.2181 -8.53277,-10.84935 0,0 l -0.0724,-0.1005 z"
   id="path56" />
	<path
   d="m 191.041,202.914 c 0.31533,-0.16067 0.31533,-0.16067 0,0 z"
   id="path57" />
	<path
   d="m 186.749,230.276 c 0.142,-0.23537 0.142,-0.23537 0,0 z"
   id="path58" />
	<path
   d="m 173.302,215.762 c -0.38235,0.47749 0.70996,-0.1637 0,0 z"
   id="path59" />
	<path
   d="m 189.505,195.263 c 7.90341,4.63274 -3.63135,-8.7904 0,0 z"
   id="path60" />
	<path
   d="m 80.33,107.868 c -3.949721,1.56765 3.561646,2.46221 0.05062,0.465 z"
   id="path61" />
	<path
   d="m 81.025,93.025 c -6.402812,-3.305845 -0.567564,5.048932 0,0 z"
   id="path62" />
	<path
   d="m 94.942,62.653 c 3.890748,-1.685192 -2.814818,-4.425415 0,0 z"
   id="path63" />
	<path
   d="m 84.069,107.361 c -1.498765,-4.16131 -2.771072,1.95599 0,0 z"
   id="path64" />
	<path
   d="m 94.391,56.864 c -4.511793,-5.271107 -4.382871,6.178824 0,0 z"
   id="path65" />
	<path
   d="m 109.554,99.873 c -7.63125,12.6583 15.20238,-15.603589 4.15162,-4.24375 -0.78484,1.514319 -3.87455,5.76396 -4.15162,4.24375 z"
   id="path66" />
	<path
   d="m 118.927,80.849 c -2.82486,-2.69909 -2.75109,4.019401 0,0 z"
   id="path67" />
	<path
   d="m 79.115,111.824 c -4.097291,-4.0464 -2.785278,2.35301 0,0 z"
   id="path68" />
	<path
   d="m 77.849,88.844 c 2.343966,-7.753793 -4.315103,-0.467814 -0.1125,-0.1125 z"
   id="path69" />
	<path
   d="m 77.44,100.243 c -1.385277,-1.572958 -16.072202,16.88516 -3.56375,7.37562 1.936781,-1.65629 4.075131,-6.05193 3.56375,-7.37562 z"
   id="path70" />
	<path
   d="m 21.331,68.719 c 9.902272,-2.986961 -2.887511,-3.46858 0,0 z"
   id="path71" />
	<path
   d="m 22.188,72.163 c 5.172313,6.399527 4.1954,-8.398671 0,0 z"
   id="path72" />
	<path
   d="m 37.597,46.938 c 0.2125,-0.0055 0.2125,-0.0055 0,0 z"
   id="path73" />
	<path
   d="m 22.465,64.326 c 3.495168,-2.776929 -4.230027,-2.310559 0,0 z"
   id="path74" />
	<path
   d="m 122.236,83.331 c -0.0268,-9.8662 -5.87244,9.838753 0,0 l -0.34987,0.35625 z"
   id="path75" />
	<path
   d="m 98.25,69.546 c 0.79496,-1.307771 -2.352998,0.268985 0,0 z"
   id="path76" />
	<path
   d="m 98.526,65.135 c -1.587697,-2.915639 -2.908969,0.872525 0,0 z"
   id="path77" />
	<path
   d="m 107.899,65.41 c 4.45808,10.569243 -1.73109,-15.268296 0.24555,-1.420875 -1.49553,4.050691 1.57873,-0.985264 -0.24555,1.420875 z"
   id="path78" />
	<path
   d="m 94.942,62.653 c -0.127875,0.04463 -0.127875,0.04463 0,0 z"
   id="path79" />
	<path
   d="m 98.25,71.751 c 7.33538,-0.208593 -3.468625,-4.642721 -0.02573,-0.251578 z"
   id="path80" />
	<path
   d="m 194.192,203.26 c -9.51694,-5.33457 -13.44335,19.57729 -6.20879,4.9479 1.64567,-2.12241 4.00538,-3.49116 6.20879,-4.9479 z"
   id="path81" />
	<path
   d="m 153.926,22.256 c -0.013,0.108 -0.024,0.206 0,0 z"
   id="path82" />
	<path
   d="m 114.792,28.743 c 0.112,0.0545 0.112,0.0545 0,0 z"
   id="path83" />
	<path
   d="m 82.811,189.474 c 6.27357,4.92423 0.985114,-1.88199 0,0 z"
   id="path84" />
	<path
   d="m 90.534,189.197 c -6.550731,-1.06242 2.053146,4.31214 0,0 z"
   id="path85" />
	<path
   d="m 110.381,25.71 c -1.86672,-3.037661 -1.17921,0.383465 0,0 z"
   id="path86" />
	<path
   d="m 240.234,228.347 c -0.10298,-1.13307 -0.13526,1.1289 0,0 z"
   id="path87" />
	<path
   d="m 185.153,34.022 c 0.12871,-1.944506 -6.90131,-5.481664 0,0 l -0.3405,-0.204 z"
   id="path88" />
	<path
   d="m 124.166,54.658 c 1.65496,1.705006 10.12078,2.8933 7.25462,-2.489125 0.63847,-8.200987 -4.65611,0.951061 -7.25462,2.489125 l -0.50213,0.414 z"
   id="path89" />
	<path
   d="m 248.565,97.486 c -2.08784,-5.169246 -1.6104,-0.866293 -3.38492,0.06323 2.17965,3.826576 2.1654,-1.198054 3.23892,1.133766 0.41283,3.17439 0.0845,-2.277779 0.146,-1.197 z"
   id="path90" />
	<path
   d="m 91.47,185.089 c -5.643796,-2.32834 1.732763,4.67072 -0.02925,-7.5e-4 z"
   id="path91" />
	<path
   d="m 259.534,121.652 c -2.19882,-4.73299 -1.29235,3.07613 0,0 z"
   id="path92" />
	<path
   d="m 258.187,121.064 c -0.011,-0.17133 -0.011,-0.17133 0,0 z"
   id="path93" />
	<path
   d="m 187.576,32.327 c 3.84027,-4.000854 -6.77096,-5.203335 0.53072,0.200109 0.26242,-0.405747 -0.70176,-1.657529 -0.53072,-0.200109 z"
   id="path94" />
	<path
   d="m 247.4,125.236 c -1.4818,6.26024 10.73692,-6.00811 0,0 l 0.5925,-0.27863 z"
   id="path95" />
	<path
   d="m 183.317,45.558 c -5.71136,3.90707 -7.28406,-7.383885 -5.82988,0.430375 1.43675,2.297188 5.92252,0.393873 5.82988,-0.430375 z"
   id="path96" />
	<path
   d="m 89.447,166.5 c 4.916621,-7.41268 -1.540203,-8.94719 0,0 z"
   id="path97" />
	<path
   d="m 247.954,95.461 c 0.0787,0.01888 0.0787,0.01888 0,0 z"
   id="path98" />
	<path
   d="m 83.892,193.518 c -3.238367,1.1533 4.040369,2.55338 0,0 z"
   id="path99" />
	<path
   d="m 171.438,253.085 c -2.3237,-4.52511 -2.99289,1.85547 -5.101,2.892 2.06849,1.50452 6.78364,-0.86908 5.101,-2.892 z"
   id="path100" />
	<path
   d="m 16.092,16.612 c -0.406751,83.81159 -0.455673,167.6245 0,251.436 80.442477,0.14894 160.89345,-0.31378 241.33,0.26238 15.62713,5.18298 9.4675,-11.92487 10.38,-21.26451 -6.6e-4,-76.7183 0.001,-153.439242 -0.001,-230.15587 -83.89974,-0.645825 -167.806454,-0.09369 -251.709,-0.278 10.684474,0.09279 29.703216,0.113855 35.319375,0.09056 C 39.63828,16.662012 27.865131,16.639243 16.092,16.612 Z m 240.223,157.322 c -5.52495,5.05776 -20.64957,0.60105 -16.57208,-2.91995 6.2095,7.01568 16.51112,1.91755 21.16983,-4.28013 5.08522,-11.69103 3.39678,4.89136 -4.59775,7.20008 z m -0.643,13.335 c 1.65183,7.35779 2.8122,16.059 -2.741,22.3702 -3.52051,4.82982 -13.22146,7.19002 -7.183,-0.5922 -10.32527,-1.47292 -4.96824,-13.96153 0.276,-17.78771 -2.01542,-5.15133 -4.51464,-9.65464 3.04,-6.57642 6.64003,8.64676 -13.10651,14.67915 -2.19041,21.65497 7.08094,-1.90165 9.71598,-10.97281 7.69841,-17.14084 -2.05078,-4.30119 -0.91713,-16.06306 0.78138,-4.91875 l 0.31862,2.99075 -0.17137,-0.3195 z m -44.127,72.227 c -4.76368,-0.95912 -10.89696,1.1554 -13.218,-4.133 -3.06291,-8.56129 16.05496,-5.38876 3.86,-0.274 -0.0392,4.57162 17.03125,4.50791 8.73488,4.16562 2.19954,0.85024 -2.1175,-0.81541 0.62312,0.24138 z m -8.531,-12.126 c -5.9808,3.85182 -15.16199,-6.80741 -4.07197,-1.92452 5.19299,-0.72047 11.06099,-0.54414 16.97775,-0.83148 11.693,0.0473 23.97415,-0.23059 35.1841,0.89923 5.04153,-2.97633 10.47286,-0.37825 1.85518,1.59651 -16.64792,0.13089 -33.3031,-0.38298 -49.94506,0.26026 4.78261,-0.18511 8.63487,-0.33431 0,0 z m -11.765,-27.879 c -3.7054,-2.48017 -7.79362,6.34563 -13.26978,4.446 2.92737,-4.32858 -2.57661,-8.74782 -0.87422,-13.782 3.86042,-5.18358 -5.65679,-1.57397 -1.73028,-7.04584 1.8512,-3.42774 15.85268,-2.48605 6.76508,-7.73792 -4.34475,-0.72694 -12.44535,9.17988 -12.2038,1.27376 -13.93252,3.50826 7.73603,-11.23545 13.229,-11.026 7.8614,-2.94506 14.14795,3.96971 14.616,11.024 11.77279,-6.327 0.57845,-16.92041 -8.017,-17.63269 -10.65276,-0.60553 -19.87142,6.27419 -26.37216,13.96 -7.71381,5.47429 -8.79372,16.09431 -8.56792,26.76761 1.34853,7.82728 2.50133,13.24593 4.10978,20.24556 -3.72174,0.40239 -5.31338,-10.5058 -6.84414,-14.53818 -1.06634,-6.39426 -1.24507,-13.54303 0.63513,-19.45883 4.33308,-9.88782 11.42764,-20.6409 21.08425,-26.61406 10.1463,-4.51437 24.59221,-4.48949 32.34593,4.34172 9.72443,7.83525 -4.8831,17.35593 5.12813,22.02987 -2.67563,1.54935 -3.86783,8.58643 -3.86,12.681 3.75809,-2.02297 -5.94235,12.1512 -7.86071,13.502 -0.56847,-4.43007 -0.0685,-9.15249 1.52871,-13.232 -7.04509,-0.82971 6.10749,-7.67267 -0.83,-11.847 -7.23855,-1.03315 -4.06547,10.22574 -9.012,12.643 z m -6.153,7.476 c -2.48385,-0.62918 -13.53802,6.35161 -7.997,-1.376 6.0768,0.62606 11.21723,-6.00435 12.41,-0.826 5.31871,-7.18273 -5.24711,12.53389 -4.20562,2.35687 z m -10.753,-10.473 c -1.19994,-2.68929 -0.22466,-0.69235 0,0 z m -1.93,10.199 c 2.8662,8.00141 -10.79893,5.26858 -2.60975,-1.36237 -1.08299,-4.80486 2.07024,-19.45076 -2.18588,-18.45726 -2.99017,0.32233 -13.79005,-12.63119 -2.82162,-7.16362 5.70242,2.39698 11.08745,3.3795 5.14303,11.90245 -0.56268,5.4521 7.62415,11.34275 2.47422,15.0808 z m -8.274,-6.342 c -6.87078,-4.12303 -5.02744,8.33245 -2.33675,12.37637 -2.62709,4.5608 -9.81846,-20.56455 0.85187,-18.47137 7.92852,-2.05067 3.94352,13.54787 1.48488,6.095 h -0.20588 z m -0.269,-22.883 0.01,0.005 z m 6.614,17.779 -0.004,0.128 z m 4.43,3.518 c 3.21991,-5.84 1.89621,9.44574 0,0 z m 3.017,5.174 0.01,0.004 z m -41.63,4.412 c 2.41951,-5.17441 7.42741,-13.50871 10.49294,-20.04696 11.59171,-22.99232 23.04657,-45.93169 33.89106,-69.28204 7.1732,1.60362 -7.07625,15.45823 -7.25756,20.94793 -11.30941,22.91226 -22.46432,45.90271 -34.09644,68.65407 0.74906,1.34484 -3.76311,-1.00313 -3.03,-0.273 z m -7.063,-58.745 c -7.90186,-14.76354 -15.60881,-29.26105 -23.3375,-44.16163 -4.19781,-4.60892 -7.737739,-19.24713 -0.95529,-6.76438 11.77673,23.10144 24.00297,45.69549 35.76079,68.86901 -3.16285,3.56108 -11.0668,-19.53752 -13.06508,-20.76323 l 0.67747,1.1954 z m -6.443,62.879 c -4.70497,-4.75763 6.04549,-8.1058 4.128,-1.38 1.76506,2.18559 -5.44933,0.62954 -4.128,1.38 z m -6.227,2.032 c 8.42666,-3.07878 -1.89423,7.63571 -0.81025,0.77725 l 0.81025,-0.77725 -0.048,0.0412 z m 3.321,-10.737 c -2.74982,-7.94036 10.54991,-0.66508 1.15312,0.64775 -3.72882,-3.21981 -0.0773,0.46022 -1.15312,-0.64775 z m -15.573,-31.274 c -5.071046,15.11223 3.99408,-20.22794 3.9405,-7.48413 -2.16191,2.05214 -2.75297,4.9075 -3.9405,7.48413 z m -3.271,0.132 c -5.216749,0.3472 -1.064564,-12.65605 0.42362,-18.00375 9.98722,-6.13499 -0.11835,13.60749 -0.4105,17.8575 z m -8.022,35.239 c -1.530792,9.4941 -1.324494,-3.56125 -1.389,-5.594 -1.22042,-8.00761 -8.310302,-17.26295 -15.582711,-19.575 -7.195498,-5.1914 -12.426455,13.87513 -13.119789,4.5805 -2.724589,-8.69094 17.245674,-7.83576 3.760328,-12.26439 -6.278463,-2.46328 -2.354178,-15.07825 0.307125,-4.55439 11.858459,5.02573 22.169951,15.02472 25.213047,28.25128 1.368687,2.67619 0.612214,7.324 0.811,9.156 z m -13.184,18.106 c -15.333651,0.31688 -31.06992,-1.24478 -46.141156,0.59117 -8.491793,1.02215 -7.709663,-4.64985 -0.132844,-1.6498 13.048038,-1.76743 26.802883,-0.26723 40.330516,-0.0538 1.322845,0.53947 11.008773,-2.79669 5.943484,1.11238 z m -16.252,7.642 c 1.091815,6.95724 -7.692258,-1.23925 -0.3405,-0.2205 z m -4.21,-0.742 c -8.6724,3.52764 0.611401,-8.21798 0,0 z m -6.077,6.02 c -11.703342,4.58123 6.292269,-7.38479 1.941,0.047 l 10e-4,-10e-4 -1.942,-0.046 0.11925,-0.0113 z m -2.751,-7.159 c 8.581906,3.49564 -5.653283,3.07496 0.700125,0.012 z m -2.474,8.034 h -0.001 z m -11.653,-3.453 c -13.1436,-7.59591 12.608733,4.30314 5.091375,-5.8385 -0.764067,-7.20456 11.879679,6.98555 0.718562,7.19034 -2.221564,0.0343 -7.726579,-2.20482 -5.809937,-1.35184 z M 25.466,219.25 c 1.062263,-6.31337 16.386455,-20.84657 19.236625,-13.98155 -7.521457,2.01419 -15.799134,7.76302 -18.133625,15.08555 -1.515587,12.57719 11.936523,1.05472 9.925,-5.786 4.87227,-8.07092 6.808612,-1.85996 1.306789,2.4574 -0.365609,6.78435 -7.419841,21.61807 -13.692414,10.32235 -0.969221,-2.93872 0.670443,-6.67372 1.357625,-8.09775 z m -6.371,-19.305 c 0.534813,-4.89653 8.925151,4.52159 13.934625,-2.07725 11.827203,-4.18589 -14.321957,13.71149 -13.941234,1.71725 0.0025,0.12037 0.02537,1.32263 0.0066,0.36 z M 18.513,181.34 c 0.374325,-12.25062 10.416964,-19.73214 19.381234,-26.61935 9.550287,-1.23689 -9.035519,9.42149 -11.158629,13.62176 -4.877115,6.71048 -9.928961,15.64387 -1.269605,20.57859 4.497442,-3.76181 12.449272,-3.57998 4.411,1.651 -8.594957,3.32945 -12.350508,-5.01279 -11.364,-9.232 z M 19.125,62.653 c -1.744381,-7.104059 7.845073,-25.671605 10.477,-12.407 -5.601044,8.324359 -1.464156,28.373658 11.028,25.64 5.606236,-8.437662 9.074968,7.62876 0.516875,6.85775 -2.246911,7.449286 -12.621508,-0.954615 -15.06323,-7.68575 -7.122798,5.555381 13.123965,12.675053 9.031355,22.884 2.202412,6.01233 -10.020709,-0.42396 -3.217219,8.10962 5.998492,9.36668 -15.738063,19.06519 -7.930875,6.17372 C 26.864324,102.56448 20.206652,93.286689 18.848,84.156 18.206092,76.906848 18.642895,69.305523 19.177031,62.071656 19.13994,62.235083 18.910846,63.995067 19.125,62.653 Z m 7.144,-21.168 c 5.921925,0.458956 16.597048,6.383785 4.435,2.972 -5.911296,-1.202794 -6.546317,-3.898309 -4.435,-2.972 z m 13.534,20.617 c 1.054576,-8.544777 6.234809,-2.356376 3.86,4.688 C 31.62404,75.033585 27.584015,51.658253 32.303875,53.04875 28.545978,58.755633 36.042241,66.915936 39.803,62.102 Z M 37.597,46.938 c 1.979345,-3.679416 6.968528,5.734568 0,0 l 0.6375,-0.0165 z m 27.165,-22.45 c 5.653977,-1.620082 26.118899,0.898066 10.133254,0.827953 C 68.853679,21.344547 52.956723,32.159706 65.442,32.327 85.654219,25.682709 48.733023,42.464119 55.957891,27.871922 57.734448,25.029593 63.394597,25.2978 64.762,24.488 Z m 25.769,4.806 c 9.201187,0.68195 12.45517,4.06405 1.93,2.481 C 85.285122,24.928494 77.469872,42.788385 75.126355,37.982469 74.8528,30.534675 90.201007,28.44389 90.531,29.294 Z m 11.303,25.64 c 1.74274,4.153726 4.35818,-8.382997 6.341,1.379 8.18758,8.900694 -3.3143,19.24279 -0.65287,28.253625 5.0475,-2.69977 5.7288,-21.057022 11.77487,-11.962797 11.33363,-7.777092 8.22988,10.313084 2.11287,13.890047 -0.93792,8.961839 -11.9672,22.958795 -24.327399,27.605365 -10.721645,4.70163 -21.47029,5.53763 -32.742471,6.45176 -3.573743,-9.91194 2.691744,-17.38612 8.331062,-25.165844 5.728398,-0.133052 1.129735,-23.679445 10.020735,-10.622937 2.662334,7.681256 6.224189,8.276783 1.774203,17.592781 13.167715,-4.284261 7.513775,-18.474799 4.137,-27.57 13.33866,2.133113 -9.383566,-9.530945 2.481,-5.238 -3.355822,-7.783337 -10.542901,-1.254041 -10.752,-11.58 9.276934,1.970218 -0.41262,-9.749563 4.412,-14.335 2.604412,-7.68346 8.529261,-5.995731 8.20975,1.344703 2.887353,4.389237 10.2759,10.547652 8.88025,9.957297 z m 50.727,-15.711 c -0.88286,5.355872 -13.27296,-1.191198 -8.6175,7.87925 -6.73184,7.334871 -1.22948,-13.056439 -10.71362,-9.847375 -7.03163,-1.662326 -13.19472,18.272523 -10.57896,4.362406 7.01144,-9.953214 26.41918,-4.456544 29.88158,-1.958906 z m 1.847,9.729 c 3.52255,3.897388 -5.81577,6.528949 -3.222,0.194 1.39106,-0.430265 2.49338,-1.261188 3.222,-0.194 z m 3.682,-2.098 c 8.36934,1.554122 -4.09956,7.054842 0,0 z m -0.84,12.767 c -1.58697,9.98668 9.00343,18.000333 6.26191,28.328094 C 156.36705,100.34523 146.53645,81.881315 144.733,74.281 c -10.73793,-11.191823 10.46675,-1.110218 10.35113,6.75725 7.43491,13.033818 -1.77244,-6.000023 -1.26313,-10.07325 0.0917,-3.59195 0.91617,-10.268407 3.429,-11.344 z m 10.945,12.391 c 1.08046,-3.983079 -0.75675,-8.98139 -0.468,-14.200132 0.69745,-3.406185 1.71247,-16.015002 6.058,-11.699868 6.60045,5.615286 -3.25911,6.988849 -0.62186,8.548422 7.4802,-3.171929 8.67159,0.947188 9.99886,9.923578 9.51576,6.021889 -4.17603,9.496827 -6.064,3.03 -0.49123,-4.642705 -5.01311,-17.892769 -3.584,-5.515 3.51609,5.471829 -1.19361,18.926533 -6.342,12.406 L 167.9895,73.385625 168.195,72.012 Z M 190.61,56.863 c 7.2446,-2.973713 -1.19726,12.330294 -0.827,0.827 0.23512,-0.316211 -0.51079,-1.613455 0.827,-0.827 z M 223.966,24.33 c 6.55279,-0.742534 20.34871,7.6425 18.69996,10.696555 -7.47542,-4.998501 -15.31677,-10.108303 -24.64409,-9.316555 -6.60851,-1.906219 -15.32125,10.252489 -5.13976,10.709953 2.25137,-5.60752 16.43131,-9.849174 14.39389,-5.470953 -7.78135,-2.425556 -21.89572,19.784353 -25.976,3.033 0.73256,-11.098257 14.69278,-11.110922 22.666,-9.652 z m 31.43,38.875 c 1.45793,4.102984 -1.69668,21.265232 -1.11621,7.863391 3.94883,-9.595281 -8.19307,-11.267976 -8.95042,-14.483516 4.3616,-7.331046 10.88621,2.675954 9.88363,6.87925 l -0.0971,-0.203297 z m -3.314,5.519 c -8.30047,-4.559825 -5.90155,12.654393 -12.673,17.086 4.8291,-15.070073 -4.34957,9.504236 -11.47475,8.194024 -5.1092,0.111509 -18.14732,7.727996 -19.95525,0.907976 11.67838,0.855305 24.20468,-4.700631 29.92702,-15.353906 3.41797,-7.419858 2.60682,-14.598807 0.12298,-21.866094 4.28745,-5.025225 6.71321,13.80516 3.79612,18.7285 -0.83845,8.339217 2.80501,-8.017555 3.93718,-10.251188 1.80197,-3.682622 8.101,-0.85231 6.3197,2.554688 z m -5.536,34.638 c -0.97568,7.71738 -11.09375,-5.338596 -5.762,-3.215 1.78772,1.62692 6.08866,3.14383 5.762,3.215 z m -9.345,1.197 c 8.23936,-0.85856 -2.33759,10.00442 0,0 z m -1.948,19.858 c -4.08486,3.34039 -1.0037,-6.12455 -2.464,-8.004 2.75404,-6.81191 -4.60694,-19.870425 1.28775,-23.229078 1.37608,10.205268 1.52008,20.765308 1.47025,31.224078 h -0.278 -0.001 l -0.015,0.009 z m -32.239,-1.662 c -5.88566,0.48318 -12.07807,1.7163 -17.923,2.482 -6.24813,0.0286 -11.95097,1.82136 -18.14078,1.929 2.82875,-4.72094 10.55225,-4.10885 15.83641,-4.83875 6.20481,-1.34063 12.85588,-0.57192 18.94137,-2.97862 10.13334,-4.55019 10.25021,3.65466 1.286,3.40637 z m 8.548,53.21 c -0.33161,7.1254 -17.86643,-4.00177 -9.70875,-1.3835 7.24075,4.04709 8.86608,-10.80437 9.70875,1.3835 l -0.17213,-0.24337 z M 184.46,151.917 c 4.08987,-2.13075 17.79288,0.37873 7.249,1.441 -9.76919,-2.81803 -18.88812,17.53869 -3.859,10.197 8.79574,0.97153 -9.8154,8.57956 -10.753,0.829 -2.24201,-5.98586 4.42238,-12.39194 7.363,-12.467 z m 23.454,-2.599 c 0.81537,11.80092 -7.63211,-15.41437 -15.57584,-4.26528 -9.58981,11.57768 0.34274,-12.03013 9.84684,-2.99372 2.89402,1.54691 4.93049,4.16986 5.729,7.259 z m -7.381,6.795 c -1.51484,8.33873 -8.60366,1.3853 -1.929,-3.03 -0.54967,-10.63783 3.47251,1.77507 1.929,3.03 z m -3.587,8.811 c -0.50529,0.67066 -7.19053,-1.10235 -6.613,-6.051 -2.85434,-10.32607 9.40855,7.80716 6.613,6.051 z m 1.658,0.562 c 3.50135,-1.74614 9.40714,-8.8226 4.33775,-1.05791 -3.24872,3.94848 -8.1397,8.06526 -13.50028,8.44391 -4.5167,1.56198 -9.35834,1.65891 -14.27447,4.194 0.69427,-5.48294 16.244,-5.25259 21.01428,-10.12952 7.9721,-4.94719 -5.34936,3.54411 2.42272,-1.45048 z m 11.579,-0.825 c -1.15555,7.66582 -13.69708,3.03197 -3.01133,0.57294 4.56061,-4.35937 -11.41841,-14.49784 0.36033,-9.36294 3.4715,0.28781 3.11808,11.395 2.651,8.79 z m -0.278,-25.365 c -11.07688,-2.914 -24.34757,-3.36565 -35.85442,-2.206 -14.17207,-1.13232 3.44067,-4.3346 9.38942,-4.134 7.94444,1.52281 21.86213,-3.37748 26.48612,4.52713 l -0.0211,1.81287 -0.23325,-0.47362 z m -47.969,3.861 c -7.02405,-1.08026 -2.95685,6.76472 -11.306,3.309 -4.78961,-2.94707 -18.5707,3.30215 -4.7215,1.03925 5.69131,0.5509 12.58645,3.63344 8.13938,8.36325 3.59254,5.6928 -4.86316,13.19836 -4.22911,3.25741 -3.90093,-5.26349 -12.38947,-6.86426 -17.29193,-2.98385 -9.8468,4.01342 -11.81188,-13.28724 -2.17159,-15.75726 5.50816,-5.82213 14.25395,-8.28315 20.69311,-11.70305 9.4533,-2.52501 13.22198,-12.84542 15.18877,-18.77 10.46325,9.1351 -4.39887,23.9688 -15.65188,21.7925 -5.97465,0.69755 -8.09054,8.78616 -2.16025,1.80675 2.88641,-0.0627 10.3489,-2.5917 7.72,2.481 6.23057,-3.37351 12.20026,3.69352 6.13497,6.40323 0.12676,0.71226 -3.32736,0.83317 -0.34397,0.76177 z m -19.291,30.923 c -0.28961,-7.53212 -18.46164,-6.77698 -5.244,-11.07 5.09948,0.51166 9.79159,0.24434 7.96238,5.97087 8.10746,7.38698 -11.74634,20.90967 -2.72738,6.71213 0.25885,1.46802 -0.13934,-3.64778 0.009,-1.613 z M 116.17,112.831 c -2.46493,-5.31168 -8.54307,9.4872 -7.444,-1.655 5.32493,-11.526516 18.77879,-1.67621 14.03084,8.93283 -1.46203,6.70975 -12.89938,16.86364 -4.27321,5.23629 2.06575,-5.3785 0.97426,-15.20524 -2.31363,-12.51412 z m 3.86,-14.613 c 4.48775,9.65371 -2.44739,2.99533 0,0 z m 7.169,-2.205 c 7.28744,-4.289751 0.17382,10.5984 0,0 z m 0.551,11.579 c -1.41595,12.05955 -4.78119,-4.82105 -2.34164,-6.7894 2.90494,0.81234 1.80077,7.25898 2.34164,6.7894 z m -2.547,-12.693 c -3.67515,4.835318 -0.82894,-9.90764 0,0 l 0.228,-0.445875 z m -9.033,39.987 c 5.23039,-8.6266 12.46766,-17.93164 15.41278,-28.56949 2.63415,-8.119 3.08509,-17.493794 1.95422,-26.57051 -0.61282,-4.846313 -8.02324,-16.361458 1.378,-14.337 1.86204,6.568686 2.75239,13.198487 2.79675,20.155094 0.50077,9.034934 -0.98781,15.993306 -2.83358,24.517156 -3.46076,9.29538 -10.79154,22.44885 -18.63917,25.83837 -0.69198,-2.35531 0.92976,0.0905 -0.069,-1.03362 z m 4.035,2.544 c 5.74209,-8.02558 10.07413,-17.50729 16.851,-24.379 4.62829,-12.14557 19.4382,8.51201 7.237,0.606 -11.68946,1.43291 -15.11691,16.14477 -22.63812,23.679 -5.34229,7.43814 0.84235,-4.70544 -1.44988,0.094 z m 26.293,-42.796 c 10.49129,-4.675196 -4.37468,13.82528 -4.687,3.584 -2.50307,-6.775465 2.27882,-11.235762 9.375,-6.894 -0.82186,0.863948 -5.68285,1.443869 -4.688,3.31 z m -8.261,24.545 c 7.94534,-6.11685 4.85579,9.87363 -3.37334,9.58341 -10.20694,5.02529 11.19393,-8.92887 3.37334,-9.58341 z m -10.212,16.81 c 11.51477,-4.7388 21.8671,-18.49847 30.328,-24.26 -5.34029,10.58208 -15.9772,17.8707 -25.60987,24.4295 -4.01681,2.49984 -16.03691,13.73591 -9.08125,3.60413 5.36964,-4.6968 2.52566,0.0946 4.36312,-3.77363 z m 45.839,-32.629 c 10.97656,-0.83008 8.4055,-11.726369 4.10262,-17.921687 -4.46013,-11.829118 11.25985,9.588566 6.02538,15.812687 0.47975,12.10403 -20.85262,4.93596 -12.58088,0.72538 -1.35683,1.56784 4.1414,1.34554 2.45288,1.38362 z m 9.728,-22.844 c 4.72874,1.84195 12.35776,10.647425 3.435,8.328 -6.88915,-2.350374 -13.85901,-23.985372 -5.24,-11.304 0.1307,0.327904 2.58084,4.185348 1.805,2.976 z m 15.013,-30.269 c 6.29244,-1.165697 -4.29011,19.960206 -3.57612,8.28025 3.90305,-1.66826 3.43074,-8.840894 3.57612,-8.28025 z m -2.994,4.336 c -5.61416,-0.549266 4.17679,-8.953719 1.29784,-0.541266 -4.27424,1.478537 1.25576,-0.218261 -1.29784,0.541266 z m 2.717,7.794 c 1.36923,10.815652 -10.22757,0.175723 0,0 z m 8.271,25.641 c 5.48287,-11.171131 2.56386,7.429541 -2.32759,10.446102 -3.58883,3.881238 -7.19471,20.643098 -10.43808,15.744638 3.33594,-7.65856 10.24771,-21.628163 12.12611,-25.018631 -2.65481,4.876248 -0.23129,0.429364 0.63956,-1.172109 z m -1.379,24.536 c 3.49244,-3.75804 -6.20679,-9.88227 3.029,-6.895 3.92052,13.31541 -13.38209,14.16543 -21.96387,14.83863 -10.14701,2.6913 -5.89449,-2.02488 2.11887,-1.88163 5.32882,-0.26587 17.38774,-4.47043 16.816,-6.062 z m -40.011,19.816 c -12.30153,1.60609 9.3273,-6.40225 2.515,-0.241 0.11557,0.61849 -2.90133,0.21173 -2.515,0.241 z m 6.101,-0.792 c 1.50019,-8.62235 22.25187,-2.96741 8.84606,0.3255 -2.37034,0.67909 -9.94954,-0.89152 -8.84606,-0.3255 z m 16.818,-0.827 c -7.36329,0.62641 4.85822,-9.12325 0,0 -0.76398,-0.19508 0.43641,-1.81522 0,0 z m 66.463,-87.502 c -8.28266,2.879486 -20.3749,7.635832 -20.18287,18.9565 -1.24547,5.330746 1.81172,21.617641 -2.44513,20.330145 0.46184,-12.290112 -2.64481,-26.82743 8.11625,-35.770067 4.14332,-2.27256 17.61568,-8.489151 14.51175,-3.516578 z m -51.024,3.689 c 4.48178,-5.318876 13.05456,-5.648095 4.34197,0.623578 -5.25227,2.904095 1.21943,16.265891 -7.74224,15.679266 -0.30843,-8.257339 6.15358,-15.433782 -5.89771,-16.790188 -7.14311,-6.496422 13.18773,0.317149 9.29798,0.487344 z m -12.57,16.241 c 7.49942,3.995732 -9.14883,2.466872 -0.13275,-0.0023 z m -0.114,14.913 c 0.0495,-4.105218 0.0402,-9.779014 5.239,-3.308 2.44369,12.494909 -17.08143,5.349915 -12.405,-1.104 1.62874,5.232818 8.62459,3.187744 7.166,4.412 z m -24.258,8.825 c 9.39461,-16.774378 11.39125,12.747025 3.17675,6.74925 -0.52141,-3.675879 0.71155,-6.434429 -4.00475,-2.89325 -0.26628,-0.760503 0.99082,-4.696382 0.828,-3.856 z m -0.554,11.026 c 1.65997,17.55942 -23.71595,6.6239 -10.752,-3.86 3.77667,1.240131 5.40451,9.38383 6.065,-0.551 2.74703,0.0075 4.8254,4.523888 4.687,4.411 z M 165.32,51.696 c -4.9319,1.860512 0.1358,-6.236617 0.138,-0.39975 z m -18.546,4.065 c 11.30732,-2.806696 -1.30046,10.07249 -0.11737,0.09037 z m 0,-11.579 c 8.19582,-0.454106 -1.57399,5.158397 -0.14316,0.242156 z m -0.737,18.885 c 6.81866,-4.207795 5.47374,8.821537 -0.221,3.34 -0.80941,-0.258594 0.46764,-4.082578 0.221,-3.34 z m -9.741,-7.03 c 3.25137,11.177351 -21.37546,8.945384 -5.58279,3.502127 1.60417,-0.773536 4.79833,-4.05536 5.58279,-3.502127 z m -36.667,113.31 c -3.142999,0.9802 3.52278,-9.23471 0.0265,-1.23475 0.336585,3.99076 -0.664912,-2.24589 -0.0265,1.23475 z M 84.465,142.88 c -4.379342,0.29921 -16.569412,-1.16311 -13.508,-10.475 0.178213,3.21507 9.848828,7.52312 8.287375,-2.15338 -0.62361,-6.02578 -19.125762,-8.81493 -5.530375,-7.21862 9.039552,0.3586 13.328615,13.61615 10.751,19.847 z m -22.93,-40.62 c 0.198472,8.0591 -0.02408,21.24014 -0.711922,33.63072 -1.343257,13.33762 -1.073183,-11.09465 -1.756203,-15.0301 1.68515,-9.87946 -1.038583,-25.013634 1.934125,-32.26112 2.027337,2.495122 -0.385673,12.06286 0.534,13.6605 z M 59.377,37.565 c 7.78995,4.049346 9.974598,15.823603 15.126234,23.269836 3.474933,7.980705 13.177236,20.317617 12.427,25.92793 C 80.160036,77.430625 74.679168,66.833664 69.853,56.587 67.449944,50.661252 61.046003,40.848282 60.30325,38.15525 l -0.342937,0.251531 z m 9.649,1.378 c 6.38095,-4.316371 2.572264,8.842182 0,0 z m 6.617,5.239 c 9.733108,-0.21243 -4.750688,10.508994 0,0 l 0.383625,0.176625 z m 4.135,-3.033 c -0.04103,-7.657334 10.715331,0.719626 0,0 z m 9.926,47.695 c 3.249175,5.499152 -2.493006,9.146456 0,0 z m -24.537,47.697 c -0.381271,-4.22913 -2.834103,-14.08987 2.205,-5.514 1.601946,6.13566 -1.834307,15.3688 -9.853078,17.82548 -3.415713,2.32993 -16.142107,7.3117 -7.273434,0.48516 C 57.315754,149.04688 66.573872,134.9651 65.167,136.541 Z m -1.379,39.7 c 9.715271,-6.31392 2.088229,9.82009 0,0 z m 0.71,-7.378 c 8.232898,-7.17143 4.372009,8.05124 0,0 z m -2.889,-16.03 c -0.406959,15.80169 -0.956711,31.73982 -0.919,47.575 -0.258016,4.64251 -1.365656,21.77621 -2.001057,7.74606 0.43033,-18.44644 -0.02816,-36.89765 0.135057,-55.34606 0.955335,-5.03722 3.522086,-4.8661 2.785,0.025 z m -14.362,63.936 c 12.4999,-4.68609 26.486495,3.95638 29.085357,16.9233 -2.028917,8.4054 -5.447795,-12.49761 -12.492168,-13.07536 -6.396757,-3.84025 -18.122739,-4.86459 -21.748783,3.73503 0.08732,5.38269 -7.823403,14.04696 -4.979281,3.81503 -0.742071,-5.63452 7.783811,-11.29757 10.134875,-11.398 z m 21.029,-7.608 c 2.234401,-5.80653 11.234818,1.81288 7.35275,3.346 -10.197391,-3.25864 -1.92323,10.01779 0.06312,12.75537 1.59045,3.84988 -10.990453,-9.95198 -7.230875,-15.75437 -0.007,-0.13016 0.09995,-0.33975 -0.185,-0.347 z m 2.406,24.427 c -2.110345,-2.14625 -9.890925,-6.88202 -1.104,-6.344 1.225905,1.49033 4.383628,12.36435 1.104,6.344 z m -8.273,-2.761 c -6.003411,-4.81186 -2.905761,-14.6045 -0.624391,-2.61395 2.587796,7.79924 -1.934279,-2.54154 0.624391,2.61395 z M 43.9,169.413 c -0.149558,7.07708 -10.710546,16.933 -4.279125,4.992 2.196318,-8.87407 5.474103,-17.87194 2.938125,-26.43371 4.855388,-4.81147 2.938968,15.82881 1.654,20.82171 -0.389503,-0.0442 -0.312147,0.6093 -0.313,0.62 z m -6.232,-33.694 c 4.807221,-3.89561 5.199712,12.60689 -0.07,0.269 1.073568,1.8349 -0.240124,-2.06367 0.07,-0.269 z m 6.545,5.784 c -5.843618,-13.72292 6.752637,-0.66542 -1.401656,3.28836 -14.091275,4.55133 1.748991,-2.74263 1.401656,-3.28836 z m 2.482,-15.99 c -4.955949,3.9834 -12.298477,9.90491 -17.16825,13.16675 -0.654854,-6.85642 11.395934,-14.65496 17.179188,-13.59153 -0.269542,1.2459 0.118118,-0.62622 -0.01094,0.42478 z m -10.752,18.471 c 1.270973,3.06967 -2.972285,10.3573 -1.80375,-0.37 4.347655,-9.69872 3.203696,-1.77382 1.80375,0.37 z m -12.079,17.343 c -3.080446,8.68208 -4.463102,-10.75138 -1.3065,-13.99611 8.444198,-12.12472 -1.329267,13.1817 1.3065,13.99611 z m -2.257,-22.03 c -8.769633,-9.49048 4.157173,-22.40321 12.956,-12.131 -3.109307,4.21706 -15.621987,-7.00341 -12.798875,5.07653 0.63942,5.02104 17.860026,15.3576 4.6545,9.82347 -5.016044,-2.43734 -2.452481,-2.82681 -4.811625,-2.769 z m 17.646,-19.11 c -0.301178,-5.68684 -5.388721,-14.93369 2.379766,-5.55939 8.313848,8.59481 -9.629257,15.307 -9.274766,4.54339 3.645718,3.30318 8.584122,0.75984 6.895,1.016 z m 6.891,-7.081 c -7.426929,0.0288 -14.793686,-15.602331 -3.509547,-7.55219 5.506357,1.2221 3.228923,6.41065 3.509547,7.55219 z M 45.041,100.7 c 1.274194,7.68179 -4.830069,-1.070439 0,0 z m -4.412,-8.823 c 1.338534,-7.353595 4.088856,2.332589 0.453,-0.573 l 0.162937,0.364594 z m 0.459,2.732 c 3.927947,6.0127 -7.081691,-2.010367 0,0 l -0.408,-0.08137 z m 4.78,1.128 c -3.479445,-0.54257 0.832372,-5.541165 0.15075,-0.11625 z M 27.05,176.033 c -1.171551,-12.42747 9.072798,11.34636 16.306678,10.64561 7.340324,7.80402 -11.29984,-1.35434 -12.5086,-6.02399 C 26.309354,175.31257 29.130211,178.69389 27.05,176.033 Z m 36.426,20.744 c 5.71573,-1.68141 -1.24202,3.68028 0,0 z m 11.34,-16.124 c 0.702558,8.47798 -8.004843,4.11672 -2.181547,-1.6268 0.52529,1.04633 2.497358,1.53506 2.181547,1.6268 z m 18.196,27.018 c -9.079485,-0.0264 -1.391771,-23.85578 -6.681641,-10.19895 -4.657401,6.23642 -11.072312,-10.85211 -5.723359,-15.44105 0.611654,-10.4202 6.580151,-29.98159 -8.514,-32.908 -2.332194,-0.5512 -2.338543,2.56779 -3.896,2.579 2.664121,6.18585 17.475063,19.67901 2.484,22.883 5.770801,-2.80724 7.281173,-11.49294 -1.75,-13.86713 -11.403308,-8.7089 1.796949,-21.52851 12.032285,-13.50065 4.149592,4.76474 4.771322,8.48087 9.290715,1.73278 5.897889,7.67662 2.72148,17.39339 -2.248719,24.52571 -3.374357,3.97769 -4.462,8.86598 -2.988281,14.07329 5.590351,-2.38504 1.89605,-10.36508 6.365656,-13.35002 4.073839,-15.23327 8.477645,5.8059 4.135219,11.85389 -4.340933,8.19831 3.45154,4.84058 2.179125,11.41313 0.394717,3.01021 -7.76929,10.94044 -4.685,10.205 z M 69.026,151.703 c 0.003,0.007 -0.01488,0.007 0,0 z m 27.294,32.534 c -0.0018,5.4e-4 -9.14e-4,0.007 0,0 z m 45.49,44.11 c 8.7399,-5.99993 13.51816,17.04534 5.515,1.931 -4.57285,1.01818 -6.35065,2.15333 -5.515,-1.931 z m 59.826,2.201 c 0.002,0.005 -0.009,0.003 0,0 z m -4.766,-3.533 c 1.20194,11.76453 -2.45893,3.18579 -1.022,-3.356 -6.16401,0.46517 3.21184,-15.43625 0.1972,-4.1332 2.56964,2.55098 0.18668,5.71698 0.8248,7.4892 z m 37.023,-69.519 c 1.91707,-6.21513 -1.20229,-24.53064 1.68448,-22.83672 0.43105,12.66783 0.67607,25.41027 0.52352,38.18215 -0.10025,13.96031 0.51355,27.80919 1.101,41.72157 -0.26213,5.1827 2.39853,10.40253 3.2475,15.7735 0.91708,5.58523 -7.95677,-11.72454 -5.254,-15.90269 -0.69332,-18.97805 -1.33918,-37.94032 -1.3025,-56.93781 l 0.0503,0.53212 z m 15.105,-15.2 c 10.0988,10.64523 -21.29675,2.62802 -5.406,4.01475 2.15516,-0.40042 4.70646,-3.45144 5.406,-4.01475 z m 13.016,20.431 c -2.5791,7.96764 -13.93892,13.83483 -20.93587,8.66963 -5.46315,-7.70027 5.02028,-16.14932 5.49587,-4.25463 8.49654,2.1804 11.66114,-7.69801 3.4005,-10.63288 0.006,-6.2546 16.06733,-1.01861 12.0395,6.21788 z m -23.433,-12.952 c -0.0661,6.78642 1.47139,-2.1031 1.99274,1.36186 6.82771,0.25156 14.58818,19.59597 5.52826,10.22614 -1.53678,-4.16529 -10.75413,-6.59235 -7.521,-11.588 z m 5.237,74.712 c 8.0544,-2.79295 -0.61807,10.10512 0,0 z m 3.033,-4.136 c -9.60453,-0.56677 3.30386,-5.21827 -0.10313,-0.48638 z m 4.482,8.952 c -6.19755,-5.94237 8.99619,-3.82237 -0.0428,-0.003 z m 2.686,-10.88 c -7.94963,10.56152 -1.97068,-8.66216 3.033,-5.238 -1.30905,2.38199 -2.39268,6.87626 -3.033,5.238 z m 5.942,-93.123 c -3.47764,1.74127 3.10432,6.78071 -5.1505,5.14088 -11.71211,0.1748 -0.72856,5.14345 5.5505,3.34212 3.13093,6.67024 -8.5899,2.9346 -0.278,8.548 2.0676,6.33988 -7.86423,8.67557 -4.45788,0.42411 -6.66088,-3.64504 -13.67082,-6.5252 -12.55462,-13.99636 -17.03582,2.49426 -34.57513,0.0696 -51.9095,0.33925 2.09292,-4.41973 9.08153,-1.24637 13.35033,-2.206 9.46042,-0.29254 18.97732,2.31331 28.28067,0.277 2.86388,-1.76858 10.47031,0.68941 10.475,-3.86 -9.92982,-9.04051 15.96818,-11.9777 14.337,-23.432 9.49605,1.72078 -2.45503,9.51103 1.40587,12.92256 -3.1446,2.57286 -16.60819,8.41208 -5.78462,5.85794 5.7329,-3.74095 14.74943,3.21697 6.73575,6.6425 z m 3.156,-35.353 c -5.91325,4.698606 -17.4284,19.58928 -21.782,5.094289 -0.69335,-8.079327 10.17661,-15.27545 8.02563,-21.528289 3.95023,6.385536 2.54435,14.114275 -0.32493,20.8355 6.47899,2.457255 5.32581,-15.131199 13.17992,-6.809625 L 263.117,89.947 c -0.84729,0.274397 -0.50651,-1.454883 0,0 z m -2.482,-35.289 c -0.063,4.461388 2.02297,10.003522 0.18589,14.632375 1.83232,4.363848 -5.30821,21.181603 -4.87289,9.904625 3.80898,-10.003492 2.62449,-20.982445 -0.802,-31.037 1.92928,-11.31152 4.07153,5.481547 5.489,6.5 z M 247.68,21.023 c 7.06742,-5.406914 15.76163,2.06693 12.04567,10.866922 -1.90482,-3.078726 -3.20394,-12.926124 -8.18992,-7.150422 2.28532,4.033227 7.10475,16.195675 -0.31528,6.82768 -4.45211,-3.813902 -3.26234,-12.21933 -3.8188,-8.33959 z m -44.113,-0.827 c 8.77522,-1.897526 16.9825,-1.437565 25.917,-0.001 7.37447,1.208762 20.94487,10.720601 21.05434,15.387969 C 240.77421,32.475479 233.64828,21.485803 222.591,21.849 c -9.01541,-1.803545 -17.40491,1.177567 -25.916,4.136 -4.24422,-4.0668 8.91559,-5.664792 6.892,-5.789 z m -14.013,2.313 c 7.42296,1.676489 6.9221,16.142011 2.02292,4.231047 -3.52134,-1.872133 -6.88018,-3.061441 -2.02292,-4.231047 z m -37.543,2.099 c 3.77727,-8.068273 17.71017,3.807126 19.72552,1.300812 -2.95616,11.115289 -21.72996,-8.18065 -15.82015,6.646563 8.90136,9.203751 18.88458,-6.749433 28.5143,-6.609406 13.3696,-2.467033 5.49423,18.857936 3.12083,14.208531 3.68434,-6.170402 -6.40844,4.227481 -0.5305,7.3325 3.57954,2.54948 6.34605,7.725315 -1.655,6.067 -2.45488,-9.623848 -5.30684,3.195843 -9.096,-6.067 -6.3027,-6.305856 14.52248,-17.736547 1.18878,-12.727305 -2.12628,7.838898 -16.09967,11.16711 -14.38216,4.83218 C 154.43905,39.150086 148.60321,30.34259 152.011,24.608 Z m -37.771,6.616 c -0.33157,-6.646313 12.15834,3.349055 7.74131,-6.776391 2.23098,-10.731157 15.31653,-4.522161 16.46038,3.678704 3.75361,2.162161 12.04507,-1.552173 5.29531,4.751687 -8.04703,2.710382 -8.90033,-13.323327 -16.80587,-7.987375 -4.27826,3.977289 3.85342,12.564478 -6.07313,15.153375 -4.3268,-1.407932 -8.03923,-5.364494 -6.618,-8.82 z m 1.103,12.682 c 4.33675,-5.736475 3.60201,13.222148 12.17687,5.824016 -3.80078,-6.130837 5.61289,-13.866408 7.39513,-4.170016 4.56566,13.495349 -17.45187,19.355124 -20.37032,6.909025 -4.00219,-7.454529 -12.78919,-6.508304 -16.630492,-7.859822 -0.872459,-11.428861 15.299002,-1.35239 13.247812,-8.981328 4.74568,2.173551 -1.51434,3.337677 4.181,8.278125 z m -7.719,-24.537 c 10.28135,-2.991106 -1.22365,3.162945 3.308,7.719 -4.31265,-1.14618 -5.12496,-7.484362 -3.308,-7.719 z M 45.316,25.16 c 7.740651,-3.118356 16.572834,-6.371462 24.988922,-6.310812 10.445714,-0.46862 19.643795,0.899687 29.046078,4.931812 6.94326,-0.280635 19.82929,14.39851 5.86527,7.474922 C 93.57507,24.035956 81.059167,21.16058 67.439312,22.426 60.978001,21.757856 56.025556,25.209438 50.553,27.366 47.216621,28.781954 31.080212,40.285905 36.695687,31.014359 40.432876,26.815688 45.622706,24.904458 45.316,25.16 Z M 17.984,22.935 C 19.368972,12.582608 45.384323,25.474263 28.253875,22.58375 17.558379,17.376513 22.401108,33.407489 32.021609,26.821375 41.588173,24.245305 34.263914,29.426324 28.5,30.949 19.802724,34.752831 17.029106,28.184428 17.984,22.935 Z m 9.137,242.354 c -6.615434,2.04881 -10.160381,-4.59077 -1.654,-4.131 -2.625149,-6.34843 -6.066836,-10.9941 0.813672,-3.05408 1.904513,2.04062 1.658254,6.23468 0.840328,7.18508 z m 28.121,0 c -11.392123,2.13183 -24.390191,-3.25912 -31.255559,-13.35671 -5.627721,-6.46147 -4.960639,-15.56921 -5.440316,-23.61002 0.393329,-9.09968 4.661717,-17.0309 11.53025,-23.26677 1.087031,-5.1825 20.308325,-9.45796 11.933625,-3.4465 -11.160253,2.75664 -18.356503,13.59627 -20.357461,24.36411 -2.60465,6.46484 -0.914377,14.11559 2.160461,20.29889 4.433322,13.72561 21.021921,19.83739 33.945656,15.26706 7.651564,0.18089 12.931427,-13.52653 16.782344,-10.71135 -2.59889,8.56923 -12.056636,13.98155 -19.299,14.46129 z m 34.186,0.002 c -6.507413,1.67278 -7.736309,-0.2645 -2.714,-4.09225 0.358991,-7.14841 -9.753346,-4.58154 -13.907641,-0.57422 -10.069414,6.55565 5.362938,-11.12164 11.688766,-8.59753 7.779915,-1.59192 8.797335,11.34972 4.932875,13.264 z m 1.586,-16.129 c -1.752008,-1.42896 14.04009,0.4255 16.059,-4.06264 1.95521,8.98867 -14.008283,8.87291 -16.059,4.06264 z m 15.785,13.092 c -5.2215,1.9928 -15.450743,-9.1494 -3.276,-8.50962 6.10934,-4.54599 5.97373,8.7014 3.276,8.50962 z m 5.236,-30.597 c -5.41861,-3.20954 -6.37147,-11.62618 -2.10839,-16.27575 8.55079,-0.2329 12.68731,-12.87088 1.43016,-10.733 -6.51906,2.50723 -7.54489,10.46953 -7.04077,16.76995 0.18009,3.60182 3.75912,14.26372 -1.102,6.9288 -1.07667,10.40419 0.0819,12.13605 3.05467,8.81184 0.57164,11.56899 -16.542861,11.78241 -19.86967,2.21316 -4.720448,-5.85291 -4.596879,-12.82637 -6.0985,-19.67813 -0.761608,-6.22254 -0.703192,-19.09113 2.971047,-5.82021 -0.275765,8.94712 3.579137,-4.40366 5.056453,4.54834 -1.111644,7.43925 0.713181,17.04 4.702953,21.41797 -0.323932,3.85213 9.180027,1.94683 5.502547,-1.65447 1.62746,-3.47886 -7.771298,2.47955 -1.23125,-3.48963 1.631069,-8.42877 -6.254657,-16.1235 -2.90525,-24.54987 1.759905,-5.02934 4.972946,-13.29965 9.925,-6.616 7.26928,-18.16601 28.78649,9.99321 10.43809,13.5485 -7.64546,1.91363 -5.60441,15.22964 3.06991,12.3685 1.28254,3.76214 -4.4888,2.6306 -5.795,2.21 z m 3.033,31.151 c -6.50294,-5.94924 3.12798,-15.46631 10.13083,-12.79489 8.79783,0.0222 9.19124,9.62504 1.46792,2.64211 -8.21961,-2.33105 -14.32695,5.40801 -11.59875,10.15278 z m 39.423,1.378 c -5.15357,8.94767 -23.41559,-6.0621 -9.649,0.277 7.43585,1.70952 8.29244,-9.39344 0.37012,-8.5947 -6.08562,3.28849 -13.35979,12.30825 -21.7065,7.91884 -10.5827,-4.59871 -3.48008,-11.03906 3.14338,-3.45914 8.60191,-4.20759 22.70158,-13.13794 28.121,0.549 0.46519,0.31444 -0.90694,4.11918 -0.279,3.309 z m 68.921,-1.655 c -11.10262,4.20892 -23.82106,3.65516 -35.01,2.759 -7.41077,-1.17196 -14.28038,-1.73951 -21.61386,-4.79946 -11.94148,-3.89518 -20.33344,-12.66628 -32.14514,-16.97754 -5.17531,-5.62424 -15.55959,8.42063 -17.99078,3.58992 0.79494,-8.80162 13.28308,-9.27155 17.43878,-11.30692 -2.02373,-8.23738 9.81544,3.29989 13.15536,5.01364 3.15842,-9.59541 10.8337,12.75216 18.82264,12.08036 7.55257,-3.83151 -8.26261,-8.95791 -4.133,-15.438 4.21372,-2.0807 7.56144,8.23279 8.98627,-0.89887 5.66298,-9.1087 22.13564,-1.14078 16.64773,8.33687 4.60106,4.29404 -0.34463,7.19432 -4.05127,2.79855 5.50927,-7.03999 -6.3169,-17.16344 -8.64236,-6.11293 1.80369,10.60587 12.9302,16.89625 22.35063,19.30838 4.50469,2.183 10.8403,1.32323 16.03108,0.52005 2.69003,-0.75852 11.1667,-3.156 10.15392,1.12695 z m 38.643,-9.364 c -6.35946,0.46243 5.05927,14.61848 -7.22342,12.399 -5.58315,0.11535 -8.11254,-5.24442 -12.60471,-0.9805 -6.8787,-1.32059 3.99145,-16.13917 -6.12887,-7.2915 -2.14143,-4.67611 -8.96603,8.36417 -1.04378,0.96377 1.68182,3.00919 -10.87384,6.21553 -8.87822,-0.13377 -4.73281,1.80608 -15.21666,-5.07323 -8.03592,-6.36258 3.89702,9.29099 15.97932,-5.56207 18.78492,-0.0441 2.11527,0.33224 8.53951,-5.3429 6.344,1.16964 11.73976,-4.99376 2.0952,7.36023 7.996,10.198 9.87093,2.95944 4.22893,-7.66808 6.062,-11.579 1.71733,-1.5785 6.18672,1.13473 4.728,1.661 z m 1.832,-46.105 c -0.50569,4.5483 -1.30856,8.65485 -1.872,13.291 -1.60883,3.9094 -5.25475,21.54558 -9.05662,14.25339 5.09921,-9.60458 7.95532,-20.81063 7.45121,-31.87381 -0.0489,-9.1016 -3.11674,-17.58755 -5.01559,-26.49358 8.39843,-1.35127 7.21316,14.42052 8.24023,20.91646 0.25534,3.28912 0.6103,6.61585 0.25277,9.90654 z"
   id="path101" />
	<path
   d="m 96.596,207.117 c -4.046226,2.83451 1.134573,14.63297 -0.275,5.512 -0.776462,-1.78952 5.3518,-5.33567 0.275,-5.512 z"
   id="path102" />
	<path
   d="m 173.769,245.978 c 2.32229,-5.62441 -4.06776,-9.04354 -0.631,-0.557 2.5041,1.64926 -0.29628,0.0337 0.631,0.557 z"
   id="path103" />
	<path
   d="m 175.168,256.195 c -1.83931,-5.3687 -7.34441,5.83537 0.8695,4.39312 2.19522,-0.30032 1.36235,-6.66431 -0.8695,-4.39312 z"
   id="path104" />
	<path
   d="m 148.427,248.197 c 4.69147,6.84451 9.7393,4.0018 0,0 z"
   id="path105" />
	<path
   d="m 177.572,260.154 c 5.28459,3.33747 1.1349,-3.15874 0,0 z"
   id="path106" />
	<path
   d="m 276.927,264.559 c -0.20374,-79.45521 0.48209,-159.55259 -0.578,-238.55904 0,-5.886653 0,-11.773307 0,-17.65996 C 186.98355,7.9423992 97.542231,7.969499 8.2226562,8.0935 7.1426018,33.26743 8.1745523,58.935339 7.7925098,84.297381 7.9423499,148.39158 7.3508423,213.2363 8.374,276.87 c 43.777424,-0.11137 87.645435,0.17091 131.45755,-0.27209 45.41215,0.25977 90.83964,0.33937 136.24345,0.26909 1.9761,-1.86298 0.35338,-16.01498 0.852,-12.308 z m -4.988,7.072 c -12.48187,1.28612 -25.95833,0.1326 -38.818,0.539 8.6453,0.017 18.99509,0.0105 5.78909,0.012 -75.4677,0 -150.935393,0 -226.40309,0 0.05551,-86.31998 -0.117686,-172.652537 0.10075,-258.962 7.822625,-1.991855 16.948628,0.214584 25.189221,-0.421004 78.046769,-0.08597 156.094019,-0.02988 234.141029,-0.046 0.001,86.292667 0.001,172.58533 0.001,258.878 -0.0234,-11.01696 -0.0164,-30.57792 -0.004,-36.39628 0.005,12.13209 0.004,24.26419 0.004,36.39628 z"
   id="path107" />
	<path
   d="m 184.294,260.575 c -5.73125,-0.3845 1.59912,4.71291 0,0 z"
   id="path108" />
	<path
   d="m 184.542,262.533 c -0.0773,0.0637 -0.0773,0.0637 0,0 z"
   id="path109" />
	<path
   d="m 187.114,262.711 c -1.20213,4.87527 6.62939,-1.82817 0,0 z"
   id="path110" />
	<path
   d="m 251.815,265.567 c 2.00974,-0.12864 -2.33006,-0.98835 0,0 z"
   id="path111" />
	<path
   d="m 93.012,207.671 c 1.075188,-4.29794 -3.090884,-0.18397 0,0 z"
   id="path112" />
	<path
   fill="none"
   stroke="#ffffff"
   stroke-width="0"
   stroke-linecap="round"
   stroke-linejoin="round"
   d="m 29.051,12.751 c 0.638667,0 1.277333,0 1.916,0"
   id="path113" />
	<path
   fill="none"
   stroke="#ffffff"
   stroke-width="0"
   stroke-linecap="round"
   stroke-linejoin="round"
   d="m 203.064,247.37 h -0.047"
   id="path114" />
	
		<line
   fill="none"
   stroke="#FFFFFF"
   stroke-width="0"
   stroke-linecap="round"
   stroke-linejoin="round"
   x1="254.845"
   y1="181.478"
   x2="254.85"
   y2="181.483"
   id="line114" />
	
		<line
   fill="none"
   stroke="#FFFFFF"
   stroke-width="0"
   stroke-linecap="round"
   stroke-linejoin="round"
   x1="254.294"
   y1="198.561"
   x2="254.294"
   y2="198.57"
   id="line115" />
	<path
   fill="none"
   stroke="#ffffff"
   stroke-width="0"
   stroke-linecap="round"
   stroke-linejoin="round"
   d="m 238.179,150.492 -0.088,0.227"
   id="path115" />
	<path
   fill="none"
   stroke="#ffffff"
   stroke-width="0"
   stroke-linecap="round"
   stroke-linejoin="round"
   d="m 172.687,239.651 0.13,-0.022"
   id="path116" />
	<path
   fill="none"
   stroke="#ffffff"
   stroke-width="0"
   stroke-linecap="round"
   stroke-linejoin="round"
   d="m 184.542,262.533 -0.232,0.191"
   id="path117" />
	
		<line
   fill="none"
   stroke="#FFFFFF"
   stroke-width="0"
   stroke-linecap="round"
   stroke-linejoin="round"
   x1="180.409"
   y1="180.375"
   x2="180.41"
   y2="180.375"
   id="line117" />
	
		<line
   fill="none"
   stroke="#FFFFFF"
   stroke-width="0"
   stroke-linecap="round"
   stroke-linejoin="round"
   x1="163.879"
   y1="197.473"
   x2="163.87"
   y2="197.468"
   id="line118" />
	
		<line
   fill="none"
   stroke="#FFFFFF"
   stroke-width="0"
   stroke-linecap="round"
   stroke-linejoin="round"
   x1="177.941"
   y1="223.943"
   x2="177.931"
   y2="223.939"
   id="line119" />
	
		<line
   fill="none"
   stroke="#FFFFFF"
   stroke-width="0"
   stroke-linecap="round"
   stroke-linejoin="round"
   x1="174.618"
   y1="123.307"
   x2="174.617"
   y2="123.307"
   id="line120" />
	
		<line
   fill="none"
   stroke="#FFFFFF"
   stroke-width="0"
   stroke-linecap="round"
   stroke-linejoin="round"
   x1="198.604"
   y1="165.486"
   x2="198.604"
   y2="165.484"
   id="line121" />
	<path
   fill="none"
   stroke="#ffffff"
   stroke-width="0"
   stroke-linecap="round"
   stroke-linejoin="round"
   d="m 194.941,54.668 -0.473,-0.01"
   id="path121" />
	
		<line
   fill="none"
   stroke="#FFFFFF"
   stroke-width="0"
   stroke-linecap="round"
   stroke-linejoin="round"
   x1="189.781"
   y1="151.152"
   x2="189.78"
   y2="151.152"
   id="line122" />
	<path
   fill="none"
   stroke="#ffffff"
   stroke-width="0"
   stroke-linecap="round"
   stroke-linejoin="round"
   d="m 195.02,31.775 0.078,-0.165"
   id="path122" />
	<path
   fill="none"
   stroke="#ffffff"
   stroke-width="0"
   stroke-linecap="round"
   stroke-linejoin="round"
   d="m 181.236,63.481 0.173,0.071"
   id="path123" />
	<path
   fill="none"
   stroke="#ffffff"
   stroke-width="0"
   stroke-linecap="round"
   stroke-linejoin="round"
   d="m 173.864,103.36 0.262,-0.006"
   id="path124" />
	<path
   fill="none"
   stroke="#ffffff"
   stroke-width="0"
   stroke-linecap="round"
   stroke-linejoin="round"
   d="m 170.484,215.247 -0.004,0.128"
   id="path125" />
	
		<line
   fill="none"
   stroke="#FFFFFF"
   stroke-width="0"
   stroke-linecap="round"
   stroke-linejoin="round"
   x1="170.48"
   y1="215.387"
   x2="170.48"
   y2="215.379"
   id="line125" />
	<path
   fill="none"
   stroke="#ffffff"
   stroke-width="0"
   stroke-linecap="round"
   stroke-linejoin="round"
   d="m 155.463,141.268 0.176,-0.069"
   id="path126" />
	
		<line
   fill="none"
   stroke="#FFFFFF"
   stroke-width="0"
   stroke-linecap="round"
   stroke-linejoin="round"
   x1="142.637"
   y1="142.607"
   x2="142.636"
   y2="142.607"
   id="line126" />
	
		<line
   fill="none"
   stroke="#FFFFFF"
   stroke-width="0"
   stroke-linecap="round"
   stroke-linejoin="round"
   x1="155.319"
   y1="146.741"
   x2="155.315"
   y2="146.741"
   id="line127" />
	
		<line
   fill="none"
   stroke="#FFFFFF"
   stroke-width="0"
   stroke-linecap="round"
   stroke-linejoin="round"
   x1="129.676"
   y1="140.953"
   x2="129.676"
   y2="140.952"
   id="line128" />
	<path
   fill="none"
   stroke="#ffffff"
   stroke-width="0"
   stroke-linecap="round"
   stroke-linejoin="round"
   d="m 158.09,46.854 0.068,0.002"
   id="path128" />
	
		<line
   fill="none"
   stroke="#FFFFFF"
   stroke-width="0"
   stroke-linecap="round"
   stroke-linejoin="round"
   x1="151.46"
   y1="52.728"
   x2="151.46"
   y2="52.729"
   id="line129" />
	
		<line
   fill="none"
   stroke="#FFFFFF"
   stroke-width="0"
   stroke-linecap="round"
   stroke-linejoin="round"
   x1="128.027"
   y1="24.055"
   x2="128.025"
   y2="24.055"
   id="line130" />
	
		<line
   fill="none"
   stroke="#FFFFFF"
   stroke-width="0"
   stroke-linecap="round"
   stroke-linejoin="round"
   x1="85.566"
   y1="178.168"
   x2="85.555"
   y2="178.173"
   id="line131" />
	
		<line
   fill="none"
   stroke="#FFFFFF"
   stroke-width="0"
   stroke-linecap="round"
   stroke-linejoin="round"
   x1="69.02"
   y1="151.708"
   x2="69.02"
   y2="151.708"
   id="line132" />
	
		<line
   fill="none"
   stroke="#FFFFFF"
   stroke-width="0"
   stroke-linecap="round"
   stroke-linejoin="round"
   x1="77.293"
   y1="170.174"
   x2="77.297"
   y2="170.165"
   id="line133" />
	
		<line
   fill="none"
   stroke="#FFFFFF"
   stroke-width="0"
   stroke-linecap="round"
   stroke-linejoin="round"
   x1="91.632"
   y1="222.282"
   x2="91.634"
   y2="222.282"
   id="line134" />
	
		<line
   fill="none"
   stroke="#FFFFFF"
   stroke-width="0"
   stroke-linecap="round"
   stroke-linejoin="round"
   x1="81.984"
   y1="256.193"
   x2="81.987"
   y2="256.197"
   id="line135" />
	
		<line
   fill="none"
   stroke="#FFFFFF"
   stroke-width="0"
   stroke-linecap="round"
   stroke-linejoin="round"
   x1="28.784"
   y1="246.819"
   x2="28.774"
   y2="246.819"
   id="line136" />
	
		<line
   fill="none"
   stroke="#FFFFFF"
   stroke-width="0"
   stroke-linecap="round"
   stroke-linejoin="round"
   x1="71.783"
   y1="250.127"
   x2="71.784"
   y2="250.126"
   id="line137" />
	
		<line
   fill="none"
   stroke="#FFFFFF"
   stroke-width="0"
   stroke-linecap="round"
   stroke-linejoin="round"
   x1="48.074"
   y1="259.778"
   x2="48.073"
   y2="259.778"
   id="line138" />
	
		<line
   fill="none"
   stroke="#FFFFFF"
   stroke-width="0"
   stroke-linecap="round"
   stroke-linejoin="round"
   x1="55.242"
   y1="258.95"
   x2="55.24"
   y2="258.951"
   id="line139" />
	
		<line
   fill="none"
   stroke="#FFFFFF"
   stroke-width="0"
   stroke-linecap="round"
   stroke-linejoin="round"
   x1="48.075"
   y1="259.778"
   x2="48.074"
   y2="259.778"
   id="line140" />
</g>
</svg>
