<?xml version="1.0" encoding="utf-8"?>
<!-- Generator: Adobe Illustrator 15.1.0, SVG Export Plug-In . SVG Version: 6.00 Build 0)  -->
<!DOCTYPE svg PUBLIC "-//W3C//DTD SVG 1.1//EN" "http://www.w3.org/Graphics/SVG/1.1/DTD/svg11.dtd">
<svg version="1.1" id="Layer_1" xmlns:svg="http://www.w3.org/2000/svg"
	 xmlns="http://www.w3.org/2000/svg" xmlns:xlink="http://www.w3.org/1999/xlink" x="0px" y="0px" width="283.46px"
	 height="283.46px" viewBox="0 0 283.46 283.46" enable-background="new 0 0 283.46 283.46" xml:space="preserve">
<g id="g382">
	<path id="path109" d="M271.71,193.712c1.961-4.588-7.941-25.213-7.656-12.959c2.629,11.914,6.413,23.813,3.792,36.396
		c0.888,8.539-8.43,19.172-5.843,25.43c6.565-5.066,7.998-18.326,9.739-27.273C272.571,208.142,272.163,201.082,271.71,193.712
		L271.71,193.712z"/>
	<path id="path110" d="M271.707,166.626c1.123-10.694-6.362,10.579-12.809,7.949c-5.101,6.764-18.395-10.271-11.816,0.631
		C254.595,181.29,268.883,175.251,271.707,166.626L271.707,166.626z"/>
	<path id="path111" d="M269.332,257.91C269.423,257.96,269.473,257.988,269.332,257.91z"/>
	<path id="path112" d="M269.105,257.785C269.181,257.827,269.181,257.827,269.105,257.785z"/>
	<path id="path113" d="M269.105,257.785c-10.693-2.526,2.926,16.787-10.355,12.471c-6.014-1.717,1.939-10.019-2.768-11.617
		c-3.346-0.983-7.675,3.061-5.176-2.805c-6.827,3.838-8.426-1.639-16.778,3.826c-6.036,7.283-15.386-9.468-12.069,3.4
		c5.499,2.038,10.586,0.962,12.074,5.729c6.475,0.253,11.449-5.791,2.625-1.656c3.117-3.684,9.537-6.994,11.799-3.647
		c-6.566,7.406,3.092,9.108,6.786,6.684c3.757,5.021,16.938,3.675,13.907-4.259C262.204,259.751,273.43,260.423,269.105,257.785z"/>
	<path id="path114" d="M267.649,81.04c-5.667-2.71-9.228,17.927-11.128,5.859c6.6-5.916,1.791-17.343-0.932-18.232
		c4.246,9.364-12.559,15.713-6.428,25.573c7.446,9.986,22.617-6.736,20.588-12.506l-1.283-0.484L267.649,81.04z M255.402,94.889
		c-0.295-2.311-4.238,1.885-2.088-3.038C254.025,86.648,257.107,94.238,255.402,94.889z"/>
	<path id="path115" d="M246.648,169.55c3.535,9.254,17.633,3.948,21.766-2.647c10.801-8.898-13.256-19.998-10.254-8.813
		c9.148,2.163,3.645,12.429-4.207,9.916C253.25,159.078,244.848,158.556,246.648,169.55L246.648,169.55z"/>
	<path id="path116" d="M264.052,114.519c-4.902,3.996-12.893,2.034-2.889-0.815c10.037-2.582,1.713-8.518,8.78-12.779
		c-4.455-14.101-7.542,11.042-17.37,9.177c-6.819,3.593-4.926,8.932-2.355,13.128c-4.312,0.742-8.609,1.122-12.768,2.212
		c-11.918,1.399-23.799-1.399-35.854-0.625c-4.688-1.841-10.309,3.683-2.545,2.355c16.758-0.137,33.803,2.32,50.332-0.388
		c4.068,2.347-1.464,12.056,8.65,11.441c7.492,0.184,4.637,16.497,10.137,5.861c1.764-4.323-8.465-8.172-0.137-7.201
		c7.457-7.688-21.501-4.638-7.095-8.255c4.595,0.791,9.573-0.394,4.869-4.403C273.996,120.761,272.568,115.515,264.052,114.519
		L264.052,114.519z M258.985,122.541C255.16,129.728,249.833,120.46,258.985,122.541z M266.111,118.052
		C267.179,116.865,268.515,122.2,266.111,118.052z M271.527,117.294l0.348,0.124L271.527,117.294z M271.103,117.143l0.111,0.04
		L271.103,117.143z"/>
	<path id="path117" d="M267.585,44.45c0.147-6.464-5.104-11.15-4.42-2.06c4.361,10.528,3.607,22.108,0.66,32.68
		c-0.162,9.365,5.723-5.788,5.262-8.799c0.563-5.473,1.08-11.475-0.328-16.816C270.171,47.541,266.716,46.572,267.585,44.45
		L267.585,44.45z M265.33,37.325l0.041,0.222L265.33,37.325z"/>
	<path id="path118" d="M263.167,27.962c0.611-5.789-9.646-17.129,2.06-12.658c0.14,11.106,4.145,6.561,2.726-2.145
		c-13.033-11.275-17.5,8.619-4.798,14.799L263.167,27.962z"/>
	<path id="path119" d="M262.285,253.182c9.809-6.741-9.971,0.295-15.16-2.359c-13.869-0.37-28.351-0.707-41.797,0.487
		c-3.039,0.48-12.131-4.395-6.92,2.086c9.702,1.004,19.131-0.85,29.144-0.263C239.129,253.118,250.708,253.308,262.285,253.182
		L262.285,253.182z"/>
	<path id="path120" d="M248.48,253.214C247.896,253.212,247.896,253.212,248.48,253.214z"/>
	<path id="path121" d="M261.402,179.587c-1.902,5.412,0.646,8.618,0.883,13.166c3.568,6.185-5.35,22.793-11.257,13.627
		c-2.117-6.131,15.459-18.462,0.925-20.848c-6.775,0.209,8.299,10.021-2.426,12.604c-9.634,5.932,2.607,13.631,2.163,16.484
		c-4.921,9.607,11.952-1.215,11.25-5.676c4.298-7.272,0.548-15.181,0.187-22.832C262.923,183.863,262.186,181.585,261.402,179.587
		L261.402,179.587z"/>
	<path id="path122" d="M264.935,216.97c-3.938-3.873-12.928,15.54-3.465,6.804C262.45,221.571,264.278,219.644,264.935,216.97z"/>
	<path id="path123" d="M262.591,53.783c1.543-9.988-15.754-6.053-8.549-1.676c12.342-5.282,5.607,30.746,9.459,12.847
		C264.3,60.622,262.64,57.852,262.591,53.783L262.591,53.783z"/>
	<path id="path124" d="M263.167,32.381c-11.807,3.035-24.686,9.952-24.731,23.847c-0.679,7.185-0.104,14.748-0.294,22.081
		c5.006-1.594,1.129-14.307,2.354-19.721c-0.115-9.199,6.015-19.009,15.961-20.474C259.984,37.312,263.462,36.851,263.167,32.381
		L263.167,32.381z"/>
	<path id="path125" d="M261.675,232.43C261.316,223.282,251.796,238.042,261.675,232.43z"/>
	<path id="path126" d="M200.46,17.072c9.957-3.787,20.785-6.81,31.178-3.799c10.494-0.621,19.494,15.787,27.473,13.005
		c-7.051-6.123-13.799-13.746-23.617-15.388c-8.7-1.302-16.672-2.092-25.1-0.368C208.388,10.785,195.207,13.59,200.46,17.072z"/>
	<path id="path127" d="M251.979,159.857c4.523,9.736,9.602,1.707,2.542-3.459c-3.532-5.904-15.299-8.794-6.87-0.469
		C249.167,157.15,250.765,158.311,251.979,159.857z"/>
	<path id="path128" d="M256.396,141.309C260.304,142.729,256.267,140.476,256.396,141.309z"/>
	<path id="path129" d="M249.035,145.139c-13.389,0.644,18.313,6.063,7.362-3.829C254.551,142.583,251.998,146.469,249.035,145.139z"
		/>
	<path id="path130" d="M254.696,222.054C244.759,218.451,253.559,230.626,254.696,222.054z"/>
	<path id="path131" d="M251.096,232.279C250.49,231.669,251.05,233.346,251.096,232.279z"/>
	<path id="path132" d="M253.13,232.819C258.271,223.441,244.492,230.638,253.13,232.819z"/>
	<path id="path133" d="M253.93,92.623C254.355,90.516,253.039,92.861,253.93,92.623z"/>
	<path id="path134" d="M246.682,94.794c-5.255,10.252,15.886,6.872,2.41,2.592C245.865,97.369,249.216,95.036,246.682,94.794z"/>
	<path id="path135" d="M258.75,63.587c2.914-10.688-10.73-1.988-8.575,5.26c-4.731,13.822,2.409-9.949-1.402-14.413
		c-2.993-11.658-5.753-1.375-2.054,4.848c1.866,9.821-4.152,22.41-14.393,26.968c-4.325,5.657-19.549,1.905-19.207,6.776
		c8.962,0.625,18.711-1.468,26.191-6.597c5.361-2.494,10.893-19.116,6.787-5.482c6.959-2.614,4.551-22.95,11.418-17.807l0.844,0.417
		L258.75,63.587z"/>
	<path id="path136" d="M240.376,179.458c1.284,16.205-0.484,32.771,2.387,48.775c0.729,5.747,8.695,14.574,3.632,3.303
		c-2.589-6.191-2.497-12.724-2.993-19.268c-1.002-22.191-0.863-44.547-0.845-66.846c-0.781-4.07-0.735-22.611-1.837-8.564
		C241.378,151.092,239.419,165.219,240.376,179.458L240.376,179.458z"/>
	<path id="path137" d="M246.679,104.215C245.377,91.838,240.789,110.979,246.679,104.215z"/>
	<path id="path138" d="M244.031,105.687C243.405,104.689,244.716,107.209,244.031,105.687z"/>
	<path id="path139" d="M235.496,16.188c-7.844-1.529-18.587-3.526-26.277,1.851c-12.488,10.315,6.627,20.801,13.341,8.766
		c3.122-3.339,7.781-7.509,12.052-3.847c-5.691-12.17-19.701,16.04-21.877,0.364c2.027-6.836,9.029-6.565,15.104-6.548
		c7.305-1.402,21.821,12.131,22.129,8.694C246.33,20.852,241.046,17.889,235.496,16.188z"/>
	<path id="path140" d="M241.675,122.173C241.671,122.175,241.671,122.175,241.675,122.173z"/>
	<path id="path141" d="M241.97,107.748c-1.009-3.582,0.301-24.927-3.908-16.093c1.264,10.433,1.295,20.955,1.257,31.4
		C245.239,123.53,240.398,111.476,241.97,107.748z"/>
	<path id="path142" fill="none" d="M179.557,267.017v-0.607"/>
	<path id="path143" d="M228.25,267.398c-4.393-0.963-8.688,0.795-12.764,1.398c-5.703,1.722-12.348-0.09-17.963-1.482
		c-9.066-2.984-28.16-17.119-15.891-25.362c11.711-0.703-0.842,14.331,9.025,14.194c6.262-0.215-4.478-6.909,0.971-12.087
		c-5.517-12.071-19.01-4.042-22.328,2.163c-7.303-11.119-8.26,6.912,0.541,9.313c-0.42,9.555-13.65-2.923-15.085-7.908
		c-5.625-6.787-5.132-2.852-8.464-1.513c-1.814-5.327-17.898-11.944-12.6-4.118c-7.197-2.152-23.529,8.934-16.684,13.002
		c4.739-3.703,12.374-9.139,17.211-5.645c10.451,3.639,18.26,11.129,27.854,15.526c8.272,3.335,16.4,6.571,24.948,6.729
		c6.037,1.927,12.49,1.242,19.223,1.624c7.764,0.462,15.363-1.273,22.771-3.564l-0.083-1.43L228.25,267.398z M148.94,254.359
		C156.277,256.003,157.187,263.876,148.94,254.359z M174.846,245.233c4.289,2.052-0.69,11.921-0.857,1.644l0.831-1.619
		L174.846,245.233z M168.076,262.898c1.236-2.195,2.611-3.471,3.98-5.07C175.108,260.352,173.472,264.307,168.076,262.898z
		 M179.557,267.017c-7.304,4.002-7.206-8.611-2.53-4.785C177.634,263.787,181.175,261.514,179.557,267.017z M182.794,267.903
		C176.242,269.861,182.976,262.632,182.794,267.903z M187.505,269.667C180.742,270.539,188.583,263.939,187.505,269.667z
		 M193.1,270.257C192.156,276.064,186.05,266.978,193.1,270.257z"/>
	<path id="path144" d="M174.846,245.233C174.837,245.242,174.837,245.242,174.846,245.233z"/>
	<path id="path145" d="M168.076,262.898C169.86,263.411,168.304,262.068,168.076,262.898z"/>
	<path id="path146" d="M182.537,268.076C183.267,268.042,182.369,267.557,182.537,268.076z"/>
	<path id="path147" d="M187.257,269.873C187.966,269.847,187.058,269.206,187.257,269.873z"/>
	<path id="path148" d="M193.1,270.257C193.1,270.16,192.978,270.429,193.1,270.257z"/>
	<path id="path149" d="M209.292,266.135c2.588-0.559,14.012,1.786,5.99-0.688c-7.408,2.143-11.391-5.701-4.08-8.281
		c-7.258-5.045-14.125,7.086-4.248,8.146C207.564,266.109,207.829,266.607,209.292,266.135z"/>
	<path id="path150" d="M203.112,36.502c-13.401-3.125-2.124,6.184,4.125,5.888c-3.308,4.732-5.471,22.697,2.353,10.231
		c-0.04-7.944,0.871-13.254,7.357-18.181C211.458,35.373,208.1,42.244,203.112,36.502L203.112,36.502z"/>
	<path id="path151" d="M216.358,172.517c-4.566-3.844-2.678,8.115-10.365,3.229C195.681,172.541,221.554,188.086,216.358,172.517z"
		/>
	<path id="path152" d="M189.566,216.38C190.221,211.73,188.409,215.47,189.566,216.38z"/>
	<path id="path153" d="M200.171,211.966c8.095-5.592,5.463,6.943,2.353,10.596c5.687,0.061-1.47,8.824,0.879,13.189
		c2.151,3.406,9.761-13.348,9.533-14.223c-2.69,2.481-0.262-12.318,3.126-11.333c0.51-6.079-10.547-3.722-2.723-10.258
		c5.77-13.718-12.12-24.979-24.271-21.532c-11.844-2.139-20.818,7.669-27.201,16.297c-4.285,5.795-8.289,12.047-9.308,18.414
		c-1.123,7.063-0.67,13.736,1.406,20.311c0.018,6.591,9.222,19.95,4.985,5.613c-1.429-4.99-3.588-13.979-3.303-20.975
		c1.229-9.139,1.673-16.734,8.119-21.285c6.09-8.015,14.447-14.121,24.325-16.271c11.701-4.436,28.021,16.053,12.069,17.316
		c1.236-16.347-21.604-10.65-28.669-3.344c-6.796,5.37-6.106,5.815,0.992,5.708c-1.812,7.665,18.298-10.234,14.708,2.656
		c-7.954-1.286-13.207,7.294-6.934,8.647c-3.436,5.004,2.451,11.02,0.723,15.672c2.645,3.754,12.182-4.528,15.791-5.425
		C198.348,218.638,197.832,214.722,200.171,211.966L200.171,211.966z M206.348,206.078c6.024,2.148-1.387,0.264,2.354,5.301
		C206.345,204.97,199.255,211.267,206.348,206.078z M191.921,194.595C199.41,194.812,194.093,204.982,191.921,194.595z
		 M187.8,195.773c6.652,0.42,4.237,10.969,1.484,1.606L187.8,195.773z M189.566,216.38c-11.813,1.795,11.725-17.805,5.669-8.344
		C192.38,209.904,189.43,212.663,189.566,216.38z"/>
	<path id="path154" d="M188.623,196.111C186.482,194.546,188.872,197.128,188.623,196.111z"/>
	<path id="path155" d="M191.921,194.595C191.964,194.644,191.964,194.644,191.921,194.595z"/>
	<path id="path156" d="M206.348,206.078C206.585,208.603,207.986,206.507,206.348,206.078z"/>
	<path id="path157" d="M214.489,158.707c1.179-3.47-13.871-7.055-4.074,0.071c9.87,5.917-11.776,11.582,0.937,10.796
		C215.933,168.46,215.657,162.175,214.489,158.707L214.489,158.707z"/>
	<path id="path158" d="M214.296,134.538C214.365,134.604,214.365,134.604,214.296,134.538z"/>
	<path id="path159" d="M213.996,134.244c-9.678-4.622-21.928-2.998-32.57-2.327c-6.271-2.122-17.471,4.399-6.125,3.797
		c10.559-0.518,21.967-1.51,32.627,1.148C210.88,136.598,217.312,140.543,213.996,134.244L213.996,134.244z"/>
	<path id="path160" d="M195.75,122.173c5.119-3.126,18.375,1.238,18.547-6.77c-5.534-0.613-10.975,3.023-16.489,3.238
		c-5.788,0.624-11.772,0.623-16.992,1.741c-6.202-1.462-18.012,7.272-6.154,4.1C181.882,123.865,188.473,122.296,195.75,122.173
		L195.75,122.173z"/>
	<path id="path161" d="M196.632,113.046c8.975-4.007,10.934-21.248,17.311-28.76c2.253-12.789-5.344,2.949-7.595,8.104
		C202.958,99.204,199.756,106.108,196.632,113.046z"/>
	<path id="path162" d="M195.748,115.111c-4.892,0.245-21.469,5.113-7.684,2.983c9.141-1.133,26.841-0.425,25.311-14.437
		c-6.023-5.914-4.91,0.473-3.165,4.994C207.008,113.285,200.804,114.006,195.748,115.111L195.748,115.111z"/>
	<path id="path163" d="M212.531,148.962c-0.204-13.985-27.949-9.318-19.137,0.004c3.775-14.15,16.713-2.008,19.43,3.824
		C212.175,151.558,212.683,150.245,212.531,148.962z"/>
	<path id="path164" d="M178.899,175.814c-5.718,5.465,6.266-0.998,9.058-0.652c4.293-0.551,8.369-1.67,12.553-4.082
		c5.85-2.24,12.754-15.699,4.783-6.982C197.724,170.092,187.542,172.685,178.899,175.814L178.899,175.814z"/>
	<path id="path165" d="M178.947,175.6L178.947,175.6C178.945,175.615,178.941,175.634,178.947,175.6z"/>
	<path id="path166" d="M198.132,54.902c5.363,5.161,8.434-18.322,4.313-9.864C202.871,49.886,197.808,50.317,198.132,54.902z"/>
	<path id="path167" d="M204.576,151.837C204.583,151.912,204.583,151.912,204.576,151.837z"/>
	<path id="path168" d="M204.576,151.837c-2.408-8.779-1.635,5.014-5.586,6.545C202.646,164.526,205.869,155.556,204.576,151.837z"/>
	<path id="path169" d="M198.695,60.938C210.658,59.263,194.533,50.862,198.695,60.938z"/>
	<path id="path170" d="M197.81,43.274C195.458,53.66,208.357,41.941,197.81,43.274z"/>
	<path id="path171" fill="none" d="M201.412,164.044v0.197"/>
	<path id="path172" fill="none" d="M201.412,164.037v0.008"/>
	<path id="path173" d="M196.636,158.681c-6.492-10.332-2.204,11.944,4.098,6.18C203.154,162.918,196.375,161.269,196.636,158.681z"
		/>
	<path id="path174" d="M199.283,222.858C199.4,222.929,199.4,222.929,199.283,222.858z"/>
	<path id="path175" d="M199.283,222.858c3.012-10.001-3.244,2.149-2.059,5.296c4.896-1.733,1.918,18.605,3.551,6.167
		C200.157,229.409,202.377,226.113,199.283,222.858L199.283,222.858z"/>
	<path id="path176" d="M184.5,152.815c-7.524,2.934-6.947,18.228,3.026,15.451c7.616,0.241,8.194-8.246-0.394-2.676
		c-13.273-1.012,2.919-15.01,9.854-12.778c8.661-1.836-7.315-3.336-10.262-0.972l-2.118,0.917L184.5,152.815z"/>
	<path id="path177" d="M188.096,70.064c-8.537-6.657,8.261,16.345,11.185,3.236c4.328-8.015-10.479-9.83-4.188-1.319
		C193.54,74.07,189.364,71.288,188.096,70.064z"/>
	<path id="path178" d="M197.91,22.227c3.701,2.504-2.963-14.932-8.049-6.921C193.333,16.517,197.32,18.215,197.91,22.227z"/>
	<path id="path179" d="M195.164,49.731C194.975,49.731,195.064,49.731,195.164,49.731z"/>
	<path id="path180" d="M195.251,49.732C195.263,49.732,195.263,49.732,195.251,49.732z"/>
	<path id="path181" d="M193.983,50.045c-5.239,5.383,6.798,8.218,2.556-0.278l-1.25-0.035L193.983,50.045L193.983,50.045z"/>
	<path id="path182" d="M195.164,49.731C195.193,49.731,195.193,49.731,195.164,49.731z"/>
	<path id="path183" d="M191.041,57.405C192.839,66.401,201.914,53.086,191.041,57.405z"/>
	<line id="line183" fill="none" x1="152.759" y1="23.544" x2="152.751" y2="23.532"/>
	<path id="path184" d="M186.212,37.963C184.978,37.998,187.185,39.302,186.212,37.963z"/>
	<path id="path185" d="M152.759,23.544c2.242,8.513,15.05,6.271,13.277,11.468c9.386,5.366,13.143-15.272,19.396-8.805
		c-9.197,0.967-9.641,20.209-1.168,16.772c-0.219-0.903,11.719,8.869,9.414,0.594c-3.666-1.762-6.52-7.773-4.603-11.239
		c4.269-5.13,4.034-0.877,0.79,2.102c13.412-6.263,2.198-23.1-8.977-16.063c-6.684,6.21-22.054,14.938-25.846,1.79
		c3.887-8.57,16.502,9.693,19.504-4.857c-6.91,6.247-17.013-9.434-21.784,0.298C151.599,18.045,151.571,21.104,152.759,23.544
		L152.759,23.544z M186.33,38.563c-7.481,4.309-6.495-6.93-6.479-1.178C180.831,40.601,185.32,35.96,186.33,38.563z M188.095,19.427
		C194.533,19.993,191.48,28.67,188.095,19.427z M184.561,21.488C191.656,27.156,187.003,26.481,184.561,21.488z"/>
	<path id="path186" d="M184.561,21.488C184.676,21.778,184.676,21.778,184.561,21.488z"/>
	<path id="path187" d="M187.97,20.6C189.748,19.881,187.419,18.247,187.97,20.6z"/>
	<path id="path188" d="M193.1,79.78c-6.919-2.247-17.712-22.375-10.89-5.008c1.514,4.381,12.182,16.316,12.951,6.183l-1.33-0.288
		L193.1,79.78z"/>
	<path id="path189" d="M188.386,234.928c4.388,0.514,9.299-12.46,2.949-5.3c2.131-9.148-7.936,3.721-12.366,0.886
		C173.277,243.625,190.894,223.372,188.386,234.928L188.386,234.928z"/>
	<path id="path190" d="M192.253,124.275c-6.188,0.387-2.043,9.386,0.277,1.456l0.274-1.495L192.253,124.275z"/>
	<polygon id="polygon190" points="192.253,124.275 192.248,124.274 192.25,124.275 	"/>
	<path id="polygon191" d="M182.382,55.38L182.382,55.38L182.382,55.38z"/>
	<path id="path191" d="M168.958,68.885c1.377,6.585,11.781-3.064,7.326-8.208c-2.284-4.398,0.031-17.323,1.468-5.954
		c-1.284,6.565,7.974,15.135,12.108,7.689c-7.309-2.116-3.42-20.55-9.422-15.016c-8.986,1.119-4.73-0.906-2.221-3.852
		c-1.961-11.5-7.911-3.727-8.115,3.417c-0.643,4.708-0.996,10.859,0.516,14.983C171.158,64.624,169.531,66.244,168.958,68.885
		L168.958,68.885z M182.382,55.38C186.93,58.079,183.526,65.346,182.382,55.38z M180.628,48.021
		C182.986,50.164,179.314,56.813,180.628,48.021z"/>
	<path id="path192" d="M180.735,47.69C180.7,47.8,180.7,47.8,180.735,47.69z"/>
	<path id="path193" d="M185.74,129.828C185.421,129.938,185.421,129.938,185.74,129.828z"/>
	<path id="path194" d="M186.625,128.945c6.794-9.923-24.283,1.092-8.129,1.181C180.741,129.559,185.514,131.512,186.625,128.945z"/>
	<path id="path195" d="M174.552,99.505c-8.331-3.72,1.278,9.106,7.265,4.7c12.562-5.397,1.248-28.237-2.614-27.319
		c1.623,6.831,7.592,12.138,4.773,19.086C181.296,98.026,178.186,100.49,174.552,99.505z"/>
	<path id="path196" d="M183.974,95.972C183.699,96.154,183.699,96.154,183.974,95.972z"/>
	<path id="path197" d="M135.987,233.164C136.044,233.224,136.044,233.224,135.987,233.164z"/>
	<path id="path198" d="M138.801,233.44c9.619-16.837,17.974-35.519,26.923-53.157c6.647-14.054,14.215-27.87,20.398-42.011
		c-8.729,3.999-11.971,23.948-19.139,33.317c-9.201,20.051-19.612,39.817-29.82,59.513
		C133.562,232.308,136.614,234.234,138.801,233.44L138.801,233.44z"/>
	<path id="path199" d="M178.559,226.541C183.343,220.811,173.599,219.164,178.559,226.541z"/>
	<path id="path200" d="M167.486,86.256c7.966-8.095-0.084,9.877,8.313,2.941c5.916-7.572-2.262-18.306-7.428-7.061
		C167.977,83.45,167.216,84.834,167.486,86.256L167.486,86.256z"/>
	<path id="path201" d="M176.898,218.364c-3.199,0.468,0.536,4.749-0.324,1.067L176.898,218.364z"/>
	<path id="path202" d="M175.725,229.996C175.917,229.863,175.917,229.863,175.725,229.996z"/>
	<path id="path203" d="M174.552,230.805C174.943,230.535,174.943,230.535,174.552,230.805z"/>
	<path id="path204" d="M176.302,229.596C176.375,229.546,176.375,229.546,176.302,229.596z"/>
	<path id="path205" d="M174.552,230.805c3.689-7.622-7.056-16.754,0.606-25.045c-5.239,1.175-10.921-7.101-14.737-3.664
		c4.306,4.374,6.777,9.917,11.069,8.208c-1.503,7.623,3.421,17.066-1.948,24.523C167.643,239.169,179.063,236.09,174.552,230.805z"
		/>
	<path id="path206" d="M169.546,130.417C169.681,130.453,169.681,130.453,169.546,130.417z"/>
	<path id="path207" d="M171.609,128.356c-4.312-2.322-14.473,4.525-3.504,2.384C169.628,130.53,171.273,130.188,171.609,128.356z"/>
	<path id="path208" d="M159.544,137.112C158.637,137.014,160.028,137.669,159.544,137.112z"/>
	<path id="path209" d="M157.13,139.234C157.123,139.259,157.123,139.259,157.13,139.234z"/>
	<path id="path210" d="M167.484,135.715c-4.877-4.345-11.031,1.441-10.305-4.417c-4.631-2.84-13.504,5.754-12.014,2.552
		c6.715-7.24,20.777-2.315,24.966-13.556c6.458-3.914-3.981-19.597-3.589-10.296c-0.84,10.434-12.322,15.39-20.246,19.235
		c-8.071,2.978-15.035,8.106-21.092,13.942c-8.063,6.518,2.909,18.455,9.692,11.168c8.181-3.334,17.274,4.582,17.577,10.813
		c6.06-4.421,0.773-10.938,4.12-14.721c-3.772-5.053-26.227-2.371-11.231-5.281c7.412,0.169,12.43,3.152,15.672-2.644
		C164.696,143.007,165.979,138.147,167.484,135.715z M149.823,138.365c-5.628,3.232-18.273,4.805-15.307,13.537
		c-7.342-7.357,5.683-12.678,11.265-13.901C146.583,138.989,152.394,135.459,149.823,138.365z M157.13,139.234
		C152.021,143.648,158.049,131.897,157.13,139.234z M161.305,140.133C155.847,139.301,162.67,133.52,161.305,140.133z"/>
	<path id="path211" d="M158.945,143.076C159.13,143.089,159.13,143.089,158.945,143.076z"/>
	<path id="path212" fill="none" d="M165.718,224.625h-0.26"/>
	<path id="path213" d="M167.486,226.979c9.545-10.315-15.763-12.456-8.831,0.592c-0.744,5.836,6.976,19.048,2.644,6.194
		c-3.275-5.916,2.067-15.129,5.089-6.717L167.486,226.979z"/>
	<path id="path214" d="M162.776,89.2c0.038,13.958-6.12-7.071-10.012,5.004C149.794,114.971,179.116,100.505,162.776,89.2z"/>
	<path id="path215" d="M164.837,41.802c-0.618,7.959,4.754-1.418,0-0.295V41.802z"/>
	<path id="path216" d="M156.005,83.313C156.019,83.458,156.019,83.458,156.005,83.313z"/>
	<path id="path217" d="M140.695,62.41c7.801,7.075,6.812,24.625,19.664,25.271c10.92-5.006,1.641-20.355-1.924-28.525
		c0.484-14.403-7.43,7.995-2.525,12.268c4.301,4.734,4.173,15.523,0.135,4.437C153.77,69.15,147.989,63.437,140.695,62.41z
		 M156.005,83.313c2.309,2.758,7.955-3.027,2.942,2.944C158.933,85.194,152.984,84.511,156.005,83.313z"/>
	<path id="path218" d="M140.685,62.539C140.682,62.582,140.683,62.572,140.685,62.539z"/>
	<path id="path219" d="M140.694,62.426C140.691,62.464,140.691,62.464,140.694,62.426z"/>
	<path id="path220" d="M140.695,62.41C140.695,62.416,140.695,62.416,140.695,62.41z"/>
	<path id="path221" d="M161.894,42.685C162.751,33.964,152.875,44.104,161.894,42.685z"/>
	<path id="path222" d="M127.154,134.538c-5.915,3.171-10.93,14.192-1.611,5.306c7.876-7.121,17.914-11.77,25.512-19.714
		c5.543-3.292,11.826-18.766,2.666-7.458c-5.549,10.427-17.794,14.628-25.906,21.994L127.154,134.538z"/>
	<path id="path223" d="M155.71,267.903C155.626,267.544,155.626,267.544,155.71,267.903z"/>
	<path id="path224" d="M155.71,267.903c-3.99-12.013-18.807-8.06-26.204-2.052c-4.273,4.328-17.391-9-11.415,2.68
		c8.453,8.193,19.491,0.604,26.095-5.301c3.678-2.51,11.23,3.146,6.236,7.192c-3.012,4.173-15.916-5.554-8.733,2.963
		C147,273.48,156.88,276.41,155.71,267.903z"/>
	<path id="path225" d="M152.175,45.629c4.776,2.998,4.834-7.134,0.225-4.048C151.294,41.427,150.548,46.287,152.175,45.629z"/>
	<path id="path226" d="M146.292,27.671c-8.47,1.32-23.609-3.044-26.09,9.46c3.02,8.221,6.024-14.193,15.495-7.987
		c5.077,0.816,2.442,17.356,8.354,10.783c-4.502-9.667,7.99-3.131,9.31-8.719C151.871,31.254,144.751,27.741,146.292,27.671
		L146.292,27.671z"/>
	<path id="path227" d="M142.757,236.403C142.837,236.374,142.837,236.374,142.757,236.403z"/>
	<path id="path228" d="M145.701,235.519c4.33-0.422,8.877,11.084,5.404,1C147.346,224.396,134.814,239.892,145.701,235.519z"/>
	<path id="path229" d="M146.291,50.928c7.415,8.875,7.166-9.846,0.408-0.327L146.291,50.928z"/>
	<path id="path230" d="M146.155,60.235c5.153,5.67,8.071-6.568,1.45-3.997C145.369,56.121,146.058,58.989,146.155,60.235z"/>
	<path id="path231" fill="none" d="M149.578,91.64l-0.027-0.001"/>
	<path id="path232" d="M152.179,90.377c-8.795,0.771-1.53-1.731-1.026-4.561c-7.747-2.511-11.989,0.731-8.796,7.977
		C142.02,106.308,149.737,90.687,152.179,90.377L152.179,90.377z"/>
	<path id="path233" d="M149.55,91.639C149.46,91.636,149.509,91.638,149.55,91.639z"/>
	<path id="path234" d="M151.066,37.604C144.984,31.795,146.392,44.523,151.066,37.604z"/>
	<path id="path235" d="M135.986,110.986c-5.293,6.908-16.235,21.511-16.714,26.121c8.357-8.472,11.745-21.117,22.905-26.674
		c5.021,4.383,11.322,1.953,4.572-3.129C142.589,104.546,138.149,107.025,135.986,110.986L135.986,110.986z"/>
	<path id="path236" d="M119.5,32.086c8.575-3.031,4.301-10.128,5.297-15.308c8.791-9.277,13.177,16.209,21.492,5.299
		c1.537-5.745-10.98,1.945-10.433-7.39c-4.829-11.909-18.854-1.835-15.693,6.537C108.787,14.819,110.313,30.756,119.5,32.086
		L119.5,32.086z"/>
	<path id="path237" d="M146.78,178.644c1.267-5.186-0.257-12.928-3.089-14.387c-5.809-4.613-18.649,4.851-6.525,4.433
		c11.349,1.524-0.147,16.08,5.134,15.29C141.866,180.863,146.889,182.099,146.78,178.644L146.78,178.644z"/>
	<path id="path238" d="M142.757,182.232C142.625,183.684,144.421,181.729,142.757,182.232z"/>
	<path id="path239" d="M132.543,126.247c-3.977,7.542,20.626-11.251,6.976-11.141C138.904,119.087,139.428,122.553,132.543,126.247z
		"/>
	<path id="path240" d="M120.288,155.037C120.248,154.937,120.248,154.937,120.288,155.037z"/>
	<path id="path241" d="M120.47,155.488C120.469,155.485,120.469,155.485,120.47,155.488z"/>
	<path id="path242" d="M120.43,155.387C120.383,155.269,120.383,155.269,120.43,155.387z"/>
	<path id="path243" d="M120.467,155.48C120.454,155.449,120.454,155.449,120.467,155.48z"/>
	<path id="path244" d="M128.626,170.748c3.466,4.6,9.138,23.225,12.069,18.846c-11.752-23.656-24.626-46.441-36.271-70.075
		c-1.321-5.281-9.887-14.399-4.814-3.693c6.548,11.856,12.215,24.605,19.174,35.965
		C121.732,158.179,124.921,164.658,128.626,170.748L128.626,170.748z"/>
	<path id="path245" d="M119.833,153.91C119.737,153.671,119.737,153.671,119.833,153.91z"/>
	<path id="path246" d="M120.47,155.488C120.495,155.548,120.492,155.542,120.47,155.488z"/>
	<path id="path247" d="M119.884,154.037C119.867,153.995,119.867,153.995,119.884,154.037z"/>
	<path id="path248" d="M120.168,154.74C120.16,154.72,120.16,154.72,120.168,154.74z"/>
	<path id="path249" d="M119.544,153.196C119.529,153.16,119.529,153.16,119.544,153.196z"/>
	<path id="path250" d="M120.045,154.435C120.031,154.4,120.031,154.4,120.045,154.435z"/>
	<path id="path251" d="M120.003,154.332C119.963,154.234,119.963,154.234,120.003,154.332z"/>
	<path id="path252" d="M120.145,154.68C120.112,154.598,120.112,154.598,120.145,154.68z"/>
	<path id="path253" d="M135.691,65.06C135.778,65.157,135.778,65.157,135.691,65.06z"/>
	<path id="path254" d="M134.514,59.171c-12.067-1.074,1.14,13.2-1.209,20.567c1.037,9.947-0.294,19.161-4.54,28.068
		c-1.1,10.446-13.41,18.191-13.691,27.035c7.924-5.498,15.888-17.596,19.399-27.968c1.744-8.642,3.555-15.479,3.029-24.527
		c-0.475-7.062,0.177-14.303-2.699-20.814L134.514,59.171z"/>
	<path id="path255" d="M133.925,50.045c-3.59,3.584-16.906,7.81-4.696,7.937C133.501,59.949,139.587,46.405,133.925,50.045z"/>
	<path id="path256" d="M123.032,46.218C122.39,47.138,125.078,46.441,123.032,46.218z"/>
	<path id="path257" d="M110.963,27.671c-6.364-1.793-0.037,7.086-7.36,2.649c-6.869-3.627-12.248,10.609-4.894,7.324
		c8.727-1.125,15.256,9.19,19.319,14.756c11.592,4.333,22.08-9.345,14.459-19.021c-10.208-4.538-2.566,18.15-13.1,8.573
		c-3.647-5.69-2.031-8.119-5.775-5.743C110.156,30.429,110.796,32.63,110.963,27.671z M123.032,46.218
		c5.906,0.424,7.126-10.424,7.747-1.186c4.558,4.05-6.24,5.879-5.401,3.182C122.746,48.97,122.951,47.751,123.032,46.218
		L123.032,46.218z"/>
	<path id="path258" d="M113.022,263.483c5.04-8.713,14.561-1.196,19.442-2.362c-4.664-7.784-20.913-6.688-21.502,3.856
		C113.585,273.986,113.291,267.652,113.022,263.483z"/>
	<path id="path259" d="M126.434,94.658C134.469,99.706,126.266,82.988,126.434,94.658z"/>
	<path id="path260" d="M123.032,97.149c0.126,3.403,2.297,18.75,2.934,8.013C127.633,103.247,126.43,94.898,123.032,97.149z"/>
	<path id="path261" d="M73.279,79.485C72.245,80.983,74.375,81.035,73.279,79.485z"/>
	<path id="path262" d="M91.826,53.284C91.064,52.444,91.757,54.475,91.826,53.284z"/>
	<path id="path263" d="M120.088,74.48C120.084,74.909,120.084,74.909,120.088,74.48z"/>
	<path id="path264" d="M77.106,106.57C77.374,106.035,75.911,106.106,77.106,106.57z"/>
	<path id="path265" d="M78.987,102.204C78.857,101.976,78.546,102.538,78.987,102.204z"/>
	<path id="path266" d="M74.305,87.888C73.917,87.897,74.445,88.516,74.305,87.888z"/>
	<path id="path267" d="M87.938,51.396C88.725,53.568,89.02,50.65,87.938,51.396z"/>
	<path id="path268" d="M94.85,42.384c-8.132-1.127-4.104-19.139-12.442-9.412c-3.646,5.154-3.426,12.389-1.177,17.959
		c-10.241-2.392-1.236,12.051,2.469,8.051c4.471,2.351,4.654,6.519-0.705,3.133c6.686,5.439,8.958,6.29,2.029,8.057
		c4.489,9.259,8.302,21.14-2.323,28.153c-5.603-0.13,6.175-13.821-2.659-12.726c0.85-8.788-8.806-14.494-9.412-2.878
		c2.53,8.958-5.128,10.536-9.446,18.175c-4.571,5.221-5.778,23.154,6.501,16.27c16.892-0.898,36.019-7.044,46.567-22.049
		c7.648-7.702,1.652-11.748,9.957-17.696c3.313-7.964,2.285-17.417-7.949-9.716c-4.689-11.631-6.033,10.914-11.027,11.908
		c-2.688-9.745,9.395-20.638,0.723-30.161c-2.76-9.219-6.919,4.416-7.939-4.029l-0.872-1.197L94.85,42.384z M120.088,74.48
		C122.516,81.13,114.235,86.05,120.088,74.48z M106.546,54.167c2.421,9.738-0.507,9.035-2.015,0.908
		C103.696,53.358,106.919,51.577,106.546,54.167z M93.886,57.7C97.509,58.121,94.135,60.938,93.886,57.7z M91.826,53.284
		C96.305,55.312,89.205,59.136,91.826,53.284z M88.587,52.106C84.302,46.085,95.81,49.186,88.587,52.106z M78.872,102.154
		C82.97,104.759,76.003,105.692,78.872,102.154z M74.162,88.022C81.487,86.301,73.27,93.937,74.162,88.022z M77.106,106.57
		C71.202,106.982,78.042,102.058,77.106,106.57z M73.279,79.485C76.971,87.514,68.355,84.424,73.279,79.485z M64.741,106.57
		c-4.473,2.705,8.843-10.975,8.243-10.598C73.633,100.64,69.244,105.562,64.741,106.57z M71.806,108.042
		C73.958,105.607,76.487,111.781,71.806,108.042z M111.845,92.733c-0.632,7.451-11.748,7.192-2.945,3.239
		c1.375-4.09,9.887-12.193,4.258-3.852L111.845,92.733z M117.439,75.658C113.47,80.754,114.804,72.313,117.439,75.658z
		 M104.058,93.573c1.177-5.985,15.289-20.375,6.316-7.905c-4.304,10.491-13.051,20.78-23.437,24.435
		C84.94,108.778,103.046,99.206,104.058,93.573z M100.069,85.373c4.177,0.15-1.736,8.144-1.178,2.356
		C100.776,88.361,99.064,85.981,100.069,85.373z M99.452,70.976c-3.369,6.305-1.326,15.73-4.97,22.281
		c-2.796,7.82-7.904,16.254-16.654,19.64c-11.131,4.555,9.608-7.285,10.17-11.331c7.417-8.623,7.433-20.104,6.123-30.681
		C93.258,67.973,99.868,69.215,99.452,70.976z M98.303,63.882c0.122,5.666-7.448-2.24-0.909,0.014L98.303,63.882z"/>
	<path id="path269" d="M98.355,64.107C97.645,63.261,97.842,65.466,98.355,64.107z"/>
	<path id="path270" d="M71.936,107.773C71.264,108.339,72.903,107.906,71.936,107.773z"/>
	<path id="path271" d="M115.083,87.434C115.019,87.557,115.019,87.557,115.083,87.434z"/>
	<path id="path272" d="M125.977,233.166c-4.702-6.176-8.946,7.955-0.787,3.647C126.678,236.185,125.696,234.351,125.977,233.166z"/>
	<path id="path273" d="M121.266,88.317C122.544,100.932,127.689,81.158,121.266,88.317z"/>
	<path id="path274" d="M121.092,229.064C129.772,221.522,110.073,225.736,121.092,229.064z"/>
	<path id="path275" d="M115.966,102.743c-10.879-4.557-11.738,19.042-4.511,5.792c8.216-1.169,8.651,13.23,2.741,18.344
		c-2.532,7.299,10.632-9.732,7.691-15.041C122.33,107.378,120.554,103.668,115.966,102.743z"/>
	<path id="path276" d="M95.064,213.438C95.093,213.402,95.093,213.402,95.064,213.438z"/>
	<path id="path277" d="M115.672,236.693c1.13-2.979-11.011-2.494-7.476-9.866c3.186-7.298,17.714-9.005,11.231-20.355
		c-3.631-9.979-16.053-5.396-19.075-0.47c-6.436-6.618-12.248,12.076-9.117,17.728c0.971,6.185,6.87,14.106,0.589,18.842
		c0.108,2.95,7.332-4.214,2.944,2.654c4.056,3.212-4.949,3.26-4.988,0.206c-3.57-4.604-6.621-14.875-5.027-22.857
		c-1.212-8.636-5.779,4.271-5.382-4.902c-1.1-9.725-6.203-6.31-3.444,1.35c0.408,7.25,1.606,14.283,3.772,21.106
		c2.187,12.354,23.31,18.374,24.217,2.438c0.451-6.441-4.977,9.98-3.556-0.283c0.149-5.792-0.039-11.369,2.942-6.337
		c0.166-5.153-2.43-9.834-1.47-15.096c-1.218-7.614,7.708-17.542,14.315-11.13c3.756,8.744-17.536,8.965-10.659,21.41
		C106.829,235.15,111.386,238.489,115.672,236.693L115.672,236.693z M95.151,213.328c-2.582,2.391-1.858,12.43-3.069,1.988
		C90.596,212.616,96.326,206.699,95.151,213.328z"/>
	<path id="path278" d="M115.672,236.693C115.553,236.769,115.553,236.769,115.672,236.693z"/>
	<path id="path279" d="M120.088,99.505C122.034,90.808,114.033,98.061,120.088,99.505z"/>
	<path id="path280" d="M116.446,238.474C107.097,244.798,124.594,243.347,116.446,238.474z"/>
	<path id="path281" d="M28.451,23.839c-0.781,7.679,12.631-5.077,17.163-6.021c5.346-1.631,10.262-5.385,16.563-4.537
		c9.781-0.476,19.028-0.17,27.875,3.065c4.754,1.076,20.262,12.979,19.19,5.985c-6.787-7.223-17.078-9.294-25.951-11.735
		c-7.477-1.311-16.899-1.64-24.73-0.587c-9.727,2.125-20.17,4.973-27.991,11.44l-1.092,1.162L28.451,23.839z"/>
	<path id="path282" d="M28.451,23.839C28.735,23.479,28.735,23.479,28.451,23.839z"/>
	<path id="path283" d="M107.657,17.347c2.925,2.366-4.069-8.056,3.894-7.047C105.527,5.42,100.92,14.58,107.657,17.347z"/>
	<path id="path284" d="M102.719,192.828c2.754-4.758,6.747-14.287,0.015-4.82C100.551,193.346,98.341,208.426,102.719,192.828z"/>
	<path id="path285" d="M101.836,194.89C101.916,194.882,101.916,194.882,101.836,194.89z"/>
	<path id="path286" d="M106.251,262.898c-1.068-7.119-21.036-0.309-8.125,5.107C102.138,271.25,108.57,269.271,106.251,262.898z"/>
	<path id="path287" d="M97.471,258.785c9.103,0.574,9.945-14.775,0.77-4.488c-5.678,1.969-16.068-1.018-6.2,4.133
		C93.814,258.878,95.66,258.844,97.471,258.785z"/>
	<path id="path288" d="M99.44,191.471C99.434,191.492,99.434,191.492,99.44,191.471z"/>
	<path id="path289" d="M103.897,175.166c-7.731-4.35-6.272,11.191-9.126,15.896c5.356,11.02,3.66-5.188,8.173-9.314
		C103.983,179.737,104.294,177.39,103.897,175.166z"/>
	<path id="path290" d="M93.003,21.782C94.611,21.415,91.28,21.133,93.003,21.782z"/>
	<path id="path291" d="M81.227,20.899c-9.105-2.097-13.869,18.906-5.815,6.698c4.626-8.851,13.745-3.647,20.645-4.084
		C101.255,22.647,82.778,19.406,81.227,20.899z"/>
	<path id="path292" d="M96.831,164.862c-3.477,8.038,2.061,4.663,1.126,0.198L96.831,164.862z"/>
	<path id="path293" fill="none" d="M94.77,194.89c0,0.248,0,0.771,0,0.783"/>
	<path id="path294" d="M88.587,188.707C88.525,188.556,88.525,188.556,88.587,188.707z"/>
	<path id="path295" d="M79.756,197.833C79.907,197.823,79.907,197.823,79.756,197.833z"/>
	<path id="path296" d="M91.531,195.772c-0.582-8.509,5.946-17.637,0.985-26.151c-4.138-3.226-4.321,10.237-7.825,10.635
		c2.355,5.953-5.13,14.064-4.053,4.017c0.007-7.497,8.431-13.898,9.126-22.056c2.309-6.266-2.755-19.496-7.951-8.834
		c-1.694-12.195-26.919-12.779-21.785,1.767c3.361,7.193,19.208,13.858,5.299,20.022c9.205,2.336,10.453-12.557,2.697-15.651
		c-5.172-2.82-6.49-9.589-0.679-10.953c13.347,1.813,11.987,19.358,9.454,29.384c1.25,7.225-6.549,17.395,2.028,22.568
		c5.063,7.701,6.087-14.924,6.52-0.033c-4.212,4.113,5.535,16.699,6.849,5.082C94.46,203.592,97.756,191.283,91.531,195.772
		L91.531,195.772z M86.232,163.98c0.897-11.485,2.739,6.125-0.689,1.814l0.124-1.305L86.232,163.98z M80.208,197.804
		C77.034,195.359,83.282,196.277,80.208,197.804z M82.111,193.712C75.029,192.266,82.077,188.874,82.111,193.712z M87.409,192.83
		C81.725,194.072,87.874,188.814,87.409,192.83z M88.587,188.707C80.423,187.99,90.186,183.52,88.587,188.707z"/>
	<path id="path297" d="M81.841,193.694C83.068,193.327,80.798,192.792,81.841,193.694z"/>
	<path id="path298" d="M90.018,225.212c-3.601-8.711-7.79-21.051-17.378-26.592c-6.301-0.87-12.426-9.372-14.246-9.893
		c-4.927,9.369,18.235,11.924,2.661,14.734c-6.671,2.758-2.191,18.293,0.563,5.462c8.7-9.043,19.571,1.308,23.767,9.838
		c3.271,4.968,3.463,10.319,2.91,15.324C89.271,243.26,90.112,226.312,90.018,225.212L90.018,225.212z"/>
	<path id="path299" d="M87.189,260.971c-8.481-7.722-18.523,2.642-24.211,8.991c5.172-1.542,16.369-11.195,19.134-4.096
		c3.43,3.889-9.467,9.105,2.649,7.043C89.011,271.129,89.184,264.792,87.189,260.971z"/>
	<path id="path300" d="M86.232,84.195C83.858,91.941,89.274,92.324,86.232,84.195z"/>
	<path id="path301" d="M62.975,46.218c5.269,9.801,10.424,20.753,16.658,30.607c10.19,13.687-2.505-10.642-5.872-15.688
		c-7.152-9.849-9.873-25.517-19.913-31.7C57.316,34.815,60.77,40.392,62.975,46.218L62.975,46.218z"/>
	<path id="path302" d="M69.158,120.701c-15.317-1.7,7.716,1.602,5.886,9.128c0.915,8.296-8.745,5.286-8.192,0.199
		c-4.468,9.796,6.957,11.162,13.785,12.757C83.056,134.49,79.286,121.642,69.158,120.701z"/>
	<path id="path303" d="M75.748,123.378C76.024,123.65,76.024,123.65,75.748,123.378z"/>
	<path id="path304" d="M78.872,32.97C78.219,33.555,79.869,33.14,78.872,32.97z"/>
	<path id="path305" d="M80.345,32.381C79.774,24.885,70.237,37.069,80.345,32.381z"/>
	<path id="path306" d="M64.446,15.306c-8.234-3.021-24.194,10.244-8.533,10.461c5.362,1.021,18.301-6.979,6.115-3.062
		c-10.87,5.725-6.255-9.227,2.984-6.596c5.643,1.229,19.905-0.459,6.684-1.08C69.281,14.874,66.835,14.883,64.446,15.306z"/>
	<path id="path307" d="M73.867,15.306C74.001,15.315,74.001,15.315,73.867,15.306z"/>
	<path id="path308" d="M73.356,251.962c11.438-3.455-12.25-0.125-15.129-1.396c-11.125-1.113-22.167-0.781-32.873,0.267
		c-10.383-3.485-3.295,5.259,4.382,1.124C44.22,251.321,58.83,252.003,73.356,251.962L73.356,251.962z"/>
	<path id="path309" d="M70.629,37.091C68.452,51.858,81.942,32.399,70.629,37.091z"/>
	<path id="path310" d="M63.548,213.057c-4.014,5.876,11.314,25.182,7.67,14.81c-10.314-7.549-1.963-12.213,0.884-13.25
		C71.912,210.336,63.716,208.892,63.548,213.057z"/>
	<path id="path311" d="M56.718,220.974c-10.385-4.34-27.431,0.728-26.946,14.326c-0.341,9.416,5.688-4.891,6.648-8.27
		c4.768-7.024,15.596-5.923,21.843-2.322c8.048,0.746,10.053,20.221,14.072,15.535C70.331,231.924,65.203,223.713,56.718,220.974z"
		/>
	<path id="path312" d="M56.498,220.794C56.961,221.5,56.56,220.263,56.498,220.794z"/>
	<path id="path313" d="M68.568,181.053C68.485,180.846,68.485,180.846,68.568,181.053z"/>
	<path id="path314" d="M66.507,182.526c-2.775,12.224,8.601-1.576,0.883-1.603L66.507,182.526z"/>
	<path id="path315" d="M66.445,263.548c4.685-2.764,3.75-13.033-1.591-4.076c-7.646,10.378-23.682,13.415-35.68,7.855
		c-9.95-4.717-14.775-15.878-16.764-25.92c-0.882-11.066,3.747-22.158,11.39-30.413c3.06-3.446,23.087-10.844,8.631-9.207
		c-9.504,3.956-17.212,13.027-20.68,22.243c-2.289,9.49-1.763,19.941,1.089,29.258c6.161,12.021,19.57,21.086,33.163,19.615
		C53.24,272.689,61.819,270.237,66.445,263.548z"/>
	<path id="path316" d="M67.685,31.204C60.303,25.428,66.903,39.955,67.685,31.204z"/>
	<path id="path317" d="M66.057,238.988c5.575,4.652-5.251-15.618-5.733-3.764C63.786,235.031,64.839,237.069,66.057,238.988z"/>
	<path id="path318" d="M66.057,238.988C66.011,238.912,66.011,238.912,66.057,238.988z"/>
	<path id="path319" d="M63.857,168.1C51.604,166.578,66.83,177.058,63.857,168.1z"/>
	<path id="path320" d="M62.681,132.773c0.67-7.916-7.626-9.451-2.466-1.208c1.354,12.071-16.932,14.512-19.024,21.226
		c7.392-2.989,19.74-6.343,21.234-16.341C60.209,135.417,64.651,132.398,62.681,132.773z"/>
	<path id="path321" d="M63.274,133.071C63.208,133.299,63.296,132.995,63.274,133.071z"/>
	<path id="path322" d="M61.403,176.246C49.658,181.197,71.324,182.18,61.403,176.246z"/>
	<path id="path323" d="M59.736,199.307C52.475,199.82,63.841,201.869,59.736,199.307z"/>
	<path id="path324" d="M54.427,261.587C56.894,267.693,61.873,256.255,54.427,261.587z"/>
	<path id="path325" d="M53.848,123.645c0.356,6.347,0.165,24.183,2.061,9.127c0.003-16.184,0.177-32.131,0.589-48.282
		c-5.011,1.61-0.935,18.039-2.503,25.319C53.32,114.344,53.332,119.088,53.848,123.645L53.848,123.645z"/>
	<path id="path326" d="M53.953,124.465C53.918,124.192,53.918,124.192,53.953,124.465z"/>
	<path id="path327" d="M53.847,218.146c1.65-8.428,1.345-18.58,1.436-27.711c0.429-13.232,0.636-26.571,0.893-39.73
		c-3.508-6.252-3.282,13.445-2.952,16.934c0.183,16.715,0.008,33.49-0.062,50.162L53.847,218.146z"/>
	<path id="path328" d="M54.731,148.667C54.785,148.601,54.785,148.601,54.731,148.667z"/>
	<path id="path329" d="M53.259,225.803c-1.529,4.546,6.266,15.537,2.595,4.65C55.462,228.765,54.722,226.873,53.259,225.803z"/>
	<path id="path330" d="M53.554,256.714C53.56,256.716,53.56,256.716,53.554,256.714z"/>
	<path id="path331" d="M53.554,256.714C45.166,255.199,56.024,265.222,53.554,256.714z"/>
	<path id="path332" d="M41.783,266.724c3.791,1.941,12.792-4.424,6.247-3.247C45.951,264.565,43.72,265.404,41.783,266.724z"/>
	<path id="path333" d="M46.488,261.425c4.993-4.759-8.979-2.566-1.023,0.062L46.488,261.425z"/>
	<path id="path334" d="M39.422,124.823C39.451,124.778,39.451,124.778,39.422,124.823z"/>
	<path id="path335" d="M39.422,124.823c0.426-7.3-15.437,4.953-17.458,9.48C20.502,144.955,34.606,124.058,39.422,124.823z"/>
	<path id="path336" d="M30.002,99.926c-4.98,4.161,16.555,16.586,8.59,3.629C35.844,103.374,31.888,96.981,30.002,99.926z"/>
	<path id="path337" d="M30.002,99.926C30.1,99.884,30.1,99.884,30.002,99.926z"/>
	<path id="path338" d="M36.529,259.778c-3.141,5.713-18.079-4.354-6.823,3.414c4.623,2.687,12.692,1.015,10.598-5.948
		C36.94,253.134,29.373,253.551,36.529,259.778z"/>
	<path id="path339" d="M14.247,55.742C13.277,55.003,14.207,56.588,14.247,55.742z"/>
	<path id="path340" d="M21.464,81.84C21.443,81.862,21.443,81.862,21.464,81.84z"/>
	<path id="path341" d="M24.879,84.824C24.167,83.788,24.223,85.238,24.879,84.824z"/>
	<path id="path342" d="M21.401,81.905C21.329,81.98,21.329,81.98,21.401,81.905z"/>
	<path id="path343" d="M17.731,64.494C17.7,64.388,17.7,64.388,17.731,64.494z"/>
	<path id="path344" d="M10.277,76.835c1.525,7.908,4.499,16.641,6.772,24.729c0.915,6.621-8.568,18.168,3.792,13.571
		c10.387-5.642-3.989-20.842,7.395-19.026c0.801-9.946-5.267-16.413-11.775-22.806c0.652-12.069,6.318,8.623,12.73,7.363
		c6.375,2.257,0.001-5.767,8.173-2.947c5.271-4.84,1.53-14.216-3.533-7.36c-11.213,3.729-15.538-13.445-14.131-21.197
		c8.318-7.763-4.849-18.152-6.325-4.964C10.047,54.781,10.322,65.853,10.277,76.835z M24.408,84.49
		c3.472,4.385,2.242,11.999-0.365,2.067l0.288-1.919L24.408,84.49z M21.464,81.84C24.811,87.711,14.688,82.929,21.464,81.84z
		 M17.637,64.176C19.52,73.51,8.204,64.106,17.637,64.176z M13.81,55.639C19.068,58.324,11.092,58.808,13.81,55.639z M13.81,59.76
		C24.811,59.38,8.684,66.972,13.81,59.76z"/>
	<path id="path345" d="M13.992,59.652C13.475,59.805,14.092,60.427,13.992,59.652z"/>
	<path id="path346" d="M39.422,91.85C40.932,84.838,35.072,90.568,39.422,91.85z"/>
	<path id="path347" d="M38.833,140.72C38.96,140.795,38.96,140.795,38.833,140.72z"/>
	<path id="path348" d="M38.833,140.72c3.184-7.48-7.648-10.174-1.155-1.295c-2.174,3.61-12.151,7.467-1.518,4.512
		C37.631,143.819,38.729,141.806,38.833,140.72L38.833,140.72z"/>
	<path id="path349" d="M37.656,169.57c0.629-6.568,4.111-21.448-1.185-23.559c-0.503,7.004,1.471,17.178-2.848,25.21
		c-1.256,4.411-6.146,17.264,0.509,7.317C35.053,175.389,37.148,172.544,37.656,169.57z"/>
	<path id="path350" d="M38.833,192.83c-2.686-8.191-16.328-11.25-19.43-20.9C16.698,180.984,31.5,190.317,38.833,192.83z"/>
	<path id="path351" d="M36.153,98.79C42.105,103.95,37.955,91.849,36.153,98.79z"/>
	<path id="path352" d="M35.596,206.369C34.837,206.626,34.837,206.626,35.596,206.369z"/>
	<path id="path353" d="M19.803,218.919c-7.672,6.584-1.595,25.553,6.962,13.66c-0.702-5.999,9.779-15.854,6.477-18.55
		c-7.421,4.328-1.996,15.644-12.068,17.075c-7.238-5.438,2.73-15.49,8.538-19.141c5.785,1.077,13.253-8.869,3.488-4.591
		C27.762,209.837,22.866,213.736,19.803,218.919z"/>
	<path id="path354" d="M34.418,49.751c3.319,9.089-12.791,9.191-10.321-1.115c0.976-13.359-5.683,20.19,9.463,12.867
		C40.208,61.996,38.463,51.926,34.418,49.751z"/>
	<path id="path355" d="M37.951,55.933C37.972,55.562,37.972,55.562,37.951,55.933z"/>
	<path id="path356" d="M32.359,117.665C27.721,118.713,30.872,120.913,32.359,117.665z"/>
	<path id="path357" d="M28.53,122.173c12.873,4.48,6.705-17.698,0.914-14.161c5.208,6.232,3.748,14.884-4.446,8.568
		C24.884,118.84,25.57,122.23,28.53,122.173z"/>
	<path id="path358" d="M31.768,89.495C32.447,97.479,39.488,89.859,31.768,89.495z"/>
	<path id="path359" d="M30.591,134.538C39.46,149.902,33.729,127.821,30.591,134.538z"/>
	<path id="path360" d="M30.591,37.975c0.148,4.351,8.411,3.664,1.388,0.672L30.591,37.975z"/>
	<path id="path361" d="M35.324,84.217C27.703,90.13,41.817,86.883,35.324,84.217z"/>
	<path id="path362" d="M12.044,190.474c2.9,9.408,21.15-4.076,10.836-1.822c-4.535,6.813-12.998-3.675-9.663-7.01
		c0.707-12.761,14.825-18.875,20.902-26.814c-3.454-2.305-16.444,8.647-18.838,14.967C10.396,174.601,8.111,184.57,12.044,190.474z"
		/>
	<path id="path363" d="M12.926,22.96c4.777,2.131,23.31-5.905,13.837-5.888c-4.074,5.268-19.518-1.22-10.036-5.056
		c4.724,4.351,18.169-0.348,5.619-0.244C12.967,3.223,4.264,16.236,12.926,22.96z"/>
	<path id="path366" d="M12.645,206.542c5.413,2.482,17.802-6.734,16.711-6.752c-6.571,3.472-14.978,4.487-18.307,1.041
		C10.572,202.501,10.836,206.382,12.645,206.542z"/>
	<path id="path369" d="M30.002,137.776c-6.778,4.02-0.836,18.745-1.178,5.3C28.867,141.201,31.13,139.634,30.002,137.776z"/>
	<path id="path370" d="M23.23,36.797c7.254,3.673,8.538-1.432,0.392-1.716C16.687,32.263,12.543,33.325,23.23,36.797z"/>
	<path id="path371" d="M24.408,141.309c-10.136-0.882-16.232-22.935-2.446-15.552c14.812,0.884-13.953-11.875-11.095,2.602
		C7.845,135.217,22.012,146.69,24.408,141.309z"/>
	<path id="path372" d="M20.005,268.44c-1.505-6.858-11.141-12.212-2.974-3.021c2.215,6.078-11.187,2.717-2.177,7.488
		C18.288,273.398,21.063,272.599,20.005,268.44z"/>
	<path id="path375" d="M18.225,143.666c-5.794-0.469-6.04,13.83-5.063,19.008c4.862,6.943,0.924-12.182,4.889-14.779
		C17.504,146.412,19.257,145.066,18.225,143.666z"/>
	<path id="path376" d="M258.751,243.761c-18.038,1.205-20.814-20.399-20.055-33.969c-2.021-24.189,1.615-48.479-1.207-72.642
		c3.234-10.831-15.327-5.428-20.246-5.562c1.08,23.441,1.451,46.918,1.471,70.364c2.213,12.972,3.777,28.883-5.966,39.264
		c-2.586,3.084-22.797,4.891-9.634,8.141c16.23,1.158,32.47-1.695,48.729-0.063c7.859,2.877,17.65-4.113,7.314-5.481
		L258.751,243.761z"/>
	<path id="path377" d="M260.809,29.731c-12.72,2.685-30.005-4.104-39.858,3.864c-13.284,27.618-27.495,54.821-40.218,82.689
		c10.201-1.261,16.987-2.893,19.19-14.307c5.718-7.822,8.402-23.27,16.43-26.318c-2.259,9.682,1.961,14.188,10.945,11.083
		c18.078-2.368,4.254-26.007,9.646-37.878c1.135-13.017,21.193-12.472,23.865-19.13V29.731z M260.632,29.748l-0.223,0.021
		L260.632,29.748z M259.736,29.833l-0.177,0.017L259.736,29.833z"/>
	<path id="path378" d="M217.621,122.345c7.865,1.958,24.729,4.532,19.556-9.167c-1.706-7.584,4.589-30.283-9.438-19.189
		c-7.347,0.553-13.478-0.022-10.894,9.43C217.3,109.71,216.278,116.15,217.621,122.345L217.621,122.345z"/>
	<path id="path379" d="M135.385,230.072c5.424-8.197,10.132-17.846,13.847-26.644c5.54-8.93,9.863-19.214,14.734-28.47
		c4.975-10.318,9.791-21.143,14.849-31.098c7.165-10.524-16.167-5.308-14.489,4.314c-4.434,10.416-10.203,21.455-14.358,31.413
		c-4.316,5.456-9.811,25.812-14.784,8.654c-13.429-25.18-26.395-50.603-39.238-76.084c-5.449,3.216-17.12,3.748-18.599,7.798
		c10.696,18.498,19.274,37.176,29.354,56.197c8.181,17.726,18.377,34.445,26.341,52.299L135.385,230.072z"/>
	<path id="path380" d="M76.811,246.707c-11.257-2.551-26.049-7.091-26.791-22.08c-14.625-2.728-9.93,19.953-24.838,19.091
		c-13.2,7.234,14.654,3.481,19.977,3.999C54.341,246.902,70.692,253.414,76.811,246.707z"/>
	<path id="path381" d="M17.637,28.258c-0.958,7.536,19.057,4.573,21.487,15.246c7.295,13.411,1.559,29.397,3.274,43.952
		c0.038,19.619,0.243,39.251-0.62,58.857c19.593-2.1,6.369-26.888,10.762-39.695c2.134-8.253-3.994-23.431,1.901-27.794
		c5.786,4.87,9.096,22.901,12.312,7.236c6.376-9.844,8.348-20.451-0.842-30.089c-7.167-10.195-8.633-31.507-25.201-27.103
		C33.016,28.885,25.31,28.888,17.637,28.258z"/>
	<path id="path382" d="M41.333,216.71c5.253,4.66,12.647-0.65,9.644-8.513c-0.672-18.325,0.513-36.639,0.668-54.933
		c-15.412-3.369-9.8,20.073-10.781,30.417C41.13,194.689,40.275,205.732,41.333,216.71z"/>
</g>
</svg>
